<svg width="3000" height="725" viewBox="0 0 3000 725" fill="none" xmlns="http://www.w3.org/2000/svg">
<path d="M332.981 185.69C362.797 185.69 387.061 161.496 387.061 131.75C387.061 102.004 362.797 77.8105 332.981 77.8105C302.994 77.8105 278.602 102.004 278.602 131.75C278.602 161.496 302.994 185.69 332.981 185.69ZM332.981 95.4037C352.755 95.4037 369.467 112.052 369.467 131.75C369.467 151.792 353.099 168.096 332.981 168.096C312.703 168.096 296.195 151.792 296.195 131.75C296.195 111.708 312.703 95.4037 332.981 95.4037Z" fill="white"/>
<path d="M477.829 185.69C507.817 185.69 532.209 161.496 532.209 131.75C532.209 102.004 507.817 77.8105 477.829 77.8105C447.841 77.8105 423.449 102.004 423.449 131.75C423.449 161.496 447.841 185.69 477.829 185.69ZM477.829 95.4037C498.107 95.4037 514.616 111.708 514.616 131.75C514.616 151.792 498.107 168.096 477.829 168.096C457.551 168.096 441.042 151.792 441.042 131.75C441.042 111.708 457.551 95.4037 477.829 95.4037Z" fill="white"/>
<path d="M757.731 640.262V335.779C757.731 292.86 724.213 257.659 681.869 254.528C672.778 232.63 652.321 216.566 627.817 213.519C624.578 112.581 552.609 28.697 456.681 6.1611C455.453 5.51062 454.118 5.0481 452.632 5.0481C452.57 5.0481 452.518 5.08234 452.456 5.08368C437.225 1.81987 421.459 0 405.255 0C389.097 0 373.373 1.8051 358.182 5.05079L358.168 5.0481C356.759 5.0481 355.478 5.45222 354.297 6.04161C258.134 28.413 185.937 112.415 182.693 213.518C158.177 216.564 137.714 232.636 128.626 254.542C86.2594 257.812 52.7795 292.958 52.7795 335.779V640.295C22.0982 650.981 0 680.007 0 714.145V715.627C0 720.487 3.94181 724.424 8.79658 724.424H48.9773C53.8321 724.424 57.7739 719.897 57.7739 715.037C57.7739 703.512 67.1505 694.13 78.6644 694.13C90.5436 694.13 99.8557 703.313 99.8557 715.627C99.8557 720.487 103.798 724.424 108.652 724.424H148.844C153.699 724.424 157.64 720.487 157.64 715.627V714.145C157.64 680.085 135.554 651.116 104.861 640.371V335.779C104.861 321.245 115.245 309.085 129.004 306.283C138.233 327.61 158.324 343.206 182.333 346.321V428.439C182.333 522.145 241.76 604.761 330.779 636.239V639.304V671.376C330.779 673.873 330.812 676.37 331.166 678.873C331.171 678.905 331.191 678.931 331.196 678.963C334.897 704.889 357.676 724.424 384.257 724.424H426.242C452.858 724.424 475.692 704.828 479.344 678.841C479.349 678.801 479.331 678.763 479.335 678.724C479.342 678.679 479.37 678.643 479.376 678.599C479.72 676.188 480.021 673.782 480.021 671.376V639.304V636.238C568.869 604.807 628.177 522.194 628.177 428.439V346.32C652.184 343.204 672.275 327.604 681.502 306.271C695.223 309.036 705.939 321.414 705.939 335.779V640.262C675.089 650.922 652.859 679.974 652.859 714.145V715.627C652.859 720.487 656.801 724.424 661.656 724.424H701.847C706.702 724.424 710.644 719.897 710.644 715.037C710.644 703.512 720.149 694.13 731.835 694.13C743.521 694.13 753.026 703.512 753.026 715.627C753.026 720.487 756.968 724.424 761.823 724.424H802.014C806.869 724.424 810.811 720.487 810.811 715.627V714.145C810.811 679.974 788.581 650.922 757.731 640.262ZM443.835 21.3088V23.6455C443.835 44.5038 426.532 61.474 405.255 61.474C384.139 61.474 366.965 44.5038 366.965 23.6455V21.2645C379.386 18.9364 392.159 17.5932 405.255 17.5932C418.452 17.5932 431.324 18.9458 443.835 21.3088ZM349.549 25.3868C350.501 55.1283 375.042 79.0672 405.255 79.0672C435.601 79.0672 460.248 55.1646 461.243 25.4587C544.543 48.8578 606.253 122.943 610.133 211.752H200.377C204.261 122.845 266.107 48.6987 349.549 25.3868ZM348.373 267.657H462.427V288.375H348.373V267.657ZM462.427 250.064H348.373V229.345H462.427V250.064ZM139.607 706.831H116.568C112.766 689.528 97.2135 676.537 78.6644 676.537C60.3946 676.537 45.057 689.34 41.1474 706.831H18.0335C21.6854 676.794 47.4844 653.444 78.6644 653.444C110.006 653.444 135.934 676.794 139.607 706.831ZM87.2677 335.779V636.338C84.4389 636.032 81.5738 635.851 78.6644 635.851C75.8631 635.851 73.0994 636.01 70.3727 636.296V335.779C70.3727 304.261 93.5671 278.06 123.942 272.826C123.692 275.167 123.55 277.539 123.55 279.944C123.55 283.163 123.858 286.304 124.303 289.402C103.135 294.298 87.2677 313.179 87.2677 335.779ZM141.143 279.944C141.143 255.665 158.951 235.419 182.333 231.3V328.594C158.951 324.469 141.143 304.223 141.143 279.944ZM462.427 609.789V630.094V630.508H348.373V630.094V609.789H462.427ZM348.373 648.101H462.427V668.82H348.373V648.101ZM351.882 592.196C357.63 580.17 369.93 571.773 384.257 571.773H426.242C440.694 571.773 453.095 580.17 458.89 592.196H351.882ZM426.242 706.831H384.257C370.015 706.831 357.395 698.544 351.606 686.413H458.894C453.105 698.544 440.484 706.831 426.242 706.831ZM480.021 617.646V607.227C480.021 604.816 479.709 602.399 479.344 599.779C479.325 599.642 479.243 599.533 479.218 599.398C475.344 573.875 453.179 554.179 426.242 554.179H384.257C357.904 554.179 336.084 573.217 331.707 598.131C331.519 598.662 330.779 604.73 330.779 607.227V617.651C291.255 602.358 258.456 575.943 235.574 542.792C242.777 455.777 316.79 387.936 405.255 387.936C494.049 387.936 568.094 455.846 574.96 542.918C552.134 576.026 519.429 602.391 480.021 617.646ZM589.156 518.845C571.572 433.839 495.35 370.343 405.255 370.343C315.436 370.343 239.224 433.837 221.421 518.843C207.6 491.388 199.926 460.628 199.926 428.439V371.798H303.982V354.205H199.926V338.158V330.269H272.716V312.676H199.926V288.741H247.013V271.147H199.926V229.345H330.779V258.86V290.937C330.779 293.434 330.812 295.931 331.166 298.434C331.8 302.757 335.505 305.969 339.877 305.969H470.633C475.026 305.969 478.775 302.521 479.376 298.176C479.709 295.765 480.021 293.348 480.021 290.937V258.86V229.345H610.584V246.847H510.911V264.44H610.584V288.375H542.177V305.969H610.584V329.904H567.868V347.497H610.584V428.439C610.584 460.634 602.934 491.394 589.156 518.845ZM628.177 328.594V231.3C651.549 235.424 669.357 255.665 669.357 279.944C669.357 304.223 651.549 324.469 628.177 328.594ZM686.211 289.311C686.646 286.241 686.95 283.131 686.95 279.944C686.95 277.525 686.804 275.14 686.551 272.786C716.918 277.911 740.137 304.169 740.137 335.779V636.292C737.407 636.008 734.64 635.851 731.835 635.851C729.03 635.851 726.263 636.008 723.532 636.292V335.779C723.532 313.07 707.53 294.093 686.211 289.311ZM769.739 706.831C765.936 689.528 750.384 676.537 731.835 676.537C713.425 676.537 697.959 689.34 694.017 706.831H670.893C674.566 676.794 700.494 653.444 731.835 653.444C763.176 653.444 789.104 676.794 792.777 706.831H769.739Z" fill="white"/>
<path d="M972.973 619.091V175.566H1183.14C1265.76 175.566 1336.05 237.891 1336.05 321.234C1336.05 405.301 1263.58 466.901 1183.14 466.901H1081.68V619.091H972.973ZM1183.14 276.301H1081.68V366.166H1183.14C1208.5 366.166 1227.35 346.599 1227.35 321.234C1227.35 295.869 1208.5 276.301 1183.14 276.301ZM1754.94 437.913V619.091H1646.23V437.913C1646.23 387.907 1623.04 353.846 1570.14 353.846C1517.96 353.846 1494.04 388.632 1494.04 437.913V619.091H1385.34V437.913C1385.34 326.307 1462.16 253.111 1570.14 253.111C1682.47 253.111 1754.94 329.93 1754.94 437.913ZM1826.69 619.091V175.566H2036.85C2119.47 175.566 2189.77 237.891 2189.77 321.234C2189.77 405.301 2117.3 466.901 2036.85 466.901H1935.39V619.091H1826.69ZM2036.85 276.301H1935.39V366.166H2036.85C2062.22 366.166 2081.06 346.599 2081.06 321.234C2081.06 295.869 2062.22 276.301 2036.85 276.301ZM2371.67 560.389C2371.67 597.35 2346.31 622.715 2309.35 622.715C2272.39 622.715 2246.3 598.075 2246.3 560.389C2246.3 523.429 2272.39 497.339 2309.35 497.339C2347.76 497.339 2371.67 521.98 2371.67 560.389ZM2705.77 437.913C2702.87 385.009 2678.95 353.846 2623.87 353.846C2608.65 353.846 2595.61 356.02 2584.74 360.368C2551.4 375.587 2539.08 403.851 2539.08 438.637C2539.08 450.233 2540.53 461.104 2544.15 470.525C2555.02 508.21 2587.64 521.98 2623.87 521.98C2678.95 521.98 2705.77 492.266 2705.77 437.913ZM2843.46 619.091H2734.75C2727.51 600.973 2720.98 582.856 2716.64 564.013C2692 604.597 2654.31 622.715 2607.93 622.715C2504.29 622.715 2430.37 535.749 2430.37 436.463C2430.37 321.958 2515.89 253.111 2623.87 253.111C2739.1 253.111 2811.57 327.031 2814.47 437.913C2815.2 447.334 2815.2 458.205 2815.2 471.25C2815.2 521.98 2823.17 572.71 2843.46 619.091ZM2883.32 256.734H2992.03V619.091H2883.32V256.734ZM2937.67 222.673C2900.71 222.673 2874.62 196.583 2874.62 159.622C2874.62 121.937 2900.71 97.2969 2937.67 97.2969C2975.36 97.2969 3000 121.937 3000 159.622C3000 198.032 2976.08 222.673 2937.67 222.673Z" fill="white"/>
</svg>
