<svg width="1512" height="778" viewBox="0 0 1512 778" fill="none" xmlns="http://www.w3.org/2000/svg">
<g clip-path="url(#clip0_727_304)">
<rect width="1512" height="778" fill="#F1416C"/>
<rect x="1485.04" y="391.72" width="97" height="339" rx="48.5" transform="rotate(60 1485.04 391.72)" fill="#5B70FE"/>
<rect x="395.583" y="518" width="97" height="339" rx="48.5" transform="rotate(60 395.583 518)" fill="#5B70FE"/>
<rect x="417.478" y="-105.984" width="168.158" height="587.688" rx="84.0792" transform="rotate(60 417.478 -105.984)" fill="white"/>
<rect x="860.583" y="138" width="97" height="339" rx="48.5" transform="rotate(60 860.583 138)" fill="#5B70FE"/>
<rect x="947.13" y="531.323" width="53.8974" height="188.363" rx="26.9487" transform="rotate(60 947.13 531.323)" fill="#001949"/>
<rect x="1313.58" y="43" width="97" height="339" rx="48.5" transform="rotate(60 1313.58 43)" fill="#5B70FE"/>
<rect x="1557.93" y="79.3965" width="60" height="210" rx="30" transform="rotate(60 1557.93 79.3965)" fill="#161461"/>
<rect x="121.04" y="297.23" width="97" height="339" rx="48.5" transform="rotate(60 121.04 297.23)" fill="#001949"/>
</g>
<defs>
<clipPath id="clip0_727_304">
<rect width="1512" height="778" fill="white"/>
</clipPath>
</defs>
</svg>
