<svg width="151" height="150" viewBox="0 0 151 150" fill="none" xmlns="http://www.w3.org/2000/svg">
<path d="M26.2113 52.4225C40.6873 52.4225 52.4225 40.6873 52.4225 26.2113C52.4225 11.7352 40.6873 0 26.2113 0C11.7352 0 0 11.7352 0 26.2113C0 40.6873 11.7352 52.4225 26.2113 52.4225Z" fill="#FFE284"/>
<path d="M101.011 116.657H97.1665V134.463H101.011V116.657Z" fill="#161461"/>
<path d="M63.0606 116.657H59.2163V134.463H63.0606V116.657Z" fill="#161461"/>
<path d="M116.675 147.248H43.5525C43.5525 136.466 52.2896 134.436 63.0746 134.436H97.1563C107.938 134.436 116.678 136.466 116.678 147.248H116.675Z" fill="#FFE284"/>
<path d="M118.597 149.17H41.6304V147.248C41.6304 134.188 53.0899 132.514 63.0747 132.514H97.1563C107.141 132.514 118.601 134.188 118.601 147.248L118.597 149.17ZM45.5865 145.326H114.63C113.834 138.906 108.714 136.358 97.1563 136.358H63.0747C51.5033 136.358 46.3833 138.906 45.5865 145.326Z" fill="#161461"/>
<path d="M145.734 118.583V114.739C146.021 114.739 146.295 114.625 146.498 114.422C146.7 114.22 146.814 113.945 146.814 113.659V15.8314C146.814 15.545 146.7 15.2704 146.498 15.0678C146.295 14.8653 146.021 14.7515 145.734 14.7515H14.4892C14.203 14.7525 13.9289 14.8665 13.7266 15.0689C13.5243 15.2712 13.4102 15.5453 13.4093 15.8314V113.659C13.4093 113.945 13.523 114.22 13.7256 114.422C13.9281 114.625 14.2028 114.739 14.4892 114.739H99.0886V118.583H14.4892C13.1835 118.582 11.9315 118.063 11.0082 117.14C10.085 116.217 9.56587 114.965 9.56494 113.659V15.8314C9.56587 14.5257 10.085 13.2738 11.0082 12.3505C11.9315 11.4273 13.1835 10.9082 14.4892 10.9072H145.734C147.04 10.9082 148.292 11.4273 149.215 12.3505C150.138 13.2738 150.657 14.5257 150.658 15.8314V113.659C150.657 114.965 150.138 116.217 149.215 117.14C148.292 118.063 147.04 118.582 145.734 118.583Z" fill="#161461"/>
<path d="M145.734 118.583H14.4892C13.1835 118.582 11.9315 118.063 11.0082 117.14C10.085 116.217 9.56587 114.965 9.56494 113.659V102.126H150.658V113.659C150.657 114.965 150.138 116.217 149.215 117.14C148.292 118.063 147.04 118.582 145.734 118.583ZM13.4093 105.967V113.655C13.4093 113.942 13.523 114.217 13.7256 114.419C13.9281 114.622 14.2028 114.735 14.4892 114.735H145.734C146.021 114.735 146.295 114.622 146.498 114.419C146.7 114.217 146.814 113.942 146.814 113.655V105.967H13.4093Z" fill="#161461"/>
<path d="M148.74 20.4766H11.1587V24.3209H148.74V20.4766Z" fill="#161461"/>
<path d="M114.899 62.2293C106.012 52.0384 93.6299 45.7197 79.9267 45.7197C66.2234 45.7197 53.8203 52.0384 44.9504 62.2293C44.6709 62.5642 44.5178 62.9866 44.5178 63.4228C44.5178 63.859 44.6709 64.2814 44.9504 64.6163C53.8343 74.8072 66.2199 81.1294 79.9267 81.1294C93.6334 81.1294 106.012 74.8072 114.899 64.6163C115.177 64.2805 115.329 63.8585 115.329 63.4228C115.329 62.9872 115.177 62.5651 114.899 62.2293ZM79.9267 73.591C77.7984 73.591 75.718 72.9599 73.9484 71.7775C72.1789 70.5952 70.7996 68.9146 69.9852 66.9483C69.1708 64.9821 68.9577 62.8185 69.3729 60.7311C69.7881 58.6438 70.8129 56.7264 72.3178 55.2215C73.8227 53.7166 75.7401 52.6918 77.8274 52.2766C79.9148 51.8614 82.0783 52.0745 84.0446 52.8889C86.0108 53.7034 87.6914 55.0826 88.8738 56.8522C90.0562 58.6217 90.6873 60.7022 90.6873 62.8304C90.6873 65.6843 89.5536 68.4213 87.5356 70.4393C85.5176 72.4573 82.7806 73.591 79.9267 73.591Z" fill="#FFE284"/>
<path d="M79.9266 83.0515C66.094 83.0515 53.1562 76.953 43.4999 65.8779C42.9254 65.1922 42.6106 64.3261 42.6106 63.4315C42.6106 62.5369 42.9254 61.6709 43.4999 60.9851C53.1562 49.91 66.0941 43.8115 79.9301 43.8115C93.7662 43.8115 106.697 49.91 116.35 60.9781C116.932 61.6602 117.252 62.5277 117.252 63.4245C117.252 64.3214 116.932 65.1889 116.35 65.8709C106.69 76.953 93.7557 83.0515 79.9266 83.0515ZM46.4601 63.421C55.3649 73.6015 67.2473 79.2072 79.9266 79.2072C92.6059 79.2072 104.481 73.6155 113.39 63.421C104.495 53.2441 92.6129 47.6419 79.9266 47.6419C67.2404 47.6419 55.3649 53.2441 46.4601 63.421ZM79.9266 75.5132C77.4183 75.5125 74.9666 74.7681 72.8814 73.374C70.7962 71.98 69.1711 69.999 68.2118 67.6815C67.2524 65.3639 67.0017 62.814 67.4915 60.354C67.9812 57.894 69.1894 55.6345 70.9633 53.8611C72.7371 52.0877 74.997 50.8802 77.4571 50.3911C79.9172 49.902 82.4671 50.1534 84.7844 51.1134C87.1017 52.0734 89.0822 53.699 90.4757 55.7846C91.8691 57.8702 92.6129 60.3221 92.6129 62.8304C92.6092 66.1936 91.2713 69.4178 88.8928 71.7956C86.5144 74.1734 83.2897 75.5104 79.9266 75.5132ZM79.9266 53.9955C78.1785 53.9962 76.4699 54.5152 75.0168 55.487C73.5637 56.4587 72.4314 57.8395 71.7631 59.4548C71.0948 61.0701 70.9205 62.8473 71.2622 64.5616C71.6039 66.276 72.4463 67.8505 73.6829 69.0861C74.9194 70.3217 76.4946 71.1628 78.2092 71.5032C79.9239 71.8436 81.7009 71.6678 83.3157 70.9982C84.9304 70.3286 86.3103 69.1952 87.2809 67.7414C88.2515 66.2875 88.7692 64.5785 88.7685 62.8304C88.7648 60.4872 87.8319 58.2411 86.1743 56.5848C84.5167 54.9285 82.2699 53.9973 79.9266 53.9955Z" fill="#161461"/>
<path d="M58.2133 51.4753H54.369V41.19H40.2778V37.3457H54.6067C55.5657 37.3466 56.4852 37.728 57.1633 38.4062C57.8415 39.0843 58.2229 40.0038 58.2238 40.9629L58.2133 51.4753Z" fill="#161461"/>
<path d="M33.3756 48.3616C31.6006 48.3616 29.8654 47.8352 28.3895 46.8491C26.9136 45.8629 25.7633 44.4612 25.084 42.8213C24.4048 41.1814 24.227 39.3769 24.5733 37.636C24.9196 35.895 25.7744 34.2959 27.0295 33.0408C28.2847 31.7856 29.8838 30.9309 31.6247 30.5846C33.3657 30.2383 35.1702 30.416 36.8101 31.0953C38.45 31.7746 39.8517 32.9249 40.8378 34.4008C41.824 35.8766 42.3504 37.6118 42.3504 39.3868C42.3476 41.7662 41.4011 44.0474 39.7187 45.7299C38.0362 47.4124 35.755 48.3588 33.3756 48.3616ZM33.3756 34.2494C32.3609 34.2494 31.369 34.5503 30.5253 35.1141C29.6816 35.6778 29.024 36.4791 28.6357 37.4165C28.2474 38.354 28.1458 39.3855 28.3438 40.3808C28.5417 41.376 29.0304 42.2901 29.7479 43.0076C30.4654 43.7251 31.3795 44.2137 32.3747 44.4117C33.3699 44.6097 34.4015 44.5081 35.3389 44.1197C36.2764 43.7314 37.0777 43.0739 37.6414 42.2302C38.2051 41.3865 38.506 40.3946 38.506 39.3799C38.5042 38.0198 37.9631 36.7159 37.0013 35.7541C36.0396 34.7924 34.7357 34.2513 33.3756 34.2494Z" fill="#161461"/>
<path d="M46.5789 98.3547C44.8045 98.352 43.0707 97.8233 41.5966 96.8354C40.1226 95.8476 38.9745 94.445 38.2973 92.8048C37.6202 91.1646 37.4445 89.3606 37.7923 87.6206C38.1402 85.8806 38.9961 84.2827 40.2517 83.029C41.5074 81.7752 43.1066 80.9219 44.8472 80.5767C46.5877 80.2315 48.3915 80.4101 50.0306 81.0898C51.6697 81.7695 53.0705 82.9198 54.0561 84.3954C55.0416 85.8709 55.5676 87.6056 55.5676 89.38C55.5649 91.7618 54.6165 94.0451 52.931 95.728C51.2455 97.4109 48.9607 98.3557 46.5789 98.3547ZM46.5789 84.2496C45.5648 84.2524 44.5743 84.5556 43.7324 85.121C42.8906 85.6864 42.2352 86.4886 41.849 87.4263C41.4628 88.364 41.3632 89.3952 41.5628 90.3894C41.7623 91.3837 42.252 92.2966 42.9701 93.0127C43.6881 93.7288 44.6023 94.216 45.5971 94.4128C46.592 94.6097 47.6228 94.5073 48.5594 94.1185C49.4961 93.7298 50.2965 93.0722 50.8596 92.2289C51.4228 91.3855 51.7233 90.3941 51.7233 89.38C51.7224 88.7053 51.5886 88.0375 51.3296 87.4145C51.0706 86.7916 50.6914 86.2258 50.2137 85.7494C49.736 85.273 49.1691 84.8953 48.5455 84.638C47.9218 84.3806 47.2536 84.2487 46.5789 84.2496Z" fill="#161461"/>
<path d="M48.5079 67.2754H44.6636V82.5933H48.5079V67.2754Z" fill="#161461"/>
<path d="M43.6713 61.502H33.3755V65.3463H43.6713V61.502Z" fill="#161461"/>
<path d="M26.2633 72.2874C24.4883 72.2874 22.7531 71.761 21.2772 70.7749C19.8013 69.7887 18.651 68.387 17.9717 66.7471C17.2925 65.1072 17.1147 63.3027 17.461 61.5617C17.8073 59.8208 18.6621 58.2217 19.9172 56.9665C21.1724 55.7114 22.7715 54.8566 24.5124 54.5103C26.2534 54.1641 28.0579 54.3418 29.6978 55.0211C31.3377 55.7003 32.7394 56.8506 33.7255 58.3265C34.7117 59.8024 35.238 61.5376 35.238 63.3126C35.2353 65.692 34.2888 67.9732 32.6063 69.6557C30.9239 71.3382 28.6427 72.2846 26.2633 72.2874ZM26.2633 58.1822C25.2486 58.1822 24.2567 58.4831 23.413 59.0468C22.5693 59.6106 21.9117 60.4118 21.5234 61.3493C21.1351 62.2868 21.0335 63.3183 21.2315 64.3135C21.4294 65.3087 21.9181 66.2229 22.6356 66.9404C23.3531 67.6579 24.2672 68.1465 25.2624 68.3445C26.2576 68.5424 27.2892 68.4408 28.2266 68.0525C29.1641 67.6642 29.9654 67.0066 30.5291 66.1629C31.0928 65.3192 31.3937 64.3273 31.3937 63.3126C31.3919 61.9525 30.8508 60.6487 29.889 59.6869C28.9273 58.7252 27.6234 58.1841 26.2633 58.1822Z" fill="#161461"/>
<path d="M119.974 89.5477H105.645C104.69 89.5422 103.776 89.1592 103.102 88.4822C102.428 87.8052 102.05 86.8892 102.049 85.9341V74.7227H105.893V85.7034H119.984L119.974 89.5477Z" fill="#161461"/>
<path d="M115.182 44.2549H111.338V59.5727H115.182V44.2549Z" fill="#161461"/>
<path d="M126.331 61.2744H116.035V65.1187H126.331V61.2744Z" fill="#161461"/>
<path d="M126.474 96.4368C124.699 96.4368 122.964 95.9104 121.488 94.9243C120.012 93.9381 118.862 92.5364 118.183 90.8965C117.503 89.2566 117.326 87.4521 117.672 85.7112C118.018 83.9702 118.873 82.3711 120.128 81.1159C121.383 79.8608 122.982 79.006 124.723 78.6598C126.464 78.3135 128.269 78.4912 129.909 79.1705C131.549 79.8497 132.95 81.0001 133.936 82.4759C134.923 83.9518 135.449 85.687 135.449 87.462C135.446 89.8414 134.5 92.1226 132.817 93.8051C131.135 95.4876 128.854 96.434 126.474 96.4368ZM126.474 82.3316C125.46 82.3316 124.468 82.6325 123.624 83.1963C122.78 83.76 122.123 84.5613 121.734 85.4987C121.346 86.4362 121.244 87.4677 121.442 88.4629C121.64 89.4581 122.129 90.3723 122.847 91.0898C123.564 91.8073 124.478 92.2959 125.473 92.4939C126.469 92.6918 127.5 92.5902 128.438 92.2019C129.375 91.8136 130.176 91.156 130.74 90.3123C131.304 89.4687 131.605 88.4767 131.605 87.462C131.604 86.1017 131.063 84.7973 130.101 83.8353C129.139 82.8734 127.835 82.3326 126.474 82.3316Z" fill="#161461"/>
<path d="M113.271 46.4457C111.495 46.4464 109.759 45.9204 108.282 44.9343C106.805 43.9482 105.654 42.5462 104.973 40.9057C104.293 39.2652 104.115 37.4599 104.461 35.7181C104.807 33.9762 105.662 32.3761 106.917 31.1202C108.173 29.8642 109.773 29.0087 111.514 28.662C113.256 28.3153 115.062 28.4929 116.702 29.1724C118.343 29.8518 119.745 31.0026 120.732 32.4791C121.719 33.9556 122.246 35.6916 122.246 37.4675C122.244 39.8475 121.298 42.1295 119.615 43.8128C117.932 45.496 115.651 46.4429 113.271 46.4457ZM113.271 32.3371C112.255 32.3364 111.262 32.637 110.417 33.2008C109.572 33.7647 108.914 34.5665 108.525 35.5047C108.136 36.443 108.034 37.4755 108.232 38.4717C108.43 39.4679 108.919 40.383 109.637 41.1012C110.355 41.8194 111.27 42.3084 112.267 42.5064C113.263 42.7044 114.295 42.6024 115.234 42.2134C116.172 41.8244 116.974 41.1659 117.537 40.3211C118.101 39.4763 118.402 38.4832 118.401 37.4675C118.399 36.1074 117.858 34.8035 116.897 33.8418C115.935 32.88 114.631 32.3389 113.271 32.3371Z" fill="#161461"/>
<path d="M133.44 72.2874C131.665 72.2874 129.929 71.761 128.453 70.7749C126.978 69.7887 125.827 68.387 125.148 66.7471C124.469 65.1072 124.291 63.3027 124.637 61.5617C124.984 59.8208 125.838 58.2217 127.093 56.9665C128.349 55.7114 129.948 54.8566 131.689 54.5103C133.43 54.1641 135.234 54.3418 136.874 55.0211C138.514 55.7003 139.916 56.8506 140.902 58.3265C141.888 59.8024 142.414 61.5376 142.414 63.3126C142.412 65.692 141.465 67.9732 139.783 69.6557C138.1 71.3382 135.819 72.2846 133.44 72.2874ZM133.44 58.1822C132.425 58.1822 131.433 58.4831 130.589 59.0468C129.746 59.6106 129.088 60.4118 128.7 61.3493C128.311 62.2868 128.21 63.3183 128.408 64.3135C128.606 65.3087 129.094 66.2229 129.812 66.9404C130.529 67.6579 131.443 68.1465 132.439 68.3445C133.434 68.5424 134.465 68.4408 135.403 68.0525C136.34 67.6642 137.142 67.0066 137.705 66.1629C138.269 65.3192 138.57 64.3273 138.57 63.3126C138.569 61.9522 138.028 60.6478 137.066 59.6859C136.104 58.724 134.8 58.1831 133.44 58.1822Z" fill="#161461"/>
</svg>
