<svg width="131" height="98" viewBox="0 0 131 98" fill="none" xmlns="http://www.w3.org/2000/svg">
<g clip-path="url(#clip0_698_318)">
<path d="M20.5807 64.3646C31.947 64.3646 41.1613 55.2237 41.1613 43.9479C41.1613 32.6721 31.947 23.5312 20.5807 23.5312C9.21427 23.5312 0 32.6721 0 43.9479C0 55.2237 9.21427 64.3646 20.5807 64.3646Z" fill="#FFE284"/>
<path d="M129.345 14.5254H21.2749V17.5198H129.345V14.5254Z" fill="#161461"/>
<path d="M40.9307 7.59473H30.5361V10.5892H40.9307V7.59473Z" fill="#161461"/>
<path d="M55.7489 7.59473H45.3542V10.5892H55.7489V7.59473Z" fill="#161461"/>
<path d="M126.747 98H24.1479C23.02 97.9993 21.9386 97.5545 21.1411 96.7634C20.3436 95.9722 19.8953 94.8994 19.8945 93.7806V4.21944C19.8953 3.1006 20.3436 2.02779 21.1411 1.23664C21.9386 0.4455 23.02 0.000721138 24.1479 0L126.747 0C127.874 0.000721138 128.956 0.4455 129.753 1.23664C130.551 2.02779 130.999 3.1006 131 4.21944V93.7806C130.999 94.8994 130.551 95.9722 129.753 96.7634C128.956 97.5545 127.874 97.9993 126.747 98ZM24.1479 2.99444C23.8206 2.99516 23.5069 3.12446 23.2755 3.35403C23.0441 3.58361 22.9138 3.89478 22.913 4.21944V93.7806C22.9138 94.1052 23.0441 94.4164 23.2755 94.646C23.5069 94.8755 23.8206 95.0048 24.1479 95.0056H126.747C127.074 95.0048 127.387 94.8755 127.619 94.646C127.85 94.4164 127.981 94.1052 127.981 93.7806V4.21944C127.981 3.89478 127.85 3.58361 127.619 3.35403C127.387 3.12446 127.074 2.99516 126.747 2.99444H24.1479Z" fill="#161461"/>
<path d="M118.717 80.1528C119.446 75.6978 116.396 71.5001 111.906 70.7769C107.415 70.0538 103.183 73.079 102.454 77.534C101.725 81.9891 104.775 86.1868 109.266 86.91C113.757 87.6331 117.988 84.6078 118.717 80.1528Z" fill="#FFE284"/>
<path d="M110.587 88.5047C108.659 88.5058 106.774 87.9396 105.17 86.8778C103.566 85.8159 102.316 84.3062 101.578 82.5394C100.839 80.7727 100.645 78.8283 101.021 76.9523C101.396 75.0763 102.324 73.3529 103.687 72C105.05 70.6472 106.787 69.7257 108.678 69.3522C110.569 68.9787 112.529 69.1698 114.31 69.9015C116.091 70.6332 117.614 71.8726 118.685 73.4628C119.756 75.053 120.328 76.9227 120.328 78.8354C120.326 81.3982 119.299 83.8556 117.473 85.6683C115.647 87.481 113.17 88.5011 110.587 88.5047ZM110.587 72.1714C109.255 72.1703 107.953 72.5611 106.846 73.2944C105.738 74.0277 104.875 75.0704 104.365 76.2906C103.856 77.5108 103.722 78.8537 103.982 80.1491C104.242 81.4446 104.884 82.6344 105.825 83.568C106.767 84.5016 107.967 85.137 109.273 85.3938C110.579 85.6506 111.933 85.5171 113.162 85.0104C114.392 84.5037 115.442 83.6465 116.181 82.5472C116.919 81.448 117.312 80.1562 117.31 78.8354C117.308 77.0669 116.599 75.3715 115.338 74.1208C114.078 72.87 112.369 72.1661 110.587 72.1632V72.1714Z" fill="#161461"/>
<path d="M118.718 56.9331C119.447 52.4781 116.397 48.2803 111.906 47.5572C107.415 46.834 103.184 49.8593 102.455 54.3143C101.726 58.7693 104.776 62.9671 109.266 63.6902C113.757 64.4134 117.989 61.3881 118.718 56.9331Z" fill="#FFE284"/>
<path d="M110.587 65.2869C108.659 65.2869 106.775 64.7198 105.172 63.6573C103.569 62.5949 102.32 61.0847 101.582 59.3179C100.844 57.551 100.651 55.6069 101.027 53.7312C101.403 51.8555 102.332 50.1326 103.695 48.7803C105.058 47.4281 106.795 46.5071 108.685 46.134C110.576 45.7609 112.536 45.9524 114.317 46.6843C116.098 47.4161 117.62 48.6555 118.691 50.2456C119.762 51.8357 120.334 53.7052 120.334 55.6176C120.332 58.1814 119.304 60.6396 117.477 62.4524C115.649 64.2653 113.171 65.2848 110.587 65.2869ZM110.587 48.9536C109.256 48.9536 107.955 49.3451 106.848 50.0787C105.742 50.8123 104.879 51.8549 104.37 53.0747C103.861 54.2946 103.728 55.6368 103.988 56.9317C104.248 58.2266 104.889 59.4159 105.83 60.3493C106.771 61.2827 107.97 61.9182 109.276 62.1754C110.581 62.4327 111.934 62.3001 113.164 61.7945C114.393 61.2889 115.444 60.4329 116.183 59.3349C116.922 58.2368 117.316 56.946 117.315 55.6257C117.315 53.855 116.607 52.1566 115.345 50.904C114.083 49.6513 112.372 48.9469 110.587 48.9454V48.9536Z" fill="#161461"/>
<path d="M110.581 40.5718C115.131 40.5718 118.819 36.913 118.819 32.3996C118.819 27.8863 115.131 24.2275 110.581 24.2275C106.032 24.2275 102.344 27.8863 102.344 32.3996C102.344 36.913 106.032 40.5718 110.581 40.5718Z" fill="#FFE284"/>
<path d="M110.587 42.0691C108.659 42.0702 106.774 41.5042 105.171 40.4426C103.567 39.381 102.317 37.8716 101.578 36.1051C100.84 34.3387 100.645 32.3946 101.02 30.5188C101.395 28.6429 102.323 26.9194 103.685 25.5664C105.048 24.2134 106.784 23.2915 108.674 22.9173C110.565 22.5432 112.525 22.7336 114.306 23.4644C116.088 24.1953 117.611 25.4338 118.683 27.0233C119.754 28.6128 120.327 30.4819 120.328 32.3944C120.328 34.9582 119.301 37.4169 117.475 39.2308C115.648 41.0447 113.171 42.0655 110.587 42.0691ZM110.587 25.7358C109.255 25.7347 107.953 26.1257 106.845 26.8592C105.738 27.5927 104.875 28.6358 104.365 29.8563C103.855 31.0769 103.722 32.42 103.983 33.7156C104.243 35.0112 104.885 36.201 105.827 37.1344C106.77 38.0678 107.97 38.7028 109.277 38.9589C110.583 39.2151 111.937 39.0809 113.166 38.5733C114.396 38.0658 115.446 37.2077 116.183 36.1077C116.921 35.0078 117.313 33.7155 117.31 32.3944C117.306 30.6266 116.597 28.9323 115.337 27.6823C114.077 26.4323 112.369 25.7285 110.587 25.7249V25.7358Z" fill="#161461"/>
<path d="M36.8888 65.2869C34.9616 65.2842 33.0785 64.7148 31.4774 63.6507C29.8763 62.5866 28.6292 61.0755 27.8935 59.3084C27.1579 57.5414 26.9668 55.5976 27.3445 53.7228C27.7221 51.8481 28.6515 50.1264 30.0152 48.7755C31.3789 47.4246 33.1157 46.505 35.006 46.133C36.8964 45.7611 38.8555 45.9533 40.6357 46.6856C42.4159 47.4178 43.9374 48.6572 45.0078 50.247C46.0782 51.8368 46.6495 53.7057 46.6495 55.6176C46.6473 58.1837 45.6178 60.644 43.7874 62.4572C41.957 64.2705 39.4756 65.2883 36.8888 65.2869ZM36.8888 48.9536C35.5581 48.9563 34.2582 49.3503 33.1533 50.0859C32.0483 50.8214 31.1881 51.8655 30.6812 53.086C30.1744 54.3066 30.0437 55.6488 30.3058 56.943C30.5679 58.2372 31.2109 59.4253 32.1535 60.357C33.0961 61.2887 34.2961 61.9222 35.6016 62.1774C36.9072 62.4326 38.2597 62.2981 39.4882 61.7908C40.7167 61.2835 41.7659 60.4263 42.5034 59.3275C43.2408 58.2287 43.6332 56.9376 43.631 55.6176C43.6299 54.7403 43.4547 53.8718 43.1153 53.0617C42.7759 52.2517 42.2789 51.5158 41.6529 50.8963C41.0268 50.2767 40.2838 49.7855 39.4664 49.4508C38.649 49.1161 37.7731 48.9443 36.8888 48.9454V48.9536Z" fill="#161461"/>
<path d="M73.7363 76.8973C71.808 76.8973 69.9231 76.3299 68.32 75.2669C66.7169 74.204 65.4676 72.6932 64.7302 70.9257C63.9928 69.1582 63.8004 67.2135 64.1774 65.3375C64.5543 63.4616 65.4837 61.7387 66.848 60.3868C68.2122 59.035 69.95 58.1149 71.8414 57.7431C73.7329 57.3712 75.693 57.5642 77.4739 58.2978C79.2547 59.0313 80.7762 60.2723 81.8459 61.8639C82.9156 63.4554 83.4854 65.3259 83.4833 67.2388C83.4767 69.8003 82.4474 72.2548 80.6205 74.0651C78.7937 75.8753 76.3183 76.8937 73.7363 76.8973ZM73.7363 60.5639C72.4055 60.5639 71.1046 60.9554 69.9981 61.6889C68.8916 62.4223 68.0292 63.4648 67.5199 64.6845C67.0107 65.9041 66.8774 67.2462 67.137 68.541C67.3967 69.8358 68.0375 71.0252 68.9785 71.9587C69.9195 72.8922 71.1184 73.5279 72.4236 73.7855C73.7288 74.043 75.0817 73.9108 76.3111 73.4056C77.5406 72.9004 78.5915 72.0449 79.3308 70.9472C80.0701 69.8495 80.4648 68.559 80.4648 67.2388C80.4655 65.4673 79.7572 63.768 78.4955 62.5143C77.2338 61.2606 75.522 60.5552 73.7363 60.553V60.5639Z" fill="#161461"/>
<path d="M73.7363 53.6795C71.8085 53.6795 69.924 53.1124 68.3211 52.0499C66.7182 50.9874 65.4689 49.4773 64.7312 47.7105C63.9935 45.9436 63.8005 43.9994 64.1765 42.1238C64.5526 40.2481 65.4809 38.5252 66.8441 37.1729C68.2072 35.8206 69.944 34.8997 71.8347 34.5266C73.7254 34.1535 75.6852 34.345 77.4663 35.0769C79.2473 35.8087 80.7696 37.048 81.8406 38.6382C82.9116 40.2283 83.4833 42.0977 83.4833 44.0102C83.4796 46.5735 82.4516 49.0309 80.6244 50.8434C78.7973 52.656 76.3202 53.6759 73.7363 53.6795ZM73.7363 37.3462C72.4055 37.3462 71.1046 37.7376 69.9981 38.4711C68.8916 39.2045 68.0292 40.247 67.5199 41.4667C67.0107 42.6864 66.8774 44.0285 67.137 45.3233C67.3967 46.6181 68.0375 47.8074 68.9785 48.7409C69.9195 49.6744 71.1184 50.3101 72.4236 50.5677C73.7288 50.8252 75.0817 50.693 76.3111 50.1878C77.5406 49.6826 78.5915 48.8271 79.3308 47.7294C80.0701 46.6317 80.4648 45.3412 80.4648 44.021C80.4655 42.2495 79.7572 40.5502 78.4955 39.2965C77.2338 38.0429 75.522 37.3374 73.7363 37.3353V37.3462Z" fill="#161461"/>
<path d="M49.1261 57.8962L48.2119 60.75L65.4278 66.1775L66.342 63.3237L49.1261 57.8962Z" fill="#161461"/>
<path d="M65.4357 45.0452L48.5139 50.3027L49.4161 53.1603L66.3379 47.9028L65.4357 45.0452Z" fill="#161461"/>
<path d="M102.272 33.4508L85.4348 38.7559L86.3485 41.6098L103.186 36.3048L102.272 33.4508Z" fill="#161461"/>
<path d="M86.1229 46.3433L85.2092 49.1973L102.277 54.5748L103.191 51.7209L86.1229 46.3433Z" fill="#161461"/>
<path d="M102.315 56.7815L85.3149 62.1377L86.2286 64.9917L103.228 59.6355L102.315 56.7815Z" fill="#161461"/>
<path d="M86.0285 69.6597L85.1147 72.5137L102.24 77.9094L103.154 75.0554L86.0285 69.6597Z" fill="#161461"/>
</g>
<defs>
<clipPath id="clip0_698_318">
<rect width="131" height="98" fill="white"/>
</clipPath>
</defs>
</svg>
