<svg width="146" height="134" viewBox="0 0 146 134" fill="none" xmlns="http://www.w3.org/2000/svg">
<path d="M119.345 134C133.866 134 145.638 122.228 145.638 107.707C145.638 93.1858 133.866 81.4141 119.345 81.4141C104.824 81.4141 93.0522 93.1858 93.0522 107.707C93.0522 122.228 104.824 134 119.345 134Z" fill="#F1416C"/>
<path d="M92.7016 44.4893H53.4374C52.4694 44.4893 51.6846 45.274 51.6846 46.2421V85.5063C51.6846 86.4744 52.4694 87.2592 53.4374 87.2592H92.7016C93.6697 87.2592 94.4545 86.4744 94.4545 85.5063V46.2421C94.4545 45.274 93.6697 44.4893 92.7016 44.4893Z" fill="#F1416C"/>
<path d="M92.7016 89.1868H53.4374C52.4614 89.1859 51.5256 88.7977 50.8355 88.1076C50.1454 87.4175 49.7573 86.4817 49.7563 85.5058V46.2416C49.7573 45.2656 50.1454 44.3298 50.8355 43.6397C51.5256 42.9496 52.4614 42.5615 53.4374 42.5605H92.7016C93.6775 42.5615 94.6133 42.9496 95.3034 43.6397C95.9935 44.3298 96.3817 45.2656 96.3826 46.2416V85.5058C96.3817 86.4817 95.9935 87.4175 95.3034 88.1076C94.6133 88.7977 93.6775 89.1859 92.7016 89.1868ZM53.6127 85.3305H92.5263V46.4168H53.6127V85.3305Z" fill="#161461"/>
<path d="M84.8135 81.2987H61.3251C60.3491 81.2978 59.4133 80.9096 58.7232 80.2195C58.0331 79.5294 57.645 78.5936 57.644 77.6177V54.1293C57.645 53.1533 58.0331 52.2175 58.7232 51.5274C59.4133 50.8373 60.3491 50.4492 61.3251 50.4482H84.8135C85.7894 50.4492 86.7252 50.8373 87.4153 51.5274C88.1054 52.2175 88.4936 53.1533 88.4945 54.1293V77.6177C88.4936 78.5936 88.1054 79.5294 87.4153 80.2195C86.7252 80.9096 85.7894 81.2978 84.8135 81.2987ZM61.5003 77.4424H84.6382V54.3045H61.5003V77.4424Z" fill="#161461"/>
<path d="M61.8197 77.2955H57.9634V54.4486C57.9643 53.4726 58.3524 52.5369 59.0425 51.8468C59.7327 51.1566 60.6684 50.7685 61.6444 50.7676H73.0696V54.6239H61.8197V77.2955Z" fill="#161461"/>
<path d="M84.4948 80.9761H73.0696V77.1198H84.3195V54.4482H88.1758V77.2951C88.1749 78.2711 87.7867 79.2068 87.0966 79.8969C86.4065 80.5871 85.4707 80.9752 84.4948 80.9761Z" fill="#161461"/>
<path d="M26.0049 73.7408L23.6631 70.6803C27.5874 67.6708 32.1909 65.6713 37.0689 64.8577C41.947 64.0441 46.9502 64.4412 51.6388 66.0142L50.4118 69.6706C46.3213 68.2987 41.9565 67.9524 37.7008 68.6621C33.4451 69.3718 29.4289 71.1158 26.0049 73.7408Z" fill="#161461"/>
<path d="M43.8283 68.0299L40.2068 66.7012C40.8952 64.8378 41.1153 62.8338 40.8477 60.8654C40.5801 58.897 39.8331 57.0245 38.6722 55.4125C37.5113 53.8005 35.9722 52.4983 34.1901 51.6206C32.4081 50.7428 30.4376 50.3163 28.4521 50.3785L28.3364 46.5222C30.9519 46.4418 33.5471 47.0047 35.8942 48.1614C38.2414 49.3182 40.2687 51.0334 41.7982 53.1565C43.3277 55.2796 44.3127 57.7458 44.6666 60.3384C45.0206 62.931 44.7327 65.5709 43.8283 68.0264V68.0299Z" fill="#161461"/>
<path d="M48.5121 15.321H44.6558C44.6595 11.2736 46.2694 7.39314 49.132 4.53186C51.9946 1.67057 55.8758 0.0624031 59.9232 0.0605469V3.91685C56.8983 3.91778 53.9974 5.11936 51.8578 7.25765C49.7182 9.39594 48.5149 12.2961 48.5121 15.321Z" fill="#161461"/>
<path d="M26.068 33.288C24.3008 30.5375 23.3069 27.3619 23.1907 24.0946C23.0745 20.8274 23.8402 17.5892 25.4075 14.72C26.9748 11.8509 29.2857 9.45673 32.0977 7.78901C34.9096 6.12129 38.1187 5.24155 41.388 5.24219V9.09849C38.814 9.09975 36.2877 9.79339 34.0739 11.1067C31.8601 12.42 30.0404 14.3047 28.8054 16.5631C27.5704 18.8216 26.9657 21.3706 27.0546 23.9431C27.1436 26.5156 27.9228 29.0168 29.3108 31.1846L26.068 33.288Z" fill="#161461"/>
<path d="M17.3981 62.9951C14.1094 61.0882 11.3783 58.352 9.47743 55.0597C7.5766 51.7673 6.57253 48.0341 6.56543 44.2324H10.4217C10.4288 47.3579 11.255 50.4268 12.8181 53.1334C14.3811 55.8399 16.6263 58.0894 19.3298 59.6576L17.3981 62.9951Z" fill="#161461"/>
<path d="M58.8713 131.683C58.6329 131.683 58.391 131.683 58.1701 131.666H57.9317C57.7775 131.666 57.6162 131.645 57.4584 131.631L57.171 131.603C57.0062 131.603 56.8204 131.564 56.6732 131.543C56.5259 131.522 56.2945 131.49 56.1228 131.459L55.8563 131.41H55.7967C55.6705 131.389 55.5653 131.368 55.4461 131.343C55.2358 131.301 55.029 131.249 54.8186 131.196C54.6083 131.143 54.4856 131.108 54.3173 131.056L54.2577 131.038L54.0929 130.993L53.7879 130.894H53.7424L53.4724 130.8C53.3006 130.74 53.1219 130.67 52.9185 130.596L52.8519 130.568L52.7152 130.512L52.3646 130.369L52.27 130.327C51.8177 130.127 51.376 129.906 50.9448 129.667C50.7905 129.583 50.6398 129.496 50.489 129.405L50.0859 129.156L49.7949 128.963L49.6932 128.896C49.5776 128.816 49.4654 128.738 49.3427 128.654C49.22 128.57 49.0236 128.423 48.8589 128.304C47.1316 126.962 45.6915 125.287 44.624 123.378C44.3013 122.8 44.0144 122.203 43.765 121.59C40.3227 122.513 36.7143 122.631 33.2188 121.937C29.7233 121.242 26.4345 119.752 23.6065 117.584C20.7786 115.415 18.4874 112.625 16.91 109.429C15.3326 106.233 14.5114 102.717 14.5097 99.1536C14.5097 98.9397 14.5097 98.7224 14.5097 98.512C14.5097 98.4489 14.5097 98.3823 14.5097 98.3192C14.5097 98.2561 14.5097 98.1615 14.5097 98.0808C10.9191 95.7242 7.8769 92.6234 5.58923 88.9885C3.30157 85.3536 1.82188 81.2694 1.25039 77.0127C0.678908 72.756 1.02899 68.4262 2.27691 64.3166C3.52483 60.207 5.64144 56.4136 8.48336 53.1934L8.36066 52.9726V52.8428C8.15382 52.3626 7.98905 51.9419 7.84532 51.5282C7.82349 51.4768 7.80476 51.4241 7.78923 51.3704C7.72145 51.1835 7.65834 50.9977 7.59992 50.813L7.45618 50.3468L7.4071 50.1715C7.40861 50.1575 7.40861 50.1434 7.4071 50.1294L7.35802 49.9471C7.32647 49.8244 7.29141 49.7017 7.25986 49.5965V49.5545C7.21078 49.3511 7.1617 49.1478 7.11963 48.941C7.07756 48.7341 7.0425 48.5904 7.00745 48.4081V48.3906L6.98291 48.2574C6.94434 48.054 6.91279 47.8472 6.88124 47.6438C6.86021 47.5282 6.84618 47.416 6.82865 47.2933L6.78659 46.9848C6.75854 46.7569 6.734 46.5431 6.71297 46.3327V46.1995C6.69544 46.0277 6.68492 45.8489 6.6744 45.6912C6.6744 45.6421 6.6744 45.5965 6.6744 45.5579C6.6744 45.3686 6.65337 45.1863 6.64986 44.997C6.64986 44.7481 6.64986 44.4992 6.64986 44.2503C6.64088 39.3889 8.26715 34.6658 11.2671 30.8404C14.2671 27.0151 18.4665 24.3099 23.1899 23.1598C23.2374 20.2619 23.9759 17.4171 25.3441 14.862C26.7124 12.3069 28.6708 10.1154 31.0565 8.46959C33.4422 6.82378 36.1864 5.77125 39.0608 5.39951C41.9352 5.02778 44.8569 5.34757 47.5828 6.3323L47.6178 6.27972L47.695 6.17454L47.7195 6.13949C47.9649 5.82046 48.1928 5.5365 48.4207 5.27708L48.7046 4.96857C48.7993 4.8634 48.8939 4.76874 48.9851 4.67058L49.0868 4.56892L49.2971 4.36208C49.5951 4.07461 49.8615 3.83622 50.1209 3.61886C50.3804 3.40151 50.6258 3.20869 50.8852 3.01938C51.0114 2.92473 51.1411 2.83358 51.2673 2.74594L51.355 2.68634L51.5232 2.57416L51.7651 2.4164L51.8703 2.3533L52.1332 2.19203L52.4242 2.02726L52.5259 1.96767L52.9115 1.76784L53.1534 1.64514L53.4689 1.49439C53.6197 1.42077 53.7774 1.35066 53.9317 1.28405C54.0859 1.21744 54.2226 1.16485 54.3769 1.10526C54.5312 1.04566 54.6994 0.979049 54.8642 0.922957C54.9764 0.880888 55.0991 0.842325 55.2148 0.800256H55.2323L55.3866 0.751176L55.7827 0.635487L55.8213 0.596924L56.3015 0.495258L56.4803 0.439166H56.575L56.7678 0.390086C56.9221 0.355028 57.0658 0.326983 57.2025 0.302442C57.3392 0.277902 57.3778 0.270891 57.469 0.260374H57.5671C57.8441 0.214799 58.1035 0.183247 58.3629 0.158707C58.881 0.0997978 59.4016 0.0670361 59.923 0.0605469C63.9667 0.067041 67.8429 1.67677 70.7016 4.5368C73.5603 7.39683 75.1683 11.2737 75.1729 15.3175L75.0257 44.4992L71.1694 44.4782L71.3166 15.307C71.3122 13.7112 70.9735 12.1341 70.3223 10.6773C69.6711 9.22048 68.7219 7.91627 67.5358 6.84876C66.3497 5.78124 64.9531 4.97411 63.436 4.47939C61.9188 3.98467 60.3149 3.81334 58.7275 3.97645C58.5452 3.99398 58.3769 4.01852 58.1911 4.04656L58.0159 4.07461L57.8861 4.09564H57.8336H57.7845L57.6267 4.26392H57.0167L56.859 4.30599L56.568 4.39013L56.4593 4.42518L56.1368 4.53386L55.8037 4.65656H55.7687L55.4391 4.78978C55.3164 4.84237 55.2113 4.88794 55.1131 4.93702L55.0605 4.96156L54.8467 5.06323L54.7801 5.09828L54.6784 5.14736L54.419 5.28759L54.3278 5.34018L54.0964 5.4734L53.8931 5.5961L53.7914 5.6592L53.6652 5.74334L53.4689 5.87656C53.3778 5.93615 53.2866 5.99926 53.199 6.06937L53.1674 6.09041C52.9781 6.23064 52.7853 6.38138 52.596 6.53914C52.4067 6.6969 52.1928 6.88971 51.965 7.10707L51.8317 7.23678L51.7581 7.31391L51.5408 7.54178L51.3269 7.78017C51.1656 7.96597 50.9939 8.17632 50.8081 8.41821L50.7169 8.54442C50.6047 8.69867 50.4961 8.85292 50.3909 9.01419C50.2507 9.22804 50.1244 9.43487 50.0017 9.64872L48.7046 11.9415L47.1691 10.3288C45.3445 9.51987 43.37 9.10419 41.3741 9.10884C37.5736 9.11996 33.9321 10.6358 31.2464 13.3249C28.5606 16.0139 27.0492 19.6572 27.0427 23.4578C27.0427 23.591 27.0427 23.7242 27.0427 23.8575V23.8995C27.0427 24.0292 27.0427 24.1589 27.0602 24.2887C27.0778 24.4184 27.0602 24.4569 27.0602 24.5411L27.2741 26.6445H25.3214C21.1469 27.3142 17.3499 29.4557 14.6171 32.6816C11.8844 35.9076 10.3963 40.005 10.422 44.2328C10.422 44.4326 10.422 44.6289 10.422 44.8287V44.8778C10.422 45.0181 10.422 45.1583 10.4396 45.2985V45.4037C10.4396 45.5579 10.4606 45.7157 10.4781 45.8699V46.0102C10.4957 46.1644 10.5097 46.3187 10.5307 46.4694L10.5693 46.7499C10.5693 46.8305 10.5903 46.9041 10.6043 46.9848V47.0339C10.6254 47.1776 10.6499 47.3248 10.6779 47.4686C10.6779 47.5211 10.6955 47.5667 10.7025 47.6053C10.734 47.763 10.7656 47.9243 10.8006 48.0786C10.8357 48.2328 10.8848 48.4291 10.9233 48.6044L11.039 49.0356C11.0586 49.0907 11.075 49.1469 11.0881 49.2039C11.1337 49.3581 11.1828 49.5124 11.2319 49.6667C11.2809 49.8209 11.323 49.9471 11.3686 50.0768L11.4106 50.196L11.4317 50.2591C11.5474 50.5817 11.6771 50.9147 11.8313 51.2758L11.8559 51.3249L12.1679 51.6369V51.9874L12.231 52.1207C12.3081 52.2749 12.3887 52.4257 12.4694 52.5764L13.153 53.87L12.1223 54.8516C9.4306 57.6523 7.3976 61.0182 6.17144 64.7041C4.94528 68.39 4.55685 72.3029 5.03444 76.1579C5.51203 80.0129 6.84362 83.7128 8.93218 86.9881C11.0207 90.2633 13.8137 93.0313 17.1075 95.0904H18.6956L18.4817 97.2149L18.4396 97.6917C18.4396 97.8389 18.4186 97.9897 18.4151 98.1369V98.2596V98.2806V98.4559V98.5716C18.4151 98.7504 18.4151 98.9222 18.4151 99.1115C18.4143 102.221 19.1621 105.286 20.5953 108.045C22.0286 110.805 24.1052 113.179 26.6495 114.967C29.1939 116.755 32.1313 117.904 35.2135 118.317C38.2957 118.731 41.432 118.396 44.3575 117.341L46.3207 116.64L46.8746 118.652C46.9763 119.003 47.078 119.354 47.1831 119.634C47.4143 120.268 47.6957 120.882 48.0245 121.471C48.8398 122.922 49.9377 124.195 51.2533 125.215C51.3795 125.317 51.5092 125.408 51.6389 125.503L51.8843 125.678L51.9509 125.72L52.1543 125.857C52.2664 125.927 52.3751 125.997 52.4873 126.06C52.5995 126.123 52.7152 126.193 52.8379 126.256C53.1647 126.44 53.5005 126.608 53.844 126.758L53.9352 126.8L54.2016 126.912H54.2332L54.3278 126.951L54.7941 127.122L54.9483 127.175L55.0395 127.203C55.0968 127.225 55.1554 127.244 55.2148 127.259L55.4426 127.326C55.5373 127.354 55.6284 127.385 55.7231 127.406H55.7792C55.9334 127.445 56.0842 127.483 56.242 127.515H56.2945L56.4698 127.554L56.5925 127.575L56.7678 127.603H56.8064C56.9256 127.627 57.0448 127.641 57.1569 127.659C57.2691 127.676 57.4199 127.694 57.5391 127.704H57.5952L57.7775 127.722H57.8195C57.9142 127.722 58.0053 127.739 58.1 127.743H58.3489H58.8783C62.1594 127.738 65.3062 126.439 67.6352 124.128C69.9641 121.817 71.2871 118.68 71.3166 115.399L71.0011 87.2902L74.8574 87.2481L75.1729 115.378C75.1692 119.701 73.4506 123.845 70.3944 126.902C67.3381 129.959 63.1939 131.679 58.8713 131.683Z" fill="#161461"/>
<path d="M58.8713 131.687C54.5529 131.681 50.4131 129.963 47.3589 126.91C44.3047 123.857 42.585 119.718 42.5767 115.399H46.433C46.433 118.7 47.7442 121.866 50.0781 124.2C52.4121 126.534 55.5776 127.845 58.8783 127.845C62.179 127.845 65.3446 126.534 67.6785 124.2C70.0125 121.866 71.3237 118.7 71.3237 115.399H75.18C75.1725 119.721 73.4513 123.862 70.3938 126.916C67.3363 129.969 63.1924 131.685 58.8713 131.687Z" fill="#161461"/>
<path d="M37.753 122.337C33.1731 122.335 28.6959 120.979 24.8846 118.439C21.0734 115.9 18.0982 112.29 16.3334 108.063C14.5685 103.837 14.0928 99.1835 14.966 94.6875C15.8393 90.1916 18.0225 86.0543 21.241 82.7959L23.9825 85.5058C21.2965 88.2232 19.4742 91.6744 18.7449 95.425C18.0155 99.1756 18.4118 103.058 19.8838 106.584C21.3558 110.11 23.8377 113.122 27.0173 115.241C30.1969 117.359 33.9321 118.49 37.753 118.491V122.337Z" fill="#161461"/>
<path d="M54.3419 29.5257C51.0347 28.227 48.2848 25.8143 46.567 22.7042C44.8491 19.5941 44.2711 15.9818 44.9328 12.491C45.5945 9.00015 47.4543 5.84991 50.1911 3.58417C52.928 1.31843 56.37 0.0794215 59.923 0.0810563V3.93736C57.2695 3.93896 54.6998 4.86635 52.6569 6.55963C50.6139 8.2529 49.2258 10.6059 48.7319 13.213C48.238 15.8201 48.6692 18.5178 49.9512 20.841C51.2332 23.1642 53.2857 24.9673 55.7547 25.9393L54.3419 29.5257Z" fill="#161461"/>
<path d="M58.8712 131.547C55.1086 131.548 51.4614 130.248 48.5482 127.867C45.635 125.485 43.6352 122.17 42.8881 118.482C42.141 114.794 42.6925 110.962 44.4492 107.634C46.2058 104.307 49.0594 101.69 52.5258 100.227L54.0263 103.778C51.3824 104.897 49.2068 106.896 47.8678 109.436C46.5288 111.975 46.1087 114.9 46.6789 117.714C47.249 120.528 48.7742 123.058 50.9961 124.876C53.2181 126.694 56.0002 127.688 58.8712 127.69V131.547Z" fill="#161461"/>
<path d="M120.309 73.7408C116.886 71.1149 112.869 69.3704 108.614 68.6607C104.358 67.951 99.9927 68.2978 95.9023 69.6706L94.6753 66.0142C99.3639 64.4412 104.367 64.0441 109.245 64.8577C114.123 65.6713 118.727 67.6708 122.651 70.6803L120.309 73.7408Z" fill="#161461"/>
<path d="M102.486 68.0293C101.582 65.5739 101.294 62.934 101.648 60.3413C102.002 57.7487 102.987 55.2826 104.516 53.1594C106.046 51.0363 108.073 49.3211 110.42 48.1644C112.767 47.0076 115.362 46.4448 117.978 46.5251L117.862 50.3814C115.877 50.3192 113.906 50.7457 112.124 51.6235C110.342 52.5013 108.803 53.8034 107.642 55.4154C106.481 57.0274 105.734 58.8999 105.467 60.8683C105.199 62.8367 105.419 64.8407 106.107 66.7041L102.486 68.0293Z" fill="#161461"/>
<path d="M101.659 15.321H97.8025C97.7997 12.2979 96.5978 9.39935 94.4605 7.26136C92.3231 5.12337 89.425 3.92056 86.4019 3.91685V0.0605469C90.4474 0.0651878 94.3259 1.67458 97.1863 4.53557C100.047 7.39655 101.655 11.2754 101.659 15.321Z" fill="#161461"/>
<path d="M120.246 33.288L117.003 31.1846C118.391 29.0168 119.171 26.5156 119.259 23.9431C119.348 21.3706 118.744 18.8216 117.509 16.5631C116.274 14.3047 114.454 12.42 112.24 11.1067C110.026 9.79339 107.5 9.09975 104.926 9.09849V5.24219C108.195 5.24155 111.404 6.12129 114.216 7.78901C117.028 9.45673 119.339 11.8509 120.907 14.72C122.474 17.5892 123.24 20.8274 123.123 24.0946C123.007 27.3619 122.013 30.5375 120.246 33.288Z" fill="#161461"/>
<path d="M128.916 62.9951L126.984 59.6576C129.688 58.0894 131.933 55.8399 133.496 53.1334C135.059 50.4268 135.885 47.3579 135.892 44.2324H139.749C139.741 48.0341 138.737 51.7673 136.836 55.0597C134.936 58.352 132.205 61.0882 128.916 62.9951Z" fill="#161461"/>
<path d="M87.4395 131.683C83.1208 131.679 78.9801 129.962 75.925 126.909C72.87 123.857 71.1497 119.718 71.1414 115.399L71.4569 87.2481L75.3132 87.2902L74.9977 115.399C75.006 118.694 76.3203 121.851 78.6525 124.179C80.9847 126.507 84.1445 127.815 87.4395 127.816C87.6148 127.816 87.7901 127.816 87.9619 127.816H88.2353C88.3241 127.816 88.4118 127.809 88.4982 127.795H88.5368L88.7226 127.778H88.7787L89.1293 127.736C89.2695 127.715 89.3922 127.701 89.5079 127.676H89.5465L89.7217 127.645L89.8479 127.62L90.0232 127.585H90.0723C90.2301 127.554 90.3843 127.515 90.5351 127.476H90.5912C90.6858 127.455 90.777 127.424 90.8681 127.396L91.0995 127.329L91.2537 127.28L91.3694 127.241C91.4125 127.231 91.4547 127.217 91.4956 127.199L92.004 127.014L92.1127 126.968C92.2038 126.933 92.2914 126.894 92.3826 126.852L92.4807 126.81C92.8068 126.667 93.1433 126.498 93.4764 126.312C93.5886 126.249 93.7007 126.19 93.8269 126.12L94.16 125.913L94.3563 125.787L94.4264 125.738C94.5036 125.685 94.5807 125.632 94.6578 125.573C94.8121 125.464 94.9383 125.369 95.0645 125.275C96.9269 123.827 98.3426 121.883 99.1487 119.666C99.2538 119.371 99.3555 119.052 99.4572 118.688L100.011 116.675L101.974 117.376C104.9 118.431 108.036 118.766 111.118 118.353C114.2 117.939 117.138 116.79 119.682 115.002C122.227 113.214 124.303 110.84 125.736 108.08C127.17 105.321 127.918 102.256 127.917 99.1466C127.917 98.9643 127.917 98.796 127.917 98.6067V98.2877V98.1755C127.917 98.0247 127.899 97.8775 127.889 97.7302C127.878 97.583 127.861 97.4077 127.847 97.2535L127.626 95.1255H129.221C132.507 93.06 135.292 90.2878 137.372 87.0107C139.452 83.7335 140.775 80.0338 141.245 76.1808C141.715 72.3279 141.321 68.4185 140.09 64.7374C138.858 61.0562 136.822 57.6958 134.129 54.9007L133.137 53.9086L133.799 52.6465C133.88 52.4958 133.961 52.3415 134.038 52.1873C134.038 52.1452 134.076 52.1031 134.097 52.0576V51.707L134.409 51.388L134.448 51.3073C134.592 50.9568 134.721 50.6377 134.837 50.3152L134.862 50.2416L134.911 50.1084C134.956 49.9787 135.002 49.849 135.04 49.7157C135.079 49.5825 135.142 49.3967 135.188 49.2425C135.188 49.1864 135.216 49.1338 135.233 49.0777C135.272 48.941 135.31 48.8007 135.345 48.664V48.643C135.384 48.4747 135.426 48.2924 135.465 48.1347C135.503 47.9769 135.535 47.7841 135.566 47.6438C135.573 47.5978 135.582 47.5521 135.594 47.5071C135.619 47.3599 135.643 47.2161 135.664 47.0689V47.0268C135.664 46.9462 135.689 46.8691 135.699 46.7884L135.741 46.4835C135.759 46.3537 135.773 46.203 135.791 46.0487V45.9085C135.791 45.7543 135.819 45.5965 135.829 45.4422V45.3371C135.829 45.1968 135.829 45.0601 135.847 44.9199V44.8673C135.847 44.6675 135.847 44.4712 135.847 44.2713C135.868 40.0466 134.378 35.9534 131.646 32.7311C128.913 29.5088 125.119 27.3698 120.947 26.7006H118.97L119.18 24.5972C119.18 24.5165 119.18 24.4359 119.18 24.3518C119.18 24.2676 119.18 24.0853 119.198 23.9556V23.9135C119.198 23.7803 119.198 23.6471 119.198 23.5139C119.191 19.7109 117.678 16.0655 114.989 13.376C112.301 10.6866 108.655 9.17235 104.852 9.16493C102.857 9.16028 100.882 9.57597 99.0575 10.3849L97.5255 11.9941L96.2389 9.74338C96.1162 9.52953 95.99 9.32269 95.8463 9.10534C95.7446 8.94758 95.6359 8.78982 95.5237 8.63557C95.4908 8.59661 95.4604 8.55563 95.4326 8.51287C95.2503 8.27448 95.082 8.06413 94.9102 7.87132L94.6964 7.63293L94.493 7.41908L94.4054 7.33144L94.2722 7.19822C94.0443 6.97736 93.8445 6.80207 93.6517 6.64081C93.4588 6.47954 93.2625 6.32178 93.0732 6.18506L93.0417 6.16403C92.954 6.09391 92.8629 6.03081 92.7717 5.97121L92.5754 5.83799L92.4317 5.74334L92.3405 5.68725L92.1372 5.56455L91.9058 5.43133L91.8077 5.37524L91.5622 5.24202C91.5258 5.22732 91.4907 5.20974 91.4571 5.18943L91.394 5.15788L91.1801 5.05622L91.1275 5.03168L90.8225 4.89495C90.6928 4.83886 90.5841 4.79329 90.472 4.75122H90.4369L90.1144 4.63202L89.7638 4.51984L89.6551 4.48478L89.3782 4.40415L89.2134 4.35857H88.6069L88.4457 4.1903H88.3896H88.337L88.2073 4.16927L88.0144 4.13771C87.8567 4.11317 87.6639 4.08863 87.5026 4.07461C85.9284 3.92081 84.3394 4.09635 82.8367 4.59008C81.3341 5.08381 79.9506 5.88491 78.7744 6.94241C77.5982 7.99992 76.655 9.29067 76.0048 10.7325C75.3545 12.1744 75.0116 13.7359 74.9977 15.3175L75.1449 44.4782L71.2886 44.4992L71.1414 15.328C71.1441 11.2809 72.7526 7.40024 75.6137 4.53784C78.4748 1.67544 82.3547 0.0651892 86.4018 0.0605469C86.9207 0.0605469 87.4535 0.0885927 87.9724 0.141179C88.2248 0.165719 88.4842 0.19727 88.7401 0.239339L88.8558 0.260374C88.947 0.260374 89.0381 0.288419 89.1258 0.302442L89.5429 0.383074L89.7358 0.428649H89.8339L90.0162 0.488246L90.5 0.589912L90.5351 0.628475L90.9312 0.744165L91.103 0.800256L91.4746 0.926463C91.6289 0.982554 91.7901 1.03865 91.9514 1.10526C92.1126 1.17186 92.2599 1.22445 92.4141 1.29456C92.5684 1.36468 92.7086 1.42077 92.8594 1.49439L93.1749 1.64514L93.4238 1.77134C93.543 1.83094 93.6587 1.89755 93.7744 1.96065L93.883 2.02025L94.174 2.18853L94.4405 2.34979L94.5351 2.40939C94.6333 2.46898 94.7104 2.52157 94.791 2.57416L94.9593 2.68634L95.0434 2.74594C95.1732 2.83358 95.3029 2.92473 95.4291 3.01938C95.685 3.20869 95.9444 3.41203 96.2003 3.62588C96.4563 3.83973 96.7192 4.07461 97.0137 4.35507L97.224 4.56541L97.3292 4.67409L97.6061 4.96507C97.7008 5.06673 97.7884 5.1684 97.8761 5.26656C98.111 5.53299 98.3423 5.81345 98.5772 6.13247L98.5983 6.16052V6.18155L98.6719 6.27972L98.7104 6.33581C101.436 5.35107 104.358 5.03128 107.232 5.40302C110.107 5.77476 112.851 6.82729 115.237 8.4731C117.622 10.1189 119.581 12.3104 120.949 14.8655C122.317 17.4206 123.056 20.2654 123.103 23.1633C127.843 24.2922 132.063 26.9856 135.083 30.8085C138.104 34.6315 139.747 39.3608 139.749 44.2328C139.749 44.4817 139.749 44.7306 139.749 44.9795C139.749 45.1653 139.749 45.3511 139.724 45.5404C139.724 45.579 139.724 45.6245 139.724 45.6736C139.724 45.8419 139.703 46.0242 139.685 46.182V46.3608C139.664 46.5571 139.643 46.7534 139.619 46.9497L139.573 47.2757C139.573 47.3914 139.542 47.5036 139.521 47.6263C139.489 47.8297 139.458 48.033 139.419 48.2398L139.387 48.3976C139.352 48.5799 139.314 48.7482 139.272 48.941C139.23 49.1338 139.184 49.3336 139.135 49.5369L139.114 49.6211C139.082 49.7263 139.054 49.8349 139.026 49.9401L138.914 50.3292C138.865 50.494 138.813 50.6553 138.763 50.8165C138.714 50.9778 138.644 51.1671 138.578 51.3634C138.562 51.4182 138.543 51.4721 138.522 51.5247C138.378 51.9349 138.213 52.3591 138.017 52.8078L137.992 52.8674V52.9585L137.866 53.1864C140.698 56.4084 142.806 60.201 144.046 64.3077C145.287 68.4145 145.631 72.7397 145.056 76.9909C144.48 81.2422 142.999 85.3203 140.712 88.9497C138.424 92.579 135.384 95.675 131.798 98.0282C131.798 98.1159 131.798 98.1895 131.798 98.2631C131.798 98.3367 131.798 98.3928 131.798 98.4559C131.798 98.671 131.798 98.8848 131.798 99.0975C131.796 102.661 130.975 106.177 129.397 109.373C127.82 112.569 125.529 115.359 122.701 117.528C119.873 119.696 116.584 121.186 113.088 121.88C109.593 122.575 105.985 122.457 102.542 121.534C102.294 122.147 102.007 122.745 101.683 123.322C100.612 125.236 99.1668 126.916 97.4344 128.262C97.2731 128.388 97.1048 128.511 96.9365 128.633C96.8384 128.707 96.7227 128.784 96.6035 128.868L96.5018 128.938L96.2179 129.124C96.0846 129.205 95.9514 129.292 95.8147 129.373C95.678 129.454 95.5167 129.548 95.3625 129.632C94.9278 129.874 94.486 130.095 94.0443 130.288L93.9461 130.334L93.5956 130.484L93.4904 130.526L93.4028 130.561C93.2134 130.635 93.0206 130.705 92.8278 130.772C92.7612 130.8 92.6701 130.828 92.5824 130.856L92.5123 130.88L92.2283 130.972C92.1652 130.993 92.1091 131.007 92.0636 131.017L92.004 131.035C91.8357 131.087 91.6709 131.136 91.5026 131.175C91.3344 131.213 91.0855 131.28 90.8716 131.322L90.5631 131.385H90.479L90.2125 131.434C90.0443 131.466 89.862 131.49 89.7007 131.511C89.5394 131.533 89.3291 131.564 89.1643 131.578L88.8804 131.606C88.7226 131.606 88.5613 131.634 88.4036 131.641H88.1582C87.9198 131.68 87.6779 131.683 87.4395 131.683Z" fill="#161461"/>
<path d="M87.4395 131.687C83.1205 131.681 78.9798 129.964 75.9248 126.911C72.8698 123.858 71.1497 119.718 71.1414 115.399H74.9977C74.9977 118.7 76.3089 121.866 78.6428 124.2C80.9768 126.534 84.1423 127.845 87.443 127.845C90.7437 127.845 93.9092 126.534 96.2432 124.2C98.5772 121.866 99.8884 118.7 99.8884 115.399H103.745C103.736 119.72 102.015 123.86 98.9587 126.913C95.9022 129.967 91.7597 131.683 87.4395 131.687Z" fill="#161461"/>
<path d="M108.561 122.337V118.481C112.382 118.478 116.116 117.346 119.295 115.227C122.473 113.108 124.954 110.096 126.425 106.57C127.896 103.044 128.292 99.1625 127.562 95.4125C126.833 91.6626 125.011 88.2121 122.325 85.4951L125.066 82.7852C128.289 86.043 130.475 90.1812 131.35 94.679C132.225 99.1767 131.751 103.833 129.985 108.061C128.22 112.29 125.243 115.901 121.43 118.442C117.616 120.982 113.137 122.337 108.554 122.337H108.561Z" fill="#161461"/>
<path d="M91.9725 29.5257L90.5702 25.9393C93.04 24.967 95.093 23.163 96.3749 20.8387C97.6568 18.5144 98.0873 15.8156 97.592 13.2079C97.0967 10.6001 95.7067 8.24704 93.6619 6.5546C91.6171 4.86216 89.0457 3.93652 86.3914 3.93737V0.0810631C89.9459 0.0773407 93.3902 1.31544 96.1289 3.58142C98.8675 5.8474 100.729 8.99889 101.391 12.4913C102.052 15.9837 101.474 19.5977 99.7539 22.7086C98.0343 25.8195 95.2819 28.232 91.9725 29.5292V29.5257Z" fill="#161461"/>
<path d="M87.4429 131.547V127.69C90.3139 127.688 93.096 126.694 95.318 124.876C97.5399 123.058 99.0651 120.528 99.6352 117.714C100.205 114.9 99.7853 111.975 98.4463 109.436C97.1073 106.896 94.9316 104.897 92.2878 103.778L93.7882 100.227C97.2547 101.69 100.108 104.307 101.865 107.634C103.622 110.962 104.173 114.794 103.426 118.482C102.679 122.17 100.679 125.485 97.7659 127.867C94.8527 130.248 91.2055 131.548 87.4429 131.547Z" fill="#161461"/>
</svg>
