<svg width="176" height="167" viewBox="0 0 176 167" fill="none" xmlns="http://www.w3.org/2000/svg">
<path d="M30.2329 60.4658C46.9301 60.4658 60.4658 46.9301 60.4658 30.2329C60.4658 13.5357 46.9301 0 30.2329 0C13.5357 0 0 13.5357 0 30.2329C0 46.9301 13.5357 60.4658 30.2329 60.4658Z" fill="#F64E60"/>
<path d="M138.374 67.1084H133.94V44.6676H111.499V40.2334H134.698C135.672 40.2345 136.606 40.6216 137.295 41.3099C137.984 41.9983 138.372 42.9317 138.374 43.9057V67.1084Z" fill="#161461"/>
<path d="M134.698 113.676H111.499V109.241H133.94V86.8086H138.374V110.007C138.371 110.981 137.982 111.913 137.293 112.6C136.604 113.288 135.671 113.674 134.698 113.676Z" fill="#161461"/>
<path d="M49.9083 67.1084H45.4741V43.9057C45.4763 42.9317 45.8644 41.9983 46.5535 41.3099C47.2426 40.6216 48.1764 40.2345 49.1504 40.2334H72.3532V44.6676H49.9083V67.1084Z" fill="#161461"/>
<path d="M72.3532 113.676H49.1504C48.1757 113.674 47.2413 113.287 46.5521 112.598C45.8629 111.908 45.4752 110.974 45.4741 109.999V86.8086H49.9083V109.241H72.3532V113.676Z" fill="#161461"/>
<path d="M108.488 100.603C107.535 100.61 106.612 100.27 105.892 99.6462C105.173 99.0221 104.705 98.1569 104.578 97.2128L99.5146 61.9894L95.6689 87.8768C95.5423 88.8105 95.0817 89.6667 94.3725 90.2869C93.6633 90.9072 92.7534 91.2496 91.8112 91.2508H91.7548C90.8216 91.2626 89.9152 90.9385 89.2011 90.3376C88.487 89.7367 88.0127 88.8991 87.8648 87.9776L85.2285 72.9015L81.0241 92.7907C80.8314 93.6991 80.3249 94.5105 79.5935 95.0826C78.8622 95.6547 77.9526 95.9509 77.0246 95.9191C76.0965 95.8874 75.2094 95.5297 74.5188 94.909C73.8282 94.2882 73.3784 93.4441 73.2482 92.5247L69.0116 62.3764L66.3309 76.082C66.1522 76.9795 65.6683 77.7875 64.9614 78.3688C64.2545 78.95 63.3682 79.2686 62.4531 79.2705H38.7827V74.8364H62.0782L65.2385 58.7122C65.4161 57.7933 65.9142 56.9673 66.6439 56.3813C67.3737 55.7954 68.2878 55.4876 69.2234 55.5127C70.159 55.5379 71.0552 55.8944 71.7525 56.5188C72.4497 57.1431 72.9026 57.9947 73.0305 58.9218L77.2793 89.191L81.4192 69.5436C81.6069 68.6437 82.1025 67.8374 82.8208 67.2637C83.5391 66.6899 84.4349 66.3847 85.3541 66.4004C86.2732 66.4162 87.1581 66.752 87.8563 67.35C88.5544 67.948 89.0222 68.7708 89.1789 69.6766L91.7346 84.2852L95.6286 58.0833C95.7531 57.1403 96.2198 56.276 96.94 55.6546C97.6602 55.0333 98.5836 54.6983 99.5347 54.7134C100.488 54.6998 101.412 55.0374 102.132 55.662C102.851 56.2865 103.316 57.1542 103.437 58.0995L108.463 93.0809L111.962 65.7585C112.082 64.8215 112.533 63.9583 113.234 63.3253C113.935 62.6922 114.839 62.3313 115.783 62.3079C116.728 62.2845 117.649 62.6002 118.38 63.1977C119.112 63.7953 119.605 64.6351 119.771 65.565L121.411 74.788H145.074V79.2222H121.008C120.08 79.224 119.181 78.8983 118.47 78.3025C117.758 77.7067 117.279 76.879 117.118 75.9651L115.957 69.4509L112.406 97.1483C112.293 98.1003 111.835 98.9777 111.118 99.6139C110.4 100.25 109.475 100.601 108.516 100.599L108.488 100.603Z" fill="#161461"/>
<path d="M165.273 136.206H19.188V32.507C19.1923 29.0441 20.5695 25.7241 23.0178 23.2751C25.4661 20.826 28.7856 19.4477 32.2486 19.4424H152.193C155.659 19.4424 158.984 20.8183 161.436 23.2679C163.889 25.7176 165.269 29.0406 165.273 32.507V136.206ZM23.6383 131.772H160.839V32.507C160.837 30.2187 159.927 28.0248 158.309 26.4067C156.691 24.7886 154.497 23.8787 152.209 23.8765H32.2486C29.961 23.8797 27.7681 24.7902 26.1509 26.4081C24.5337 28.0261 23.6243 30.2194 23.6221 32.507L23.6383 131.772Z" fill="#161461"/>
<path d="M146.835 124.66H37.6096C35.2963 124.658 33.0783 123.739 31.4423 122.103C29.8062 120.468 28.8855 118.251 28.8823 115.937V37.4245C28.8845 35.1105 29.8046 32.892 31.4408 31.2558C33.077 29.6196 35.2956 28.6994 37.6096 28.6973H146.851C149.165 28.6994 151.384 29.6196 153.02 31.2558C154.656 32.892 155.576 35.1105 155.578 37.4245V115.937C155.575 118.253 154.652 120.473 153.013 122.109C151.373 123.745 149.151 124.663 146.835 124.66ZM37.6096 33.1314C36.4716 33.1336 35.3809 33.5865 34.5762 34.3912C33.7716 35.1958 33.3186 36.2866 33.3165 37.4245V115.937C33.3186 117.075 33.7717 118.165 34.5765 118.969C35.3813 119.773 36.472 120.225 37.6096 120.226H146.851C147.989 120.225 149.079 119.773 149.884 118.969C150.689 118.165 151.142 117.075 151.144 115.937V37.4245C151.142 36.2866 150.689 35.1958 149.884 34.3912C149.08 33.5865 147.989 33.1336 146.851 33.1314H37.6096Z" fill="#161461"/>
<path d="M11.412 151.261L68.6409 150.177L71.2409 154.163H113.631L116.768 150.491L171.949 150.177V156.413L165.729 163.439L158.735 164.277H21.405L15.4108 160.968L10.8154 154.163L11.412 151.261Z" fill="#F64E60"/>
<path d="M162.185 166.482H22.2595C14.9149 166.482 9.19486 158.303 9.19486 151.261C9.19274 150.826 9.27654 150.395 9.44145 149.992C9.60636 149.589 9.84914 149.223 10.1559 148.915C10.4626 148.606 10.8272 148.361 11.2289 148.194C11.6305 148.026 12.0612 147.94 12.4963 147.939V152.374C12.796 152.374 13.0835 152.255 13.2958 152.043C13.5081 151.832 13.628 151.545 13.629 151.245C13.629 156.102 17.6117 162.044 22.2595 162.044H162.185C166.833 162.044 170.816 156.102 170.816 151.245C170.817 151.545 170.937 151.832 171.149 152.043C171.361 152.255 171.649 152.374 171.949 152.374V147.939C172.825 147.941 173.664 148.289 174.283 148.909C174.902 149.529 175.25 150.369 175.25 151.245C175.25 158.303 169.542 166.482 162.185 166.482Z" fill="#161461"/>
<path d="M112.43 156.405H72.011C71.0756 156.408 70.1641 156.11 69.4108 155.555C68.6575 155.001 68.1022 154.219 67.8267 153.325L67.6413 152.729H12.956C12.4212 152.729 11.8943 152.599 11.4206 152.351C10.947 152.103 10.5408 151.743 10.237 151.303C9.93325 150.862 9.74097 150.355 9.67673 149.824C9.61249 149.293 9.67822 148.754 9.86826 148.254L9.94082 148.069L10.0416 147.9L19.7161 131.775H164.725L174.504 148.053L174.577 148.238C174.767 148.738 174.833 149.277 174.769 149.808C174.704 150.339 174.512 150.846 174.208 151.286C173.904 151.727 173.498 152.086 173.025 152.335C172.551 152.583 172.024 152.713 171.489 152.713H116.804L116.619 153.309C116.345 154.206 115.79 154.992 115.036 155.549C114.282 156.107 113.368 156.407 112.43 156.405ZM72.0472 151.971H112.398L112.584 151.374C112.859 150.481 113.414 149.699 114.168 149.144C114.921 148.59 115.832 148.292 116.768 148.295H169.47L162.214 136.226H22.2275L14.9716 148.295H67.6735C68.6094 148.292 69.5215 148.589 70.2755 149.144C71.0295 149.698 71.5855 150.48 71.8618 151.374L72.0472 151.971Z" fill="#161461"/>
</svg>
