<svg width="124" height="127" viewBox="0 0 124 127" fill="none" xmlns="http://www.w3.org/2000/svg">
<path d="M98.6976 126.216C111.832 126.216 122.48 115.606 122.48 102.516C122.48 89.4273 111.832 78.8164 98.6976 78.8164C85.5628 78.8164 74.915 89.4273 74.915 102.516C74.915 115.606 85.5628 126.216 98.6976 126.216Z" fill="#FFE284"/>
<path d="M81.6281 14.5645H78.14C78.1366 11.6252 76.9637 8.80722 74.8784 6.72854C72.7931 4.64987 69.9656 3.48018 67.0161 3.476V0C70.8907 0.00418364 74.6054 1.54009 77.3448 4.27064C80.0843 7.00119 81.6247 10.7033 81.6281 14.5645Z" fill="#161461"/>
<path d="M99.5914 31.7858L96.6582 29.8898C98.0108 27.7862 98.7704 25.3587 98.8574 22.8618C98.9444 20.3649 98.3557 17.8907 97.1529 15.6987C95.9501 13.5066 94.1775 11.6775 92.0212 10.4031C89.8648 9.12866 87.404 8.45596 84.897 8.4555V4.97949C88.0305 4.98006 91.106 5.82098 93.8011 7.41403C96.4961 9.00708 98.7112 11.2935 100.214 14.0336C101.717 16.7736 102.452 19.8661 102.343 22.9868C102.233 26.1075 101.283 29.1414 99.5914 31.77V31.7858Z" fill="#161461"/>
<path d="M108.001 60.3309L106.257 57.3226C108.884 55.8026 111.066 53.623 112.584 51.001C114.103 48.379 114.905 45.4062 114.911 42.3789H118.399C118.392 46.0159 117.429 49.5876 115.604 52.7376C113.78 55.8876 111.158 58.5057 108.001 60.3309Z" fill="#161461"/>
<path d="M68.0181 126.4C63.878 126.396 59.9086 124.755 56.9808 121.838C54.053 118.921 52.4059 114.966 52.4009 110.84L52.718 83.7559L52.5563 42.6348L52.4136 14.5708C52.4161 10.7104 53.9547 7.00861 56.6921 4.27714C59.4296 1.54568 63.1422 0.00752915 67.016 0C67.5107 0 68.0181 0.02528 68.5223 0.0758401C68.7569 0.0979601 69.0074 0.13272 69.2516 0.17064L69.3753 0.1896L69.6226 0.23068C69.7558 0.2528 69.8921 0.28124 70.0221 0.30968L70.2219 0.35392H70.3139L70.4819 0.4108L70.8878 0.49612L70.9195 0.52772H70.9544L71.3508 0.641481L71.5093 0.695201C71.633 0.733121 71.7567 0.774201 71.8772 0.818441C71.9977 0.862681 72.1752 0.925881 72.3306 0.985921C72.486 1.04596 72.6255 1.10284 72.7746 1.16604C72.9236 1.22924 73.0536 1.28928 73.1995 1.3588L73.5166 1.50732L73.7195 1.60844C73.8432 1.67164 73.9637 1.738 74.0842 1.80436L74.192 1.8644L74.4679 2.0224L74.7501 2.19304L74.8167 2.23412L75.0545 2.38896L75.2162 2.4964L75.2987 2.55328C75.4224 2.6386 75.546 2.72392 75.6665 2.81556C75.9139 2.99568 76.1644 3.1916 76.4054 3.39384C76.6464 3.59608 76.9 3.81728 77.1854 4.0922C77.2584 4.15856 77.325 4.22492 77.3884 4.29444L77.5152 4.41768L77.7562 4.67364L78.0131 4.9612C78.235 5.214 78.4602 5.48576 78.698 5.7986V5.8144V5.8302L78.7678 5.92816L78.8565 6.0514C81.4792 5.0945 84.2939 4.77843 87.0645 5.1297C89.835 5.48098 92.4806 6.48936 94.7793 8.07023C97.0779 9.6511 98.9625 11.7583 100.275 14.2151C101.587 16.6719 102.289 19.4065 102.322 22.1895C106.888 23.2587 110.958 25.834 113.871 29.4976C116.784 33.1612 118.37 37.6982 118.37 42.3725C118.37 42.6095 118.37 42.8465 118.355 43.0866C118.355 43.2668 118.355 43.4437 118.332 43.6238C118.332 43.6618 118.332 43.7028 118.332 43.7502C118.332 43.9114 118.31 44.0662 118.294 44.24V44.4012C118.272 44.594 118.253 44.7836 118.228 44.97L118.186 45.286C118.171 45.3966 118.155 45.5009 118.136 45.602C118.107 45.7979 118.075 45.9938 118.037 46.1898L118.009 46.3288C117.974 46.5026 117.939 46.6827 117.898 46.8565C117.857 47.0303 117.812 47.2326 117.765 47.4253V47.4664C117.733 47.5896 117.698 47.7129 117.666 47.833L117.625 47.9783C117.625 47.9941 117.625 48.0099 117.609 48.0257L117.562 48.1932C117.514 48.3512 117.467 48.5092 117.416 48.6609C117.365 48.8126 117.302 49.0085 117.242 49.1854C117.226 49.236 117.207 49.2866 117.188 49.334C117.048 49.729 116.89 50.1303 116.702 50.5664L116.668 50.6422V50.7244L116.522 50.9898C119.262 54.0791 121.303 57.7203 122.505 61.6657C123.707 65.6111 124.043 69.7682 123.489 73.8544C122.935 77.9406 121.505 81.8601 119.295 85.3462C117.086 88.8324 114.149 91.8034 110.684 94.0575V94.1333C110.684 94.2155 110.684 94.285 110.684 94.3514C110.684 94.4177 110.684 94.4746 110.684 94.5346C110.684 94.7369 110.684 94.9454 110.684 95.1508C110.682 98.5702 109.89 101.943 108.367 105.007C106.845 108.072 104.634 110.745 101.906 112.819C99.178 114.894 96.0069 116.313 92.639 116.967C89.2711 117.621 85.7972 117.493 82.4873 116.591C82.2384 117.21 81.9503 117.813 81.6248 118.396C80.6009 120.221 79.2195 121.822 77.5628 123.104C77.4074 123.224 77.2457 123.341 77.084 123.458C76.992 123.528 76.881 123.603 76.7669 123.682L76.6622 123.752L76.399 123.923L76.0122 124.163C75.8663 124.251 75.7204 124.33 75.5746 124.412C75.1655 124.64 74.7406 124.852 74.3062 125.044L74.2237 125.079L73.8686 125.231L73.7703 125.269L73.6846 125.304L73.1297 125.509L72.8919 125.588L72.8285 125.61L72.5589 125.695L72.4067 125.74L72.337 125.762C72.1784 125.809 72.0199 125.853 71.8613 125.891C71.7028 125.929 71.4649 125.989 71.262 126.03L70.9449 126.094H70.8688L70.6119 126.138C70.4629 126.166 70.2948 126.188 70.1553 126.21H70.1141C69.927 126.236 69.7685 126.255 69.6067 126.271L69.3372 126.296C69.185 126.312 69.0201 126.324 68.8774 126.331H68.6459C68.4937 126.4 68.2464 126.4 68.0181 126.4ZM67.016 3.476C64.0665 3.47935 61.2388 4.64823 59.1528 6.72631C57.0669 8.80439 55.8932 11.622 55.889 14.5613L56.0317 42.619L56.1934 83.7685L55.8763 110.859C55.8847 114.062 57.1677 117.132 59.4439 119.393C61.7201 121.655 64.8036 122.925 68.0181 122.924C68.1893 122.924 68.3574 122.924 68.5286 122.924H68.7918C68.8742 122.924 68.963 122.924 69.0455 122.902H69.0899H69.277H69.3213C69.4387 122.902 69.556 122.877 69.6733 122.861H69.7272C69.8319 122.861 69.9397 122.832 70.0443 122.813H70.0856L70.2536 122.782L70.3741 122.763L70.539 122.728H70.5929C70.7483 122.697 70.91 122.662 71.0495 122.621H71.0939C71.1891 122.599 71.2779 122.57 71.3698 122.542L71.5854 122.479L71.744 122.431L71.855 122.393L71.985 122.349C72.1594 122.289 72.3021 122.232 72.4575 122.175L72.5399 122.144L72.5843 122.125L72.8634 122.005L72.9426 121.973C73.2597 121.831 73.5768 121.657 73.913 121.489C74.0271 121.426 74.1318 121.366 74.2301 121.3C74.3284 121.233 74.452 121.167 74.5472 121.098L74.7279 120.981L74.8008 120.93C74.8801 120.876 74.9562 120.826 75.0323 120.769C75.1782 120.665 75.305 120.573 75.4255 120.478C77.2423 119.071 78.623 117.18 79.4083 115.024C79.5098 114.74 79.6081 114.43 79.7064 114.076L80.2264 112.18L82.0022 112.812C84.8441 113.835 87.8915 114.162 90.8868 113.763C93.882 113.365 96.737 112.254 99.2105 110.525C101.684 108.795 103.703 106.497 105.098 103.826C106.492 101.154 107.22 98.1874 107.221 95.1761C107.221 94.9992 107.221 94.8254 107.221 94.6547V94.4746V94.3387V94.2344C107.221 94.0891 107.205 93.9437 107.193 93.8047C107.18 93.6656 107.167 93.4887 107.151 93.3402L106.955 91.4252H108.398C111.591 89.4319 114.297 86.7539 116.32 83.5864C118.343 80.4189 119.632 76.8416 120.092 73.115C120.552 69.3885 120.172 65.6065 118.98 62.0447C117.789 58.4829 115.814 55.2309 113.202 52.5256L112.301 51.6281L112.9 50.4905C112.98 50.3452 113.056 50.1966 113.132 50.0481C113.154 49.9976 113.179 49.9502 113.202 49.8996V49.5836L113.487 49.296L113.531 49.1949C113.684 48.841 113.82 48.4934 113.934 48.1616L113.975 48.0447C114.026 47.9056 114.071 47.7824 114.109 47.6528C114.147 47.5233 114.207 47.3368 114.251 47.1946C114.263 47.1412 114.278 47.0884 114.296 47.0366L114.41 46.6164C114.451 46.4489 114.489 46.2846 114.527 46.1202C114.565 45.9559 114.594 45.8042 114.625 45.6462C114.632 45.6027 114.64 45.5594 114.651 45.5167C114.676 45.3745 114.698 45.2323 114.721 45.0932V45.049C114.721 44.97 114.746 44.8942 114.755 44.8152L114.797 44.5276C114.797 44.3949 114.828 44.2464 114.844 44.0978V43.9651C114.863 43.8166 114.873 43.6649 114.882 43.5164V43.4153C114.882 43.2794 114.882 43.1435 114.882 43.0076V42.9571C114.882 42.7643 114.882 42.5747 114.882 42.382C114.903 38.288 113.453 34.3217 110.796 31.1997C108.138 28.0778 104.447 26.0061 100.391 25.359H98.6182L98.8085 23.463C98.8085 23.3809 98.8085 23.3019 98.8275 23.2165C98.8465 23.1312 98.8275 22.9637 98.8434 22.8373V22.7836C98.8434 22.6541 98.8434 22.5245 98.8434 22.3949C98.8443 20.0734 98.2627 17.7885 97.1515 15.7481C96.0403 13.7077 94.4347 11.9766 92.4809 10.7123C90.5271 9.44794 88.287 8.69055 85.9645 8.509C83.6421 8.32745 81.3109 8.72751 79.1832 9.67277L77.8228 11.06L76.6876 9.08185C76.5703 8.87645 76.4434 8.67105 76.3039 8.44985C76.2024 8.29501 76.0946 8.13385 75.9868 7.99165L75.9043 7.87789C75.7236 7.64089 75.5555 7.43549 75.3938 7.24589L75.1845 7.01521C75.1211 6.94569 75.0577 6.87933 74.9911 6.81297L74.9055 6.72133L74.7691 6.58861C74.544 6.37373 74.3537 6.20308 74.1666 6.04824C73.9795 5.8934 73.7861 5.73224 73.599 5.60584L73.5705 5.58372C73.4817 5.51842 73.3929 5.45522 73.3041 5.39412L73.117 5.26772L72.9743 5.17608L72.9141 5.13816L72.6889 5.00228L72.467 4.87588L72.3655 4.819L72.1245 4.68628L72.0294 4.63888L71.966 4.61044C71.8962 4.57568 71.8264 4.53776 71.7535 4.50616L71.7028 4.48404C71.6045 4.43664 71.5062 4.3924 71.4047 4.35132C71.3032 4.31024 71.1732 4.25336 71.0654 4.21228L71.0273 4.19648C70.9227 4.1554 70.8212 4.11748 70.7102 4.08272L70.3931 3.97212L70.2917 3.94052L70.0158 3.85836L69.8414 3.81096H69.3182L69.166 3.65928L69.0518 3.64032H69.0074C68.9647 3.62989 68.9212 3.6225 68.8774 3.6182L68.6935 3.5866C68.5349 3.56132 68.3764 3.5392 68.1861 3.5234C67.7972 3.48722 67.4066 3.47139 67.016 3.476Z" fill="#161461"/>
<path d="M68.0181 126.4C63.8774 126.396 59.9076 124.755 56.9797 121.837C54.0518 118.919 52.4051 114.963 52.4009 110.837H55.889C55.889 114.043 57.1669 117.117 59.4415 119.384C61.7162 121.65 64.8012 122.924 68.0181 122.924C71.2349 122.924 74.32 121.65 76.5946 119.384C78.8693 117.117 80.1471 114.043 80.1471 110.837H83.6353C83.6302 114.963 81.9832 118.919 79.0555 121.836C76.1278 124.754 72.1585 126.395 68.0181 126.4Z" fill="#161461"/>
<path d="M88.4077 117.406V113.93C92.1209 113.932 95.7515 112.839 98.8423 110.788C101.933 108.737 104.346 105.821 105.777 102.406C107.207 98.9918 107.592 95.2317 106.883 91.5995C106.173 87.9674 104.401 84.6257 101.789 81.9954L104.269 79.5527C107.364 82.6704 109.464 86.6307 110.305 90.9352C111.146 95.2396 110.69 99.6958 108.995 103.743C107.3 107.79 104.441 111.246 100.779 113.678C97.1168 116.109 92.8146 117.406 88.4141 117.406H88.4077Z" fill="#161461"/>
<path d="M72.3495 28.1234L71.0811 24.8875C73.4912 23.9435 75.495 22.1907 76.7467 19.9316C77.9984 17.6725 78.4195 15.0488 77.9373 12.5133C77.455 9.9778 76.0997 7.68962 74.1052 6.04364C72.1108 4.39766 69.6023 3.49714 67.0127 3.49749V0.0214844C70.4144 0.0224409 73.7091 1.20663 76.3283 3.36973C78.9475 5.53283 80.7269 8.53915 81.3595 11.87C81.992 15.2008 81.4381 18.6472 79.7932 21.6144C78.1483 24.5817 75.5156 26.8838 72.3495 28.1234Z" fill="#161461"/>
<path d="M68.0215 126.268V122.792C70.8213 122.791 73.5346 121.826 75.7017 120.059C77.8688 118.292 79.3563 115.834 79.912 113.099C80.4678 110.364 80.0576 107.523 78.7511 105.055C77.4445 102.587 75.3219 100.646 72.7431 99.5595L74.1035 96.3584C77.4234 97.7573 80.1558 100.257 81.8376 103.434C83.5194 106.611 84.047 110.27 83.3312 113.791C82.6153 117.311 80.6999 120.477 77.9097 122.751C75.1194 125.025 71.626 126.267 68.0215 126.268Z" fill="#161461"/>
<path d="M87.0379 61.636C84.2547 61.6358 81.5371 60.7934 79.2449 59.2202C76.9528 57.647 75.1941 55.4171 74.2017 52.8259L77.4583 51.584C78.0551 53.1459 79.0276 54.5379 80.2905 55.6377C81.5534 56.7375 83.068 57.5114 84.7012 57.8915C86.3344 58.2715 88.0363 58.2461 89.6573 57.8174C91.2784 57.3887 92.769 56.5699 93.9982 55.4329L96.3701 57.983C93.8327 60.3294 90.4995 61.6341 87.0379 61.636Z" fill="#161461"/>
<path d="M62.1676 58.0531C61.4858 58.0531 60.804 58.0278 60.1159 57.9772C58.0567 57.8282 56.0213 57.4444 54.0498 56.8333L55.0867 53.5121C58.3864 54.5355 61.8716 54.8234 65.2954 54.3555C68.7192 53.8875 71.9978 52.675 74.8991 50.804C77.7962 48.9455 80.2207 46.442 81.9816 43.4907C83.7424 40.5394 84.7916 37.221 85.0464 33.7969L88.5345 34.0528C88.2424 38.0118 87.0304 41.8488 84.9941 45.2606C82.9579 48.6725 80.1532 51.5655 76.8017 53.7112C72.4542 56.5523 67.3666 58.0618 62.1676 58.0531Z" fill="#161461"/>
<path d="M71.192 89.0641L67.7388 88.5838C68.1172 85.8571 69.1617 83.2647 70.7804 81.0342C72.3991 78.8037 74.5425 77.0034 77.0225 75.7913C79.5025 74.5791 82.2432 73.9923 85.0039 74.0822C87.7647 74.1722 90.461 74.9362 92.8563 76.3072L91.1217 79.3155C89.221 78.2285 87.0815 77.6229 84.8912 77.552C82.7008 77.4811 80.5264 77.947 78.5589 78.9088C76.5913 79.8706 74.8907 81.2989 73.6063 83.0684C72.3218 84.8379 71.4928 86.8945 71.192 89.0578V89.0641Z" fill="#161461"/>
<path d="M43.7818 74.5446H40.2937V56.3936C40.2928 55.9404 40.1118 55.5061 39.7903 55.1856C39.4687 54.8652 39.0329 54.6848 38.5782 54.684H15.3252V51.208H38.5782C39.9577 51.2097 41.2803 51.7566 42.2558 52.7287C43.2313 53.7008 43.7801 55.0188 43.7818 56.3936V74.5446Z" fill="#161461"/>
<path d="M54.1448 13.4551H42.1743V16.9311H54.1448V13.4551Z" fill="#161461"/>
<path d="M54.4176 72.8066H35.9751V76.2826H54.4176V72.8066Z" fill="#161461"/>
<path d="M54.2879 33.3066H30.2676V36.7826H54.2879V33.3066Z" fill="#161461"/>
<path d="M54.1099 99.9608L42.8877 99.7396C41.5232 99.7148 40.2228 99.1585 39.265 98.1898C38.3071 97.2211 37.7681 95.9171 37.7634 94.5572C37.7634 94.1054 37.5839 93.672 37.2643 93.3517C36.9446 93.0314 36.5107 92.8501 36.0574 92.8476L15.2207 92.7465L15.2397 89.2705L36.0827 89.3716C37.4576 89.3808 38.7732 89.9309 39.7431 90.9021C40.7129 91.8733 41.2585 93.187 41.261 94.5572C41.2626 95.006 41.4409 95.4362 41.7576 95.7554C42.0743 96.0745 42.504 96.257 42.9543 96.2636L54.1891 96.4848L54.1099 99.9608Z" fill="#161461"/>
<path d="M26.0049 109.018L25.9951 112.494L54.1376 112.572L54.1474 109.096L26.0049 109.018Z" fill="#161461"/>
<path d="M34.564 21.8037C38.1542 21.8037 41.0646 18.9034 41.0646 15.3257C41.0646 11.748 38.1542 8.84766 34.564 8.84766C30.9739 8.84766 28.0635 11.748 28.0635 15.3257C28.0635 18.9034 30.9739 21.8037 34.564 21.8037Z" fill="#FFE284"/>
<path d="M34.5639 23.5424C32.9333 23.5424 31.3393 23.0605 29.9835 22.1577C28.6277 21.2549 27.5709 19.9718 26.9469 18.4705C26.3229 16.9692 26.1596 15.3172 26.4778 13.7235C26.7959 12.1297 27.5811 10.6658 28.7341 9.51677C29.8872 8.36774 31.3562 7.58524 32.9555 7.26822C34.5548 6.95121 36.2125 7.11391 37.719 7.73576C39.2255 8.35761 40.5132 9.41068 41.4191 10.7618C42.325 12.1129 42.8085 13.7014 42.8085 15.3264C42.8085 17.5054 41.9399 19.5952 40.3938 21.136C38.8476 22.6768 36.7506 23.5424 34.5639 23.5424ZM34.5639 10.5864C33.6232 10.5864 32.7036 10.8644 31.9214 11.3852C31.1392 11.906 30.5295 12.6463 30.1695 13.5124C29.8095 14.3786 29.7153 15.3316 29.8988 16.2511C30.0824 17.1706 30.5354 18.0151 31.2006 18.6781C31.8658 19.341 32.7133 19.7924 33.636 19.9753C34.5587 20.1582 35.515 20.0643 36.3842 19.7056C37.2533 19.3468 37.9962 18.7393 38.5188 17.9598C39.0415 17.1803 39.3204 16.2638 39.3204 15.3264C39.3204 14.0692 38.8193 12.8636 37.9273 11.9747C37.0353 11.0858 35.8254 10.5864 34.5639 10.5864Z" fill="#161461"/>
<path d="M23.7828 41.3955C27.3729 41.3955 30.2833 38.4952 30.2833 34.9175C30.2833 31.3398 27.3729 28.4395 23.7828 28.4395C20.1926 28.4395 17.2822 31.3398 17.2822 34.9175C17.2822 38.4952 20.1926 41.3955 23.7828 41.3955Z" fill="#FFE284"/>
<path d="M23.7827 43.1342C22.1521 43.1342 20.5581 42.6523 19.2022 41.7495C17.8464 40.8467 16.7897 39.5636 16.1657 38.0623C15.5417 36.561 15.3784 34.909 15.6965 33.3153C16.0146 31.7215 16.7998 30.2576 17.9529 29.1086C19.1059 27.9595 20.575 27.177 22.1743 26.86C23.7735 26.543 25.4313 26.7057 26.9378 27.3276C28.4443 27.9494 29.7319 29.0025 30.6378 30.3536C31.5438 31.7047 32.0273 33.2932 32.0273 34.9182C32.0273 35.9971 31.814 37.0655 31.3997 38.0623C30.9854 39.0591 30.3781 39.9648 29.6125 40.7278C28.8469 41.4907 27.938 42.0959 26.9378 42.5088C25.9375 42.9217 24.8654 43.1342 23.7827 43.1342ZM23.7827 30.1782C22.8419 30.1782 21.9223 30.4562 21.1401 30.977C20.3579 31.4978 19.7483 32.2381 19.3883 33.1042C19.0283 33.9704 18.9341 34.9234 19.1176 35.8429C19.3011 36.7624 19.7541 37.6069 20.4193 38.2698C21.0845 38.9328 21.9321 39.3842 22.8547 39.5671C23.7774 39.75 24.7338 39.6561 25.6029 39.2974C26.4721 38.9386 27.2149 38.3311 27.7376 37.5516C28.2602 36.7721 28.5392 35.8556 28.5392 34.9182C28.5392 33.661 28.0381 32.4554 27.1461 31.5665C26.254 30.6775 25.0442 30.1782 23.7827 30.1782Z" fill="#161461"/>
<path d="M8.24469 59.4082C11.8349 59.4082 14.7452 56.5079 14.7452 52.9302C14.7452 49.3525 11.8349 46.4521 8.24469 46.4521C4.65454 46.4521 1.74414 49.3525 1.74414 52.9302C1.74414 56.5079 4.65454 59.4082 8.24469 59.4082Z" fill="#FFE284"/>
<path d="M8.24461 61.1459C6.61398 61.1459 5.01997 60.664 3.66415 59.7612C2.30833 58.8584 1.2516 57.5753 0.627587 56.074C0.00357226 54.5727 -0.159698 52.9208 0.158421 51.327C0.476541 49.7333 1.26176 48.2693 2.41479 47.1203C3.56782 45.9713 5.03687 45.1888 6.63617 44.8717C8.23546 44.5547 9.89318 44.7174 11.3997 45.3393C12.9062 45.9611 14.1938 47.0142 15.0997 48.3653C16.0057 49.7164 16.4892 51.3049 16.4892 52.9299C16.4892 55.1089 15.6206 57.1987 14.0744 58.7395C12.5283 60.2803 10.4312 61.1459 8.24461 61.1459ZM8.24461 48.1899C7.30386 48.1899 6.38424 48.4679 5.60204 48.9887C4.81983 49.5095 4.21018 50.2498 3.85017 51.116C3.49016 51.9821 3.39597 52.9351 3.5795 53.8546C3.76303 54.7741 4.21604 55.6187 4.88125 56.2816C5.54646 56.9445 6.39399 57.3959 7.31666 57.5788C8.23933 57.7617 9.19571 57.6678 10.0648 57.3091C10.934 56.9503 11.6768 56.3428 12.1995 55.5633C12.7221 54.7838 13.0011 53.8674 13.0011 52.9299C13.0011 51.6727 12.5 50.4671 11.608 49.5782C10.7159 48.6893 9.50611 48.1899 8.24461 48.1899Z" fill="#161461"/>
<path d="M28.5391 80.8955C32.1293 80.8955 35.0397 77.9952 35.0397 74.4175C35.0397 70.8398 32.1293 67.9395 28.5391 67.9395C24.949 67.9395 22.0386 70.8398 22.0386 74.4175C22.0386 77.9952 24.949 80.8955 28.5391 80.8955Z" fill="#FFE284"/>
<path d="M28.539 82.6342C26.9084 82.6342 25.3144 82.1523 23.9586 81.2495C22.6028 80.3467 21.546 79.0636 20.922 77.5623C20.298 76.061 20.1347 74.409 20.4529 72.8153C20.771 71.2215 21.5562 69.7576 22.7092 68.6086C23.8623 67.4595 25.3313 66.677 26.9306 66.36C28.5299 66.043 30.1876 66.2057 31.6941 66.8276C33.2006 67.4494 34.4883 68.5025 35.3942 69.8536C36.3001 71.2047 36.7836 72.7932 36.7836 74.4182C36.7836 76.5972 35.915 78.687 34.3689 80.2278C32.8227 81.7686 30.7256 82.6342 28.539 82.6342ZM28.539 69.6782C27.5983 69.6782 26.6787 69.9561 25.8965 70.477C25.1143 70.9978 24.5046 71.7381 24.1446 72.6042C23.7846 73.4704 23.6904 74.4234 23.8739 75.3429C24.0575 76.2624 24.5105 77.1069 25.1757 77.7698C25.8409 78.4327 26.6884 78.8842 27.6111 79.0671C28.5338 79.25 29.4901 79.1561 30.3593 78.7974C31.2284 78.4386 31.9713 77.8311 32.4939 77.0516C33.0166 76.2721 33.2955 75.3556 33.2955 74.4182C33.2955 73.161 32.7944 71.9554 31.9024 71.0665C31.0104 70.1775 29.8005 69.6782 28.539 69.6782Z" fill="#161461"/>
<path d="M10.7813 97.6435C14.3715 97.6435 17.2819 94.7432 17.2819 91.1655C17.2819 87.5878 14.3715 84.6875 10.7813 84.6875C7.19116 84.6875 4.28076 87.5878 4.28076 91.1655C4.28076 94.7432 7.19116 97.6435 10.7813 97.6435Z" fill="#FFE284"/>
<path d="M10.7812 99.3822C9.1506 99.3822 7.55659 98.9004 6.20077 97.9976C4.84495 97.0948 3.78822 95.8116 3.16421 94.3103C2.54019 92.8091 2.37692 91.1571 2.69504 89.5633C3.01316 87.9696 3.79839 86.5056 4.95141 85.3566C6.10444 84.2076 7.57349 83.4251 9.17279 83.1081C10.7721 82.7911 12.4298 82.9538 13.9363 83.5756C15.4428 84.1975 16.7304 85.2505 17.6364 86.6016C18.5423 87.9528 19.0258 89.5412 19.0258 91.1662C19.0258 92.2451 18.8126 93.3135 18.3983 94.3103C17.9839 95.3071 17.3766 96.2129 16.611 96.9758C15.8455 97.7387 14.9366 98.3439 13.9363 98.7568C12.936 99.1697 11.8639 99.3822 10.7812 99.3822ZM10.7812 86.4262C9.84048 86.4262 8.92086 86.7042 8.13866 87.225C7.35646 87.7459 6.7468 88.4862 6.38679 89.3523C6.02679 90.2184 5.93259 91.1715 6.11612 92.0909C6.29965 93.0104 6.75267 93.855 7.41787 94.5179C8.08308 95.1808 8.93061 95.6322 9.85328 95.8151C10.776 95.998 11.7323 95.9042 12.6015 95.5454C13.4706 95.1866 14.2135 94.5791 14.7361 93.7996C15.2588 93.0201 15.5377 92.1037 15.5377 91.1662C15.5377 89.9091 15.0366 88.7034 14.1446 87.8145C13.2526 86.9256 12.0427 86.4262 10.7812 86.4262Z" fill="#161461"/>
<path d="M26.002 117.236C29.5922 117.236 32.5026 114.336 32.5026 110.758C32.5026 107.181 29.5922 104.28 26.002 104.28C22.4119 104.28 19.5015 107.181 19.5015 110.758C19.5015 114.336 22.4119 117.236 26.002 117.236Z" fill="#FFE284"/>
<path d="M26.0024 118.974C24.3718 118.974 22.7778 118.492 21.422 117.589C20.0661 116.687 19.0094 115.403 18.3854 113.902C17.7614 112.401 17.5981 110.749 17.9162 109.155C18.2344 107.561 19.0196 106.097 20.1726 104.948C21.3256 103.799 22.7947 103.017 24.394 102.7C25.9933 102.383 27.651 102.546 29.1575 103.167C30.664 103.789 31.9516 104.842 32.8576 106.193C33.7635 107.545 34.247 109.133 34.247 110.758C34.247 112.937 33.3784 115.027 31.8322 116.568C30.2861 118.108 28.189 118.974 26.0024 118.974ZM26.0024 106.018C25.0617 106.018 24.1421 106.296 23.3598 106.817C22.5776 107.338 21.968 108.078 21.608 108.944C21.248 109.81 21.1538 110.763 21.3373 111.683C21.5208 112.602 21.9739 113.447 22.6391 114.11C23.3043 114.773 24.1518 115.224 25.0745 115.407C25.9971 115.59 26.9535 115.496 27.8227 115.137C28.6918 114.778 29.4347 114.171 29.9573 113.391C30.48 112.612 30.7589 111.695 30.7589 110.758C30.7589 109.501 30.2578 108.295 29.3658 107.406C28.4738 106.517 27.2639 106.018 26.0024 106.018Z" fill="#161461"/>
</svg>
