<svg width="200" height="181" viewBox="0 0 200 181" fill="none" xmlns="http://www.w3.org/2000/svg">
<path d="M33.7092 95.2846C52.3263 95.2846 67.4184 80.1925 67.4184 61.5754C67.4184 42.9583 52.3263 27.8662 33.7092 27.8662C15.0921 27.8662 0 42.9583 0 61.5754C0 80.1925 15.0921 95.2846 33.7092 95.2846Z" fill="#009EF7"/>
<path d="M33.0083 133.714C32.5153 133.714 32.0253 133.637 31.5565 133.484C30.6425 133.207 29.8425 132.642 29.2755 131.874C28.7086 131.105 28.4051 130.174 28.4104 129.219V109.29H26.3563C19.1111 109.29 13.2188 103.654 13.2188 96.7279V57.9803C13.2188 51.0497 19.1111 45.3955 26.3563 45.3955H59.0722V50.3395H26.3563C21.8618 50.3395 18.1628 53.7599 18.1628 57.9803V96.7279C18.1628 100.926 21.8393 104.346 26.3563 104.346H28.725C29.9318 104.332 31.0949 104.797 31.9587 105.64C32.8226 106.483 33.3165 107.634 33.3319 108.841V128.095L48.8291 106.283C49.261 105.683 49.8302 105.194 50.4893 104.858C51.1483 104.521 51.8782 104.348 52.618 104.351H72.3941C76.8887 104.351 80.5877 100.93 80.5877 96.7324V69.365H85.5317V96.7279C85.5317 103.654 79.6393 109.29 72.3941 109.29H52.7574L36.7792 131.763C36.3529 132.366 35.7878 132.859 35.1316 133.198C34.4753 133.538 33.7471 133.714 33.0083 133.714Z" fill="#161461"/>
<path d="M51.1527 88.7183H46.2087C46.2087 87.9901 46.2087 87.3025 46.1728 86.6328C46.0649 83.0371 45.966 79.6258 49.4763 76.12C49.8808 75.711 50.2718 75.32 50.6448 74.9514C54.1911 71.4322 55.6338 69.9265 55.6338 68.0343C55.6338 64.0431 52.8427 61.2565 48.856 61.2565C46.9488 61.2565 45.1196 62.0142 43.771 63.3628C42.4224 64.7114 41.6647 66.5406 41.6647 68.4478H36.7207C36.7207 65.2293 37.9992 62.1427 40.2751 59.8669C42.5509 57.591 45.6375 56.3125 48.856 56.3125C55.6473 56.3125 60.5778 61.2565 60.5778 68.0343C60.5778 72.0794 58.0114 74.6098 54.1281 78.4617L52.9685 79.6123C50.9729 81.6124 51.0179 83.2439 51.1123 86.489C51.1348 87.1946 51.1527 87.9182 51.1527 88.7183Z" fill="#161461"/>
<path d="M51.1388 92.9111H46.1948V99.1001H51.1388V92.9111Z" fill="#161461"/>
<path d="M178.137 180.47H97.6489C95.2063 180.467 92.8648 179.495 91.1377 177.768C89.4105 176.041 88.4386 173.699 88.4351 171.257V113.632C88.4386 111.189 89.4105 108.848 91.1377 107.121C92.8648 105.393 95.2063 104.422 97.6489 104.418H178.137C180.58 104.42 182.923 105.392 184.65 107.119C186.377 108.847 187.349 111.189 187.351 113.632V171.243C187.352 173.688 186.383 176.034 184.655 177.764C182.927 179.495 180.583 180.468 178.137 180.47ZM97.6489 109.362C96.5168 109.363 95.4315 109.813 94.631 110.614C93.8305 111.414 93.3803 112.5 93.3791 113.632V171.243C93.3814 172.375 93.8321 173.459 94.6323 174.26C95.4325 175.06 96.5172 175.511 97.6489 175.513H178.137C179.269 175.511 180.354 175.06 181.154 174.26C181.954 173.459 182.405 172.375 182.407 171.243V113.632C182.406 112.5 181.956 111.414 181.155 110.614C180.355 109.813 179.27 109.363 178.137 109.362H97.6489Z" fill="#161461"/>
<path d="M90.9068 162.568H82.9694C81.1832 162.563 79.4718 161.85 78.2087 160.587C76.9457 159.324 76.2335 157.613 76.2275 155.827V136.154C76.2335 134.368 76.9457 132.656 78.2087 131.393C79.4718 130.13 81.1832 129.418 82.9694 129.412H90.9068V134.356H82.9694C82.4926 134.356 82.0353 134.546 81.6981 134.883C81.361 135.22 81.1716 135.677 81.1716 136.154V155.809C81.1716 156.285 81.361 156.743 81.6981 157.08C82.0353 157.417 82.4926 157.606 82.9694 157.606H90.9068V162.568Z" fill="#161461"/>
<path d="M192.996 162.568H184.879V157.624H192.996C193.473 157.624 193.93 157.435 194.267 157.098C194.604 156.761 194.794 156.303 194.794 155.827V136.154C194.794 135.677 194.604 135.22 194.267 134.883C193.93 134.546 193.473 134.356 192.996 134.356H184.879V129.412H192.996C194.782 129.418 196.494 130.13 197.757 131.393C199.02 132.656 199.732 134.368 199.738 136.154V155.809C199.737 157.598 199.027 159.314 197.763 160.581C196.499 161.848 194.785 162.563 192.996 162.568Z" fill="#161461"/>
<path d="M140.455 89.0146H135.511V105.236H140.455V89.0146Z" fill="#161461"/>
<path d="M147.197 84.9697C147.197 86.792 146.656 88.5734 145.644 90.0886C144.632 91.6039 143.192 92.7848 141.509 93.4822C139.825 94.1796 137.973 94.362 136.185 94.0065C134.398 93.651 132.756 92.7735 131.468 91.4849C130.179 90.1963 129.302 88.5545 128.946 86.7672C128.591 84.9799 128.773 83.1273 129.47 81.4437C130.168 79.7601 131.349 78.3211 132.864 77.3087C134.379 76.2962 136.161 75.7559 137.983 75.7559C140.427 75.7559 142.77 76.7266 144.498 78.4545C146.226 80.1825 147.197 82.526 147.197 84.9697Z" fill="#009EF7"/>
<path d="M137.983 96.6549C135.671 96.6549 133.412 95.9696 131.49 94.6855C129.569 93.4014 128.071 91.5764 127.186 89.441C126.302 87.3057 126.071 84.9561 126.521 82.6893C126.972 80.4224 128.085 78.3402 129.72 76.7059C131.354 75.0716 133.436 73.9586 135.703 73.5077C137.97 73.0568 140.319 73.2883 142.455 74.1727C144.59 75.0572 146.415 76.555 147.699 78.4768C148.983 80.3985 149.669 82.6578 149.669 84.9691C149.669 88.0683 148.437 91.0407 146.246 93.2322C144.054 95.4237 141.082 96.6549 137.983 96.6549ZM137.983 78.2272C136.649 78.2272 135.346 78.6226 134.237 79.3634C133.128 80.1042 132.264 81.1572 131.754 82.3891C131.244 83.621 131.11 84.9765 131.37 86.2843C131.631 87.5921 132.273 88.7934 133.216 89.7363C134.158 90.6791 135.36 91.3212 136.667 91.5814C137.975 91.8415 139.331 91.708 140.563 91.1977C141.795 90.6874 142.848 89.8233 143.588 88.7146C144.329 87.6059 144.725 86.3025 144.725 84.9691C144.725 83.181 144.014 81.4662 142.75 80.2019C141.486 78.9375 139.771 78.2272 137.983 78.2272Z" fill="#161461"/>
<path d="M162.308 145.939H113.659C112.236 145.939 110.827 145.66 109.512 145.116C108.197 144.571 107.003 143.774 105.996 142.768C104.99 141.762 104.192 140.568 103.647 139.253C103.103 137.939 102.822 136.53 102.822 135.107C102.822 133.684 103.102 132.274 103.646 130.959C104.19 129.644 104.988 128.449 105.995 127.443C107.001 126.437 108.196 125.639 109.511 125.094C110.826 124.55 112.235 124.27 113.659 124.271H162.308C163.731 124.27 165.14 124.55 166.455 125.094C167.77 125.639 168.965 126.437 169.972 127.443C170.978 128.449 171.776 129.644 172.32 130.959C172.865 132.274 173.145 133.684 173.144 135.107C173.144 136.53 172.864 137.939 172.319 139.253C171.775 140.568 170.976 141.762 169.97 142.768C168.964 143.774 167.769 144.571 166.454 145.116C165.14 145.66 163.731 145.939 162.308 145.939Z" fill="#009EF7"/>
<path d="M162.308 148.41H113.658C111.89 148.443 110.134 148.123 108.491 147.469C106.848 146.815 105.352 145.84 104.09 144.601C102.828 143.362 101.826 141.884 101.142 140.254C100.458 138.623 100.105 136.873 100.105 135.104C100.105 133.336 100.458 131.585 101.142 129.955C101.826 128.324 102.828 126.847 104.09 125.608C105.352 124.369 106.848 123.394 108.491 122.74C110.134 122.086 111.89 121.766 113.658 121.798H162.308C164.075 121.766 165.832 122.086 167.475 122.74C169.118 123.394 170.614 124.369 171.876 125.608C173.137 126.847 174.14 128.324 174.824 129.955C175.508 131.585 175.86 133.336 175.86 135.104C175.86 136.873 175.508 138.623 174.824 140.254C174.14 141.884 173.137 143.362 171.876 144.601C170.614 145.84 169.118 146.815 167.475 147.469C165.832 148.123 164.075 148.443 162.308 148.41ZM113.658 126.747C112.544 126.721 111.436 126.918 110.398 127.327C109.361 127.735 108.416 128.347 107.619 129.126C106.822 129.905 106.188 130.836 105.756 131.863C105.323 132.891 105.1 133.994 105.1 135.109C105.1 136.224 105.323 137.327 105.756 138.354C106.188 139.382 106.822 140.312 107.619 141.091C108.416 141.87 109.361 142.482 110.398 142.891C111.436 143.3 112.544 143.497 113.658 143.471H162.308C163.422 143.497 164.53 143.3 165.567 142.891C166.605 142.482 167.55 141.87 168.347 141.091C169.144 140.312 169.778 139.382 170.21 138.354C170.643 137.327 170.866 136.224 170.866 135.109C170.866 133.994 170.643 132.891 170.21 131.863C169.778 130.836 169.144 129.905 168.347 129.126C167.55 128.347 166.605 127.735 165.567 127.327C164.53 126.918 163.422 126.721 162.308 126.747H113.658Z" fill="#161461"/>
<path d="M138.095 166.546C129.201 166.562 120.515 163.864 113.195 158.811L116.004 154.739C122.505 159.209 130.208 161.603 138.097 161.603C145.987 161.603 153.69 159.209 160.19 154.739L162.995 158.811C155.676 163.864 146.989 166.562 138.095 166.546Z" fill="#161461"/>
<path d="M137.781 17.0703H82.2773V22.0143H137.781V17.0703Z" fill="#161461"/>
<path d="M158.033 29.4482H82.2773V34.3923H158.033V29.4482Z" fill="#161461"/>
<path d="M158.033 41.8311H82.2773V46.7751H158.033V41.8311Z" fill="#161461"/>
<path d="M114.108 91.5631C113.432 91.5578 112.765 91.4055 112.153 91.1168C111.542 90.8281 111 90.4099 110.566 89.8912L88.1922 63.8227H77.5312C73.8966 63.8192 70.4118 62.3737 67.8418 59.8037C65.2717 57.2336 63.8263 53.7489 63.8228 50.1143V13.7084C63.8263 10.0738 65.2717 6.58909 67.8418 4.01904C70.4118 1.44899 73.8966 0.00356975 77.5312 0L163.377 0C167.012 0.00356975 170.497 1.44899 173.067 4.01904C175.637 6.58909 177.082 10.0738 177.086 13.7084V50.1143C177.082 53.7489 175.637 57.2336 173.067 59.8037C170.497 62.3737 167.012 63.8192 163.377 63.8227H118.85V86.8394C118.855 87.8045 118.561 88.7476 118.009 89.5394C117.457 90.3312 116.674 90.9329 115.766 91.262C115.236 91.4603 114.674 91.5622 114.108 91.5631ZM77.5312 4.94401C75.2078 4.94758 72.9806 5.87211 71.3377 7.51498C69.6949 9.15785 68.7703 11.385 68.7668 13.7084V50.1143C68.7703 52.4377 69.6949 54.6649 71.3377 56.3077C72.9806 57.9506 75.2078 58.8751 77.5312 58.8787H88.2776C88.9607 58.8768 89.636 59.0233 90.2568 59.3081C90.8777 59.5929 91.4292 60.0092 91.8733 60.5282L113.919 86.2326V63.598C113.92 62.3467 114.418 61.1471 115.303 60.2623C116.187 59.3775 117.387 58.8799 118.638 58.8787H163.377C165.701 58.8751 167.928 57.9506 169.571 56.3077C171.214 54.6649 172.138 52.4377 172.142 50.1143V13.7084C172.138 11.385 171.214 9.15785 169.571 7.51498C167.928 5.87211 165.701 4.94758 163.377 4.94401H77.5312Z" fill="#161461"/>
</svg>
