<svg width="169" height="176" viewBox="0 0 169 176" fill="none" xmlns="http://www.w3.org/2000/svg">
<path d="M138.41 60.9841C155.25 60.9841 168.902 47.3324 168.902 30.4921C168.902 13.6518 155.25 0 138.41 0C121.569 0 107.917 13.6518 107.917 30.4921C107.917 47.3324 121.569 60.9841 138.41 60.9841Z" fill="#4469F3"/>
<path d="M89.8905 138.447H24.9586C21.7047 138.442 18.5852 137.148 16.2843 134.847C13.9834 132.546 12.6889 129.426 12.6846 126.172V81.9264C12.6889 78.6724 13.9834 75.553 16.2843 73.2521C18.5852 70.9512 21.7047 69.6566 24.9586 69.6523H85.9794V74.1245H24.9586C22.8901 74.1267 20.9069 74.9493 19.4442 76.412C17.9816 77.8747 17.1589 79.8579 17.1567 81.9264V126.172C17.1589 128.241 17.9816 130.224 19.4442 131.687C20.9069 133.15 22.8901 133.972 24.9586 133.974H89.8905C91.959 133.972 93.9422 133.15 95.4049 131.687C96.8675 130.224 97.6902 128.241 97.6924 126.172V85.6749H102.165V126.172C102.16 129.426 100.866 132.546 98.5648 134.847C96.2639 137.148 93.1444 138.442 89.8905 138.447Z" fill="#161461"/>
<path d="M80.4991 75.9538H76.027V72.1566C76.0259 71.6361 75.8187 71.1372 75.4506 70.7692C75.0826 70.4012 74.5838 70.1939 74.0633 70.1929H40.7781C40.2577 70.1939 39.7588 70.4012 39.3908 70.7692C39.0228 71.1372 38.8155 71.6361 38.8145 72.1566V75.9538H34.3423V72.1566C34.3444 70.4503 35.0232 68.8146 36.2297 67.6081C37.4362 66.4016 39.0719 65.7229 40.7781 65.7207H74.0714C75.7762 65.725 77.4099 66.4047 78.6146 67.611C79.8194 68.8172 80.497 70.4517 80.4991 72.1566V75.9538Z" fill="#161461"/>
<path d="M14.9208 122.253H6.09841C4.48299 122.246 2.93556 121.602 1.79328 120.459C0.650995 119.317 0.00642322 117.77 0 116.154L0 98.3592C0.00642322 96.7437 0.650995 95.1963 1.79328 94.054C2.93556 92.9117 4.48299 92.2672 6.09841 92.2607H14.9208V96.7329H6.09841C5.66711 96.7329 5.25346 96.9043 4.94848 97.2092C4.64351 97.5142 4.47217 97.9278 4.47217 98.3592V116.138C4.47217 116.569 4.64351 116.983 4.94848 117.288C5.25346 117.593 5.66711 117.764 6.09841 117.764H14.9208V122.253Z" fill="#161461"/>
<path d="M108.897 122.253H99.9287V117.781H108.897C109.329 117.781 109.742 117.609 110.047 117.304C110.352 116.999 110.524 116.586 110.524 116.154V98.3592C110.524 97.9278 110.352 97.5142 110.047 97.2092C109.742 96.9043 109.329 96.7329 108.897 96.7329H99.9287V92.2607H108.897C110.513 92.2672 112.06 92.9117 113.203 94.054C114.345 95.1963 114.989 96.7437 114.996 98.3592V116.138C114.994 117.756 114.351 119.308 113.208 120.454C112.066 121.599 110.516 122.246 108.897 122.253Z" fill="#161461"/>
<path d="M59.7402 55.7188H55.2681V70.3915H59.7402V55.7188Z" fill="#161461"/>
<path d="M66.8673 48.1859C66.8673 50.0353 66.3189 51.8432 65.2914 53.3809C64.2639 54.9187 62.8035 56.1172 61.0949 56.825C59.3862 57.5327 57.5061 57.7179 55.6922 57.3571C53.8783 56.9963 52.2121 56.1057 50.9043 54.7979C49.5966 53.4902 48.706 51.824 48.3452 50.0101C47.9844 48.1962 48.1696 46.3161 48.8773 44.6074C49.5851 42.8988 50.7836 41.4384 52.3213 40.4109C53.8591 39.3834 55.667 38.835 57.5164 38.835C59.9964 38.835 62.3749 39.8201 64.1285 41.5738C65.8821 43.3274 66.8673 45.7058 66.8673 48.1859Z" fill="#4469F3"/>
<path d="M57.5041 59.7644C55.2108 59.7612 52.97 59.078 51.065 57.8013C49.16 56.5245 47.6763 54.7115 46.8017 52.5916C45.9271 50.4716 45.7007 48.1399 46.1513 45.8913C46.6018 43.6427 47.7091 41.5782 49.3329 39.9589C50.9568 38.3395 53.0244 37.2381 55.2743 36.7939C57.5241 36.3496 59.8552 36.5825 61.9727 37.4631C64.0902 38.3437 65.899 39.8324 67.1704 41.741C68.4418 43.6495 69.1187 45.8923 69.1155 48.1856C69.108 51.2598 67.8812 54.2055 65.7043 56.3762C63.5275 58.547 60.5784 59.7655 57.5041 59.7644ZM57.5041 41.0626C56.0961 41.0659 54.7205 41.4863 53.5513 42.271C52.3821 43.0556 51.4716 44.1692 50.935 45.471C50.3984 46.7728 50.2596 48.2045 50.5363 49.5851C50.813 50.9658 51.4927 52.2335 52.4895 53.228C53.4863 54.2225 54.7555 54.8993 56.1368 55.1728C57.518 55.4464 58.9494 55.3044 60.25 54.7648C61.5506 54.2252 62.6621 53.3122 63.444 52.1412C64.226 50.9702 64.6433 49.5937 64.6433 48.1856C64.6423 47.2491 64.4568 46.322 64.0974 45.4573C63.7381 44.5925 63.2119 43.807 62.549 43.1455C61.886 42.4841 61.0993 41.9597 60.2337 41.6024C59.3681 41.245 58.4406 41.0616 57.5041 41.0626Z" fill="#161461"/>
<path d="M79.5111 107.211H35.5009C32.9019 107.211 30.4093 106.178 28.5712 104.341C26.733 102.504 25.6998 100.012 25.6987 97.4125C25.6987 94.8128 26.7315 92.3196 28.5697 90.4813C30.408 88.6431 32.9012 87.6104 35.5009 87.6104H79.5111C80.7982 87.6104 82.0726 87.8639 83.2616 88.3566C84.4507 88.8492 85.531 89.5713 86.4409 90.4816C87.3508 91.3919 88.0724 92.4725 88.5646 93.6617C89.0567 94.8509 89.3098 96.1255 89.3092 97.4125C89.3092 100.011 88.2769 102.503 86.4394 104.341C84.6019 106.178 82.1098 107.211 79.5111 107.211Z" fill="#4469F3"/>
<path d="M79.5114 109.447H35.5012C33.902 109.476 32.3129 109.186 30.8268 108.595C29.3408 108.003 27.9876 107.121 26.8462 106.001C25.7048 104.88 24.7982 103.543 24.1793 102.068C23.5605 100.593 23.2417 99.0098 23.2417 97.4103C23.2417 95.8108 23.5605 94.2274 24.1793 92.7524C24.7982 91.2775 25.7048 89.9407 26.8462 88.8201C27.9876 87.6996 29.3408 86.8177 30.8268 86.226C32.3129 85.6343 33.902 85.3447 35.5012 85.3741H79.5114C82.6653 85.4321 85.6704 86.7257 87.8804 88.9766C90.0903 91.2275 91.3284 94.2559 91.3284 97.4103C91.3284 100.565 90.0903 103.593 87.8804 105.844C85.6704 108.095 82.6653 109.389 79.5114 109.447ZM35.5012 89.8503C34.4931 89.827 33.4905 90.0053 32.5524 90.375C31.6142 90.7446 30.7594 91.298 30.0381 92.0027C29.3169 92.7074 28.7438 93.5492 28.3525 94.4785C27.9613 95.4079 27.7597 96.406 27.7597 97.4144C27.7597 98.4228 27.9613 99.4209 28.3525 100.35C28.7438 101.28 29.3169 102.121 30.0381 102.826C30.7594 103.531 31.6142 104.084 32.5524 104.454C33.4905 104.823 34.4931 105.002 35.5012 104.978H79.5114C81.4872 104.933 83.3666 104.116 84.7477 102.702C86.1289 101.289 86.9021 99.3907 86.9021 97.4144C86.9021 95.4381 86.1289 93.5403 84.7477 92.1267C83.3666 90.7132 81.4872 89.8961 79.5114 89.8503H35.5012Z" fill="#161461"/>
<path d="M57.6053 125.851C49.5615 125.866 41.7048 123.425 35.0859 118.854L37.6229 115.171C43.5029 119.214 50.4712 121.379 57.6074 121.379C64.7436 121.379 71.7119 119.214 77.5919 115.171L80.1288 118.854C73.5085 123.425 65.6504 125.867 57.6053 125.851Z" fill="#161461"/>
<path d="M95.4363 175.74H90.9641V161.946C90.9641 157.433 88.5248 153.624 85.6788 153.624H27.7033C24.8329 153.624 22.418 157.433 22.418 161.946V175.74H17.9458V161.946C17.9458 154.77 22.235 149.151 27.7033 149.151H85.6666C91.143 149.151 95.4241 154.77 95.4241 161.946L95.4363 175.74Z" fill="#161461"/>
<path d="M9.07037 175.74H4.5982V173.886C4.58727 169.305 6.1969 164.867 9.14244 161.357C12.088 157.848 16.1797 155.493 20.6939 154.709L21.4623 159.112C17.9859 159.717 14.8354 161.532 12.5677 164.236C10.3 166.939 9.06124 170.358 9.07037 173.886V175.74Z" fill="#161461"/>
<path d="M109.178 175.74H104.705V173.886C104.691 170.297 103.396 166.83 101.054 164.11C98.7111 161.391 95.4749 159.597 91.9272 159.05L92.5818 154.623C97.1883 155.333 101.391 157.662 104.433 161.193C107.475 164.724 109.157 169.225 109.178 173.886V175.74Z" fill="#161461"/>
<path d="M73.1568 153.188H41.876V134.056H73.1812L73.1568 153.188ZM46.3238 148.716H68.6846V138.528H46.3481L46.3238 148.716Z" fill="#161461"/>
<path d="M141.727 100.177C141.076 100.178 140.434 100.024 139.856 99.7259C139.277 99.428 138.778 98.9956 138.401 98.4649L124.7 79.1858H103.242C96.9524 79.1858 91.8379 74.3071 91.8379 68.2778V22.3608C91.8411 19.5044 92.9773 16.7659 94.997 14.7461C97.0168 12.7263 99.7553 11.5901 102.612 11.5869H152.082C158.368 11.5869 163.466 16.4656 163.466 22.4949V68.2778C163.466 74.2949 158.351 79.1858 152.082 79.1858H145.813V96.2004C145.816 97.0473 145.545 97.8725 145.04 98.5526C144.535 99.2326 143.823 99.731 143.012 99.9732C142.597 100.108 142.163 100.177 141.727 100.177ZM102.612 16.0591C100.941 16.0612 99.3395 16.7259 98.1582 17.9072C96.9768 19.0885 96.3122 20.6901 96.3101 22.3608V68.2778C96.3101 71.827 99.4203 74.7136 103.242 74.7136H124.879C125.532 74.7112 126.176 74.8649 126.757 75.1619C127.339 75.459 127.84 75.8907 128.221 76.4212L141.341 94.8831V78.6857C141.355 77.6203 141.79 76.604 142.553 75.8594C143.315 75.1148 144.341 74.7028 145.406 74.7136H152.078C155.9 74.7136 158.99 71.827 158.99 68.2778V22.4949C158.99 18.9457 155.883 16.0591 152.078 16.0591H102.612Z" fill="#161461"/>
<path d="M142.45 41.8911L142.544 42.2701H142.935H145.244C146.252 42.2701 147.085 43.1172 147.085 44.1481V46.9275C147.085 47.9498 146.26 48.7746 145.244 48.7746H142.935H142.543L142.449 49.1558C142.062 50.7404 141.435 52.2075 140.628 53.5576L140.428 53.8917L140.703 54.1674L142.335 55.8042C143.064 56.5355 143.064 57.7021 142.335 58.4334L140.364 60.4099C139.636 61.1404 138.475 61.1404 137.746 60.4099L136.114 58.7731L135.833 58.4912L135.496 58.702C134.159 59.5364 132.7 60.1345 131.114 60.5245L130.734 60.6181V61.01V63.3262C130.734 64.3485 129.909 65.1733 128.894 65.1733H126.092C125.076 65.1733 124.251 64.3485 124.251 63.3262V61.01V60.6181L123.871 60.5245C122.291 60.1359 120.829 59.5078 119.483 58.6977L119.147 58.4959L118.871 58.7731L117.239 60.4099C116.51 61.1404 115.35 61.1404 114.621 60.4099L112.65 58.4334C111.921 57.7021 111.921 56.5355 112.65 55.8042L114.282 54.1674L114.562 53.8871L114.353 53.5507C113.521 52.2096 112.925 50.7459 112.536 49.1558L112.443 48.7746H112.05H109.741C108.725 48.7746 107.9 47.9498 107.9 46.9275V44.1481C107.9 43.1524 108.7 42.3282 109.686 42.301H109.686H109.686H109.686H109.686H109.686H109.686H109.686H109.687H109.687H109.687H109.687H109.687H109.687H109.688H109.688H109.688H109.688H109.688H109.688H109.688H109.689H109.689H109.689H109.689H109.689H109.689H109.689H109.69H109.69H109.69H109.69H109.69H109.69H109.69H109.691H109.691H109.691H109.691H109.691H109.691H109.691H109.691H109.692H109.692H109.692H109.692H109.692H109.692H109.692H109.693H109.693H109.693H109.693H109.693H109.693H109.693H109.693H109.694H109.694H109.694H109.694H109.694H109.694H109.694H109.694H109.695H109.695H109.695H109.695H109.695H109.695H109.695H109.695H109.695H109.696H109.696H109.696H109.696H109.696H109.696H109.696H109.696H109.697H109.697H109.697H109.697H109.697H109.697H109.697H109.697H109.697H109.698H109.698H109.698H109.698H109.698H109.698H109.698H109.698H109.698H109.699H109.699H109.699H109.699H109.699H109.699H109.699H109.699H109.699H109.7H109.7H109.7H109.7H109.7H109.7H109.7H109.7H109.7H109.7H109.701H109.701H109.701H109.701H109.701H109.701H109.701H109.701H109.701H109.701H109.702H109.702H109.702H109.702H109.702H109.702H109.702H109.702H109.702H109.702H109.703H109.703H109.703H109.703H109.703H109.703H109.703H109.703H109.703H109.703H109.704H109.704H109.704H109.704H109.704H109.704H109.704H109.704H109.704H109.704H109.705H109.705H109.705H109.705H109.705H109.705H109.705H109.705H109.705H109.705H109.705H109.706H109.706H109.706H109.706H109.706H109.706H109.706H109.706H109.706H109.706H109.706H109.707H109.707H109.707H109.707H109.707H109.707H109.707H109.707H109.707H109.707H109.707H109.708H109.708H109.708H109.708H109.708H109.708H109.708H109.708H109.708H109.708H109.708H109.709H109.709H109.709H109.709H109.709H109.709H109.709H109.709H109.709H109.709H109.709H109.71H109.71H109.71H109.71H109.71H109.71H109.71H109.71H109.71H109.71H109.71H109.711H109.711H109.711H109.711H109.711H109.711H109.711H109.711H109.711H109.711H109.711H109.712H109.712H109.712H109.712H109.712H109.712H109.712H109.712H109.712H109.712H109.712H109.713H109.713H109.713H109.713H109.713H109.713H109.713H109.713H109.713H109.713H109.713H109.714H109.714H109.714H109.714H109.714H109.714H109.714H109.714H109.714H109.714H109.714H109.715H109.715H109.715H109.715H109.715H109.715H109.715H109.715H109.715H109.715H109.716H109.716H109.716H109.716H109.716H109.716H109.716H109.716H109.716H109.716H109.717H109.717H109.717H109.717H109.717H109.717H109.717H109.717H109.717H109.717H109.717H109.718H109.718H109.718H109.718H109.718H109.718H109.718H109.718H109.718H109.718H109.719H109.719H109.719H109.719H109.719H109.719H109.719H109.719H109.719H109.72H109.72H109.72H109.72H109.72H109.72H109.72H109.72H109.72H109.72H109.721H109.721H109.721H109.721H109.721H109.721H109.721H109.721H109.721H109.722H109.722H109.722H109.722H109.722H109.722H109.722H109.722H109.722H109.723H109.723H109.723H109.723H109.723H109.723H109.723H109.723H109.723H109.724H109.724H109.724H109.724H109.724H109.724H109.724H109.724H109.725H109.725H109.725H109.725H109.725H109.725H109.725H109.725H109.726H109.726H109.726H109.726H109.726H109.726H109.726H109.726H109.727H109.727H109.727H109.727H109.727H109.727H109.727H109.727H109.728H109.728H109.728H109.728H109.728H109.728H109.728H109.728H109.729H109.729H109.729H109.729H109.729H109.729H109.729H109.73H109.73H109.73H109.73H109.73H109.73H109.73H109.731H109.731H109.731H109.731H109.731H109.731H109.731H109.732H109.732H109.732H109.732H109.732H109.732H109.732H109.733H109.733H109.733H109.733H109.733H109.733H109.733H109.734H109.734H109.734H109.734H109.734H109.734H109.735H109.735H109.735H109.735H109.735H109.735H109.736H109.736H109.736H109.736H109.736H109.736H109.736H109.737H109.737H109.737H109.737H109.737H109.737H109.738H109.738H109.738H109.738H109.738H109.739H109.739H109.739H109.739H109.739H109.739H109.74H109.74H109.74H109.74H109.74H109.74H109.741H112.05H112.443L112.536 41.9198C112.923 40.3352 113.55 38.8682 114.358 37.518L114.557 37.1839L114.282 36.9082L112.65 35.2715C111.921 34.5401 111.921 33.3735 112.65 32.6422L114.621 30.6657C115.35 29.9352 116.51 29.9352 117.239 30.6657L118.871 32.3025L119.152 32.5844L119.489 32.3736C120.827 31.5393 122.286 30.9411 123.871 30.5511L124.251 30.4575V30.0656V27.7494C124.251 26.7271 125.076 25.9023 126.092 25.9023H128.894C129.909 25.9023 130.734 26.7271 130.734 27.7494V30.0656V30.4575L131.114 30.5511C132.694 30.9397 134.156 31.5679 135.503 32.3779L135.838 32.5797L136.114 32.3025L137.746 30.6657C138.475 29.9352 139.636 29.9352 140.364 30.6657L142.335 32.6422C143.064 33.3735 143.064 34.5401 142.335 35.2715L140.703 36.9082L140.424 37.1876L140.631 37.5235C141.258 38.5419 141.794 39.6769 142.149 40.8359L142.153 40.8479L142.157 40.8597C142.27 41.1706 142.356 41.5152 142.45 41.8911ZM118.91 45.0457L118.91 45.0601V45.0746V45.0755V45.0764V45.0773V45.0782V45.0791V45.08V45.0809V45.0818V45.0827V45.0836V45.0845V45.0854V45.0863V45.0872V45.0881V45.089V45.0899V45.0908V45.0918V45.0927V45.0936V45.0945V45.0954V45.0963V45.0972V45.0981V45.099V45.0999V45.1008V45.1017V45.1026V45.1035V45.1044V45.1053V45.1062V45.1071V45.108V45.1089V45.1098V45.1108V45.1117V45.1126V45.1135V45.1144V45.1153V45.1162V45.1171V45.118V45.1189V45.1198V45.1207V45.1216V45.1225V45.1234V45.1243V45.1252V45.1261V45.127V45.1279V45.1288V45.1298V45.1307V45.1316V45.1325V45.1334V45.1343V45.1352V45.1361V45.137V45.1379V45.1388V45.1397V45.1406V45.1415V45.1424V45.1433V45.1442V45.1451V45.146V45.1469V45.1479V45.1488V45.1497V45.1506V45.1515V45.1524V45.1533V45.1542V45.1551V45.156V45.1569V45.1578V45.1587V45.1596V45.1605V45.1614V45.1623V45.1632V45.1641V45.165V45.1659V45.1668V45.1678V45.1687V45.1696V45.1705V45.1714V45.1723V45.1732V45.1741V45.175V45.1759V45.1768V45.1777V45.1786V45.1795V45.1804V45.1813V45.1822V45.1831V45.184V45.1849V45.1859V45.1868V45.1877V45.1886V45.1895V45.1904V45.1913V45.1922V45.1931V45.194V45.1949V45.1958V45.1967V45.1976V45.1985V45.1994V45.2003V45.2012V45.2021V45.203V45.2039V45.2048V45.2058V45.2067V45.2076V45.2085V45.2094V45.2103V45.2112V45.2121V45.213V45.2139V45.2148V45.2157V45.2166V45.2175V45.2184V45.2193V45.2202V45.2211V45.222V45.2229V45.2239V45.2248V45.2257V45.2266V45.2275V45.2284V45.2293V45.2302V45.2311V45.232V45.2329V45.2338V45.2347V45.2356V45.2365V45.2374V45.2383V45.2392V45.2401V45.241V45.2419V45.2428V45.2438V45.2447V45.2456V45.2465V45.2474V45.2483V45.2492V45.2501V45.251V45.2519V45.2528V45.2537V45.2546V45.2555V45.2564V45.2573V45.2582V45.2591V45.26V45.2609V45.2619V45.2628V45.2637V45.2646V45.2655V45.2664V45.2673V45.2682V45.2691V45.27V45.2709V45.2718V45.2727V45.2736V45.2745V45.2754V45.2763V45.2772V45.2781V45.279V45.2799V45.2808V45.2818V45.2827V45.2836V45.2845V45.2854V45.2863V45.2872V45.2881V45.289V45.2899V45.2908V45.2917V45.2926V45.2935V45.2944V45.2953V45.2962V45.2971V45.298V45.2989V45.2999V45.3008V45.3017V45.3026V45.3035V45.3044V45.3053V45.3062V45.3071V45.308V45.3089V45.3098V45.3107V45.3116V45.3125V45.3134V45.3143V45.3152V45.3161V45.317V45.3179V45.3188V45.3198V45.3207V45.3216V45.3225V45.3234V45.3243V45.3252V45.3261V45.327V45.3279V45.3288V45.3297V45.3306V45.3315V45.3324V45.3333V45.3342V45.3351V45.336V45.3369V45.3378V45.3388V45.3397V45.3406V45.3415V45.3424V45.3433V45.3442V45.3451V45.346V45.3469V45.3478V45.3487V45.3496V45.3505V45.3514V45.3523V45.3532V45.3541V45.355V45.3559V45.3568V45.3578V45.3587V45.3596V45.3605V45.3614V45.3623V45.3632V45.3641V45.365V45.3659V45.3668V45.3677V45.3686V45.3695V45.3704V45.3713V45.3722V45.3731V45.374V45.3749V45.3758V45.3768V45.3777V45.3786V45.3795V45.3804V45.3813V45.3822V45.3831V45.384V45.3849V45.3858V45.3867V45.3876V45.3885V45.3894V45.3903V45.3912V45.3921V45.393V45.3939V45.3948V45.3958V45.3967V45.3976V45.3985V45.3994V45.4003V45.4012V45.4021V45.403V45.4039V45.4048V45.4057V45.4066V45.4075V45.4084V45.4093V45.4102V45.4111V45.412V45.4129V45.4138V45.4148V45.4157V45.4166V45.4175V45.4184V45.4193V45.4202V45.4211V45.422V45.4229V45.4238V45.4247V45.4256V45.4265V45.4274V45.4283V45.4292V45.4301V45.431V45.4319V45.4328V45.4338V45.4347V45.4356V45.4365V45.4374V45.4383V45.4392V45.4401V45.441V45.4419V45.4428V45.4437V45.4446V45.4455V45.4464V45.4473V45.4482V45.4491V45.45V45.4509V45.4518V45.4528V45.4537V45.4546V45.4555V45.4564V45.4573V45.4582V45.4591V45.46V45.4609V45.4618V45.4627V45.4636V45.4645V45.4654V45.4663V45.4672V45.4681V45.469V45.4699V45.4708V45.4718V45.4727V45.4736V45.4745V45.4754V45.4763V45.4772V45.4781V45.479V45.4799V45.4808V45.4817V45.4826V45.4835V45.4844V45.4853V45.4862V45.4871V45.488V45.4889V45.4898V45.4908V45.4917V45.4926V45.4935V45.4944V45.4953V45.4962V45.4971V45.498V45.4989V45.4998V45.5007V45.5016V45.5025V45.5034V45.5043V45.5052V45.5061V45.507V45.5079V45.5089V45.5098V45.5107V45.5116V45.5125V45.5134V45.5143V45.5152V45.5161V45.517V45.5179V45.5188V45.5197V45.5206V45.5215V45.5224V45.5233V45.5242V45.5251V45.526V45.5269V45.5278V45.5288V45.5297V45.5306V45.5315V45.5324V45.5333V45.5342V45.5351V45.536V45.5369V45.5378C118.91 50.2905 122.766 54.1599 127.508 54.1599C132.248 54.1599 136.108 50.2922 136.045 45.5344C136.045 45.0217 136.013 44.4968 135.913 43.9653C135.193 39.9653 131.696 36.9157 127.477 36.9157C122.896 36.9157 119.172 40.5247 118.91 45.0457Z" stroke="#161461"/>
<path d="M140.703 36.9082L140.428 37.1839L140.628 37.518C141.191 38.4596 141.658 39.4495 142.029 40.4883C140.24 41.6644 138.144 42.6547 135.822 43.4137C134.867 39.6911 131.504 36.9157 127.508 36.9157C123.12 36.9157 119.484 40.2291 118.988 44.4905C116.392 44.0281 113.97 43.2776 111.815 42.301H112.081H112.473L112.567 41.9198C112.956 40.3297 113.552 38.866 114.384 37.5249L114.593 37.1885L114.313 36.9082L112.681 35.2714C111.952 34.5401 111.952 33.3735 112.681 32.6422L114.652 30.6657C115.381 29.9352 116.541 29.9352 117.27 30.6657L118.902 32.3025L119.178 32.5797L119.513 32.3779C120.86 31.5679 122.322 30.9397 123.902 30.5511L124.282 30.4575V30.0656V27.7494C124.282 26.7271 125.107 25.9023 126.122 25.9023H128.925C129.94 25.9023 130.765 26.7271 130.765 27.7494V30.0656V30.4575L131.145 30.5511C132.73 30.9411 134.19 31.5393 135.527 32.3736L135.864 32.5844L136.145 32.3025L137.777 30.6657C138.506 29.9352 139.666 29.9352 140.395 30.6657L142.362 32.639C143.065 33.371 143.064 34.5401 142.335 35.2715L140.703 36.9082Z" fill="#1F2763" stroke="#161461"/>
<path d="M127.508 54.0599C122.827 54.0599 119.009 50.2305 119.009 45.5363C119.009 40.8421 122.827 37.0127 127.508 37.0127C132.188 37.0127 136.006 40.8421 136.006 45.5363C136.006 50.2305 132.188 54.0599 127.508 54.0599ZM127.508 37.8156C123.258 37.8156 119.809 41.2745 119.809 45.5363C119.809 49.7981 123.258 53.2569 127.508 53.2569C131.757 53.2569 135.206 49.7981 135.206 45.5363C135.206 41.2745 131.757 37.8156 127.508 37.8156Z" fill="#121321"/>
<path d="M128.894 66.0739H126.091C124.583 66.0739 123.351 64.8386 123.351 63.3253V61.3179C121.934 60.9473 120.549 60.3915 119.286 59.6194L117.87 61.04C117.346 61.565 116.669 61.8429 115.93 61.8429C115.191 61.8429 114.513 61.565 113.99 61.04L112.019 59.0635C110.941 57.9826 110.941 56.2532 112.019 55.1723L113.436 53.7517C112.697 52.4855 112.142 51.0958 111.742 49.6752H109.741C108.232 49.6752 107 48.4399 107 46.9266V44.1472C107 42.634 108.232 41.3987 109.741 41.3987H111.742C112.112 39.9781 112.697 38.5883 113.436 37.3222L112.019 35.9016C110.941 34.8207 110.941 33.0912 112.019 32.0104L113.99 30.0339C115.068 28.953 116.792 28.953 117.87 30.0339L119.286 31.4545C120.549 30.7133 121.934 30.1574 123.351 29.7559V27.7486C123.351 26.2353 124.583 25 126.091 25H128.894C130.402 25 131.634 26.2353 131.634 27.7486V29.7559C133.051 30.1265 134.436 30.7133 135.699 31.4545L137.115 30.0339C138.193 28.953 139.917 28.953 140.995 30.0339L142.966 32.0104C143.489 32.5354 143.766 33.2148 143.766 33.956C143.766 34.6971 143.489 35.3766 142.966 35.9016L141.549 37.3222C142.288 38.5883 142.873 39.9781 143.243 41.3987H145.244C146.753 41.3987 147.985 42.634 147.985 44.1472V46.9266C147.985 48.4399 146.753 49.6752 145.244 49.6752H143.243C142.873 51.0958 142.319 52.4855 141.549 53.7517L142.966 55.1723C143.489 55.6973 143.766 56.3767 143.766 57.1179C143.766 57.8591 143.489 58.5385 142.966 59.0635L140.995 61.04C139.917 62.1209 138.193 62.1209 137.115 61.04L135.699 59.6194C134.436 60.3606 133.051 60.9165 131.634 61.3179V63.3253C131.634 64.8386 130.433 66.0739 128.894 66.0739ZM119.225 58.7547C119.286 58.7547 119.379 58.7856 119.44 58.8165C120.795 59.6503 122.273 60.2679 123.844 60.6385C124.028 60.6694 124.151 60.8547 124.151 61.0091V63.3253C124.151 64.4062 125.014 65.3018 126.091 65.3018H128.894C129.971 65.3018 130.833 64.4371 130.833 63.3253V61.0091C130.833 60.8238 130.957 60.6694 131.141 60.6385C132.712 60.2679 134.19 59.6503 135.545 58.8165C135.699 58.7238 135.914 58.7547 136.037 58.8782L137.669 60.515C138.439 61.2871 139.671 61.2871 140.441 60.515L142.411 58.5385C142.781 58.1679 142.997 57.6738 142.997 57.1488C142.997 56.6238 142.781 56.1297 142.411 55.7591L140.779 54.1223C140.656 53.9988 140.626 53.7826 140.718 53.6282C141.549 52.2693 142.165 50.787 142.535 49.212C142.565 49.0267 142.75 48.9031 142.904 48.9031H145.214C146.291 48.9031 147.154 48.0384 147.154 46.9575V44.1472C147.154 43.0663 146.291 42.2016 145.214 42.2016H142.904C142.719 42.2016 142.565 42.0781 142.535 41.8928C142.165 40.3178 141.549 38.8354 140.718 37.4766C140.626 37.3222 140.656 37.106 140.779 36.9824L142.411 35.3457C142.781 34.9751 142.997 34.481 142.997 33.956C142.997 33.431 142.781 32.9368 142.411 32.5662L140.441 30.5898C139.671 29.8177 138.439 29.8177 137.669 30.5898L136.037 32.2265C135.914 32.3501 135.699 32.3809 135.545 32.2883C134.19 31.4545 132.712 30.8368 131.141 30.4662C130.957 30.4353 130.833 30.25 130.833 30.0956V27.7486C130.833 26.6677 129.971 25.8029 128.894 25.8029H126.091C125.014 25.8029 124.151 26.6677 124.151 27.7486V30.0647C124.151 30.25 124.028 30.4045 123.844 30.4353C122.273 30.8059 120.795 31.4236 119.44 32.2574C119.286 32.3501 119.071 32.3192 118.948 32.1956L117.316 30.5589C116.546 29.7868 115.314 29.7868 114.544 30.5589L112.573 32.5354C111.804 33.3074 111.804 34.5427 112.573 35.3148L114.205 36.9516C114.329 37.0751 114.359 37.2913 114.267 37.4457C113.436 38.8045 112.82 40.3178 112.45 41.8619C112.419 42.0472 112.235 42.1707 112.081 42.1707H109.771C108.694 42.1707 107.831 43.0354 107.831 44.1163V46.9266C107.831 48.0075 108.694 48.8723 109.771 48.8723H112.081C112.266 48.8723 112.419 48.9958 112.45 49.1811C112.82 50.7561 113.436 52.2385 114.267 53.5973C114.359 53.7517 114.329 53.9679 114.205 54.0914L112.573 55.7282C111.804 56.5003 111.804 57.7356 112.573 58.5076L114.544 60.4841C114.914 60.8547 115.406 61.0709 115.93 61.0709C116.453 61.0709 116.946 60.8547 117.316 60.4841L118.948 58.8473C119.04 58.7856 119.132 58.7547 119.225 58.7547Z" fill="#121321"/>
</svg>
