<svg width="2694" height="1607" viewBox="0 0 2694 1607" fill="none" xmlns="http://www.w3.org/2000/svg">
<rect width="2694" height="1568" fill="#001949"/>
<g clip-path="url(#clip0_692_4385)">
<path d="M96.2344 493.74V1550.83H1428.77C1428.77 1550.83 972.25 1570.11 842.374 1243.67C743.992 996.309 998.225 493.74 503.721 489.165C381.313 487.858 176.758 490.799 96.2344 493.74Z" fill="#F3F6E6" fill-opacity="0.04"/>
<path d="M1413.51 1567.5C1408.63 1567.5 1402.47 1567.5 1395.32 1567.17H96.2345C87.1432 1567.17 80 1559.98 80 1550.83V493.74C80 484.917 86.8185 477.728 95.5852 477.401C171.887 474.46 376.767 471.519 503.721 472.827C622.234 473.807 706.329 502.562 761.201 560.727C849.517 654.51 842.699 806.457 836.529 953.502C831.984 1060.68 827.438 1161.65 857.634 1237.46C886.207 1309.03 933.612 1369.15 998.55 1415.88C1051.15 1453.78 1115.11 1483.19 1188.82 1503.78C1276.49 1527.96 1357.33 1533.52 1398.89 1534.5H1428.77C1437.53 1534.5 1444.68 1541.69 1445 1550.51C1445.32 1559.33 1438.18 1566.85 1429.41 1567.17C1428.44 1567.17 1422.92 1567.5 1413.51 1567.5ZM112.469 1534.5H1176.48C1002.77 1485.81 881.986 1387.12 827.113 1249.88C794.32 1167.54 799.19 1058.07 803.736 952.195C809.905 812.012 816.074 666.927 737.499 583.274C689.12 531.972 612.493 506.484 503.397 505.503C384.885 504.196 197.863 506.81 112.469 509.425V1534.5Z" fill="#F3F6E6" fill-opacity="0.04"/>
</g>
<g clip-path="url(#clip1_692_4385)">
<path d="M91.458 375C88.4191 375 85.5048 373.793 83.356 371.644C81.2072 369.495 80 366.581 80 363.542V86.458C80 83.4191 81.2072 80.5048 83.356 78.356C85.5048 76.2072 88.4191 75 91.458 75H368.542C371.581 75 374.495 76.2072 376.644 78.356C378.793 80.5048 380 83.4191 380 86.458C380 89.4968 378.793 92.4112 376.644 94.56C374.495 96.7088 371.581 97.916 368.542 97.916H102.916V363.542C102.916 366.581 101.709 369.495 99.56 371.644C97.4112 373.793 94.4968 375 91.458 375Z" fill="white" fill-opacity="0.04"/>
</g>
<g clip-path="url(#clip2_692_4385)">
<path d="M2596.25 1554.2V1058.3C2596.26 1057.04 2596.02 1055.8 2595.55 1054.63C2595.08 1053.47 2594.37 1052.41 2593.49 1051.52C2592.6 1050.63 2591.55 1049.93 2590.38 1049.45C2589.22 1048.98 2587.98 1048.74 2586.72 1048.75L1103.28 1048.75C1102.02 1048.74 1100.78 1048.98 1099.62 1049.45C1098.45 1049.93 1097.4 1050.63 1096.51 1051.52C1095.63 1052.41 1094.92 1053.47 1094.45 1054.63C1093.98 1055.8 1093.74 1057.04 1093.75 1058.3L1093.75 1554.2C1093.74 1555.46 1093.98 1556.7 1094.45 1557.87C1094.92 1559.03 1095.63 1560.09 1096.51 1560.98C1097.4 1561.87 1098.45 1562.57 1099.62 1563.05C1100.78 1563.52 1102.02 1563.76 1103.28 1563.75L2586.72 1563.75C2589.25 1563.74 2591.67 1562.73 2593.45 1560.94C2595.24 1559.16 2596.24 1556.73 2596.25 1554.2ZM2101.89 1544.65V1315.8H2330.12V1544.65H2101.89ZM1854.62 1544.65V1315.8H2082.84V1544.65H1854.62ZM1607.35 1544.65V1315.8H1835.57V1544.65H1607.35ZM1835.57 1067.85V1296.7H1607.35V1067.85H1835.57ZM2082.84 1067.85V1296.7H1854.62V1067.85H2082.84ZM2101.89 1296.7V1067.85L2330.12 1067.85V1296.7L2101.89 1296.7ZM1588.3 1067.85V1296.7L1360.07 1296.7V1067.85L1588.3 1067.85ZM1588.3 1315.8V1544.65L1360.07 1544.65L1360.07 1315.8L1588.3 1315.8ZM2349.17 1544.65V1315.8H2577.2V1544.65H2349.17ZM2577.2 1067.85V1296.7H2348.98V1067.85H2577.2ZM1341.02 1067.85V1296.7H1112.99V1067.85H1341.02ZM1112.99 1544.65L1112.99 1315.8H1341.21L1341.21 1544.65H1112.99Z" fill="#F3F6E6" fill-opacity="0.04"/>
</g>
<g clip-path="url(#clip3_692_4385)">
<path d="M2412.24 650H1617.76C1563.99 649.985 1512.42 628.514 1474.4 590.307C1436.38 552.099 1415.01 500.283 1415 446.25C1415.01 392.217 1436.38 340.401 1474.4 302.193C1512.42 263.986 1563.99 242.515 1617.76 242.5L2412.24 242.5C2466.01 242.515 2517.58 263.986 2555.6 302.193C2593.62 340.401 2614.99 392.217 2615 446.25C2614.99 500.283 2593.62 552.099 2555.6 590.307C2517.58 628.514 2466.01 649.985 2412.24 650Z" fill="#F6E049" fill-opacity="0.04"/>
</g>
<g clip-path="url(#clip4_692_4385)">
<path d="M498.868 1295.09C543.522 1302.94 586.09 1273.11 593.946 1228.46C601.803 1183.8 571.971 1141.23 527.317 1133.38C482.663 1125.52 440.094 1155.35 432.238 1200.01C424.382 1244.66 454.213 1287.23 498.868 1295.09Z" fill="#F3F6E7" fill-opacity="0.04"/>
<path d="M497.484 1302.95C448.563 1294.34 415.766 1247.54 424.373 1198.62C432.98 1149.7 479.779 1116.9 528.701 1125.51C577.622 1134.12 610.418 1180.92 601.812 1229.84C593.205 1278.76 546.405 1311.56 497.484 1302.95ZM525.933 1141.24C485.664 1134.16 447.188 1161.12 440.103 1201.39C433.019 1241.66 459.982 1280.14 500.251 1287.22C540.521 1294.3 578.997 1267.34 586.081 1227.07C593.166 1186.8 566.203 1148.33 525.933 1141.24Z" fill="#383A47" fill-opacity="0.04"/>
<path d="M410.078 1357.31C454.732 1365.16 497.3 1335.33 505.156 1290.68C513.012 1246.02 483.181 1203.46 438.527 1195.6C393.872 1187.74 351.304 1217.57 343.448 1262.23C335.592 1306.88 365.423 1349.45 410.078 1357.31Z" fill="#F6E258" fill-opacity="0.04"/>
<path d="M408.694 1365.17C359.773 1356.57 326.976 1309.77 335.583 1260.85C344.19 1211.92 390.989 1179.13 439.911 1187.73C488.832 1196.34 521.628 1243.14 513.022 1292.06C504.415 1340.98 457.615 1373.78 408.694 1365.17ZM437.143 1203.46C396.874 1196.38 358.398 1223.34 351.313 1263.61C344.229 1303.88 371.192 1342.36 411.461 1349.44C451.731 1356.53 490.207 1329.56 497.291 1289.29C504.376 1249.02 477.413 1210.55 437.143 1203.46Z" fill="#383A47" fill-opacity="0.04"/>
<path d="M321.473 1419.4C366.128 1427.26 408.696 1397.42 416.552 1352.77C424.408 1308.12 394.577 1265.55 349.922 1257.69C305.268 1249.84 262.7 1279.67 254.844 1324.32C246.988 1368.98 276.819 1411.54 321.473 1419.4Z" fill="#E06E9C" fill-opacity="0.04"/>
<path d="M320.089 1427.26C271.168 1418.66 238.372 1371.86 246.979 1322.94C255.585 1274.02 302.385 1241.22 351.306 1249.83C400.228 1258.43 433.024 1305.23 424.417 1354.15C415.81 1403.08 369.011 1435.87 320.089 1427.26ZM348.539 1265.56C308.269 1258.47 269.794 1285.43 262.709 1325.7C255.624 1365.97 282.587 1404.45 322.857 1411.53C363.127 1418.62 401.602 1391.66 408.687 1351.39C415.771 1311.12 388.809 1272.64 348.539 1265.56Z" fill="#383A47" fill-opacity="0.04"/>
<path d="M232.684 1481.62C277.339 1489.48 319.907 1459.65 327.763 1414.99C335.619 1370.34 305.788 1327.77 261.133 1319.91C216.479 1312.06 173.911 1341.89 166.055 1386.54C158.199 1431.2 188.03 1473.77 232.684 1481.62Z" fill="#4053FA" fill-opacity="0.04"/>
<path d="M231.3 1489.49C182.379 1480.88 149.583 1434.08 158.189 1385.16C166.796 1336.24 213.596 1303.44 262.517 1312.05C311.439 1320.66 344.235 1367.46 335.628 1416.38C327.021 1465.3 280.222 1498.09 231.3 1489.49ZM259.75 1327.78C219.48 1320.69 181.005 1347.66 173.92 1387.93C166.835 1428.2 193.798 1466.67 234.068 1473.76C274.338 1480.84 312.813 1453.88 319.898 1413.61C326.982 1373.34 300.019 1334.86 259.75 1327.78Z" fill="#383A47" fill-opacity="0.04"/>
</g>
<g clip-path="url(#clip5_692_4385)">
<path d="M2308.75 462.5C2184.07 462.5 2082.5 360.926 2082.5 236.25C2082.5 111.574 2184.07 10 2308.75 10C2433.43 10 2535 111.574 2535 236.25C2535 360.926 2433.43 462.5 2308.75 462.5ZM2308.75 27.6345C2193.77 27.6345 2100.13 121.273 2100.13 236.25C2100.13 351.227 2193.77 444.866 2308.75 444.866C2423.73 444.866 2517.37 351.227 2517.37 236.25C2517.37 121.273 2423.73 27.6345 2308.75 27.6345ZM2308.75 358.809C2241.21 358.809 2186.19 303.79 2186.19 236.25C2186.19 203.45 2198.89 172.766 2221.99 149.665C2245.09 126.564 2275.95 113.867 2308.57 113.867C2376.11 113.867 2431.13 168.886 2431.13 236.426C2431.31 303.79 2376.29 358.809 2308.75 358.809ZM2308.75 131.325C2280.71 131.325 2254.44 142.258 2234.69 162.009C2214.93 181.76 2204 208.211 2204 236.074C2204 293.915 2251.09 340.999 2308.93 340.999C2366.77 340.999 2413.85 293.915 2413.85 236.074C2413.67 178.409 2366.59 131.325 2308.75 131.325Z" fill="#4053FA" fill-opacity="0.04"/>
</g>
<g clip-path="url(#clip6_692_4385)">
<path d="M207.5 1067.5C270.44 925.812 156.813 800.858 309.43 691.523C462.047 582.189 660.337 764.041 736.088 463.929C792.01 242.471 974.482 315.547 973.925 45H1497.5C1498.06 315.547 1315.59 242.471 1259.66 463.929C1183.91 764.041 985.622 582.189 833.005 691.523C680.389 800.858 794.016 925.812 731.075 1067.5H207.5Z" fill="white" fill-opacity="0.04"/>
<path d="M240.586 1021.09H287.262V1067.61H240.586V1021.09Z" fill="#CAC8DC" fill-opacity="0.04"/>
<path d="M334.05 1021.09H380.726V1067.61H334.05V1021.09Z" fill="#CAC8DC" fill-opacity="0.04"/>
<path d="M427.401 1021.09H474.078V1067.61H427.401V1021.09Z" fill="#CAC8DC" fill-opacity="0.04"/>
<path d="M520.865 1021.09H567.541V1067.61H520.865V1021.09Z" fill="#CAC8DC" fill-opacity="0.04"/>
<path d="M614.218 1021.09H660.894V1067.61H614.218V1021.09Z" fill="#CAC8DC" fill-opacity="0.04"/>
<path d="M240.586 927.819H287.262V974.342H240.586V927.819Z" fill="#CAC8DC" fill-opacity="0.04"/>
<path d="M334.05 927.819H380.726V974.342H334.05V927.819Z" fill="#CAC8DC" fill-opacity="0.04"/>
<path d="M427.401 927.819H474.078V974.342H427.401V927.819Z" fill="#CAC8DC" fill-opacity="0.04"/>
<path d="M520.865 927.819H567.541V974.342H520.865V927.819Z" fill="#CAC8DC" fill-opacity="0.04"/>
<path d="M614.218 927.819H660.894V974.342H614.218V927.819Z" fill="#CAC8DC" fill-opacity="0.04"/>
<path d="M287.262 974.454H333.938V1020.98H287.262V974.454Z" fill="#CAC8DC" fill-opacity="0.04"/>
<path d="M380.726 974.454H427.402V1020.98H380.726V974.454Z" fill="#CAC8DC" fill-opacity="0.04"/>
<path d="M474.078 974.454H520.754V1020.98H474.078V974.454Z" fill="#CAC8DC" fill-opacity="0.04"/>
<path d="M567.542 974.454H614.218V1020.98H567.542V974.454Z" fill="#CAC8DC" fill-opacity="0.04"/>
<path d="M661.006 974.454H707.682V1020.98H661.006V974.454Z" fill="#CAC8DC" fill-opacity="0.04"/>
<path d="M287.262 834.662H240.586V881.185H287.262V927.708H333.938V881.185H287.262V834.662Z" fill="#CAC8DC" fill-opacity="0.04"/>
<path d="M334.05 834.662H380.726V881.185H334.05V834.662Z" fill="#CAC8DC" fill-opacity="0.04"/>
<path d="M427.401 834.662H474.078V881.185H427.401V834.662Z" fill="#CAC8DC" fill-opacity="0.04"/>
<path d="M520.865 834.662H567.541V881.185H520.865V834.662Z" fill="#CAC8DC" fill-opacity="0.04"/>
<path d="M614.218 834.662H660.894V881.185H614.218V834.662Z" fill="#CAC8DC" fill-opacity="0.04"/>
<path d="M380.726 881.186H427.402V927.708H380.726V881.186Z" fill="#CAC8DC" fill-opacity="0.04"/>
<path d="M474.078 881.186H520.754V927.708H474.078V881.186Z" fill="#CAC8DC" fill-opacity="0.04"/>
<path d="M567.542 881.186H614.218V927.708H567.542V881.186Z" fill="#CAC8DC" fill-opacity="0.04"/>
<path d="M661.006 881.186H707.682V927.708H661.006V881.186Z" fill="#CAC8DC" fill-opacity="0.04"/>
<path d="M334.05 741.394H380.726V787.916H334.05V741.394Z" fill="#CAC8DC" fill-opacity="0.04"/>
<path d="M427.401 741.394H474.078V787.916H427.401V741.394Z" fill="#CAC8DC" fill-opacity="0.04"/>
<path d="M520.865 741.394H567.541V787.916H520.865V741.394Z" fill="#CAC8DC" fill-opacity="0.04"/>
<path d="M614.218 741.394H660.894V787.916H614.218V741.394Z" fill="#CAC8DC" fill-opacity="0.04"/>
<path d="M707.682 741.394H754.358V787.916H707.682V741.394Z" fill="#CAC8DC" fill-opacity="0.04"/>
<path d="M380.726 787.916H427.402V834.439H380.726V787.916Z" fill="#CAC8DC" fill-opacity="0.04"/>
<path d="M474.078 787.916H520.754V834.439H474.078V787.916Z" fill="#CAC8DC" fill-opacity="0.04"/>
<path d="M567.542 787.916H614.218V834.439H567.542V787.916Z" fill="#CAC8DC" fill-opacity="0.04"/>
<path d="M661.006 787.916H707.682V834.439H661.006V787.916Z" fill="#CAC8DC" fill-opacity="0.04"/>
<path d="M614.218 648.125H660.894V694.647H614.218V648.125Z" fill="#CAC8DC" fill-opacity="0.04"/>
<path d="M707.682 648.125H754.358V694.647H707.682V648.125Z" fill="#CAC8DC" fill-opacity="0.04"/>
<path d="M380.726 694.759H427.402V741.282H380.726V694.759Z" fill="#CAC8DC" fill-opacity="0.04"/>
<path d="M474.078 694.759H520.754V741.282H474.078V694.759Z" fill="#CAC8DC" fill-opacity="0.04"/>
<path d="M567.542 694.759H614.218V741.282H567.542V694.759Z" fill="#CAC8DC" fill-opacity="0.04"/>
<path d="M661.006 694.759H707.682V741.282H661.006V694.759Z" fill="#CAC8DC" fill-opacity="0.04"/>
<path d="M707.682 554.967H754.358V601.49H707.682V554.967Z" fill="#CAC8DC" fill-opacity="0.04"/>
<path d="M847.822 554.967H801.146V601.49H847.822V648.013H894.498V601.49H847.822V554.967Z" fill="#CAC8DC" fill-opacity="0.04"/>
<path d="M894.498 554.967H941.174V601.49H894.498V554.967Z" fill="#CAC8DC" fill-opacity="0.04"/>
<path d="M987.961 554.967V601.49H941.285V648.013H987.961V601.49H1034.64V554.967H987.961Z" fill="#CAC8DC" fill-opacity="0.04"/>
<path d="M1081.42 554.967H1128.1V601.49H1081.42V554.967Z" fill="#CAC8DC" fill-opacity="0.04"/>
<path d="M754.357 601.49H801.034V648.013H754.357V601.49Z" fill="#CAC8DC" fill-opacity="0.04"/>
<path d="M1034.64 601.49H1081.31V648.013H1034.64V601.49Z" fill="#CAC8DC" fill-opacity="0.04"/>
<path d="M801.146 461.698H847.822V508.221H801.146V461.698Z" fill="#CAC8DC" fill-opacity="0.04"/>
<path d="M894.498 461.698H941.174V508.221H894.498V461.698Z" fill="#CAC8DC" fill-opacity="0.04"/>
<path d="M987.961 461.698H1034.64V508.221H987.961V461.698Z" fill="#CAC8DC" fill-opacity="0.04"/>
<path d="M1081.42 461.698H1128.1V508.221H1081.42V461.698Z" fill="#CAC8DC" fill-opacity="0.04"/>
<path d="M1174.78 461.698H1221.45V508.221H1174.78V461.698Z" fill="#CAC8DC" fill-opacity="0.04"/>
<path d="M754.357 508.333H801.034V554.855H754.357V508.333Z" fill="#CAC8DC" fill-opacity="0.04"/>
<path d="M847.821 508.333H894.497V554.855H847.821V508.333Z" fill="#CAC8DC" fill-opacity="0.04"/>
<path d="M941.285 508.333H987.961V554.855H941.285V508.333Z" fill="#CAC8DC" fill-opacity="0.04"/>
<path d="M1034.64 508.333H1081.31V554.855H1034.64V508.333Z" fill="#CAC8DC" fill-opacity="0.04"/>
<path d="M1128.1 508.333H1174.78V554.855H1128.1V508.333Z" fill="#CAC8DC" fill-opacity="0.04"/>
<path d="M847.822 368.541H801.146V415.063H847.822V461.586H894.498V415.063H847.822V368.541Z" fill="#CAC8DC" fill-opacity="0.04"/>
<path d="M894.498 368.541H941.174V415.063H894.498V368.541Z" fill="#CAC8DC" fill-opacity="0.04"/>
<path d="M987.961 368.541V415.063H941.285V461.586H987.961V415.063H1034.64V368.541H987.961Z" fill="#CAC8DC" fill-opacity="0.04"/>
<path d="M1081.42 368.541H1128.1V415.063H1081.42V368.541Z" fill="#CAC8DC" fill-opacity="0.04"/>
<path d="M1174.78 415.063H1128.1V461.586H1174.78V415.063H1221.45V368.541H1174.78V415.063Z" fill="#CAC8DC" fill-opacity="0.04"/>
<path d="M754.357 415.063H801.034V461.586H754.357V415.063Z" fill="#CAC8DC" fill-opacity="0.04"/>
<path d="M1034.64 415.063H1081.31V461.586H1034.64V415.063Z" fill="#CAC8DC" fill-opacity="0.04"/>
<path d="M894.498 275.271H941.174V321.794H894.498V275.271Z" fill="#CAC8DC" fill-opacity="0.04"/>
<path d="M987.961 275.271H1034.64V321.794H987.961V275.271Z" fill="#CAC8DC" fill-opacity="0.04"/>
<path d="M1081.42 275.271H1128.1V321.794H1081.42V275.271Z" fill="#CAC8DC" fill-opacity="0.04"/>
<path d="M1174.78 275.271H1221.45V321.794H1174.78V275.271Z" fill="#CAC8DC" fill-opacity="0.04"/>
<path d="M1268.24 275.271H1314.92V321.794H1268.24V275.271Z" fill="#CAC8DC" fill-opacity="0.04"/>
<path d="M847.821 321.906H894.497V368.429H847.821V321.906Z" fill="#CAC8DC" fill-opacity="0.04"/>
<path d="M941.285 321.906H987.961V368.429H941.285V321.906Z" fill="#CAC8DC" fill-opacity="0.04"/>
<path d="M1034.64 321.906H1081.31V368.429H1034.64V321.906Z" fill="#CAC8DC" fill-opacity="0.04"/>
<path d="M1128.1 321.906H1174.78V368.429H1128.1V321.906Z" fill="#CAC8DC" fill-opacity="0.04"/>
<path d="M1221.56 321.906H1268.24V368.429H1221.56V321.906Z" fill="#CAC8DC" fill-opacity="0.04"/>
<path d="M987.961 182.114V228.637H941.285V275.16H987.961V228.637H1034.64V182.114H987.961Z" fill="#CAC8DC" fill-opacity="0.04"/>
<path d="M1081.42 182.114H1128.1V228.637H1081.42V182.114Z" fill="#CAC8DC" fill-opacity="0.04"/>
<path d="M1174.78 228.637H1128.1V275.16H1174.78V228.637H1221.45V182.114H1174.78V228.637Z" fill="#CAC8DC" fill-opacity="0.04"/>
<path d="M1314.92 182.114H1268.24V228.637H1314.92V275.16H1361.59V228.637H1314.92V182.114Z" fill="#CAC8DC" fill-opacity="0.04"/>
<path d="M1361.71 182.114H1408.38V228.637H1361.71V182.114Z" fill="#CAC8DC" fill-opacity="0.04"/>
<path d="M1034.64 228.637H1081.31V275.16H1034.64V228.637Z" fill="#CAC8DC" fill-opacity="0.04"/>
<path d="M1221.56 228.637H1268.24V275.16H1221.56V228.637Z" fill="#CAC8DC" fill-opacity="0.04"/>
<path d="M987.961 88.8452H1034.64V135.368H987.961V88.8452Z" fill="#CAC8DC" fill-opacity="0.04"/>
<path d="M1081.42 88.8452H1128.1V135.368H1081.42V88.8452Z" fill="#CAC8DC" fill-opacity="0.04"/>
<path d="M1174.78 88.8452H1221.45V135.368H1174.78V88.8452Z" fill="#CAC8DC" fill-opacity="0.04"/>
<path d="M1268.24 88.8452H1314.92V135.368H1268.24V88.8452Z" fill="#CAC8DC" fill-opacity="0.04"/>
<path d="M1361.71 88.8452H1408.38V135.368H1361.71V88.8452Z" fill="#CAC8DC" fill-opacity="0.04"/>
<path d="M1034.64 135.48H1081.31V182.003H1034.64V135.48Z" fill="#CAC8DC" fill-opacity="0.04"/>
<path d="M1128.1 135.48H1174.78V182.003H1128.1V135.48Z" fill="#CAC8DC" fill-opacity="0.04"/>
<path d="M1221.56 135.48H1268.24V182.003H1221.56V135.48Z" fill="#CAC8DC" fill-opacity="0.04"/>
<path d="M1314.92 135.48H1361.59V182.003H1314.92V135.48Z" fill="#CAC8DC" fill-opacity="0.04"/>
<path d="M1408.38 135.48H1455.06V182.003H1408.38V135.48Z" fill="#CAC8DC" fill-opacity="0.04"/>
<path d="M1455.06 88.8452V135.368H1488.92C1492.04 121.311 1494.38 105.915 1495.83 88.8452H1455.06Z" fill="#CAC8DC" fill-opacity="0.04"/>
<path d="M1473.88 182.114H1455.06V215.696C1461.96 205.655 1468.31 194.61 1473.88 182.114Z" fill="#CAC8DC" fill-opacity="0.04"/>
<path d="M1445.37 228.637H1408.38V265.677C1421.53 254.409 1434 242.471 1445.37 228.637Z" fill="#CAC8DC" fill-opacity="0.04"/>
<path d="M1361.71 275.271V303.609C1373.4 293.791 1385.32 284.643 1396.8 275.271H1361.71Z" fill="#CAC8DC" fill-opacity="0.04"/>
<path d="M1340.98 321.906H1314.92V349.686C1323.27 339.534 1332.07 330.385 1340.98 321.906Z" fill="#CAC8DC" fill-opacity="0.04"/>
<path d="M1268.24 368.541V415.063H1275.82C1283.28 397.325 1291.75 382.04 1300.88 368.541H1268.24Z" fill="#CAC8DC" fill-opacity="0.04"/>
<path d="M1221.56 461.586H1260.22C1262.67 452.215 1265.34 443.29 1268.24 434.922V415.063H1221.56V461.586Z" fill="#CAC8DC" fill-opacity="0.04"/>
<path d="M1221.56 508.333V554.855H1226.13C1233.37 541.356 1240.17 525.96 1246.41 508.333H1221.56Z" fill="#CAC8DC" fill-opacity="0.04"/>
<path d="M1174.78 601.49H1128.1V640.091C1144.48 635.071 1160.07 627.708 1174.78 616.774V601.49H1192.49C1202.85 591.114 1212.54 578.396 1221.45 563.111V554.967H1174.78V601.49Z" fill="#CAC8DC" fill-opacity="0.04"/>
<path d="M987.961 650.691C1003.67 650.467 1019.26 650.691 1034.64 650.579V648.125H987.961V650.691Z" fill="#CAC8DC" fill-opacity="0.04"/>
<path d="M894.498 661.959C909.871 657.496 925.467 654.818 941.174 653.145V648.125H894.498V661.959Z" fill="#CAC8DC" fill-opacity="0.04"/>
<path d="M847.822 648.125H801.146V694.647H828.772C830.221 693.643 831.557 692.528 833.006 691.524C837.907 688.065 842.809 684.83 847.822 681.929V648.125Z" fill="#CAC8DC" fill-opacity="0.04"/>
<path d="M801.034 694.759H754.357V741.282H781.205C786.886 733.584 793.458 725.886 801.034 718.299V694.759Z" fill="#CAC8DC" fill-opacity="0.04"/>
<path d="M754.357 787.916V798.849C755.249 795.168 756.251 791.486 757.477 787.916H754.357Z" fill="#CAC8DC" fill-opacity="0.04"/>
<path d="M749.011 834.662H707.682V881.185H748.899C748.231 865.454 747.897 849.947 749.011 834.662Z" fill="#CAC8DC" fill-opacity="0.04"/>
<path d="M707.682 974.342H751.796C752.464 958.611 752.13 943.104 751.461 927.819H707.682V974.342Z" fill="#CAC8DC" fill-opacity="0.04"/>
<path d="M707.682 1067.5H731.075C738.094 1051.88 742.884 1036.37 746.114 1021.09H707.682V1067.5Z" fill="#CAC8DC" fill-opacity="0.04"/>
<path d="M1408.38 45H1455.06V88.7338H1408.38V45Z" fill="#CAC8DC" fill-opacity="0.04"/>
<path d="M1314.92 45H1361.59V88.7338H1314.92V45Z" fill="#CAC8DC" fill-opacity="0.04"/>
<path d="M1221.56 45H1268.24V88.7338H1221.56V45Z" fill="#CAC8DC" fill-opacity="0.04"/>
<path d="M1128.1 45H1174.78V88.7338H1128.1V45Z" fill="#CAC8DC" fill-opacity="0.04"/>
<path d="M1034.64 45H1081.31V88.7338H1034.64V45Z" fill="#CAC8DC" fill-opacity="0.04"/>
<path d="M987.961 88.7338V45H973.925C973.925 60.7308 973.368 75.2343 972.254 88.7338H987.961Z" fill="#CAC8DC" fill-opacity="0.04"/>
<path d="M950.309 182.003H987.961V135.48H965.347C961.448 152.996 956.324 168.392 950.309 182.003Z" fill="#CAC8DC" fill-opacity="0.04"/>
<path d="M921.79 228.637H941.173V200.299C935.269 210.675 928.697 220.046 921.79 228.637Z" fill="#CAC8DC" fill-opacity="0.04"/>
<path d="M894.498 275.16V257.086C887.591 263.334 880.573 269.247 873.443 275.16H894.498Z" fill="#CAC8DC" fill-opacity="0.04"/>
<path d="M847.821 321.794V295.688C837.684 303.944 827.435 312.423 817.521 321.794H847.821Z" fill="#CAC8DC" fill-opacity="0.04"/>
<path d="M801.034 368.429V338.529C792.79 347.566 784.881 357.384 777.306 368.429H801.034Z" fill="#CAC8DC" fill-opacity="0.04"/>
<path d="M752.241 415.064H754.358V410.155C753.689 411.717 752.91 413.39 752.241 415.064Z" fill="#CAC8DC" fill-opacity="0.04"/>
<path d="M722.832 508.221H754.358V461.698H736.645C736.423 462.479 736.311 463.149 736.089 463.93C731.967 479.995 727.622 494.722 722.832 508.221Z" fill="#CAC8DC" fill-opacity="0.04"/>
<path d="M702.558 554.855H707.682V544.814C706.011 548.273 704.34 551.62 702.558 554.855Z" fill="#CAC8DC" fill-opacity="0.04"/>
<path d="M661.006 608.965V648.013H707.682V601.49H668.915C666.242 604.056 663.679 606.622 661.006 608.965Z" fill="#CAC8DC" fill-opacity="0.04"/>
<path d="M614.218 636.856C599.291 642.435 583.695 645.782 567.542 647.79V648.125H614.218V636.856Z" fill="#CAC8DC" fill-opacity="0.04"/>
<path d="M567.541 648.125H564.088C550.052 649.686 535.57 650.244 520.865 650.467V694.647H567.541V648.125Z" fill="#CAC8DC" fill-opacity="0.04"/>
<path d="M474.078 650.579C458.593 650.69 442.997 651.025 427.401 652.252V694.647H474.078V650.579Z" fill="#CAC8DC" fill-opacity="0.04"/>
<path d="M380.726 659.393C364.907 663.186 349.311 668.652 334.05 676.574V694.759H380.726V659.393Z" fill="#CAC8DC" fill-opacity="0.04"/>
<path d="M333.938 694.759H304.974C298.624 699.556 292.72 704.353 287.262 709.151V741.282H333.938V694.759Z" fill="#CAC8DC" fill-opacity="0.04"/>
<path d="M257.519 741.394C250.612 750.988 245.042 760.583 240.586 770.401V787.916H287.262V834.439H333.938V787.916H287.262V741.394H257.519Z" fill="#CAC8DC" fill-opacity="0.04"/>
<path d="M240.586 834.439V787.916H233.902C229.112 803.201 226.55 818.708 225.436 834.439H240.586Z" fill="#CAC8DC" fill-opacity="0.04"/>
<path d="M240.586 881.186H225.324C225.993 896.47 227.107 911.978 227.775 927.708H240.586V881.186Z" fill="#CAC8DC" fill-opacity="0.04"/>
<path d="M240.586 1020.98V974.454H228.22C227.552 989.739 225.881 1005.25 222.539 1020.98H240.586Z" fill="#CAC8DC" fill-opacity="0.04"/>
</g>
<g clip-path="url(#clip7_692_4385)">
<path d="M1683.25 1194.02C1687.79 1191.41 1689.86 1186.76 1687.96 1183.46C1686.06 1180.16 1681.01 1179.62 1676.47 1182.24C1600.63 1225.91 1524.55 1250.42 1443.6 1257.49C1371.07 1263.81 1301.56 1255.51 1234.42 1247.58C1168.72 1239.92 1100.89 1231.92 1030.73 1237.49C951.546 1243.86 877.801 1267.19 805.2 1308.99C800.663 1311.6 798.59 1316.25 800.489 1319.55C802.389 1322.85 807.446 1323.38 811.984 1320.77C966.583 1231.76 1093.38 1246.6 1227.5 1262.55C1364.93 1278.63 1507.26 1295.35 1683.25 1194.02Z" fill="#4053FA" fill-opacity="0.04"/>
</g>
<g clip-path="url(#clip8_692_4385)">
<path d="M2083.19 1452.5C2098.75 1452.5 2111.37 1439.63 2111.37 1423.75C2111.37 1407.87 2098.75 1395 2083.19 1395C2067.62 1395 2055 1407.87 2055 1423.75C2055 1439.63 2067.62 1452.5 2083.19 1452.5Z" fill="#383A48" fill-opacity="0.04"/>
<path d="M2257.5 1452.5C2273.07 1452.5 2285.69 1439.63 2285.69 1423.75C2285.69 1407.87 2273.07 1395 2257.5 1395C2241.93 1395 2229.31 1407.87 2229.31 1423.75C2229.31 1439.63 2241.93 1452.5 2257.5 1452.5Z" fill="#383A48" fill-opacity="0.04"/>
<path d="M2431.81 1452.5C2447.38 1452.5 2460 1439.63 2460 1423.75C2460 1407.87 2447.38 1395 2431.81 1395C2416.25 1395 2403.63 1407.87 2403.63 1423.75C2403.63 1439.63 2416.25 1452.5 2431.81 1452.5Z" fill="#383A48" fill-opacity="0.04"/>
</g>
<g clip-path="url(#clip9_692_4385)">
<path d="M658.015 90H681.747V310H658.015V90Z" fill="#AAC6FC" fill-opacity="0.04"/>
<path d="M560 188.121H780V211.879H560V188.121Z" fill="#AAC6FC" fill-opacity="0.04"/>
<path d="M583.911 130.57L600.692 113.771L756.087 269.333L739.305 286.132L583.911 130.57Z" fill="#AAC6FC" fill-opacity="0.04"/>
<path d="M583.921 269.679L739.315 114.095L756.099 130.894L600.705 286.478L583.921 269.679Z" fill="#AAC6FC" fill-opacity="0.04"/>
</g>
<g clip-path="url(#clip10_692_4385)">
<path d="M157.931 165.836C162.311 165.836 165.862 162.291 165.862 157.918C165.862 153.545 162.311 150 157.931 150C153.551 150 150 153.545 150 157.918C150 162.291 153.551 165.836 157.931 165.836Z" fill="white" fill-opacity="0.04"/>
<path d="M229.31 165.836C233.69 165.836 237.241 162.291 237.241 157.918C237.241 153.545 233.69 150 229.31 150C224.93 150 221.379 153.545 221.379 157.918C221.379 162.291 224.93 165.836 229.31 165.836Z" fill="white" fill-opacity="0.04"/>
<path d="M300.69 165.836C305.07 165.836 308.621 162.291 308.621 157.918C308.621 153.545 305.07 150 300.69 150C296.31 150 292.759 153.545 292.759 157.918C292.759 162.291 296.31 165.836 300.69 165.836Z" fill="white" fill-opacity="0.04"/>
<path d="M372.069 165.836C376.449 165.836 380 162.291 380 157.918C380 153.545 376.449 150 372.069 150C367.689 150 364.138 153.545 364.138 157.918C364.138 162.291 367.689 165.836 372.069 165.836Z" fill="white" fill-opacity="0.04"/>
<path d="M157.931 234.724C162.311 234.724 165.862 231.179 165.862 226.806C165.862 222.433 162.311 218.888 157.931 218.888C153.551 218.888 150 222.433 150 226.806C150 231.179 153.551 234.724 157.931 234.724Z" fill="white" fill-opacity="0.04"/>
<path d="M229.31 234.724C233.69 234.724 237.241 231.179 237.241 226.806C237.241 222.433 233.69 218.888 229.31 218.888C224.93 218.888 221.379 222.433 221.379 226.806C221.379 231.179 224.93 234.724 229.31 234.724Z" fill="white" fill-opacity="0.04"/>
<path d="M300.69 234.724C305.07 234.724 308.621 231.179 308.621 226.806C308.621 222.433 305.07 218.888 300.69 218.888C296.31 218.888 292.759 222.433 292.759 226.806C292.759 231.179 296.31 234.724 300.69 234.724Z" fill="white" fill-opacity="0.04"/>
<path d="M372.069 234.724C376.449 234.724 380 231.179 380 226.806C380 222.433 376.449 218.888 372.069 218.888C367.689 218.888 364.138 222.433 364.138 226.806C364.138 231.179 367.689 234.724 372.069 234.724Z" fill="white" fill-opacity="0.04"/>
<path d="M157.931 303.612C162.311 303.612 165.862 300.067 165.862 295.694C165.862 291.321 162.311 287.776 157.931 287.776C153.551 287.776 150 291.321 150 295.694C150 300.067 153.551 303.612 157.931 303.612Z" fill="white" fill-opacity="0.04"/>
<path d="M229.31 303.612C233.69 303.612 237.241 300.067 237.241 295.694C237.241 291.321 233.69 287.776 229.31 287.776C224.93 287.776 221.379 291.321 221.379 295.694C221.379 300.067 224.93 303.612 229.31 303.612Z" fill="white" fill-opacity="0.04"/>
<path d="M300.69 303.612C305.07 303.612 308.621 300.067 308.621 295.694C308.621 291.321 305.07 287.776 300.69 287.776C296.31 287.776 292.759 291.321 292.759 295.694C292.759 300.067 296.31 303.612 300.69 303.612Z" fill="white" fill-opacity="0.04"/>
<path d="M372.069 303.612C376.449 303.612 380 300.067 380 295.694C380 291.321 376.449 287.776 372.069 287.776C367.689 287.776 364.138 291.321 364.138 295.694C364.138 300.067 367.689 303.612 372.069 303.612Z" fill="white" fill-opacity="0.04"/>
<path d="M157.931 372.5C162.311 372.5 165.862 368.955 165.862 364.582C165.862 360.209 162.311 356.664 157.931 356.664C153.551 356.664 150 360.209 150 364.582C150 368.955 153.551 372.5 157.931 372.5Z" fill="white" fill-opacity="0.04"/>
<path d="M229.31 372.5C233.69 372.5 237.241 368.955 237.241 364.582C237.241 360.209 233.69 356.664 229.31 356.664C224.93 356.664 221.379 360.209 221.379 364.582C221.379 368.955 224.93 372.5 229.31 372.5Z" fill="white" fill-opacity="0.04"/>
<path d="M300.69 372.5C305.07 372.5 308.621 368.955 308.621 364.582C308.621 360.209 305.07 356.664 300.69 356.664C296.31 356.664 292.759 360.209 292.759 364.582C292.759 368.955 296.31 372.5 300.69 372.5Z" fill="white" fill-opacity="0.04"/>
<path d="M372.069 372.5C376.449 372.5 380 368.955 380 364.582C380 360.209 376.449 356.664 372.069 356.664C367.689 356.664 364.138 360.209 364.138 364.582C364.138 368.955 367.689 372.5 372.069 372.5Z" fill="white" fill-opacity="0.04"/>
</g>
<defs>
<clipPath id="clip0_692_4385">
<rect width="1365" height="1095" fill="white" transform="translate(80 472.5)"/>
</clipPath>
<clipPath id="clip1_692_4385">
<rect width="300" height="300" fill="white" transform="translate(80 75)"/>
</clipPath>
<clipPath id="clip2_692_4385">
<rect width="515" height="1502.5" fill="white" transform="matrix(0 1 -1 0 2596.25 1048.75)"/>
</clipPath>
<clipPath id="clip3_692_4385">
<rect width="1200" height="407.5" fill="white" transform="translate(1415 242.5)"/>
</clipPath>
<clipPath id="clip4_692_4385">
<rect width="410" height="410" fill="white" transform="translate(213.621 1070.08) rotate(9.97793)"/>
</clipPath>
<clipPath id="clip5_692_4385">
<rect width="452.5" height="452.5" fill="white" transform="translate(2082.5 10)"/>
</clipPath>
<clipPath id="clip6_692_4385">
<rect width="1290" height="1022.5" fill="white" transform="translate(207.5 45)"/>
</clipPath>
<clipPath id="clip7_692_4385">
<rect width="837.001" height="338.495" fill="white" transform="matrix(-0.866613 0.498981 0.498981 0.866613 1522.45 896.009)"/>
</clipPath>
<clipPath id="clip8_692_4385">
<rect width="405" height="57.5" fill="white" transform="translate(2055 1395)"/>
</clipPath>
<clipPath id="clip9_692_4385">
<rect width="220" height="220" fill="white" transform="translate(560 90)"/>
</clipPath>
<clipPath id="clip10_692_4385">
<rect width="230" height="222.5" fill="white" transform="translate(150 150)"/>
</clipPath>
</defs>
</svg>
