<svg width="81" height="81" viewBox="0 0 81 81" fill="none" xmlns="http://www.w3.org/2000/svg">
<g clip-path="url(#clip0_681_338)">
<path d="M79.0401 27.7731L53.4801 14.9198V40.6264L79.0401 27.7764V27.7731ZM27.5501 53.4864V27.7731L1.62008 14.9198V40.6298L27.5501 53.4864ZM0.940085 13.8231C1.12671 13.7056 1.34065 13.6387 1.56093 13.6287C1.78122 13.6188 2.00031 13.6662 2.19675 13.7664L27.5501 26.3364L52.9068 13.7664C53.0857 13.6767 53.2832 13.63 53.4834 13.63C53.6836 13.63 53.8811 13.6767 54.0601 13.7664L79.6201 26.6231C79.8335 26.7301 80.0129 26.8943 80.1382 27.0974C80.2636 27.3004 80.33 27.5344 80.3301 27.7731V53.4731C80.3299 53.7122 80.2635 53.9465 80.1381 54.1501C80.0128 54.3537 79.8335 54.5186 79.6201 54.6264L54.0601 67.4931C53.8633 67.5908 53.6448 67.6369 53.4253 67.6271C53.2057 67.6172 52.9923 67.5518 52.805 67.4368C52.6177 67.3218 52.4627 67.1611 52.3546 66.9698C52.2464 66.7785 52.1887 66.5628 52.1868 66.3431V42.7098L28.1234 54.6431C27.9449 54.7303 27.7488 54.7756 27.5501 54.7756C27.3514 54.7756 27.1553 54.7303 26.9768 54.6431L1.04675 41.7831C0.83188 41.6765 0.650987 41.5121 0.52439 41.3083C0.397792 41.1046 0.330505 40.8696 0.330085 40.6298V14.9198C0.329373 14.7 0.38509 14.4838 0.491898 14.2918C0.598707 14.0998 0.753029 13.9384 0.940085 13.8231Z" fill="#4469F3"/>
</g>
<defs>
<clipPath id="clip0_681_338">
<rect width="80" height="80" fill="white" transform="translate(0.330078 0.629883)"/>
</clipPath>
</defs>
</svg>
