<svg width="81" height="81" viewBox="0 0 81 81" fill="none" xmlns="http://www.w3.org/2000/svg">
<g clip-path="url(#clip0_681_367)">
<path d="M49.6989 6.82248C52.1756 7.48618 53.7175 9.89756 53.353 12.3743L53.2346 12.9462L37.7053 70.9016C36.9906 73.5691 34.2489 75.1521 31.5815 74.4371C29.1048 73.7736 27.563 71.3624 27.9276 68.8856L28.046 68.3136L43.5752 10.358C44.2899 7.69073 47.0316 6.10778 49.6989 6.82248ZM24.1757 22.0945C26.1283 24.0471 26.1283 27.2129 24.1757 29.1656L12.7112 40.63L24.1757 52.0946C26.1283 54.0471 26.1283 57.2131 24.1757 59.1656C22.223 61.1181 19.0572 61.1181 17.1046 59.1656L2.1046 44.1656C0.151982 42.2129 0.151982 39.0471 2.1046 37.0945L17.1046 22.0945C19.0572 20.1419 22.223 20.1419 24.1757 22.0945ZM57.1046 22.0945C58.9069 20.2921 61.7432 20.1534 63.7046 21.6785L64.1756 22.0945L79.1756 37.0945C80.9779 38.8969 81.1166 41.7331 79.5916 43.6945L79.1756 44.1656L64.1756 59.1656C62.2231 61.1181 59.0571 61.1181 57.1046 59.1656C55.3023 57.3633 55.1637 54.527 56.6887 52.5656L57.1046 52.0946L68.5691 40.63L57.1046 29.1656C55.1521 27.2129 55.1521 24.0471 57.1046 22.0945Z" fill="#4469F3"/>
</g>
<defs>
<clipPath id="clip0_681_367">
<rect width="80" height="80" fill="white" transform="translate(0.640137 0.629883)"/>
</clipPath>
</defs>
</svg>
