<svg width="81" height="81" viewBox="0 0 81 81" fill="none" xmlns="http://www.w3.org/2000/svg">
<g clip-path="url(#clip0_681_346)">
<path d="M64.3133 63.9631C66.1543 63.9631 67.6466 62.4707 67.6466 60.6297C67.6466 58.7888 66.1543 57.2964 64.3133 57.2964C62.4724 57.2964 60.98 58.7888 60.98 60.6297C60.98 62.4707 62.4724 63.9631 64.3133 63.9631Z" fill="#4469F3"/>
<path d="M54.3133 63.9631C56.1543 63.9631 57.6466 62.4707 57.6466 60.6297C57.6466 58.7888 56.1543 57.2964 54.3133 57.2964C52.4724 57.2964 50.98 58.7888 50.98 60.6297C50.98 62.4707 52.4724 63.9631 54.3133 63.9631Z" fill="#4469F3"/>
<path d="M64.3133 43.9631C66.1543 43.9631 67.6466 42.4707 67.6466 40.6297C67.6466 38.7888 66.1543 37.2964 64.3133 37.2964C62.4724 37.2964 60.98 38.7888 60.98 40.6297C60.98 42.4707 62.4724 43.9631 64.3133 43.9631Z" fill="#4469F3"/>
<path d="M54.3133 43.9631C56.1543 43.9631 57.6466 42.4707 57.6466 40.6297C57.6466 38.7888 56.1543 37.2964 54.3133 37.2964C52.4724 37.2964 50.98 38.7888 50.98 40.6297C50.98 42.4707 52.4724 43.9631 54.3133 43.9631Z" fill="#4469F3"/>
<path d="M74.3135 7.29639H7.64681C6.76275 7.29639 5.91491 7.64758 5.28979 8.2727C4.66467 8.89782 4.31348 9.74567 4.31348 10.6297V30.6297C4.31348 31.5138 4.66467 32.3616 5.28979 32.9867C5.91491 33.6119 6.76275 33.9631 7.64681 33.9631H70.9801V47.2964H47.6468C46.7628 47.2964 45.9149 47.6476 45.2898 48.2727C44.6647 48.8978 44.3135 49.7457 44.3135 50.6297C44.3135 51.5138 44.6647 52.3616 45.2898 52.9867C45.9149 53.6119 46.7628 53.9631 47.6468 53.9631H70.9801V67.2964H47.6468C46.7628 67.2964 45.9149 67.6476 45.2898 68.2727C44.6647 68.8978 44.3135 69.7457 44.3135 70.6297C44.3135 71.5138 44.6647 72.3616 45.2898 72.9867C45.9149 73.6119 46.7628 73.9631 47.6468 73.9631H74.3135C75.1975 73.9631 76.0454 73.6119 76.6705 72.9867C77.2956 72.3616 77.6468 71.5138 77.6468 70.6297V10.6297C77.6468 9.74567 77.2956 8.89782 76.6705 8.2727C76.0454 7.64758 75.1975 7.29639 74.3135 7.29639ZM70.9801 27.2964H10.9801V13.9631H70.9801V27.2964Z" fill="#4469F3"/>
<path d="M64.3133 23.9631C66.1543 23.9631 67.6466 22.4707 67.6466 20.6297C67.6466 18.7888 66.1543 17.2964 64.3133 17.2964C62.4724 17.2964 60.98 18.7888 60.98 20.6297C60.98 22.4707 62.4724 23.9631 64.3133 23.9631Z" fill="#4469F3"/>
<path d="M54.3133 23.9631C56.1543 23.9631 57.6466 22.4707 57.6466 20.6297C57.6466 18.7888 56.1543 17.2964 54.3133 17.2964C52.4724 17.2964 50.98 18.7888 50.98 20.6297C50.98 22.4707 52.4724 23.9631 54.3133 23.9631Z" fill="#4469F3"/>
<path d="M34.3136 48.9629H32.647C32.647 46.3107 31.5934 43.7672 29.718 41.8918C27.8427 40.0165 25.2991 38.9629 22.647 38.9629C19.9948 38.9629 17.4513 40.0165 15.5759 41.8918C13.7005 43.7672 12.647 46.3107 12.647 48.9629H10.9803C10.0963 48.9629 9.2484 49.3141 8.62328 49.9392C7.99816 50.5643 7.64697 51.4122 7.64697 52.2962V72.2962C7.64697 73.1803 7.99816 74.0281 8.62328 74.6532C9.2484 75.2784 10.0963 75.6296 10.9803 75.6296H34.3136C35.1977 75.6296 36.0455 75.2784 36.6707 74.6532C37.2958 74.0281 37.647 73.1803 37.647 72.2962V52.2962C37.647 51.4122 37.2958 50.5643 36.6707 49.9392C36.0455 49.3141 35.1977 48.9629 34.3136 48.9629ZM22.647 45.6296C23.531 45.6296 24.3789 45.9807 25.004 46.6059C25.6291 47.231 25.9803 48.0788 25.9803 48.9629H19.3136C19.3136 48.0788 19.6648 47.231 20.29 46.6059C20.9151 45.9807 21.7629 45.6296 22.647 45.6296ZM30.9803 68.9629H14.3136V55.6296H30.9803V68.9629Z" fill="#4469F3"/>
<path d="M24.3133 58.9629H20.98V65.6296H24.3133V58.9629Z" fill="#4469F3"/>
</g>
<defs>
<clipPath id="clip0_681_346">
<rect width="80" height="80" fill="white" transform="translate(0.97998 0.629883)"/>
</clipPath>
</defs>
</svg>
