<svg width="704" height="664" viewBox="0 0 704 664" fill="none" xmlns="http://www.w3.org/2000/svg">
<path d="M146.228 229.409C219.642 79.1043 325.413 104.656 369.122 136.221C461.142 184.784 698.217 540.518 515.367 484.844C332.518 429.17 322.923 565.169 270.21 549.255C217.498 533.341 54.4599 417.29 146.228 229.409Z" fill="#73CCFF"/>
<path d="M118.656 215.604C201.921 45.1328 321.883 74.1132 371.456 109.912C475.822 164.992 744.706 568.454 537.323 505.31C329.94 442.166 319.058 596.412 259.273 578.363C199.488 560.314 14.5758 428.693 118.656 215.604Z" stroke="black"/>
<path d="M82.8097 197.189C178.884 0.49252 317.301 33.9314 374.501 75.238C494.923 138.791 805.173 604.324 565.886 531.465C326.598 458.607 314.042 636.583 245.06 615.757C176.077 594.931 -37.2829 443.061 82.8097 197.189Z" stroke="black"/>
<path d="M45.7175 178.617C155.043 -45.2102 312.552 -7.15907 377.641 39.8449C514.673 112.163 867.716 641.907 595.424 558.999C323.132 476.091 308.843 678.615 230.346 654.917C151.849 631.219 -90.9395 458.401 45.7175 178.617Z" stroke="black"/>
<path d="M82.8097 197.189C178.884 0.49252 317.301 33.9314 374.501 75.238C494.923 138.791 805.173 604.324 565.886 531.465C326.598 458.607 314.042 636.583 245.06 615.757C176.077 594.931 -37.2829 443.061 82.8097 197.189Z" stroke="black"/>
<path d="M396.325 514.081C395.864 513.927 395.711 513.467 395.711 513.006C395.865 512.238 410.917 440.049 433.956 365.095C447.472 321.013 461.142 284.765 474.505 257.118C491.246 222.406 507.835 201.364 523.501 194.452C540.243 187.08 550.687 186.158 555.602 191.841C564.971 202.9 546.694 236.23 539.014 249.132C544.083 245.292 549.919 242.373 554.066 244.524C560.978 248.056 558.981 263.569 558.06 270.174C555.756 287.069 534.099 325.314 493.55 383.68C468.054 420.389 435.799 464.163 397.554 513.774C397.4 514.081 396.94 514.235 396.632 514.081C396.479 514.235 396.479 514.081 396.325 514.081ZM535.789 254.354C535.481 254.661 534.867 254.661 534.56 254.354C534.253 254.047 534.099 253.432 534.406 253.125C534.713 252.664 564.818 205.511 554.22 193.07C550.073 188.308 540.089 189.383 524.423 196.142C509.217 202.9 493.09 223.635 476.348 257.886C462.985 285.38 449.315 321.628 435.799 365.556C415.985 430.065 402.008 492.578 398.476 509.013C456.688 433.751 551.302 305.808 556.217 269.867C556.985 264.184 558.981 249.132 553.298 246.213C552.838 246.06 552.53 245.906 552.07 245.752C548.383 245.138 542.547 248.21 535.789 254.354Z" fill="#D1E2DC"/>
<path d="M427.044 508.245C438.871 411.48 467.746 334.223 489.864 286.455C513.825 234.694 535.328 205.357 535.635 205.05L533.638 203.514C533.485 203.821 511.828 233.158 487.714 285.226C465.442 333.147 436.413 410.712 424.74 507.784L427.044 508.245Z" fill="#D1E2DC"/>
<path d="M409.688 585.963C431.191 600.248 502.766 517.46 506.299 513.467C518.74 498.876 529.184 483.055 525.652 466.621C524.269 459.863 520.737 454.64 518.125 451.415C522.273 449.111 543.622 437.131 551.763 410.559C559.289 385.83 550.227 365.402 548.076 360.641C555.91 353.268 604.752 306.269 592.004 282.154C586.628 272.171 572.651 270.174 571.115 269.867C501.537 261.112 372.672 561.388 409.688 585.963Z" fill="#F1416C"/>
<path d="M420.286 551.558C450.39 458.787 493.397 388.595 524.269 345.896C557.753 299.664 584.478 275.089 584.631 274.782L582.942 272.938C582.635 273.246 555.756 297.974 522.272 344.36C491.246 387.212 447.933 457.712 417.828 550.79L420.286 551.558Z" fill="white"/>
<path d="M415.525 588.728C413.067 588.728 410.917 588.114 409.074 586.885C408.613 586.578 408.459 585.81 408.767 585.349C409.074 584.888 409.842 584.735 410.302 585.042C427.044 596.101 479.88 542.65 505.377 512.699C516.743 499.336 527.955 483.516 524.423 466.774C523.348 461.552 520.89 456.637 517.05 452.029C516.897 451.722 516.743 451.415 516.743 451.108C516.743 450.801 517.05 450.493 517.357 450.34C523.194 447.268 542.854 434.981 550.534 410.098C552.07 404.876 552.991 399.5 553.298 394.124C553.298 393.51 553.913 393.049 554.527 393.049C555.141 393.049 555.602 393.664 555.602 394.278C555.295 399.807 554.374 405.337 552.684 410.713C545.312 434.98 526.88 447.575 519.661 451.569C523.194 456.176 525.498 461.092 526.573 466.16C530.259 483.823 518.74 500.258 507.067 513.928C504.456 517.614 443.018 588.728 415.525 588.728Z" fill="#060E12"/>
<path d="M260.702 577.975H116.17C110.026 577.975 105.111 573.06 105.111 566.917V462.012C105.111 455.868 110.026 450.953 116.17 450.953H260.702C266.846 450.953 271.761 455.868 271.761 462.012V566.917C271.761 572.907 266.846 577.975 260.702 577.975Z" fill="white"/>
<path d="M260.702 579.051H116.17C109.412 579.051 103.882 573.521 103.882 566.763V461.858C103.882 455.1 109.412 449.571 116.17 449.571H260.702C267.46 449.571 272.989 455.1 272.989 461.858V566.763C272.989 573.675 267.46 579.051 260.702 579.051ZM116.016 452.028C110.487 452.028 106.033 456.483 106.033 462.012V566.917C106.033 572.446 110.487 576.9 116.016 576.9H260.548C266.078 576.9 270.532 572.446 270.532 566.917V462.012C270.532 456.483 266.078 452.028 260.548 452.028H116.016Z" fill="black"/>
<path d="M216.774 336.526C212.012 331.304 205.561 329.921 198.957 329.921H93.5914C86.3725 329.921 80.5359 325.006 80.5359 317.019V201.978C80.5359 193.991 86.3725 189.076 93.5914 189.076H258.858C266.077 189.076 271.914 193.991 271.914 201.978V323.163V329.768V359.258C271.914 372.16 257.937 375.385 249.643 366.323L216.774 336.526Z" fill="white"/>
<path d="M260.394 372.774C256.247 372.774 251.947 370.778 248.568 367.245L215.852 337.448C215.852 337.448 215.852 337.448 215.699 337.294C211.859 332.993 206.483 331.15 198.65 331.15H93.2842C84.9902 331.15 79.1536 325.467 79.1536 317.173V202.131C79.1536 193.837 84.9902 188.154 93.2842 188.154H258.551C266.845 188.154 272.682 193.837 272.682 202.131V359.565C272.682 365.555 269.764 370.163 264.849 372.006C263.62 372.467 261.93 372.774 260.394 372.774ZM217.542 335.605L250.257 365.555C254.251 369.856 259.626 371.545 264.234 369.702C268.228 368.166 270.532 364.327 270.532 359.412V201.978C270.532 195.066 265.617 190.305 258.705 190.305H93.4379C86.3726 190.305 81.6111 195.066 81.6111 201.978V317.02C81.6111 323.931 86.5261 328.693 93.4379 328.693H198.803C207.251 328.693 213.241 330.997 217.542 335.605Z" fill="black"/>
<path d="M176.071 224.095C172.231 213.651 163.63 205.664 152.879 202.439C149.653 201.517 146.428 201.056 142.895 201.056C123.389 201.056 107.568 216.876 107.568 236.383C107.568 255.889 123.389 271.709 142.895 271.709C162.401 271.709 178.222 255.889 178.222 236.383C178.375 232.082 177.607 227.935 176.071 224.095ZM143.049 256.504C131.99 256.504 122.928 247.442 122.928 236.383C122.928 225.324 131.99 216.262 143.049 216.262C144.431 216.262 145.967 216.416 147.196 216.723C155.029 218.412 161.173 224.556 162.709 232.389C163.016 233.618 163.169 235 163.169 236.383C163.169 247.442 154.107 256.504 143.049 256.504Z" fill="#5076C7"/>
<path d="M148.731 220.102L157.947 199.828C160.712 200.596 165.627 202.439 170.235 206.739C176.532 212.269 178.836 218.873 179.757 221.792C172.846 225.017 165.934 228.089 159.022 231.314C158.715 229.932 157.947 227.628 155.95 225.324C153.339 221.945 150.114 220.716 148.731 220.102Z" fill="#D1E2DC"/>
<path d="M159.022 232.39C158.869 232.39 158.715 232.39 158.562 232.236C158.254 232.082 158.101 231.775 157.947 231.468C157.486 229.318 156.411 227.475 155.183 225.939C153.032 223.174 150.268 221.945 148.424 221.331C148.117 221.177 147.81 221.024 147.81 220.716C147.656 220.409 147.656 220.102 147.81 219.795L152.725 209.043C153.032 208.429 153.647 208.275 154.261 208.429C154.875 208.736 155.029 209.35 154.875 209.965L150.421 219.641C152.418 220.563 154.875 221.945 157.026 224.556C158.254 226.092 159.176 227.782 159.944 229.778L178.529 221.331C177.761 218.873 176.686 216.569 175.303 214.419C174.996 213.805 175.15 213.19 175.611 212.883C176.225 212.576 176.839 212.73 177.147 213.19C178.682 215.801 180.065 218.566 180.833 221.484C180.986 222.099 180.679 222.56 180.218 222.867L159.483 232.39C159.33 232.39 159.176 232.39 159.022 232.39Z" fill="#060E12"/>
<path d="M172.385 290.756H113.405C111.715 290.756 110.333 289.373 110.333 287.684C110.333 285.994 111.715 284.612 113.405 284.612H172.385C174.074 284.612 175.457 285.994 175.457 287.684C175.457 289.373 174.074 290.756 172.385 290.756Z" fill="#D1E2DC"/>
<path d="M172.385 303.657H113.405C111.715 303.657 110.333 302.275 110.333 300.586C110.333 298.896 111.715 297.514 113.405 297.514H172.385C174.074 297.514 175.457 298.896 175.457 300.586C175.457 302.275 174.074 303.657 172.385 303.657Z" fill="#D1E2DC"/>
<path d="M172.385 316.559H113.405C111.715 316.559 110.333 315.177 110.333 313.487C110.333 311.798 111.715 310.416 113.405 310.416H172.385C174.074 310.416 175.457 311.798 175.457 313.487C175.457 315.177 174.074 316.559 172.385 316.559Z" fill="#D1E2DC"/>
<path d="M241.809 289.066H198.496C197.267 289.066 196.192 287.991 196.192 286.762C196.192 285.534 197.267 284.458 198.496 284.458H241.809C243.038 284.458 244.113 285.534 244.113 286.762C244.113 287.991 243.038 289.066 241.809 289.066Z" fill="#F86E6D"/>
<path d="M241.809 298.589H198.496C197.267 298.589 196.192 297.514 196.192 296.285C196.192 295.057 197.267 293.981 198.496 293.981H241.809C243.038 293.981 244.113 295.057 244.113 296.285C244.113 297.514 243.038 298.589 241.809 298.589Z" fill="#F86E6D"/>
<path d="M241.809 308.112H198.496C197.267 308.112 196.192 307.037 196.192 305.808C196.192 304.579 197.267 303.504 198.496 303.504H241.809C243.038 303.504 244.113 304.579 244.113 305.808C244.113 307.037 243.038 308.112 241.809 308.112Z" fill="#F86E6D"/>
<path d="M243.312 252.014C245.459 238.784 236.475 226.319 223.246 224.172C210.016 222.025 197.551 231.009 195.404 244.238C193.256 257.468 202.241 269.933 215.47 272.081C228.7 274.228 241.165 265.243 243.312 252.014Z" fill="#F86E6D"/>
<path d="M243.312 252.014C245.459 238.784 236.475 226.319 223.246 224.172C210.016 222.025 197.551 231.009 195.404 244.238C193.256 257.468 202.241 269.933 215.47 272.081C228.7 274.228 241.165 265.243 243.312 252.014Z" fill="#F86E6D"/>
<path d="M243.312 252.014C245.459 238.784 236.475 226.319 223.246 224.172C210.016 222.025 197.551 231.009 195.404 244.238C193.256 257.468 202.241 269.933 215.47 272.081C228.7 274.228 241.165 265.243 243.312 252.014Z" fill="#F86E6D"/>
<path d="M221.074 247.135C221.535 247.289 222.149 247.289 222.61 247.442C223.224 247.596 223.839 247.749 224.3 248.057C224.914 248.364 225.375 248.671 225.835 248.978C226.296 249.285 226.603 249.746 226.911 250.361C227.218 250.821 227.371 251.589 227.371 252.204C227.371 253.279 227.064 254.354 226.45 254.968C225.836 255.736 224.914 256.197 223.685 256.504C222.917 256.658 221.996 256.812 221.074 256.965V259.423H217.849V256.965C215.545 256.812 213.394 256.351 211.551 255.583L212.319 252.818C214.009 253.586 215.852 254.2 218.002 254.354V249.9C217.541 249.746 217.081 249.746 216.62 249.593C216.005 249.439 215.391 249.285 214.777 248.978C214.162 248.671 213.702 248.364 213.087 248.057C212.626 247.749 212.166 247.289 212.012 246.674C211.705 246.214 211.551 245.599 211.551 244.831C211.551 243.756 211.859 242.681 212.473 242.067C213.087 241.299 214.009 240.838 215.238 240.531C216.006 240.377 216.774 240.223 217.849 240.07V237.612H221.074V240.07C222.917 240.223 224.76 240.684 226.757 241.452L225.682 244.063C224.3 243.449 222.764 242.988 221.074 242.834V247.135ZM217.695 242.527C217.388 242.527 217.234 242.527 217.081 242.681C216.466 242.834 216.006 242.988 215.698 243.142C215.391 243.295 215.238 243.602 215.084 243.756C214.93 243.91 214.93 244.217 214.93 244.524C214.93 244.831 215.084 245.138 215.238 245.446C215.391 245.599 215.698 245.906 216.159 246.06C216.466 246.214 216.927 246.367 217.388 246.521C217.541 246.521 217.695 246.674 218.002 246.674V242.527H217.695ZM221.074 254.2C221.535 254.2 221.842 254.047 222.149 254.047C222.764 253.893 223.224 253.586 223.532 253.279C223.839 252.972 223.992 252.665 223.992 252.357C223.992 251.897 223.839 251.589 223.532 251.436C223.224 251.129 222.917 250.975 222.456 250.821C221.996 250.668 221.535 250.514 221.074 250.514C221.074 250.514 221.074 250.514 220.921 250.514V254.2H221.074Z" fill="white"/>
<path d="M219.385 273.553C205.408 273.553 194.042 262.187 194.042 248.21C194.042 247.595 194.503 246.981 195.27 246.981C196.038 246.981 196.499 247.442 196.499 248.21C196.499 260.958 206.944 271.249 219.538 271.249C232.287 271.249 242.577 260.804 242.577 248.21C242.577 235.461 232.133 225.171 219.538 225.171C218.002 225.171 216.466 225.324 214.93 225.631C214.316 225.785 213.702 225.324 213.548 224.71C213.395 224.095 213.855 223.481 214.47 223.327C216.159 223.02 217.849 222.867 219.538 222.867C233.515 222.867 244.881 234.233 244.881 248.21C244.881 262.187 233.362 273.553 219.385 273.553Z" fill="#060E12"/>
<mask id="mask0_689_3975" style="mask-type:luminance" maskUnits="userSpaceOnUse" x="69" y="80" width="461" height="511">
<path d="M69.0001 590.086H529.628L529.628 80.0004L69.0001 80.0004L69.0001 590.086Z" fill="white"/>
</mask>
<g mask="url(#mask0_689_3975)">
<path d="M392.025 163.886C403.391 158.664 414.603 153.442 425.969 148.22C417.061 133.475 413.374 126.409 411.531 122.723C411.531 122.57 411.377 122.416 411.224 121.955C410.456 120.573 408.92 117.347 406.923 113.354C406.002 111.511 405.08 109.821 404.005 107.978C403.544 107.21 403.083 106.442 402.776 105.674C398.936 98.9161 395.25 93.5403 392.946 93.0795C386.495 91.5435 384.345 99.5305 384.345 99.5305C384.345 99.5305 376.051 91.3899 370.675 95.9978C365.453 100.606 365.914 104.138 365.914 104.292C365.76 104.138 356.084 98.3017 351.937 105.06C347.79 111.972 349.018 112.125 349.018 112.125C346.714 113.354 343.028 115.658 342.107 119.344C341.646 121.341 341.646 124.566 349.326 134.703C354.548 141.462 357.466 145.301 362.688 149.602C373.901 158.971 385.42 162.504 392.025 163.886Z" fill="white"/>
<path d="M392.025 165.116C391.871 165.116 391.871 165.116 391.717 165.116C380.659 162.658 370.521 157.743 362.227 150.985C356.852 146.531 353.933 142.844 348.711 135.933C340.571 125.335 340.571 121.956 341.185 119.498C341.953 116.58 344.257 113.969 347.943 111.972C347.943 110.897 348.711 108.9 351.169 104.907C352.244 103.064 353.78 101.835 355.93 101.374C359.309 100.453 362.995 101.835 365.146 102.91C365.453 101.22 366.682 98.4558 370.214 95.5375C374.976 91.3905 381.427 95.6911 384.038 97.8414C385.42 94.7696 388.492 91.0833 393.407 92.1584C394.943 92.4656 397.708 94.3088 404.005 105.368C404.466 106.136 404.927 106.903 405.234 107.671C406.155 109.361 407.23 111.204 408.152 113.047C410.149 117.041 411.685 120.113 412.453 121.649L412.76 122.416C415.064 127.331 419.979 135.779 427.198 147.759C427.351 148.067 427.351 148.374 427.351 148.681C427.198 148.988 427.044 149.295 426.737 149.449C415.371 154.671 404.005 159.893 392.793 165.116C392.332 165.116 392.178 165.116 392.025 165.116ZM350.093 111.818C350.093 111.972 350.247 112.126 350.247 112.279C350.247 112.74 350.093 113.201 349.633 113.508C347.175 114.737 344.103 116.887 343.335 119.959C343.028 121.188 342.414 123.799 350.401 134.397C355.623 141.155 358.388 144.841 363.61 149.142C371.597 155.593 381.273 160.354 391.717 162.812C402.469 157.743 413.374 152.828 424.126 147.759C417.214 136.394 412.606 128.099 410.302 123.338L409.995 122.57C409.227 121.034 407.691 117.962 405.694 113.969C404.773 112.126 403.851 110.436 402.93 108.593C402.469 107.825 402.008 107.057 401.701 106.289C395.711 95.8447 393.407 94.3088 392.639 94.1552C387.417 92.9264 385.42 99.531 385.42 99.8381C385.266 100.299 384.959 100.606 384.652 100.606C384.191 100.76 383.884 100.606 383.577 100.299C383.577 100.299 376.051 92.9264 371.443 96.9199C366.682 101.067 367.142 104.139 367.142 104.139C367.142 104.6 366.989 105.06 366.682 105.214C366.374 105.521 365.914 105.521 365.453 105.214C363.61 104.139 359.463 102.296 356.391 103.217C355.008 103.524 353.933 104.446 353.165 105.675C350.554 109.975 350.247 111.358 350.093 111.818Z" fill="black"/>
<path d="M383.731 168.341C372.057 166.19 362.535 164.04 355.623 162.351C351.169 161.275 337.499 158.05 337.499 154.364C337.499 153.903 337.652 153.289 337.96 152.981C338.574 151.445 340.11 150.37 342.567 149.449C347.022 147.913 351.322 148.22 351.937 148.22C363.61 149.295 374.361 153.749 374.361 153.749C374.054 153.903 384.652 158.664 383.731 168.341Z" fill="white"/>
<path d="M383.731 169.57H383.577C374.054 167.726 364.531 165.73 355.316 163.579C338.42 159.586 336.27 156.668 336.27 154.517C336.27 153.749 336.577 152.828 336.731 152.674C337.499 150.831 339.188 149.449 342.107 148.527C346.714 146.838 351.169 147.145 351.937 147.298C363.61 148.374 374.208 152.828 374.669 152.981C375.129 153.135 386.034 158.204 384.959 168.648C384.959 168.955 384.806 169.262 384.499 169.416C384.191 169.416 383.884 169.57 383.731 169.57ZM349.94 149.295C348.25 149.295 345.486 149.449 342.721 150.524C340.571 151.292 339.188 152.213 338.727 153.442C338.574 153.903 338.42 154.21 338.42 154.517C338.42 154.824 338.881 157.436 355.623 161.429C364.378 163.426 373.286 165.423 382.348 167.112C382.348 159.125 373.44 155.132 373.44 154.978C373.44 154.978 362.842 150.524 351.476 149.449C351.476 149.449 350.861 149.295 349.94 149.295Z" fill="black"/>
<path d="M82.9938 417.317C83.6081 421.31 87.1408 424.382 91.4414 424.536C88.3695 426.072 86.6801 429.605 87.2945 432.83C88.0624 436.516 91.595 439.127 95.5885 438.667C93.4382 441.892 93.5918 444.042 94.0525 445.118C95.1277 448.036 99.4284 449.418 104.651 449.879C110.641 450.34 114.634 449.879 126.461 448.036C129.994 447.421 133.526 446.961 137.213 446.5C171.003 440.817 172.693 442.506 176.072 439.127C185.748 429.451 180.833 408.409 177.3 399.039C175.765 394.739 173.768 391.513 172.385 389.209C167.778 389.824 160.098 390.285 151.343 387.981C145.814 386.598 143.049 385.83 140.899 383.68C134.601 377.536 135.984 366.17 130.454 361.409C129.994 360.948 128.611 359.873 126.768 359.566C124.618 359.259 122.467 359.873 121.239 360.794C117.552 363.406 118.32 370.01 118.781 374.311C119.088 377.383 120.164 382.298 123.082 387.827C119.242 388.288 116.324 388.595 114.173 388.749C112.177 388.902 109.873 389.056 106.34 389.363C105.265 389.517 104.343 389.67 103.268 389.824C94.6669 391.053 86.0657 393.356 84.8369 397.657C83.7617 401.804 85.4513 404.415 85.4513 404.415C86.8337 406.566 89.4448 407.333 90.3663 407.487C85.4513 408.255 82.2258 412.863 82.9938 417.317Z" fill="white"/>
<path d="M108.797 451.108C107.415 451.108 106.186 451.108 104.65 450.954C98.0458 450.493 94.2059 448.65 92.9771 445.425C92.3628 443.735 92.5164 441.892 93.5915 439.588C89.9053 439.127 86.8334 436.516 86.0654 432.83C85.451 429.912 86.3726 426.993 88.523 424.997C84.9903 423.922 82.3792 421.003 81.7648 417.317C81.1504 413.17 83.3008 409.177 86.987 407.18C85.9119 406.565 84.9903 405.798 84.3759 404.722C84.2223 404.569 82.3792 401.651 83.6079 397.043C84.6831 392.896 91.134 389.977 102.961 388.288C104.036 388.134 104.957 387.981 106.033 387.827C108.951 387.52 111.255 387.366 112.944 387.213H113.866C116.17 387.059 118.627 386.752 121.085 386.445C119.088 382.451 117.859 378.151 117.399 374.004C116.938 369.396 116.17 362.484 120.317 359.412C121.699 358.491 124.157 357.569 126.768 358.03C129.072 358.491 130.608 359.719 131.069 360.18C133.987 362.791 135.215 366.785 136.291 371.085C137.366 375.232 138.595 379.533 141.666 382.451C143.663 384.448 146.274 385.062 151.65 386.445C158.255 388.134 165.166 388.595 172.232 387.673C172.692 387.673 173.153 387.827 173.307 388.134C175.304 391.36 176.993 394.739 178.375 398.271C182.369 409.023 186.67 429.912 176.839 439.588C174.382 441.892 172.846 442.199 163.784 443.428C158.408 444.196 150.114 445.271 137.212 447.421C135.062 447.729 132.912 448.036 130.915 448.343C129.533 448.497 127.997 448.804 126.614 448.957C117.399 450.493 112.944 451.108 108.797 451.108ZM95.5882 437.438C96.049 437.438 96.3563 437.591 96.5099 438.052C96.8171 438.359 96.8171 438.974 96.5099 439.281C94.9739 441.585 94.5131 443.428 95.1275 444.81C95.8955 446.961 99.2745 448.343 104.804 448.804C110.487 449.265 114.173 448.804 126.461 446.961C127.843 446.807 129.379 446.5 130.761 446.346C132.912 446.039 134.908 445.732 137.059 445.425C149.961 443.274 158.255 442.199 163.63 441.431C172.539 440.203 173.614 440.049 175.304 438.359C184.366 429.451 179.911 409.023 176.225 399.5C174.996 396.428 173.614 393.356 171.771 390.438C164.706 391.36 157.794 390.899 151.036 389.056C145.353 387.52 142.434 386.752 139.977 384.448C136.444 381.069 135.215 376.461 133.987 372.007C132.912 368.013 131.99 364.327 129.533 362.33C129.072 362.023 127.997 361.102 126.307 360.794C124.464 360.487 122.621 361.102 121.699 361.87C118.627 364.174 119.242 370.317 119.703 374.464C120.163 378.919 121.546 383.373 123.85 387.673C124.003 387.981 124.003 388.441 123.85 388.749C123.696 389.056 123.389 389.363 122.928 389.363C119.856 389.824 116.938 390.131 114.02 390.285H113.098C111.408 390.438 109.105 390.592 106.186 390.899C105.111 391.053 104.19 391.206 103.114 391.36C89.1373 393.356 86.2191 396.582 85.7583 398.425C84.8367 401.958 86.2191 404.262 86.2191 404.262C87.2942 405.951 89.291 406.565 90.3661 406.873C90.9805 407.026 91.2876 407.487 91.2876 407.948C91.2876 408.562 90.8269 409.023 90.3661 409.023C86.2191 409.791 83.3008 413.631 83.9151 417.624C84.5295 421.003 87.6014 423.768 91.2876 423.768C91.7484 423.768 92.2092 424.229 92.3628 424.69C92.5164 425.15 92.2092 425.765 91.7484 425.918C89.1373 427.301 87.6014 430.065 88.2158 432.83C89.1373 435.595 92.2092 437.745 95.5882 437.438Z" fill="black"/>
<path d="M82.9935 417.317C83.4543 420.696 86.2191 423.461 89.5982 424.229C90.2125 424.383 90.8268 424.536 91.4412 424.536C90.9804 424.843 90.3661 425.151 90.0589 425.458C87.9086 427.301 86.8335 430.066 87.2942 432.83C88.0622 436.517 91.5948 439.128 95.5883 438.667V438.82C95.2811 439.281 94.9739 439.742 94.8203 440.203C93.5915 442.66 93.7452 444.196 94.206 445.271C96.6635 451.108 113.098 448.343 124.464 446.5C124.464 446.5 129.533 445.732 133.68 442.199C134.448 441.585 135.216 440.817 135.523 439.742C136.444 436.977 134.14 434.059 133.68 433.598C134.601 433.137 135.523 432.523 136.137 431.909C137.98 430.219 139.055 428.069 139.209 425.611C139.363 421.925 137.366 419.468 136.291 418.239C135.83 417.778 135.676 417.624 135.523 417.624C135.983 417.471 136.291 417.164 136.751 417.01C138.902 415.628 140.284 413.324 140.284 410.866C140.284 407.794 138.287 404.876 135.369 403.801C135.062 403.647 134.755 403.647 134.448 403.494C134.601 403.34 135.216 403.033 135.676 402.572C136.751 401.651 138.287 399.961 138.134 397.964C137.98 395.814 135.983 394.278 135.062 393.664C128.15 388.595 106.954 389.824 103.422 390.131C94.8203 391.36 86.2191 393.664 84.9903 397.964C83.9152 402.111 85.6047 404.723 85.6047 404.723C86.5262 406.105 87.9086 406.873 88.9837 407.334C89.5981 407.641 90.2125 407.794 90.5197 407.794C89.5981 407.948 88.6765 408.255 87.9086 408.716C84.3759 410.098 82.3792 413.785 82.9935 417.317Z" fill="white"/>
<path d="M104.497 449.726C98.8136 449.726 94.3595 448.65 93.1307 445.425C92.5163 443.735 92.6699 441.892 93.745 439.588C90.0588 439.127 86.9869 436.516 86.219 432.83C85.6046 430.065 86.5261 426.994 88.6764 424.997C85.1438 423.922 82.5327 420.85 81.9184 417.317C81.304 413.324 83.4542 409.177 87.1405 407.18C86.0653 406.566 85.1438 405.798 84.5294 404.723C84.3758 404.569 82.5327 401.651 83.7614 397.043C84.8366 392.896 91.2876 389.977 103.114 388.288H103.268C110.64 387.827 128.764 387.213 135.523 392.128C136.598 392.896 138.902 394.585 139.055 397.35C139.209 399.654 137.827 401.497 136.444 402.572C139.363 404.108 141.206 407.026 141.206 410.252C141.206 413.017 139.67 415.628 137.366 417.317C138.748 418.699 140.438 421.464 140.284 425.15C140.13 427.915 138.902 430.373 136.905 432.216C136.444 432.677 135.83 433.137 135.369 433.444C136.291 434.827 137.366 437.131 136.598 439.588C136.137 440.971 135.215 441.892 134.447 442.66C129.993 446.346 124.925 447.268 124.617 447.268C118.167 448.497 110.64 449.726 104.497 449.726ZM95.5882 437.438C96.0489 437.438 96.3562 437.592 96.5098 438.052C96.817 438.36 96.817 438.974 96.5098 439.281L96.3561 439.435C96.0489 439.895 95.8954 440.203 95.5882 440.663C94.6666 442.353 94.5131 443.735 94.9738 444.657C97.1242 449.726 113.866 446.807 124.003 445.271C124.003 445.271 128.764 444.503 132.758 441.124C133.526 440.51 133.987 440.049 134.294 439.127C135.062 436.977 133.065 434.52 132.604 434.059C132.297 433.752 132.297 433.445 132.297 433.137C132.451 432.83 132.604 432.523 132.911 432.369C133.679 432.062 134.447 431.448 135.062 430.833C136.598 429.298 137.673 427.454 137.673 425.304C137.827 422.079 136.137 419.928 135.062 418.853C134.755 418.546 134.447 418.392 134.447 418.239C134.14 417.932 133.987 417.624 133.987 417.164C133.987 416.703 134.294 416.396 134.755 416.242C135.062 416.088 135.369 415.935 135.83 415.628C137.673 414.399 138.748 412.556 138.748 410.405C138.748 407.794 137.059 405.337 134.601 404.415C134.294 404.262 134.14 404.262 133.833 404.108C133.372 403.954 133.065 403.647 132.911 403.187C132.758 402.726 133.065 402.265 133.372 401.958C133.833 401.651 134.14 401.343 134.601 401.036C135.369 400.268 136.751 398.886 136.598 397.35C136.444 395.66 134.755 394.432 133.987 393.817C127.689 389.209 108.797 390.131 103.114 390.438C89.1373 392.435 86.219 395.66 85.7582 397.504C84.8366 401.036 86.219 403.34 86.219 403.34C86.8333 404.262 87.7549 405.03 88.9836 405.49C89.4444 405.644 89.9052 405.798 90.366 405.951C90.9804 406.105 91.2876 406.566 91.2876 407.026C91.2876 407.641 90.8268 408.101 90.366 408.101C89.5981 408.255 88.8301 408.562 88.0621 408.869C85.1438 410.405 83.3007 413.631 83.9151 416.703C84.3758 419.621 86.6798 421.925 89.5981 422.693C90.0588 422.847 90.6732 422.847 91.2876 422.847C91.7483 422.847 92.2091 423.307 92.3627 423.768C92.5163 424.229 92.2091 424.843 91.7483 424.997C91.2875 425.15 90.9804 425.458 90.5196 425.765C88.6765 427.301 87.7549 429.758 88.2157 431.909C89.1372 435.595 92.2091 437.745 95.5882 437.438Z" fill="black"/>
<path d="M145.813 383.526C145.813 383.526 146.889 427.915 156.565 447.575C156.565 447.575 173.921 449.879 194.503 449.879C204.179 449.879 228.293 448.65 251.486 439.127C289.27 423.614 309.545 391.052 317.224 376.461C317.839 355.726 318.3 335.144 318.914 314.409C318.914 314.409 257.323 371.699 240.581 388.134C239.967 388.748 239.506 389.209 239.045 389.67L237.509 389.516L145.813 383.526Z" fill="#5076C7"/>
<path d="M145.813 383.526C145.813 383.526 146.889 427.915 156.565 447.575C156.565 447.575 173.921 449.879 194.503 449.879C204.179 449.879 228.293 448.65 251.486 439.127C289.27 423.614 309.545 391.052 317.224 376.461C317.839 355.726 318.3 335.144 318.914 314.409C318.914 314.409 257.323 371.699 240.581 388.134C239.967 388.748 239.506 389.209 239.045 389.67L237.509 389.516L145.813 383.526Z" fill="#5076C7"/>
<path d="M145.813 383.526C145.813 383.526 146.889 427.915 156.565 447.575C156.565 447.575 173.921 449.879 194.503 449.879C204.179 449.879 228.293 448.65 251.486 439.127C289.27 423.614 309.545 391.052 317.224 376.461C317.839 355.726 318.3 335.144 318.914 314.409C318.914 314.409 257.323 371.699 240.581 388.134C239.967 388.748 239.506 389.209 239.045 389.67L237.509 389.516L145.813 383.526Z" fill="#5076C7"/>
<path d="M251.486 440.356C251.025 440.356 250.564 440.049 250.411 439.588C250.104 438.974 250.411 438.36 251.025 438.052C286.659 423.461 307.241 392.896 316.303 376.001C316.61 375.386 317.224 375.233 317.839 375.54C318.453 375.847 318.607 376.615 318.299 377.076C309.084 394.278 288.195 425.304 251.947 440.203C251.793 440.356 251.64 440.356 251.486 440.356Z" fill="#060E12"/>
<path d="M248.721 411.481C248.107 411.481 247.646 411.02 247.646 410.406C246.264 398.579 238.584 391.974 237.202 390.899L147.196 384.909C147.349 387.827 147.656 395.353 148.578 404.569C148.578 405.184 148.117 405.798 147.503 405.798C146.888 405.951 146.274 405.337 146.274 404.723C145.199 393.05 144.892 383.68 144.892 383.68C144.892 383.373 145.045 383.066 145.199 382.759C145.506 382.605 145.813 382.452 146.121 382.452L237.816 388.595C237.97 388.595 238.277 388.749 238.431 388.749C238.891 389.056 248.568 395.968 250.104 410.099C249.95 410.713 249.489 411.327 248.721 411.481C248.875 411.327 248.721 411.481 248.721 411.481Z" fill="#060E12"/>
<path d="M270.071 507.63C267.613 530.823 264.234 566.764 262.238 610.691C256.862 726.962 269.764 726.501 263.006 809.135C258.091 869.344 248.875 899.294 263.774 946.294C272.068 972.405 284.048 992.219 293.11 1004.81C305.551 1005.27 317.992 1005.89 330.433 1006.35C333.505 1000.51 337.499 991.604 341.031 980.546C350.861 949.366 348.865 923.409 348.097 911.889C345.486 875.027 347.943 838.01 344.103 801.301C339.649 758.91 338.42 695.322 353.933 604.548C354.701 665.371 354.24 714.675 353.78 748.158C353.012 798.23 361.306 848.762 353.78 898.219C353.78 898.219 350.554 919.415 358.388 971.023C359.463 978.242 361.767 991.604 372.518 1000.36C377.28 1004.2 382.195 1006.04 385.727 1006.96C398.168 1006.35 410.609 1005.58 423.051 1004.97C425.815 1002.82 429.809 999.284 434.109 994.369C459.606 965.033 456.841 924.484 454.384 891.768C443.171 750.923 437.949 708.838 441.175 664.603C441.635 658.613 442.711 645.557 443.018 626.972C443.479 605.469 442.864 576.747 438.717 543.878C435.031 514.081 435.031 514.081 435.031 514.081L270.071 507.63Z" fill="#060E12"/>
<path d="M267.153 513.313C276.675 517.614 290.192 522.836 307.087 526.829C313.538 528.365 329.205 531.744 350.861 532.359C360.998 532.666 372.518 532.359 384.806 530.976C387.109 530.669 389.413 530.362 391.871 530.055H392.024C404.619 528.212 421.822 524.833 441.482 517.767C434.263 470.307 425.047 403.801 417.828 356.34L407.998 355.879L404.312 349.735L381.427 311.644L370.982 310.415L340.417 306.883C335.963 307.651 329.819 309.033 323.368 312.105C317.992 314.716 312.463 318.402 307.701 323.778C298.025 334.837 296.335 348.2 295.567 353.729C292.188 381.529 286.352 409.023 283.587 436.823C281.59 455.101 277.597 481.519 267.153 513.313Z" fill="#5076C7"/>
<path d="M321.218 313.334C321.218 313.334 329.051 339.752 339.649 351.271C339.649 351.271 358.541 346.971 375.129 311.03C375.129 311.03 352.243 306.883 340.57 307.036C328.59 307.344 321.218 313.334 321.218 313.334Z" fill="white"/>
<path d="M339.649 352.346C339.342 352.346 339.034 352.193 338.727 352.039C328.129 340.52 320.449 314.87 320.142 313.641C319.989 313.18 320.142 312.719 320.449 312.412C320.757 312.105 328.283 306.268 340.417 305.961C352.243 305.654 374.361 309.801 375.283 309.955C375.59 309.955 375.897 310.262 376.051 310.569C376.204 310.876 376.204 311.183 376.051 311.644C359.462 347.739 340.57 352.347 339.802 352.5C339.802 352.347 339.649 352.346 339.649 352.346ZM322.6 313.794C323.982 318.095 331.047 339.598 339.956 349.889C343.335 348.814 359.155 342.056 373.286 311.951C368.064 311.03 350.247 308.111 340.417 308.265C331.047 308.419 324.443 312.412 322.6 313.794Z" fill="black"/>
<path d="M307.548 325.007C307.241 325.007 306.934 324.853 306.78 324.7C306.319 324.239 306.319 323.625 306.626 323.01C310.927 318.095 316.303 314.102 322.754 311.03C327.976 308.572 333.813 306.729 340.11 305.808C340.264 305.808 340.264 305.808 340.417 305.808L381.427 310.415C382.041 310.415 382.502 311.03 382.502 311.644C382.502 312.259 381.887 312.719 381.273 312.719L340.417 308.112C334.427 309.187 328.744 310.876 323.829 313.18C317.839 316.098 312.617 319.938 308.47 324.546C308.162 325.007 307.855 325.007 307.548 325.007Z" fill="#060E12"/>
<path d="M358.388 533.741C355.776 533.741 353.319 533.741 350.708 533.588C335.348 533.127 320.603 531.284 306.78 528.058C293.11 524.833 279.594 520.225 266.692 514.542C266.231 514.235 265.924 513.621 266.078 513.16C274.372 487.663 279.747 462.167 282.359 436.977C283.895 421.464 286.506 405.798 288.963 390.592C290.96 378.611 292.956 366.17 294.492 353.883C294.492 353.268 295.107 352.808 295.721 352.808C296.336 352.808 296.796 353.422 296.796 354.036C295.26 366.324 293.264 378.765 291.267 390.899C288.809 405.951 286.352 421.618 284.816 437.131C282.359 462.013 276.983 487.51 268.842 512.853C281.283 518.382 294.339 522.683 307.548 525.908C321.218 529.133 335.809 530.977 351.015 531.437C362.381 531.745 373.747 531.284 384.806 530.055C387.263 529.748 389.567 529.441 391.717 529.134C408.152 526.83 424.433 522.836 440.099 517.153C438.564 506.709 436.874 495.343 435.031 483.516C434.877 482.902 435.338 482.287 435.953 482.134C436.567 481.98 437.181 482.441 437.335 483.055C439.178 495.189 440.867 506.862 442.403 517.614C442.557 518.228 442.25 518.689 441.635 518.843C425.508 524.679 408.766 528.98 392.025 531.284C389.721 531.591 387.263 531.898 384.806 532.205C376.204 533.281 367.296 533.741 358.388 533.741Z" fill="#060E12"/>
<path d="M363.61 255.275V308.572C363.61 313.487 358.695 317.635 351.936 318.403C349.479 318.71 346.714 318.71 343.642 318.556C343.182 318.556 342.874 318.556 342.414 318.403C335.809 317.635 330.894 313.488 330.894 308.726V255.429H363.61V255.275Z" fill="white"/>
<path d="M347.175 319.938C345.946 319.938 344.717 319.938 343.489 319.785C343.028 319.785 342.721 319.785 342.26 319.631C335.041 318.863 329.665 314.255 329.665 308.726V255.429C329.665 254.815 330.126 254.2 330.894 254.2H363.456C364.07 254.2 364.685 254.661 364.685 255.429V308.726C364.685 314.255 359.309 318.863 351.936 319.631C350.4 319.785 348.864 319.938 347.175 319.938ZM332.123 256.504V308.726C332.123 313.027 336.577 316.713 342.567 317.327C342.874 317.327 343.335 317.327 343.642 317.481C346.253 317.634 349.018 317.635 351.783 317.327C357.773 316.713 362.381 313.027 362.381 308.726V256.504H332.123Z" fill="black"/>
<path d="M321.525 237.305C318.607 237.305 312.77 236.997 306.933 233.311C305.09 232.236 302.94 230.854 301.25 228.243C297.564 222.713 298.025 214.419 302.018 208.583C306.012 202.9 313.999 197.985 321.678 200.749C327.515 202.9 330.126 208.275 330.74 209.811C332.584 209.043 346.1 202.9 359.462 209.811C367.91 214.265 371.75 221.638 372.979 223.942C376.665 231.468 376.358 238.226 376.204 242.988C375.59 258.04 368.064 268.484 365.606 271.556C364.838 272.631 364.07 273.553 363.609 274.013C362.227 274.321 360.998 274.628 359.616 275.089C358.848 272.631 357.773 268.791 357.159 264.03C356.237 256.35 357.312 253.125 356.698 250.36C355.469 245.291 348.25 239.762 321.525 237.305Z" fill="#060E12"/>
<path d="M365.146 248.363C364.531 245.905 362.381 243.141 359.924 242.833C358.541 242.68 357.159 243.294 355.777 244.369C355.162 243.448 354.394 242.834 353.319 242.219C352.398 241.758 351.322 240.683 348.711 239.147C338.881 233.464 332.738 229.778 326.594 231.16C325.211 231.468 324.29 231.928 319.528 233.157C315.381 234.232 314.306 234.386 313.078 234.232C311.849 234.079 309.545 233.311 307.087 230.239C306.012 244.369 306.934 256.043 308.163 264.337C309.545 274.32 311.695 281.693 317.225 287.376C318.914 289.065 321.064 291.369 324.751 292.444C331.202 294.287 337.038 290.601 343.489 286.454C348.865 283.075 354.087 279.85 356.237 273.399C356.852 271.556 357.005 269.405 357.159 264.951C357.159 264.029 357.159 263.262 357.313 262.34C360.077 260.497 361.767 258.346 362.535 257.118C363.917 254.66 365.914 251.742 365.146 248.363Z" fill="white"/>
<path d="M327.822 293.98C326.594 293.98 325.365 293.827 324.136 293.52C320.143 292.445 317.685 289.833 316.149 288.144C310.313 282 308.316 274.628 306.78 264.49C305.244 253.278 304.783 241.759 305.705 230.085C305.705 229.625 306.012 229.164 306.473 229.01C306.934 228.857 307.394 229.01 307.702 229.471C309.238 231.468 311.081 232.697 313.077 233.004C314.153 233.157 315.074 233.004 319.067 232.082C321.679 231.314 323.214 231.007 324.136 230.546C324.904 230.239 325.518 230.085 326.133 229.932C332.891 228.396 339.342 232.236 349.172 238.072C350.708 238.994 351.783 239.762 352.551 240.223C353.012 240.53 353.473 240.837 353.78 240.991C354.548 241.451 355.316 241.912 355.93 242.526C357.312 241.605 358.695 241.298 360.077 241.451C363.149 241.759 365.606 244.984 366.221 247.902C367.142 251.742 364.992 254.968 363.303 257.579C361.92 259.575 360.231 261.419 358.234 262.801C358.234 263.415 358.234 264.183 358.08 264.798C357.927 269.098 357.773 271.556 357.159 273.552C354.855 280.311 349.325 283.843 343.95 287.222C338.42 290.755 333.352 293.98 327.822 293.98ZM307.855 233.004C307.241 243.602 307.548 254.046 309.084 264.183C310.466 273.86 312.463 280.925 317.839 286.608C319.375 288.144 321.525 290.448 324.904 291.369C330.894 293.059 336.424 289.526 342.721 285.533C347.943 282.154 353.012 279.082 355.008 273.092C355.623 271.556 355.623 269.405 355.776 264.951C355.776 264.03 355.776 263.262 355.93 262.34C355.93 262.033 356.084 261.726 356.391 261.419C358.387 260.036 360.077 258.347 361.306 256.504C362.995 254.046 364.685 251.589 363.917 248.67C363.456 246.52 361.613 244.216 359.77 244.062C358.848 243.909 357.62 244.37 356.544 245.291C356.237 245.445 355.93 245.598 355.623 245.598C355.316 245.598 355.008 245.445 354.855 245.138C354.394 244.37 353.626 243.755 352.858 243.448C352.397 243.294 351.937 242.834 351.322 242.526C350.554 242.066 349.633 241.298 348.097 240.53C338.42 234.847 332.584 231.468 326.747 232.696C326.133 232.85 325.672 233.004 325.058 233.157C324.136 233.464 322.6 233.925 319.835 234.693C315.688 235.768 314.306 235.922 312.77 235.768C311.081 235.154 309.391 234.232 307.855 233.004Z" fill="black"/>
<path d="M350.861 235.308C349.325 235.308 348.25 236.69 348.711 238.226C349.325 240.376 349.94 243.448 349.018 246.213C348.097 249.285 347.482 252.049 347.021 253.892C346.714 254.968 347.329 256.196 348.557 256.504C349.632 256.811 351.015 256.35 351.322 255.121C353.319 249.592 358.848 234.693 360.077 235.154C361.152 235.615 354.855 235.461 350.861 235.308Z" fill="#060E12"/>
<path d="M319.835 272.785C321.371 273.246 325.058 273.86 329.051 272.324C330.741 271.71 332.123 270.788 333.045 270.021C334.581 273.246 333.966 276.779 331.662 278.622C329.051 280.772 325.518 279.543 325.058 279.39C320.757 277.854 319.989 272.939 319.835 272.785Z" fill="#060E12"/>
<path d="M269.764 510.087C269.764 509.933 269.764 509.933 269.917 509.78L269.764 510.087Z" fill="#4332D1"/>
<path d="M377.587 318.71C388.953 333.147 400.319 347.432 411.684 361.869C429.655 350.811 443.632 340.213 453.155 332.379C476.194 313.641 490.171 301.968 498.926 281.386C502.151 273.86 506.452 263.262 505.684 249.285C505.07 238.38 501.076 228.703 492.782 209.351C488.789 200.135 484.949 192.762 482.952 188.923C480.802 184.776 478.191 180.475 475.426 175.867C472.508 171.106 469.282 166.037 465.596 160.815C459.913 152.828 458.377 151.906 454.384 145.916C453.616 144.688 452.848 143.459 452.08 142.384C448.701 136.701 441.482 134.857 435.645 138.083C418.443 147.759 401.394 157.589 384.191 167.266C377.433 171.106 375.897 180.168 381.273 186.004C400.011 206.586 418.75 227.167 437.488 247.903C437.488 248.056 437.488 248.21 437.488 248.363C437.181 248.824 436.72 249.439 436.106 250.207C421.822 269.252 410.456 279.236 400.011 290.602C394.482 297.053 386.342 306.268 377.587 318.71Z" fill="#5076C7"/>
<path d="M377.587 319.938C377.433 319.938 377.126 319.938 376.972 319.785C376.512 319.477 376.358 318.709 376.665 318.249C383.731 308.265 391.41 298.742 399.551 290.141C402.162 287.376 404.926 284.612 407.691 281.693C415.832 273.399 425.047 264.03 435.645 249.899C436.26 249.131 436.72 248.517 437.028 248.056L437.488 248.363L439.178 248.21H438.103H439.332V248.671C439.332 248.978 439.332 249.131 439.178 249.438C438.871 249.899 438.41 250.514 437.796 251.282C427.044 265.566 417.828 275.089 409.688 283.383C406.923 286.301 404.159 288.912 401.547 291.83C393.561 300.432 385.881 309.801 378.816 319.631C378.201 319.785 377.894 319.938 377.587 319.938Z" fill="#060E12"/>
<path d="M417.982 359.105C417.675 359.105 417.214 358.951 417.06 358.644C416.753 358.183 416.907 357.415 417.367 357.108C429.655 349.275 441.482 340.673 452.54 331.611C453.001 331.15 453.769 331.304 454.23 331.765C454.691 332.226 454.537 332.994 454.076 333.454C442.864 342.516 431.037 351.118 418.75 359.105C418.289 359.105 418.135 359.105 417.982 359.105Z" fill="#060E12"/>
<path d="M436.413 250.514C441.942 250.206 449.776 250.206 460.374 251.282L460.681 248.671C450.697 247.595 443.018 247.595 437.488 247.749C437.642 247.903 437.795 248.21 438.103 248.363C437.488 249.131 437.027 249.746 436.413 250.514Z" fill="#311716"/>
<path d="M500.922 256.197L403.39 292.599C397.861 294.749 391.563 291.831 389.413 286.301L336.73 145.456C334.58 139.926 337.498 133.629 343.028 131.479L440.56 95.0769C446.089 92.9265 452.387 95.8448 454.537 101.374L507.22 242.22C509.37 247.903 506.452 254.047 500.922 256.197Z" fill="white"/>
<path d="M399.55 294.442C397.861 294.442 396.171 294.134 394.635 293.366C391.717 291.984 389.567 289.68 388.338 286.608L335.655 145.763C333.351 139.619 336.423 132.707 342.721 130.403L440.253 94.0015C446.397 91.6976 453.308 94.7695 455.612 101.067L508.295 241.912C509.37 244.984 509.37 248.21 507.988 251.128C506.605 254.046 504.302 256.197 501.23 257.425L403.697 293.827C402.315 294.288 400.933 294.442 399.55 294.442ZM444.4 95.5374C443.325 95.5374 442.096 95.691 441.021 96.1518L343.489 132.554C341.031 133.475 339.188 135.318 338.113 137.622C337.038 139.926 336.884 142.537 337.806 144.995L390.488 285.84C392.331 290.909 398.014 293.366 402.93 291.523L500.462 255.122C502.919 254.2 504.762 252.357 505.837 250.053C506.913 247.749 507.066 245.138 506.145 242.68L453.462 101.835C452.08 97.8413 448.393 95.5374 444.4 95.5374Z" fill="black"/>
<path d="M487.252 238.994C501.844 252.51 516.589 266.026 531.18 279.542L531.027 279.696L508.295 274.474L509.677 298.742C497.85 282.768 486.024 266.948 474.197 250.974C478.651 246.827 482.952 242.834 487.252 238.994Z" fill="#F86E6D"/>
<path d="M474.197 249.745C476.808 269.559 479.419 289.219 482.03 309.032H481.877L467.746 290.448L453.308 309.954C454.384 290.14 455.459 270.327 456.687 250.513C462.524 250.206 468.361 249.899 474.197 249.745Z" fill="#F86E6D"/>
<path d="M488.421 256.863C499.387 246.732 500.063 229.629 489.932 218.663C479.801 207.697 462.698 207.021 451.732 217.152C440.766 227.284 440.09 244.386 450.221 255.352C460.352 266.318 477.455 266.995 488.421 256.863Z" fill="#D1E2DC"/>
<path d="M488.421 256.863C499.387 246.732 500.063 229.629 489.932 218.663C479.801 207.697 462.698 207.021 451.732 217.152C440.766 227.284 440.09 244.386 450.221 255.352C460.352 266.318 477.455 266.995 488.421 256.863Z" fill="#D1E2DC"/>
<path d="M488.421 256.863C499.387 246.732 500.063 229.629 489.932 218.663C479.801 207.697 462.698 207.021 451.732 217.152C440.766 227.284 440.09 244.386 450.221 255.352C460.352 266.318 477.455 266.995 488.421 256.863Z" fill="#D1E2DC"/>
<path d="M477.576 257.271C466.363 261.418 453.769 255.735 449.468 244.523C445.168 233.311 451.004 220.716 462.216 216.415C473.429 212.268 486.023 217.951 490.324 229.163C494.625 240.529 488.942 253.124 477.576 257.271ZM463.138 218.412C453.001 222.252 447.779 233.618 451.465 243.909C455.305 254.046 466.671 259.268 476.961 255.582C487.099 251.742 492.321 240.376 488.635 230.085C484.795 219.794 473.275 214.572 463.138 218.412Z" fill="white"/>
<path d="M470.05 265.105C466.056 265.105 462.063 264.183 458.377 262.494C451.465 259.422 446.396 253.739 443.632 246.674C442.403 243.448 441.789 240.069 441.789 236.536C441.789 235.922 442.249 235.461 443.017 235.461C443.632 235.461 444.092 235.922 444.092 236.69C444.092 239.915 444.553 242.987 445.782 245.906C448.239 252.357 453.001 257.579 459.298 260.343C465.596 263.262 472.661 263.415 479.112 261.111C485.563 258.654 490.785 253.892 493.55 247.595C496.468 241.298 496.622 234.232 494.318 227.781C489.403 214.419 474.35 207.661 461.141 212.576C458.069 213.804 455.151 215.494 452.694 217.798C452.233 218.259 451.465 218.259 451.004 217.798C450.543 217.337 450.543 216.569 451.004 216.108C453.615 213.651 456.841 211.808 460.22 210.425C474.811 205.05 490.939 212.422 496.468 227.014C499.079 234.079 498.772 241.759 495.7 248.517C492.628 255.428 486.945 260.497 479.88 263.262C476.654 264.49 473.275 265.105 470.05 265.105Z" fill="#060E12"/>
<path d="M509.677 299.816C509.063 299.816 508.602 299.356 508.602 298.741L507.219 274.474C507.219 274.166 507.373 273.706 507.68 273.552C507.987 273.245 508.295 273.245 508.755 273.245L527.647 277.545L517.818 268.483C517.357 268.023 517.357 267.255 517.818 266.794C518.278 266.333 519.046 266.333 519.507 266.794L532.255 278.621C532.562 278.774 532.562 279.081 532.562 279.542C532.562 279.849 532.409 280.156 532.255 280.464L532.102 280.617C531.795 280.924 531.487 280.924 531.027 280.924L509.831 276.009L511.059 298.741C510.906 299.202 510.445 299.663 509.677 299.816C509.831 299.816 509.831 299.816 509.677 299.816Z" fill="#060E12"/>
<path d="M453.308 311.029C453.154 311.029 453.001 311.029 452.847 311.029C452.387 310.876 452.079 310.415 452.079 309.954L452.694 300.124C452.694 299.51 453.308 299.049 453.922 299.049C454.537 299.049 454.998 299.663 454.998 300.278L454.69 306.268L466.824 289.833C466.978 289.526 467.439 289.373 467.746 289.373C468.053 289.373 468.514 289.526 468.667 289.833L477.576 301.66C477.883 302.121 477.883 302.889 477.422 303.35C476.962 303.81 476.194 303.657 475.733 303.196L467.746 292.598L454.23 310.876C453.922 310.876 453.615 311.029 453.308 311.029Z" fill="#060E12"/>
<path d="M454.691 151.906L371.443 182.932C370.675 183.24 369.753 182.779 369.446 182.011L368.524 179.4C368.217 178.632 368.678 177.71 369.446 177.403L452.54 146.377C453.308 146.07 454.23 146.531 454.537 147.299L455.459 149.91C455.919 150.678 455.459 151.599 454.691 151.906Z" fill="#5076C7"/>
<path d="M457.916 164.347L377.279 194.451C375.744 195.066 374.054 194.298 373.44 192.762C372.825 191.226 373.593 189.536 375.129 188.922L455.766 158.818C457.302 158.203 458.991 158.971 459.606 160.507C460.22 162.043 459.452 163.733 457.916 164.347Z" fill="#5076C7"/>
<path d="M463.599 175.867L380.505 206.893C379.737 207.2 378.815 206.74 378.508 205.972L377.587 203.361C377.28 202.593 377.74 201.671 378.508 201.364L461.603 170.338C462.37 170.031 463.292 170.492 463.599 171.259L464.521 173.871C464.828 174.639 464.521 175.56 463.599 175.867Z" fill="#5076C7"/>
<path d="M468.053 187.847L384.959 218.873C384.191 219.18 383.27 218.72 382.962 217.952L382.041 215.341C381.734 214.573 382.194 213.651 382.962 213.344L466.057 182.318C466.825 182.011 467.746 182.472 468.053 183.239L468.975 185.851C469.282 186.619 468.975 187.54 468.053 187.847Z" fill="#5076C7"/>
<path d="M472.508 199.828L389.413 230.854C388.645 231.161 387.724 230.7 387.416 229.932L386.495 227.321C386.188 226.553 386.648 225.632 387.416 225.324L470.511 194.298C471.279 193.991 472.2 194.452 472.508 195.22L473.429 197.831C473.89 198.599 473.429 199.521 472.508 199.828Z" fill="#5076C7"/>
<path d="M440.422 244.098L395.385 260.915L396.191 263.073L441.227 246.257L440.422 244.098Z" fill="#F86E6D"/>
<path d="M443.288 251.311L398.252 268.133L399.058 270.291L444.094 253.47L443.288 251.311Z" fill="#F86E6D"/>
<path d="M444.007 128.08L360.84 159.134L361.807 161.724L444.974 130.67L444.007 128.08Z" fill="#F86E6D"/>
<path d="M440.362 112.85L357.196 143.905L359.936 151.243L443.102 120.189L440.362 112.85Z" fill="#F86E6D"/>
<path d="M341.492 118.269C344.257 132.4 360.998 146.837 365.606 146.991C367.142 146.991 368.371 146.377 368.371 146.377C370.368 145.301 371.136 142.998 371.443 141.154C371.596 140.233 371.596 139.465 371.596 139.004C371.904 139.465 372.518 140.54 373.747 141.615C374.822 142.537 376.204 143.612 378.047 144.073C378.815 144.38 383.577 145.609 385.727 142.998C386.034 142.537 386.341 142.076 386.495 141.462C386.649 140.694 386.649 139.926 386.649 139.004C386.341 137.468 385.573 135.779 384.191 134.396C385.573 135.625 386.649 136.7 387.57 137.468C388.645 138.39 389.72 139.004 391.103 139.311C391.41 139.311 394.021 139.772 396.018 138.39C398.168 136.854 399.243 133.782 398.782 130.403C398.629 129.635 398.475 129.021 398.322 128.253C398.782 128.406 399.243 128.867 400.011 129.021C400.933 129.328 402.161 129.481 403.237 129.174C405.848 128.253 406.923 125.027 407.384 123.338C407.998 121.494 407.998 119.344 407.537 117.04C403.39 105.981 398.629 95.3834 395.557 94.3083C391.103 92.7723 388.338 96.4586 386.956 98.7625C386.341 99.8377 386.034 100.452 386.034 100.452C386.034 100.452 385.881 100.298 385.727 99.9913C384.191 98.3017 377.894 91.5436 372.671 95.537C369.139 98.1481 367.756 100.759 367.296 102.295C366.989 103.37 366.989 103.985 366.989 103.985C366.989 103.985 366.528 103.678 365.913 103.217C363.302 101.527 356.698 98.1481 352.858 103.678C351.168 106.135 350.247 107.671 349.632 108.746C349.018 109.821 349.018 110.436 349.018 110.743C349.018 110.896 349.172 111.05 349.172 111.05C346.868 111.818 343.796 113.2 342.26 116.119C341.953 116.887 341.646 117.501 341.492 118.269Z" fill="white"/>
<path d="M365.913 148.22C365.76 148.22 365.76 148.22 365.606 148.22C360.384 147.913 343.028 133.014 340.263 118.423C340.263 118.269 340.263 118.116 340.263 117.962C340.417 117.194 340.724 116.426 341.185 115.658C342.414 113.354 344.717 111.511 347.943 110.282C348.096 109.822 348.25 109.207 348.711 108.439C349.325 107.057 350.4 105.367 351.936 103.217C354.855 98.9164 360.23 98.6092 366.221 102.295V102.142C366.835 100.452 368.217 97.6877 372.057 94.923C377.279 90.9295 383.27 95.8445 385.881 98.6092C385.881 98.4556 386.034 98.4556 386.034 98.302C388.492 93.8478 392.178 92.1583 396.018 93.387C397.861 94.0014 401.24 97.0733 408.612 116.733V116.887C409.073 119.498 409.073 121.802 408.459 123.645C407.998 125.488 406.769 129.174 403.544 130.25C402.469 130.557 401.24 130.557 399.858 130.25C400.472 134.243 399.09 137.622 396.632 139.312C394.328 140.848 391.564 140.54 390.796 140.387C389.567 140.08 388.492 139.619 387.724 139.004C387.877 139.926 387.877 141.001 387.57 141.769C387.417 142.537 387.109 143.151 386.649 143.766C384.498 146.531 380.198 145.916 377.74 145.148C376.051 144.687 374.361 143.766 372.979 142.384C372.825 142.23 372.672 142.076 372.364 141.769C371.75 144.38 370.675 146.223 368.832 147.145C368.832 147.606 367.603 148.22 365.913 148.22ZM342.721 118.269C345.485 131.785 361.92 145.763 365.76 145.916C366.989 145.916 367.91 145.455 367.91 145.455C369.446 144.534 370.06 142.537 370.368 141.001C370.521 140.08 370.521 139.312 370.521 139.004C370.521 138.544 370.828 138.083 371.443 137.929C371.904 137.776 372.518 138.083 372.672 138.39C372.979 139.004 373.593 139.926 374.668 140.848C375.743 141.923 377.126 142.691 378.508 142.998C379.583 143.305 383.423 144.227 384.959 142.384C385.266 142.076 385.42 141.769 385.42 141.308C385.573 140.694 385.573 140.08 385.42 139.312C385.266 137.929 384.498 136.393 383.269 135.318C382.809 134.857 382.809 134.243 383.269 133.782C383.73 133.321 384.345 133.321 384.805 133.782C385.42 134.243 385.881 134.704 386.341 135.165C387.109 135.779 387.57 136.393 388.185 136.854C389.26 137.776 390.181 138.236 391.256 138.39C391.717 138.39 393.714 138.851 395.403 137.776C397.247 136.547 398.168 133.936 397.707 130.864C397.554 130.25 397.4 129.635 397.247 128.867C397.093 128.406 397.247 127.946 397.554 127.638C397.861 127.331 398.475 127.331 398.936 127.485C399.397 127.792 400.011 127.946 400.472 128.253C401.394 128.56 402.162 128.56 402.93 128.406C405.08 127.792 405.848 124.874 406.309 123.338C406.769 121.802 406.769 119.805 406.462 117.655C399.09 98.302 396.018 95.9981 395.25 95.6909C391.717 94.6158 389.413 97.2269 388.031 99.5308C387.57 100.452 387.263 101.067 387.263 101.067C387.109 101.528 386.802 101.681 386.341 101.835C385.881 101.835 385.573 101.681 385.266 101.374C385.266 101.374 385.113 101.22 384.959 101.067C383.884 99.838 377.894 93.387 373.44 96.7661C370.214 99.2236 368.985 101.527 368.525 102.91C368.217 103.678 368.217 104.139 368.217 104.139C368.217 104.599 368.064 105.06 367.603 105.214C367.142 105.367 366.681 105.367 366.374 105.214C366.221 105.06 365.913 104.907 365.453 104.599C362.534 102.756 357.005 100.299 353.933 104.753C352.551 106.75 351.476 108.439 350.861 109.668C350.554 110.282 350.4 110.743 350.4 110.897C350.4 111.05 350.554 111.204 350.554 111.357C350.554 111.818 350.247 112.279 349.786 112.433C346.714 113.354 344.564 114.89 343.489 117.04C343.028 117.194 342.874 117.808 342.721 118.269Z" fill="black"/>
<path d="M343.642 318.555C339.342 315.023 332.43 326.082 332.43 326.082L330.126 318.709L338.574 315.637L343.642 318.555Z" fill="#060E12"/>
<path d="M343.643 318.556C343.643 318.556 350.861 319.478 353.626 327.157L356.545 320.86L348.097 314.255L343.643 318.556Z" fill="#060E12"/>
<path d="M343.642 318.555C340.878 311.951 333.198 318.863 332.43 326.081C332.43 326.081 326.133 323.778 321.218 313.18L331.048 305.039C331.048 305.039 332.43 308.879 335.963 311.951C339.495 315.023 343.642 318.555 343.642 318.555Z" fill="white"/>
<path d="M332.43 327.311C332.277 327.311 332.123 327.311 331.969 327.311C331.662 327.157 325.058 324.7 320.143 313.794C319.989 313.334 319.989 312.719 320.45 312.412L330.28 304.272C330.587 303.964 330.894 303.964 331.355 304.118C331.662 304.272 331.969 304.425 332.123 304.886C332.123 304.886 333.505 308.419 336.731 311.337C338.113 312.566 339.649 313.948 341.031 315.023C342.721 315.177 343.95 316.405 344.871 318.402C345.025 318.863 344.871 319.477 344.564 319.785C344.103 320.092 343.489 320.092 343.182 319.785C343.182 319.785 341.953 318.709 340.263 317.327C337.652 317.634 334.273 321.935 333.813 326.543C333.813 326.85 333.505 327.157 333.352 327.464C332.891 327.311 332.584 327.311 332.43 327.311ZM322.6 313.641C325.826 320.245 329.665 323.164 331.509 324.392C332.43 320.399 335.041 316.713 337.959 315.33C337.038 314.562 335.963 313.641 335.041 312.873C332.737 310.876 331.201 308.419 330.433 307.036L322.6 313.641Z" fill="black"/>
<path d="M343.643 318.556C345.486 311.952 353.933 316.406 353.626 327.158C353.626 327.158 363.149 326.85 375.129 310.877L363.763 303.658C363.763 303.658 355.623 310.416 349.633 313.488C347.943 314.409 346.407 315.484 345.179 317.02L343.643 318.556Z" fill="white"/>
<path d="M353.626 328.386C353.319 328.386 353.012 328.232 352.858 328.079C352.705 327.925 352.551 327.618 352.551 327.157C352.858 320.86 349.786 317.02 347.482 316.559C347.329 316.559 347.175 316.559 347.022 316.559C346.561 316.866 346.254 317.327 345.947 317.634L344.718 319.17C344.411 319.631 343.796 319.785 343.335 319.477C342.875 319.17 342.568 318.709 342.721 318.095C343.335 315.791 344.718 314.716 346.1 314.255C347.022 313.487 348.097 312.873 349.172 312.259C355.009 309.34 362.995 302.736 363.149 302.582C363.61 302.275 364.071 302.275 364.531 302.429L375.897 309.647C376.205 309.801 376.358 310.108 376.358 310.415C376.358 310.723 376.358 311.03 376.205 311.337C363.763 327.925 353.933 328.386 353.626 328.386ZM349.326 314.87C352.09 316.252 354.548 320.245 354.855 325.775C357.62 325.16 364.839 322.396 373.44 311.183L363.764 305.04C361.767 306.729 355.162 311.798 349.94 314.409C349.633 314.716 349.479 314.716 349.326 314.87Z" fill="black"/>
<path d="M339.649 352.346C339.496 352.346 339.496 352.346 339.649 352.346C338.881 352.346 338.42 351.732 338.42 351.117C338.42 350.196 339.803 327.003 341.339 318.248C341.492 317.634 342.107 317.173 342.721 317.327C343.335 317.48 343.796 318.095 343.643 318.709C342.107 327.464 340.724 351.117 340.724 351.271C340.724 351.885 340.264 352.346 339.649 352.346Z" fill="#060E12"/>
<path d="M321.218 269.713C319.375 269.713 316.303 269.406 315.381 267.102C314.613 265.259 315.688 261.726 317.378 256.043C317.992 254.046 318.607 251.896 319.221 249.899C319.375 249.285 319.989 248.978 320.603 249.131C321.218 249.285 321.525 249.899 321.371 250.514C320.91 252.51 320.142 254.661 319.528 256.811C318.453 260.497 316.917 265.105 317.531 266.334C317.992 267.409 320.45 267.563 322.139 267.409C322.754 267.409 323.368 267.87 323.368 268.484C323.368 269.099 322.907 269.713 322.293 269.713C322.293 269.559 321.832 269.713 321.218 269.713Z" fill="#060E12"/>
<path d="M357.62 258.808C357.312 258.808 357.005 258.654 356.698 258.347C356.237 257.886 356.391 257.118 356.852 256.657C358.695 255.121 359.463 252.357 359.309 250.206C359.309 248.978 359.002 248.21 358.695 247.902C358.695 247.902 358.541 248.056 358.387 248.21C357.927 248.67 357.159 248.67 356.698 248.21C356.237 247.749 356.237 246.981 356.698 246.52C357.773 245.445 358.695 245.599 359.309 245.752C360.077 245.906 360.999 246.674 361.306 248.67C361.92 251.742 360.999 256.197 358.08 258.5C358.08 258.654 357.927 258.808 357.62 258.808Z" fill="#060E12"/>
<path d="M313.077 231.468C312.924 231.468 312.77 231.468 312.616 231.314C308.162 229.011 302.94 222.406 302.633 216.723C302.326 213.498 303.554 210.886 306.012 209.197C306.473 208.89 307.241 208.89 307.548 209.504C307.855 209.965 307.855 210.733 307.241 211.04C305.398 212.422 304.63 214.265 304.783 216.569C305.244 221.638 309.698 227.321 313.692 229.318C314.306 229.625 314.46 230.239 314.152 230.854C313.845 231.161 313.384 231.468 313.077 231.468Z" fill="white"/>
<path d="M424.125 401.343C423.511 401.343 423.05 400.882 423.05 400.421C421.668 390.591 420.286 381.683 418.903 373.082C418.135 368.013 417.367 363.098 416.599 358.183C416.446 357.569 416.907 356.954 417.521 356.801C418.135 356.647 418.75 357.108 418.903 357.722C419.671 362.637 420.439 367.552 421.207 372.467C422.59 381.069 423.972 389.977 425.354 399.807C425.508 400.421 425.047 401.036 424.433 401.189C424.279 401.343 424.279 401.343 424.125 401.343Z" fill="#060E12"/>
<path d="M90.3659 408.562C89.7516 408.562 89.2908 408.101 89.2908 407.487C89.2908 406.873 89.7516 406.258 90.3659 406.258L134.14 401.958C134.755 401.958 135.369 402.418 135.369 403.033C135.369 403.647 134.908 404.261 134.294 404.261L90.3659 408.562Z" fill="#060E12"/>
<path d="M91.441 425.611C90.8267 425.611 90.366 425.15 90.366 424.69C90.2124 424.075 90.6731 423.461 91.2875 423.307L135.369 416.088C135.983 415.935 136.598 416.396 136.751 417.01C136.905 417.624 136.444 418.239 135.83 418.392L91.7482 425.611C91.5946 425.611 91.441 425.611 91.441 425.611Z" fill="#060E12"/>
<path d="M95.5881 439.742C94.9737 439.742 94.5129 439.281 94.5129 438.82C94.3593 438.206 94.8202 437.591 95.4345 437.591L133.372 432.369C133.987 432.216 134.601 432.676 134.601 433.291C134.755 433.905 134.294 434.519 133.679 434.519L95.7417 439.742C95.7417 439.742 95.7417 439.742 95.5881 439.742Z" fill="#060E12"/>
<path d="M371.596 140.233C371.289 140.233 370.982 140.08 370.675 139.772L348.097 111.511C347.636 111.05 347.789 110.282 348.25 109.822C348.711 109.361 349.479 109.514 349.94 109.975L372.518 138.237C372.979 138.697 372.825 139.465 372.364 139.926C372.211 140.233 371.904 140.233 371.596 140.233Z" fill="#060E12"/>
<path d="M384.037 135.779C383.577 135.779 383.27 135.625 382.962 135.165L365.913 104.753C365.606 104.139 365.76 103.524 366.374 103.217C366.989 102.91 367.603 103.063 367.91 103.678L384.959 134.089C385.266 134.704 385.113 135.318 384.498 135.625C384.498 135.779 384.191 135.779 384.037 135.779Z" fill="#060E12"/>
<path d="M398.168 129.635C397.708 129.635 397.247 129.328 397.093 128.867L384.959 101.067C384.652 100.452 384.959 99.8379 385.574 99.5307C386.188 99.2235 386.802 99.5307 387.11 100.145L399.244 127.946C399.551 128.56 399.244 129.174 398.629 129.481C398.476 129.481 398.322 129.635 398.168 129.635Z" fill="#060E12"/>
</g>
<g clip-path="url(#clip0_689_3975)">
<path d="M222.628 516.607V521.413C222.628 523.645 220.821 525.457 218.596 525.457H214.642C213.961 528.24 212.888 530.867 211.421 533.23L214.197 536.014C215.768 537.589 215.768 540.163 214.197 541.738L212.731 543.209L210.793 545.152C209.222 546.728 206.656 546.728 205.085 545.152L202.309 542.342C199.927 543.787 197.335 544.889 194.559 545.572V549.538C194.559 551.77 192.752 553.582 190.527 553.582H188.118V532.941C191.234 532.941 194.088 531.917 196.418 530.184C199.822 527.636 202.021 523.592 202.021 518.997C202.021 513.272 198.591 508.361 193.643 506.208C191.941 505.473 190.082 505.053 188.118 505.053V484.412H190.527C192.752 484.412 194.559 486.224 194.559 488.456V492.421C195.894 492.737 197.177 493.157 198.408 493.682C199.77 494.233 201.079 494.89 202.309 495.652L205.085 492.868C206.656 491.292 209.222 491.292 210.793 492.868L214.197 496.282C215.768 497.857 215.768 500.431 214.197 502.006L211.421 504.79C212.862 507.18 213.961 509.78 214.642 512.563H218.596C220.795 512.563 222.628 514.375 222.628 516.607Z" fill="#4D5699"/>
<path d="M188.144 483.887C188.144 483.887 188.144 484.071 188.144 484.412V551.743C188.144 556.549 184.033 560.541 179.242 560.541C174.45 560.541 170.549 556.654 170.549 551.822C170.549 551.218 170.601 550.64 170.732 550.089C164.762 549.695 160.049 544.732 160.049 538.666C160.049 538.036 160.101 537.432 160.206 536.828C160.154 536.828 160.075 536.828 160.023 536.828C155.99 536.828 152.744 533.545 152.744 529.527C152.744 527.873 153.293 526.35 154.21 525.142C150.23 523.514 147.376 519.68 147.114 515.163C147.114 514.927 147.088 514.716 147.088 514.48C147.088 510.804 148.816 507.547 151.461 505.42C152.665 504.475 154.053 503.766 155.571 503.346C154.55 501.429 153.974 499.249 153.974 496.938C153.974 489.48 160.023 483.414 167.459 483.414C168.873 483.414 170.234 483.624 171.517 484.044C171.517 483.992 171.517 483.939 171.517 483.887C171.517 479.265 175.235 475.536 179.844 475.536C184.426 475.536 188.144 479.291 188.144 483.887Z" fill="#1CA4E0"/>
<path d="M188.144 516.161V551.77C188.144 556.575 184.033 560.567 179.241 560.567C174.45 560.567 170.548 556.68 170.548 551.848C170.548 551.244 170.601 550.667 170.732 550.115C166.699 549.853 163.217 547.489 161.41 544.102C160.546 542.5 160.049 540.635 160.049 538.692C160.049 538.062 160.101 537.458 160.206 536.854C160.154 536.854 160.075 536.854 160.023 536.854C155.99 536.854 152.744 533.571 152.744 529.553C152.744 527.899 153.293 526.376 154.21 525.168C150.23 523.54 147.376 519.706 147.114 515.189C148.764 518.235 151.749 521.071 157.064 521.885C167.825 523.513 178.744 515.136 188.144 516.161Z" fill="#1F2763"/>
<path d="M188.144 535.593V551.77C188.144 556.575 184.033 560.567 179.242 560.567C174.45 560.567 170.549 556.68 170.549 551.848C170.549 551.244 170.601 550.667 170.732 550.115C166.7 549.853 163.217 547.489 161.41 544.102C161.646 544.312 172.748 556.024 188.144 535.593Z" fill="#1F2763"/>
<path d="M134.755 504.16C136.719 504.16 138.316 505.762 138.316 507.731C138.316 509.701 136.719 511.302 134.755 511.302C132.792 511.302 131.194 509.701 131.194 507.731C131.194 505.735 132.792 504.16 134.755 504.16Z" fill="#C5D6EA"/>
<path d="M227.158 497.857C229.121 497.857 230.719 499.459 230.719 501.429C230.719 503.398 229.121 505 227.158 505C225.194 505 223.597 503.398 223.597 501.429C223.597 499.459 225.194 497.857 227.158 497.857Z" fill="#009EF7"/>
<path d="M219.957 532.81C220.926 532.81 221.738 533.597 221.738 534.595C221.738 535.593 220.952 536.381 219.957 536.381C218.962 536.381 218.177 535.593 218.177 534.595C218.177 533.624 218.988 532.81 219.957 532.81Z" fill="#009EF7"/>
<path d="M228.938 553.319C229.907 553.319 230.719 554.107 230.719 555.105C230.719 556.102 229.933 556.89 228.938 556.89C227.943 556.89 227.158 556.102 227.158 555.105C227.158 554.133 227.969 553.319 228.938 553.319Z" fill="#009EF7"/>
<path d="M218.805 548.697C219.8 548.697 220.586 549.485 220.586 550.483C220.586 551.455 219.8 552.269 218.805 552.269C217.81 552.269 217.025 551.481 217.025 550.483C217.025 549.485 217.81 548.697 218.805 548.697Z" fill="#009EF7"/>
<path d="M136.536 555.945C137.531 555.945 138.316 556.733 138.316 557.731C138.316 558.728 137.531 559.516 136.536 559.516C135.567 559.516 134.755 558.728 134.755 557.731C134.755 556.759 135.541 555.945 136.536 555.945Z" fill="#009EF7"/>
<path d="M148.449 553.083C148.449 554.08 147.664 554.868 146.669 554.868C145.674 554.868 144.888 554.08 144.888 553.083C144.888 552.085 145.674 551.297 146.669 551.297C147.664 551.297 148.449 552.111 148.449 553.083Z" fill="#009EF7"/>
<path d="M139.05 546.255C140.018 546.255 140.83 547.043 140.83 548.041C140.83 549.012 140.045 549.826 139.05 549.826C138.055 549.826 137.269 549.038 137.269 548.041C137.269 547.043 138.055 546.255 139.05 546.255Z" fill="#009EF7"/>
<path d="M143.265 475.011C144.26 475.011 145.046 475.799 145.046 476.796C145.046 477.768 144.26 478.582 143.265 478.582C142.27 478.582 141.485 477.794 141.485 476.796C141.485 475.825 142.27 475.011 143.265 475.011Z" fill="#009EF7"/>
<path d="M147.9 488.771C148.883 488.771 149.68 487.972 149.68 486.985C149.68 485.999 148.883 485.2 147.9 485.2C146.916 485.2 146.119 485.999 146.119 486.985C146.119 487.972 146.916 488.771 147.9 488.771Z" fill="#009EF7"/>
<path d="M193.014 460.778C196.523 460.778 199.377 463.64 199.377 467.159C199.377 470.678 196.523 473.54 193.014 473.54C189.506 473.54 186.652 470.678 186.652 467.159C186.652 463.64 189.506 460.778 193.014 460.778Z" fill="white"/>
<path d="M147.638 531.549C147.638 533.493 147.062 535.278 146.093 536.801C144.365 539.48 141.38 541.239 137.976 541.239C136.012 541.239 134.206 540.662 132.661 539.637C132.111 539.27 131.613 538.85 131.142 538.403L131.168 538.377L137.976 531.549H147.638Z" fill="#F1416C"/>
<path d="M147.638 531.549H138.002V521.859C143.317 521.859 147.638 526.192 147.638 531.549Z" fill="#009EF7"/>
<path d="M131.194 538.351L131.168 538.377C129.414 536.618 128.34 534.202 128.34 531.523C128.34 526.166 132.661 521.833 138.002 521.833V531.523L131.194 538.351Z" fill="#F5F5F5"/>
<path d="M188.144 533.282C187.961 533.282 187.804 533.125 187.804 532.941C187.804 532.757 187.961 532.599 188.144 532.599C195.633 532.599 201.707 526.507 201.707 518.997C201.707 511.486 195.633 505.394 188.144 505.394C187.961 505.394 187.804 505.236 187.804 505.052C187.804 504.868 187.961 504.711 188.144 504.711C195.999 504.711 202.362 511.118 202.362 518.97C202.362 526.875 195.999 533.282 188.144 533.282Z" fill="#121321"/>
<path d="M190.553 553.923H188.144C187.961 553.923 187.804 553.765 187.804 553.581V551.743C187.804 551.559 187.961 551.402 188.144 551.402C188.327 551.402 188.484 551.559 188.484 551.743V553.24H190.553C192.595 553.24 194.245 551.586 194.245 549.537V545.598C194.245 545.441 194.349 545.309 194.507 545.283C197.23 544.627 199.796 543.55 202.178 542.106C202.309 542.027 202.493 542.053 202.597 542.158L205.373 544.968C206.813 546.412 209.169 546.412 210.61 544.968L214.013 541.554C214.72 540.845 215.087 539.926 215.087 538.928C215.087 537.93 214.694 537.011 214.013 536.302L211.238 533.518C211.133 533.413 211.107 533.23 211.186 533.098C212.626 530.709 213.699 528.135 214.354 525.404C214.38 525.247 214.537 525.141 214.668 525.141H218.596C220.638 525.141 222.287 523.487 222.287 521.439V516.633C222.287 514.585 220.638 512.93 218.596 512.93H214.642C214.485 512.93 214.354 512.825 214.328 512.668C213.673 509.937 212.6 507.363 211.159 504.974C211.081 504.842 211.107 504.658 211.212 504.553L213.987 501.77C214.694 501.061 215.061 500.142 215.061 499.144C215.061 498.146 214.668 497.227 213.987 496.518L210.583 493.104C209.143 491.66 206.787 491.66 205.347 493.104L202.571 495.888C202.466 495.993 202.283 496.019 202.152 495.94C199.796 494.496 197.203 493.419 194.48 492.763C194.323 492.736 194.219 492.579 194.219 492.447V488.482C194.219 486.434 192.569 484.779 190.527 484.779H188.118C187.934 484.779 187.777 484.622 187.777 484.438C187.777 484.254 187.934 484.097 188.118 484.097H190.527C192.936 484.097 194.899 486.066 194.899 488.482V492.159C197.518 492.815 199.979 493.839 202.283 495.231L204.875 492.631C206.577 490.924 209.353 490.924 211.055 492.631L214.459 496.045C215.27 496.859 215.742 497.962 215.742 499.144C215.742 500.326 215.296 501.428 214.459 502.243L211.866 504.842C213.228 507.153 214.275 509.622 214.93 512.248H218.596C221.004 512.248 222.968 514.217 222.968 516.633V521.439C222.968 523.855 221.004 525.824 218.596 525.824H214.904C214.249 528.424 213.228 530.919 211.84 533.23L214.432 535.829C215.244 536.643 215.715 537.746 215.715 538.928C215.715 540.11 215.27 541.213 214.432 542.027L211.028 545.441C209.327 547.148 206.551 547.148 204.849 545.441L202.257 542.841C199.953 544.206 197.492 545.257 194.873 545.913V549.537C194.899 551.953 192.962 553.923 190.553 553.923Z" fill="#121321"/>
<path d="M143.265 478.924C142.087 478.924 141.144 477.978 141.144 476.797C141.144 475.615 142.087 474.669 143.265 474.669C144.443 474.669 145.386 475.615 145.386 476.797C145.386 477.978 144.443 478.924 143.265 478.924ZM143.265 475.352C142.48 475.352 141.825 476.009 141.825 476.797C141.825 477.584 142.48 478.241 143.265 478.241C144.051 478.241 144.705 477.584 144.705 476.797C144.705 476.009 144.051 475.352 143.265 475.352Z" fill="#121321"/>
<path d="M147.9 489.086C146.721 489.086 145.779 488.141 145.779 486.959C145.779 485.777 146.721 484.832 147.9 484.832C149.078 484.832 150.021 485.777 150.021 486.959C149.994 488.141 149.052 489.086 147.9 489.086ZM147.9 485.515C147.114 485.515 146.46 486.171 146.46 486.959C146.46 487.747 147.114 488.403 147.9 488.403C148.685 488.403 149.34 487.747 149.34 486.959C149.34 486.171 148.685 485.515 147.9 485.515Z" fill="#121321"/>
<path d="M151.434 505.761C151.382 505.761 151.33 505.761 151.277 505.735L147.716 503.871C147.612 503.818 147.533 503.687 147.533 503.582V488.771C147.533 488.587 147.69 488.43 147.873 488.43C148.057 488.43 148.214 488.587 148.214 488.771V503.372L151.591 505.131C151.749 505.21 151.827 505.42 151.722 505.578C151.696 505.683 151.565 505.761 151.434 505.761Z" fill="#121321"/>
<path d="M147.874 496.465C147.769 496.465 147.664 496.413 147.586 496.308L142.977 489.559C142.951 489.506 142.925 489.428 142.925 489.375V478.582C142.925 478.398 143.082 478.241 143.265 478.241C143.448 478.241 143.606 478.398 143.606 478.582V489.27L148.162 495.94C148.266 496.098 148.214 496.308 148.083 496.413C148.004 496.465 147.926 496.465 147.874 496.465Z" fill="#121321"/>
<path d="M136.536 559.858C135.358 559.858 134.415 558.912 134.415 557.731C134.415 556.549 135.358 555.604 136.536 555.604C137.714 555.604 138.657 556.549 138.657 557.731C138.657 558.912 137.688 559.858 136.536 559.858ZM136.536 556.286C135.75 556.286 135.096 556.943 135.096 557.731C135.096 558.518 135.75 559.175 136.536 559.175C137.321 559.175 137.976 558.518 137.976 557.731C137.976 556.943 137.321 556.286 136.536 556.286Z" fill="#121321"/>
<path d="M139.05 550.168C137.871 550.168 136.929 549.222 136.929 548.041C136.929 546.859 137.871 545.914 139.05 545.914C140.228 545.914 141.17 546.859 141.17 548.041C141.17 549.196 140.202 550.168 139.05 550.168ZM139.05 546.596C138.264 546.596 137.609 547.253 137.609 548.041C137.609 548.828 138.264 549.485 139.05 549.485C139.835 549.485 140.49 548.828 140.49 548.041C140.49 547.227 139.835 546.596 139.05 546.596Z" fill="#121321"/>
<path d="M146.669 555.21C145.491 555.21 144.548 554.264 144.548 553.083C144.548 551.901 145.491 550.956 146.669 550.956C147.821 550.956 148.79 551.901 148.79 553.083C148.79 554.264 147.847 555.21 146.669 555.21ZM146.669 551.638C145.883 551.638 145.229 552.295 145.229 553.083C145.229 553.87 145.883 554.527 146.669 554.527C147.454 554.527 148.109 553.87 148.109 553.083C148.109 552.295 147.481 551.638 146.669 551.638Z" fill="#121321"/>
<path d="M163.217 553.424H148.45C148.266 553.424 148.109 553.266 148.109 553.083C148.109 552.899 148.266 552.741 148.45 552.741H163.008L165.312 548.33C165.39 548.172 165.6 548.093 165.757 548.198C165.914 548.277 165.993 548.487 165.888 548.645L163.505 553.24C163.453 553.345 163.348 553.424 163.217 553.424Z" fill="#121321"/>
<path d="M149.078 558.072H138.316C138.133 558.072 137.976 557.915 137.976 557.731C137.976 557.547 138.133 557.389 138.316 557.389H148.973L155.624 552.82C155.781 552.715 155.99 552.768 156.095 552.899C156.2 553.056 156.148 553.266 156.017 553.372L149.287 557.993C149.209 558.046 149.13 558.072 149.078 558.072Z" fill="#121321"/>
<path d="M228.938 557.232C227.76 557.232 226.817 556.286 226.817 555.105C226.817 553.923 227.76 552.978 228.938 552.978C230.117 552.978 231.059 553.923 231.059 555.105C231.059 556.286 230.117 557.232 228.938 557.232ZM228.938 553.66C228.153 553.66 227.498 554.317 227.498 555.105C227.498 555.892 228.153 556.549 228.938 556.549C229.724 556.549 230.378 555.892 230.378 555.105C230.378 554.317 229.724 553.66 228.938 553.66Z" fill="#121321"/>
<path d="M218.805 552.584C217.627 552.584 216.684 551.638 216.684 550.457C216.684 549.275 217.627 548.33 218.805 548.33C219.983 548.33 220.926 549.275 220.926 550.457C220.9 551.638 219.957 552.584 218.805 552.584ZM218.805 549.012C218.02 549.012 217.365 549.669 217.365 550.457C217.365 551.244 218.02 551.901 218.805 551.901C219.591 551.901 220.245 551.244 220.245 550.457C220.245 549.669 219.591 549.012 218.805 549.012Z" fill="#121321"/>
<path d="M217.025 550.798H202.257C202.126 550.798 202.021 550.719 201.969 550.614L198.67 544.285C198.591 544.128 198.644 543.918 198.801 543.839C198.958 543.76 199.167 543.813 199.246 543.97L202.44 550.141H217.025C217.208 550.141 217.365 550.299 217.365 550.483C217.365 550.667 217.208 550.798 217.025 550.798Z" fill="#121321"/>
<path d="M227.158 555.446H216.396C216.318 555.446 216.265 555.42 216.213 555.394L209.484 550.772C209.327 550.667 209.3 550.457 209.405 550.299C209.51 550.141 209.719 550.115 209.876 550.22L216.527 554.79H227.184C227.367 554.79 227.524 554.947 227.524 555.131C227.524 555.315 227.341 555.446 227.158 555.446Z" fill="#121321"/>
<path d="M189.741 473.908C186.049 473.908 183.038 470.888 183.038 467.185C183.038 463.482 186.049 460.462 189.741 460.462C193.433 460.462 196.444 463.482 196.444 467.185C196.444 470.888 193.459 473.908 189.741 473.908ZM189.741 461.119C186.416 461.119 183.719 463.824 183.719 467.185C183.719 470.52 186.416 473.251 189.741 473.251C193.066 473.251 195.79 470.546 195.79 467.185C195.79 463.85 193.066 461.119 189.741 461.119Z" fill="#121321"/>
<path d="M227.158 505.341C225.011 505.341 223.256 503.582 223.256 501.428C223.256 499.275 225.011 497.516 227.158 497.516C229.305 497.516 231.059 499.275 231.059 501.428C231.059 503.582 229.305 505.341 227.158 505.341ZM227.158 498.198C225.377 498.198 223.937 499.643 223.937 501.428C223.937 503.214 225.377 504.658 227.158 504.658C228.938 504.658 230.378 503.214 230.378 501.428C230.378 499.643 228.938 498.198 227.158 498.198Z" fill="#121321"/>
<path d="M134.755 511.618C132.608 511.618 130.854 509.858 130.854 507.705C130.854 505.551 132.608 503.792 134.755 503.792C136.902 503.792 138.657 505.551 138.657 507.705C138.657 509.858 136.902 511.618 134.755 511.618ZM134.755 504.475C132.975 504.475 131.535 505.919 131.535 507.705C131.535 509.49 132.975 510.935 134.755 510.935C136.536 510.935 137.976 509.49 137.976 507.705C137.976 505.945 136.536 504.475 134.755 504.475Z" fill="#121321"/>
<path d="M219.957 536.722C218.779 536.722 217.836 535.777 217.836 534.595C217.836 533.414 218.779 532.468 219.957 532.468C221.136 532.468 222.078 533.414 222.078 534.595C222.078 535.777 221.136 536.722 219.957 536.722ZM219.957 533.151C219.172 533.151 218.517 533.808 218.517 534.595C218.517 535.383 219.172 536.04 219.957 536.04C220.743 536.04 221.397 535.383 221.397 534.595C221.397 533.808 220.769 533.151 219.957 533.151Z" fill="#121321"/>
<path d="M161.62 553.424C161.541 553.424 161.437 553.398 161.384 553.319L156.436 548.356H140.83C140.647 548.356 140.49 548.198 140.49 548.014C140.49 547.83 140.647 547.673 140.83 547.673H156.567C156.645 547.673 156.75 547.699 156.802 547.778L161.856 552.846C161.987 552.977 161.987 553.188 161.856 553.319C161.777 553.398 161.699 553.424 161.62 553.424Z" fill="#121321"/>
<path d="M179.242 560.882C174.267 560.882 170.234 556.838 170.234 551.848C170.234 551.376 170.261 550.877 170.339 550.404C164.343 549.826 159.709 544.732 159.709 538.666C159.709 538.167 159.735 537.668 159.813 537.169C155.702 537.064 152.403 533.676 152.403 529.527C152.403 528.004 152.848 526.534 153.686 525.273C149.444 523.356 146.748 519.154 146.748 514.48C146.748 510.83 148.397 507.416 151.251 505.158C152.403 504.239 153.686 503.556 155.1 503.136C154.158 501.219 153.634 499.092 153.634 496.938C153.634 489.296 159.839 483.073 167.459 483.073C168.716 483.073 169.973 483.23 171.177 483.572C171.334 478.924 175.157 475.168 179.844 475.168C184.609 475.168 188.511 479.055 188.511 483.861V551.717C188.484 556.707 184.243 560.882 179.242 560.882ZM160.206 536.486C160.311 536.486 160.389 536.539 160.468 536.591C160.546 536.67 160.573 536.775 160.546 536.854C160.442 537.458 160.415 538.036 160.415 538.64C160.415 544.496 164.971 549.354 170.784 549.748C170.889 549.748 170.968 549.8 171.02 549.879C171.072 549.958 171.098 550.063 171.072 550.141C170.968 550.693 170.915 551.244 170.915 551.822C170.915 556.444 174.659 560.199 179.268 560.199C183.902 560.199 187.83 556.339 187.83 551.743V483.887C187.83 479.475 184.243 475.877 179.844 475.877C175.445 475.877 171.858 479.475 171.858 483.887C171.858 483.913 171.858 483.939 171.858 483.966V484.018C171.858 484.123 171.805 484.228 171.727 484.307C171.648 484.386 171.517 484.386 171.413 484.36C170.13 483.966 168.82 483.756 167.459 483.756C160.206 483.756 154.315 489.664 154.315 496.938C154.315 499.118 154.865 501.271 155.886 503.188C155.938 503.267 155.938 503.398 155.886 503.477C155.833 503.582 155.755 503.635 155.676 503.661C154.21 504.055 152.875 504.738 151.67 505.683C148.973 507.81 147.402 511.014 147.402 514.48C147.402 519.023 150.125 523.093 154.315 524.827C154.419 524.879 154.472 524.958 154.498 525.037C154.524 525.142 154.498 525.247 154.446 525.326C153.529 526.534 153.058 527.978 153.058 529.501C153.058 533.335 156.174 536.486 160.023 536.486C160.049 536.486 160.101 536.486 160.127 536.486H160.206Z" fill="#121321"/>
<path d="M163.898 508.046C161.908 508.046 160.285 507.495 159.08 506.864C156.593 505.551 155.336 503.608 155.283 503.529C155.179 503.372 155.231 503.162 155.388 503.057C155.545 502.952 155.755 503.004 155.86 503.162C155.86 503.188 157.09 505.052 159.447 506.287C162.589 507.941 166.124 507.757 169.999 505.735C170.156 505.656 170.365 505.709 170.444 505.866C170.522 506.024 170.47 506.234 170.313 506.313C167.852 507.6 165.731 508.046 163.898 508.046Z" fill="#121321"/>
<path d="M177.513 511.539C177.304 511.513 177.173 511.355 177.173 511.171C177.356 508.414 176.754 506.97 176.126 505.447C175.288 503.477 174.45 501.429 175.576 496.387C177.461 488.062 171.386 484.36 171.308 484.307C171.151 484.202 171.098 484.018 171.203 483.834C171.308 483.677 171.491 483.624 171.674 483.729C171.753 483.782 173.35 484.727 174.738 486.802C175.995 488.719 177.304 491.949 176.257 496.518C175.157 501.324 175.942 503.188 176.78 505.158C177.409 506.681 178.063 508.257 177.88 511.171C177.828 511.408 177.697 511.539 177.513 511.539Z" fill="#121321"/>
<path d="M183.719 505.788C180.917 505.788 179.791 503.503 179.791 503.477C179.713 503.319 179.791 503.109 179.948 503.03C180.106 502.952 180.315 503.03 180.394 503.188C180.446 503.319 181.834 506.077 185.683 504.737C185.866 504.685 186.049 504.764 186.102 504.947C186.154 505.131 186.075 505.315 185.892 505.368C185.08 505.683 184.373 505.788 183.719 505.788Z" fill="#121321"/>
<path d="M172.015 540.95C165.757 540.95 164.474 537.957 162.563 533.519C162.406 533.177 162.248 532.81 162.091 532.468C160.128 528.004 154.131 525.457 154.079 525.431C153.896 525.352 153.817 525.168 153.896 524.984C153.974 524.8 154.158 524.722 154.341 524.8C154.603 524.905 160.651 527.479 162.72 532.18C162.877 532.547 163.034 532.889 163.191 533.23C165.181 537.799 166.385 540.583 173.167 540.215C173.35 540.215 173.507 540.347 173.507 540.53C173.507 540.714 173.376 540.872 173.193 540.872C172.774 540.95 172.382 540.95 172.015 540.95Z" fill="#121321"/>
<path d="M167.59 528.03C167.537 528.03 167.485 528.03 167.433 527.978C167.276 527.899 167.197 527.689 167.302 527.531C167.328 527.479 170.365 521.964 177.618 523.697C177.802 523.75 177.906 523.934 177.854 524.091C177.802 524.275 177.618 524.38 177.461 524.328C170.732 522.726 168.009 527.61 167.904 527.82C167.826 527.978 167.721 528.03 167.59 528.03Z" fill="#121321"/>
<path d="M158.923 519.338C158.792 519.338 158.687 519.259 158.609 519.154C158.53 518.997 158.609 518.787 158.766 518.708C162.274 517.027 161.332 513.771 161.279 513.614C161.227 513.43 161.332 513.246 161.489 513.193C161.672 513.141 161.855 513.246 161.908 513.403C161.908 513.43 163.086 517.369 159.028 519.286C159.028 519.338 158.975 519.338 158.923 519.338Z" fill="#121321"/>
<path d="M170.732 550.43C170.706 550.43 170.706 550.43 170.68 550.43C170.496 550.404 170.365 550.247 170.392 550.063C170.392 550.01 171.256 544.443 177.487 543.813C177.671 543.787 177.828 543.918 177.854 544.102C177.88 544.286 177.749 544.443 177.566 544.469C171.832 545.047 171.072 550.089 171.046 550.142C171.046 550.299 170.889 550.43 170.732 550.43Z" fill="#121321"/>
<path d="M182.933 547.042H182.907C182.724 547.016 182.593 546.859 182.593 546.675C182.933 542.683 181.022 541.764 180.996 541.738C180.839 541.659 180.76 541.449 180.839 541.291C180.917 541.134 181.127 541.055 181.284 541.134C181.389 541.186 183.64 542.263 183.248 546.727C183.248 546.911 183.117 547.042 182.933 547.042Z" fill="#121321"/>
<path d="M181.153 534.911C181.127 534.911 181.101 534.911 181.048 534.884C180.865 534.832 180.76 534.648 180.813 534.464C180.839 534.412 182.645 528.477 188.17 529.238C188.353 529.265 188.484 529.422 188.458 529.606C188.432 529.79 188.275 529.921 188.092 529.895C183.169 529.238 181.546 534.438 181.467 534.648C181.441 534.806 181.31 534.911 181.153 534.911Z" fill="#121321"/>
<path d="M185.08 492.29C183.85 492.29 182.907 492.001 182.855 491.975C182.672 491.922 182.593 491.739 182.645 491.555C182.698 491.371 182.881 491.292 183.064 491.345C183.09 491.345 185.814 492.185 188.013 490.898C188.17 490.793 188.38 490.846 188.484 491.03C188.589 491.187 188.537 491.397 188.353 491.502C187.227 492.106 186.049 492.29 185.08 492.29Z" fill="#121321"/>
<path d="M200.843 563.351C200.843 562.353 201.655 561.539 202.65 561.539C203.645 561.539 204.456 562.353 204.456 563.351C204.456 564.348 203.645 565.162 202.65 565.162C201.655 565.162 200.843 564.348 200.843 563.351Z" fill="#6A5DDD"/>
<path d="M187.777 563.351C187.777 562.353 188.589 561.539 189.584 561.539C190.579 561.539 191.391 562.353 191.391 563.351C191.391 564.348 190.579 565.162 189.584 565.162C188.589 565.162 187.777 564.348 187.777 563.351Z" fill="#6A5DDD"/>
<path d="M194.323 563.351C194.323 562.353 195.135 561.539 196.13 561.539C197.125 561.539 197.937 562.353 197.937 563.351C197.937 564.348 197.125 565.162 196.13 565.162C195.135 565.162 194.323 564.348 194.323 563.351Z" fill="#6A5DDD"/>
<path d="M235.249 542.736C230.771 542.736 227.132 539.086 227.132 534.595C227.132 530.105 230.771 526.455 235.249 526.455C239.726 526.455 243.365 530.105 243.365 534.595C243.392 539.06 239.752 542.736 235.249 542.736ZM235.249 527.768C231.504 527.768 228.467 530.814 228.467 534.569C228.467 538.324 231.504 541.37 235.249 541.37C238.993 541.37 242.03 538.324 242.03 534.569C242.056 530.814 238.993 527.768 235.249 527.768Z" fill="white"/>
<path d="M243.235 514.611C242.475 514.611 241.873 513.981 241.873 513.246V506.471C241.873 505.709 242.501 505.105 243.235 505.105C243.994 505.105 244.596 505.735 244.596 506.471V513.246C244.622 513.981 243.994 514.611 243.235 514.611Z" fill="white"/>
<path d="M238.495 509.832C238.495 509.07 239.124 508.466 239.857 508.466H246.612C247.372 508.466 247.974 509.097 247.974 509.832C247.974 510.593 247.345 511.197 246.612 511.197H239.857C239.098 511.224 238.495 510.593 238.495 509.832Z" fill="white"/>
<path d="M245.12 469.26H243.156C243.077 468.945 242.999 468.629 242.894 468.341C242.58 467.316 242.109 466.319 241.559 465.426L242.946 464.034C243.732 463.246 243.732 461.986 242.946 461.198L241.271 459.517C240.485 458.729 239.228 458.729 238.443 459.517L237.055 460.909C235.877 460.2 234.594 459.648 233.206 459.307V457.338C233.206 456.235 232.316 455.342 231.216 455.342H228.833C227.734 455.342 226.843 456.235 226.843 457.338V459.307C225.456 459.648 224.173 460.174 222.994 460.909L221.607 459.517C220.821 458.729 219.564 458.729 218.779 459.517L217.103 461.198C216.318 461.986 216.318 463.246 217.103 464.034L218.491 465.426C217.784 466.607 217.234 467.894 216.894 469.286H214.93C214.904 469.286 214.904 469.286 214.878 469.286C213.804 469.312 212.94 470.205 212.94 471.282V473.645C212.94 474.748 213.83 475.641 214.93 475.641H216.894C217.234 477.033 217.758 478.32 218.491 479.501L217.103 480.893C216.318 481.681 216.318 482.941 217.103 483.729L218.779 485.41C219.564 486.198 220.821 486.198 221.607 485.41L222.994 484.018C224.173 484.727 225.456 485.278 226.843 485.62V487.589C226.843 488.692 227.734 489.585 228.833 489.585H231.216C232.316 489.585 233.206 488.692 233.206 487.589V485.62C234.594 485.278 235.877 484.753 237.055 484.018L238.443 485.41C239.228 486.198 240.485 486.198 241.271 485.41L242.946 483.729C243.732 482.941 243.732 481.681 242.946 480.893L241.559 479.501C242.266 478.32 242.816 477.033 243.156 475.641H245.12C246.219 475.641 247.11 474.748 247.11 473.645V471.282C247.11 470.179 246.219 469.26 245.12 469.26ZM230.038 479.37C226.241 479.37 223.152 476.271 223.152 472.463C223.152 472.332 223.152 472.201 223.152 472.07C223.361 468.446 226.346 465.557 230.012 465.557C233.389 465.557 236.191 467.999 236.767 471.203C236.846 471.623 236.872 472.043 236.872 472.463C236.924 476.271 233.835 479.37 230.038 479.37Z" fill="#F1416C"/>
<path d="M242.947 464.034L241.559 465.426C242.109 466.345 242.554 467.316 242.894 468.341C241.166 469.522 239.098 470.494 236.793 471.203C236.191 467.999 233.39 465.557 230.038 465.557C226.372 465.557 223.361 468.446 223.178 472.07C220.088 471.571 217.26 470.599 214.904 469.286C214.93 469.286 214.93 469.286 214.956 469.286H216.92C217.26 467.894 217.784 466.607 218.517 465.426L217.129 464.034C216.344 463.246 216.344 461.986 217.129 461.198L218.805 459.517C219.591 458.729 220.848 458.729 221.633 459.517L223.021 460.909C224.199 460.2 225.482 459.648 226.87 459.307V457.338C226.87 456.235 227.76 455.342 228.86 455.342H231.242C232.342 455.342 233.232 456.235 233.232 457.338V459.307C234.62 459.648 235.903 460.174 237.081 460.909L238.469 459.517C239.255 458.729 240.511 458.729 241.297 459.517L242.973 461.198C243.732 461.986 243.732 463.246 242.947 464.034Z" fill="#1F2763"/>
<path d="M230.038 479.711C226.058 479.711 222.811 476.455 222.811 472.464C222.811 468.472 226.058 465.216 230.038 465.216C234.018 465.216 237.265 468.472 237.265 472.464C237.265 476.455 234.018 479.711 230.038 479.711ZM230.038 465.899C226.425 465.899 223.492 468.84 223.492 472.464C223.492 476.088 226.425 479.029 230.038 479.029C233.651 479.029 236.584 476.088 236.584 472.464C236.584 468.84 233.651 465.899 230.038 465.899Z" fill="#121321"/>
<path d="M231.216 489.927H228.834C227.551 489.927 226.503 488.876 226.503 487.589V485.883C225.299 485.567 224.12 485.095 223.047 484.438L221.842 485.646C221.397 486.093 220.821 486.329 220.193 486.329C219.564 486.329 218.988 486.093 218.543 485.646L216.868 483.966C215.951 483.046 215.951 481.576 216.868 480.657L218.072 479.449C217.444 478.372 216.972 477.19 216.632 475.982H214.93C213.647 475.982 212.6 474.932 212.6 473.645V471.282C212.6 469.995 213.647 468.945 214.93 468.945H216.632C216.946 467.737 217.444 466.555 218.072 465.478L216.868 464.27C215.951 463.351 215.951 461.881 216.868 460.962L218.543 459.281C219.46 458.362 220.926 458.362 221.842 459.281L223.047 460.489C224.12 459.859 225.299 459.386 226.503 459.045V457.338C226.503 456.051 227.551 455 228.834 455H231.216C232.499 455 233.547 456.051 233.547 457.338V459.045C234.751 459.36 235.929 459.859 237.003 460.489L238.207 459.281C239.124 458.362 240.59 458.362 241.506 459.281L243.182 460.962C243.627 461.408 243.863 461.986 243.863 462.616C243.863 463.246 243.627 463.824 243.182 464.27L241.978 465.478C242.606 466.555 243.104 467.737 243.418 468.945H245.12C246.403 468.945 247.45 469.995 247.45 471.282V473.645C247.45 474.932 246.403 475.982 245.12 475.982H243.418C243.104 477.19 242.632 478.372 241.978 479.449L243.182 480.657C243.627 481.103 243.863 481.681 243.863 482.311C243.863 482.941 243.627 483.519 243.182 483.966L241.506 485.646C240.59 486.565 239.124 486.565 238.207 485.646L237.003 484.438C235.929 485.068 234.751 485.541 233.547 485.883V487.589C233.547 488.876 232.525 489.927 231.216 489.927ZM222.995 483.703C223.047 483.703 223.125 483.729 223.178 483.755C224.33 484.464 225.587 484.99 226.922 485.305C227.079 485.331 227.184 485.489 227.184 485.62V487.589C227.184 488.509 227.917 489.27 228.834 489.27H231.216C232.133 489.27 232.866 488.535 232.866 487.589V485.62C232.866 485.462 232.971 485.331 233.128 485.305C234.463 484.99 235.72 484.464 236.872 483.755C237.003 483.677 237.186 483.703 237.291 483.808L238.679 485.2C239.333 485.856 240.381 485.856 241.035 485.2L242.711 483.519C243.025 483.204 243.208 482.784 243.208 482.337C243.208 481.891 243.025 481.471 242.711 481.156L241.323 479.764C241.218 479.659 241.192 479.475 241.271 479.344C241.978 478.188 242.501 476.928 242.816 475.589C242.842 475.431 242.999 475.326 243.13 475.326H245.094C246.01 475.326 246.743 474.591 246.743 473.672V471.282C246.743 470.363 246.01 469.627 245.094 469.627H243.13C242.973 469.627 242.842 469.522 242.816 469.365C242.501 468.026 241.978 466.765 241.271 465.61C241.192 465.478 241.218 465.295 241.323 465.189L242.711 463.798C243.025 463.483 243.208 463.062 243.208 462.616C243.208 462.17 243.025 461.749 242.711 461.434L241.035 459.754C240.381 459.097 239.333 459.097 238.679 459.754L237.291 461.145C237.186 461.25 237.003 461.277 236.872 461.198C235.72 460.489 234.463 459.964 233.128 459.649C232.971 459.622 232.866 459.465 232.866 459.333V457.338C232.866 456.419 232.133 455.683 231.216 455.683H228.834C227.917 455.683 227.184 456.419 227.184 457.338V459.307C227.184 459.465 227.079 459.596 226.922 459.622C225.587 459.937 224.33 460.463 223.178 461.172C223.047 461.25 222.864 461.224 222.759 461.119L221.371 459.727C220.717 459.071 219.669 459.071 219.015 459.727L217.339 461.408C216.684 462.064 216.684 463.115 217.339 463.771L218.727 465.163C218.831 465.268 218.858 465.452 218.779 465.583C218.072 466.739 217.548 468.026 217.234 469.339C217.208 469.496 217.051 469.601 216.92 469.601H214.956C214.04 469.601 213.307 470.336 213.307 471.256V473.645C213.307 474.564 214.04 475.3 214.956 475.3H216.92C217.077 475.3 217.208 475.405 217.234 475.562C217.548 476.902 218.072 478.162 218.779 479.317C218.858 479.449 218.831 479.633 218.727 479.738L217.339 481.129C216.684 481.786 216.684 482.836 217.339 483.493L219.015 485.174C219.329 485.489 219.748 485.672 220.193 485.672C220.638 485.672 221.057 485.489 221.371 485.174L222.759 483.782C222.837 483.729 222.916 483.703 222.995 483.703Z" fill="#121321"/>
<path opacity="0.37" d="M134.729 529.317C133.656 531.155 131.954 532.153 130.906 531.549C129.859 530.945 129.859 528.949 130.932 527.111C132.006 525.273 133.708 524.275 134.755 524.879C135.803 525.483 135.776 527.479 134.729 529.317Z" fill="white"/>
<path d="M232.787 497.279C231.53 497.279 230.535 496.255 230.535 495.021C230.535 493.761 231.557 492.763 232.787 492.763C234.044 492.763 235.039 493.787 235.039 495.021C235.039 496.282 234.044 497.279 232.787 497.279ZM232.787 494.102C232.29 494.102 231.871 494.522 231.871 495.021C231.871 495.52 232.29 495.94 232.787 495.94C233.285 495.94 233.704 495.52 233.704 495.021C233.704 494.522 233.285 494.102 232.787 494.102Z" fill="white"/>
<path d="M164.71 562.983C164.579 562.983 164.448 562.93 164.343 562.825C164.16 562.641 164.16 562.3 164.343 562.116L166.281 560.173C166.464 559.989 166.804 559.989 166.988 560.173C167.171 560.357 167.171 560.698 166.988 560.882L165.05 562.825C164.971 562.93 164.841 562.983 164.71 562.983Z" fill="white"/>
<path d="M160.703 567C160.573 567 160.442 566.948 160.337 566.843C160.154 566.659 160.154 566.318 160.337 566.134L162.275 564.191C162.458 564.007 162.798 564.007 162.981 564.191C163.165 564.374 163.165 564.716 162.981 564.9L161.044 566.843C160.965 566.948 160.834 567 160.703 567Z" fill="white"/>
<path d="M166.647 567C166.516 567 166.385 566.948 166.281 566.843L164.343 564.9C164.16 564.716 164.16 564.374 164.343 564.191C164.526 564.007 164.867 564.007 165.05 564.191L166.988 566.134C167.171 566.318 167.171 566.659 166.988 566.843C166.883 566.948 166.752 567 166.647 567Z" fill="white"/>
<path d="M162.615 562.983C162.484 562.983 162.353 562.93 162.248 562.825L160.311 560.882C160.128 560.698 160.128 560.357 160.311 560.173C160.494 559.989 160.834 559.989 161.018 560.173L162.955 562.116C163.139 562.3 163.139 562.641 162.955 562.825C162.877 562.93 162.746 562.983 162.615 562.983Z" fill="white"/>
<path d="M138.002 541.554C135.331 541.554 132.818 540.504 130.933 538.613C129.047 536.722 128 534.228 128 531.549C128 526.034 132.477 521.518 138.002 521.518C143.501 521.518 148.004 526.008 148.004 531.549C147.978 537.064 143.501 541.554 138.002 541.554ZM131.404 538.14C133.158 539.9 135.515 540.871 138.002 540.871C143.134 540.871 147.324 536.67 147.324 531.523C147.324 526.376 143.134 522.174 138.002 522.174C132.87 522.174 128.681 526.376 128.681 531.523C128.681 534.044 129.65 536.381 131.404 538.14Z" fill="#121321"/>
</g>
<defs>
<clipPath id="clip0_689_3975">
<rect width="120" height="112" fill="white" transform="translate(128 455)"/>
</clipPath>
</defs>
</svg>
