<svg width="2398" height="2804" viewBox="0 0 2398 2804" fill="none" xmlns="http://www.w3.org/2000/svg">
<path d="M1989.35 519.013L1844.93 465.48L1791 288.484C1789.98 285.159 1787.93 282.25 1785.13 280.183C1782.34 278.116 1778.96 277 1775.49 277C1772.01 277 1768.63 278.116 1765.84 280.183C1763.05 282.25 1760.99 285.159 1759.97 288.484L1706.06 465.48L1561.62 519.013C1558.51 520.165 1555.83 522.243 1553.93 524.969C1552.04 527.694 1551.02 530.936 1551.02 534.257C1551.02 537.579 1552.04 540.821 1553.93 543.546C1555.83 546.272 1558.51 548.35 1561.62 549.501L1705.98 603.018L1759.92 785.41C1760.92 788.772 1762.97 791.722 1765.78 793.82C1768.58 795.917 1771.99 797.05 1775.49 797.048C1778.99 797.046 1782.4 795.91 1785.21 793.81C1788.01 791.709 1790.06 788.757 1791.05 785.394L1844.99 603.002L1989.37 549.485C1992.49 548.343 1995.18 546.268 1997.08 543.542C1998.98 540.816 2000 537.57 2000 534.244C2000 530.918 1998.98 527.673 1997.07 524.948C1995.17 522.224 1992.47 520.152 1989.35 519.013Z" fill="#FFAC33"/>
<path d="M1664.86 697.607L1627.26 683.704L1612.64 630.108C1611.72 626.654 1609.69 623.6 1606.86 621.42C1604.02 619.24 1600.55 618.058 1596.97 618.056C1593.4 618.054 1589.92 619.233 1587.09 621.41C1584.25 623.587 1582.22 626.639 1581.3 630.092L1566.68 683.688L1529.1 697.591C1525.98 698.741 1523.29 700.818 1521.4 703.542C1519.5 706.266 1518.48 709.506 1518.48 712.825C1518.48 716.144 1519.5 719.384 1521.4 722.108C1523.29 724.832 1525.98 726.909 1529.1 728.059L1566.48 741.913L1581.22 800.739C1582.1 804.25 1584.13 807.366 1586.99 809.592C1589.84 811.818 1593.36 813.026 1596.98 813.024C1600.6 813.022 1604.12 811.81 1606.98 809.582C1609.83 807.353 1611.86 804.235 1612.74 800.723L1627.47 741.897L1664.86 728.043C1667.98 726.907 1670.68 724.838 1672.59 722.115C1674.5 719.393 1675.52 716.149 1675.52 712.825C1675.52 709.501 1674.5 706.257 1672.59 703.535C1670.68 700.812 1667.98 698.743 1664.86 697.607ZM1594.38 345.773L1555.97 331.562L1541.74 293.151C1540.59 290.03 1538.52 287.336 1535.79 285.433C1533.07 283.529 1529.82 282.509 1526.5 282.509C1523.17 282.509 1519.93 283.529 1517.2 285.433C1514.48 287.336 1512.4 290.03 1511.26 293.151L1497.04 331.562L1458.62 345.773C1455.5 346.923 1452.81 349 1450.92 351.724C1449.02 354.448 1448 357.688 1448 361.007C1448 364.326 1449.02 367.566 1450.92 370.29C1452.81 373.014 1455.5 375.091 1458.62 376.241L1497.04 390.452L1511.26 428.863C1512.41 431.977 1514.49 434.663 1517.21 436.56C1519.93 438.457 1523.18 439.474 1526.5 439.474C1529.82 439.474 1533.06 438.457 1535.78 436.56C1538.51 434.663 1540.58 431.977 1541.74 428.863L1555.95 390.452L1594.38 376.241C1597.49 375.091 1600.18 373.014 1602.08 370.29C1603.97 367.566 1604.99 364.326 1604.99 361.007C1604.99 357.688 1603.97 354.448 1602.08 351.724C1600.18 349 1597.49 346.923 1594.38 345.773Z" fill="#FFCC4D"/>
<path d="M1958.5 1768.53L1935.35 1759.98L1926.35 1726.98C1925.79 1724.86 1924.54 1722.98 1922.79 1721.63C1921.05 1720.29 1918.91 1719.56 1916.71 1719.56C1914.51 1719.56 1912.37 1720.29 1910.62 1721.63C1908.88 1722.97 1907.62 1724.85 1907.06 1726.97L1898.06 1759.97L1874.92 1768.52C1873 1769.23 1871.35 1770.51 1870.18 1772.19C1869.01 1773.86 1868.39 1775.86 1868.39 1777.9C1868.39 1779.95 1869.01 1781.94 1870.18 1783.62C1871.35 1785.29 1873 1786.57 1874.92 1787.28L1897.94 1795.81L1907.01 1832.02C1907.55 1834.18 1908.8 1836.1 1910.56 1837.47C1912.32 1838.84 1914.48 1839.59 1916.71 1839.58C1918.94 1839.58 1921.11 1838.84 1922.87 1837.47C1924.62 1836.09 1925.87 1834.17 1926.41 1832.01L1935.48 1795.8L1958.5 1787.27C1960.42 1786.57 1962.08 1785.3 1963.26 1783.62C1964.43 1781.95 1965.06 1779.95 1965.06 1777.9C1965.06 1775.86 1964.43 1773.86 1963.26 1772.18C1962.08 1770.51 1960.42 1769.23 1958.5 1768.53ZM1915.11 1551.95L1891.47 1543.2L1882.7 1519.55C1882 1517.63 1880.72 1515.97 1879.04 1514.8C1877.37 1513.63 1875.37 1513 1873.32 1513C1871.28 1513 1869.28 1513.63 1867.6 1514.8C1865.92 1515.97 1864.64 1517.63 1863.94 1519.55L1855.19 1543.2L1831.53 1551.95C1829.62 1552.65 1827.96 1553.93 1826.79 1555.61C1825.63 1557.29 1825 1559.28 1825 1561.32C1825 1563.37 1825.63 1565.36 1826.79 1567.04C1827.96 1568.71 1829.62 1569.99 1831.53 1570.7L1855.19 1579.45L1863.94 1603.1C1864.65 1605.01 1865.93 1606.67 1867.61 1607.83C1869.28 1609 1871.28 1609.63 1873.32 1609.63C1875.37 1609.63 1877.36 1609 1879.04 1607.83C1880.72 1606.67 1882 1605.01 1882.7 1603.1L1891.46 1579.45L1915.11 1570.7C1917.03 1569.99 1918.68 1568.71 1919.85 1567.04C1921.02 1565.36 1921.64 1563.37 1921.64 1561.32C1921.64 1559.28 1921.02 1557.29 1919.85 1555.61C1918.68 1553.93 1917.03 1552.65 1915.11 1551.95Z" fill="#FFCC4D"/>
<path d="M287.004 1757.39L270.354 1775.6L236.401 1771.5C234.219 1771.23 232.005 1771.68 230.105 1772.79C228.205 1773.89 226.725 1775.6 225.894 1777.64C225.064 1779.68 224.93 1781.93 225.513 1784.05C226.097 1786.18 227.365 1788.04 229.12 1789.37L256.288 1810.14L255.497 1834.8C255.43 1836.84 255.991 1838.85 257.104 1840.57C258.216 1842.28 259.828 1843.61 261.72 1844.38C263.613 1845.16 265.696 1845.33 267.69 1844.88C269.683 1844.43 271.491 1843.38 272.87 1841.87L289.443 1823.76L326.405 1829.01C328.612 1829.32 330.86 1828.89 332.791 1827.77C334.723 1826.66 336.228 1824.94 337.068 1822.87C337.907 1820.8 338.032 1818.52 337.424 1816.37C336.815 1814.23 335.507 1812.35 333.709 1811.03L303.585 1788.98L304.359 1764.45C304.437 1762.41 303.883 1760.39 302.773 1758.67C301.663 1756.95 300.051 1755.61 298.156 1754.84C296.261 1754.07 294.174 1753.9 292.179 1754.36C290.184 1754.81 288.377 1755.87 287.004 1757.39ZM70.0348 1715.95L53.0203 1734.55L27.8163 1733.75C25.7715 1733.68 23.7538 1734.24 22.0361 1735.35C20.3184 1736.47 18.9836 1738.08 18.2122 1739.97C17.4408 1741.87 17.27 1743.96 17.7229 1745.95C18.1758 1747.95 19.2306 1749.76 20.7446 1751.13L39.3481 1768.15L38.5362 1793.36C38.4696 1795.4 39.0305 1797.42 40.1432 1799.13C41.256 1800.84 42.8672 1802.18 44.76 1802.95C46.6527 1803.72 48.736 1803.89 50.7295 1803.44C52.7229 1802.99 54.5308 1801.94 55.9095 1800.43L72.9278 1781.82L98.128 1782.62C100.17 1782.69 102.184 1782.13 103.898 1781.01C105.612 1779.9 106.944 1778.29 107.715 1776.39C108.485 1774.5 108.657 1772.42 108.207 1770.42C107.758 1768.43 106.708 1766.62 105.2 1765.24L86.5963 1748.22L87.4081 1723.02C87.4747 1720.97 86.9139 1718.96 85.8011 1717.24C84.6883 1715.53 83.0771 1714.2 81.1844 1713.43C79.2917 1712.66 77.2083 1712.49 75.2149 1712.94C73.2214 1713.39 71.4136 1714.44 70.0348 1715.95Z" fill="#FFCC4D"/>
<path d="M1205.25 852.082C1200.63 849.278 895.5 717.494 862.018 659.437C828.371 601.379 864.492 559.32 826.721 550.744C788.786 542.332 835.298 520.23 794.229 492.851C753.325 465.471 748.706 424.402 714.07 342.759C679.268 261.28 653.208 201.903 653.208 201.903L376.445 337.976C376.445 337.976 443.739 522.869 489.757 656.962C535.774 791.056 592.677 842.351 654.363 924.489C716.049 1006.63 821.938 1110.87 839.092 1165.13C856.245 1219.4 1042.29 1258.49 1053.01 1143.69C1063.57 1029.06 1205.25 852.082 1205.25 852.082Z" fill="#383875"/>
<path d="M376.445 337.976C376.445 337.976 380.074 337.811 386.341 337.151C391.784 336.492 399.371 335.667 408.608 334.182C410.587 333.853 412.401 333.523 414.546 333.193C432.854 329.894 456.604 324.451 482.334 315.545C497.014 310.597 512.188 304.494 527.692 297.072C528.352 296.742 528.846 296.412 529.506 296.247C536.433 292.948 543.031 289.32 549.463 285.526C572.884 272.001 593.337 256.827 609.995 242.973C611.974 241.323 613.789 239.839 615.603 238.189C635.23 221.366 648.59 207.346 654.528 202.233C647.601 204.048 630.612 205.532 607.686 209.656C604.552 210.315 601.253 210.81 597.955 211.47C582.121 214.604 564.143 219.057 545.175 225.654C538.083 228.128 530.991 230.767 523.733 233.736C517.466 236.21 511.198 239.179 504.931 242.148C488.437 250.23 473.098 259.136 459.243 268.208C457.264 269.527 455.285 270.847 453.306 272.166C435.822 284.042 420.813 296.082 408.938 306.473C399.536 314.72 391.949 321.812 386.506 327.255C379.909 334.017 376.445 337.976 376.445 337.976Z" fill="#1D233D"/>
<path d="M606.861 178.812L620.386 218.397C616.098 222.191 606.037 232.582 591.687 244.952C590.368 246.106 589.048 247.261 587.564 248.416C575.358 258.642 560.184 269.857 542.866 279.754C538.083 282.557 533.135 285.196 528.022 287.67C527.527 287.835 527.197 288.165 526.702 288.33C515.322 293.773 503.941 298.391 493.22 302.02C474.088 308.617 456.769 312.576 443.08 315.05C441.595 315.38 440.111 315.545 438.791 315.875C432.029 317.029 426.421 317.689 422.298 318.184C417.679 318.678 415.04 318.843 415.04 318.843L401.516 279.259L606.861 178.812Z" fill="#3D53B0"/>
<path d="M401.355 279.094C401.355 279.094 403.994 278.929 408.613 278.434C412.736 277.939 418.179 277.279 425.106 276.125C426.591 275.96 427.91 275.63 429.395 275.3C430.879 274.97 432.363 274.805 433.848 274.475C446.713 272.001 462.547 268.208 479.535 262.27C490.421 258.641 501.637 254.023 513.017 248.58C513.512 248.415 513.842 248.086 514.337 247.921C519.45 245.447 524.398 242.808 529.181 240.004C545.675 230.602 560.024 219.881 571.9 210.15C572.559 209.655 573.219 209.161 573.879 208.501C575.363 207.346 576.683 206.192 578.002 205.037C592.352 192.667 602.413 182.276 606.701 178.482C601.753 179.802 590.043 180.792 574.209 183.595C573.549 183.76 572.724 183.76 572.065 183.925C569.755 184.42 567.281 184.75 564.807 185.245C553.097 187.554 539.902 190.853 525.882 195.636C520.604 197.45 515.326 199.429 510.048 201.738C505.43 203.553 500.812 205.697 496.194 208.006C484.153 214.439 472.773 221.036 462.547 227.633C461.062 228.623 459.578 229.613 458.094 230.602C445.229 239.344 434.178 248.25 425.271 256.002C424.117 256.992 422.962 258.147 421.808 259.136C416.53 263.919 412.076 268.208 408.778 271.506C403.994 276.125 401.355 279.094 401.355 279.094Z" fill="#1D233D"/>
<path d="M341.973 135.104C347.746 168.256 362.92 181.121 380.898 176.833C380.898 176.833 393.928 217.737 419.163 253.528C422.957 258.806 426.915 264.084 431.368 269.032C444.233 266.558 460.067 262.765 477.056 256.827C487.942 253.198 499.157 248.58 510.538 243.137C511.033 242.972 511.362 242.642 511.857 242.478C516.97 240.003 521.918 237.365 526.702 234.561C543.195 225.159 557.545 214.438 569.42 204.707C569.915 199.099 570.904 189.533 571.894 178.152C574.368 147.969 577.172 105.415 574.368 93.2102C569.75 73.5828 540.391 60.058 540.391 60.058C540.391 60.058 520.434 1.01082 490.086 0.0212056C459.737 -0.968412 456.604 33.0085 456.604 33.0085C456.604 33.0085 435.657 10.7421 415.534 15.3603C395.412 19.9785 394.258 40.7605 393.433 56.7593C393.433 56.7593 378.094 45.3787 366.713 53.6255C355.498 61.8723 348.9 81.3348 354.673 104.921C354.673 104.921 336.2 101.952 341.973 135.104Z" fill="white"/>
<path d="M463.036 123.723C460.561 123.723 458.087 123.558 455.778 123.393C446.377 122.403 439.12 116.796 436.976 108.714C434.007 98.1577 440.439 86.2823 453.634 76.716C463.036 69.9536 495.693 48.0171 523.237 52.4704C545.339 55.934 559.028 69.2939 568.1 78.0355L569.255 79.1901C570.739 80.5095 570.739 82.8186 569.419 84.1381C568.1 85.6226 565.791 85.6226 564.471 84.3031L563.317 83.1485C554.41 74.5718 542.04 62.6964 522.248 59.5626C497.507 55.6042 466.829 76.2212 458.087 82.6537C447.037 90.2408 441.759 99.3123 443.738 106.734C445.057 111.847 449.841 115.476 456.438 116.136C472.767 117.95 493.219 112.342 513.011 106.24C514.826 105.58 516.805 106.734 517.465 108.549C518.124 110.363 516.97 112.342 515.155 113.002C497.507 118.61 479.034 123.723 463.036 123.723Z" fill="#1E2230"/>
<path d="M479.363 201.409C479.198 201.409 479.033 201.409 478.868 201.409C477.219 201.079 475.899 199.76 475.899 198.11C475.899 197.78 475.734 197.286 475.569 196.626C468.807 161.824 472.93 133.29 487.28 114.158C488.434 112.673 490.743 112.343 492.228 113.498C493.712 114.653 494.042 116.962 492.887 118.446C479.693 135.764 476.064 162.319 482.496 195.141C482.826 197.121 482.991 197.615 482.826 198.275C482.661 200.254 481.177 201.409 479.363 201.409Z" fill="#1E2230"/>
<path d="M460.563 79.6857C458.913 79.6857 457.594 78.5311 457.099 77.0467C451.656 55.1102 452.811 40.2659 452.976 39.6062C453.141 37.6269 454.79 36.1425 456.769 36.3074C458.748 36.4724 460.233 38.1217 460.068 40.101C460.068 40.2659 458.913 54.6154 464.026 75.2324C464.521 77.2116 463.367 79.0259 461.387 79.5207C461.223 79.6857 460.893 79.6857 460.563 79.6857Z" fill="#1E2230"/>
<path d="M425.93 128.177C422.136 128.177 418.013 127.188 413.559 124.879C394.757 114.982 391.788 70.7795 391.458 65.8314C391.293 63.8522 392.777 62.2028 394.757 62.0379C396.736 61.873 398.385 63.3574 398.55 65.3366C399.21 77.8718 403.993 111.684 416.858 118.446C431.537 126.198 441.269 113.003 441.598 112.508C442.753 110.859 444.897 110.529 446.547 111.684C448.196 112.838 448.526 114.982 447.371 116.632C444.072 121.58 436.156 128.177 425.93 128.177Z" fill="#1E2230"/>
<path d="M399.866 151.103C377.764 151.103 356.323 114.982 355.333 113.333C354.344 111.684 354.838 109.54 356.653 108.55C358.302 107.56 360.446 108.055 361.601 109.869C367.868 120.425 387.331 147.145 402.67 143.846C415.7 141.042 415.205 124.219 415.205 123.559C415.205 121.58 416.689 119.931 418.669 119.931C420.648 119.766 422.297 121.415 422.297 123.394C422.627 131.476 419.328 147.64 404.154 150.939C402.67 150.939 401.185 151.103 399.866 151.103Z" fill="#1E2230"/>
<path d="M389.309 178.483C388.649 178.483 387.99 178.318 387.33 177.823C385.68 176.668 385.186 174.524 386.34 172.875C393.432 161.989 389.969 150.443 389.969 150.278C389.474 148.464 390.464 146.485 392.278 145.825C394.092 145.33 396.071 146.32 396.731 148.134C396.896 148.794 401.184 162.979 392.278 176.668C391.618 177.823 390.464 178.483 389.309 178.483Z" fill="#1E2230"/>
<path d="M1534.63 1986.51C1534.63 1986.51 1488.78 1920.37 1315.59 1934.06C1142.41 1947.75 1364.08 1304.83 1444.41 1407.75C1524.73 1510.67 1597.3 1878.81 1534.63 1986.51Z" fill="#1D233D"/>
<path d="M1307.68 833.444C1307.68 833.444 1464.53 864.617 1544.03 837.898C1623.53 811.178 1578.83 895.295 1588.73 1006.63C1598.63 1117.96 1566.63 1241.5 1614.46 1256.51C1662.29 1271.52 1566.3 1366.52 1595.33 1553.06C1624.36 1739.6 1615.45 1896.29 1534.8 1986.51C1534.8 1986.51 1552.78 1899.92 1532.32 1820.92C1530.01 1812.34 1526.72 1803.93 1522.76 1796.01C1497.52 1746.04 1392.79 1540.69 1350.56 1474.72C1301.08 1397.36 1366.23 950.054 1366.23 950.054L1307.68 833.444Z" fill="#383875"/>
<path d="M400.195 1546.46C400.195 1546.46 439.45 1705.79 787.136 1781.5C984.4 1824.38 990.832 1508.2 990.832 1508.2L917.6 1122.25C917.6 1122.25 713.574 1371.3 642.157 1427.38C552.596 1497.64 400.195 1546.46 400.195 1546.46Z" fill="#1D233D"/>
<path d="M921.068 1085.3C921.068 1085.3 844.538 1242.16 887.916 1293.29C931.294 1344.25 830.518 1424.9 925.192 1444.37C1019.87 1463.83 1354.03 1512.82 1354.03 1512.82C1354.03 1512.82 1313.62 1121.26 1332.25 1041.92C1351.06 962.754 1341.66 871.874 1322.85 840.536C1296.79 833.938 1160.89 868.08 1160.89 868.08C1160.89 868.08 966.756 1136.6 921.068 1085.3Z" fill="#3D53B0"/>
<path d="M1198.98 837.567C1198.98 837.567 1103.15 1011.58 947.454 1134.95C791.754 1258.32 746.232 1367.01 628.137 1446.51C510.043 1526.01 400.195 1546.46 400.195 1546.46C400.195 1546.46 567.111 1490.88 640.672 1414.35C714.069 1337.98 838.761 1056.27 838.761 1056.27L987.533 1038.29L1001.55 897.109C1001.22 897.109 1114.7 886.059 1198.98 837.567Z" fill="#383875"/>
<path d="M2193.22 2705.31C2188.44 2706.3 2183.49 2706.63 2178.37 2706.3C2176.89 2706.13 2175.41 2706.13 2173.76 2705.8C2172.27 2705.64 2170.62 2705.31 2169.14 2704.98C2167.65 2704.65 2166.17 2704.32 2164.69 2703.99C2163.37 2703.66 2162.05 2703.33 2160.56 2702.83C2159.24 2702.5 2158.09 2702.01 2156.77 2701.68C2156.6 2701.68 2156.44 2701.51 2156.27 2701.51C2155.12 2701.18 2153.96 2700.69 2152.81 2700.19C2152.15 2700.03 2151.66 2699.7 2151 2699.53C2150.01 2699.2 2149.02 2698.71 2148.03 2698.21C2144.4 2696.56 2140.6 2694.75 2136.81 2692.77C2135.49 2692.11 2134.34 2691.45 2133.02 2690.79C2128.07 2688.15 2123.12 2685.18 2118.01 2681.88C2115.2 2680.07 2112.4 2678.26 2109.43 2676.28C2107.95 2675.29 2106.46 2674.3 2105.14 2673.31C2103.99 2672.48 2102.83 2671.66 2101.68 2670.83C2099.7 2669.51 2097.89 2668.2 2095.91 2666.71C2087.99 2661.1 2079.91 2654.84 2071.66 2648.4C2069.52 2646.75 2067.37 2645.1 2065.23 2643.45C2044.78 2627.46 2023 2609.81 1999.42 2591.83C1996.12 2589.36 1992.99 2586.88 1989.69 2584.41C1989.19 2584.08 1988.7 2583.58 1988.2 2583.25C1985.4 2581.11 1982.6 2579.13 1979.79 2576.99C1975.5 2573.85 1971.21 2570.72 1966.93 2567.75C1964.45 2565.93 1961.81 2564.12 1959.34 2562.47C1955.88 2560 1952.41 2557.69 1948.78 2555.21C1943.51 2551.59 1938.06 2548.12 1932.62 2544.66C1924.54 2539.38 1916.13 2534.27 1907.71 2529.48C1905.41 2528.16 1903.1 2526.84 1900.62 2525.53C1898.64 2524.37 1896.5 2523.22 1894.35 2522.06C1892.05 2520.91 1889.9 2519.59 1887.59 2518.43C1885.94 2517.61 1884.29 2516.62 1882.64 2515.79C1880.66 2514.8 1878.85 2513.81 1876.87 2512.83C1874.56 2511.67 1872.25 2510.52 1869.94 2509.36C1858.4 2503.75 1846.52 2498.64 1834.48 2493.86C1832.01 2492.87 1829.53 2491.88 1827.06 2491.05C1824.92 2490.23 1822.94 2489.57 1820.79 2488.74C1819.47 2488.25 1817.99 2487.75 1816.5 2487.26C1814.53 2486.6 1812.55 2485.94 1810.57 2485.28C1809.74 2484.95 1808.75 2484.62 1807.93 2484.46C1805.45 2483.63 1802.98 2482.97 1800.51 2482.15C1797.04 2481.16 1793.74 2480.17 1790.28 2479.34C1787.64 2478.68 1785.17 2478.02 1782.53 2477.36C1780.05 2476.7 1777.58 2476.21 1775.11 2475.71C1774.94 2475.71 1774.78 2475.55 1774.45 2475.55C1773.29 2475.22 1772.14 2475.05 1771.15 2474.89C1769 2474.39 1767.02 2474.07 1764.88 2473.74C1764.55 2473.57 1764.05 2473.57 1763.56 2473.57C1760.59 2473.08 1757.62 2472.42 1754.65 2471.92C1747.4 2470.77 1739.81 2469.78 1732.39 2468.95C1641.67 2459.88 1485.15 2479.34 1323.35 2499.96C1313.94 2392.42 1303.88 2284.55 1297.45 2176.68C1296.3 2156.23 1295.14 2135.78 1294.32 2115.33C1429.73 2128.03 1582.3 2132.65 1639.2 2093.39C1648.43 2087.12 1656.85 2080.03 1664.93 2072.78C1676.8 2062.22 1687.52 2051 1698.25 2040.61C1716.88 2022.47 1735.03 2006.8 1756.8 2001.03C1757.29 2000.86 1757.95 2000.7 1758.45 2000.53C1759.27 2000.37 1760.1 2000.2 1760.76 2000.04C1762.08 1999.71 1763.4 1999.54 1764.88 1999.38C1766.69 1999.05 1768.34 1998.88 1770.16 1998.88C1770.82 1998.88 1771.48 1998.72 1772.14 1998.72C1773.46 1998.72 1774.78 1998.55 1776.1 1998.55C1792.26 1998.72 1810.73 2004 1832.67 2016.86C1929.32 2073.27 1949.11 2148.48 2083.04 2271.69C2281.13 2453.94 2286.74 2686.34 2193.22 2705.31Z" fill="white"/>
<path d="M2193.22 2705.31C2188.44 2706.3 2183.49 2706.63 2178.37 2706.3C2176.89 2706.13 2175.24 2706.13 2173.76 2705.8C2172.27 2705.64 2170.62 2705.31 2169.14 2704.98C2167.65 2704.81 2166.17 2704.48 2164.68 2703.99C2163.36 2703.66 2161.88 2703.33 2160.56 2702.83C2159.24 2702.5 2158.09 2702.01 2156.77 2701.68C2156.6 2701.68 2156.44 2701.51 2156.27 2701.51C2155.12 2701.18 2153.96 2700.69 2152.81 2700.19C2152.15 2700.03 2151.65 2699.7 2150.99 2699.53C2150.01 2699.2 2149.02 2698.71 2148.03 2698.21C2144.4 2696.56 2140.6 2694.91 2136.81 2692.94C2135.49 2692.28 2134.34 2691.62 2133.02 2690.96C2128.07 2688.32 2123.12 2685.35 2118.01 2682.05C2115.2 2680.24 2112.4 2678.42 2109.43 2676.44C2107.95 2675.45 2106.46 2674.46 2105.14 2673.47C2103.99 2672.65 2102.83 2671.82 2101.68 2671C2099.7 2669.68 2097.89 2668.36 2095.91 2666.88C2087.99 2661.27 2079.91 2655.17 2071.66 2648.57C2069.52 2646.92 2067.37 2645.27 2065.23 2643.62C2044.78 2627.62 2023 2609.97 1999.58 2591.99C1996.28 2589.52 1992.99 2587.05 1989.69 2584.57C1989.19 2584.24 1988.7 2583.75 1988.2 2583.42C1985.4 2581.27 1982.59 2579.29 1979.79 2577.15C1975.5 2574.02 1971.21 2570.88 1966.93 2567.91C1964.45 2566.1 1961.81 2564.29 1959.34 2562.47C1955.88 2560 1952.41 2557.69 1948.78 2555.21C1943.5 2551.59 1938.06 2548.12 1932.62 2544.66C1924.54 2539.38 1916.13 2534.27 1907.71 2529.48C1905.4 2528.16 1903.1 2526.84 1900.62 2525.53C1898.64 2524.37 1896.5 2523.22 1894.35 2522.06C1892.04 2520.91 1889.9 2519.59 1887.59 2518.43C1885.94 2517.61 1884.29 2516.62 1882.48 2515.79C1880.66 2514.8 1878.68 2513.81 1876.71 2512.83C1874.4 2511.67 1872.09 2510.52 1869.78 2509.53C1858.23 2503.92 1846.36 2498.81 1834.32 2494.02C1831.84 2493.03 1829.37 2492.04 1826.89 2491.22C1824.75 2490.39 1822.77 2489.73 1820.63 2488.91C1819.31 2488.41 1817.82 2487.92 1816.34 2487.42C1814.36 2486.77 1812.38 2486.11 1810.4 2485.45C1809.58 2485.12 1808.59 2484.79 1807.76 2484.62C1805.29 2483.8 1802.81 2483.14 1800.18 2482.31C1796.88 2481.32 1793.41 2480.33 1789.95 2479.51C1787.48 2478.85 1784.84 2478.19 1782.2 2477.53C1779.72 2476.87 1777.25 2476.37 1774.78 2475.88L1774.12 2475.71C1772.96 2475.55 1771.81 2475.22 1770.82 2475.05C1768.67 2474.56 1766.69 2474.23 1764.55 2473.9C1764.22 2473.74 1763.72 2473.74 1763.39 2473.74C1760.43 2473.08 1757.46 2472.58 1754.49 2472.09C1765.04 2449.32 1772.14 2337.17 1748.22 2232.6C1746.74 2226 1745.09 2219.4 1743.27 2212.81C1728.1 2156.56 1703.36 2104.77 1664.6 2072.94C1676.47 2062.38 1687.19 2051.17 1697.91 2040.78C1716.55 2022.63 1734.7 2006.97 1756.47 2001.19C1756.96 2001.03 1757.62 2000.86 1758.12 2000.86C1758.94 2000.7 1759.77 2000.53 1760.43 2000.2C1761.75 1999.87 1763.06 1999.71 1764.55 1999.54C1766.36 1999.21 1768.01 1999.05 1769.83 1999.05C1770.49 1999.05 1771.15 1998.88 1771.81 1998.88C1773.13 1998.88 1774.45 1998.72 1775.76 1998.88C1791.93 1999.05 1810.4 2004.33 1832.34 2017.19C1928.99 2073.6 1948.78 2148.81 2082.71 2272.02C2281.13 2453.94 2286.74 2686.34 2193.22 2705.31Z" fill="#464B69"/>
<path d="M2193.22 2705.31C2165.68 2710.91 2133.52 2693.93 2096.07 2666.71C2139.78 2694.26 2184.65 2658.13 2173.76 2566.92C2155.62 2415.02 2051.05 2302.86 1971.22 2197.47C1895.18 2097.02 1833 2011.58 1761.25 1999.87C1781.05 1995.75 1803.97 1999.54 1833 2016.53C1929.65 2072.94 1949.45 2148.15 2083.37 2271.36C2281.13 2453.94 2286.74 2686.34 2193.22 2705.31Z" fill="#1D233D"/>
<path d="M1674.66 2544.82C1674.66 2544.82 1578.01 2617.39 1406.47 2647.91C1240.22 2677.43 1014.75 2856.55 840.247 2788.76C678.28 2725.92 700.876 2470.11 700.876 2470.11C564.474 2448.66 383.044 2402.81 343.129 2270.04C336.367 2247.44 333.563 2222.37 335.707 2194.17C350.222 1999.87 592.348 1859.18 686.197 1732.02C781.86 1601.88 874.224 1520.4 874.224 1520.4L890.223 1427.21C1142.08 1405.44 1361.94 1504.24 1361.94 1504.24L1369.36 1605.35C1443.25 1939.18 1330.11 2057.11 1327.96 2059.25L1561.02 2011.42C1595.33 2092.4 1619.41 2180.48 1636.39 2261.13C1669.22 2417 1674.66 2544.82 1674.66 2544.82Z" fill="#383875"/>
<path d="M775.428 2118.13C717.04 2287.03 700.712 2470.11 700.712 2470.11C564.309 2448.66 382.879 2402.81 342.965 2270.04C342.965 2270.04 342.965 2270.2 343.13 2270.2C410.589 2375.1 565.299 2288.84 667.065 2139.9C771.304 1987.5 895.666 1762.04 895.666 1762.04C895.666 1762.04 834.64 1946.6 775.428 2118.13Z" fill="#1D233D"/>
<path d="M1636.56 2261.13C1481.69 2186.75 1334.89 2284.22 1218.28 2444.38C1100.85 2605.85 1072.15 2573.69 1072.15 2573.69C1133.34 2521.57 1155.61 2373.62 1189.25 2300.06C1223.23 2225.84 1327.96 2059.25 1327.96 2059.25L1561.02 2011.42C1595.49 2092.4 1619.57 2180.48 1636.56 2261.13Z" fill="#1D233D"/>
<path d="M1116.35 1500.45C1102.66 1510.34 1087.32 1512.65 1082.2 1505.39C1076.93 1498.14 1083.85 1484.28 1097.54 1474.39C1111.23 1464.49 1126.57 1462.18 1131.69 1469.44C1136.96 1476.7 1130.04 1490.55 1116.35 1500.45Z" fill="#FFB459"/>
<path d="M1405.16 1619.2C1404.66 1619.2 1404.17 1619.04 1403.67 1618.87C1388.5 1611.78 1372.83 1605.02 1357.16 1598.91C1310.98 1580.61 1261.66 1565.93 1210.7 1555.37C1119.16 1536.24 1015.25 1524.53 902.099 1520.9C891.378 1520.57 891.378 1520.57 890.389 1519.91C888.739 1518.92 888.245 1516.78 889.234 1514.96C890.059 1513.64 891.543 1512.98 893.028 1513.31C894.017 1513.48 897.646 1513.48 902.429 1513.64C1016.07 1517.44 1120.31 1528.98 1212.34 1548.28C1263.8 1559 1313.45 1573.84 1359.96 1592.15C1375.8 1598.42 1391.47 1605.18 1406.97 1612.44C1408.78 1613.26 1409.44 1615.41 1408.62 1617.22C1407.63 1618.38 1406.47 1619.2 1405.16 1619.2Z" fill="#1E2230"/>
<path d="M1055.82 1531.29C1055.65 1531.29 1055.49 1531.29 1055.32 1531.29C1053.34 1530.96 1052.03 1529.15 1052.36 1527.17L1066.21 1439.91C1066.54 1437.94 1068.35 1436.62 1070.33 1436.95C1072.31 1437.28 1073.63 1439.09 1073.3 1441.07L1059.45 1528.32C1059.12 1529.97 1057.63 1531.29 1055.82 1531.29Z" fill="#1E2230"/>
<path d="M962.794 2635.54C961.475 2635.54 960.32 2634.88 959.66 2633.72C958.671 2632.07 959.33 2629.76 960.98 2628.94C1033.22 2588.04 1071.65 2481.49 1102.33 2372.3C1125.26 2290.82 1165.34 2218.41 1211.68 2134.46C1231.97 2097.85 1252.92 2059.91 1275.02 2016.86C1349.57 1871.88 1302.07 1588.85 1301.57 1586.05C1301.24 1584.07 1302.56 1582.25 1304.54 1581.92C1306.52 1581.59 1308.34 1582.91 1308.67 1584.89C1308.83 1585.55 1321.04 1657.47 1323.84 1746.53C1326.48 1828.83 1321.2 1943.3 1281.45 2020.33C1259.18 2063.54 1238.24 2101.47 1217.95 2138.25C1171.77 2221.88 1131.85 2293.95 1109.26 2374.61C1078.08 2485.28 1038.99 2593.31 964.608 2635.54C963.949 2635.37 963.289 2635.54 962.794 2635.54Z" fill="#1E2230"/>
<path d="M978.133 2687C977.803 2687 977.474 2687 977.144 2686.83C975.329 2686.34 974.175 2684.36 974.67 2682.38C994.792 2611.13 977.474 2565.44 977.309 2564.94C976.649 2563.13 977.474 2560.99 979.288 2560.33C981.102 2559.67 983.246 2560.49 983.906 2562.31C984.731 2564.28 1002.21 2610.8 981.432 2684.19C981.102 2686.01 979.783 2687 978.133 2687Z" fill="#1E2230"/>
<path d="M1086.5 2674.46C1085.84 2674.46 1085.01 2674.3 1084.35 2673.8C1034.71 2637.02 1014.92 2599.09 1007.16 2573.85C998.587 2546.14 1002.05 2527.5 1002.22 2526.68C1002.55 2524.7 1004.36 2523.55 1006.34 2523.88C1008.32 2524.21 1009.47 2526.02 1009.14 2528C1008.98 2528.66 997.103 2600.24 1088.64 2668.03C1090.29 2669.18 1090.62 2671.49 1089.3 2672.98C1088.64 2673.97 1087.65 2674.46 1086.5 2674.46Z" fill="#1E2230"/>
<path d="M1317.9 1859.35C1203.93 1763.85 1153.95 1541.52 1153.95 1541.52L1161.05 1542.67C1206.07 1552.73 1254.73 1556.2 1303.72 1577.47C1330.76 1675.11 1317.9 1859.35 1317.9 1859.35Z" fill="#1D233D"/>
<path d="M1949.94 2142.54C1909.2 2220.23 1795.89 2231.11 1748.72 2232.27C1747.23 2225.67 1745.58 2219.07 1743.77 2212.48C1784.67 2211.82 1896.01 2203.08 1932.79 2132.81C1935.26 2127.86 1941.2 2126.21 1945.98 2128.85C1950.6 2131.66 1952.41 2137.76 1949.94 2142.54Z" fill="#1D233D"/>
<path d="M1665.75 2710.09C1650.25 2710.09 1635.4 2706.3 1622.7 2698.54C1610.83 2691.29 1602.91 2678.59 1602.25 2665.72C1601.09 2642.96 1619.9 2629.43 1651.24 2607C1668.88 2594.3 1690.82 2578.63 1715.23 2556.7C1772.79 2505.07 1777.58 2475.55 1776.59 2464.5C1776.09 2462.52 1775.6 2460.54 1775.1 2458.73C1774.61 2457.08 1775.6 2455.26 1777.25 2454.6C1778.9 2453.94 1780.71 2454.6 1781.7 2456.09C1781.87 2456.42 1783.18 2458.89 1783.68 2463.51C1796.38 2516.29 1797.2 2563.46 1786.32 2603.7C1776.59 2639.33 1757.78 2668.2 1731.89 2687.33C1711.6 2702.34 1688.02 2710.09 1665.75 2710.09ZM1780.88 2483.8C1775.1 2501.11 1759.27 2527.01 1720.01 2562.14C1695.27 2584.24 1673.17 2600.08 1655.36 2612.94C1626 2633.89 1608.35 2646.59 1609.34 2665.39C1609.84 2676.11 1616.43 2686.5 1626.5 2692.61C1654.7 2709.92 1695.44 2705.47 1727.77 2681.72C1752.34 2663.58 1770.32 2636.03 1779.56 2601.89C1788.79 2567.58 1789.29 2528 1780.88 2483.8Z" fill="#1E2230"/>
<path d="M1914.31 2665.23C1880 2665.23 1809.25 2582.59 1775.27 2458.73C1774.94 2457.41 1775.27 2456.09 1776.26 2455.1C1777.25 2454.27 1778.73 2453.94 1779.89 2454.44C1781.04 2454.93 1809.58 2465.82 1842.23 2491.55C1872.42 2515.3 1911.84 2556.7 1928.16 2618.71C1937.4 2654.01 1926.35 2662.59 1919.09 2664.57C1917.61 2665.06 1915.96 2665.23 1914.31 2665.23ZM1784.17 2464C1822.6 2596.61 1895.01 2663.74 1917.28 2657.64C1925.36 2655.49 1927.01 2641.64 1921.4 2620.53C1895.51 2521.9 1808.92 2475.55 1784.17 2464Z" fill="#1E2230"/>
<path d="M1533.48 2581.6C1531.5 2581.6 1530.01 2579.95 1529.85 2578.14C1528.36 2364.38 1435.01 2080.86 1434.02 2078.05C1433.36 2076.24 1434.35 2074.26 1436.33 2073.6C1438.14 2072.94 1440.12 2073.93 1440.78 2075.91C1441.77 2078.71 1535.46 2363.39 1536.94 2578.14C1537.11 2580.12 1535.46 2581.6 1533.48 2581.6Z" fill="#1E2230"/>
<path d="M1323.02 840.536C1323.02 840.536 1326.98 914.757 1305.2 1088.93C1283.6 1263.1 1280.79 1410.89 1344.62 1525.35C1408.46 1639.82 1511.38 1755.44 1527.04 1803.27C1527.04 1803.27 1514.01 1754.61 1465.19 1675.77C1416.54 1596.93 1371.67 1494.18 1371.51 1425.57C1371.51 1356.95 1431.05 1229.13 1431.05 1229.13L1342.81 1105.92L1446.56 1038.95C1446.89 1038.95 1388.66 898.759 1323.02 840.536Z" fill="#383875"/>
<path d="M1342.97 1109.55C1341.82 1109.55 1340.67 1109.05 1340.01 1107.9C1339.02 1106.25 1339.35 1104.1 1341 1102.95L1442.43 1037.47C1419.01 970.506 1364.25 894.141 1363.76 893.481C1362.6 891.832 1362.93 889.688 1364.58 888.533C1366.23 887.379 1368.37 887.708 1369.53 889.358C1370.02 890.182 1426.76 969.352 1450.02 1037.8C1450.51 1039.28 1450.02 1041.1 1448.53 1041.92L1344.79 1108.89C1344.29 1109.38 1343.63 1109.55 1342.97 1109.55Z" fill="#1E2230"/>
<path d="M1444.41 1643.61C1443.25 1643.61 1441.93 1642.95 1441.27 1641.8C1407.96 1585.06 1373.32 1517.27 1368.87 1443.05C1364.41 1369.16 1419.01 1246.77 1426.93 1229.46L1323.02 1083.16C1321.86 1081.51 1322.19 1079.36 1323.84 1078.21C1325.49 1077.05 1327.63 1077.38 1328.79 1079.03L1433.85 1226.98C1434.51 1227.97 1434.68 1229.46 1434.18 1230.61C1433.52 1231.93 1371.34 1366.35 1375.96 1442.55C1380.41 1515.29 1414.56 1582.25 1447.38 1638.17C1448.37 1639.82 1447.87 1641.96 1446.06 1642.95C1445.73 1643.45 1445.07 1643.61 1444.41 1643.61Z" fill="#1E2230"/>
<path d="M1525.89 842.846C1531 841.692 1683.07 787.922 1733.05 743.06C1783.03 698.197 1761.75 647.067 1800.34 650.86C1838.94 654.489 1801.66 619.193 1849.16 605.998C1896.67 592.803 1913.65 555.032 1972.04 488.398C2030.43 421.764 2073.64 373.438 2073.64 373.438L2294.16 588.844C2294.16 588.844 2172.6 743.555 2087.17 856.701C2001.73 969.847 1963.47 1010.26 1879.18 1069.14C1795.07 1128.02 1644.48 1226.49 1611.33 1272.84C1578.17 1319.02 1495.87 1225 1521.44 1112.68C1547.33 1000.03 1525.89 842.846 1525.89 842.846Z" fill="#383875"/>
<path d="M2294.49 588.679C2294.49 588.679 2291.19 587.36 2285.42 584.721C2280.31 582.412 2273.54 579.278 2265.3 574.824C2263.65 574 2261.83 573.01 2260.02 572.021C2243.53 563.114 2222.74 550.744 2200.97 534.25C2188.6 525.014 2176.07 514.458 2163.7 502.582C2163.2 502.088 2162.71 501.593 2162.21 501.263C2156.77 495.985 2151.49 490.377 2146.54 484.934C2128.4 464.812 2113.72 444.03 2102.34 425.722C2101.02 423.578 2099.7 421.599 2098.55 419.455C2085.19 397.518 2076.78 379.87 2072.65 373.107C2078.59 376.901 2094.42 383.663 2114.88 394.714C2117.68 396.199 2120.65 397.848 2123.62 399.497C2137.64 407.414 2153.31 417.31 2169.3 429.351C2175.24 433.804 2181.35 438.587 2187.28 443.7C2192.4 447.988 2197.51 452.607 2202.46 457.555C2215.65 470.42 2227.36 483.615 2237.75 496.645C2239.24 498.459 2240.72 500.438 2242.21 502.253C2255.07 519.076 2265.63 535.075 2273.71 548.6C2280.14 559.32 2285.09 568.557 2288.55 575.319C2292.35 583.731 2294.49 588.679 2294.49 588.679Z" fill="#1D233D"/>
<path d="M2124.94 365.685L2099.7 399.167C2102.67 404.115 2108.94 417.145 2118.84 433.308C2119.83 434.793 2120.65 436.277 2121.64 437.927C2130.05 451.451 2140.94 466.791 2154.3 481.635C2157.93 485.758 2161.88 489.717 2165.84 493.675C2166.17 494.005 2166.5 494.335 2166.83 494.665C2175.9 503.406 2185.31 511.158 2194.38 518.086C2210.38 530.291 2225.88 539.527 2237.92 545.96C2239.24 546.62 2240.56 547.444 2241.88 548.104C2247.98 551.238 2253.09 553.712 2256.72 555.361C2261.01 557.341 2263.48 558.165 2263.48 558.165L2288.72 524.683L2124.94 365.685Z" fill="#3D53B0"/>
<path d="M2289.05 524.848C2289.05 524.848 2286.57 523.859 2282.29 522.044C2278.49 520.395 2273.54 517.921 2267.44 514.787C2266.12 514.127 2264.8 513.468 2263.48 512.643C2262.16 511.983 2260.84 511.158 2259.52 510.499C2248.14 504.066 2234.29 495.654 2219.94 484.769C2210.87 477.841 2201.47 470.089 2192.4 461.348C2192.07 461.018 2191.74 460.688 2191.24 460.358C2187.12 456.4 2183.32 452.441 2179.7 448.318C2167 434.133 2156.6 419.619 2148.36 406.754C2147.86 406.094 2147.37 405.269 2147.04 404.61C2146.05 403.125 2145.06 401.476 2144.23 399.991C2134.34 383.663 2128.07 370.798 2125.1 365.85C2129.39 368.489 2140.28 373.272 2154.3 380.859C2154.95 381.189 2155.61 381.519 2156.27 381.848C2158.25 383.003 2160.56 384.158 2162.71 385.312C2173.1 391.25 2184.64 398.507 2196.52 407.414C2200.97 410.712 2205.43 414.341 2209.71 418.134C2213.51 421.268 2217.3 424.732 2220.93 428.36C2230.66 437.762 2239.4 447.658 2246.99 457.224C2248.14 458.544 2249.13 460.028 2250.29 461.348C2259.85 473.718 2267.61 485.593 2273.54 495.654C2274.37 496.974 2275.19 498.293 2275.85 499.613C2279.48 505.716 2282.29 511.158 2284.43 515.447C2287.4 521.385 2289.05 524.848 2289.05 524.848Z" fill="#1D233D"/>
<path d="M2390.15 406.589C2374.32 436.278 2355.84 443.865 2340.17 434.134C2340.17 434.134 2315.1 468.935 2279.97 494.995C2274.7 498.954 2269.25 502.582 2263.48 506.046C2252.1 499.613 2238.24 491.202 2223.89 480.316C2214.82 473.389 2205.42 465.637 2196.35 456.895C2196.02 456.565 2195.69 456.235 2195.2 455.905C2191.07 451.947 2187.28 447.988 2183.65 443.865C2170.95 429.68 2160.56 415.166 2152.31 402.301C2153.47 396.858 2155.61 387.457 2158.25 376.406C2165.18 346.882 2175.9 305.648 2182.5 294.928C2193.05 277.774 2225.05 273.981 2225.05 273.981C2225.05 273.981 2262 223.84 2291.19 232.417C2320.38 240.993 2312.8 274.146 2312.8 274.146C2312.8 274.146 2339.52 259.466 2357.33 270.187C2374.98 280.743 2369.7 301.03 2365.57 316.369C2365.57 316.369 2383.72 310.432 2391.96 321.647C2400.21 333.028 2400.21 353.48 2387.51 374.262C2387.68 373.932 2405.98 376.901 2390.15 406.589Z" fill="white"/>
<path d="M2291.36 360.407C2289.54 360.407 2287.73 360.242 2285.91 359.747C2268.43 356.119 2249.96 344.078 2232.64 331.543C2230.99 330.389 2230.66 328.245 2231.81 326.595C2232.97 324.946 2235.11 324.616 2236.76 325.771C2253.59 337.811 2271.23 349.356 2287.4 352.82C2293.83 354.14 2299.44 352.325 2302.41 347.872C2306.53 341.439 2304.39 331.048 2296.63 320.328C2290.2 311.586 2267.44 282.392 2242.7 278.434C2222.91 275.3 2207.57 282.722 2196.35 288.165L2194.87 288.825C2193.05 289.649 2190.91 288.99 2190.09 287.175C2189.26 285.361 2189.92 283.217 2191.73 282.392L2193.22 281.733C2204.6 276.29 2221.75 267.878 2243.85 271.506C2271.23 275.96 2295.64 306.803 2302.41 316.204C2311.97 329.399 2314.28 342.759 2308.34 351.83C2304.72 357.438 2298.45 360.407 2291.36 360.407Z" fill="#1E2230"/>
<path d="M2240.06 427.041C2239.9 427.041 2239.73 427.041 2239.57 427.041C2237.59 426.711 2236.27 424.897 2236.6 422.918C2236.76 422.093 2236.93 421.763 2237.92 419.949C2254.25 390.755 2259.03 364.365 2251.94 343.748C2251.28 341.934 2252.27 339.79 2254.08 339.295C2255.89 338.635 2258.04 339.625 2258.53 341.439C2266.29 364.035 2261.34 392.404 2244.02 423.412C2243.69 424.072 2243.52 424.402 2243.36 424.732C2242.86 426.051 2241.55 427.041 2240.06 427.041Z" fill="#1E2230"/>
<path d="M2295.81 317.194C2295.15 317.194 2294.49 317.029 2293.99 316.699C2292.35 315.709 2291.85 313.4 2292.84 311.751C2304.22 293.608 2307.52 279.753 2307.52 279.588C2308.01 277.609 2309.83 276.454 2311.81 276.949C2313.79 277.444 2314.94 279.258 2314.45 281.238C2314.28 281.897 2310.82 296.412 2298.78 315.544C2298.28 316.534 2297.13 317.194 2295.81 317.194Z" fill="#1E2230"/>
<path d="M2320.39 375.086C2305.71 375.086 2297.95 363.376 2295.64 356.449C2294.98 354.634 2296.14 352.655 2297.95 351.995C2299.77 351.336 2301.75 352.49 2302.41 354.304C2302.57 354.964 2307.85 370.468 2324.18 367.664C2338.53 365.19 2353.54 334.512 2358.16 322.802C2358.82 320.987 2360.96 319.998 2362.77 320.822C2364.59 321.482 2365.58 323.626 2364.75 325.441C2362.94 330.059 2346.28 371.128 2325.5 374.756C2323.68 374.921 2321.87 375.086 2320.39 375.086Z" fill="#1E2230"/>
<path d="M2337.54 404.775C2333.58 404.775 2329.78 403.95 2326.49 401.971C2313.13 394.054 2314.94 377.725 2317.74 370.138C2318.4 368.324 2320.55 367.334 2322.36 367.994C2324.18 368.654 2325.17 370.798 2324.51 372.612C2324.34 373.272 2318.57 388.941 2330.11 395.703C2343.64 403.62 2370.52 384.323 2379.76 376.241C2381.24 374.921 2383.55 375.086 2384.71 376.571C2386.03 378.055 2385.86 380.364 2384.38 381.519C2383.06 382.838 2357.82 404.775 2337.54 404.775Z" fill="#1E2230"/>
<path d="M2337.04 430.175C2335.4 430.175 2334.08 429.186 2333.58 427.536C2329.29 411.702 2337.87 399.497 2338.2 399.002C2339.35 397.353 2341.5 397.023 2343.15 398.178C2344.8 399.332 2345.13 401.476 2343.97 403.126C2343.81 403.291 2337.04 413.187 2340.34 425.722C2340.84 427.536 2339.68 429.516 2337.87 430.01C2337.54 430.175 2337.21 430.175 2337.04 430.175Z" fill="#1E2230"/>
<path d="M826.555 1099.49C826.06 1099.49 825.566 1099.32 825.071 1099.16C823.256 1098.33 822.597 1096.19 823.421 1094.37C823.916 1093.55 866.635 1005.97 890.221 932.736C914.136 858.02 922.383 798.973 913.312 766.48C912.817 764.666 913.971 762.687 915.786 762.027C917.6 761.532 919.579 762.687 920.239 764.501C929.64 798.313 921.393 858.68 896.983 934.88C873.397 1008.61 830.349 1096.52 829.854 1097.51C829.029 1098.66 827.875 1099.49 826.555 1099.49Z" fill="#1E2230"/>
<path d="M857.726 1086.13C856.077 1086.13 854.758 1085.14 854.263 1083.49C853.768 1081.51 854.922 1079.69 856.902 1079.2C902.424 1067.49 971.367 1040.93 984.068 1035.99L997.757 896.945C997.922 895.13 999.407 893.811 1001.22 893.811C1001.39 893.811 1001.55 893.811 1001.72 893.811C1057.46 893.811 1164.84 850.928 1165.99 850.433C1167.81 849.773 1169.95 850.598 1170.61 852.412C1171.27 854.226 1170.45 856.37 1168.63 857.03C1164.18 858.844 1062.08 899.584 1004.35 900.903L990.665 1038.95C990.5 1040.27 989.675 1041.43 988.356 1041.92C987.531 1042.25 908.692 1073.26 858.386 1086.13C858.386 1085.96 858.056 1086.13 857.726 1086.13Z" fill="#1E2230"/>
<path d="M739.47 830.971C738.48 830.971 737.49 830.641 736.831 829.816C722.976 813.982 722.646 771.594 735.676 696.218C747.387 628.594 782.683 533.261 783.013 532.271C783.673 530.457 785.817 529.467 787.631 530.127C789.445 530.787 790.435 532.931 789.775 534.745C789.445 535.735 754.314 630.408 742.768 697.372C730.233 769.449 730.068 811.178 742.274 825.198C743.593 826.682 743.428 828.991 741.944 830.146C741.119 830.641 740.294 830.971 739.47 830.971Z" fill="#1E2230"/>
<path d="M755.801 728.71C755.636 728.71 755.306 728.71 755.141 728.71C753.162 728.38 752.007 726.4 752.337 724.586C764.707 664.055 806.931 601.214 807.426 600.554C808.58 598.905 810.725 598.575 812.374 599.564C814.023 600.719 814.353 602.863 813.364 604.513C812.869 605.172 771.47 666.858 759.429 725.906C758.935 727.555 757.45 728.71 755.801 728.71Z" fill="#1E2230"/>
<path d="M493.225 484.604C491.905 484.604 490.586 483.779 489.926 482.46C460.567 415.001 429.394 329.069 429.064 328.244C428.405 326.43 429.394 324.286 431.209 323.626C433.023 322.966 435.167 323.956 435.827 325.77C436.157 326.595 467.33 412.362 496.523 479.491C497.348 481.305 496.523 483.449 494.709 484.109C494.049 484.604 493.719 484.604 493.225 484.604Z" fill="#1E2230"/>
<path d="M2138.3 721.618C2137.47 721.618 2136.65 721.288 2135.82 720.628C2134.34 719.309 2134.34 717 2135.66 715.68C2158.75 690.61 2258.04 564.763 2259.03 563.444C2260.18 561.959 2262.49 561.63 2263.98 562.784C2265.46 563.939 2265.79 566.248 2264.64 567.732C2260.51 572.845 2164.03 695.063 2140.94 720.298C2140.28 721.123 2139.29 721.618 2138.3 721.618Z" fill="#1E2230"/>
<path d="M1589.06 1261.95C1577.35 1261.95 1561.02 1259.47 1545.35 1248.92C1522.59 1233.41 1508.24 1205.38 1502.96 1165.63C1487.29 1048.36 1484.82 911.129 1525.06 877.812C1526.55 876.492 1528.85 876.822 1530.01 878.307C1531.33 879.791 1531 882.1 1529.51 883.255C1491.41 914.758 1495.21 1054.62 1510.05 1164.8C1515.16 1202.57 1528.36 1228.8 1549.31 1243.15C1574.87 1260.46 1603.41 1253.54 1603.74 1253.54C1605.55 1253.04 1607.53 1254.2 1608.02 1256.18C1608.52 1258.15 1607.36 1259.97 1605.38 1260.46C1604.72 1260.3 1598.46 1261.95 1589.06 1261.95Z" fill="#1E2230"/>
<path d="M1850.32 918.057C1850.15 918.057 1849.99 918.057 1849.82 918.057C1847.84 917.727 1846.52 915.913 1846.85 913.933C1853.45 872.369 1849.49 823.054 1834.98 767.47C1818.15 702.815 1801.5 686.981 1801.33 686.816C1799.85 685.497 1799.85 683.188 1801.17 681.868C1802.48 680.384 1804.63 680.219 1806.11 681.538C1806.77 682.198 1824.26 698.362 1841.9 765.656C1856.58 822.229 1860.71 872.534 1853.94 915.088C1853.45 916.737 1851.97 918.057 1850.32 918.057Z" fill="#1E2230"/>
<path d="M1876.21 786.108C1874.89 786.108 1873.57 785.283 1872.91 783.964C1830.03 683.353 1848.33 639.809 1849.16 637.995C1849.98 636.181 1852.13 635.356 1853.78 636.181C1855.59 637.005 1856.42 639.15 1855.59 640.799C1855.43 641.294 1837.94 683.847 1879.34 780.995C1880.17 782.809 1879.34 784.953 1877.53 785.613C1877.2 785.943 1876.7 786.108 1876.21 786.108Z" fill="#1E2230"/>
<path d="M904.576 1360.75C903.586 1360.75 902.597 1360.25 901.772 1359.43C900.452 1357.94 900.782 1355.63 902.267 1354.48C902.762 1353.98 959.994 1307.14 1029.1 1269.54C1122.79 1218.57 1192.72 1207.85 1236.76 1237.87C1238.41 1239.02 1238.74 1241.17 1237.75 1242.82C1236.59 1244.47 1234.45 1244.8 1232.8 1243.81C1132.68 1175.69 909.029 1358.27 906.72 1360.09C906.225 1360.42 905.4 1360.75 904.576 1360.75Z" fill="#1E2230"/>
<path d="M961.975 1248.75C930.307 1248.75 910.35 1243.64 909.03 1243.15C907.216 1242.65 906.062 1240.67 906.556 1238.86C907.051 1237.04 909.03 1235.89 910.845 1236.38C911.504 1236.55 971.211 1252.05 1049.39 1228.63C1051.21 1228.14 1053.18 1229.13 1053.84 1231.11C1054.34 1232.92 1053.35 1234.9 1051.37 1235.56C1016.73 1245.79 985.891 1248.75 961.975 1248.75Z" fill="#1E2230"/>
<path d="M1099.36 1424.91C1099.2 1424.91 1098.87 1424.91 1098.7 1424.91C1096.72 1424.58 1095.57 1422.6 1095.9 1420.78C1099.36 1402.97 1103.16 1386.15 1106.29 1371.3C1121.47 1302.19 1130.54 1260.63 1100.02 1243.48C1081.55 1233.08 1087.98 1188.55 1120.15 1107.57C1143.24 1049.35 1171.44 993.103 1171.77 992.608C1172.6 990.794 1174.74 990.134 1176.55 990.958C1178.37 991.783 1179.03 993.927 1178.2 995.742C1134.99 1080.85 1076.6 1221.87 1103.49 1237.04C1138.62 1256.84 1129.05 1300.38 1113.22 1372.62C1109.92 1387.47 1106.29 1404.12 1102.83 1421.94C1102.5 1423.59 1101.01 1424.91 1099.36 1424.91Z" fill="#1E2230"/>
<path d="M527.521 766.975L429.879 728.38L433.178 840.207C433.178 840.207 535.438 1005.47 706.312 1069.47C706.312 1069.47 618.236 963.744 573.044 868.411C552.427 825.033 538.572 812.827 527.521 766.975Z" fill="#1176B0"/>
<path d="M1170.11 918.881L1171.93 973.805L1196.01 982.052L1229.99 928.448L1195.68 905.852L1170.11 918.881Z" fill="#009EF7"/>
<path d="M1144.05 632.222C1144.05 632.222 1140.43 558.99 1160.38 542.002C1174.9 529.796 1176.38 554.372 1176.38 554.372C1176.38 554.372 1219.43 474.873 1240.05 506.705C1240.05 506.705 1293.16 447.163 1313.61 486.748C1333.9 526.333 1411.25 448.153 1441.27 481.305C1471.29 514.622 1431.04 583.071 1431.04 583.071C1431.04 583.071 1467 556.021 1469.47 589.503C1471.95 622.985 1407.29 711.226 1407.29 711.226C1407.29 711.226 1427.75 718.154 1418.18 740.585C1408.61 763.016 1343.3 812.992 1322.19 784.623C1301.07 756.254 1298.11 785.613 1272.87 782.149C1247.63 778.355 1144.05 632.222 1144.05 632.222Z" fill="#F1416C"/>
<path d="M1187.6 888.863C1186.94 876.822 1184.79 862.803 1179.51 847.794C1173.08 829.651 1161.7 810.188 1142.07 791.385C1140.09 789.571 1138.28 787.592 1136.8 785.448C1136.8 785.283 1136.8 785.283 1136.8 785.283C1095.4 732.008 1151.31 610.945 1156.92 605.832C1177.37 587.029 1258.02 596.761 1258.02 596.761C1298.6 617.048 1315.42 683.847 1315.42 683.847C1315.42 683.847 1312.62 691.269 1292.99 753.78C1280.12 794.519 1311.46 810.683 1309.65 839.877C1306.84 881.441 1184.46 939.828 1187.6 888.863Z" fill="white"/>
<path d="M1340.16 725.906C1331.09 748.337 1309.81 761.037 1292.66 754.11C1275.5 747.183 1268.74 723.432 1277.81 700.835C1286.89 678.404 1308.16 665.704 1325.32 672.631C1342.47 679.559 1349.23 703.31 1340.16 725.906Z" fill="white"/>
<path d="M1332.08 719.308C1327.95 729.699 1318.22 735.307 1310.31 732.173C1306.68 730.689 1304.04 727.555 1302.72 723.597C1308.16 722.112 1312.29 718.648 1313.6 713.7C1314.92 708.752 1312.94 703.639 1308.82 699.516C1313.6 694.568 1319.87 692.589 1325.32 694.733C1333.07 698.031 1336.2 708.917 1332.08 719.308Z" fill="#1D233D"/>
<path d="M1243.51 777.201L1179.35 847.959C1172.91 829.816 1161.53 810.353 1141.91 791.551C1139.93 789.736 1138.11 787.757 1136.63 785.613C1136.79 785.778 1137.12 786.108 1137.62 786.603C1143.89 792.87 1176.05 819.425 1243.51 777.201Z" fill="#1D233D"/>
<path d="M1176.87 707.597C1176.22 707.597 1175.56 707.432 1174.9 706.937C1169.78 703.474 1168.79 699.68 1168.79 697.041C1168.96 688.629 1180.01 682.032 1181.16 681.372C1182.81 680.383 1184.96 681.042 1185.95 682.692C1186.94 684.341 1186.44 686.485 1184.63 687.475C1181 689.619 1175.89 694.072 1175.72 697.206C1175.72 698.526 1176.71 699.68 1178.52 701C1180.17 702.154 1180.67 704.298 1179.51 705.948C1179.18 706.937 1178.03 707.597 1176.87 707.597Z" fill="#1E2230"/>
<path d="M1192.54 732.503C1190.56 738.606 1176.87 746.358 1164.34 742.4C1151.8 738.441 1145.04 724.257 1147.02 718.154C1149 712.051 1158.4 717.659 1170.94 721.618C1183.64 725.411 1194.52 726.236 1192.54 732.503Z" fill="#A3A3A3"/>
<path d="M1145.7 963.579C1145.7 963.579 1187.93 921.355 1199.14 912.613C1199.14 912.613 1215.31 956.816 1221.08 986.01C1221.08 986.01 1254.56 968.692 1288.7 926.963C1323.01 885.234 1345.11 828.991 1295.3 798.312C1295.3 798.312 1296.29 840.536 1247.63 869.565C1198.81 898.594 1188.92 878.966 1183.47 861.648C1183.64 861.648 1156.09 894.14 1145.7 963.579Z" fill="#3D53B0"/>
<path d="M1150.65 603.522C1150.65 603.522 1159.39 612.924 1203.1 604.512C1203.1 604.512 1202.6 623.975 1248.79 616.552C1248.79 616.552 1248.62 634.695 1270.06 656.137C1291.5 677.579 1264.12 707.927 1277.98 710.071C1291.83 712.215 1307.83 667.683 1325.32 672.796C1342.8 677.909 1355.17 640.963 1316.08 606.491C1276.99 571.69 1169.29 553.052 1150.65 603.522Z" fill="#F1416C"/>
<path d="M1171.93 973.805C1171.93 973.805 996.268 1084.31 775.749 991.288C555.229 898.264 527.52 766.975 527.52 766.975C527.52 766.975 537.251 931.251 678.271 1083.32C678.271 1083.32 867.618 1120.43 962.127 1107.4C1126.24 1084.81 1196.01 982.052 1196.01 982.052L1171.93 973.805Z" fill="#009EF7"/>
<path d="M1221.24 989.638C1220.75 989.638 1220.42 989.474 1219.92 989.309C1218.93 988.979 1218.11 987.989 1217.78 987L1197.49 919.376L1147.85 968.197C1146.69 969.186 1145.21 969.516 1143.72 968.857C1142.4 968.197 1141.58 966.712 1141.74 965.228C1146.53 924.983 1163.85 887.048 1164.67 885.564C1165.49 883.749 1167.64 883.09 1169.45 883.914C1171.27 884.739 1171.93 886.883 1171.1 888.697C1170.94 889.027 1156.42 920.695 1150.32 955.827L1196.67 910.304C1197.49 909.479 1198.81 909.15 1199.97 909.314C1201.12 909.644 1202.11 910.469 1202.44 911.789L1223.06 980.732C1237.24 971.495 1287.38 936.364 1312.78 882.1C1313.61 880.286 1315.75 879.626 1317.57 880.451C1319.38 881.275 1320.04 883.42 1319.21 885.234C1288.7 950.714 1225.37 987.989 1222.73 989.474C1222.4 989.474 1221.74 989.638 1221.24 989.638Z" fill="#1E2230"/>
</svg>
