<svg width="3429" height="2063" viewBox="0 0 3429 2063" fill="none" xmlns="http://www.w3.org/2000/svg">
<path d="M2911.54 212.096C2911.04 142.45 2846.69 86.4454 2769.2 91.5813C2725.62 15.7501 2617.65 -4.5096 2545.08 48.9547C2467.11 -29.3559 2326.69 -4.0303 2286.14 94.8498C2218 96.7338 2163.59 148.194 2164.04 211.029C2164.34 253.386 2189.51 290.21 2226.75 310.001C2168.97 422.834 2284.48 546.515 2415.56 510.09C2501.89 579.258 2637.27 540.557 2666.62 439.726C2760.14 459.802 2849.53 397.946 2856.29 311.832C2889.98 289.509 2911.83 253.102 2911.54 212.096Z" fill="white"/>
<path d="M2516.31 547.87C2479.58 548.012 2443.87 535.774 2414.93 513.124C2399.99 517.16 2384.59 519.21 2369.12 519.221C2319.52 519.221 2272.26 497.954 2241.02 459.57C2205.49 415.913 2198.86 360.618 2223.09 311.152C2185.18 289.985 2161.57 251.866 2161.28 211.051C2161.05 179.923 2173.9 150.455 2197.47 128.079C2221.09 105.959 2251.94 93.1899 2284.27 92.1494C2303.52 46.8756 2345.73 13.7669 2397.55 3.40661C2452.14 -7.50858 2507.2 8.15908 2545.36 45.3419C2563.52 32.5684 2584.14 23.6977 2605.89 19.2878C2627.65 14.8779 2650.08 15.0243 2671.78 19.7176C2714.06 28.6124 2750.02 53.7168 2770.73 88.7187C2809.8 86.5748 2847.8 99.9086 2875.22 125.426C2900.19 148.654 2914.06 179.44 2914.3 212.069C2914.59 251.93 2893.91 289.707 2858.92 313.382C2855.42 353.006 2834.96 388.638 2801.21 413.833C2782.36 427.716 2760.81 437.48 2737.95 442.494C2715.1 447.508 2691.44 447.66 2668.52 442.94C2654.41 488.234 2617.15 524.323 2568.36 539.766C2551.53 545.116 2533.97 547.849 2516.31 547.87ZM2415.54 507.314C2416.17 507.314 2416.78 507.528 2417.27 507.92C2458.65 541.077 2514.51 551.011 2566.69 534.492C2614.6 519.329 2650.96 483.612 2663.96 438.943C2664.15 438.272 2664.6 437.701 2665.2 437.343C2665.79 436.985 2666.51 436.867 2667.19 437.013C2713.46 446.944 2761.1 436.878 2797.91 409.398C2830.75 384.88 2850.5 350.154 2853.52 311.605C2853.56 311.187 2853.68 310.781 2853.9 310.419C2854.11 310.057 2854.4 309.748 2854.75 309.517C2888.86 286.929 2909.06 250.515 2908.78 212.108C2908.55 181.001 2895.3 151.653 2871.46 129.469C2844.74 104.609 2807.53 91.8121 2769.38 94.3321C2768.86 94.3665 2768.35 94.2553 2767.89 94.0112C2767.44 93.7671 2767.06 93.3999 2766.8 92.9513C2747.03 58.5411 2711.98 33.8165 2670.65 25.1209C2649.32 20.4964 2627.26 20.4264 2605.91 24.9153C2584.55 29.4043 2564.38 38.3514 2546.71 51.1728C2546.18 51.5644 2545.53 51.7537 2544.88 51.7068C2544.22 51.6598 2543.6 51.3795 2543.13 50.9165C2506.22 13.8443 2452.21 -1.88415 2398.63 8.82826C2348 18.9508 2306.9 51.5009 2288.69 95.8972C2288.49 96.3922 2288.15 96.8174 2287.71 97.1214C2287.27 97.4254 2286.75 97.5951 2286.21 97.6098C2219.94 99.4533 2166.37 150.313 2166.8 211.007C2167.08 250.633 2190.55 287.627 2228.05 307.557C2228.69 307.898 2229.17 308.477 2229.39 309.17C2229.61 309.863 2229.54 310.614 2229.21 311.261C2204.6 359.32 2210.62 413.455 2245.3 456.073C2285 504.849 2351.54 525.004 2414.81 507.421C2415.05 507.355 2415.29 507.322 2415.54 507.323V507.314Z" fill="#1A1A1A"/>
<path d="M2131.09 317.585C2093.22 320.957 2087.88 359.049 2109.7 374.705C2130.48 389.608 2164.03 373.553 2168.94 346.146C2171.65 330.999 2155.78 315.39 2131.09 317.585Z" fill="white"/>
<path d="M2128.05 383.134C2120.91 383.218 2113.94 381.056 2108.1 376.953C2102.57 372.977 2098.39 367.41 2096.1 360.993C2093.81 354.575 2093.53 347.612 2095.29 341.031C2099.32 326.25 2112.62 316.455 2130.85 314.831C2144.93 313.58 2157.46 317.737 2165.23 326.237C2167.8 328.906 2169.72 332.137 2170.84 335.676C2171.96 339.215 2172.24 342.966 2171.67 346.633C2170.18 354.073 2166.86 361.02 2162 366.841C2157.14 372.661 2150.9 377.168 2143.85 379.95C2138.84 382.021 2133.47 383.103 2128.05 383.134ZM2131.34 320.34C2115.51 321.75 2104.02 330.029 2100.62 342.487C2099.15 347.979 2099.39 353.789 2101.3 359.144C2103.21 364.498 2106.7 369.142 2111.31 372.458C2119.66 378.44 2130.76 379.305 2141.76 374.827C2147.95 372.4 2153.43 368.458 2157.7 363.362C2161.98 358.267 2164.91 352.18 2166.22 345.658C2166.67 342.827 2166.44 339.933 2165.55 337.208C2164.67 334.483 2163.16 332.004 2161.15 329.97C2154.56 322.753 2143.69 319.245 2131.34 320.34Z" fill="#1A1A1A"/>
<path d="M2432.06 433.708C2431.78 433.709 2431.5 433.665 2431.24 433.58C2430.54 433.362 2429.97 432.876 2429.63 432.231C2429.29 431.586 2429.23 430.833 2429.45 430.139C2435.99 408.959 2445.73 388.907 2458.34 370.682C2460.63 367.413 2463 364.324 2465.46 361.414C2450.37 354.009 2436.02 345.185 2422.59 335.062C2421.71 334.397 2420.85 333.731 2420.02 333.065C2382.37 325.103 2349.94 314.437 2333.21 301.49C2323.67 294.099 2322.77 285.958 2323.71 280.43C2324.13 278.055 2324.87 275.75 2325.92 273.58C2324.14 272.407 2322.51 271.013 2321.08 269.431C2313.47 261.004 2312.71 248.057 2318.88 231.991C2324.73 216.745 2336.02 200.285 2350.45 185.402C2338.17 179.275 2326.88 171.331 2316.96 161.837C2316.69 161.592 2316.48 161.296 2316.32 160.966C2316.17 160.636 2316.08 160.278 2316.07 159.914C2316.05 159.55 2316.11 159.186 2316.24 158.845C2316.37 158.504 2316.56 158.191 2316.81 157.926C2317.06 157.66 2317.36 157.447 2317.69 157.299C2318.02 157.151 2318.38 157.07 2318.75 157.062C2319.11 157.054 2319.47 157.119 2319.81 157.252C2320.15 157.386 2320.46 157.586 2320.72 157.84C2330.69 167.399 2342.12 175.308 2354.58 181.27C2378.19 158.347 2409.03 139.97 2438.13 136.973C2461.7 134.557 2470.48 140.475 2473.71 145.606C2474.09 133.51 2485.56 124.707 2507.8 119.445C2562.36 106.528 2606.64 118.977 2635.75 138.323C2671.47 141.477 2704.12 151.415 2727.08 173.584C2739.69 185.759 2737.66 194.883 2733.73 200.391C2728.96 207.096 2718.4 212.222 2704.83 215.877C2717.14 222.494 2728.56 230.677 2738.78 240.224C2757.09 257.472 2763.95 269.548 2759.72 277.138C2754.71 286.152 2734.93 286.337 2700.92 277.7C2702.32 279.013 2703.64 280.409 2704.88 281.879C2721.97 302.268 2716.64 315.831 2709.17 323.621C2694.91 338.476 2660.14 345.94 2619.35 348.571C2620.7 356.643 2616.22 364.487 2606.62 370.772C2582.74 386.415 2529.64 390.959 2470.59 363.849C2467.84 367.044 2465.25 370.376 2462.83 373.834C2450.55 391.6 2441.05 411.144 2434.67 431.787C2434.5 432.344 2434.15 432.831 2433.68 433.176C2433.21 433.521 2432.64 433.708 2432.06 433.708ZM2474.46 359.581C2493.06 368.089 2512.82 373.783 2533.09 376.478C2566.98 380.744 2591.74 373.957 2603.61 366.18C2608.2 363.179 2615.57 356.966 2613.83 348.897C2584.47 350.272 2555.05 349.845 2525.74 347.616C2514.77 346.817 2503.45 345.77 2492.04 344.482C2485.68 348.905 2479.79 353.964 2474.46 359.581H2474.46ZM2432.66 335.604C2444.23 343.788 2456.45 350.994 2469.21 357.146C2473.77 352.207 2478.72 347.659 2484.03 343.547C2466.72 341.433 2449.32 338.773 2432.66 335.604ZM2499.39 339.799C2508.16 340.703 2517.1 341.489 2526.15 342.148C2554.56 344.345 2583.07 344.813 2611.53 343.547C2606.4 335.633 2594.08 329.005 2578.14 325.939C2551.08 321.084 2523.18 325.995 2499.39 339.799ZM2558.01 318.594C2565.11 318.576 2572.2 319.231 2579.18 320.549C2598.39 324.245 2612.58 332.719 2617.62 343.2C2661.48 340.423 2693.22 332.311 2705.22 319.818C2713.95 310.72 2712.47 299.465 2700.68 285.408C2696.44 280.579 2691.36 276.548 2685.7 273.503C2674.39 270.152 2661.94 265.981 2648.92 261.176C2630.45 274.348 2600.27 286.11 2550.98 289.074C2493.11 292.55 2460.19 284.979 2441.69 274.05C2421.97 282.118 2410.08 291.767 2408.1 301.754C2406.47 309.986 2411.34 318.835 2422.6 328.089C2443.23 332.421 2466.21 336.085 2490.58 338.846C2510.58 325.596 2534.03 318.551 2558.01 318.594ZM2330.77 276.161C2330 277.808 2329.44 279.549 2329.13 281.341C2328.12 287.316 2330.56 292.486 2336.58 297.149C2350.32 307.789 2377.28 317.756 2412.1 325.778C2404.24 317.324 2401.09 308.92 2402.73 300.685C2405.32 287.583 2419.33 277.676 2436.15 270.369C2432.42 267.634 2429.12 264.364 2426.34 260.664C2415.56 265.907 2404.28 270.065 2392.68 273.077C2364.64 280.72 2343.91 281.752 2330.77 276.161ZM2448.16 271.56C2469.28 282.193 2504.02 286.401 2550.64 283.596C2593.47 281.02 2621.28 271.795 2639.34 260.946C2610.41 261.506 2574.55 258.981 2539.84 254.162C2516.01 255.741 2492.36 259.42 2469.18 265.155C2461.52 267.117 2454.5 269.263 2448.16 271.56ZM2688.33 268.569C2691.42 269.473 2694.46 270.324 2697.44 271.121C2735.53 281.319 2752.11 279.537 2754.93 274.469C2756.19 272.201 2756.78 264.713 2735.02 244.221C2723.61 233.597 2710.71 224.7 2696.73 217.811C2691.45 218.931 2685.83 219.862 2680.02 220.608C2688.68 225.669 2695.42 231.655 2698.84 238.616C2699.72 240.218 2700.09 242.05 2699.89 243.866C2699.7 245.683 2698.96 247.397 2697.76 248.778C2693.47 253.941 2682.27 257.344 2666.63 259.224C2674.16 261.595 2681.43 264.726 2688.33 268.569ZM2333.56 271.343C2343.35 275.225 2360.66 276.118 2391.23 267.783C2402.3 264.899 2413.06 260.953 2423.37 256.001C2421.03 251.676 2419.57 246.93 2419.08 242.037C2418.5 235.56 2419.23 229.034 2421.22 222.844C2420.09 222.257 2418.99 221.667 2417.93 221.073C2376.26 236.078 2344.94 254.916 2333.56 271.343ZM2355.92 187.901C2341.24 202.671 2329.71 219.064 2324 233.956C2320.25 243.725 2317.4 257.172 2325.15 265.75C2326.19 266.9 2327.37 267.92 2328.66 268.787C2340.19 251.473 2370.08 232.917 2411.88 217.434C2401.97 210.935 2395.87 204.006 2393.61 196.646C2380.62 196.013 2367.86 193.051 2355.92 187.901ZM2431.1 258.129C2434.12 262.01 2437.79 265.346 2441.94 267.991C2450.4 264.77 2459.03 262.048 2467.81 259.839C2484.35 255.722 2501.14 252.705 2518.08 250.807C2500.38 247.887 2482.85 244.059 2465.54 239.338C2461.92 238.325 2458.43 237.294 2455.08 236.245C2451 243.475 2443.65 251.041 2431.1 258.129ZM2577.3 252.96C2591.41 254.177 2605.08 254.934 2617.8 255.24C2604.35 253.802 2590.83 253.041 2577.3 252.96H2577.3ZM2676.57 225.083C2675.94 227.131 2675.2 229.144 2674.36 231.111C2670.39 240.047 2664.54 248.022 2657.22 254.493C2676.29 253.079 2689.62 249.989 2693.54 245.264C2694.06 244.697 2694.38 243.975 2694.45 243.209C2694.51 242.444 2694.32 241.678 2693.91 241.031C2690.97 235.023 2684.73 229.692 2676.58 225.083H2676.57ZM2643.31 253.297C2645.17 253.663 2647.02 254.042 2648.83 254.439C2657.7 247.816 2664.76 239.043 2669.32 228.943C2670.22 226.842 2670.99 224.684 2671.62 222.484C2671.08 222.22 2670.53 221.959 2669.97 221.701C2634.2 224.924 2594.07 221.701 2577.25 213.102C2573.29 211.081 2568.82 208.269 2569.45 204.438C2570.05 200.759 2574.71 199.654 2578.16 199.132C2594.23 196.754 2639.86 201.778 2670.83 215.877C2671.58 215.802 2672.33 215.727 2673.08 215.649C2673.45 213.136 2673.65 210.6 2673.66 208.06C2630.05 192.693 2577.89 189.949 2526.31 195.849C2558.26 216.487 2602.01 237.544 2643.32 253.297H2643.31ZM2426.22 225.312C2424.63 230.54 2424.05 236.027 2424.53 241.473C2424.94 245.675 2426.16 249.756 2428.13 253.491C2438.27 247.82 2445.54 241.446 2449.76 234.531C2441.74 231.92 2433.88 228.841 2426.22 225.312ZM2575.35 247.461C2590.21 247.422 2605.07 248.194 2619.85 249.773C2583.37 234.624 2545.68 215.832 2517.71 196.926C2497.53 199.628 2477.54 203.575 2457.85 208.744C2458.17 209.759 2458.45 210.784 2458.69 211.82C2460.22 218.268 2459.78 225.027 2457.44 231.225C2460.52 232.186 2463.72 233.129 2467.02 234.053C2490.96 240.554 2515.3 245.465 2539.88 248.753C2551.59 247.907 2563.52 247.461 2575.35 247.461ZM2428.03 220.019C2435.9 223.698 2443.98 226.886 2452.24 229.564C2454.29 224.307 2454.68 218.546 2453.35 213.062C2453.13 212.086 2452.86 211.124 2452.55 210.175C2444.63 212.346 2436.85 214.689 2429.22 217.204C2428.8 218.138 2428.4 219.073 2428.03 220.01V220.019ZM2575.35 205.418C2576.69 206.541 2578.17 207.479 2579.76 208.208C2594.56 215.768 2627.05 218.561 2658.15 216.843C2645.91 212.567 2633.34 209.343 2620.55 207.208C2595.73 202.961 2579.26 203.702 2575.35 205.409V205.418ZM2399.49 196.761C2402.16 203 2408.63 209.151 2418.58 215.018C2420.52 214.336 2422.49 213.66 2424.47 212.989L2425.23 212.734C2429.12 204.93 2434.01 197.665 2439.77 191.119C2439.15 190.53 2438.51 189.957 2437.86 189.398C2425.63 194.16 2412.62 196.656 2399.49 196.761ZM2679.13 210.076C2679.06 211.728 2678.93 213.374 2678.73 215.016C2681.86 214.621 2684.93 214.174 2687.9 213.68C2685.02 212.415 2682.1 211.214 2679.13 210.076ZM2679.07 204.24C2685.27 206.541 2691.29 209.102 2697.12 211.924C2712.65 208.552 2724.7 203.629 2729.28 197.21C2730.73 195.175 2735.14 188.977 2723.29 177.538C2703.34 158.277 2675.5 148.632 2644.59 144.759C2650.13 149.152 2655.23 154.084 2659.8 159.483C2671.66 173.623 2678.19 189.081 2679.07 204.24ZM2443.55 195.025C2439.49 199.773 2435.87 204.883 2432.73 210.292C2438.54 208.463 2444.46 206.705 2450.43 205.06C2448.58 201.434 2446.26 198.061 2443.55 195.025ZM2447.25 190.865C2450.69 194.682 2453.58 198.974 2455.81 203.609C2474.02 198.813 2492.49 195.049 2511.12 192.336C2497.88 182.823 2487.32 173.356 2480.84 164.382C2468.38 171.473 2457.05 180.401 2447.25 190.865ZM2575.24 187.554C2609.87 187.554 2643.5 192.047 2673.39 202.221C2672.07 188.964 2666.04 175.467 2655.59 163.004C2649.26 155.59 2641.95 149.075 2633.86 143.642C2596.94 140.583 2556.58 144.796 2520.48 150.087C2508.31 152.037 2496.54 155.984 2485.64 161.768C2492.45 170.889 2504.27 180.94 2519.32 191.222C2537.87 188.819 2556.54 187.594 2575.24 187.554ZM2398.11 191.268C2409.92 191.325 2421.65 189.355 2432.79 185.441C2423.33 178.791 2412.83 175.207 2406.01 176.497C2399.78 177.678 2397.13 182.645 2398.11 191.268ZM2360.21 183.723C2370.54 187.907 2381.47 190.392 2392.58 191.081C2391.16 175.503 2400.67 171.923 2404.99 171.105C2414.59 169.276 2427.87 174.257 2438.93 183.033C2443.27 181.178 2447.44 178.958 2451.4 176.4C2464.66 167.732 2472.22 156.858 2469.77 149.953C2467.45 143.384 2456.11 140.645 2438.69 142.434C2411.87 145.189 2382.84 162.344 2360.21 183.723ZM2475.53 155.017C2475.06 157.87 2474.06 160.61 2472.59 163.096C2474.35 161.986 2476.12 160.918 2477.91 159.891C2477 158.325 2476.21 156.697 2475.54 155.017H2475.53ZM2551.72 119.634C2537.35 119.688 2523.04 121.417 2509.07 124.785C2489.38 129.445 2479.33 136.591 2479.19 146.024C2479.32 150.021 2480.52 153.91 2482.66 157.282C2494.22 151.041 2506.73 146.774 2519.69 144.659C2552.77 139.811 2589.41 135.877 2623.91 137.524C2601.75 125.525 2576.91 119.369 2551.72 119.634H2551.72Z" fill="#F1416C"/>
<path d="M2191.7 1684.27C2196.71 1475.22 1712.18 1294 1109.46 1279.52C506.748 1265.05 14.0882 1422.78 9.07579 1631.84C4.06337 1840.9 488.597 2022.11 1091.31 2036.59C1694.03 2051.07 2186.69 1893.33 2191.7 1684.27Z" fill="white"/>
<path d="M1820.33 1466.6C1891.61 1466.6 1949.39 1408.75 1949.39 1337.4C1949.39 1266.05 1891.61 1208.21 1820.33 1208.21C1749.05 1208.21 1691.26 1266.05 1691.26 1337.4C1691.26 1408.75 1749.05 1466.6 1820.33 1466.6Z" fill="white"/>
<path d="M1941.96 1586.05C1943.82 1509.04 1555.95 1437.2 1075.62 1425.59C595.287 1413.97 204.396 1466.98 202.537 1543.98C200.679 1620.98 588.556 1692.83 1068.89 1704.44C1549.22 1716.06 1940.11 1663.05 1941.96 1586.05Z" fill="#009EF7"/>
<path d="M1200.5 1708.81C1157.28 1708.81 1113.31 1708.28 1068.82 1707.2C836.367 1701.58 618.158 1681.79 454.388 1651.45C358.756 1633.74 198.515 1596.21 199.777 1543.91C201.039 1491.61 362.903 1461.88 459.278 1448.81C624.322 1426.43 843.232 1417.2 1075.68 1422.82C1308.13 1428.45 1526.34 1448.24 1690.11 1478.58C1785.74 1496.29 1945.98 1533.81 1944.72 1586.11C1943.46 1638.42 1781.59 1668.15 1685.22 1681.22C1551.77 1699.31 1383.07 1708.81 1200.5 1708.81ZM943.984 1426.74C761.645 1426.74 593.245 1436.22 460.02 1454.29C298.987 1476.12 206.145 1508.84 205.295 1544.05C204.445 1579.25 295.602 1616.42 455.39 1646.02C618.883 1676.3 836.783 1696.07 1068.95 1701.68C1301.12 1707.29 1519.72 1698.09 1684.48 1675.74C1845.51 1653.9 1938.35 1621.19 1939.2 1585.98C1940.05 1550.78 1848.9 1513.6 1689.11 1484.01C1525.61 1453.73 1307.71 1433.96 1075.55 1428.35C1031.11 1427.27 987.147 1426.74 943.984 1426.74Z" fill="#F1416C"/>
<path d="M272.479 1530.45C272.045 1530.45 271.625 1530.3 271.293 1530.02C270.961 1529.74 270.738 1529.35 270.664 1528.92C270.59 1528.49 270.669 1528.05 270.888 1527.68C271.106 1527.3 271.45 1527.02 271.859 1526.87C330.02 1505.99 423.858 1488.62 543.224 1476.63C543.71 1476.58 544.195 1476.72 544.573 1477.03C544.951 1477.34 545.19 1477.79 545.239 1478.27C545.288 1478.76 545.142 1479.25 544.833 1479.62C544.524 1480 544.078 1480.24 543.592 1480.29C424.518 1492.25 330.984 1509.56 273.101 1530.34C272.902 1530.41 272.691 1530.45 272.479 1530.45Z" fill="white"/>
<path d="M1935.93 1603.73C1935.66 1603.73 1935.4 1603.68 1935.16 1603.57C1934.92 1603.46 1934.71 1603.3 1934.54 1603.1C1913.51 1578.88 1853.2 1554.82 1760.13 1533.53C1759.65 1533.42 1759.24 1533.13 1758.98 1532.71C1758.72 1532.3 1758.63 1531.8 1758.74 1531.32C1758.85 1530.85 1759.14 1530.43 1759.56 1530.17C1759.97 1529.91 1760.47 1529.83 1760.95 1529.93C1854.78 1551.4 1915.77 1575.87 1937.31 1600.68C1937.55 1600.95 1937.7 1601.28 1937.75 1601.63C1937.8 1601.98 1937.75 1602.33 1937.6 1602.66C1937.45 1602.98 1937.22 1603.25 1936.92 1603.44C1936.63 1603.63 1936.28 1603.73 1935.93 1603.73Z" fill="white"/>
<path d="M1906.93 712.007C1909.17 835.92 1913.18 968.454 1928.97 1076.38C1910.59 1089.99 1893.2 1103.56 1877.09 1116.85C1860.07 1130.9 1844.49 1144.63 1830.61 1157.74C1820.51 1224.19 1805.19 1289.74 1784.81 1353.79C1754.67 1448.9 1713.16 1541.79 1661.17 1624.69C1647.7 1646.18 1633.44 1667.07 1618.41 1687.37C1489.6 1701.18 1330.09 1708.51 1155.51 1707.15C1081.23 1620.88 1022.06 1503.56 979.43 1397.96C1040.07 1323.05 1196.04 1205.6 1309.03 1155.99C1394.34 906.088 1391.05 683.386 1407.24 494.959C1610.54 467.163 1775.26 553.389 1906.93 712.007Z" fill="white"/>
<path d="M1918.92 946.226C1918.7 946.226 1918.47 946.2 1918.26 946.147C1889.71 939.166 1863.91 923.77 1844.19 901.951C1824.48 880.132 1811.76 852.894 1807.68 823.76C1803.6 794.626 1808.35 764.937 1821.31 738.533C1834.27 712.13 1854.85 690.227 1880.39 675.658C1880.7 675.479 1881.05 675.363 1881.41 675.318C1881.77 675.273 1882.13 675.299 1882.48 675.396C1882.83 675.492 1883.16 675.656 1883.44 675.879C1883.73 676.101 1883.97 676.378 1884.15 676.694C1884.33 677.009 1884.44 677.357 1884.49 677.717C1884.53 678.077 1884.51 678.442 1884.41 678.792C1884.32 679.142 1884.15 679.47 1883.93 679.756C1883.71 680.043 1883.43 680.282 1883.12 680.462C1858.54 694.484 1838.74 715.563 1826.27 740.974C1813.79 766.385 1809.23 794.958 1813.15 822.996C1817.08 851.034 1829.32 877.248 1848.29 898.247C1867.26 919.245 1892.09 934.062 1919.57 940.78C1920.23 940.941 1920.8 941.336 1921.18 941.891C1921.57 942.446 1921.74 943.123 1921.65 943.793C1921.57 944.463 1921.25 945.081 1920.75 945.53C1920.24 945.978 1919.59 946.226 1918.92 946.226Z" fill="white"/>
<path d="M1681.16 991.598C1680.63 991.598 1680.12 991.446 1679.67 991.161C1679.23 990.875 1678.87 990.467 1678.65 989.987C1678.43 989.506 1678.36 988.972 1678.43 988.448C1678.5 987.925 1678.73 987.433 1679.07 987.033C1699.1 963.759 1711.02 934.597 1713.04 903.947C1715.06 873.296 1707.07 842.819 1690.27 817.114C1690.06 816.811 1689.92 816.47 1689.85 816.113C1689.78 815.755 1689.78 815.386 1689.86 815.029C1689.93 814.672 1690.07 814.332 1690.28 814.03C1690.48 813.728 1690.74 813.469 1691.05 813.269C1691.35 813.069 1691.69 812.932 1692.05 812.864C1692.41 812.797 1692.78 812.801 1693.13 812.876C1693.49 812.952 1693.83 813.097 1694.13 813.304C1694.43 813.511 1694.68 813.776 1694.88 814.082C1712.34 840.79 1720.65 872.458 1718.55 904.306C1716.45 936.155 1704.06 966.456 1683.25 990.639C1682.99 990.941 1682.67 991.183 1682.31 991.349C1681.95 991.514 1681.56 991.6 1681.16 991.598Z" fill="white"/>
<path d="M1770.05 1357.05C1747.41 1357.03 1725.08 1351.76 1704.8 1341.66C1684.53 1331.57 1666.87 1316.91 1653.2 1298.85C1639.53 1280.78 1630.21 1259.79 1625.99 1237.53C1621.77 1215.26 1622.75 1192.32 1628.85 1170.49C1634.96 1148.67 1646.03 1128.55 1661.19 1111.72C1676.36 1094.89 1695.2 1081.8 1716.26 1073.47C1737.32 1065.14 1760.02 1061.8 1782.58 1063.71C1805.14 1065.63 1826.95 1072.74 1846.31 1084.49C1846.75 1084.76 1847.11 1085.14 1847.34 1085.6C1847.58 1086.06 1847.68 1086.58 1847.63 1087.09C1847 1094.23 1846.23 1101.91 1845.26 1110.58C1843.61 1125.36 1841.69 1140.02 1839.55 1154.15C1839.45 1154.77 1839.15 1155.35 1838.68 1155.77C1837.67 1156.69 1836.69 1157.61 1835.72 1158.53C1825.6 1224.81 1810.3 1290.2 1789.97 1354.08C1789.81 1354.58 1789.51 1355.03 1789.1 1355.37C1788.69 1355.71 1788.2 1355.92 1787.67 1355.99C1781.82 1356.69 1775.94 1357.05 1770.05 1357.05ZM1770.38 1068.68C1760.2 1068.69 1750.05 1069.78 1740.11 1071.96C1704.79 1079.67 1673.77 1100.63 1653.43 1130.54C1633.09 1160.45 1624.98 1197.02 1630.76 1232.74C1636.55 1268.45 1655.79 1300.59 1684.52 1322.53C1713.26 1344.47 1749.31 1354.56 1785.25 1350.7C1805.32 1287.33 1820.42 1222.49 1830.41 1156.76C1830.5 1156.15 1830.79 1155.59 1831.24 1155.16L1831.91 1154.53C1832.68 1153.81 1833.45 1153.08 1834.23 1152.35C1836.31 1138.59 1838.17 1124.33 1839.77 1109.96C1840.66 1102.03 1841.38 1094.93 1841.98 1088.33C1820.31 1075.47 1795.58 1068.69 1770.38 1068.68Z" fill="white"/>
<path d="M1430.56 580.36C1430.1 580.36 1429.64 580.242 1429.23 580.016C1428.82 579.79 1428.48 579.464 1428.23 579.068C1427.98 578.672 1427.84 578.22 1427.81 577.754C1427.78 577.287 1427.87 576.821 1428.08 576.4L1505.77 414.409C1492.06 412.806 1480.81 403.726 1475.19 389.438C1467.53 369.981 1470.35 340.412 1493.94 318.205C1500.05 312.102 1507.51 307.529 1515.72 304.86C1516.43 304.655 1517.18 304.739 1517.82 305.092C1518.46 305.445 1518.94 306.038 1519.14 306.742C1519.35 307.446 1519.26 308.202 1518.91 308.844C1518.56 309.486 1517.97 309.961 1517.26 310.166C1509.89 312.596 1503.2 316.729 1497.72 322.229C1476.13 342.553 1473.57 370.265 1480.32 387.412C1485.73 401.163 1496.57 409.082 1510.05 409.145C1510.51 409.147 1510.97 409.267 1511.38 409.493C1511.78 409.72 1512.13 410.046 1512.37 410.441C1512.62 410.836 1512.76 411.287 1512.79 411.753C1512.82 412.218 1512.73 412.683 1512.52 413.103L1433.05 578.8C1432.83 579.268 1432.47 579.663 1432.03 579.939C1431.59 580.215 1431.08 580.361 1430.56 580.36Z" fill="#1A1A1A"/>
<path d="M1499.51 376.554C1498.88 376.554 1498.27 376.337 1497.78 375.942C1497.29 375.546 1496.95 374.995 1496.81 374.379C1494.85 365.311 1496.55 355.832 1501.56 348.023C1506.57 340.213 1514.46 334.71 1523.52 332.722C1523.87 332.64 1524.24 332.63 1524.6 332.692C1524.96 332.754 1525.31 332.887 1525.61 333.083C1525.92 333.278 1526.19 333.533 1526.4 333.833C1526.61 334.132 1526.75 334.47 1526.83 334.827C1526.91 335.183 1526.91 335.552 1526.85 335.911C1526.78 336.27 1526.65 336.613 1526.45 336.919C1526.25 337.226 1525.99 337.489 1525.69 337.695C1525.39 337.902 1525.05 338.046 1524.69 338.12C1517.07 339.795 1510.42 344.429 1506.2 351.006C1501.99 357.583 1500.55 365.566 1502.2 373.202C1502.36 373.918 1502.23 374.667 1501.83 375.283C1501.44 375.9 1500.81 376.334 1500.1 376.49C1499.9 376.533 1499.7 376.555 1499.51 376.554Z" fill="#1A1A1A"/>
<path d="M1531.54 373.91C1531.17 373.911 1530.8 373.837 1530.46 373.693C1530.12 373.548 1529.81 373.337 1529.56 373.07L1504.82 347.534C1504.33 347.004 1504.07 346.304 1504.09 345.583C1504.11 344.861 1504.41 344.176 1504.92 343.674C1505.44 343.172 1506.14 342.892 1506.86 342.895C1507.58 342.897 1508.27 343.182 1508.78 343.688L1533.52 369.226C1533.89 369.616 1534.15 370.108 1534.25 370.641C1534.35 371.174 1534.29 371.725 1534.08 372.224C1533.87 372.723 1533.51 373.149 1533.06 373.449C1532.61 373.749 1532.08 373.909 1531.54 373.91Z" fill="#1A1A1A"/>
<path d="M1680.01 672.101C1681.5 684.15 1681.72 696.324 1680.64 708.419L1681.29 709.201C1672.42 824.701 1523.01 867.368 1423.71 750.015C1340.35 651.48 1367.75 516.555 1470.76 497.323L1511.93 411.482C1473.94 411.325 1461.37 354.018 1497.72 319.798C1503.51 313.991 1510.59 309.636 1518.38 307.09L1583.85 296.513L1617.51 392.797L1611.21 544.04C1646.96 575.831 1673.79 620.798 1679.97 672.044L1680.01 672.101Z" fill="white"/>
<path d="M1558.98 822.361C1516.35 822.361 1465.66 803.871 1421.6 751.8C1375.97 697.873 1360.15 629.129 1380.32 572.393C1394.92 531.321 1427.14 503.142 1468.87 494.88L1507.66 413.996C1493.94 412.392 1482.69 403.305 1477.07 389.026C1469.41 369.569 1472.24 339.999 1495.82 317.793C1501.93 311.689 1509.4 307.117 1517.61 304.448C1517.72 304.416 1517.83 304.391 1517.94 304.374L1583.41 293.797C1584.05 293.696 1584.7 293.822 1585.26 294.154C1585.81 294.485 1586.24 295.002 1586.45 295.613L1620.11 391.895C1620.23 392.225 1620.28 392.574 1620.26 392.923L1614.02 542.862C1652.38 577.373 1676.74 622.957 1682.67 671.388C1682.71 671.514 1682.73 671.643 1682.75 671.773C1684.21 683.639 1684.45 695.623 1683.48 707.539C1683.89 708.076 1684.09 708.742 1684.03 709.414C1680.11 760.545 1649.1 800.359 1601.09 815.913C1587.48 820.242 1573.27 822.418 1558.98 822.361ZM1518.99 309.794C1511.68 312.239 1505.05 316.355 1499.6 321.814C1478.02 342.134 1475.46 369.847 1482.21 386.994C1487.62 400.745 1498.46 408.665 1511.93 408.727C1512.4 408.729 1512.86 408.849 1513.26 409.076C1513.67 409.302 1514.01 409.628 1514.26 410.023C1514.51 410.418 1514.65 410.87 1514.68 411.335C1514.7 411.8 1514.61 412.265 1514.41 412.685L1473.24 498.527C1473.06 498.918 1472.78 499.26 1472.43 499.524C1472.09 499.789 1471.69 499.968 1471.26 500.048C1430.85 507.599 1399.6 534.635 1385.52 574.246C1366.02 629.131 1381.45 695.803 1425.81 748.231C1483.92 816.898 1553.58 825.505 1599.39 810.658C1644.85 795.924 1674.34 758.381 1678.45 710.097C1678.03 709.546 1677.83 708.857 1677.89 708.167C1678.93 696.386 1678.73 684.53 1677.31 672.79C1677.27 672.659 1677.25 672.525 1677.23 672.39C1671.48 624.762 1647.38 579.92 1609.38 546.12C1609.07 545.847 1608.83 545.51 1608.67 545.133C1608.51 544.756 1608.44 544.348 1608.46 543.939L1614.73 393.225L1582.01 299.626L1518.99 309.794Z" fill="#1A1A1A"/>
<path d="M1681.24 709.582C1681.12 710.635 1680.98 711.696 1680.82 712.763C1609.64 724.815 1560.57 677.15 1543.32 605.744L1561.67 579.256C1572.2 649.595 1611.52 709.166 1681.24 709.582Z" fill="#F1416C"/>
<path d="M1659.57 717.358C1602.17 717.358 1557.59 676.533 1540.64 606.395C1540.55 606.016 1540.54 605.622 1540.61 605.239C1540.68 604.856 1540.83 604.492 1541.06 604.172L1559.4 577.684C1559.72 577.229 1560.16 576.879 1560.68 576.68C1561.19 576.481 1561.76 576.442 1562.29 576.567C1562.83 576.692 1563.32 576.977 1563.7 577.384C1564.07 577.79 1564.32 578.3 1564.4 578.847C1576.34 658.615 1620.02 706.453 1681.26 706.82C1681.64 706.822 1682.02 706.905 1682.37 707.064C1682.73 707.223 1683.04 707.454 1683.3 707.742C1683.55 708.03 1683.75 708.369 1683.87 708.737C1683.98 709.105 1684.02 709.493 1683.98 709.877C1683.86 710.972 1683.72 712.074 1683.55 713.181C1683.46 713.755 1683.2 714.287 1682.79 714.701C1682.38 715.115 1681.86 715.39 1681.29 715.487C1674.11 716.717 1666.85 717.343 1659.57 717.358ZM1546.3 606.299C1563.62 676.309 1609.56 715.581 1667.98 711.527C1640.2 708.203 1615.91 694.843 1597.14 672.417C1578.94 650.668 1566.19 621.054 1560.05 586.449L1546.3 606.299Z" fill="#F1416C"/>
<path d="M1200.07 1708.81C1186.4 1708.81 1172.67 1708.75 1158.86 1708.65C1158.47 1708.64 1158.08 1708.56 1157.72 1708.39C1157.37 1708.23 1157.05 1707.99 1156.79 1707.69C1076.78 1614.74 1016.62 1487.83 980.236 1397.73C980.051 1397.27 979.993 1396.77 980.066 1396.29C980.139 1395.8 980.341 1395.34 980.652 1394.95C1044.58 1316 1201.32 1200.81 1310.19 1152.68C1378.03 953.401 1389.51 771.119 1399.65 610.252C1402.22 569.523 1404.64 531.056 1407.87 493.456C1407.92 492.831 1408.19 492.243 1408.62 491.789C1409.05 491.334 1409.62 491.04 1410.25 490.955C1601.69 464.802 1770.65 538.154 1912.44 708.975C1912.84 709.459 1913.06 710.063 1913.08 710.69C1915.36 837.24 1919.6 968.929 1935.09 1074.71C1935.16 1075.21 1935.1 1075.71 1934.9 1076.18C1934.71 1076.64 1934.4 1077.04 1934 1077.34C1900 1102.26 1867.47 1129.13 1836.58 1157.82C1811.26 1324.98 1751.01 1490.83 1666.89 1624.9C1653.22 1646.7 1638.79 1667.85 1624 1687.75C1623.78 1688.06 1623.49 1688.32 1623.16 1688.51C1622.83 1688.7 1622.46 1688.82 1622.08 1688.86C1499.86 1701.96 1354.71 1708.81 1200.07 1708.81ZM1160.16 1703.13C1329.01 1704.41 1488.04 1697.61 1620.29 1683.49C1634.73 1663.98 1648.83 1643.28 1662.2 1621.96C1746.09 1488.26 1806.13 1322.8 1831.26 1156.05C1831.35 1155.44 1831.64 1154.88 1832.09 1154.45C1862.94 1125.74 1895.42 1098.83 1929.38 1073.88C1914.08 968.342 1909.84 837.546 1907.57 711.762C1767.74 543.685 1601.42 471.145 1413.17 496.136C1410.04 532.971 1407.66 570.702 1405.15 610.6C1394.97 772.124 1383.44 955.197 1315.01 1155.61C1314.89 1155.98 1314.69 1156.31 1314.43 1156.59C1314.17 1156.87 1313.86 1157.1 1313.51 1157.25C1205.83 1204.55 1050.31 1318.54 985.964 1397.17C1022.12 1486.48 1081.48 1611.36 1160.15 1703.13H1160.16Z" fill="#1A1A1A"/>
<path d="M2251.35 1649.52C2248.96 1650.04 2246.56 1650.53 2244.13 1650.94C2223.05 1654.75 2201.51 1655.38 2180.24 1652.8C2149.7 1648.97 2120.15 1639.42 2093.14 1624.64C2078.64 1616.8 2064.87 1607.67 2051.99 1597.38C2043.94 1590.96 2036.05 1584.28 2028.32 1577.35C1934.98 1493.66 1866.5 1375.8 1815.28 1253.77C1822.94 1220.87 1829.18 1188.32 1833.98 1156.47C1865.15 1127.45 1897.99 1100.28 1932.35 1075.11C1893.67 810.82 1925.75 398.035 1880.83 327.108C1842.2 266.118 1842.8 218.911 1751.57 199.683C1716.58 192.327 1727.82 162.001 1800.33 183.476C1783.39 171.346 1757.97 165.513 1750.59 164.137C1726.25 159.717 1729.78 141.863 1747.29 138.197C1741.54 128.055 1750.05 115.949 1779.75 119.691C1779.26 113.884 1791.31 109.009 1811.16 115.201C1851.02 127.694 1893.1 141.012 1925.9 167.983C1962.64 198.206 1974.87 233.463 1985.72 278.141C2080.07 666.388 2344.15 900.606 2412.82 1349.29C2438.86 1519.26 2369.24 1623.76 2251.35 1649.52Z" fill="white"/>
<path d="M2206.21 1657.11C2197.42 1657.11 2188.64 1656.59 2179.91 1655.54C2149.02 1651.7 2119.13 1642.04 2091.83 1627.07C2077.18 1619.15 2063.28 1609.94 2050.26 1599.55C2042.31 1593.19 2034.3 1586.42 2026.47 1579.42C1943.98 1505.44 1872.07 1396.24 1812.74 1254.84C1812.51 1254.31 1812.46 1253.71 1812.59 1253.15C1820.18 1220.56 1826.45 1187.9 1831.25 1156.06C1831.34 1155.45 1831.63 1154.88 1832.08 1154.46C1862.93 1125.74 1895.42 1098.84 1929.37 1073.88C1911.39 949.775 1908.85 793.276 1906.6 655.128C1904.07 499.735 1901.89 365.532 1878.49 328.59C1869.44 314.287 1862.67 301.028 1856.12 288.203C1834.98 246.791 1819.71 216.87 1751 202.388C1739.69 200.01 1731.86 195 1730.08 188.987C1729.59 187.359 1729.58 185.628 1730.03 183.991C1730.49 182.355 1731.39 180.879 1732.64 179.734C1738.36 173.997 1753.45 170.632 1779.59 175.547C1770.04 171.746 1760.17 168.84 1750.09 166.865C1737.92 164.655 1730.58 158.762 1730.49 151.094C1730.4 144.648 1735.5 139.007 1743.49 136.371C1742.87 134.527 1742.68 132.566 1742.94 130.638C1743.2 128.711 1743.9 126.869 1744.98 125.254C1747.81 121.035 1755.75 114.478 1777.53 116.67C1778.11 115.367 1779.01 114.228 1780.13 113.354C1784.78 109.621 1795.59 107.461 1811.98 112.572C1850.51 124.646 1894.18 138.333 1927.65 165.856C1966.51 197.824 1978.15 235.328 1988.4 277.495C2030.62 451.25 2105.39 591.24 2184.54 739.451C2279.45 917.164 2377.59 1100.93 2415.54 1348.88C2428.07 1430.66 2418.7 1501.87 2388.45 1554.86C2359.62 1605.34 2312.42 1639.01 2251.93 1652.22C2249.94 1652.65 2247.31 1653.2 2244.6 1653.66C2231.93 1655.97 2219.08 1657.12 2206.21 1657.11ZM1818.16 1253.53C1877.11 1393.76 1948.43 1502.02 2030.15 1575.3C2037.9 1582.23 2045.82 1588.93 2053.7 1595.23C2066.45 1605.41 2080.09 1614.44 2094.44 1622.21C2121.14 1636.84 2150.36 1646.29 2180.56 1650.06C2201.56 1652.6 2222.82 1651.98 2243.63 1648.22C2246.27 1647.76 2248.83 1647.23 2250.77 1646.81C2374.87 1619.7 2434.43 1508.63 2410.08 1349.71C2372.28 1102.69 2274.36 919.349 2179.67 742.045C2100.36 593.526 2025.43 453.238 1983.04 278.799C1973.03 237.613 1961.69 201.008 1924.14 170.122C1891.5 143.281 1848.38 129.766 1810.33 117.85C1795 113.062 1786.31 115.483 1783.59 117.666C1783.28 117.863 1783.02 118.128 1782.83 118.441C1782.64 118.754 1782.53 119.106 1782.5 119.471C1782.53 119.881 1782.48 120.293 1782.33 120.678C1782.19 121.063 1781.96 121.411 1781.66 121.696C1781.36 121.981 1781.01 122.196 1780.62 122.325C1780.23 122.454 1779.81 122.495 1779.41 122.444C1764.45 120.561 1753.29 122.76 1749.57 128.337C1748.76 129.616 1748.35 131.101 1748.37 132.613C1748.39 134.125 1748.85 135.598 1749.69 136.854C1749.9 137.232 1750.02 137.656 1750.04 138.091C1750.06 138.526 1749.98 138.96 1749.8 139.356C1749.62 139.753 1749.35 140.102 1749.01 140.374C1748.67 140.646 1748.27 140.834 1747.85 140.922C1740.81 142.395 1735.94 146.551 1736 151.03C1736.07 155.776 1741.84 159.763 1751.08 161.438C1754.29 162.034 1782.92 167.633 1801.93 181.24C1802.46 181.62 1802.84 182.177 1803 182.811C1803.16 183.445 1803.09 184.116 1802.81 184.704C1802.52 185.292 1802.03 185.759 1801.43 186.022C1800.84 186.284 1800.16 186.325 1799.54 186.138C1759.63 174.319 1741.17 179.012 1736.54 183.646C1736 184.092 1735.6 184.686 1735.39 185.357C1735.18 186.028 1735.17 186.745 1735.36 187.421C1736.25 190.396 1741.17 194.691 1752.13 196.999C1823.41 212.024 1840.01 244.539 1861.03 285.708C1867.52 298.416 1874.23 311.561 1883.15 325.647C1907.38 363.904 1909.57 498.827 1912.11 655.054C1914.37 793.644 1916.92 950.723 1935.07 1074.73C1935.14 1075.23 1935.08 1075.73 1934.88 1076.19C1934.69 1076.66 1934.38 1077.06 1933.97 1077.35C1899.98 1102.28 1867.45 1129.15 1836.55 1157.84C1831.81 1189.23 1825.62 1221.41 1818.17 1253.53H1818.16Z" fill="#1A1A1A"/>
<path d="M1910.35 502.321C1972.25 355.542 1951.64 206.645 1864.32 169.749C1777.01 132.853 1656.05 221.932 1594.15 368.711C1532.25 515.49 1552.85 664.387 1640.17 701.283C1727.49 738.178 1848.45 649.1 1910.35 502.321Z" fill="white"/>
<path d="M2278.97 1539.42C2266.49 1572.72 2251.45 1616 2244.13 1650.94C2192.58 1660.35 2139.82 1649.88 2093.14 1624.64C2091.33 1623.07 2089.53 1621.47 2087.75 1619.84C2146.64 1601.28 2174.85 1507.59 2208.06 1425.23C2243.25 1338.06 2326.95 1411.42 2278.97 1539.42Z" fill="#F1416C"/>
<path d="M2205.91 1657.15C2167.48 1657.15 2128.65 1646.99 2091.83 1627.07C2091.65 1626.97 2091.48 1626.86 2091.33 1626.72C2089.5 1625.14 2087.68 1623.52 2085.89 1621.88C2085.53 1621.55 2085.26 1621.14 2085.12 1620.67C2084.97 1620.21 2084.95 1619.72 2085.05 1619.24C2085.16 1618.77 2085.38 1618.33 2085.71 1617.97C2086.04 1617.62 2086.46 1617.35 2086.92 1617.2C2136.55 1601.56 2164.82 1528.67 2192.15 1458.18C2196.49 1446.98 2200.98 1435.39 2205.5 1424.2C2220.56 1386.89 2243.24 1380.35 2259.45 1386.67C2275.59 1392.96 2288.33 1412.14 2293.55 1437.96C2297.76 1458.86 2299.09 1493.58 2281.55 1540.38C2264.32 1586.38 2252.64 1623.77 2246.83 1651.51C2246.72 1652.05 2246.45 1652.54 2246.06 1652.92C2245.66 1653.3 2245.17 1653.56 2244.63 1653.66C2231.85 1655.99 2218.9 1657.16 2205.91 1657.15ZM2094.72 1622.35C2142.2 1647.95 2193.02 1657.01 2241.82 1648.55C2247.8 1620.74 2259.43 1583.7 2276.38 1538.44C2306.1 1459.18 2284.48 1402.36 2257.44 1391.81C2239.9 1384.97 2221.96 1398.17 2210.62 1426.27C2206.12 1437.43 2201.63 1448.99 2197.3 1460.18C2170.3 1529.8 2142.41 1601.73 2093.06 1620.9C2093.61 1621.39 2094.17 1621.87 2094.72 1622.35Z" fill="#F1416C"/>
<path d="M1682.56 712.473C1667.7 712.55 1652.98 709.624 1639.28 703.872C1596.93 685.981 1568.47 641.939 1559.11 579.858C1559.05 579.496 1559.06 579.126 1559.15 578.768C1559.23 578.411 1559.38 578.073 1559.6 577.776C1559.81 577.479 1560.09 577.227 1560.4 577.036C1560.71 576.845 1561.06 576.719 1561.42 576.664C1561.79 576.61 1562.16 576.628 1562.51 576.718C1562.87 576.808 1563.2 576.968 1563.49 577.188C1563.79 577.409 1564.03 577.686 1564.22 578.003C1564.4 578.32 1564.52 578.671 1564.57 579.035C1573.63 639.141 1600.92 681.668 1641.42 698.783C1682.72 716.23 1733.12 705.478 1783.33 668.499C1833.97 631.21 1878.24 571.828 1907.98 501.29C1969.19 356.148 1949.2 208.582 1863.43 172.337C1863.09 172.196 1862.79 171.99 1862.54 171.732C1862.28 171.473 1862.08 171.167 1861.95 170.831C1861.67 170.151 1861.68 169.39 1861.96 168.715C1862.1 168.381 1862.31 168.078 1862.57 167.823C1862.82 167.569 1863.13 167.367 1863.47 167.231C1864.14 166.955 1864.9 166.961 1865.58 167.247C1908.74 185.48 1937.38 230.674 1946.21 294.493C1954.97 357.793 1943.2 431.998 1913.07 503.439C1882.94 574.88 1838.03 635.08 1786.61 672.951C1751.12 699.082 1715.41 712.471 1682.56 712.473Z" fill="#1A1A1A"/>
<path d="M1922.38 1082.55C1891.6 1105.57 1862.09 1130.24 1833.98 1156.46C1828.72 1192.08 1819.5 1237.23 1815.29 1253.78C1824.64 1276.06 1834.56 1298.23 1845.15 1320.03C1811.05 1243.56 1881.32 1135.62 1935.79 1096.71L1922.38 1082.55Z" fill="#F1416C"/>
<path d="M1845.16 1322.8C1844.64 1322.8 1844.13 1322.65 1843.69 1322.38C1843.25 1322.1 1842.9 1321.71 1842.67 1321.24C1832.56 1300.37 1822.48 1278.04 1812.75 1254.84C1812.52 1254.29 1812.48 1253.67 1812.62 1253.09C1816.9 1236.26 1826.06 1191.21 1831.26 1156.06C1831.35 1155.45 1831.64 1154.88 1832.09 1154.45C1860.28 1128.17 1889.87 1103.43 1920.72 1080.34C1921.26 1079.93 1921.94 1079.74 1922.61 1079.79C1923.29 1079.85 1923.92 1080.16 1924.39 1080.65L1937.79 1094.81C1938.06 1095.1 1938.27 1095.44 1938.4 1095.81C1938.53 1096.19 1938.57 1096.58 1938.54 1096.98C1938.5 1097.37 1938.38 1097.75 1938.18 1098.09C1937.98 1098.44 1937.71 1098.73 1937.39 1098.96C1887.69 1134.46 1813.06 1241.29 1847.68 1318.91C1847.87 1319.33 1847.95 1319.79 1847.91 1320.25C1847.87 1320.71 1847.72 1321.15 1847.47 1321.54C1847.22 1321.92 1846.88 1322.24 1846.48 1322.46C1846.07 1322.68 1845.62 1322.8 1845.16 1322.8ZM1818.2 1253.55C1823.51 1266.19 1828.93 1278.58 1834.39 1290.61C1830.93 1261.55 1837.83 1227.96 1854.78 1193.07C1873.45 1154.63 1902.69 1117.88 1931.63 1096.32L1922.07 1086.23C1892.35 1108.58 1863.81 1132.47 1836.58 1157.81C1831.42 1192.39 1822.55 1236.12 1818.2 1253.55L1818.2 1253.55Z" fill="#F1416C"/>
<path d="M2003.44 305.062C2041.74 332.079 2041.52 415.695 1977.06 453.763C1925.54 484.196 1843.82 462.235 1820.88 400.401L2003.44 305.062Z" fill="#F1416C"/>
<path d="M1924.71 470.154C1910.61 470.126 1896.63 467.691 1883.35 462.955C1852.45 451.974 1828.74 429.525 1818.29 401.362C1818.06 400.731 1818.06 400.037 1818.3 399.409C1818.55 398.781 1819.01 398.263 1819.6 397.951L2002.16 302.612C2002.61 302.376 2003.11 302.269 2003.62 302.302C2004.12 302.334 2004.61 302.505 2005.02 302.796C2022.85 315.366 2033.23 340.342 2032.11 367.98C2030.65 404.2 2010.6 437.155 1978.46 456.135C1962.11 465.516 1943.55 470.356 1924.71 470.154ZM1824.35 401.707C1834.64 427.269 1856.68 447.615 1885.2 457.746C1916.35 468.817 1950.17 466.438 1975.66 451.383C2006.17 433.361 2025.21 402.103 2026.6 367.766C2027.61 342.7 2018.67 320.112 2003.19 308.308L1824.35 401.707Z" fill="#F1416C"/>
<path d="M1853.96 207.987C1853.49 207.987 1853.03 207.867 1852.62 207.637C1819.22 188.982 1775.89 178.156 1753.29 178.563C1752.56 178.565 1751.86 178.282 1751.34 177.775C1750.81 177.267 1750.51 176.574 1750.49 175.845C1750.48 175.482 1750.55 175.121 1750.68 174.784C1750.82 174.447 1751.01 174.139 1751.27 173.878C1751.52 173.617 1751.82 173.409 1752.15 173.265C1752.48 173.121 1752.84 173.043 1753.2 173.038C1776.55 172.703 1821.1 183.705 1855.31 202.812C1855.84 203.11 1856.26 203.577 1856.5 204.14C1856.74 204.702 1856.79 205.329 1856.63 205.921C1856.48 206.513 1856.13 207.037 1855.65 207.411C1855.16 207.785 1854.57 207.988 1853.96 207.987Z" fill="#1A1A1A"/>
<path d="M1901.58 180.827C1900.91 180.829 1900.25 180.581 1899.74 180.129C1865.78 149.924 1820.94 128.813 1779.8 123.662C1779.08 123.571 1778.42 123.194 1777.97 122.616C1777.52 122.037 1777.32 121.304 1777.41 120.577C1777.5 119.85 1777.87 119.188 1778.45 118.739C1779.03 118.289 1779.76 118.088 1780.49 118.179C1822.69 123.463 1868.65 145.078 1903.41 175.998C1903.83 176.37 1904.13 176.861 1904.26 177.406C1904.39 177.951 1904.36 178.524 1904.16 179.049C1903.96 179.573 1903.6 180.024 1903.14 180.341C1902.68 180.659 1902.13 180.828 1901.57 180.827H1901.58Z" fill="#1A1A1A"/>
<path d="M1959.81 1200.11C1959.23 1200.11 1958.67 1199.93 1958.2 1199.59C1957.74 1199.26 1957.38 1198.79 1957.2 1198.24C1914.06 1072.33 1909.98 846.012 1907.54 710.791C1907.54 710.428 1907.6 710.068 1907.73 709.73C1907.87 709.392 1908.06 709.084 1908.32 708.823C1908.57 708.562 1908.87 708.353 1909.2 708.208C1909.53 708.063 1909.89 707.985 1910.25 707.979C1910.98 707.984 1911.68 708.269 1912.2 708.774C1912.72 709.279 1913.03 709.965 1913.06 710.691C1915.5 845.587 1919.56 1071.36 1962.42 1196.45C1962.56 1196.86 1962.6 1197.31 1962.54 1197.74C1962.48 1198.18 1962.31 1198.59 1962.05 1198.95C1961.8 1199.31 1961.46 1199.6 1961.07 1199.8C1960.68 1200 1960.25 1200.11 1959.81 1200.11Z" fill="#1A1A1A"/>
<path d="M1768.17 118.285C1718.71 83.6426 1627.7 100.57 1607.18 146.974C1568.24 120.791 1549.02 134.717 1531.19 173.722C1510.34 219.249 1508.07 272.051 1516.49 307.514C1543.12 299.742 1563.98 327.415 1565.66 364.165C1566.56 383.438 1567.09 394.313 1569.12 409.585C1574.27 448.484 1616.88 445.001 1630.29 400.214C1634.37 386.592 1637.32 372.656 1639.12 358.548C1676.14 382.196 1762.01 425.811 1892.13 413.462C2157.8 388.25 2146.68 8.8425 1768.17 118.285Z" fill="#F1416C"/>
<path d="M1593.64 439.228C1592.95 439.228 1592.27 439.201 1591.6 439.147C1578.3 438.086 1568.64 426.897 1566.39 409.949C1564.31 394.399 1563.78 383.068 1562.9 364.293C1561.9 342.262 1553.6 323.089 1541.25 314.249C1537.85 311.735 1533.91 310.055 1529.74 309.346C1525.58 308.637 1521.3 308.918 1517.27 310.165C1516.91 310.27 1516.53 310.301 1516.16 310.255C1515.79 310.209 1515.43 310.089 1515.1 309.9C1514.78 309.712 1514.5 309.46 1514.28 309.159C1514.05 308.858 1513.89 308.515 1513.81 308.15C1506.37 276.827 1505.81 222.523 1528.68 172.57C1539.78 148.284 1550.68 135.775 1564.01 132.01C1575.65 128.719 1589.43 132.294 1606.05 142.932C1615.48 124.717 1636.14 110.078 1663.33 102.494C1700.66 92.0769 1741.82 97.105 1768.66 115.267C1833.24 96.7366 1890.59 91.3549 1939.14 99.2672C1981.98 106.249 2017.45 123.918 2041.69 150.36C2077.14 189.022 2086.77 245.337 2066.81 297.334C2041.28 363.835 1976.08 408.279 1892.4 416.22C1876.83 417.694 1861.86 418.375 1847.51 418.375C1747.88 418.375 1677.93 385.84 1641.29 363.172C1639.45 375.976 1636.65 388.625 1632.94 401.015C1624.95 427.676 1607.82 439.228 1593.64 439.228ZM1525.4 303.435C1532.26 303.468 1538.93 305.68 1544.46 309.755C1558.36 319.7 1567.32 339.998 1568.42 364.037C1569.29 382.659 1569.82 393.904 1571.86 409.22C1573.77 423.656 1581.32 432.783 1592.04 433.64C1603.98 434.61 1620.19 424.287 1627.64 399.42C1631.69 385.942 1634.61 372.153 1636.39 358.193C1636.45 357.732 1636.63 357.292 1636.9 356.917C1637.17 356.541 1637.54 356.24 1637.96 356.043C1638.38 355.846 1638.85 355.758 1639.31 355.789C1639.77 355.819 1640.22 355.967 1640.61 356.217C1680.5 381.691 1766.18 422.643 1891.88 410.712C1973.43 402.976 2036.9 359.844 2061.66 295.343C2080.86 245.326 2071.65 191.203 2037.63 154.097C2014.23 128.577 1979.86 111.502 1938.25 104.721C1890.2 96.8913 1833.23 102.345 1768.94 120.928C1768.54 121.043 1768.12 121.068 1767.72 121C1767.31 120.933 1766.93 120.776 1766.59 120.54C1741.08 102.674 1701.13 97.6777 1664.81 107.809C1637.76 115.361 1617.68 130.03 1609.7 148.083C1609.54 148.452 1609.3 148.781 1608.99 149.046C1608.69 149.312 1608.33 149.507 1607.94 149.619C1607.56 149.731 1607.15 149.757 1606.75 149.695C1606.35 149.632 1605.97 149.484 1605.64 149.259C1589.24 138.23 1576.11 134.322 1565.51 137.32C1553.88 140.604 1544.07 152.183 1533.7 174.863C1512.06 222.121 1511.93 273.315 1518.56 304.143C1520.81 303.674 1523.1 303.437 1525.4 303.435Z" fill="#F1416C"/>
<path d="M1648.06 852.624C1647.45 852.624 1646.85 852.417 1646.36 852.037C1645.88 851.656 1645.53 851.125 1645.39 850.526C1645.24 849.927 1645.29 849.296 1645.55 848.733C1645.8 848.17 1646.23 847.708 1646.77 847.419C1694.67 822.062 1725.18 777.391 1732.7 721.626L1732.85 720.359C1733.6 713.037 1733.93 705.678 1733.84 698.318C1733.84 697.956 1733.91 697.595 1734.04 697.259C1734.18 696.922 1734.38 696.615 1734.63 696.356C1734.88 696.096 1735.18 695.889 1735.52 695.747C1735.85 695.604 1736.21 695.529 1736.57 695.524H1736.6C1737.33 695.524 1738.03 695.811 1738.54 696.322C1739.06 696.834 1739.35 697.529 1739.36 698.256C1739.45 705.842 1739.11 713.427 1738.34 720.974L1738.22 721.93C1738.22 722.007 1738.2 722.079 1738.19 722.153C1738.18 722.227 1738.19 722.254 1738.18 722.306H1738.17V722.348H1738.18C1730.53 779.102 1698.15 826.467 1649.35 852.304C1648.95 852.514 1648.51 852.624 1648.06 852.624Z" fill="#1A1A1A"/>
<path d="M1673.23 192.277C1473.57 352.897 1607.16 649.338 1679.58 981.493C1700.44 1076.46 1712.37 1173.18 1715.19 1270.38C1716.87 1327.08 1714.46 1383.83 1708.01 1440.18C1684.23 1640.29 1603.56 1799.14 1446.64 1833.42C1271.68 1871.63 1119.01 1705.32 1006.37 1452.33C969.758 1373.16 921.117 1237.79 882.859 1079.85L1195.68 665.126C1287.65 698.055 1347.05 766.895 1382.43 843.572C1411.86 612.011 1397.35 412.637 1456.95 253.025C1474.76 205.413 1503.07 166.631 1545.52 127.241C1565.85 108.401 1584.27 120.518 1574.63 130.259C1578.86 126.511 1583.04 122.955 1587.14 119.603C1619.41 93.188 1634.17 119.367 1619.93 135.871C1640.78 121.833 1663.3 136.886 1639.59 162.988C1625.5 178.482 1613.46 195.348 1600.58 221.331C1615.87 201.066 1634.64 183.683 1656 169.996C1677.27 156.365 1693.46 175.998 1673.23 192.277Z" fill="white"/>
<path d="M1006.37 1452.33C945.295 1470.56 942.626 1446.29 982.788 1396.69C990.431 1415.66 998.292 1434.2 1006.37 1452.33Z" fill="#F1416C"/>
<path d="M973.868 1461.15C964.79 1461.15 958.731 1458.77 955.551 1454.02C948.633 1443.67 956.839 1424.35 980.648 1394.95C980.951 1394.58 981.345 1394.29 981.793 1394.12C982.241 1393.95 982.726 1393.89 983.201 1393.96C983.676 1394.03 984.124 1394.23 984.501 1394.53C984.878 1394.82 985.171 1395.21 985.351 1395.66C992.858 1414.29 1000.78 1432.97 1008.9 1451.21C1009.06 1451.56 1009.14 1451.95 1009.14 1452.35C1009.14 1452.74 1009.05 1453.13 1008.89 1453.48C1008.73 1453.84 1008.49 1454.16 1008.19 1454.42C1007.89 1454.67 1007.55 1454.87 1007.17 1454.98C993.381 1459.09 982.317 1461.15 973.868 1461.15ZM982.004 1402.11C956.442 1434.58 957.251 1446.63 960.14 1450.95C962.62 1454.66 971.445 1459.4 1002.57 1450.56C995.511 1434.62 988.606 1418.35 982.004 1402.11Z" fill="#F1416C"/>
<path d="M1312.39 1154.72C1309.83 1162.23 1307.19 1169.75 1304.46 1177.3C1145.21 1251.68 946.469 1418.2 966.756 1457.66C904.704 1443.95 1130.88 1234.44 1312.39 1154.72Z" fill="#F1416C"/>
<path d="M966.761 1460.42C966.561 1460.42 966.362 1460.4 966.166 1460.35C956.63 1458.25 954.076 1452.18 953.612 1447.46C948.775 1398.33 1151.27 1222.48 1311.28 1152.19C1311.77 1151.98 1312.32 1151.91 1312.85 1152C1313.38 1152.08 1313.87 1152.32 1314.26 1152.69C1314.66 1153.05 1314.94 1153.52 1315.07 1154.04C1315.2 1154.56 1315.18 1155.11 1315.01 1155.61C1312.3 1163.56 1309.7 1170.96 1307.06 1178.24C1306.93 1178.58 1306.74 1178.89 1306.5 1179.16C1306.25 1179.43 1305.96 1179.65 1305.63 1179.8C1157.59 1248.95 988.124 1388.87 969.692 1442.83C967.717 1448.61 967.557 1453.17 969.211 1456.39C969.428 1456.81 969.533 1457.28 969.516 1457.75C969.499 1458.23 969.361 1458.69 969.114 1459.09C968.868 1459.5 968.521 1459.83 968.109 1460.06C967.696 1460.3 967.23 1460.42 966.757 1460.42H966.761ZM1307.72 1159.83C1143.86 1233.85 954.974 1404.97 959.101 1446.92C959.159 1448.16 959.513 1449.37 960.131 1450.45C960.75 1451.52 961.616 1452.43 962.658 1453.11C962.405 1449 963.022 1444.89 964.468 1441.05C984.927 1381.15 1164.57 1239.88 1302.26 1175.28C1304.08 1170.24 1305.88 1165.14 1307.72 1159.83Z" fill="#F1416C"/>
<path d="M1410.61 493.695C1394.39 685.853 1397.13 906.535 1312.39 1154.72C1272.41 1172.28 1230.27 1196.15 1189.51 1222.83C1142.84 1253.41 1098.32 1287.16 1056.27 1323.84C960.711 1407.65 913.798 1480.08 1006.37 1452.33C1013.33 1469.09 1021.36 1486.57 1030.15 1504.25H1030.17C1067.55 1579.46 1118.57 1658.78 1158.88 1705.89C1060.01 1705.16 954.326 1701.57 849.274 1694.61C759.117 1688.68 669.43 1680.27 584.973 1669.11C585.642 1552.22 596.649 1443.64 616.519 1343.51C629.96 1274.95 648.559 1207.49 672.155 1141.73C720.849 1006.77 787.862 892.035 867.688 798.064C914.98 742.176 968.712 692.087 1027.76 648.841C1144.18 563.889 1275.32 511.806 1410.61 493.695Z" fill="white"/>
<path d="M1337.37 1076.42C1337.09 1076.42 1336.81 1076.38 1336.54 1076.29C1305.67 1066.58 1278.87 1046.92 1260.31 1020.37C1241.75 993.832 1232.48 961.894 1233.93 929.53C1235.38 897.165 1247.48 866.188 1268.34 841.418C1289.2 816.647 1317.65 799.472 1349.27 792.564C1351.15 792.151 1353.01 791.774 1354.87 791.448C1355.59 791.329 1356.33 791.498 1356.92 791.919C1357.51 792.34 1357.92 792.979 1358.04 793.697C1358.17 794.415 1358.01 795.153 1357.59 795.751C1357.18 796.349 1356.54 796.758 1355.82 796.89C1354.03 797.203 1352.25 797.568 1350.45 797.96C1320.26 804.555 1293.06 820.879 1273.02 844.429C1252.98 867.979 1241.21 897.457 1239.51 928.344C1237.81 959.232 1246.28 989.825 1263.61 1015.43C1280.95 1041.05 1306.19 1060.26 1335.48 1070.13C1354.83 999.314 1369.31 925.063 1379.73 843.266C1381.87 826.291 1383.85 808.989 1385.62 791.847C1385.66 791.485 1385.77 791.133 1385.94 790.813C1386.11 790.492 1386.34 790.208 1386.63 789.978C1386.91 789.747 1387.23 789.575 1387.58 789.471C1387.93 789.366 1388.29 789.332 1388.66 789.369C1389.02 789.407 1389.37 789.515 1389.69 789.689C1390.01 789.863 1390.29 790.098 1390.52 790.381C1390.75 790.664 1390.92 790.99 1391.02 791.339C1391.12 791.689 1391.15 792.055 1391.11 792.417C1389.34 809.6 1387.35 826.943 1385.21 843.962C1374.62 927.102 1359.84 1002.48 1340.03 1074.39C1339.87 1074.98 1339.53 1075.49 1339.04 1075.86C1338.56 1076.22 1337.98 1076.42 1337.37 1076.42V1076.42Z" fill="white"/>
<path d="M759.056 1259.58C758.348 1259.58 757.668 1259.3 757.156 1258.81C756.645 1258.32 756.341 1257.65 756.308 1256.94C756.275 1256.24 756.515 1255.54 756.978 1255.01C757.442 1254.47 758.094 1254.13 758.798 1254.07C764.55 1253.52 770.264 1252.62 775.91 1251.39C809.691 1244.04 839.594 1224.51 859.931 1196.53C860.145 1196.24 860.413 1195.99 860.723 1195.8C861.032 1195.61 861.375 1195.48 861.733 1195.43C862.091 1195.37 862.457 1195.38 862.809 1195.47C863.162 1195.55 863.494 1195.71 863.787 1195.92C864.08 1196.13 864.328 1196.4 864.517 1196.71C864.707 1197.02 864.833 1197.37 864.89 1197.72C864.946 1198.08 864.931 1198.45 864.847 1198.8C864.762 1199.15 864.608 1199.49 864.395 1199.78C843.263 1228.86 812.19 1249.15 777.088 1256.79C771.228 1258.07 765.298 1259 759.328 1259.57C759.235 1259.57 759.144 1259.58 759.056 1259.58Z" fill="white"/>
<path d="M854.373 1162.08C853.86 1162.08 853.358 1161.94 852.922 1161.67C852.486 1161.4 852.133 1161.01 851.904 1160.55C851.675 1160.09 851.578 1159.58 851.624 1159.07C851.67 1158.56 851.857 1158.07 852.165 1157.66C866.381 1138.82 875.663 1116.72 879.162 1093.37C882.662 1070.03 880.269 1046.17 872.201 1023.99C864.133 1001.8 850.648 981.994 832.973 966.362C815.298 950.73 793.996 939.774 771.008 934.493C770.651 934.416 770.313 934.268 770.013 934.059C769.714 933.85 769.459 933.583 769.263 933.275C769.067 932.966 768.934 932.622 768.872 932.262C768.81 931.901 768.82 931.532 768.902 931.176C768.983 930.82 769.135 930.483 769.347 930.186C769.56 929.888 769.829 929.636 770.14 929.444C770.45 929.251 770.796 929.122 771.157 929.065C771.517 929.007 771.886 929.022 772.241 929.108C796.127 934.594 818.261 945.977 836.627 962.219C854.993 978.46 869.007 999.044 877.391 1022.1C885.774 1045.15 888.262 1069.93 884.627 1094.19C880.992 1118.45 871.35 1141.41 856.579 1160.99C856.321 1161.33 855.987 1161.6 855.604 1161.79C855.221 1161.98 854.8 1162.08 854.373 1162.08Z" fill="white"/>
<path d="M1051.88 1326.68C1024.19 1326.65 997.07 1318.79 973.653 1304C950.235 1289.21 931.473 1268.09 919.535 1243.08C907.596 1218.07 902.966 1190.19 906.18 1162.66C909.394 1135.13 920.32 1109.07 937.698 1087.49C955.075 1065.91 978.196 1049.69 1004.39 1040.7C1030.58 1031.71 1058.78 1030.32 1085.73 1036.69C1112.68 1043.05 1137.28 1056.92 1156.7 1076.69C1176.11 1096.45 1189.54 1121.31 1195.44 1148.39C1200.89 1173.35 1199.75 1199.29 1192.13 1223.67C1191.94 1224.28 1191.54 1224.8 1191.01 1225.15C1144.44 1255.65 1100.02 1289.32 1058.08 1325.93C1057.6 1326.36 1056.98 1326.6 1056.34 1326.62C1054.86 1326.66 1053.37 1326.68 1051.88 1326.68ZM1052.33 1038.25C1042.11 1038.26 1031.92 1039.36 1021.93 1041.55C987.624 1049.05 957.336 1069.07 936.972 1097.71C916.608 1126.35 907.628 1161.55 911.781 1196.45C915.935 1231.36 932.925 1263.46 959.439 1286.51C985.954 1309.56 1020.09 1321.9 1055.2 1321.12C1096.87 1284.81 1140.96 1251.38 1187.16 1221.07C1194.23 1197.88 1195.22 1173.26 1190.05 1149.57C1183.18 1118.09 1165.79 1089.9 1140.75 1069.66C1115.7 1049.42 1084.51 1038.34 1052.32 1038.25L1052.33 1038.25Z" fill="white"/>
<path d="M1011.61 939.12C978.127 939.068 945.667 927.581 919.594 906.556C893.521 885.532 875.397 856.23 868.219 823.495C866.409 815.168 865.31 806.701 864.933 798.188C864.901 797.49 865.135 796.807 865.588 796.276C913.033 740.236 966.922 689.999 1026.14 646.608C1026.69 646.199 1027.39 646.016 1028.07 646.095C1065.36 650.294 1099.63 668.622 1123.84 697.319C1148.05 726.015 1160.36 762.9 1158.26 800.401C1156.15 837.902 1139.78 873.173 1112.51 898.971C1085.24 924.769 1049.13 939.136 1011.61 939.122V939.12ZM870.498 799.024C870.904 806.86 871.945 814.65 873.612 822.317C879.153 847.667 891.556 871.002 909.463 889.766C927.371 908.53 950.091 922 975.137 928.7C1000.18 935.4 1026.59 935.071 1051.46 927.751C1076.33 920.43 1098.71 906.4 1116.14 887.196C1133.58 867.992 1145.4 844.356 1150.31 818.876C1155.22 793.396 1153.03 767.054 1143.98 742.736C1134.93 718.419 1119.37 697.062 1099.01 681.007C1078.64 664.951 1054.25 654.815 1028.52 651.709C970.289 694.483 917.256 743.924 870.498 799.024Z" fill="white"/>
<path d="M1158.88 1708.65H1158.85C1054.82 1707.89 950.599 1704.09 849.087 1697.37C754.762 1691.16 665.776 1682.57 584.607 1671.84C583.94 1671.75 583.33 1671.42 582.889 1670.92C582.449 1670.41 582.209 1669.75 582.215 1669.08C582.868 1555.06 593.499 1445.34 613.812 1342.97C627.302 1274.27 645.939 1206.68 669.563 1140.78C716.909 1009.57 782.862 893.654 865.591 796.269C913.037 740.229 966.926 689.991 1026.14 646.6C1140.58 563.098 1273.4 509.274 1410.24 490.95C1410.65 490.895 1411.07 490.933 1411.46 491.061C1411.86 491.189 1412.21 491.403 1412.51 491.688C1412.81 491.973 1413.04 492.322 1413.19 492.708C1413.34 493.095 1413.39 493.509 1413.36 493.921C1410.2 531.348 1407.8 569.295 1405.26 609.474C1401.54 668.274 1397.69 729.075 1391.12 792.412C1380.15 898.13 1363.92 987.732 1340.04 1074.39C1332.49 1101.79 1324.07 1129.12 1315.02 1155.61C1314.9 1155.97 1314.7 1156.3 1314.44 1156.59C1314.18 1156.87 1313.87 1157.09 1313.52 1157.25C1238.63 1190.15 1147.06 1249.81 1068.57 1316.85C996.817 1378.13 953.046 1431.38 959.65 1449.35C962.658 1457.55 978.969 1457.66 1005.6 1449.68C1006.25 1449.48 1006.95 1449.54 1007.57 1449.83C1008.19 1450.12 1008.68 1450.63 1008.94 1451.27C1015.68 1467.52 1023.6 1484.82 1032.48 1502.69C1032.55 1502.8 1032.61 1502.9 1032.66 1503.01C1069.44 1577.02 1119.82 1655.95 1160.99 1704.08C1161.33 1704.49 1161.55 1704.98 1161.63 1705.5C1161.7 1706.02 1161.62 1706.56 1161.4 1707.04C1161.18 1707.52 1160.83 1707.92 1160.38 1708.21C1159.94 1708.49 1159.42 1708.64 1158.89 1708.64L1158.88 1708.65ZM587.746 1666.68C668.152 1677.25 756.184 1685.72 849.455 1691.85C948.904 1698.44 1050.96 1702.21 1152.89 1703.08C1112.26 1654.38 1063.67 1577.78 1027.86 1505.8C1027.79 1505.7 1027.73 1505.59 1027.68 1505.48C1019.09 1488.22 1011.4 1471.48 1004.78 1455.68C975.155 1464.24 958.684 1462.79 954.452 1451.26C945.338 1426.45 1005.57 1363.38 1064.98 1312.64C1143.46 1245.6 1235.02 1185.88 1310.18 1152.68C1319.04 1126.65 1327.29 1099.82 1334.71 1072.93C1358.51 986.574 1374.68 897.261 1385.62 791.85C1392.18 728.624 1396.03 667.878 1399.74 609.135C1402.21 570.154 1404.55 533.27 1407.57 496.899C1272.83 515.534 1142.13 568.806 1029.39 651.074C970.526 694.21 916.958 744.151 869.796 799.86C787.496 896.738 721.875 1012.08 674.761 1142.67C651.233 1208.31 632.673 1275.63 619.237 1344.05C599.122 1445.35 588.535 1553.88 587.746 1666.68Z" fill="#1A1A1A"/>
<path d="M816.589 1425.18C793.661 1448.2 757.094 1433.13 733.108 1410.4C699.183 1378.02 680.787 1355.48 657.087 1345.08C647.777 1341 629.893 1337.13 616.523 1343.51C629.965 1274.94 648.564 1207.49 672.16 1141.73C675.273 1172.35 704.276 1219.43 750.148 1275.38C782.321 1314.61 855.899 1385.66 816.589 1425.18Z" fill="#4856A3"/>
<path d="M788.566 1439.38C768.915 1439.38 747.421 1427.78 731.209 1412.4C722.916 1404.49 715.433 1397.05 708.831 1390.49C688.279 1370.04 673.431 1355.28 655.977 1347.62C648.473 1344.33 630.817 1339.76 617.706 1346.01C617.244 1346.23 616.729 1346.32 616.22 1346.26C615.711 1346.21 615.228 1346.01 614.824 1345.7C614.419 1345.38 614.111 1344.96 613.932 1344.48C613.753 1344 613.711 1343.48 613.811 1342.98C627.301 1274.28 645.937 1206.7 669.561 1140.8C669.776 1140.21 670.182 1139.72 670.714 1139.39C671.246 1139.07 671.872 1138.93 672.491 1139.01C673.109 1139.08 673.684 1139.37 674.121 1139.81C674.558 1140.26 674.831 1140.84 674.897 1141.46C677.767 1169.7 704.52 1215.4 752.272 1273.63C756.709 1279.04 761.987 1285.12 767.577 1291.55C804.139 1333.64 854.209 1391.27 818.544 1427.14C814.639 1431.11 809.967 1434.25 804.813 1436.35C799.659 1438.46 794.131 1439.49 788.566 1439.38ZM633.112 1337.35C641.73 1337.44 650.25 1339.2 658.192 1342.55C676.592 1350.63 691.745 1365.7 712.721 1386.56C719.304 1393.11 726.767 1400.53 735.01 1408.4C758.394 1430.56 793.289 1444.67 814.632 1423.23C846.679 1391.01 798.556 1335.62 763.419 1295.17C757.802 1288.71 752.497 1282.6 748.011 1277.13C704.309 1223.83 678.555 1181.97 671.269 1152.44C649.948 1213.41 632.887 1275.79 620.21 1339.13C624.4 1337.91 628.747 1337.31 633.112 1337.35Z" fill="#F1416C"/>
<path d="M1389.43 784.193C1389.02 784.193 1388.62 784.102 1388.25 783.927C1387.88 783.751 1387.55 783.496 1387.29 783.178C1336.61 721.042 1319.96 640.947 1343.84 574.147C1356.68 538.233 1378.51 510.173 1408.73 490.767C1409.35 490.371 1410.1 490.236 1410.81 490.393C1411.53 490.549 1412.15 490.983 1412.55 491.6C1412.94 492.217 1413.08 492.965 1412.92 493.681C1412.76 494.397 1412.33 495.021 1411.71 495.417C1382.54 514.15 1361.45 541.264 1349.03 576.009C1325.8 640.997 1342.1 719.04 1391.57 779.682C1391.9 780.087 1392.11 780.577 1392.17 781.096C1392.23 781.615 1392.15 782.141 1391.92 782.614C1391.7 783.086 1391.35 783.485 1390.9 783.765C1390.46 784.044 1389.95 784.193 1389.43 784.193Z" fill="#1A1A1A"/>
<path d="M1407.63 531.697C1403.51 587.755 1400.49 646.641 1395.81 708.237C1362.83 643.723 1369.46 573.299 1407.63 531.697Z" fill="white"/>
<path d="M1395.81 711.003C1395.3 711.003 1394.8 710.862 1394.37 710.597C1393.94 710.332 1393.58 709.952 1393.35 709.5C1360.7 645.611 1365.6 573.407 1405.59 529.831C1405.98 529.409 1406.49 529.118 1407.05 528.999C1407.61 528.88 1408.19 528.938 1408.72 529.166C1409.24 529.393 1409.69 529.779 1409.98 530.27C1410.28 530.76 1410.42 531.331 1410.37 531.903C1408.48 557.758 1406.84 583.754 1405.11 611.283C1403.13 642.739 1401.08 675.267 1398.56 708.456C1398.51 709.151 1398.19 709.801 1397.68 710.275C1397.17 710.748 1396.5 711.01 1395.8 711.008L1395.81 711.003ZM1404.27 539.902C1372.61 580.032 1368.57 641.347 1393.84 697.72C1396.01 668.134 1397.84 639.1 1399.61 610.926C1401.15 586.372 1402.62 563.029 1404.26 539.905L1404.27 539.902Z" fill="#1A1A1A"/>
<path d="M1382.47 846.403C1381.95 846.403 1381.43 846.252 1380.99 845.968C1380.54 845.684 1380.19 845.278 1379.97 844.799C1339.92 757.988 1275.88 696.757 1194.75 667.727C1194.41 667.604 1194.1 667.416 1193.83 667.173C1193.56 666.929 1193.34 666.635 1193.19 666.307C1193.03 665.979 1192.94 665.624 1192.93 665.261C1192.91 664.899 1192.96 664.537 1193.08 664.195C1193.21 663.853 1193.39 663.539 1193.64 663.27C1193.88 663.001 1194.17 662.783 1194.5 662.628C1194.83 662.473 1195.18 662.384 1195.55 662.366C1195.91 662.348 1196.27 662.401 1196.61 662.524C1279.16 692.066 1344.3 754.294 1384.98 842.482C1385.17 842.902 1385.26 843.365 1385.23 843.828C1385.19 844.29 1385.05 844.738 1384.8 845.128C1384.55 845.519 1384.2 845.84 1383.8 846.063C1383.39 846.286 1382.94 846.403 1382.47 846.403Z" fill="#1A1A1A"/>
<path d="M1201.89 1362.64C1201.32 1362.64 1200.76 1362.46 1200.29 1362.12C1199.82 1361.78 1199.47 1361.31 1199.28 1360.77C1199.09 1360.22 1199.08 1359.63 1199.25 1359.08C1199.42 1358.53 1199.75 1358.04 1200.21 1357.69C1237.74 1328.71 1286.88 1221.03 1309.79 1153.83C1310.02 1153.13 1310.52 1152.56 1311.18 1152.24C1311.84 1151.92 1312.6 1151.87 1313.29 1152.1C1313.98 1152.34 1314.55 1152.84 1314.88 1153.5C1315.2 1154.16 1315.25 1154.92 1315.01 1155.61C1291.88 1223.47 1242.02 1332.38 1203.58 1362.06C1203.09 1362.43 1202.5 1362.64 1201.89 1362.64Z" fill="#1A1A1A"/>
<path d="M1695.5 624.652C1694.77 624.652 1694.08 624.367 1693.56 623.858C1693.04 623.348 1692.75 622.656 1692.74 621.93C1692.43 600.44 1675.96 573.383 1645.06 563.246C1644.37 563.018 1643.79 562.522 1643.46 561.868C1643.13 561.215 1643.07 560.456 1643.3 559.76C1643.53 559.064 1644.02 558.487 1644.67 558.156C1645.33 557.824 1646.08 557.767 1646.78 557.995C1676.22 567.653 1697.87 594.508 1698.26 621.851C1698.27 622.583 1697.99 623.29 1697.48 623.815C1696.97 624.341 1696.27 624.642 1695.54 624.652H1695.5Z" fill="#1A1A1A"/>
<path d="M1794.7 496.284C1800.26 481.809 1777.69 459.641 1744.27 446.772C1710.86 433.902 1679.26 435.204 1673.7 449.68C1668.14 464.155 1690.71 486.322 1724.12 499.192C1757.54 512.061 1789.13 510.76 1794.7 496.284Z" fill="white"/>
<path d="M1828.35 504.623C1812.65 547.87 1847.4 586.138 1861.06 603.263C1882.3 629.877 1843.81 670.75 1773.76 594.592L1782.26 545.494L1826.22 493.9L1828.35 504.623Z" fill="white"/>
<path d="M1844.1 641.2C1827.01 641.2 1802.21 629.597 1771.73 596.459C1771.48 596.193 1771.29 595.88 1771.16 595.539C1771.04 595.198 1770.98 594.835 1770.99 594.472C1771.01 594.108 1771.09 593.751 1771.25 593.421C1771.4 593.091 1771.62 592.794 1771.88 592.548C1772.15 592.302 1772.46 592.111 1772.8 591.986C1773.15 591.861 1773.51 591.805 1773.87 591.82C1774.23 591.836 1774.59 591.923 1774.92 592.077C1775.25 592.231 1775.54 592.448 1775.79 592.717C1820.15 640.944 1848.75 639.417 1858.66 630.91C1865.86 624.729 1865.96 613.825 1858.91 604.983C1858 603.847 1857 602.618 1855.93 601.3C1841.21 583.193 1810.57 545.512 1825.76 503.685C1825.87 503.337 1826.06 503.015 1826.3 502.739C1826.55 502.463 1826.84 502.239 1827.17 502.08C1827.51 501.92 1827.86 501.828 1828.23 501.81C1828.6 501.792 1828.97 501.847 1829.31 501.973C1829.66 502.098 1829.98 502.292 1830.24 502.542C1830.51 502.792 1830.73 503.093 1830.88 503.429C1831.04 503.764 1831.12 504.126 1831.13 504.494C1831.14 504.862 1831.08 505.228 1830.94 505.571C1816.82 544.464 1845.04 579.174 1860.2 597.822C1861.28 599.154 1862.29 600.401 1863.21 601.545C1872.19 612.801 1871.78 626.919 1862.24 635.113C1857.13 639.269 1850.68 641.432 1844.1 641.2Z" fill="#1A1A1A"/>
<path d="M1396.96 1841.61C1362.29 1841.61 1327.86 1833.75 1294.09 1818.08C1247.08 1796.27 1200.89 1759.13 1156.79 1707.68C1156.55 1707.41 1156.36 1707.09 1156.25 1706.74C1156.13 1706.39 1156.08 1706.03 1156.11 1705.66C1156.13 1705.3 1156.23 1704.94 1156.4 1704.62C1156.56 1704.29 1156.79 1704 1157.06 1703.76C1157.34 1703.53 1157.66 1703.35 1158.01 1703.23C1158.36 1703.12 1158.72 1703.08 1159.09 1703.11C1159.45 1703.14 1159.81 1703.24 1160.13 1703.41C1160.45 1703.57 1160.74 1703.8 1160.98 1704.08C1251.48 1809.66 1347.4 1852.26 1446.05 1830.72C1543.64 1809.4 1616.28 1739.32 1661.97 1622.41C1724.09 1463.54 1729.66 1224.16 1676.89 982.073C1663.07 918.691 1647.01 856.56 1631.48 796.476C1603.68 688.944 1577.42 587.375 1568.66 496.338C1562.13 428.76 1565.91 372.705 1580.21 324.974C1596.53 270.533 1626.39 226.424 1671.5 190.122C1680.17 183.146 1681.14 175.968 1678.26 171.952C1675.1 167.548 1666.95 166.262 1657.48 172.32C1627.13 191.863 1602.19 218.756 1584.97 250.509C1584.62 251.15 1584.02 251.625 1583.32 251.829C1582.61 252.032 1581.86 251.947 1581.22 251.594C1580.58 251.24 1580.1 250.645 1579.9 249.942C1579.7 249.238 1579.78 248.482 1580.14 247.84C1597.79 215.279 1623.37 187.704 1654.51 167.666C1667.44 159.378 1678.21 162.409 1682.74 168.727C1687.14 174.858 1686.45 185.185 1674.96 194.427C1591.59 261.508 1560.5 354.462 1574.15 495.813C1582.87 586.419 1609.08 687.783 1636.82 795.102C1652.36 855.238 1668.44 917.42 1682.28 980.906C1735.28 1224.02 1729.61 1464.59 1667.11 1624.44C1644.98 1681.05 1615.95 1727.55 1580.81 1762.65C1544.36 1799.6 1497.94 1825.13 1447.23 1836.12C1430.72 1839.75 1413.86 1841.59 1396.96 1841.61Z" fill="#1A1A1A"/>
<path d="M1410.61 496.458C1410.53 496.458 1410.45 496.458 1410.37 496.458C1410.01 496.427 1409.65 496.325 1409.33 496.158C1409.01 495.991 1408.73 495.762 1408.49 495.485C1408.26 495.207 1408.08 494.886 1407.97 494.54C1407.86 494.195 1407.82 493.831 1407.85 493.469C1414.29 418.43 1424.85 331.067 1454.36 252.067C1471.79 205.448 1499.32 166.329 1543.63 125.217C1555.77 113.982 1568.01 112.763 1574.77 116.538C1576.58 117.411 1578.05 118.849 1578.97 120.635C1579.89 122.421 1580.2 124.457 1579.86 126.436C1579.72 127.155 1579.3 127.789 1578.69 128.197C1578.08 128.606 1577.34 128.756 1576.62 128.615C1575.9 128.474 1575.27 128.053 1574.86 127.445C1574.45 126.836 1574.3 126.091 1574.44 125.372C1574.53 124.538 1574.35 123.697 1573.92 122.975C1573.5 122.254 1572.85 121.688 1572.08 121.364C1567.23 118.649 1557.43 119.97 1547.38 129.271C1503.74 169.768 1476.64 208.235 1459.53 253.996C1430.26 332.371 1419.76 419.268 1413.35 493.933C1413.29 494.62 1412.97 495.261 1412.47 495.728C1411.96 496.195 1411.3 496.456 1410.61 496.458Z" fill="#1A1A1A"/>
<path d="M1500.16 235.444C1499.83 235.444 1499.49 235.381 1499.18 235.259C1498.5 234.998 1497.94 234.475 1497.65 233.807C1497.35 233.139 1497.33 232.379 1497.59 231.696C1519.43 174.451 1554.91 140.378 1583.37 117.089C1602.36 101.545 1615.77 103.442 1621.98 110.398C1628.69 117.92 1627.08 130.518 1618.32 139.076C1617.8 139.589 1617.09 139.873 1616.36 139.865C1615.63 139.857 1614.93 139.557 1614.41 139.033C1613.9 138.509 1613.62 137.802 1613.63 137.069C1613.63 136.335 1613.93 135.635 1614.46 135.122C1621.77 127.974 1621.92 118.634 1617.85 114.08C1613.55 109.26 1602.85 108.274 1586.85 121.366C1558.92 144.222 1524.11 177.641 1502.74 233.666C1502.54 234.188 1502.18 234.637 1501.72 234.955C1501.27 235.272 1500.72 235.442 1500.16 235.444Z" fill="#1A1A1A"/>
<path d="M1539.19 243.485C1538.73 243.485 1538.28 243.372 1537.87 243.154C1537.47 242.936 1537.13 242.621 1536.87 242.237C1536.62 241.853 1536.47 241.413 1536.43 240.955C1536.39 240.498 1536.47 240.038 1536.65 239.617C1558.16 189.758 1586.09 162.863 1608.54 141.252C1610.02 139.826 1611.48 138.421 1612.91 137.036C1626.15 124.208 1641.55 123.814 1648.79 130.844C1654.69 136.568 1656.04 148.129 1642.15 163.412C1626.81 180.286 1615.27 197.538 1603.57 221.126C1603.41 221.453 1603.19 221.746 1602.92 221.987C1602.64 222.228 1602.33 222.413 1601.98 222.53C1601.64 222.648 1601.27 222.696 1600.91 222.672C1600.55 222.648 1600.19 222.552 1599.86 222.39C1599.54 222.228 1599.25 222.002 1599.01 221.727C1598.77 221.452 1598.59 221.133 1598.47 220.787C1598.36 220.441 1598.31 220.076 1598.34 219.712C1598.37 219.349 1598.46 218.994 1598.63 218.669C1610.57 194.597 1622.36 176.958 1638.07 159.693C1649.31 147.329 1648.99 138.734 1644.95 134.811C1639.71 129.722 1627.43 130.647 1616.74 141.005C1615.31 142.396 1613.85 143.808 1612.36 145.241C1590.28 166.508 1562.79 192.976 1541.72 241.824C1541.51 242.318 1541.15 242.739 1540.7 243.034C1540.25 243.329 1539.72 243.486 1539.19 243.485Z" fill="#1A1A1A"/>
<path d="M957.07 1453.14C956.568 1453.14 956.074 1453 955.644 1452.74C955.213 1452.48 954.862 1452.11 954.627 1451.66C914.901 1376.29 863.917 1258.74 846.598 1126.81C846.502 1126.09 846.699 1125.35 847.145 1124.77C847.591 1124.19 848.249 1123.81 848.975 1123.71C849.701 1123.62 850.435 1123.81 851.016 1124.26C851.596 1124.71 851.976 1125.37 852.072 1126.09C869.277 1257.21 919.993 1374.11 959.508 1449.09C959.73 1449.51 959.84 1449.98 959.826 1450.45C959.813 1450.93 959.677 1451.39 959.432 1451.8C959.186 1452.21 958.84 1452.55 958.426 1452.78C958.013 1453.02 957.546 1453.14 957.07 1453.14Z" fill="#1A1A1A"/>
<path d="M1932.41 1075.15C1933.47 1082.42 1934.62 1089.62 1935.79 1096.71C1934.52 1097.57 1933.26 1098.43 1931.97 1099.31C1896.88 1123.23 1863.1 1149.03 1830.78 1176.58C1831.93 1169.86 1832.97 1163.16 1833.99 1156.46C1865.18 1127.45 1898.04 1100.3 1932.41 1075.15Z" fill="#F1416C"/>
<path d="M1830.77 1179.34C1830.37 1179.34 1829.97 1179.26 1829.6 1179.09C1829.24 1178.92 1828.92 1178.67 1828.66 1178.36C1828.4 1178.05 1828.21 1177.69 1828.1 1177.31C1828 1176.92 1827.98 1176.51 1828.05 1176.12C1829.26 1169 1830.35 1161.98 1831.25 1156.04C1831.35 1155.43 1831.64 1154.87 1832.09 1154.45C1863.37 1125.37 1896.31 1098.15 1930.76 1072.92C1931.15 1072.64 1931.6 1072.46 1932.07 1072.4C1932.55 1072.35 1933.03 1072.41 1933.47 1072.6C1933.91 1072.78 1934.29 1073.08 1934.58 1073.45C1934.88 1073.83 1935.07 1074.28 1935.13 1074.75C1936.08 1081.26 1937.16 1088.1 1938.51 1096.25C1938.59 1096.77 1938.53 1097.31 1938.32 1097.8C1938.11 1098.28 1937.77 1098.7 1937.33 1098.99C1936.07 1099.85 1934.82 1100.7 1933.54 1101.57C1898.53 1125.45 1864.83 1151.18 1832.56 1178.66C1832.07 1179.1 1831.43 1179.34 1830.77 1179.34ZM1836.57 1157.82C1836.01 1161.44 1835.4 1165.43 1834.73 1169.58C1863.27 1145.45 1896.2 1120.48 1930.4 1097.03C1931.2 1096.49 1931.98 1095.95 1932.77 1095.42C1931.85 1089.82 1931.05 1084.83 1930.34 1080.11C1897.65 1104.24 1866.35 1130.18 1836.57 1157.82Z" fill="#F1416C"/>
<path d="M1833.99 1159.23C1833.59 1159.23 1833.2 1159.14 1832.84 1158.98C1832.48 1158.81 1832.16 1158.58 1831.9 1158.28C1831.64 1157.98 1831.45 1157.63 1831.34 1157.25C1831.22 1156.87 1831.19 1156.47 1831.25 1156.08L1831.57 1153.9C1833.7 1139.81 1835.61 1125.22 1837.26 1110.51C1838.22 1101.89 1838.99 1094.25 1839.61 1087.16C1840.92 1072.58 1841.93 1057.87 1842.63 1043.41C1842.65 1043.05 1842.74 1042.69 1842.89 1042.36C1843.05 1042.04 1843.27 1041.74 1843.53 1041.5C1843.8 1041.25 1844.12 1041.06 1844.46 1040.94C1844.8 1040.82 1845.16 1040.77 1845.53 1040.78C1845.89 1040.8 1846.24 1040.89 1846.57 1041.05C1846.9 1041.2 1847.19 1041.42 1847.44 1041.69C1847.68 1041.96 1847.87 1042.27 1847.99 1042.61C1848.12 1042.96 1848.17 1043.32 1848.15 1043.68C1847.45 1058.21 1846.43 1073 1845.12 1087.65C1844.49 1094.78 1843.71 1102.46 1842.75 1111.13C1841.09 1125.91 1839.17 1140.57 1837.03 1154.7L1836.72 1156.85C1836.63 1157.51 1836.3 1158.11 1835.8 1158.55C1835.3 1158.99 1834.65 1159.23 1833.99 1159.23Z" fill="#1A1A1A"/>
<path d="M794.597 1657.8C765.993 1657.74 738.032 1649.31 714.147 1633.55C690.262 1617.8 671.494 1595.41 660.148 1569.12C648.801 1542.84 645.371 1513.81 650.279 1485.6C655.186 1457.4 668.217 1431.24 687.771 1410.34C688.272 1409.81 688.964 1409.49 689.695 1409.47C690.427 1409.44 691.138 1409.71 691.673 1410.21C692.208 1410.71 692.522 1411.4 692.546 1412.14C692.57 1412.87 692.303 1413.58 691.803 1414.12C671.409 1435.9 658.425 1463.58 654.711 1493.21C650.997 1522.83 656.743 1552.86 671.127 1579.02C685.511 1605.17 707.795 1626.09 734.786 1638.79C761.776 1651.49 792.09 1655.32 821.385 1649.72C850.679 1644.12 877.452 1629.38 897.867 1607.62C918.283 1585.85 931.294 1558.18 935.037 1528.56C938.78 1498.95 933.063 1468.9 918.705 1442.74C904.347 1416.57 882.084 1395.62 855.106 1382.9C854.444 1382.58 853.933 1382.02 853.686 1381.33C853.439 1380.64 853.476 1379.88 853.788 1379.22C854.101 1378.56 854.664 1378.04 855.353 1377.8C856.042 1377.55 856.801 1377.59 857.463 1377.9C885.198 1390.98 908.144 1412.43 923.08 1439.24C938.016 1466.04 944.192 1496.85 940.742 1527.35C937.291 1557.85 924.388 1586.5 903.842 1609.28C883.296 1632.06 856.139 1647.83 826.183 1654.37C815.808 1656.65 805.218 1657.8 794.597 1657.8Z" fill="white"/>
<path d="M1158.88 1705.89C1060.01 1705.16 954.325 1701.57 849.273 1694.61C880.396 1693.91 882.707 1643.5 938.399 1639.29C1021.93 1633.01 977.007 1511.69 1030.15 1504.25H1030.17C1067.55 1579.46 1118.57 1658.76 1158.88 1705.89Z" fill="#4856A3"/>
<path d="M1158.88 1708.65H1158.85C1054.82 1707.88 950.599 1704.09 849.087 1697.37C848.355 1697.35 847.659 1697.04 847.153 1696.51C846.647 1695.98 846.371 1695.28 846.387 1694.54C846.403 1693.81 846.71 1693.11 847.239 1692.61C847.768 1692.1 848.476 1691.82 849.208 1691.84C861.449 1691.57 868.789 1682.8 878.081 1671.71C890.287 1657.14 905.477 1639 938.186 1636.53C982.616 1633.19 988.842 1596.33 994.857 1560.69C999.687 1532.1 1004.24 1505.09 1029.74 1501.52C1030.32 1501.43 1030.91 1501.53 1031.43 1501.79C1031.95 1502.06 1032.37 1502.49 1032.64 1503.01C1069.42 1577.02 1119.79 1655.95 1160.97 1704.08C1161.31 1704.49 1161.53 1704.98 1161.6 1705.5C1161.68 1706.02 1161.6 1706.56 1161.38 1707.04C1161.16 1707.52 1160.8 1707.92 1160.36 1708.21C1159.91 1708.49 1159.4 1708.65 1158.87 1708.65L1158.88 1708.65ZM864.378 1692.81C959.097 1698.8 1056.06 1702.24 1152.88 1703.07C1112.54 1654.71 1064.34 1578.85 1028.61 1507.31C1008.77 1511.44 1004.84 1534.75 1000.3 1561.61C994.229 1597.59 987.337 1638.37 938.598 1642.04C908.21 1644.34 894.451 1660.76 882.309 1675.26C876.621 1682.07 871.12 1688.63 864.378 1692.82V1692.81Z" fill="#F1416C"/>
<path d="M1715.19 1270.38C1716.86 1327.08 1714.46 1383.83 1708 1440.18C1672.44 1346.19 1632.48 1283.59 1574.39 1206.46C1517.31 1130.69 1563 1087.87 1620.49 1148.57C1650.32 1180.07 1684.22 1215.83 1715.19 1270.38Z" fill="#F1416C"/>
<path d="M1708 1442.94C1707.44 1442.94 1706.9 1442.77 1706.44 1442.45C1705.98 1442.13 1705.63 1441.68 1705.43 1441.16C1669.73 1346.82 1629.55 1284.28 1572.19 1208.12C1540.23 1165.7 1540.27 1134.55 1554.49 1122.5C1566.95 1111.95 1592.81 1115.32 1622.5 1146.67L1622.65 1146.83C1652.58 1178.44 1686.51 1214.27 1717.6 1269.02C1717.82 1269.41 1717.95 1269.85 1717.96 1270.31C1719.63 1327.14 1717.23 1384.02 1710.76 1440.5C1710.69 1441.12 1710.41 1441.69 1709.97 1442.13C1709.54 1442.56 1708.97 1442.84 1708.35 1442.92C1708.24 1442.93 1708.12 1442.94 1708 1442.94ZM1570.78 1122.51C1566.17 1122.34 1561.65 1123.84 1558.05 1126.72C1546.21 1136.75 1546.97 1165.47 1576.6 1204.8C1632.09 1278.48 1671.61 1339.52 1706.53 1428.67C1711.96 1376.35 1713.94 1323.73 1712.45 1271.15C1681.79 1217.32 1648.24 1181.89 1618.64 1150.63L1618.49 1150.47C1599.55 1130.47 1582.77 1122.51 1570.78 1122.51Z" fill="#F1416C"/>
<path d="M515.599 1800.56C541.596 1800.56 562.67 1779.47 562.67 1753.44C562.67 1727.42 541.596 1706.32 515.599 1706.32C489.602 1706.32 468.527 1727.42 468.527 1753.44C468.527 1779.47 489.602 1800.56 515.599 1800.56Z" fill="#F1416C"/>
<path d="M515.593 1803.33C502.826 1803.33 490.543 1798.44 481.272 1789.65C472.001 1780.87 466.448 1768.86 465.757 1756.1C465.066 1743.34 469.288 1730.79 477.556 1721.06C485.823 1711.32 497.506 1705.12 510.199 1703.75C522.892 1702.37 535.628 1705.92 545.787 1713.66C555.946 1721.4 562.753 1732.74 564.807 1745.36C566.861 1757.97 564.006 1770.89 556.829 1781.46C549.653 1792.03 538.701 1799.45 526.228 1802.18C522.735 1802.94 519.169 1803.33 515.593 1803.33ZM515.612 1709.08C506.44 1709.08 497.494 1711.93 490.006 1717.23C482.518 1722.53 476.857 1730.02 473.805 1738.68C470.753 1747.34 470.46 1756.73 472.965 1765.56C475.471 1774.39 480.652 1782.23 487.794 1787.99C494.936 1793.75 503.688 1797.15 512.842 1797.72C521.996 1798.29 531.101 1796 538.902 1791.18C546.703 1786.35 552.815 1779.22 556.396 1770.76C559.977 1762.31 560.85 1752.96 558.895 1743.99C556.727 1734.1 551.255 1725.26 543.383 1718.91C535.512 1712.57 525.712 1709.1 515.604 1709.08H515.612Z" fill="#F1416C"/>
<path d="M328.276 1434.7C339.701 1434.7 348.963 1425.43 348.963 1414C348.963 1402.56 339.701 1393.29 328.276 1393.29C316.852 1393.29 307.59 1402.56 307.59 1414C307.59 1425.43 316.852 1434.7 328.276 1434.7Z" fill="#F1416C"/>
<path d="M328.229 1437.48C323.808 1437.47 319.479 1436.21 315.742 1433.85C312.004 1431.48 309.012 1428.11 307.108 1424.11C305.205 1420.12 304.469 1415.67 304.984 1411.27C305.5 1406.87 307.247 1402.71 310.023 1399.27C312.799 1395.83 316.492 1393.24 320.675 1391.8C324.857 1390.37 329.36 1390.15 333.663 1391.16C337.967 1392.18 341.895 1394.39 344.995 1397.55C348.095 1400.71 350.241 1404.67 351.184 1409C351.841 1412.01 351.898 1415.12 351.354 1418.15C350.809 1421.19 349.673 1424.08 348.01 1426.68C346.347 1429.27 344.19 1431.51 341.662 1433.27C339.134 1435.03 336.284 1436.28 333.276 1436.93C331.618 1437.3 329.926 1437.48 328.229 1437.48ZM328.279 1396.04C324.568 1396.04 320.948 1397.19 317.919 1399.34C314.889 1401.48 312.599 1404.52 311.365 1408.02C310.13 1411.52 310.012 1415.32 311.025 1418.89C312.039 1422.47 314.136 1425.64 317.026 1427.97C319.915 1430.3 323.456 1431.67 327.16 1431.9C330.863 1432.13 334.547 1431.21 337.703 1429.26C340.859 1427.3 343.332 1424.42 344.781 1421C346.23 1417.58 346.583 1413.79 345.791 1410.16C344.914 1406.17 342.701 1402.59 339.516 1400.02C336.332 1397.45 332.368 1396.05 328.279 1396.04Z" fill="#F1416C"/>
<g clip-path="url(#clip0_613_386)">
<path d="M3425.45 1862.57V1914.46C3425.39 1918.56 3423.67 1922.47 3420.69 1925.32C3418.33 1927.57 3415.54 1929.34 3412.49 1930.52C3409.43 1931.7 3406.17 1932.27 3402.89 1932.19H1113.73C1101.25 1932.19 1091.16 1924.24 1091.16 1914.47V1862.57C1091.16 1852.77 1101.25 1844.84 1113.73 1844.84H3402.89C3415.37 1844.84 3425.45 1852.77 3425.45 1862.57Z" fill="#1B1B1B"/>
<path d="M3285.72 1915.45C3171.39 1904.64 3053.04 1889.84 2940.28 1889.84C2743.44 1889.84 2452.12 1918.39 2327.2 1918.39C2202.28 1918.39 2023.16 1894.9 1926.62 1894.9C1830.1 1894.9 1601.48 1919.64 1415.13 1919.64C1320 1919.64 1186.22 1913.54 1091.16 1907.53V1914.47C1091.16 1924.25 1101.25 1932.2 1113.73 1932.2C3326.95 1932.2 3403.32 1932.27 3405.4 1932.09C3405.65 1932.06 3407.13 1931.88 3407.83 1931.76C3408.23 1931.69 3409.4 1931.45 3410.18 1931.24C3410.96 1931.03 3411.72 1930.79 3412.46 1930.51C3413.23 1930.24 3413.99 1929.92 3414.73 1929.55C3421.72 1926.11 3425.46 1920.4 3425.46 1914.48V1879.33C3425.45 1914.94 3338.32 1920.03 3285.72 1915.45Z" fill="white"/>
<path d="M3402.89 1934.9H1113.73C1099.77 1934.9 1088.41 1925.73 1088.41 1914.46V1862.57C1088.41 1851.3 1099.77 1842.13 1113.73 1842.13H3402.89C3416.85 1842.13 3428.21 1851.3 3428.21 1862.57V1914.46C3428.21 1925.73 3416.85 1934.9 3402.89 1934.9ZM1113.73 1847.55C1102.8 1847.55 1093.91 1854.29 1093.91 1862.57V1914.46C1093.91 1922.74 1102.8 1929.48 1113.73 1929.48H3402.89C3413.82 1929.48 3422.71 1922.74 3422.71 1914.46V1862.57C3422.71 1854.29 3413.82 1847.55 3402.89 1847.55H1113.73Z" fill="#1A1A1A"/>
</g>
<g clip-path="url(#clip1_613_386)">
<path d="M1650.72 1806.2V1810.92C1650.72 1818.46 1653.72 1825.7 1659.06 1831.03C1664.4 1836.37 1671.64 1839.37 1679.19 1839.37H2746.09C2753.64 1839.37 2760.88 1836.37 2766.21 1831.03C2771.55 1825.7 2774.55 1818.46 2774.55 1810.92V1806.2C2774.55 1798.66 2771.55 1791.42 2766.22 1786.09C2760.88 1780.75 2753.64 1777.76 2746.09 1777.76H1679.19C1671.64 1777.76 1664.4 1780.75 1659.06 1786.09C1653.72 1791.42 1650.72 1798.66 1650.72 1806.2Z" fill="white"/>
<path d="M2746.09 1842.13H1679.19C1670.91 1842.12 1662.97 1838.83 1657.12 1832.98C1651.26 1827.13 1647.97 1819.2 1647.96 1810.92V1806.2C1647.97 1797.93 1651.26 1790 1657.12 1784.15C1662.97 1778.3 1670.91 1775 1679.19 1775H2746.09C2754.37 1775 2762.31 1778.3 2768.16 1784.15C2774.01 1790 2777.31 1797.93 2777.32 1806.2V1810.92C2777.31 1819.2 2774.02 1827.13 2768.17 1832.99C2762.31 1838.84 2754.37 1842.13 2746.09 1842.13ZM1679.19 1780.52C1672.37 1780.52 1665.84 1783.23 1661.02 1788.05C1656.2 1792.86 1653.49 1799.39 1653.49 1806.2V1810.92C1653.49 1817.73 1656.2 1824.26 1661.02 1829.08C1665.84 1833.89 1672.37 1836.6 1679.19 1836.61H2746.09C2752.91 1836.6 2759.44 1833.9 2764.26 1829.08C2769.08 1824.27 2771.79 1817.73 2771.79 1810.92V1806.2C2771.78 1799.39 2769.07 1792.86 2764.26 1788.05C2759.44 1783.23 2752.9 1780.52 2746.09 1780.52H1679.19Z" fill="#1A1A1A"/>
<path d="M3400.95 1052.69H2334.48C2318.79 1052.69 2303.36 1065.49 2300.02 1081.29L2145.66 1809.81C2142.32 1825.61 2152.34 1838.42 2168.03 1838.42H3234.51C3250.2 1838.42 3265.63 1825.61 3268.96 1809.81L3423.33 1081.29C3426.67 1065.49 3416.65 1052.69 3400.95 1052.69Z" fill="white"/>
<path d="M3234.51 1841.18H2168.03C2164.19 1841.29 2160.37 1840.53 2156.86 1838.95C2153.36 1837.37 2150.26 1835.02 2147.79 1832.07C2145.31 1828.88 2143.59 1825.17 2142.75 1821.22C2141.91 1817.26 2141.98 1813.17 2142.95 1809.25L2297.32 1080.71C2300.91 1063.74 2317.58 1049.93 2334.48 1049.93H3400.95C3404.8 1049.81 3408.62 1050.58 3412.12 1052.15C3415.63 1053.73 3418.73 1056.08 3421.19 1059.04C3423.68 1062.23 3425.4 1065.94 3426.24 1069.89C3427.08 1073.84 3427.01 1077.93 3426.03 1081.86L3271.67 1810.39C3268.08 1827.36 3251.41 1841.18 3234.51 1841.18ZM2334.48 1055.45C2320.05 1055.45 2305.8 1067.29 2302.73 1081.86L2148.36 1810.39C2147.56 1813.51 2147.49 1816.76 2148.13 1819.92C2148.78 1823.07 2150.13 1826.03 2152.08 1828.59C2154.03 1830.9 2156.48 1832.73 2159.25 1833.95C2162.01 1835.18 2165.01 1835.76 2168.03 1835.65H3234.51C3248.94 1835.65 3263.18 1823.81 3266.26 1809.25L3420.63 1080.71C3421.42 1077.6 3421.5 1074.34 3420.86 1071.19C3420.21 1068.03 3418.86 1065.07 3416.9 1062.51C3414.95 1060.21 3412.5 1058.37 3409.74 1057.15C3406.98 1055.92 3403.97 1055.34 3400.95 1055.45H2334.48Z" fill="#1A1A1A"/>
<path d="M2651.6 1452.29L2663.23 1413.64C2664.39 1408.07 2667.43 1403.07 2671.84 1399.48C2676.25 1395.88 2681.76 1393.91 2687.46 1393.9H2906.69C2908.91 1393.91 2911.1 1394.41 2913.1 1395.38C2915.11 1396.34 2916.87 1397.74 2918.26 1399.47C2919.65 1401.2 2920.64 1403.22 2921.16 1405.38C2921.67 1407.54 2921.69 1409.79 2921.22 1411.96L2909.59 1450.61C2908.43 1456.18 2905.39 1461.19 2900.98 1464.78C2896.57 1468.38 2891.05 1470.35 2885.36 1470.36H2666.13C2663.91 1470.35 2661.72 1469.85 2659.72 1468.88C2657.71 1467.92 2655.95 1466.52 2654.56 1464.79C2653.17 1463.06 2652.18 1461.04 2651.66 1458.87C2651.15 1456.71 2651.13 1454.46 2651.6 1452.29Z" fill="#F1416C"/>
<path d="M2885.36 1473.12H2666.13C2663.51 1473.12 2660.93 1472.54 2658.56 1471.41C2656.2 1470.28 2654.12 1468.64 2652.47 1466.6C2650.8 1464.54 2649.61 1462.14 2648.99 1459.57C2648.37 1456.99 2648.34 1454.31 2648.89 1451.72C2648.91 1451.64 2648.93 1451.57 2648.95 1451.49L2660.55 1412.96C2661.89 1406.81 2665.28 1401.3 2670.17 1397.33C2675.06 1393.36 2681.16 1391.18 2687.46 1391.14H2906.68C2909.3 1391.13 2911.89 1391.72 2914.26 1392.84C2916.62 1393.97 2918.7 1395.62 2920.34 1397.65C2922.02 1399.71 2923.21 1402.11 2923.83 1404.69C2924.44 1407.26 2924.48 1409.95 2923.92 1412.54C2923.91 1412.61 2923.89 1412.69 2923.87 1412.76L2912.27 1451.29C2910.93 1457.45 2907.54 1462.96 2902.65 1466.93C2897.75 1470.9 2891.65 1473.08 2885.36 1473.12ZM2654.28 1452.96C2653.91 1454.73 2653.95 1456.56 2654.38 1458.32C2654.81 1460.07 2655.62 1461.71 2656.76 1463.12C2657.89 1464.51 2659.32 1465.64 2660.94 1466.42C2662.56 1467.19 2664.34 1467.59 2666.13 1467.59H2885.36C2890.41 1467.56 2895.3 1465.8 2899.22 1462.6C2903.13 1459.41 2905.84 1454.97 2906.89 1450.03C2906.9 1449.95 2906.92 1449.88 2906.95 1449.8L2918.55 1411.28C2918.91 1409.51 2918.87 1407.68 2918.44 1405.92C2918.01 1404.17 2917.2 1402.53 2916.06 1401.12C2914.93 1399.72 2913.5 1398.6 2911.88 1397.82C2910.26 1397.05 2908.49 1396.65 2906.69 1396.65H2687.46C2682.4 1396.68 2677.51 1398.44 2673.59 1401.64C2669.68 1404.83 2666.97 1409.27 2665.92 1414.21C2665.91 1414.29 2665.89 1414.36 2665.87 1414.44L2654.28 1452.96Z" fill="#1A1A1A"/>
</g>
<defs>
<clipPath id="clip0_613_386">
<rect width="2339.8" height="92.7673" fill="white" transform="translate(1088.41 1842.13)"/>
</clipPath>
<clipPath id="clip1_613_386">
<rect width="1778.78" height="792.203" fill="white" transform="translate(1647.96 1049.93)"/>
</clipPath>
</defs>
</svg>
