<svg width="1160" height="612" viewBox="0 0 1160 612" fill="none" xmlns="http://www.w3.org/2000/svg">
<path d="M901.377 591.05L901.916 591.057L901.882 590.519C901.76 588.574 901.639 585.063 902.017 581.804C902.206 580.173 902.517 578.63 903.003 577.384C903.492 576.129 904.13 575.251 904.922 574.839C906.039 574.264 906.98 574.067 907.755 574.12C908.524 574.173 909.164 574.472 909.685 574.948C910.747 575.917 911.349 577.651 911.394 579.542C911.418 580.619 911.447 581.972 911.477 583.368C911.543 586.427 911.614 589.693 911.64 590.714L911.652 591.201H912.14H912.31H912.602L912.746 590.946C913.5 589.605 916.563 584.215 920.337 578.759C922.225 576.03 924.284 573.295 926.316 571.045C928.359 568.782 930.333 567.059 932.042 566.295C933.939 565.45 935.436 565.23 936.584 565.398C937.72 565.564 938.551 566.114 939.132 566.892C940.317 568.48 940.492 571.084 939.774 573.361C939.516 574.177 938.738 575.395 937.583 576.87C936.441 578.327 934.975 579.981 933.4 581.658C930.251 585.011 926.692 588.43 924.482 590.506L923.582 591.352L924.818 591.37C995.661 592.404 1054.45 593.801 1095.53 595.439C1116.07 596.258 1132.17 597.138 1143.14 598.062C1148.62 598.524 1152.81 598.997 1155.62 599.477C1157.03 599.718 1158.07 599.956 1158.75 600.189C1159.05 600.29 1159.25 600.383 1159.39 600.462C1159.32 600.501 1159.23 600.546 1159.12 600.595C1158.71 600.771 1158.08 600.958 1157.19 601.149C1155.44 601.53 1152.8 601.909 1149.32 602.283C1142.37 603.03 1132.1 603.752 1118.87 604.439C1092.42 605.814 1054.13 607.052 1006.81 608.091C912.167 610.169 781.42 611.452 637 611.452C492.58 611.452 361.833 610.169 267.194 608.091C219.873 607.052 181.583 605.814 155.126 604.439C141.895 603.752 131.632 603.03 124.679 602.283C121.2 601.909 118.565 601.53 116.806 601.149C115.923 600.958 115.286 600.771 114.88 600.595C114.766 600.546 114.68 600.501 114.615 600.462C114.764 600.373 115.002 600.269 115.347 600.157C116.101 599.911 117.25 599.66 118.799 599.408C121.89 598.906 126.49 598.411 132.506 597.928C144.534 596.963 162.175 596.047 184.616 595.199C229.497 593.505 293.556 592.085 370.26 591.088L371.495 591.072L370.597 590.224C368.557 588.298 364.117 584.064 360.03 579.813C357.986 577.687 356.037 575.563 354.521 573.725C353.764 572.805 353.119 571.963 352.628 571.233C352.131 570.493 351.811 569.898 351.675 569.468L351.674 569.467C350.948 567.191 351.122 564.587 352.308 562.999C352.888 562.221 353.72 561.671 354.854 561.505C356.001 561.337 357.496 561.557 359.388 562.402L359.388 562.402C361.234 563.225 363.383 565.161 365.591 567.678C367.786 570.179 369.993 573.199 371.964 576.121C373.934 579.041 375.661 581.854 376.896 583.937C377.514 584.979 378.008 585.837 378.348 586.435C378.517 586.734 378.648 586.968 378.737 587.127C378.757 587.162 378.775 587.194 378.79 587.223L378.837 587.307L378.863 587.353L378.869 587.365L378.871 587.367L378.871 587.368C378.871 587.368 378.871 587.368 378.885 587.36L378.871 587.368L379.772 589.01L379.809 587.137L379.809 587.136L379.809 587.132L379.81 587.116L379.811 587.052L379.816 586.805L379.834 585.895C379.85 585.125 379.872 584.057 379.897 582.867C379.946 580.485 380.008 577.613 380.055 575.649C380.1 573.758 380.702 572.024 381.764 571.055C382.286 570.579 382.925 570.28 383.694 570.227C384.469 570.174 385.41 570.371 386.528 570.946C387.351 571.373 388.019 572.464 388.512 574.109C388.997 575.724 389.277 577.745 389.423 579.844C389.716 584.038 389.472 588.444 389.341 590.308L389.302 590.85L389.845 590.843C463.439 589.978 547.601 589.471 637 589.471C733.45 589.471 823.794 590.054 901.377 591.05ZM114.472 600.354C114.472 600.354 114.472 600.355 114.473 600.357C114.472 600.355 114.471 600.354 114.472 600.354ZM114.475 600.565C114.473 600.568 114.472 600.57 114.472 600.57C114.472 600.57 114.473 600.568 114.475 600.565Z" fill="#B4CCE6" stroke="black"/>
<path d="M705.532 103.251L705.538 103.252C755.373 118.204 800.8 165.933 824.022 221.461C847.242 276.983 848.201 340.144 809.343 385.989C770.427 431.905 721.694 452.877 666.418 461.537C613.301 469.859 554.177 466.807 491.937 463.594C489.382 463.462 486.82 463.33 484.254 463.199C354.41 456.534 289.257 379.302 276.634 310.822C264.029 242.454 306.437 173.236 426.428 113.225C486.336 83.2634 556.096 80.7563 610.919 85.7571C638.324 88.257 661.982 92.6315 678.788 96.381C687.19 98.2557 693.879 99.9739 698.466 101.223C700.759 101.848 702.527 102.355 703.721 102.706C704.318 102.881 704.771 103.018 705.075 103.11C705.227 103.156 705.342 103.192 705.418 103.215L705.504 103.242L705.525 103.248L705.53 103.25C705.531 103.25 705.532 103.251 705.682 102.774L705.532 103.251ZM919.426 361.329C919.432 361.332 919.438 361.335 919.443 361.338C942.471 392.713 928.995 435.393 892.442 465.981C874.181 481.261 859.168 484.429 846.905 481.433C834.608 478.429 824.941 469.198 817.458 459.385C810.081 449.711 808.31 433.878 812.712 416.821C817.108 399.784 827.644 381.617 844.739 367.35L844.418 366.966L844.739 367.35C861.766 353.123 880.449 351.627 894.904 353.696C902.133 354.731 908.297 356.657 912.654 358.324C914.832 359.158 916.557 359.926 917.736 360.486C918.325 360.765 918.778 360.992 919.082 361.149C919.234 361.227 919.349 361.288 919.426 361.329ZM922.076 105.777L922.117 105.821L922.166 105.855C929.727 110.947 936.765 120.773 942.057 132.823C947.344 144.861 950.862 159.061 951.422 172.839C951.982 186.622 949.581 199.938 943.08 210.25C936.593 220.54 925.994 227.884 910.043 229.702C878.037 233.351 853.835 221.329 836.413 205.019C818.978 188.698 808.342 168.089 803.521 154.63C798.738 141.251 799.731 126.479 807.159 113.602C814.586 100.726 828.471 89.7052 849.542 83.8903C870.557 78.1005 888.681 83.5621 901.573 90.4889C908.018 93.9524 913.149 97.779 916.668 100.739C918.427 102.219 919.782 103.482 920.695 104.373C921.152 104.818 921.499 105.171 921.731 105.411C921.847 105.532 921.934 105.624 921.991 105.685L922.021 105.717L922.056 105.755L922.072 105.772L922.075 105.776L922.076 105.777Z" fill="#C8E3FF" stroke="black"/>
<path fill-rule="evenodd" clip-rule="evenodd" d="M1012 304.952H1046.34V320.227H1012V304.952ZM1030.67 322.677H1065.01V337.952H1030.67V322.677ZM1049.66 304.952H1084V320.227H1049.66V304.952Z" fill="#C8E3FF"/>
<path d="M980.037 465.066C988.894 465.066 996.074 457.888 996.074 449.033C996.074 440.178 988.894 433 980.037 433C971.18 433 964 440.178 964 449.033C964 457.888 971.18 465.066 980.037 465.066Z" stroke="#B4CCE6" stroke-width="5.66932"/>
<path d="M971.508 451.68L975.744 455.915L988.888 442.378" stroke="#B4CCE6" stroke-width="5.66932" stroke-linecap="round" stroke-linejoin="round"/>
<path fill-rule="evenodd" clip-rule="evenodd" d="M313.241 58H350.195C351.518 58 352.615 59.0966 352.615 60.4201V84.6017C352.615 85.9252 351.518 87.0217 350.195 87.0217H319.747L307 95.284L310.82 84.6017V60.4201C310.82 59.0966 311.917 58 313.241 58Z" stroke="#010101" stroke-width="1.67" stroke-linecap="round" stroke-linejoin="round"/>
<path fill-rule="evenodd" clip-rule="evenodd" d="M331.889 70.2894C333.251 70.2894 334.348 71.386 334.348 72.7472C334.348 74.1085 333.251 75.2051 331.889 75.2051C330.528 75.2051 329.431 74.1085 329.431 72.7472C329.431 71.386 330.528 70.2894 331.889 70.2894ZM321.658 70.2894C323.001 70.2894 324.117 71.386 324.117 72.7472C324.117 74.1085 323.001 75.2051 321.658 75.2051C320.296 75.2051 319.181 74.1085 319.181 72.7472C319.181 71.386 320.296 70.2894 321.658 70.2894ZM342.121 70.2894C343.482 70.2894 344.579 71.386 344.579 72.7472C344.579 74.1085 343.482 75.2051 342.121 75.2051C340.759 75.2051 339.662 74.1085 339.662 72.7472C339.662 71.386 340.759 70.2894 342.121 70.2894Z" fill="#B4CCE6"/>
<path d="M534.333 0.5H1003.38C1012.9 0.5 1020.72 8.31126 1020.72 17.8479V314.72C1020.72 332.859 1005.87 347.704 987.725 347.704H546.493C528.349 347.704 513.5 332.859 513.5 314.72V21.3267C513.5 9.88086 522.883 0.5 534.333 0.5Z" fill="white" stroke="black"/>
<path d="M534.333 0.5H1003.38C1012.9 0.5 1020.72 8.31126 1020.72 17.8479V43.9496H513.5V21.3267C513.5 9.88086 522.883 0.5 534.333 0.5Z" fill="#3F96D1" stroke="black"/>
<path d="M704.651 258.587H620.607C617.056 258.587 614.177 260.826 614.177 263.587C614.177 266.349 617.056 268.588 620.607 268.588H704.651C708.202 268.588 711.081 266.349 711.081 263.587C711.081 260.826 708.202 258.587 704.651 258.587Z" stroke="black"/>
<path fill-rule="evenodd" clip-rule="evenodd" d="M812.185 94.3443H963.877C972.595 94.3443 979.725 101.472 979.725 110.188C979.725 118.904 972.595 126.032 963.877 126.032H812.185C803.467 126.032 796.337 118.904 796.337 110.188C796.337 101.472 803.467 94.3443 812.185 94.3443Z" stroke="black" stroke-linecap="round" stroke-linejoin="round" stroke-dasharray="28.35 17.01"/>
<path fill-rule="evenodd" clip-rule="evenodd" d="M558.199 94.3443H733.134C736.803 94.3443 739.791 97.3505 739.791 100.999V211.736C739.791 218.599 734.174 224.233 727.309 224.233H562.719C555.854 224.233 550.237 218.599 550.237 211.736V102.304C550.237 97.9366 553.812 94.3443 558.199 94.3443Z" stroke="black" stroke-linecap="round" stroke-linejoin="round" stroke-dasharray="28.35 28.35"/>
<path fill-rule="evenodd" clip-rule="evenodd" d="M560.033 13.4615C564.023 13.4615 567.257 16.6946 567.257 20.6839C567.257 24.6732 564.023 27.9062 560.033 27.9062C556.043 27.9062 552.809 24.6732 552.809 20.6839C552.809 16.6946 556.043 13.4615 560.033 13.4615ZM608.882 13.4615C612.873 13.4615 616.107 16.6946 616.107 20.6839C616.107 24.6732 612.873 27.9062 608.882 27.9062C604.873 27.9062 601.639 24.6732 601.639 20.6839C601.639 16.6946 604.873 13.4615 608.882 13.4615ZM585.072 13.4615C589.063 13.4615 592.297 16.6946 592.297 20.6839C592.297 24.6732 589.063 27.9062 585.072 27.9062C581.082 27.9062 577.848 24.6732 577.848 20.6839C577.848 16.6946 581.082 13.4615 585.072 13.4615Z" fill="#265487"/>
<path d="M575.389 299.614C588.476 299.614 599.085 289.008 599.085 275.924C599.085 262.84 588.476 252.234 575.389 252.234C562.302 252.234 551.692 262.84 551.692 275.924C551.692 289.008 562.302 299.614 575.389 299.614Z" stroke="black"/>
<path fill-rule="evenodd" clip-rule="evenodd" d="M579.683 275.433C584.486 277.191 587.909 281.785 587.909 287.192C587.909 288.005 587.834 288.818 587.682 289.594H563.097C562.946 288.818 562.87 288.005 562.87 287.192C562.87 281.785 566.312 277.191 571.116 275.433C569.281 274.109 568.109 271.954 568.109 269.534C568.109 265.507 571.362 262.236 575.39 262.236C579.418 262.236 582.69 265.507 582.69 269.534C582.69 271.954 581.498 274.109 579.683 275.433Z" stroke="black" stroke-linecap="round" stroke-linejoin="round"/>
<path d="M673.22 279.422H618.356C616.048 279.422 614.177 281.661 614.177 284.423C614.177 287.184 616.048 289.423 618.356 289.423H673.22C675.528 289.423 677.399 287.184 677.399 284.423C677.399 281.661 675.528 279.422 673.22 279.422Z" stroke="black"/>
<path fill-rule="evenodd" clip-rule="evenodd" d="M812.185 150.289H963.877C972.595 150.289 979.725 157.417 979.725 166.133C979.725 174.849 972.595 181.977 963.877 181.977H812.185C803.467 181.977 796.337 174.849 796.337 166.133C796.337 157.417 803.467 150.289 812.185 150.289Z" stroke="black" stroke-linecap="round" stroke-linejoin="round" stroke-dasharray="28.35 17.01"/>
<path d="M257.019 481.971H291.299V497.219H257.019V481.971ZM275.671 499.686H309.97V514.933H275.671V499.686ZM294.682 481.971H328.981V497.219H294.682V481.971Z" fill="#C8E3FF" stroke="#B4CCE6" stroke-width="0.0377955"/>
<path d="M645.891 267.926C673.246 267.926 695.422 245.757 695.422 218.41C695.422 191.063 673.246 168.893 645.891 168.893C618.537 168.893 596.361 191.063 596.361 218.41C596.361 245.757 618.537 267.926 645.891 267.926Z" fill="#4C2A9B"/>
<path fill-rule="evenodd" clip-rule="evenodd" d="M687.971 244.539C679.234 258.587 663.65 267.926 645.892 267.926C632.578 267.926 620.493 262.689 611.586 254.143L645.892 218.41L687.971 244.539Z" fill="#6359CC"/>
<path fill-rule="evenodd" clip-rule="evenodd" d="M669.608 174.924C684.983 183.319 695.423 199.654 695.423 218.41C695.423 227.996 692.699 236.957 687.971 244.539L645.893 218.41L669.608 174.924Z" fill="#A0A1FE"/>
<path fill-rule="evenodd" clip-rule="evenodd" d="M799.738 550.487L824.248 562.417L833.59 541.903L809.572 530.899L799.738 550.487Z" fill="white"/>
<path fill-rule="evenodd" clip-rule="evenodd" d="M818.159 578.317C817.667 579.943 818.235 579.981 816.514 581.91C814.793 583.838 810.765 590.531 809.592 593.878C808.42 597.205 808.968 598.869 808.968 598.869L809.214 599.682H835.237C839.303 599.512 840.891 598.85 840.948 598.812C850.763 593.783 854.3 565.026 855.718 549.277V549.258C856.266 543.624 849.023 541.638 848.569 541.506C847.624 541.279 846.584 541.052 845.468 540.825C845.468 540.825 828.844 536.647 823.341 539.067C817.838 541.487 821.828 550.827 818.745 554.741C815.663 558.673 816.571 561.509 817.838 567.503C819.067 573.421 818.178 578.185 818.159 578.317Z" fill="#282737"/>
<path fill-rule="evenodd" clip-rule="evenodd" d="M809.346 594.596C808.495 597.451 808.968 598.869 808.968 598.869L809.214 599.682H816.93H835.236C839.302 599.512 840.891 598.85 840.948 598.812C842.593 597.961 844.049 596.505 845.316 594.596H845.279C851.86 584.708 854.526 562.455 855.718 549.277V549.258C856.266 543.624 849.023 541.638 848.569 541.506C847.624 541.279 846.584 541.052 845.468 540.825C845.468 540.825 845.089 540.731 844.446 540.58C842.101 540.844 839.548 541.43 837.884 542.735C834.045 545.741 830.792 564.667 829.865 570.074C828.958 575.5 826.291 593.518 819.956 594.596H809.346Z" fill="#5F5F77"/>
<path fill-rule="evenodd" clip-rule="evenodd" d="M666.846 555.1L673.2 574.404L694.381 573.231L690.202 551.772L666.846 555.1Z" fill="white"/>
<path fill-rule="evenodd" clip-rule="evenodd" d="M698.521 602.442H625.673C625.673 602.442 624.424 596.127 628.623 592.63C632.821 589.132 659.998 576.616 664.744 572.872C669.491 569.11 670.569 566.784 674.371 567.805C678.172 568.826 681.614 571.322 686.474 570.112C691.334 568.883 693.471 567.635 695.382 569.507C697.292 571.379 697.178 580.529 697.935 586.882C698.691 593.235 698.521 602.442 698.521 602.442Z" fill="#282737"/>
<path fill-rule="evenodd" clip-rule="evenodd" d="M698.522 602.442H625.674C625.674 602.442 625.315 600.608 625.617 598.396H698.522C698.56 600.778 698.522 602.442 698.522 602.442Z" fill="#5F5F77"/>
<path d="M689.086 599.739C689.086 599.739 687.176 590.342 689.673 584.235C692.188 578.128 697.067 576.238 697.067 576.238" stroke="#5F5F77" stroke-width="2.83466" stroke-linecap="round" stroke-linejoin="round"/>
<path d="M650.525 585.464L646.175 582.987" stroke="white" stroke-width="3.77955" stroke-linecap="round" stroke-linejoin="round"/>
<path d="M655.138 583.101L650.788 580.643" stroke="white" stroke-width="3.77955" stroke-linecap="round" stroke-linejoin="round"/>
<path d="M659.83 580.681L655.461 578.223" stroke="white" stroke-width="3.77955" stroke-linecap="round" stroke-linejoin="round"/>
<path d="M664.747 578.034L660.397 575.576" stroke="white" stroke-width="3.77955" stroke-linecap="round" stroke-linejoin="round"/>
<path d="M668.547 575.746L664.197 573.269" stroke="white" stroke-width="3.77955" stroke-linecap="round" stroke-linejoin="round"/>
<path d="M645.854 587.865L641.485 585.388" stroke="white" stroke-width="3.77955" stroke-linecap="round" stroke-linejoin="round"/>
<path d="M663.088 399.412L663.046 399.417C663.001 399.422 662.936 399.429 662.85 399.44C662.678 399.461 662.426 399.494 662.102 399.538C661.456 399.627 660.524 399.764 659.372 399.956C657.067 400.339 653.884 400.942 650.344 401.817L650.338 401.819L650.338 401.819C648.666 402.213 647.016 402.663 645.425 403.187L645.414 403.191L645.414 403.191C644.04 403.607 642.429 403.987 640.685 404.398C640.544 404.431 640.402 404.464 640.259 404.498C638.344 404.95 636.269 405.448 634.13 406.084C629.852 407.356 625.347 409.173 621.426 412.238L663.088 399.412ZM663.088 399.412H663.11L663.154 399.404C673.657 397.49 711.096 393.299 746.657 391.953C764.438 391.28 781.725 391.318 794.931 392.704C801.536 393.397 807.093 394.424 811.172 395.855C815.291 397.3 817.735 399.099 818.402 401.217C820.782 408.794 818.757 416.951 813.921 425.269C809.085 433.585 801.478 441.995 792.824 450.028C780.768 461.22 766.76 471.615 755.482 479.983C750.555 483.639 746.15 486.909 742.656 489.689L741.743 490.415L742.899 490.575C747.157 491.165 751.96 492.951 757.238 495.574C762.512 498.195 768.232 501.637 774.322 505.516C777.847 507.762 781.496 510.154 785.251 512.617C794.332 518.571 804.033 524.932 814.096 530.602L803.317 554.893C802.721 554.657 802.111 554.416 801.489 554.17C786.707 548.323 764.805 539.661 745.299 531.267C735.033 526.849 725.437 522.509 717.896 518.696C714.125 516.789 710.875 515.017 708.314 513.436C705.742 511.847 703.905 510.475 702.927 509.373C697.902 503.71 695.578 498.24 695.129 492.973C694.678 487.701 696.102 482.579 698.666 477.609C703.069 469.074 710.774 461.087 717.934 453.665C719.14 452.415 720.33 451.182 721.487 449.964L722.253 449.157L721.141 449.12C711.485 448.8 701.392 448.253 692.08 447.749C690.391 447.657 688.728 447.567 687.098 447.48C676.488 446.913 667.256 446.472 661.446 446.605L660.507 446.627L661.049 447.394C668.163 457.462 672.575 469.425 677.018 486.462C679.434 495.73 681.853 506.469 684.72 519.199C687.099 529.765 689.788 541.703 693.041 555.309L666.14 561.313C664.921 558.817 663.043 555.189 660.716 550.691C652.987 535.753 640.292 511.22 630.231 486.669C623.612 470.521 618.151 454.404 615.995 441.045C614.917 434.364 614.67 428.402 615.503 423.483C616.336 418.567 618.238 414.732 621.426 412.238L663.088 399.412Z" fill="white" stroke="black"/>
<path d="M780.298 431.318C780.298 431.318 772.128 440.318 756.791 446.821C741.434 453.325 721.123 449.62 721.123 449.62" stroke="#E48A02" stroke-width="2.83466" stroke-linecap="round" stroke-linejoin="round"/>
<path fill-rule="evenodd" clip-rule="evenodd" d="M819.01 599.682H835.236C839.302 599.512 840.891 598.85 840.947 598.812C850.763 593.783 854.299 565.026 855.718 549.277V549.258C855.963 546.705 854.621 544.89 853.013 543.661C853.013 543.661 843.179 540.693 839.926 547.688C836.673 554.703 833.08 583.46 829.165 592.214C826.593 597.98 821.903 599.398 819.01 599.682Z" fill="#8989AF"/>
<path d="M833.212 538.613C833.212 538.613 826.877 538.311 826.877 545.987C826.877 553.663 831.775 559.978 831.775 559.978" stroke="#5F5F77" stroke-width="2.83466" stroke-linecap="round" stroke-linejoin="round"/>
<path fill-rule="evenodd" clip-rule="evenodd" d="M689.521 203.095C689.521 203.095 686.136 211.566 685.19 212.568C684.245 213.57 689.654 215.801 692.812 216.292C695.97 216.784 689.521 203.095 689.521 203.095Z" fill="#EBEBEB"/>
<path d="M731.013 221.567L730.52 221.651L730.522 221.661L730.524 221.671L731.526 226.398L731.53 226.412L731.533 226.427C732.354 229.409 733.868 232.374 735.166 234.58C735.817 235.687 736.416 236.609 736.854 237.255C736.987 237.451 737.106 237.623 737.206 237.766C737.072 237.824 736.916 237.891 736.738 237.967C736.075 238.252 735.119 238.659 733.95 239.148C731.613 240.125 728.426 241.427 725.028 242.73L724.532 242.92L724.676 243.236L722.829 243.574L722.786 243.582L722.745 243.597C718.256 245.26 713.675 246.795 710.371 247.5C708.701 247.857 707.43 247.985 706.669 247.854C706.287 247.788 706.137 247.675 706.085 247.601C706.048 247.55 705.99 247.419 706.106 247.086C707.315 243.653 707.324 238.494 707.097 234.546L707.064 233.969L706.498 234.085C703.557 234.688 699.273 235.126 696.158 233.723C693.683 232.591 692.044 230.139 690.953 226.434C689.862 222.73 689.348 217.869 689.056 212.07C688.761 206.226 687.882 200.417 687.079 196.073C686.677 193.9 686.293 192.091 686.01 190.825C685.868 190.192 685.751 189.694 685.67 189.354C685.629 189.184 685.598 189.054 685.576 188.966L685.551 188.866L685.549 188.857L685.547 188.846C685.544 188.822 685.54 188.785 685.535 188.736C685.525 188.636 685.512 188.487 685.505 188.294C685.491 187.907 685.496 187.347 685.578 186.668C685.742 185.31 686.211 183.479 687.432 181.596C689.86 177.853 695.355 173.772 707.766 172.947L707.766 172.947C713.947 172.531 718.661 173.586 722.218 175.505C725.773 177.423 728.205 180.221 729.795 183.347C732.986 189.623 732.772 197.198 731.407 201.468L731.407 201.469C729.991 205.925 729.775 210.978 729.906 214.893C729.971 216.856 730.125 218.542 730.261 219.738C730.33 220.337 730.394 220.813 730.442 221.141C730.465 221.305 730.485 221.431 730.499 221.518C730.502 221.539 730.505 221.558 730.508 221.574C730.51 221.591 730.513 221.605 730.514 221.616L730.519 221.642L730.52 221.649L730.52 221.651L730.52 221.651C730.52 221.651 730.52 221.651 730.598 221.638C730.664 221.627 730.786 221.606 731.013 221.567Z" fill="white" stroke="black"/>
<path fill-rule="evenodd" clip-rule="evenodd" d="M697.085 234.594C700.187 235.558 703.969 235.104 706.598 234.575C706.598 234.575 711.023 231.418 710.191 228.582C709.491 226.218 705.86 231.645 697.085 234.594Z" fill="#282737"/>
<path d="M708.583 212.492C708.583 212.492 708.224 211.169 709.831 207.728C711.458 204.287 713.557 203.058 713.557 203.058" stroke="#EBEBEB" stroke-width="2.83466" stroke-linecap="round" stroke-linejoin="round"/>
<path d="M714.012 209.316L709.832 208.011" stroke="#EBEBEB" stroke-width="2.83466" stroke-linecap="round" stroke-linejoin="round"/>
<path fill-rule="evenodd" clip-rule="evenodd" d="M709.075 160.064C709.075 160.064 704.574 154.411 696.139 159.024C687.723 163.618 691.978 168.931 683.052 170.009C674.107 171.068 673.18 184.718 676.943 188.254C680.726 191.789 686.986 192.489 691.146 191.789C695.307 191.071 694.872 197.839 697.387 200.014C699.902 202.188 700.281 203.341 702.55 207.312C704.801 211.301 704.233 208.522 705.954 203.852C707.675 199.182 713.689 195.552 716.904 201.243C720.1 206.933 718.285 212.076 715.542 214.591C712.819 217.105 711.363 218.145 711.363 218.145L716.98 223.779L731.012 221.567C731.012 221.567 732.336 217.918 734.227 213.778C736.402 213.021 738.691 211.755 740.279 209.543C744.213 204.06 740.411 203.492 743.835 199.503C747.258 195.514 746.69 191.014 744.496 187.157C743.229 184.945 743.078 182.96 743.192 181.674C743.324 181.183 743.418 180.672 743.475 180.143C743.608 179.046 743.589 177.855 743.343 176.588C742 169.839 736.1 168.515 736.1 168.515C736.1 168.515 732.601 156.755 723.504 158.022C714.427 159.289 711.741 162.087 709.075 160.064Z" fill="#4C2A9B"/>
<path d="M660.114 550.6L690.751 543.491" stroke="#E48A02" stroke-width="2.83466" stroke-linecap="round" stroke-linejoin="round"/>
<path d="M790.512 550.354L802.464 523.11" stroke="#E48A02" stroke-width="2.83466" stroke-linecap="round" stroke-linejoin="round"/>
<path d="M735.383 450.659C735.383 450.659 705.029 481.25 705.691 490.59C706.372 499.93 717.53 509.932 734.721 517.929C751.893 525.927 793.442 543.68 793.442 543.68" stroke="#E48A02" stroke-width="2.83466" stroke-linecap="round" stroke-linejoin="round"/>
<path d="M729.387 397.872C729.387 397.872 714.693 402.202 682.353 404.886C649.995 407.552 626.469 413.886 623.802 422.394C621.136 430.883 632.313 468.583 640.312 489.248C648.312 509.932 667.432 548.899 667.432 548.899" stroke="#E48A02" stroke-width="2.83466" stroke-linecap="round" stroke-linejoin="round"/>
<path d="M643.055 443.645L661.456 447.105" stroke="#E48A02" stroke-width="2.83466" stroke-linecap="round" stroke-linejoin="round"/>
<path d="M728.877 499.212L743.288 490.137" stroke="#E48A02" stroke-width="2.83466" stroke-linecap="round" stroke-linejoin="round"/>
<path fill-rule="evenodd" clip-rule="evenodd" d="M701.437 252.518C701.437 252.518 698.43 238.508 718.949 232.42C739.468 226.332 746.957 235.917 747.809 239.585C748.641 243.253 701.437 252.518 701.437 252.518Z" fill="#396457"/>
<path fill-rule="evenodd" clip-rule="evenodd" d="M750.134 237.071C779.75 240.833 785.234 260.175 789.281 268.267C794.822 281.293 800.893 297.591 806.34 312.849C817.63 349.849 823.72 402.731 823.72 402.731C823.72 402.731 815.814 410.237 780.525 412.392C775.627 412.695 770.842 412.77 766.228 412.657H766.209C738.352 412.846 715.374 405.51 714.674 404.3C713.955 403.09 714.239 399.971 715.26 393.051C716.262 386.112 715.033 373.993 715.033 373.993C713.142 364.691 701.246 338.108 690.94 317.575C680.916 314.872 669.55 308.935 662.08 300.729C662.08 300.729 666.354 283.43 673.238 272.275C680.349 248.415 730.314 234.556 750.134 237.071Z" fill="#F1416C"/>
<path d="M657.429 360.892C658.296 361.691 659.306 362.491 660.469 363.144C663.448 364.817 667.493 365.565 672.849 362.663C675.485 361.235 677.94 358.303 680.147 354.614C682.346 350.939 684.264 346.576 685.85 342.363C687.436 338.153 688.687 334.107 689.555 331.073C689.989 329.557 690.328 328.294 690.565 327.391C690.656 327.042 690.733 326.747 690.794 326.511C690.812 326.441 690.829 326.377 690.844 326.317C690.904 326.086 690.953 325.898 690.978 325.825C691.841 323.342 692.604 321.061 693.33 318.686C684.318 316.685 673.828 311.924 665.853 305.068C665.825 305.216 665.799 305.352 665.775 305.481C665.55 306.665 665.437 307.263 664.882 310.827C664.166 315.439 663.631 318.42 663.274 319.508L662.782 321.013L662.321 319.498L648.099 272.761L648.071 272.668L648.079 272.572L648.079 272.572L648.079 272.571L648.08 272.568L648.081 272.555L648.085 272.501C648.089 272.453 648.095 272.382 648.102 272.291C648.115 272.109 648.134 271.845 648.154 271.521C648.194 270.872 648.238 269.983 648.257 269.018C648.276 268.052 648.269 267.017 648.206 266.076C648.143 265.126 648.026 264.309 647.839 263.758C647.839 263.758 647.839 263.758 647.839 263.757L648.313 263.597C647.968 262.595 647.875 261.594 647.787 260.649C647.667 259.363 647.557 258.181 646.837 257.244L657.429 360.892ZM657.429 360.892C656.912 360.363 656.35 359.788 655.85 359.275C655.635 359.055 655.431 358.846 655.247 358.657M657.429 360.892L655.247 358.657M655.247 358.657C654.902 358.283 654.59 357.948 654.323 357.704L654.318 357.7C654.317 357.698 654.302 357.685 654.282 357.671C654.275 357.665 654.256 357.654 654.234 357.641C654.109 357.514 653.982 357.384 653.852 357.251L653.851 357.251C652.442 355.814 651.069 353.55 649.751 350.647C648.436 347.751 647.191 344.254 646.023 340.379C643.687 332.63 641.668 323.408 640.015 314.548C638.362 305.691 637.076 297.206 636.203 290.935C635.767 287.8 635.434 285.219 635.21 283.422C635.098 282.523 635.013 281.821 634.957 281.343C634.928 281.104 634.907 280.921 634.893 280.799L634.877 280.66L634.873 280.625L634.872 280.616L634.871 280.614C634.871 280.613 634.871 280.613 634.375 280.67L634.871 280.613L634.863 280.543L634.836 280.477L628.532 265.331C632.357 266.744 636.399 267.706 640.6 268.159L640.884 268.189L641.054 267.96C641.614 267.207 642.534 265.86 643.145 264.246L643.145 264.245C643.383 263.609 643.523 262.848 643.629 262.082C643.686 261.674 643.737 261.224 643.787 260.784C643.827 260.429 643.867 260.081 643.908 259.767C644.005 259.019 644.122 258.362 644.3 257.854C644.482 257.337 644.693 257.08 644.907 256.981L655.247 358.657Z" fill="white" stroke="black"/>
<path d="M660.548 337.484C660.548 337.484 661.664 326.896 662.08 324.344C662.515 321.81 662.798 319.353 662.798 319.353" stroke="#EBEBEB" stroke-width="2.83466" stroke-linecap="round" stroke-linejoin="round"/>
<path d="M707.659 287.23L696.822 313.246" stroke="white" stroke-width="2.83466" stroke-linecap="round" stroke-linejoin="round"/>
<path d="M715.374 392.068C715.374 392.068 740.848 400.576 774.7 398.742C808.572 396.908 821.904 388.835 821.904 388.835" stroke="white" stroke-width="2.83466" stroke-linecap="round" stroke-linejoin="round"/>
<path d="M697.635 311.279C709.417 334.686 718.532 350.152 722.371 368.302C724.074 376.356 723.922 382.803 723.884 394.355" stroke="white" stroke-width="2.83466" stroke-linecap="round" stroke-linejoin="round"/>
<path fill-rule="evenodd" clip-rule="evenodd" d="M246.908 281.817L251.289 286.279C252.413 287.423 252.413 289.292 251.289 290.437L248.518 293.259C249.211 294.556 249.791 295.948 250.203 297.397H254.117C255.708 297.397 257 298.713 257 300.334V306.647C257 308.268 255.708 309.603 254.117 309.603H250.203C249.791 311.052 249.211 312.425 248.518 313.722L251.289 316.544C252.413 317.689 252.413 319.558 251.289 320.702L246.908 325.164C245.784 326.309 243.949 326.309 242.826 325.164L240.055 322.361C238.782 323.067 237.415 323.639 235.992 324.077V328.044C235.992 329.665 234.7 331 233.108 331H226.911C225.319 331 224.027 329.665 224.027 328.044V324.077C222.604 323.639 221.237 323.067 219.964 322.361L217.193 325.164C216.069 326.309 214.234 326.309 213.111 325.164L208.73 320.702C207.606 319.558 207.606 317.689 208.73 316.544L211.482 313.722C210.789 312.425 210.227 311.052 209.816 309.603H205.902C204.311 309.603 203 308.268 203 306.647V300.334C203 298.713 204.311 297.397 205.902 297.397H209.816C210.227 295.948 210.789 294.556 211.482 293.259L208.73 290.437C207.606 289.292 207.606 287.423 208.73 286.279L213.111 281.817C214.234 280.672 216.069 280.672 217.193 281.817L219.964 284.639C221.237 283.933 222.604 283.361 224.027 282.923V278.937C224.027 277.316 225.319 276 226.911 276H233.108C234.7 276 235.992 277.316 235.992 278.937V282.923C237.415 283.361 238.782 283.933 240.055 284.639L242.826 281.817C243.949 280.672 245.784 280.672 246.908 281.817ZM230 289.922C237.377 289.922 243.331 295.986 243.331 303.5C243.331 310.995 237.377 317.078 230 317.078C222.641 317.078 216.669 310.995 216.669 303.5C216.669 295.986 222.641 289.922 230 289.922Z" stroke="#010101" stroke-width="1.67"/>
<path d="M534.235 100.614L534.235 100.614L367.328 133.665C363.415 134.442 360.861 138.253 361.64 142.146L361.64 142.147L382.399 246.156L382.399 246.157C383.642 252.416 389.812 256.518 396.104 255.279L534.235 100.614ZM534.235 100.614C537.455 99.9759 540.617 102.077 541.257 105.294L541.257 105.295L562.279 210.549C563.521 216.795 559.408 222.943 553.118 224.181L553.118 224.181L396.105 255.279L534.235 100.614Z" fill="#F1416C" fill-opacity="0.74" stroke="black"/>
<path d="M533.637 100.613L533.637 100.613C536.847 99.9802 539.996 102.065 540.633 105.25L540.633 105.25L542.411 114.1L363.172 149.413L361.639 141.779L361.639 141.779C360.864 137.925 363.405 134.147 367.306 133.377C367.306 133.377 367.306 133.377 367.306 133.377L533.637 100.613Z" fill="#46459F" stroke="black"/>
<path d="M417.354 236.58L398.218 240.411L393.587 217.041L412.723 213.21L417.354 236.58ZM544.413 211.118L525.277 214.949L510.319 139.435L529.455 135.589L544.413 211.118ZM518.995 216.21L499.859 220.042L488.405 162.213L507.556 158.381L518.995 216.21ZM493.592 221.303L474.441 225.134L464.355 174.172L483.506 170.341L493.592 221.303ZM468.174 226.395L449.039 230.226L439.982 184.496L459.117 180.664L468.174 226.395ZM442.772 231.488L423.621 235.319L413.058 181.95L432.194 178.118L442.772 231.488Z" fill="white" fill-opacity="0.72" stroke="black"/>
<rect x="0.5" y="389.5" width="512" height="137" rx="12.5" fill="white" stroke="black"/>
<path fill-rule="evenodd" clip-rule="evenodd" d="M478.029 516.946L441 517.627L463.864 595.655H482.89H487.202H506.246L529.091 517.627L492.062 516.946L485.046 517.533L478.029 516.946Z" fill="#64474B"/>
<path d="M485.066 520.425C509.392 520.425 529.112 519.172 529.112 517.627C529.112 516.082 509.392 514.829 485.066 514.829C460.74 514.829 441.021 516.082 441.021 517.627C441.021 519.172 460.74 520.425 485.066 520.425Z" fill="#282737"/>
<path fill-rule="evenodd" clip-rule="evenodd" d="M485.067 357.941C468.576 376.602 442.515 422.054 485.067 451.926C527.6 422.054 501.558 376.602 485.067 357.941Z" fill="#52FFCE"/>
<path d="M485.065 389.364V518.667" stroke="#282737" stroke-width="2.83466" stroke-linecap="round" stroke-linejoin="round"/>
<path d="M471.999 397.116L485.067 411.693" stroke="#282737" stroke-width="2.83466" stroke-linecap="round" stroke-linejoin="round"/>
<path d="M498.134 408.29L485.065 422.867" stroke="#282737" stroke-width="2.83466" stroke-linecap="round" stroke-linejoin="round"/>
<path d="M471.999 422.545L485.067 437.141" stroke="#282737" stroke-width="2.83466" stroke-linecap="round" stroke-linejoin="round"/>
<path fill-rule="evenodd" clip-rule="evenodd" d="M570.549 414.397C545.718 416.136 495.261 430.297 504.66 481.421C555.949 489.91 569.225 439.259 570.549 414.397Z" fill="#52FFCE"/>
<path d="M548.534 436.801L485.065 501.348" stroke="#282737" stroke-width="2.83466" stroke-linecap="round" stroke-linejoin="round"/>
<path d="M533.781 433.171L532.854 452.72" stroke="#282737" stroke-width="2.83466" stroke-linecap="round" stroke-linejoin="round"/>
<path d="M544.582 459.451L525.027 460.699" stroke="#282737" stroke-width="2.83466" stroke-linecap="round" stroke-linejoin="round"/>
<path d="M515.93 451.302L515.022 470.871" stroke="#282737" stroke-width="2.83466" stroke-linecap="round" stroke-linejoin="round"/>
<path fill-rule="evenodd" clip-rule="evenodd" d="M400.492 425.419C425.323 427.178 475.761 441.32 466.381 492.443C415.092 500.951 401.816 450.281 400.492 425.419Z" fill="#52FFCE"/>
<path d="M422.505 447.824L485.065 511.445" stroke="#282737" stroke-width="2.83466" stroke-linecap="round" stroke-linejoin="round"/>
<path d="M437.257 444.194L438.165 463.743" stroke="#282737" stroke-width="2.83466" stroke-linecap="round" stroke-linejoin="round"/>
<path d="M426.458 470.474L446.013 471.722" stroke="#282737" stroke-width="2.83466" stroke-linecap="round" stroke-linejoin="round"/>
<path d="M455.09 462.325L456.017 481.893" stroke="#282737" stroke-width="2.83466" stroke-linecap="round" stroke-linejoin="round"/>
<path d="M67.058 428.758L61.403 449H56.618L52.819 434.587L48.846 449L44.09 449.029L38.638 428.758H42.988L46.555 444.476L50.673 428.758H55.197L59.083 444.389L62.679 428.758H67.058ZM84.644 440.619C84.644 441.199 84.6053 441.721 84.528 442.185H72.783C72.8797 443.345 73.2857 444.254 74.001 444.911C74.7163 445.568 75.596 445.897 76.64 445.897C78.148 445.897 79.221 445.249 79.859 443.954H84.238C83.774 445.501 82.8847 446.777 81.57 447.782C80.2553 448.768 78.641 449.261 76.727 449.261C75.1803 449.261 73.7883 448.923 72.551 448.246C71.333 447.55 70.376 446.574 69.68 445.317C69.0033 444.06 68.665 442.61 68.665 440.967C68.665 439.304 69.0033 437.845 69.68 436.588C70.3567 435.331 71.304 434.365 72.522 433.688C73.74 433.011 75.1417 432.673 76.727 432.673C78.2543 432.673 79.6173 433.002 80.816 433.659C82.034 434.316 82.9717 435.254 83.629 436.472C84.3057 437.671 84.644 439.053 84.644 440.619ZM80.439 439.459C80.4197 438.415 80.0427 437.584 79.308 436.965C78.5733 436.327 77.6743 436.008 76.611 436.008C75.6057 436.008 74.755 436.317 74.059 436.936C73.3823 437.535 72.9667 438.376 72.812 439.459H80.439ZM91.6674 427.54V449H87.6074V427.54H91.6674ZM94.6347 440.967C94.6347 439.304 94.9731 437.854 95.6497 436.617C96.3264 435.36 97.2641 434.394 98.4627 433.717C99.6614 433.021 101.034 432.673 102.581 432.673C104.572 432.673 106.215 433.176 107.511 434.181C108.825 435.167 109.705 436.559 110.15 438.357H105.771C105.539 437.661 105.142 437.12 104.582 436.733C104.04 436.327 103.364 436.124 102.552 436.124C101.392 436.124 100.473 436.549 99.7967 437.4C99.1201 438.231 98.7817 439.42 98.7817 440.967C98.7817 442.494 99.1201 443.683 99.7967 444.534C100.473 445.365 101.392 445.781 102.552 445.781C104.195 445.781 105.268 445.046 105.771 443.577H110.15C109.705 445.317 108.825 446.699 107.511 447.724C106.196 448.749 104.553 449.261 102.581 449.261C101.034 449.261 99.6614 448.923 98.4627 448.246C97.2641 447.55 96.3264 446.583 95.6497 445.346C94.9731 444.089 94.6347 442.63 94.6347 440.967ZM120.258 449.261C118.711 449.261 117.319 448.923 116.082 448.246C114.845 447.55 113.868 446.574 113.153 445.317C112.457 444.06 112.109 442.61 112.109 440.967C112.109 439.324 112.467 437.874 113.182 436.617C113.917 435.36 114.912 434.394 116.169 433.717C117.426 433.021 118.827 432.673 120.374 432.673C121.921 432.673 123.322 433.021 124.579 433.717C125.836 434.394 126.822 435.36 127.537 436.617C128.272 437.874 128.639 439.324 128.639 440.967C128.639 442.61 128.262 444.06 127.508 445.317C126.773 446.574 125.768 447.55 124.492 448.246C123.235 448.923 121.824 449.261 120.258 449.261ZM120.258 445.723C120.993 445.723 121.679 445.549 122.317 445.201C122.974 444.834 123.496 444.292 123.883 443.577C124.27 442.862 124.463 441.992 124.463 440.967C124.463 439.44 124.057 438.27 123.245 437.458C122.452 436.627 121.476 436.211 120.316 436.211C119.156 436.211 118.18 436.627 117.387 437.458C116.614 438.27 116.227 439.44 116.227 440.967C116.227 442.494 116.604 443.674 117.358 444.505C118.131 445.317 119.098 445.723 120.258 445.723ZM151.569 432.702C153.541 432.702 155.127 433.311 156.325 434.529C157.543 435.728 158.152 437.41 158.152 439.575V449H154.092V440.126C154.092 438.869 153.773 437.912 153.135 437.255C152.497 436.578 151.627 436.24 150.525 436.24C149.423 436.24 148.544 436.578 147.886 437.255C147.248 437.912 146.929 438.869 146.929 440.126V449H142.869V440.126C142.869 438.869 142.55 437.912 141.912 437.255C141.274 436.578 140.404 436.24 139.302 436.24C138.181 436.24 137.292 436.578 136.634 437.255C135.996 437.912 135.677 438.869 135.677 440.126V449H131.617V432.934H135.677V434.877C136.199 434.2 136.866 433.669 137.678 433.282C138.51 432.895 139.418 432.702 140.404 432.702C141.661 432.702 142.782 432.973 143.768 433.514C144.754 434.036 145.518 434.79 146.059 435.776C146.581 434.848 147.335 434.104 148.321 433.543C149.327 432.982 150.409 432.702 151.569 432.702ZM176.94 440.619C176.94 441.199 176.901 441.721 176.824 442.185H165.079C165.176 443.345 165.582 444.254 166.297 444.911C167.012 445.568 167.892 445.897 168.936 445.897C170.444 445.897 171.517 445.249 172.155 443.954H176.534C176.07 445.501 175.181 446.777 173.866 447.782C172.551 448.768 170.937 449.261 169.023 449.261C167.476 449.261 166.084 448.923 164.847 448.246C163.629 447.55 162.672 446.574 161.976 445.317C161.299 444.06 160.961 442.61 160.961 440.967C160.961 439.304 161.299 437.845 161.976 436.588C162.653 435.331 163.6 434.365 164.818 433.688C166.036 433.011 167.438 432.673 169.023 432.673C170.55 432.673 171.913 433.002 173.112 433.659C174.33 434.316 175.268 435.254 175.925 436.472C176.602 437.671 176.94 439.053 176.94 440.619ZM172.735 439.459C172.716 438.415 172.339 437.584 171.604 436.965C170.869 436.327 169.97 436.008 168.907 436.008C167.902 436.008 167.051 436.317 166.355 436.936C165.678 437.535 165.263 438.376 165.108 439.459H172.735ZM200.589 428.758V432.035H195.195V449H191.135V432.035H185.741V428.758H200.589ZM210.685 449.261C209.138 449.261 207.746 448.923 206.509 448.246C205.271 447.55 204.295 446.574 203.58 445.317C202.884 444.06 202.536 442.61 202.536 440.967C202.536 439.324 202.893 437.874 203.609 436.617C204.343 435.36 205.339 434.394 206.596 433.717C207.852 433.021 209.254 432.673 210.801 432.673C212.347 432.673 213.749 433.021 215.006 433.717C216.262 434.394 217.248 435.36 217.964 436.617C218.698 437.874 219.066 439.324 219.066 440.967C219.066 442.61 218.689 444.06 217.935 445.317C217.2 446.574 216.195 447.55 214.919 448.246C213.662 448.923 212.251 449.261 210.685 449.261ZM210.685 445.723C211.419 445.723 212.106 445.549 212.744 445.201C213.401 444.834 213.923 444.292 214.31 443.577C214.696 442.862 214.89 441.992 214.89 440.967C214.89 439.44 214.484 438.27 213.672 437.458C212.879 436.627 211.903 436.211 210.743 436.211C209.583 436.211 208.606 436.627 207.814 437.458C207.04 438.27 206.654 439.44 206.654 440.967C206.654 442.494 207.031 443.674 207.785 444.505C208.558 445.317 209.525 445.723 210.685 445.723ZM245.049 428.758L238.205 441.953V449H234.145V441.953L227.272 428.758H231.854L236.204 438.009L240.525 428.758H245.049ZM254.525 449.261C252.978 449.261 251.586 448.923 250.349 448.246C249.111 447.55 248.135 446.574 247.42 445.317C246.724 444.06 246.376 442.61 246.376 440.967C246.376 439.324 246.733 437.874 247.449 436.617C248.183 435.36 249.179 434.394 250.436 433.717C251.692 433.021 253.094 432.673 254.641 432.673C256.187 432.673 257.589 433.021 258.846 433.717C260.102 434.394 261.088 435.36 261.804 436.617C262.538 437.874 262.906 439.324 262.906 440.967C262.906 442.61 262.529 444.06 261.775 445.317C261.04 446.574 260.035 447.55 258.759 448.246C257.502 448.923 256.091 449.261 254.525 449.261ZM254.525 445.723C255.259 445.723 255.946 445.549 256.584 445.201C257.241 444.834 257.763 444.292 258.15 443.577C258.536 442.862 258.73 441.992 258.73 440.967C258.73 439.44 258.324 438.27 257.512 437.458C256.719 436.627 255.743 436.211 254.583 436.211C253.423 436.211 252.446 436.627 251.654 437.458C250.88 438.27 250.494 439.44 250.494 440.967C250.494 442.494 250.871 443.674 251.625 444.505C252.398 445.317 253.365 445.723 254.525 445.723ZM281.051 432.934V449H276.962V446.97C276.44 447.666 275.753 448.217 274.903 448.623C274.071 449.01 273.163 449.203 272.177 449.203C270.92 449.203 269.808 448.942 268.842 448.42C267.875 447.879 267.111 447.096 266.551 446.071C266.009 445.027 265.739 443.79 265.739 442.359V432.934H269.799V441.779C269.799 443.055 270.118 444.041 270.756 444.737C271.394 445.414 272.264 445.752 273.366 445.752C274.487 445.752 275.367 445.414 276.005 444.737C276.643 444.041 276.962 443.055 276.962 441.779V432.934H281.051ZM289.117 435.428C289.639 434.577 290.315 433.91 291.147 433.427C291.997 432.944 292.964 432.702 294.047 432.702V436.965H292.974C291.698 436.965 290.731 437.265 290.074 437.864C289.436 438.463 289.117 439.507 289.117 440.996V449H285.057V432.934H289.117V435.428ZM47.077 472.758C49.2037 472.758 51.0693 473.174 52.674 474.005C54.298 474.836 55.545 476.025 56.415 477.572C57.3043 479.099 57.749 480.878 57.749 482.908C57.749 484.938 57.3043 486.717 56.415 488.244C55.545 489.752 54.298 490.922 52.674 491.753C51.0693 492.584 49.2037 493 47.077 493H40.001V472.758H47.077ZM46.932 489.549C49.0587 489.549 50.702 488.969 51.862 487.809C53.022 486.649 53.602 485.015 53.602 482.908C53.602 480.801 53.022 479.157 51.862 477.978C50.702 476.779 49.0587 476.18 46.932 476.18H44.061V489.549H46.932ZM59.7441 484.909C59.7441 483.285 60.0631 481.845 60.7011 480.588C61.3584 479.331 62.2381 478.365 63.3401 477.688C64.4614 477.011 65.7084 476.673 67.0811 476.673C68.2798 476.673 69.3238 476.915 70.2131 477.398C71.1218 477.881 71.8468 478.49 72.3881 479.225V476.934H76.4771V493H72.3881V490.651C71.8661 491.405 71.1411 492.033 70.2131 492.536C69.3044 493.019 68.2508 493.261 67.0521 493.261C65.6988 493.261 64.4614 492.913 63.3401 492.217C62.2381 491.521 61.3584 490.545 60.7011 489.288C60.0631 488.012 59.7441 486.552 59.7441 484.909ZM72.3881 484.967C72.3881 483.981 72.1948 483.14 71.8081 482.444C71.4214 481.729 70.8994 481.187 70.2421 480.82C69.5848 480.433 68.8791 480.24 68.1251 480.24C67.3711 480.24 66.6751 480.424 66.0371 480.791C65.3991 481.158 64.8771 481.7 64.4711 482.415C64.0844 483.111 63.8911 483.942 63.8911 484.909C63.8911 485.876 64.0844 486.726 64.4711 487.461C64.8771 488.176 65.3991 488.727 66.0371 489.114C66.6944 489.501 67.3904 489.694 68.1251 489.694C68.8791 489.694 69.5848 489.51 70.2421 489.143C70.8994 488.756 71.4214 488.215 71.8081 487.519C72.1948 486.804 72.3881 485.953 72.3881 484.967ZM86.5904 493.261C85.2757 493.261 84.0964 493.029 83.0524 492.565C82.0084 492.082 81.1771 491.434 80.5584 490.622C79.9591 489.81 79.6304 488.911 79.5724 487.925H83.6614C83.7387 488.544 84.0384 489.056 84.5604 489.462C85.1017 489.868 85.7687 490.071 86.5614 490.071C87.3347 490.071 87.9341 489.916 88.3594 489.607C88.8041 489.298 89.0264 488.901 89.0264 488.418C89.0264 487.896 88.7557 487.509 88.2144 487.258C87.6924 486.987 86.8514 486.697 85.6914 486.388C84.4927 486.098 83.5067 485.798 82.7334 485.489C81.9794 485.18 81.3221 484.706 80.7614 484.068C80.2201 483.43 79.9494 482.57 79.9494 481.487C79.9494 480.598 80.2007 479.786 80.7034 479.051C81.2254 478.316 81.9601 477.736 82.9074 477.311C83.8741 476.886 85.0051 476.673 86.3004 476.673C88.2144 476.673 89.7417 477.156 90.8824 478.123C92.0231 479.07 92.6514 480.356 92.7674 481.98H88.8814C88.8234 481.342 88.5527 480.839 88.0694 480.472C87.6054 480.085 86.9771 479.892 86.1844 479.892C85.4497 479.892 84.8794 480.027 84.4734 480.298C84.0867 480.569 83.8934 480.946 83.8934 481.429C83.8934 481.97 84.1641 482.386 84.7054 482.676C85.2467 482.947 86.0877 483.227 87.2284 483.517C88.3884 483.807 89.3454 484.107 90.0994 484.416C90.8534 484.725 91.5011 485.209 92.0424 485.866C92.6031 486.504 92.8931 487.355 92.9124 488.418C92.9124 489.346 92.6514 490.177 92.1294 490.912C91.6267 491.647 90.8921 492.227 89.9254 492.652C88.9781 493.058 87.8664 493.261 86.5904 493.261ZM105.293 476.702C106.511 476.702 107.594 476.973 108.541 477.514C109.488 478.036 110.223 478.819 110.745 479.863C111.286 480.888 111.557 482.125 111.557 483.575V493H107.497V484.126C107.497 482.85 107.178 481.874 106.54 481.197C105.902 480.501 105.032 480.153 103.93 480.153C102.809 480.153 101.919 480.501 101.262 481.197C100.624 481.874 100.305 482.85 100.305 484.126V493H96.2451V471.54H100.305V478.935C100.827 478.239 101.523 477.698 102.393 477.311C103.263 476.905 104.23 476.702 105.293 476.702ZM119.478 479.283C120 478.51 120.715 477.881 121.624 477.398C122.552 476.915 123.606 476.673 124.785 476.673C126.158 476.673 127.395 477.011 128.497 477.688C129.618 478.365 130.498 479.331 131.136 480.588C131.793 481.825 132.122 483.266 132.122 484.909C132.122 486.552 131.793 488.012 131.136 489.288C130.498 490.545 129.618 491.521 128.497 492.217C127.395 492.913 126.158 493.261 124.785 493.261C123.586 493.261 122.533 493.029 121.624 492.565C120.735 492.082 120.019 491.463 119.478 490.709V493H115.418V471.54H119.478V479.283ZM127.975 484.909C127.975 483.942 127.772 483.111 127.366 482.415C126.979 481.7 126.457 481.158 125.8 480.791C125.162 480.424 124.466 480.24 123.712 480.24C122.977 480.24 122.281 480.433 121.624 480.82C120.986 481.187 120.464 481.729 120.058 482.444C119.671 483.159 119.478 484 119.478 484.967C119.478 485.934 119.671 486.775 120.058 487.49C120.464 488.205 120.986 488.756 121.624 489.143C122.281 489.51 122.977 489.694 123.712 489.694C124.466 489.694 125.162 489.501 125.8 489.114C126.457 488.727 126.979 488.176 127.366 487.461C127.772 486.746 127.975 485.895 127.975 484.909ZM142.206 493.261C140.66 493.261 139.268 492.923 138.03 492.246C136.793 491.55 135.817 490.574 135.101 489.317C134.405 488.06 134.057 486.61 134.057 484.967C134.057 483.324 134.415 481.874 135.13 480.617C135.865 479.36 136.861 478.394 138.117 477.717C139.374 477.021 140.776 476.673 142.322 476.673C143.869 476.673 145.271 477.021 146.527 477.717C147.784 478.394 148.77 479.36 149.485 480.617C150.22 481.874 150.587 483.324 150.587 484.967C150.587 486.61 150.21 488.06 149.456 489.317C148.722 490.574 147.716 491.55 146.44 492.246C145.184 492.923 143.772 493.261 142.206 493.261ZM142.206 489.723C142.941 489.723 143.627 489.549 144.265 489.201C144.923 488.834 145.445 488.292 145.831 487.577C146.218 486.862 146.411 485.992 146.411 484.967C146.411 483.44 146.005 482.27 145.193 481.458C144.401 480.627 143.424 480.211 142.264 480.211C141.104 480.211 140.128 480.627 139.335 481.458C138.562 482.27 138.175 483.44 138.175 484.967C138.175 486.494 138.552 487.674 139.306 488.505C140.08 489.317 141.046 489.723 142.206 489.723ZM152.521 484.909C152.521 483.285 152.84 481.845 153.478 480.588C154.136 479.331 155.015 478.365 156.117 477.688C157.239 477.011 158.486 476.673 159.858 476.673C161.057 476.673 162.101 476.915 162.99 477.398C163.899 477.881 164.624 478.49 165.165 479.225V476.934H169.254V493H165.165V490.651C164.643 491.405 163.918 492.033 162.99 492.536C162.082 493.019 161.028 493.261 159.829 493.261C158.476 493.261 157.239 492.913 156.117 492.217C155.015 491.521 154.136 490.545 153.478 489.288C152.84 488.012 152.521 486.552 152.521 484.909ZM165.165 484.967C165.165 483.981 164.972 483.14 164.585 482.444C164.199 481.729 163.677 481.187 163.019 480.82C162.362 480.433 161.656 480.24 160.902 480.24C160.148 480.24 159.452 480.424 158.814 480.791C158.176 481.158 157.654 481.7 157.248 482.415C156.862 483.111 156.668 483.942 156.668 484.909C156.668 485.876 156.862 486.726 157.248 487.461C157.654 488.176 158.176 488.727 158.814 489.114C159.472 489.501 160.168 489.694 160.902 489.694C161.656 489.694 162.362 489.51 163.019 489.143C163.677 488.756 164.199 488.215 164.585 487.519C164.972 486.804 165.165 485.953 165.165 484.967ZM177.28 479.428C177.802 478.577 178.478 477.91 179.31 477.427C180.16 476.944 181.127 476.702 182.21 476.702V480.965H181.137C179.861 480.965 178.894 481.265 178.237 481.864C177.599 482.463 177.28 483.507 177.28 484.996V493H173.22V476.934H177.28V479.428ZM183.9 484.909C183.9 483.285 184.219 481.845 184.857 480.588C185.515 479.331 186.404 478.365 187.525 477.688C188.647 477.011 189.894 476.673 191.266 476.673C192.31 476.673 193.306 476.905 194.253 477.369C195.201 477.814 195.955 478.413 196.515 479.167V471.54H200.633V493H196.515V490.622C196.013 491.415 195.307 492.053 194.398 492.536C193.49 493.019 192.436 493.261 191.237 493.261C189.884 493.261 188.647 492.913 187.525 492.217C186.404 491.521 185.515 490.545 184.857 489.288C184.219 488.012 183.9 486.552 183.9 484.909ZM196.544 484.967C196.544 483.981 196.351 483.14 195.964 482.444C195.578 481.729 195.056 481.187 194.398 480.82C193.741 480.433 193.035 480.24 192.281 480.24C191.527 480.24 190.831 480.424 190.193 480.791C189.555 481.158 189.033 481.7 188.627 482.415C188.241 483.111 188.047 483.942 188.047 484.909C188.047 485.876 188.241 486.726 188.627 487.461C189.033 488.176 189.555 488.727 190.193 489.114C190.851 489.501 191.547 489.694 192.281 489.694C193.035 489.694 193.741 489.51 194.398 489.143C195.056 488.756 195.578 488.215 195.964 487.519C196.351 486.804 196.544 485.953 196.544 484.967Z" fill="#F1416C"/>
</svg>
