<svg width="540" height="237" viewBox="0 0 540 237" fill="none" xmlns="http://www.w3.org/2000/svg">
<rect width="361" height="108" rx="10" fill="#002469"/>
<rect y="143" width="361" height="94" rx="10" fill="#285CC2"/>
<rect x="382" width="158" height="237" rx="10" fill="#2D3592"/>
<path d="M71.9167 26H31.0833C30.0004 26 28.9618 26.4305 28.196 27.1968C27.4302 27.9631 27 29.0024 27 30.0861V45.0769C27 67.9078 46.3448 75.4926 50.224 76.7695C51.0469 77.0768 51.9531 77.0768 52.776 76.7695C56.6552 75.4926 76 67.9078 76 45.0769V30.0861C76 29.0024 75.5698 27.9631 74.804 27.1968C74.0382 26.4305 72.9996 26 71.9167 26ZM61.8359 49.2906L54.7922 51.589L59.1562 57.5905C59.3138 57.8062 59.427 58.051 59.4892 58.3108C59.5514 58.5706 59.5614 58.8402 59.5187 59.1039C59.4759 59.3676 59.3813 59.6202 59.2402 59.847C59.0991 60.0739 58.9145 60.2704 58.6969 60.4252C58.354 60.6919 57.9317 60.8358 57.4974 60.8338C57.1747 60.8308 56.857 60.7532 56.5692 60.607C56.2815 60.4608 56.0314 60.25 55.8385 59.991L51.5 53.9896L47.1615 59.991C46.9686 60.25 46.7185 60.4608 46.4308 60.607C46.143 60.7532 45.8253 60.8308 45.5026 60.8338C45.0683 60.8358 44.646 60.6919 44.3031 60.4252C44.0855 60.2704 43.9009 60.0739 43.7598 59.847C43.6187 59.6202 43.5241 59.3676 43.4813 59.1039C43.4386 58.8402 43.4486 58.5706 43.5108 58.3108C43.573 58.051 43.6862 57.8062 43.8438 57.5905L48.2078 51.589L41.1641 49.2906C40.6509 49.1263 40.2234 48.7657 39.9748 48.2873C39.7262 47.8089 39.6766 47.2516 39.837 46.7368C40.0067 46.2214 40.372 45.7933 40.8541 45.5449C41.3363 45.2965 41.8967 45.2476 42.4146 45.4089L49.4583 47.7073V40.3013C49.4583 39.7594 49.6734 39.2398 50.0563 38.8566C50.4392 38.4735 50.9585 38.2582 51.5 38.2582C52.0415 38.2582 52.5608 38.4735 52.9437 38.8566C53.3266 39.2398 53.5417 39.7594 53.5417 40.3013V47.7073L60.5854 45.4089C61.1033 45.2476 61.6637 45.2965 62.1459 45.5449C62.628 45.7933 62.9933 46.2214 63.163 46.7368C63.3234 47.2516 63.2738 47.8089 63.0252 48.2873C62.7766 48.7657 62.3491 49.1263 61.8359 49.2906Z" fill="white"/>
<path d="M113.522 57.932C114.519 57.932 115.245 57.7633 115.7 57.426C116.155 57.0887 116.382 56.612 116.382 55.996C116.382 55.6293 116.301 55.314 116.14 55.05C115.993 54.786 115.773 54.5513 115.48 54.346C115.201 54.126 114.857 53.928 114.446 53.752C114.035 53.5613 113.566 53.378 113.038 53.202C112.51 53.0113 111.997 52.806 111.498 52.586C111.014 52.3513 110.581 52.0653 110.2 51.728C109.833 51.3907 109.533 50.9873 109.298 50.518C109.078 50.0487 108.968 49.484 108.968 48.824C108.968 47.4453 109.445 46.3673 110.398 45.59C111.351 44.798 112.649 44.402 114.292 44.402C115.245 44.402 116.089 44.512 116.822 44.732C117.57 44.9373 118.157 45.1647 118.582 45.414L117.724 47.658C117.225 47.3793 116.675 47.1667 116.074 47.02C115.487 46.8733 114.879 46.8 114.248 46.8C113.5 46.8 112.913 46.954 112.488 47.262C112.077 47.57 111.872 48.0027 111.872 48.56C111.872 48.8973 111.938 49.1907 112.07 49.44C112.217 49.6747 112.415 49.8873 112.664 50.078C112.928 50.2687 113.229 50.4447 113.566 50.606C113.918 50.7673 114.299 50.9213 114.71 51.068C115.429 51.332 116.067 51.6033 116.624 51.882C117.196 52.146 117.673 52.4687 118.054 52.85C118.45 53.2167 118.751 53.6567 118.956 54.17C119.161 54.6687 119.264 55.2773 119.264 55.996C119.264 57.3747 118.773 58.4453 117.79 59.208C116.822 59.956 115.399 60.33 113.522 60.33C112.891 60.33 112.312 60.286 111.784 60.198C111.271 60.1247 110.809 60.0293 110.398 59.912C110.002 59.7947 109.657 59.6773 109.364 59.56C109.071 59.428 108.836 59.3107 108.66 59.208L109.474 56.942C109.87 57.162 110.405 57.382 111.08 57.602C111.755 57.822 112.569 57.932 113.522 57.932ZM125.623 58.13C126.444 58.13 127.068 58.086 127.493 57.998V55.05C127.346 55.006 127.134 54.962 126.855 54.918C126.576 54.874 126.268 54.852 125.931 54.852C125.638 54.852 125.337 54.874 125.029 54.918C124.736 54.962 124.464 55.0427 124.215 55.16C123.98 55.2773 123.79 55.446 123.643 55.666C123.496 55.8713 123.423 56.1353 123.423 56.458C123.423 57.0887 123.621 57.5287 124.017 57.778C124.413 58.0127 124.948 58.13 125.623 58.13ZM125.403 48.208C126.283 48.208 127.024 48.318 127.625 48.538C128.226 48.758 128.703 49.066 129.055 49.462C129.422 49.858 129.678 50.342 129.825 50.914C129.986 51.4713 130.067 52.0873 130.067 52.762V59.736C129.656 59.824 129.033 59.9267 128.197 60.044C127.376 60.176 126.444 60.242 125.403 60.242C124.714 60.242 124.083 60.176 123.511 60.044C122.939 59.912 122.448 59.6993 122.037 59.406C121.641 59.1127 121.326 58.7313 121.091 58.262C120.871 57.7927 120.761 57.2133 120.761 56.524C120.761 55.864 120.886 55.3067 121.135 54.852C121.399 54.3973 121.751 54.0307 122.191 53.752C122.631 53.4587 123.137 53.2533 123.709 53.136C124.296 53.004 124.904 52.938 125.535 52.938C125.828 52.938 126.136 52.96 126.459 53.004C126.782 53.0333 127.126 53.092 127.493 53.18V52.74C127.493 52.432 127.456 52.1387 127.383 51.86C127.31 51.5813 127.178 51.3393 126.987 51.134C126.811 50.914 126.569 50.7453 126.261 50.628C125.968 50.5107 125.594 50.452 125.139 50.452C124.523 50.452 123.958 50.496 123.445 50.584C122.932 50.672 122.514 50.7747 122.191 50.892L121.861 48.736C122.198 48.6187 122.69 48.5013 123.335 48.384C123.98 48.2667 124.67 48.208 125.403 48.208ZM138.013 42.928C138.629 42.928 139.171 42.9867 139.641 43.104C140.11 43.2067 140.462 43.302 140.697 43.39L140.191 45.59C139.941 45.4727 139.648 45.3773 139.311 45.304C138.988 45.2307 138.636 45.194 138.255 45.194C137.829 45.194 137.47 45.26 137.177 45.392C136.883 45.5093 136.649 45.678 136.473 45.898C136.297 46.118 136.172 46.3893 136.099 46.712C136.025 47.02 135.989 47.3573 135.989 47.724V48.494H140.169V50.716H135.989V60H133.327V47.68C133.327 46.1987 133.715 45.04 134.493 44.204C135.27 43.3533 136.443 42.928 138.013 42.928ZM141.283 54.302C141.283 53.29 141.429 52.4027 141.723 51.64C142.031 50.8773 142.434 50.2467 142.933 49.748C143.431 49.2347 144.003 48.8533 144.649 48.604C145.294 48.34 145.954 48.208 146.629 48.208C148.213 48.208 149.445 48.6993 150.325 49.682C151.219 50.6647 151.667 52.1313 151.667 54.082C151.667 54.2287 151.659 54.3973 151.645 54.588C151.645 54.764 151.637 54.9253 151.623 55.072H144.033C144.106 55.996 144.429 56.7147 145.001 57.228C145.587 57.7267 146.431 57.976 147.531 57.976C148.176 57.976 148.763 57.9173 149.291 57.8C149.833 57.6827 150.259 57.558 150.567 57.426L150.919 59.604C150.772 59.6773 150.567 59.758 150.303 59.846C150.053 59.9193 149.76 59.9853 149.423 60.044C149.1 60.1173 148.748 60.176 148.367 60.22C147.985 60.264 147.597 60.286 147.201 60.286C146.189 60.286 145.309 60.1393 144.561 59.846C143.813 59.538 143.197 59.12 142.713 58.592C142.229 58.0493 141.869 57.4187 141.635 56.7C141.4 55.9667 141.283 55.1673 141.283 54.302ZM149.005 53.114C149.005 52.7473 148.953 52.4027 148.851 52.08C148.748 51.7427 148.594 51.4567 148.389 51.222C148.198 50.9727 147.956 50.782 147.663 50.65C147.384 50.5033 147.047 50.43 146.651 50.43C146.24 50.43 145.881 50.5107 145.573 50.672C145.265 50.8187 145.001 51.0167 144.781 51.266C144.575 51.5153 144.414 51.8013 144.297 52.124C144.179 52.4467 144.099 52.7767 144.055 53.114H149.005ZM158.876 55.952C158.876 55.3947 158.956 54.8887 159.118 54.434C159.294 53.9793 159.521 53.5687 159.8 53.202C160.093 52.8353 160.423 52.5127 160.79 52.234C161.171 51.9553 161.567 51.706 161.978 51.486C161.538 51.0167 161.178 50.518 160.9 49.99C160.636 49.462 160.504 48.9047 160.504 48.318C160.504 47.086 160.878 46.1253 161.626 45.436C162.388 44.7467 163.386 44.402 164.618 44.402C165.248 44.402 165.806 44.49 166.29 44.666C166.788 44.842 167.199 45.084 167.522 45.392C167.844 45.7 168.086 46.0667 168.248 46.492C168.424 46.9027 168.512 47.3427 168.512 47.812C168.512 48.2813 168.431 48.7213 168.27 49.132C168.123 49.5427 167.918 49.924 167.654 50.276C167.39 50.6133 167.082 50.9287 166.73 51.222C166.392 51.5007 166.026 51.75 165.63 51.97L168.644 55.006C168.849 54.6247 169.018 54.1993 169.15 53.73C169.282 53.246 169.384 52.7767 169.458 52.322L171.68 52.608C171.606 53.1947 171.452 53.8473 171.218 54.566C170.983 55.27 170.675 55.9447 170.294 56.59C170.778 57.1327 171.24 57.6973 171.68 58.284C172.134 58.856 172.508 59.428 172.802 60H170.03C169.883 59.7507 169.692 59.4793 169.458 59.186C169.238 58.8927 169.003 58.6213 168.754 58.372C168.152 58.9147 167.463 59.3547 166.686 59.692C165.908 60.0293 165.028 60.198 164.046 60.198C163.063 60.198 162.242 60.066 161.582 59.802C160.922 59.538 160.386 59.2007 159.976 58.79C159.58 58.3793 159.294 57.9247 159.118 57.426C158.956 56.9273 158.876 56.436 158.876 55.952ZM161.428 55.776C161.428 56.0253 161.472 56.282 161.56 56.546C161.662 56.81 161.816 57.0593 162.022 57.294C162.242 57.514 162.52 57.6973 162.858 57.844C163.21 57.9907 163.628 58.064 164.112 58.064C164.772 58.064 165.366 57.9613 165.894 57.756C166.436 57.5507 166.898 57.2573 167.28 56.876L163.408 52.938C163.188 53.0553 162.96 53.1947 162.726 53.356C162.491 53.5173 162.278 53.7153 162.088 53.95C161.897 54.17 161.736 54.434 161.604 54.742C161.486 55.0353 161.428 55.38 161.428 55.776ZM166.202 47.922C166.202 47.4967 166.062 47.1373 165.784 46.844C165.505 46.536 165.102 46.382 164.574 46.382C164.016 46.382 163.591 46.5507 163.298 46.888C163.004 47.2253 162.858 47.6507 162.858 48.164C162.858 48.5893 162.975 49.0147 163.21 49.44C163.444 49.8507 163.767 50.2467 164.178 50.628C164.456 50.4813 164.713 50.32 164.948 50.144C165.197 49.968 165.41 49.77 165.586 49.55C165.776 49.33 165.923 49.088 166.026 48.824C166.143 48.56 166.202 48.2593 166.202 47.922ZM183.626 57.932C184.623 57.932 185.349 57.7633 185.804 57.426C186.258 57.0887 186.486 56.612 186.486 55.996C186.486 55.6293 186.405 55.314 186.244 55.05C186.097 54.786 185.877 54.5513 185.584 54.346C185.305 54.126 184.96 53.928 184.55 53.752C184.139 53.5613 183.67 53.378 183.142 53.202C182.614 53.0113 182.1 52.806 181.602 52.586C181.118 52.3513 180.685 52.0653 180.304 51.728C179.937 51.3907 179.636 50.9873 179.402 50.518C179.182 50.0487 179.072 49.484 179.072 48.824C179.072 47.4453 179.548 46.3673 180.502 45.59C181.455 44.798 182.753 44.402 184.396 44.402C185.349 44.402 186.192 44.512 186.926 44.732C187.674 44.9373 188.26 45.1647 188.686 45.414L187.828 47.658C187.329 47.3793 186.779 47.1667 186.178 47.02C185.591 46.8733 184.982 46.8 184.352 46.8C183.604 46.8 183.017 46.954 182.592 47.262C182.181 47.57 181.976 48.0027 181.976 48.56C181.976 48.8973 182.042 49.1907 182.174 49.44C182.32 49.6747 182.518 49.8873 182.768 50.078C183.032 50.2687 183.332 50.4447 183.67 50.606C184.022 50.7673 184.403 50.9213 184.814 51.068C185.532 51.332 186.17 51.6033 186.728 51.882C187.3 52.146 187.776 52.4687 188.158 52.85C188.554 53.2167 188.854 53.6567 189.06 54.17C189.265 54.6687 189.368 55.2773 189.368 55.996C189.368 57.3747 188.876 58.4453 187.894 59.208C186.926 59.956 185.503 60.33 183.626 60.33C182.995 60.33 182.416 60.286 181.888 60.198C181.374 60.1247 180.912 60.0293 180.502 59.912C180.106 59.7947 179.761 59.6773 179.468 59.56C179.174 59.428 178.94 59.3107 178.764 59.208L179.578 56.942C179.974 57.162 180.509 57.382 181.184 57.602C181.858 57.822 182.672 57.932 183.626 57.932ZM191.04 54.302C191.04 53.29 191.187 52.4027 191.48 51.64C191.788 50.8773 192.192 50.2467 192.69 49.748C193.189 49.2347 193.761 48.8533 194.406 48.604C195.052 48.34 195.712 48.208 196.386 48.208C197.97 48.208 199.202 48.6993 200.082 49.682C200.977 50.6647 201.424 52.1313 201.424 54.082C201.424 54.2287 201.417 54.3973 201.402 54.588C201.402 54.764 201.395 54.9253 201.38 55.072H193.79C193.864 55.996 194.186 56.7147 194.758 57.228C195.345 57.7267 196.188 57.976 197.288 57.976C197.934 57.976 198.52 57.9173 199.048 57.8C199.591 57.6827 200.016 57.558 200.324 57.426L200.676 59.604C200.53 59.6773 200.324 59.758 200.06 59.846C199.811 59.9193 199.518 59.9853 199.18 60.044C198.858 60.1173 198.506 60.176 198.124 60.22C197.743 60.264 197.354 60.286 196.958 60.286C195.946 60.286 195.066 60.1393 194.318 59.846C193.57 59.538 192.954 59.12 192.47 58.592C191.986 58.0493 191.627 57.4187 191.392 56.7C191.158 55.9667 191.04 55.1673 191.04 54.302ZM198.762 53.114C198.762 52.7473 198.711 52.4027 198.608 52.08C198.506 51.7427 198.352 51.4567 198.146 51.222C197.956 50.9727 197.714 50.782 197.42 50.65C197.142 50.5033 196.804 50.43 196.408 50.43C195.998 50.43 195.638 50.5107 195.33 50.672C195.022 50.8187 194.758 51.0167 194.538 51.266C194.333 51.5153 194.172 51.8013 194.054 52.124C193.937 52.4467 193.856 52.7767 193.812 53.114H198.762ZM203.609 54.258C203.609 53.4073 203.741 52.6153 204.005 51.882C204.269 51.134 204.643 50.4887 205.127 49.946C205.625 49.4033 206.227 48.978 206.931 48.67C207.635 48.362 208.427 48.208 209.307 48.208C210.392 48.208 211.419 48.406 212.387 48.802L211.815 50.98C211.507 50.848 211.155 50.738 210.759 50.65C210.377 50.562 209.967 50.518 209.527 50.518C208.485 50.518 207.693 50.848 207.151 51.508C206.608 52.1533 206.337 53.07 206.337 54.258C206.337 55.402 206.593 56.3113 207.107 56.986C207.62 57.646 208.485 57.976 209.703 57.976C210.157 57.976 210.605 57.932 211.045 57.844C211.485 57.756 211.866 57.646 212.189 57.514L212.563 59.714C212.269 59.8607 211.822 59.9927 211.221 60.11C210.634 60.2273 210.025 60.286 209.395 60.286C208.412 60.286 207.554 60.1393 206.821 59.846C206.102 59.538 205.501 59.12 205.017 58.592C204.547 58.0493 204.195 57.4113 203.961 56.678C203.726 55.93 203.609 55.1233 203.609 54.258ZM224.062 59.648C223.548 59.78 222.881 59.912 222.06 60.044C221.238 60.1907 220.336 60.264 219.354 60.264C218.43 60.264 217.652 60.132 217.022 59.868C216.406 59.604 215.907 59.2373 215.526 58.768C215.159 58.2987 214.895 57.7413 214.734 57.096C214.572 56.436 214.492 55.7173 214.492 54.94V48.494H217.154V54.522C217.154 55.754 217.33 56.634 217.682 57.162C218.048 57.69 218.679 57.954 219.574 57.954C219.896 57.954 220.234 57.9393 220.586 57.91C220.952 57.8807 221.224 57.844 221.4 57.8V48.494H224.062V59.648ZM234.006 50.892C233.786 50.8187 233.478 50.7453 233.082 50.672C232.701 50.584 232.253 50.54 231.74 50.54C231.447 50.54 231.131 50.5693 230.794 50.628C230.471 50.6867 230.244 50.738 230.112 50.782V60H227.45V49.044C227.963 48.8533 228.601 48.6773 229.364 48.516C230.141 48.34 230.999 48.252 231.938 48.252C232.114 48.252 232.319 48.2667 232.554 48.296C232.789 48.3107 233.023 48.34 233.258 48.384C233.493 48.4133 233.72 48.4573 233.94 48.516C234.16 48.56 234.336 48.604 234.468 48.648L234.006 50.892ZM235.685 54.302C235.685 53.29 235.832 52.4027 236.125 51.64C236.433 50.8773 236.836 50.2467 237.335 49.748C237.834 49.2347 238.406 48.8533 239.051 48.604C239.696 48.34 240.356 48.208 241.031 48.208C242.615 48.208 243.847 48.6993 244.727 49.682C245.622 50.6647 246.069 52.1313 246.069 54.082C246.069 54.2287 246.062 54.3973 246.047 54.588C246.047 54.764 246.04 54.9253 246.025 55.072H238.435C238.508 55.996 238.831 56.7147 239.403 57.228C239.99 57.7267 240.833 57.976 241.933 57.976C242.578 57.976 243.165 57.9173 243.693 57.8C244.236 57.6827 244.661 57.558 244.969 57.426L245.321 59.604C245.174 59.6773 244.969 59.758 244.705 59.846C244.456 59.9193 244.162 59.9853 243.825 60.044C243.502 60.1173 243.15 60.176 242.769 60.22C242.388 60.264 241.999 60.286 241.603 60.286C240.591 60.286 239.711 60.1393 238.963 59.846C238.215 59.538 237.599 59.12 237.115 58.592C236.631 58.0493 236.272 57.4187 236.037 56.7C235.802 55.9667 235.685 55.1673 235.685 54.302ZM243.407 53.114C243.407 52.7473 243.356 52.4027 243.253 52.08C243.15 51.7427 242.996 51.4567 242.791 51.222C242.6 50.9727 242.358 50.782 242.065 50.65C241.786 50.5033 241.449 50.43 241.053 50.43C240.642 50.43 240.283 50.5107 239.975 50.672C239.667 50.8187 239.403 51.0167 239.183 51.266C238.978 51.5153 238.816 51.8013 238.699 52.124C238.582 52.4467 238.501 52.7767 238.457 53.114H243.407Z" fill="white"/>
<path d="M104.826 203V187.754H114.616V190.108H107.598V193.87H113.846V196.18H107.598V200.646H115.144V203H104.826ZM122.271 185.928C122.887 185.928 123.429 185.987 123.899 186.104C124.368 186.207 124.72 186.302 124.955 186.39L124.449 188.59C124.199 188.473 123.906 188.377 123.569 188.304C123.246 188.231 122.894 188.194 122.513 188.194C122.087 188.194 121.728 188.26 121.435 188.392C121.141 188.509 120.907 188.678 120.731 188.898C120.555 189.118 120.43 189.389 120.357 189.712C120.283 190.02 120.247 190.357 120.247 190.724V191.494H124.427V193.716H120.247V203H117.585V190.68C117.585 189.199 117.973 188.04 118.751 187.204C119.528 186.353 120.701 185.928 122.271 185.928ZM138.023 203H135.361V191.494H138.023V203ZM138.331 188.128C138.331 188.627 138.169 189.023 137.847 189.316C137.524 189.609 137.143 189.756 136.703 189.756C136.248 189.756 135.859 189.609 135.537 189.316C135.214 189.023 135.053 188.627 135.053 188.128C135.053 187.615 135.214 187.211 135.537 186.918C135.859 186.625 136.248 186.478 136.703 186.478C137.143 186.478 137.524 186.625 137.847 186.918C138.169 187.211 138.331 187.615 138.331 188.128ZM131.203 185.928C131.76 185.928 132.229 185.972 132.611 186.06C133.007 186.148 133.315 186.236 133.535 186.324L133.117 188.48C132.911 188.407 132.662 188.341 132.369 188.282C132.09 188.223 131.782 188.194 131.445 188.194C130.565 188.194 129.956 188.429 129.619 188.898C129.296 189.367 129.135 189.976 129.135 190.724V191.494H133.359V193.716H129.135V203H126.473V190.68C126.473 189.184 126.861 188.018 127.639 187.182C128.416 186.346 129.604 185.928 131.203 185.928ZM140.794 197.258C140.794 196.407 140.926 195.615 141.19 194.882C141.454 194.134 141.828 193.489 142.312 192.946C142.811 192.403 143.412 191.978 144.116 191.67C144.82 191.362 145.612 191.208 146.492 191.208C147.578 191.208 148.604 191.406 149.572 191.802L149 193.98C148.692 193.848 148.34 193.738 147.944 193.65C147.563 193.562 147.152 193.518 146.712 193.518C145.671 193.518 144.879 193.848 144.336 194.508C143.794 195.153 143.522 196.07 143.522 197.258C143.522 198.402 143.779 199.311 144.292 199.986C144.806 200.646 145.671 200.976 146.888 200.976C147.343 200.976 147.79 200.932 148.23 200.844C148.67 200.756 149.052 200.646 149.374 200.514L149.748 202.714C149.455 202.861 149.008 202.993 148.406 203.11C147.82 203.227 147.211 203.286 146.58 203.286C145.598 203.286 144.74 203.139 144.006 202.846C143.288 202.538 142.686 202.12 142.202 201.592C141.733 201.049 141.381 200.411 141.146 199.678C140.912 198.93 140.794 198.123 140.794 197.258ZM154.493 203H151.831V191.494H154.493V203ZM154.779 188.128C154.779 188.627 154.618 189.023 154.295 189.316C153.973 189.609 153.591 189.756 153.151 189.756C152.697 189.756 152.308 189.609 151.985 189.316C151.663 189.023 151.501 188.627 151.501 188.128C151.501 187.615 151.663 187.211 151.985 186.918C152.308 186.625 152.697 186.478 153.151 186.478C153.591 186.478 153.973 186.625 154.295 186.918C154.618 187.211 154.779 187.615 154.779 188.128ZM157.251 197.302C157.251 196.29 157.398 195.403 157.691 194.64C157.999 193.877 158.403 193.247 158.901 192.748C159.4 192.235 159.972 191.853 160.617 191.604C161.263 191.34 161.923 191.208 162.597 191.208C164.181 191.208 165.413 191.699 166.293 192.682C167.188 193.665 167.635 195.131 167.635 197.082C167.635 197.229 167.628 197.397 167.613 197.588C167.613 197.764 167.606 197.925 167.591 198.072H160.001C160.075 198.996 160.397 199.715 160.969 200.228C161.556 200.727 162.399 200.976 163.499 200.976C164.145 200.976 164.731 200.917 165.259 200.8C165.802 200.683 166.227 200.558 166.535 200.426L166.887 202.604C166.741 202.677 166.535 202.758 166.271 202.846C166.022 202.919 165.729 202.985 165.391 203.044C165.069 203.117 164.717 203.176 164.335 203.22C163.954 203.264 163.565 203.286 163.169 203.286C162.157 203.286 161.277 203.139 160.529 202.846C159.781 202.538 159.165 202.12 158.681 201.592C158.197 201.049 157.838 200.419 157.603 199.7C157.369 198.967 157.251 198.167 157.251 197.302ZM164.973 196.114C164.973 195.747 164.922 195.403 164.819 195.08C164.717 194.743 164.563 194.457 164.357 194.222C164.167 193.973 163.925 193.782 163.631 193.65C163.353 193.503 163.015 193.43 162.619 193.43C162.209 193.43 161.849 193.511 161.541 193.672C161.233 193.819 160.969 194.017 160.749 194.266C160.544 194.515 160.383 194.801 160.265 195.124C160.148 195.447 160.067 195.777 160.023 196.114H164.973ZM170.458 191.868C170.971 191.721 171.638 191.582 172.46 191.45C173.281 191.318 174.19 191.252 175.188 191.252C176.126 191.252 176.911 191.384 177.542 191.648C178.172 191.897 178.671 192.257 179.038 192.726C179.419 193.181 179.683 193.738 179.83 194.398C179.991 195.043 180.072 195.755 180.072 196.532V203H177.41V196.95C177.41 196.334 177.366 195.813 177.278 195.388C177.204 194.948 177.072 194.596 176.882 194.332C176.706 194.053 176.456 193.855 176.134 193.738C175.826 193.606 175.444 193.54 174.99 193.54C174.652 193.54 174.3 193.562 173.934 193.606C173.567 193.65 173.296 193.687 173.12 193.716V203H170.458V191.868ZM183.195 188.458L185.857 188.018V191.494H189.949V193.716H185.857V198.402C185.857 199.326 186.003 199.986 186.297 200.382C186.59 200.778 187.089 200.976 187.793 200.976C188.277 200.976 188.702 200.925 189.069 200.822C189.45 200.719 189.751 200.624 189.971 200.536L190.411 202.648C190.103 202.78 189.699 202.912 189.201 203.044C188.702 203.191 188.115 203.264 187.441 203.264C186.619 203.264 185.93 203.154 185.373 202.934C184.83 202.714 184.397 202.399 184.075 201.988C183.752 201.563 183.525 201.057 183.393 200.47C183.261 199.869 183.195 199.187 183.195 198.424V188.458ZM207.909 203C207.704 202.399 207.491 201.805 207.271 201.218C207.051 200.631 206.838 200.03 206.633 199.414H200.209C200.004 200.03 199.791 200.639 199.571 201.24C199.366 201.827 199.16 202.413 198.955 203H196.073C196.645 201.372 197.188 199.869 197.701 198.49C198.214 197.111 198.713 195.806 199.197 194.574C199.696 193.342 200.187 192.169 200.671 191.054C201.155 189.939 201.654 188.839 202.167 187.754H204.785C205.298 188.839 205.797 189.939 206.281 191.054C206.765 192.169 207.249 193.342 207.733 194.574C208.232 195.806 208.738 197.111 209.251 198.49C209.779 199.869 210.329 201.372 210.901 203H207.909ZM203.421 190.702C203.084 191.479 202.695 192.425 202.255 193.54C201.83 194.655 201.382 195.865 200.913 197.17H205.929C205.46 195.865 205.005 194.647 204.565 193.518C204.125 192.389 203.744 191.45 203.421 190.702ZM212.828 187.754H215.6V203H212.828V187.754ZM235.013 187.754V190.152H230.327V203H227.533V190.152H222.847V187.754H235.013ZM246.198 197.236C246.198 198.145 246.066 198.974 245.802 199.722C245.538 200.47 245.164 201.108 244.68 201.636C244.196 202.164 243.609 202.575 242.92 202.868C242.245 203.161 241.497 203.308 240.676 203.308C239.854 203.308 239.106 203.161 238.432 202.868C237.757 202.575 237.178 202.164 236.694 201.636C236.21 201.108 235.828 200.47 235.55 199.722C235.286 198.974 235.154 198.145 235.154 197.236C235.154 196.327 235.286 195.505 235.55 194.772C235.828 194.024 236.21 193.386 236.694 192.858C237.192 192.33 237.779 191.927 238.454 191.648C239.128 191.355 239.869 191.208 240.676 191.208C241.482 191.208 242.223 191.355 242.898 191.648C243.587 191.927 244.174 192.33 244.658 192.858C245.142 193.386 245.516 194.024 245.78 194.772C246.058 195.505 246.198 196.327 246.198 197.236ZM243.47 197.236C243.47 196.092 243.22 195.19 242.722 194.53C242.238 193.855 241.556 193.518 240.676 193.518C239.796 193.518 239.106 193.855 238.608 194.53C238.124 195.19 237.882 196.092 237.882 197.236C237.882 198.395 238.124 199.311 238.608 199.986C239.106 200.661 239.796 200.998 240.676 200.998C241.556 200.998 242.238 200.661 242.722 199.986C243.22 199.311 243.47 198.395 243.47 197.236ZM259.346 197.236C259.346 198.145 259.214 198.974 258.95 199.722C258.686 200.47 258.312 201.108 257.828 201.636C257.344 202.164 256.757 202.575 256.068 202.868C255.393 203.161 254.645 203.308 253.824 203.308C253.003 203.308 252.255 203.161 251.58 202.868C250.905 202.575 250.326 202.164 249.842 201.636C249.358 201.108 248.977 200.47 248.698 199.722C248.434 198.974 248.302 198.145 248.302 197.236C248.302 196.327 248.434 195.505 248.698 194.772C248.977 194.024 249.358 193.386 249.842 192.858C250.341 192.33 250.927 191.927 251.602 191.648C252.277 191.355 253.017 191.208 253.824 191.208C254.631 191.208 255.371 191.355 256.046 191.648C256.735 191.927 257.322 192.33 257.806 192.858C258.29 193.386 258.664 194.024 258.928 194.772C259.207 195.505 259.346 196.327 259.346 197.236ZM256.618 197.236C256.618 196.092 256.369 195.19 255.87 194.53C255.386 193.855 254.704 193.518 253.824 193.518C252.944 193.518 252.255 193.855 251.756 194.53C251.272 195.19 251.03 196.092 251.03 197.236C251.03 198.395 251.272 199.311 251.756 199.986C252.255 200.661 252.944 200.998 253.824 200.998C254.704 200.998 255.386 200.661 255.87 199.986C256.369 199.311 256.618 198.395 256.618 197.236ZM266.093 203.22C265.301 203.205 264.641 203.117 264.113 202.956C263.599 202.795 263.189 202.567 262.881 202.274C262.573 201.966 262.353 201.592 262.221 201.152C262.103 200.697 262.045 200.184 262.045 199.612V186.368L264.707 185.928V199.106C264.707 199.429 264.729 199.7 264.773 199.92C264.831 200.14 264.927 200.331 265.059 200.492C265.191 200.639 265.367 200.756 265.587 200.844C265.821 200.917 266.115 200.976 266.467 201.02L266.093 203.22Z" fill="white"/>
<rect x="427" y="80" width="18" height="33" rx="4" fill="white"/>
<rect x="450" y="65" width="20" height="48" rx="4" fill="white"/>
<rect x="475" y="47" width="18" height="66" rx="4" fill="white"/>
<circle cx="438" cy="50" r="9" fill="#002469"/>
<path fill-rule="evenodd" clip-rule="evenodd" d="M436.73 46.2753L441.301 47.4184C441.582 47.4886 441.745 47.7708 441.665 48.0488L440.37 52.579C440.29 52.857 439.998 53.0255 439.718 52.9554C439.437 52.8852 439.274 52.603 439.354 52.325L440.302 49.01L435.1 52.0133C434.854 52.1554 434.539 52.0711 434.397 51.8249C434.255 51.5787 434.339 51.2639 434.585 51.1218L439.787 48.1185L436.442 47.2821C436.162 47.2119 435.999 46.9297 436.078 46.6517C436.158 46.3737 436.45 46.2052 436.73 46.2753Z" fill="white"/>
<path d="M415.932 163.6C418.132 163.6 419.812 164.003 420.97 164.81C422.144 165.617 422.73 166.849 422.73 168.506C422.73 170.574 421.711 171.975 419.672 172.708C419.951 173.045 420.266 173.456 420.618 173.94C420.97 174.424 421.33 174.952 421.696 175.524C422.063 176.081 422.415 176.661 422.752 177.262C423.09 177.849 423.39 178.428 423.654 179H420.552C420.274 178.472 419.973 177.944 419.65 177.416C419.328 176.873 418.998 176.353 418.66 175.854C418.338 175.341 418.015 174.864 417.692 174.424C417.37 173.969 417.069 173.566 416.79 173.214C416.585 173.229 416.409 173.236 416.262 173.236C416.116 173.236 415.976 173.236 415.844 173.236H414.502V179H411.73V163.974C412.405 163.827 413.124 163.732 413.886 163.688C414.649 163.629 415.331 163.6 415.932 163.6ZM416.13 165.998C415.544 165.998 415.001 166.02 414.502 166.064V170.992H415.712C416.387 170.992 416.981 170.955 417.494 170.882C418.008 170.809 418.433 170.677 418.77 170.486C419.122 170.295 419.386 170.039 419.562 169.716C419.738 169.393 419.826 168.983 419.826 168.484C419.826 168.015 419.738 167.619 419.562 167.296C419.386 166.973 419.13 166.717 418.792 166.526C418.47 166.335 418.081 166.203 417.626 166.13C417.172 166.042 416.673 165.998 416.13 165.998ZM425.033 173.302C425.033 172.29 425.179 171.403 425.473 170.64C425.781 169.877 426.184 169.247 426.683 168.748C427.181 168.235 427.753 167.853 428.399 167.604C429.044 167.34 429.704 167.208 430.379 167.208C431.963 167.208 433.195 167.699 434.075 168.682C434.969 169.665 435.417 171.131 435.417 173.082C435.417 173.229 435.409 173.397 435.395 173.588C435.395 173.764 435.387 173.925 435.373 174.072H427.783C427.856 174.996 428.179 175.715 428.751 176.228C429.337 176.727 430.181 176.976 431.281 176.976C431.926 176.976 432.513 176.917 433.041 176.8C433.583 176.683 434.009 176.558 434.317 176.426L434.669 178.604C434.522 178.677 434.317 178.758 434.053 178.846C433.803 178.919 433.51 178.985 433.173 179.044C432.85 179.117 432.498 179.176 432.117 179.22C431.735 179.264 431.347 179.286 430.951 179.286C429.939 179.286 429.059 179.139 428.311 178.846C427.563 178.538 426.947 178.12 426.463 177.592C425.979 177.049 425.619 176.419 425.385 175.7C425.15 174.967 425.033 174.167 425.033 173.302ZM432.755 172.114C432.755 171.747 432.703 171.403 432.601 171.08C432.498 170.743 432.344 170.457 432.139 170.222C431.948 169.973 431.706 169.782 431.413 169.65C431.134 169.503 430.797 169.43 430.401 169.43C429.99 169.43 429.631 169.511 429.323 169.672C429.015 169.819 428.751 170.017 428.531 170.266C428.325 170.515 428.164 170.801 428.047 171.124C427.929 171.447 427.849 171.777 427.805 172.114H432.755ZM445.873 173.302C445.873 172.114 445.602 171.19 445.059 170.53C444.531 169.87 443.673 169.54 442.485 169.54C442.236 169.54 441.972 169.555 441.693 169.584C441.429 169.599 441.165 169.643 440.901 169.716V176.294C441.136 176.455 441.444 176.609 441.825 176.756C442.221 176.888 442.639 176.954 443.079 176.954C444.047 176.954 444.751 176.624 445.191 175.964C445.646 175.304 445.873 174.417 445.873 173.302ZM448.601 173.258C448.601 174.138 448.484 174.945 448.249 175.678C448.029 176.411 447.706 177.042 447.281 177.57C446.856 178.098 446.32 178.509 445.675 178.802C445.044 179.095 444.326 179.242 443.519 179.242C442.976 179.242 442.478 179.176 442.023 179.044C441.568 178.912 441.194 178.765 440.901 178.604V183.07H438.239V167.868C438.782 167.721 439.449 167.582 440.241 167.45C441.033 167.318 441.869 167.252 442.749 167.252C443.658 167.252 444.472 167.391 445.191 167.67C445.91 167.949 446.518 168.352 447.017 168.88C447.53 169.393 447.919 170.024 448.183 170.772C448.462 171.505 448.601 172.334 448.601 173.258ZM461.75 173.236C461.75 174.145 461.618 174.974 461.354 175.722C461.09 176.47 460.716 177.108 460.232 177.636C459.748 178.164 459.162 178.575 458.472 178.868C457.798 179.161 457.05 179.308 456.228 179.308C455.407 179.308 454.659 179.161 453.984 178.868C453.31 178.575 452.73 178.164 452.246 177.636C451.762 177.108 451.381 176.47 451.102 175.722C450.838 174.974 450.706 174.145 450.706 173.236C450.706 172.327 450.838 171.505 451.102 170.772C451.381 170.024 451.762 169.386 452.246 168.858C452.745 168.33 453.332 167.927 454.006 167.648C454.681 167.355 455.422 167.208 456.228 167.208C457.035 167.208 457.776 167.355 458.45 167.648C459.14 167.927 459.726 168.33 460.21 168.858C460.694 169.386 461.068 170.024 461.332 170.772C461.611 171.505 461.75 172.327 461.75 173.236ZM459.022 173.236C459.022 172.092 458.773 171.19 458.274 170.53C457.79 169.855 457.108 169.518 456.228 169.518C455.348 169.518 454.659 169.855 454.16 170.53C453.676 171.19 453.434 172.092 453.434 173.236C453.434 174.395 453.676 175.311 454.16 175.986C454.659 176.661 455.348 176.998 456.228 176.998C457.108 176.998 457.79 176.661 458.274 175.986C458.773 175.311 459.022 174.395 459.022 173.236ZM471.049 169.892C470.829 169.819 470.521 169.745 470.125 169.672C469.743 169.584 469.296 169.54 468.783 169.54C468.489 169.54 468.174 169.569 467.837 169.628C467.514 169.687 467.287 169.738 467.155 169.782V179H464.493V168.044C465.006 167.853 465.644 167.677 466.407 167.516C467.184 167.34 468.042 167.252 468.981 167.252C469.157 167.252 469.362 167.267 469.597 167.296C469.831 167.311 470.066 167.34 470.301 167.384C470.535 167.413 470.763 167.457 470.983 167.516C471.203 167.56 471.379 167.604 471.511 167.648L471.049 169.892ZM473.234 164.458L475.896 164.018V167.494H479.988V169.716H475.896V174.402C475.896 175.326 476.043 175.986 476.336 176.382C476.629 176.778 477.128 176.976 477.832 176.976C478.316 176.976 478.741 176.925 479.108 176.822C479.489 176.719 479.79 176.624 480.01 176.536L480.45 178.648C480.142 178.78 479.739 178.912 479.24 179.044C478.741 179.191 478.155 179.264 477.48 179.264C476.659 179.264 475.969 179.154 475.412 178.934C474.869 178.714 474.437 178.399 474.114 177.988C473.791 177.563 473.564 177.057 473.432 176.47C473.3 175.869 473.234 175.187 473.234 174.424V164.458ZM485.443 177.086C486.147 177.086 486.661 177.005 486.983 176.844C487.306 176.668 487.467 176.375 487.467 175.964C487.467 175.583 487.291 175.267 486.939 175.018C486.602 174.769 486.037 174.497 485.245 174.204C484.761 174.028 484.314 173.845 483.903 173.654C483.507 173.449 483.163 173.214 482.869 172.95C482.576 172.686 482.341 172.371 482.165 172.004C482.004 171.623 481.923 171.161 481.923 170.618C481.923 169.562 482.312 168.733 483.089 168.132C483.867 167.516 484.923 167.208 486.257 167.208C486.932 167.208 487.577 167.274 488.193 167.406C488.809 167.523 489.271 167.641 489.579 167.758L489.095 169.914C488.802 169.782 488.428 169.665 487.973 169.562C487.519 169.445 486.991 169.386 486.389 169.386C485.847 169.386 485.407 169.481 485.069 169.672C484.732 169.848 484.563 170.127 484.563 170.508C484.563 170.699 484.593 170.867 484.651 171.014C484.725 171.161 484.842 171.3 485.003 171.432C485.165 171.549 485.377 171.674 485.641 171.806C485.905 171.923 486.228 172.048 486.609 172.18C487.24 172.415 487.775 172.649 488.215 172.884C488.655 173.104 489.015 173.361 489.293 173.654C489.587 173.933 489.799 174.255 489.931 174.622C490.063 174.989 490.129 175.429 490.129 175.942C490.129 177.042 489.719 177.878 488.897 178.45C488.091 179.007 486.932 179.286 485.421 179.286C484.409 179.286 483.595 179.198 482.979 179.022C482.363 178.861 481.931 178.729 481.681 178.626L482.143 176.404C482.539 176.565 483.009 176.719 483.551 176.866C484.109 177.013 484.739 177.086 485.443 177.086ZM497.003 174.952C497.003 174.395 497.083 173.889 497.245 173.434C497.421 172.979 497.648 172.569 497.927 172.202C498.22 171.835 498.55 171.513 498.917 171.234C499.298 170.955 499.694 170.706 500.105 170.486C499.665 170.017 499.305 169.518 499.027 168.99C498.763 168.462 498.631 167.905 498.631 167.318C498.631 166.086 499.005 165.125 499.753 164.436C500.515 163.747 501.513 163.402 502.745 163.402C503.375 163.402 503.933 163.49 504.417 163.666C504.915 163.842 505.326 164.084 505.649 164.392C505.971 164.7 506.213 165.067 506.375 165.492C506.551 165.903 506.639 166.343 506.639 166.812C506.639 167.281 506.558 167.721 506.397 168.132C506.25 168.543 506.045 168.924 505.781 169.276C505.517 169.613 505.209 169.929 504.857 170.222C504.519 170.501 504.153 170.75 503.757 170.97L506.771 174.006C506.976 173.625 507.145 173.199 507.277 172.73C507.409 172.246 507.511 171.777 507.585 171.322L509.807 171.608C509.733 172.195 509.579 172.847 509.345 173.566C509.11 174.27 508.802 174.945 508.421 175.59C508.905 176.133 509.367 176.697 509.807 177.284C510.261 177.856 510.635 178.428 510.929 179H508.157C508.01 178.751 507.819 178.479 507.585 178.186C507.365 177.893 507.13 177.621 506.881 177.372C506.279 177.915 505.59 178.355 504.813 178.692C504.035 179.029 503.155 179.198 502.173 179.198C501.19 179.198 500.369 179.066 499.709 178.802C499.049 178.538 498.513 178.201 498.103 177.79C497.707 177.379 497.421 176.925 497.245 176.426C497.083 175.927 497.003 175.436 497.003 174.952ZM499.555 174.776C499.555 175.025 499.599 175.282 499.687 175.546C499.789 175.81 499.943 176.059 500.149 176.294C500.369 176.514 500.647 176.697 500.985 176.844C501.337 176.991 501.755 177.064 502.239 177.064C502.899 177.064 503.493 176.961 504.021 176.756C504.563 176.551 505.025 176.257 505.407 175.876L501.535 171.938C501.315 172.055 501.087 172.195 500.853 172.356C500.618 172.517 500.405 172.715 500.215 172.95C500.024 173.17 499.863 173.434 499.731 173.742C499.613 174.035 499.555 174.38 499.555 174.776ZM504.329 166.922C504.329 166.497 504.189 166.137 503.911 165.844C503.632 165.536 503.229 165.382 502.701 165.382C502.143 165.382 501.718 165.551 501.425 165.888C501.131 166.225 500.985 166.651 500.985 167.164C500.985 167.589 501.102 168.015 501.337 168.44C501.571 168.851 501.894 169.247 502.305 169.628C502.583 169.481 502.84 169.32 503.075 169.144C503.324 168.968 503.537 168.77 503.713 168.55C503.903 168.33 504.05 168.088 504.153 167.824C504.27 167.56 504.329 167.259 504.329 166.922ZM425.793 208C425.587 207.399 425.375 206.805 425.155 206.218C424.935 205.631 424.722 205.03 424.517 204.414H418.093C417.887 205.03 417.675 205.639 417.455 206.24C417.249 206.827 417.044 207.413 416.839 208H413.957C414.529 206.372 415.071 204.869 415.585 203.49C416.098 202.111 416.597 200.806 417.081 199.574C417.579 198.342 418.071 197.169 418.555 196.054C419.039 194.939 419.537 193.839 420.051 192.754H422.669C423.182 193.839 423.681 194.939 424.165 196.054C424.649 197.169 425.133 198.342 425.617 199.574C426.115 200.806 426.621 202.111 427.135 203.49C427.663 204.869 428.213 206.372 428.785 208H425.793ZM421.305 195.702C420.967 196.479 420.579 197.425 420.139 198.54C419.713 199.655 419.266 200.865 418.797 202.17H423.813C423.343 200.865 422.889 199.647 422.449 198.518C422.009 197.389 421.627 196.45 421.305 195.702ZM430.58 196.868C431.093 196.721 431.76 196.582 432.582 196.45C433.403 196.318 434.312 196.252 435.31 196.252C436.248 196.252 437.033 196.384 437.664 196.648C438.294 196.897 438.793 197.257 439.16 197.726C439.541 198.181 439.805 198.738 439.952 199.398C440.113 200.043 440.194 200.755 440.194 201.532V208H437.532V201.95C437.532 201.334 437.488 200.813 437.4 200.388C437.326 199.948 437.194 199.596 437.004 199.332C436.828 199.053 436.578 198.855 436.256 198.738C435.948 198.606 435.566 198.54 435.112 198.54C434.774 198.54 434.422 198.562 434.056 198.606C433.689 198.65 433.418 198.687 433.242 198.716V208H430.58V196.868ZM447.497 206.13C448.318 206.13 448.942 206.086 449.367 205.998V203.05C449.22 203.006 449.008 202.962 448.729 202.918C448.45 202.874 448.142 202.852 447.805 202.852C447.512 202.852 447.211 202.874 446.903 202.918C446.61 202.962 446.338 203.043 446.089 203.16C445.854 203.277 445.664 203.446 445.517 203.666C445.37 203.871 445.297 204.135 445.297 204.458C445.297 205.089 445.495 205.529 445.891 205.778C446.287 206.013 446.822 206.13 447.497 206.13ZM447.277 196.208C448.157 196.208 448.898 196.318 449.499 196.538C450.1 196.758 450.577 197.066 450.929 197.462C451.296 197.858 451.552 198.342 451.699 198.914C451.86 199.471 451.941 200.087 451.941 200.762V207.736C451.53 207.824 450.907 207.927 450.071 208.044C449.25 208.176 448.318 208.242 447.277 208.242C446.588 208.242 445.957 208.176 445.385 208.044C444.813 207.912 444.322 207.699 443.911 207.406C443.515 207.113 443.2 206.731 442.965 206.262C442.745 205.793 442.635 205.213 442.635 204.524C442.635 203.864 442.76 203.307 443.009 202.852C443.273 202.397 443.625 202.031 444.065 201.752C444.505 201.459 445.011 201.253 445.583 201.136C446.17 201.004 446.778 200.938 447.409 200.938C447.702 200.938 448.01 200.96 448.333 201.004C448.656 201.033 449 201.092 449.367 201.18V200.74C449.367 200.432 449.33 200.139 449.257 199.86C449.184 199.581 449.052 199.339 448.861 199.134C448.685 198.914 448.443 198.745 448.135 198.628C447.842 198.511 447.468 198.452 447.013 198.452C446.397 198.452 445.832 198.496 445.319 198.584C444.806 198.672 444.388 198.775 444.065 198.892L443.735 196.736C444.072 196.619 444.564 196.501 445.209 196.384C445.854 196.267 446.544 196.208 447.277 196.208ZM459.205 208.22C458.413 208.205 457.753 208.117 457.225 207.956C456.712 207.795 456.301 207.567 455.993 207.274C455.685 206.966 455.465 206.592 455.333 206.152C455.216 205.697 455.157 205.184 455.157 204.612V191.368L457.819 190.928V204.106C457.819 204.429 457.841 204.7 457.885 204.92C457.944 205.14 458.039 205.331 458.171 205.492C458.303 205.639 458.479 205.756 458.699 205.844C458.934 205.917 459.227 205.976 459.579 206.02L459.205 208.22ZM471.126 196.494C469.938 200.865 468.559 204.825 466.99 208.374C466.697 209.034 466.396 209.599 466.088 210.068C465.78 210.537 465.435 210.926 465.054 211.234C464.673 211.542 464.247 211.762 463.778 211.894C463.309 212.041 462.766 212.114 462.15 212.114C461.739 212.114 461.329 212.07 460.918 211.982C460.522 211.894 460.221 211.799 460.016 211.696L460.5 209.562C461.028 209.767 461.549 209.87 462.062 209.87C462.751 209.87 463.287 209.701 463.668 209.364C464.064 209.041 464.409 208.535 464.702 207.846C463.866 206.233 463.059 204.473 462.282 202.566C461.519 200.659 460.837 198.635 460.236 196.494H463.074C463.221 197.11 463.397 197.777 463.602 198.496C463.822 199.215 464.057 199.948 464.306 200.696C464.555 201.429 464.819 202.163 465.098 202.896C465.377 203.629 465.655 204.311 465.934 204.942C466.403 203.637 466.843 202.251 467.254 200.784C467.665 199.303 468.039 197.873 468.376 196.494H471.126ZM473.008 193.458L475.67 193.018V196.494H479.762V198.716H475.67V203.402C475.67 204.326 475.817 204.986 476.11 205.382C476.404 205.778 476.902 205.976 477.606 205.976C478.09 205.976 478.516 205.925 478.882 205.822C479.264 205.719 479.564 205.624 479.784 205.536L480.224 207.648C479.916 207.78 479.513 207.912 479.014 208.044C478.516 208.191 477.929 208.264 477.254 208.264C476.433 208.264 475.744 208.154 475.186 207.934C474.644 207.714 474.211 207.399 473.888 206.988C473.566 206.563 473.338 206.057 473.206 205.47C473.074 204.869 473.008 204.187 473.008 203.424V193.458ZM485.02 208H482.358V196.494H485.02V208ZM485.306 193.128C485.306 193.627 485.144 194.023 484.822 194.316C484.499 194.609 484.118 194.756 483.678 194.756C483.223 194.756 482.834 194.609 482.512 194.316C482.189 194.023 482.028 193.627 482.028 193.128C482.028 192.615 482.189 192.211 482.512 191.918C482.834 191.625 483.223 191.478 483.678 191.478C484.118 191.478 484.499 191.625 484.822 191.918C485.144 192.211 485.306 192.615 485.306 193.128ZM487.778 202.258C487.778 201.407 487.91 200.615 488.174 199.882C488.438 199.134 488.812 198.489 489.296 197.946C489.794 197.403 490.396 196.978 491.1 196.67C491.804 196.362 492.596 196.208 493.476 196.208C494.561 196.208 495.588 196.406 496.556 196.802L495.984 198.98C495.676 198.848 495.324 198.738 494.928 198.65C494.546 198.562 494.136 198.518 493.696 198.518C492.654 198.518 491.862 198.848 491.32 199.508C490.777 200.153 490.506 201.07 490.506 202.258C490.506 203.402 490.762 204.311 491.276 204.986C491.789 205.646 492.654 205.976 493.872 205.976C494.326 205.976 494.774 205.932 495.214 205.844C495.654 205.756 496.035 205.646 496.358 205.514L496.732 207.714C496.438 207.861 495.991 207.993 495.39 208.11C494.803 208.227 494.194 208.286 493.564 208.286C492.581 208.286 491.723 208.139 490.99 207.846C490.271 207.538 489.67 207.12 489.186 206.592C488.716 206.049 488.364 205.411 488.13 204.678C487.895 203.93 487.778 203.123 487.778 202.258ZM501.675 206.086C502.379 206.086 502.892 206.005 503.215 205.844C503.537 205.668 503.699 205.375 503.699 204.964C503.699 204.583 503.523 204.267 503.171 204.018C502.833 203.769 502.269 203.497 501.477 203.204C500.993 203.028 500.545 202.845 500.135 202.654C499.739 202.449 499.394 202.214 499.101 201.95C498.807 201.686 498.573 201.371 498.397 201.004C498.235 200.623 498.155 200.161 498.155 199.618C498.155 198.562 498.543 197.733 499.321 197.132C500.098 196.516 501.154 196.208 502.489 196.208C503.163 196.208 503.809 196.274 504.425 196.406C505.041 196.523 505.503 196.641 505.811 196.758L505.327 198.914C505.033 198.782 504.659 198.665 504.205 198.562C503.75 198.445 503.222 198.386 502.621 198.386C502.078 198.386 501.638 198.481 501.301 198.672C500.963 198.848 500.795 199.127 500.795 199.508C500.795 199.699 500.824 199.867 500.883 200.014C500.956 200.161 501.073 200.3 501.235 200.432C501.396 200.549 501.609 200.674 501.873 200.806C502.137 200.923 502.459 201.048 502.841 201.18C503.471 201.415 504.007 201.649 504.447 201.884C504.887 202.104 505.246 202.361 505.525 202.654C505.818 202.933 506.031 203.255 506.163 203.622C506.295 203.989 506.361 204.429 506.361 204.942C506.361 206.042 505.95 206.878 505.129 207.45C504.322 208.007 503.163 208.286 501.653 208.286C500.641 208.286 499.827 208.198 499.211 208.022C498.595 207.861 498.162 207.729 497.913 207.626L498.375 205.404C498.771 205.565 499.24 205.719 499.783 205.866C500.34 206.013 500.971 206.086 501.675 206.086Z" fill="white"/>
<path d="M61.9992 184.335V162.75H52.082V166.25H58.4991V184.335H61.9992Z" fill="white"/>
<path d="M48.0005 197.751H30.5V201.251H48.0005V197.751Z" fill="white"/>
<path d="M38.2234 208.251L31.737 214.739L29.2617 212.264L36.7743 204.751H47.9999V208.251H38.2234Z" fill="white"/>
<path d="M48.0004 194.251H35.75V182.001H39.2501V190.751H48.0004V194.251Z" fill="white"/>
<path d="M70.17 171.5H66.6699V184.334H70.17V171.5Z" fill="white"/>
<path d="M77.7521 164.5V176.61L70.0273 184.335H74.9765L81.2522 178.059V164.5H77.7521Z" fill="white"/>
<path d="M58.6423 184.334L44.058 169.75H30.5V173.25H42.609L53.6931 184.334H58.6423Z" fill="white"/>
<path d="M78.3352 182.001H50.3343C47.768 182.001 45.668 184.102 45.668 186.667V212.335C45.668 214.901 47.768 217.002 50.3343 217.002H78.3352C80.9014 217.002 83.0022 214.901 83.0022 212.335V186.667C83.0022 184.102 80.9014 182.001 78.3352 182.001ZM78.3352 212.335H50.3343V186.667H78.3352V212.335Z" fill="white"/>
<path d="M63.1682 190.751H59.6681L54.418 208.252H58.0707L58.77 205.918H64.0657L64.765 208.252H68.4184L63.1682 190.751ZM59.8207 202.418L61.4182 197.097L63.0149 202.418H59.8207Z" fill="white"/>
<path d="M74.2501 190.751H70.75V208.252H74.2501V190.751Z" fill="white"/>
<path d="M52.0821 168C54.0152 168 55.5822 166.433 55.5822 164.5C55.5822 162.567 54.0152 161 52.0821 161C50.1491 161 48.582 162.567 48.582 164.5C48.582 166.433 50.1491 168 52.0821 168Z" fill="white"/>
<path d="M30.5001 203.001C32.4332 203.001 34.0002 201.434 34.0002 199.501C34.0002 197.568 32.4332 196.001 30.5001 196.001C28.5671 196.001 27 197.568 27 199.501C27 201.434 28.5671 203.001 30.5001 203.001Z" fill="white"/>
<path d="M30.5001 217.002C32.4332 217.002 34.0002 215.435 34.0002 213.502C34.0002 211.569 32.4332 210.001 30.5001 210.001C28.5671 210.001 27 211.569 27 213.502C27 215.435 28.5671 217.002 30.5001 217.002Z" fill="white"/>
<path d="M37.5001 185.501C39.4332 185.501 41.0002 183.934 41.0002 182.001C41.0002 180.068 39.4332 178.501 37.5001 178.501C35.5671 178.501 34 180.068 34 182.001C34 183.934 35.5671 185.501 37.5001 185.501Z" fill="white"/>
<path d="M30.5001 175C32.4332 175 34.0002 173.433 34.0002 171.5C34.0002 169.567 32.4332 168 30.5001 168C28.5671 168 27 169.567 27 171.5C27 173.433 28.5671 175 30.5001 175Z" fill="white"/>
<path d="M79.5021 168C81.4351 168 83.0022 166.433 83.0022 164.5C83.0022 162.567 81.4351 161 79.5021 161C77.569 161 76.002 162.567 76.002 164.5C76.002 166.433 77.569 168 79.5021 168Z" fill="white"/>
<path d="M68.4181 175C70.3511 175 71.9182 173.433 71.9182 171.5C71.9182 169.567 70.3511 168 68.4181 168C66.485 168 64.918 169.567 64.918 171.5C64.918 173.433 66.485 175 68.4181 175Z" fill="white"/>
</svg>
