<svg width="403" height="368" viewBox="0 0 403 368" fill="none" xmlns="http://www.w3.org/2000/svg">
<path d="M42.8822 313.454C38.9363 311.083 37.6596 305.965 40.0303 302.019L35.7441 299.444C33.6896 302.864 33.3991 306.818 34.5192 310.344C30.4532 312.979 28.2764 317.954 29.5133 322.921L34.3686 321.709C33.6911 319.006 34.7797 316.279 36.8969 314.725C37.8382 315.881 38.9531 316.926 40.3075 317.74L46.0227 321.173L48.5973 316.887L42.8822 313.454Z" fill="white" fill-opacity="0.15"/>
<path d="M49.5782 282.487L52.8431 284.864C53.5837 285.408 54.7662 285.366 55.4718 284.78L58.1739 282.526C60.9082 280.25 64.7599 279.932 67.7645 281.737C68.2557 282.032 68.6896 282.384 69.0931 282.763L72.5426 277.02C72.1077 276.676 71.6862 276.316 71.1984 276.023C65.5784 272.647 58.6724 273.435 53.9053 277.408C53.6621 277.23 53.4504 277.027 53.1881 276.869C48.4553 274.026 42.3119 275.561 39.4705 280.291C39.3887 280.428 39.348 280.571 39.2736 280.709C33.5728 279.001 27.236 281.239 24.0327 286.572C22.2273 289.577 21.781 293 22.4519 296.183C19.6379 296.632 17.0306 298.228 15.4498 300.86C13.1686 304.657 13.7416 309.335 16.4837 312.515C15.997 313.059 15.547 313.645 15.1577 314.293C11.839 319.818 13.6275 326.988 19.1464 330.303C20.3019 330.997 21.5329 331.418 22.7821 331.678C22.766 336.788 25.3054 341.779 30.0039 344.601C30.4917 344.894 31.0069 345.099 31.5163 345.321L34.9638 339.581C34.4418 339.4 33.9276 339.182 33.4364 338.887C30.9308 337.382 29.4394 334.693 29.4486 331.7L29.4585 328.763C29.462 327.386 28.3642 326.033 27.0174 325.752L24.1424 325.153C23.4974 325.019 22.9865 324.835 22.5784 324.589C20.2176 323.171 19.4514 320.091 20.8715 317.727C21.0373 317.451 21.2374 317.201 21.4446 316.971L23.6933 314.466C24.6132 313.442 24.6304 311.755 23.73 310.713L21.5336 308.163C20.7428 307.248 20.3244 305.694 21.1653 304.294C21.8331 303.182 22.9194 302.86 23.5086 302.764L27.1287 302.187C28.94 301.896 30.1117 300.192 29.7302 298.4L28.9743 294.809C28.7252 293.618 28.6565 291.823 29.7435 290.008C31.6395 286.852 35.7354 285.83 38.8917 287.726C45.2061 291.519 47.2471 299.709 43.4556 306.021L47.7418 308.595C50.0651 304.728 50.7865 300.354 50.1123 296.228C53.2843 293.706 57.7932 293.247 61.4716 295.457L64.0463 291.17C59.0932 288.195 53.1216 288.444 48.5098 291.262C47.4848 289.12 46.0895 287.143 44.2522 285.504C44.2522 285.504 45.2617 283.646 45.3247 283.516C46.2801 282.161 48.1053 281.715 49.5782 282.487Z" fill="white" fill-opacity="0.15"/>
<path d="M79.6147 307.326L65.3281 298.744L62.7535 303.03L77.0401 311.612L79.6147 307.326Z" fill="white" fill-opacity="0.15"/>
<path d="M81.0687 319.864L60.1797 307.316L57.605 311.602L76.7196 323.084L79.8912 335.801L84.7431 334.591L81.0687 319.864Z" fill="white" fill-opacity="0.15"/>
<path d="M78.4919 324.15L79.2921 318.798L92.0084 315.625L93.2188 320.477L78.4919 324.15Z" fill="white" fill-opacity="0.15"/>
<path d="M66.4588 322.754L55.0293 315.888L52.4546 320.175L63.8841 327.04L66.4588 322.754Z" fill="white" fill-opacity="0.15"/>
<path d="M69.8826 336.476L49.8809 324.461L47.3062 328.747L67.308 340.762L69.8826 336.476Z" fill="white" fill-opacity="0.15"/>
<path d="M48.1543 346.755L39.582 341.605L37.0074 345.892L45.5797 351.041L48.1543 346.755Z" fill="white" fill-opacity="0.15"/>
<path d="M62.789 355.546L59.3634 341.823L44.7305 333.033L42.1558 337.319L55.0143 345.043L58.4399 358.766L65.5806 363.056L68.1553 358.77L62.789 355.546Z" fill="white" fill-opacity="0.15"/>
<path d="M84.1993 286.749L75.627 281.599L73.0523 285.885L81.6246 291.035L84.1993 286.749Z" fill="white" fill-opacity="0.15"/>
<path d="M96.2601 299.826L82.5359 303.248L67.903 294.458L70.4776 290.172L83.3361 297.895L97.0603 294.474L104.201 298.763L101.626 303.05L96.2601 299.826Z" fill="white" fill-opacity="0.15"/>
<path d="M90.0392 322.337C92.4064 323.759 95.4781 322.992 96.9 320.625C98.3219 318.258 97.5557 315.186 95.1885 313.764C92.8213 312.343 89.7496 313.109 88.3277 315.476C86.9057 317.843 87.672 320.915 90.0392 322.337Z" fill="white" fill-opacity="0.15"/>
<path d="M79.7404 339.481C82.1075 340.903 85.1792 340.137 86.6012 337.77C88.0231 335.403 87.2569 332.331 84.8897 330.909C82.5225 329.487 79.4508 330.253 78.0289 332.621C76.6069 334.988 77.3732 338.059 79.7404 339.481Z" fill="white" fill-opacity="0.15"/>
<path d="M62.5958 329.183C64.963 330.605 68.0347 329.838 69.4566 327.471C70.8786 325.104 70.1123 322.032 67.7451 320.61C65.378 319.189 62.3063 319.955 60.8843 322.322C59.4624 324.689 60.2286 327.761 62.5958 329.183Z" fill="white" fill-opacity="0.15"/>
<path d="M75.7521 313.754C78.1193 315.176 81.1909 314.41 82.6129 312.042C84.0348 309.675 83.2686 306.604 80.9014 305.182C78.5342 303.76 75.4625 304.526 74.0406 306.893C72.6186 309.26 73.3849 312.332 75.7521 313.754Z" fill="white" fill-opacity="0.15"/>
<path d="M66.0197 342.904C68.3868 344.326 71.4585 343.56 72.8805 341.193C74.3024 338.826 73.5361 335.754 71.169 334.332C68.8018 332.91 65.7301 333.676 64.3082 336.044C62.8862 338.411 63.6525 341.482 66.0197 342.904Z" fill="white" fill-opacity="0.15"/>
<path d="M64.2931 365.198C66.6603 366.62 69.732 365.854 71.1539 363.487C72.5759 361.12 71.8096 358.048 69.4424 356.626C67.0752 355.204 64.0035 355.97 62.5816 358.338C61.1596 360.705 61.9259 363.776 64.2931 365.198Z" fill="white" fill-opacity="0.15"/>
<path d="M44.2931 353.184C46.6603 354.606 49.732 353.84 51.1539 351.472C52.5759 349.105 51.8096 346.034 49.4424 344.612C47.0752 343.19 44.0035 343.956 42.5816 346.323C41.1596 348.69 41.9259 351.762 44.2931 353.184Z" fill="white" fill-opacity="0.15"/>
<path d="M100.338 305.192C102.705 306.614 105.777 305.848 107.199 303.481C108.621 301.113 107.855 298.042 105.487 296.62C103.12 295.198 100.048 295.964 98.6265 298.331C97.2046 300.699 97.9708 303.77 100.338 305.192Z" fill="white" fill-opacity="0.15"/>
<path d="M80.338 293.178C82.7052 294.6 85.7769 293.833 87.1988 291.466C88.6208 289.099 87.8545 286.027 85.4873 284.605C83.1201 283.184 80.0485 283.95 78.6265 286.317C77.2046 288.684 77.9708 291.756 80.338 293.178Z" fill="white" fill-opacity="0.15"/>
<path d="M366.616 15.293L364.462 6.667H361.538L359.383 15.293C355.184 15.902 351.336 17.546 348.088 19.971L340.465 15.398L338.395 17.461L342.971 25.085C340.549 28.337 338.903 32.188 338.289 36.381L329.666 38.539V41.463L338.289 43.617C338.902 47.816 340.545 51.668 342.971 54.916L338.395 62.537L340.465 64.603L348.084 60.029C351.336 62.455 355.184 64.099 359.383 64.711L361.538 73.334H364.462L366.616 64.711L372.085 70.33L369.667 80H356.334L353.914 70.33C351.838 69.707 349.842 68.891 347.967 67.875L339.43 72.998L330.002 63.572L335.125 55.033C334.109 53.158 333.293 51.162 332.672 49.086L323 46.668V33.334L332.672 30.915C333.293 28.838 334.11 26.843 335.125 24.968L330.002 16.43L339.43 7.002L347.971 12.126C349.846 11.113 351.838 10.293 353.914 9.672L356.334 0H369.667L372.085 9.672L366.616 15.293Z" fill="white" fill-opacity="0.16"/>
<path d="M372.57 25L380.073 17.5H388V12.5H378.003L365.5 25H372.57Z" fill="white" fill-opacity="0.16"/>
<path d="M398 42.5H349.041V47.5H398V42.5Z" fill="white" fill-opacity="0.16"/>
<path d="M363 27.5H398V22.5H363C353.338 22.5 345.5 30.339 345.5 40C345.5 49.672 353.338 57.5 363 57.5H388V52.5H363C356.1 52.5 350.5 46.908 350.5 40C350.5 33.1 356.1 27.5 363 27.5Z" fill="white" fill-opacity="0.16"/>
<path d="M372.57 45L380.073 37.5H388V32.5H378.003L365.5 45H372.57Z" fill="white" fill-opacity="0.16"/>
<path d="M380.073 62.5L372.57 55H365.5L378.003 67.5H398V62.5H380.073Z" fill="white" fill-opacity="0.16"/>
<path d="M398 70C400.761 70 403 67.7614 403 65C403 62.2386 400.761 60 398 60C395.239 60 393 62.2386 393 65C393 67.7614 395.239 70 398 70Z" fill="white" fill-opacity="0.16"/>
<path d="M398 50C400.761 50 403 47.7614 403 45C403 42.2386 400.761 40 398 40C395.239 40 393 42.2386 393 45C393 47.7614 395.239 50 398 50Z" fill="white" fill-opacity="0.16"/>
<path d="M388 40C390.761 40 393 37.7614 393 35C393 32.2386 390.761 30 388 30C385.239 30 383 32.2386 383 35C383 37.7614 385.239 40 388 40Z" fill="white" fill-opacity="0.16"/>
<path d="M398 30C400.761 30 403 27.7614 403 25C403 22.2386 400.761 20 398 20C395.239 20 393 22.2386 393 25C393 27.7614 395.239 30 398 30Z" fill="white" fill-opacity="0.16"/>
<path d="M388 20C390.761 20 393 17.7614 393 15C393 12.2386 390.761 10 388 10C385.239 10 383 12.2386 383 15C383 17.7614 385.239 20 388 20Z" fill="white" fill-opacity="0.16"/>
<path d="M388 60C390.761 60 393 57.7614 393 55C393 52.2386 390.761 50 388 50C385.239 50 383 52.2386 383 55C383 57.7614 385.239 60 388 60Z" fill="white" fill-opacity="0.16"/>
</svg>
