<svg id="visual" viewBox="0 0 960 540" width="960" height="540" xmlns="http://www.w3.org/2000/svg" xmlns:xlink="http://www.w3.org/1999/xlink" version="1.1"><rect x="0" y="0" width="960" height="540" fill="#ffffff"></rect><defs><linearGradient id="grad1_0" x1="43.8%" y1="100%" x2="100%" y2="0%"><stop offset="14.444444444444446%" stop-color="#ffffff" stop-opacity="1"></stop><stop offset="85.55555555555554%" stop-color="#ffffff" stop-opacity="1"></stop></linearGradient></defs><defs><linearGradient id="grad2_0" x1="0%" y1="100%" x2="56.3%" y2="0%"><stop offset="14.444444444444446%" stop-color="#ffffff" stop-opacity="1"></stop><stop offset="85.55555555555554%" stop-color="#ffffff" stop-opacity="1"></stop></linearGradient></defs><g transform="translate(960, 540)"><path d="M-486 0C-462.2 -58 -438.4 -116 -409.3 -169.5C-380.2 -223 -345.7 -272.1 -301.9 -301.9C-258.1 -331.8 -205 -342.6 -153.1 -369.6C-101.2 -396.5 -50.6 -439.8 0 -483L0 0Z" fill="#ffe3ee"></path></g><g transform="translate(0, 0)"><path d="M422 0C432.2 58.8 442.3 117.6 432.4 179.1C422.4 240.6 392.4 304.8 343.7 343.7C295 382.5 227.6 395.9 167.2 403.7C106.9 411.6 53.4 413.8 0 416L0 0Z" fill="#ffe3ee"></path></g></svg>