<svg width="203" height="204" viewBox="0 0 203 204" fill="none" xmlns="http://www.w3.org/2000/svg">
<path d="M53.7107 132.15C53.427 131.622 52.9854 131.195 52.4476 130.93C51.9098 130.665 51.3026 130.574 50.7107 130.67C44.8007 131.67 27.8107 132.2 26.5007 105.74C24.9007 73.68 63.7807 18.9 120.871 29.79C166.721 38.54 132.481 82.17 160.571 93.17C177.011 99.61 191.871 132.65 155.361 161.33C135.611 176.85 84.9407 190.55 53.7107 132.15Z" fill="#A09BFF"/>
<path d="M3 92.75C2.40666 92.75 1.82664 92.574 1.33329 92.2444C0.839943 91.9148 0.455426 91.4462 0.228363 90.898C0.00129986 90.3499 -0.0581102 89.7467 0.0576455 89.1647C0.173401 88.5828 0.459123 88.0482 0.878681 87.6287C1.29824 87.2091 1.83279 86.9234 2.41473 86.8076C2.99667 86.6919 3.59987 86.7513 4.14805 86.9784C4.69623 87.2054 5.16477 87.5899 5.49441 88.0833C5.82405 88.5766 6 89.1567 6 89.75C6 90.5456 5.68393 91.3087 5.12132 91.8713C4.55871 92.4339 3.79565 92.75 3 92.75ZM3 88.75C2.80222 88.75 2.60888 88.8087 2.44443 88.9185C2.27998 89.0284 2.15181 89.1846 2.07612 89.3673C2.00043 89.55 1.98063 89.7511 2.01922 89.9451C2.0578 90.1391 2.15304 90.3173 2.29289 90.4571C2.43275 90.597 2.61093 90.6922 2.80491 90.7308C2.99889 90.7694 3.19996 90.7496 3.38268 90.6739C3.56541 90.5982 3.72159 90.47 3.83147 90.3056C3.94135 90.1411 4 89.9478 4 89.75C3.99737 89.4865 3.89085 89.2347 3.7036 89.0493C3.51634 88.864 3.26349 88.76 3 88.76V88.75Z" fill="url(#paint0_linear_524_506)"/>
<path d="M137 203.08C136.407 203.08 135.827 202.904 135.333 202.574C134.84 202.245 134.455 201.776 134.228 201.228C134.001 200.68 133.942 200.077 134.058 199.495C134.173 198.913 134.459 198.378 134.879 197.959C135.298 197.539 135.833 197.253 136.415 197.138C136.997 197.022 137.6 197.081 138.148 197.308C138.696 197.535 139.165 197.92 139.494 198.413C139.824 198.907 140 199.487 140 200.08C140 200.876 139.684 201.639 139.121 202.201C138.559 202.764 137.796 203.08 137 203.08ZM137 199.08C136.735 199.08 136.48 199.185 136.293 199.373C136.105 199.56 136 199.815 136 200.08C136 200.345 136.105 200.6 136.293 200.787C136.48 200.975 136.735 201.08 137 201.08C137.265 201.08 137.52 200.975 137.707 200.787C137.895 200.6 138 200.345 138 200.08C138 199.815 137.895 199.56 137.707 199.373C137.52 199.185 137.265 199.08 137 199.08Z" fill="url(#paint1_linear_524_506)"/>
<path d="M176.279 39.89C175.686 39.89 175.106 39.7141 174.613 39.3844C174.119 39.0548 173.735 38.5862 173.508 38.0381C173.281 37.4899 173.221 36.8867 173.337 36.3047C173.453 35.7228 173.738 35.1883 174.158 34.7687C174.578 34.3491 175.112 34.0634 175.694 33.9477C176.276 33.8319 176.879 33.8913 177.427 34.1184C177.976 34.3454 178.444 34.73 178.774 35.2233C179.103 35.7167 179.279 36.2967 179.279 36.89C179.279 37.6857 178.963 38.4487 178.401 39.0113C177.838 39.5739 177.075 39.89 176.279 39.89ZM176.279 35.89C176.082 35.89 175.888 35.9487 175.724 36.0585C175.559 36.1684 175.431 36.3246 175.355 36.5073C175.28 36.6901 175.26 36.8911 175.299 37.0851C175.337 37.2791 175.432 37.4573 175.572 37.5971C175.712 37.737 175.89 37.8322 176.084 37.8708C176.278 37.9094 176.479 37.8896 176.662 37.8139C176.845 37.7382 177.001 37.61 177.111 37.4456C177.221 37.2811 177.279 37.0878 177.279 36.89C177.277 36.6265 177.17 36.3747 176.983 36.1894C176.796 36.004 176.543 35.9 176.279 35.9V35.89Z" fill="url(#paint2_linear_524_506)"/>
<path d="M74.2206 3.69995C74.2206 3.43473 74.1153 3.18038 73.9277 2.99284C73.7402 2.80531 73.4858 2.69995 73.2206 2.69995H72.1406C71.8754 2.69995 71.6211 2.80531 71.4335 2.99284C71.246 3.18038 71.1406 3.43473 71.1406 3.69995C71.1406 3.96517 71.246 4.21952 71.4335 4.40706C71.6211 4.59459 71.8754 4.69995 72.1406 4.69995H73.2206C73.4858 4.69995 73.7402 4.59459 73.9277 4.40706C74.1153 4.21952 74.2206 3.96517 74.2206 3.69995Z" fill="url(#paint3_linear_524_506)"/>
<path d="M74.8398 3.08C75.1051 3.08 75.3594 2.97464 75.547 2.78711C75.7345 2.59957 75.8398 2.34522 75.8398 2.08V1C75.8398 0.734784 75.7345 0.48043 75.547 0.292893C75.3594 0.105357 75.1051 0 74.8398 0C74.5746 0 74.3203 0.105357 74.1327 0.292893C73.9452 0.48043 73.8398 0.734784 73.8398 1V2.08C73.8398 2.34522 73.9452 2.59957 74.1327 2.78711C74.3203 2.97464 74.5746 3.08 74.8398 3.08Z" fill="url(#paint4_linear_524_506)"/>
<path d="M77.5409 2.69995H76.4609C76.1957 2.69995 75.9414 2.80531 75.7538 2.99284C75.5663 3.18038 75.4609 3.43473 75.4609 3.69995C75.4609 3.96517 75.5663 4.21952 75.7538 4.40706C75.9414 4.59459 76.1957 4.69995 76.4609 4.69995H77.5409C77.8062 4.69995 78.0605 4.59459 78.248 4.40706C78.4356 4.21952 78.5409 3.96517 78.5409 3.69995C78.5409 3.43473 78.4356 3.18038 78.248 2.99284C78.0605 2.80531 77.8062 2.69995 77.5409 2.69995Z" fill="url(#paint5_linear_524_506)"/>
<path d="M74.8398 4.31995C74.5746 4.31995 74.3203 4.4253 74.1327 4.61284C73.9452 4.80038 73.8398 5.05473 73.8398 5.31995V6.39995C73.8398 6.66516 73.9452 6.91952 74.1327 7.10705C74.3203 7.29459 74.5746 7.39995 74.8398 7.39995C75.1051 7.39995 75.3594 7.29459 75.547 7.10705C75.7345 6.91952 75.8398 6.66516 75.8398 6.39995V5.31995C75.8398 5.05473 75.7345 4.80038 75.547 4.61284C75.3594 4.4253 75.1051 4.31995 74.8398 4.31995Z" fill="url(#paint6_linear_524_506)"/>
<path d="M198.689 128.42C198.689 128.155 198.584 127.9 198.396 127.713C198.209 127.525 197.955 127.42 197.689 127.42H196.609C196.344 127.42 196.09 127.525 195.902 127.713C195.715 127.9 195.609 128.155 195.609 128.42C195.609 128.685 195.715 128.94 195.902 129.127C196.09 129.315 196.344 129.42 196.609 129.42H197.689C197.955 129.42 198.209 129.315 198.396 129.127C198.584 128.94 198.689 128.685 198.689 128.42Z" fill="url(#paint7_linear_524_506)"/>
<path d="M199.299 127.8C199.564 127.8 199.818 127.695 200.006 127.507C200.193 127.32 200.299 127.065 200.299 126.8V125.72C200.281 125.467 200.168 125.23 199.982 125.058C199.797 124.885 199.552 124.789 199.299 124.79C199.045 124.789 198.801 124.885 198.615 125.058C198.43 125.23 198.317 125.467 198.299 125.72V126.8C198.299 127.065 198.404 127.32 198.592 127.507C198.779 127.695 199.034 127.8 199.299 127.8Z" fill="url(#paint8_linear_524_506)"/>
<path d="M202 127.42H200.92C200.669 127.44 200.435 127.554 200.264 127.74C200.094 127.925 199.999 128.168 200 128.42C199.999 128.672 200.094 128.915 200.264 129.1C200.435 129.286 200.669 129.4 200.92 129.42H202C202.265 129.42 202.52 129.315 202.707 129.127C202.895 128.94 203 128.685 203 128.42C203 128.155 202.895 127.9 202.707 127.713C202.52 127.525 202.265 127.42 202 127.42Z" fill="url(#paint9_linear_524_506)"/>
<path d="M199.299 129.08C199.034 129.08 198.779 129.185 198.592 129.373C198.404 129.561 198.299 129.815 198.299 130.08V131.08C198.319 131.331 198.433 131.565 198.619 131.736C198.804 131.907 199.047 132.001 199.299 132C199.551 132.001 199.794 131.907 199.979 131.736C200.164 131.565 200.279 131.331 200.299 131.08V130.08C200.299 129.815 200.193 129.561 200.006 129.373C199.818 129.185 199.564 129.08 199.299 129.08Z" fill="url(#paint10_linear_524_506)"/>
<path d="M23.8202 180.27C23.8202 180.005 23.7149 179.75 23.5273 179.563C23.3398 179.375 23.0855 179.27 22.8202 179.27H21.7402C21.475 179.27 21.2207 179.375 21.0331 179.563C20.8456 179.75 20.7402 180.005 20.7402 180.27C20.7402 180.535 20.8456 180.79 21.0331 180.977C21.2207 181.165 21.475 181.27 21.7402 181.27H22.8202C23.0855 181.27 23.3398 181.165 23.5273 180.977C23.7149 180.79 23.8202 180.535 23.8202 180.27Z" fill="url(#paint11_linear_524_506)"/>
<path d="M24.4395 179.65C24.7047 179.65 24.959 179.545 25.1466 179.357C25.3341 179.17 25.4395 178.915 25.4395 178.65V177.57C25.4395 177.305 25.3341 177.05 25.1466 176.863C24.959 176.675 24.7047 176.57 24.4395 176.57C24.1742 176.57 23.9199 176.675 23.7323 176.863C23.5448 177.05 23.4395 177.305 23.4395 177.57V178.65C23.4395 178.915 23.5448 179.17 23.7323 179.357C23.9199 179.545 24.1742 179.65 24.4395 179.65Z" fill="url(#paint12_linear_524_506)"/>
<path d="M27.1305 179.27H26.0605C25.7953 179.27 25.541 179.375 25.3534 179.563C25.1659 179.75 25.0605 180.005 25.0605 180.27C25.0605 180.535 25.1659 180.79 25.3534 180.977C25.541 181.165 25.7953 181.27 26.0605 181.27H27.1305C27.3958 181.27 27.6501 181.165 27.8377 180.977C28.0252 180.79 28.1305 180.535 28.1305 180.27C28.1305 180.005 28.0252 179.75 27.8377 179.563C27.6501 179.375 27.3958 179.27 27.1305 179.27Z" fill="url(#paint13_linear_524_506)"/>
<path d="M24.4395 180.89C24.1742 180.89 23.9199 180.995 23.7323 181.183C23.5448 181.37 23.4395 181.625 23.4395 181.89V182.96C23.4395 183.225 23.5448 183.48 23.7323 183.667C23.9199 183.855 24.1742 183.96 24.4395 183.96C24.7047 183.96 24.959 183.855 25.1466 183.667C25.3341 183.48 25.4395 183.225 25.4395 182.96V181.89C25.4395 181.625 25.3341 181.37 25.1466 181.183C24.959 180.995 24.7047 180.89 24.4395 180.89Z" fill="url(#paint14_linear_524_506)"/>
<path d="M62.0806 174.65C62.0806 174.65 62.9506 168.56 67.4306 166.87C71.9106 165.18 74.5206 165.14 74.5106 160.09C74.5006 155.04 78.7406 152.62 83.6906 152.02C84.6404 151.376 85.3892 150.477 85.8509 149.426C86.3125 148.375 86.4684 147.215 86.3006 146.08C85.6606 142.19 88.3806 136.21 95.7806 136.41C95.7806 136.41 111.221 125.9 102.071 106.78C102.071 106.78 94.8606 93.57 81.2306 94.06C81.2306 94.06 67.4606 113.63 50.1406 91.95C50.1406 91.95 64.3706 76.04 81.2406 91.07C81.2406 91.07 93.0306 92.07 99.2406 97.26C99.2406 97.26 107.071 91.9 104.521 74.59L108.831 73.9C108.831 73.9 111.421 85.2 108.121 93.51L109.791 93.1C111.671 91.4 116.461 85.67 128.501 87.71C128.501 87.71 139.571 73.5 152.131 94.15C152.131 94.15 136.641 106.38 127.361 91.15C127.361 91.15 111.721 86.92 109.771 104.84L113.311 121.65C113.311 121.65 113.311 130.93 108.481 136.45C108.481 136.45 118.021 135.15 119.861 140.77C121.701 146.39 120.861 149.08 121.611 150.14C122.361 151.2 126.361 153.58 129.881 154.27C133.401 154.96 133.101 163.4 133.101 163.4L140.971 167.61C145.211 168.71 145.041 174.61 145.041 174.61L62.0806 174.65Z" fill="#8F89FF"/>
<path d="M82.1094 113.64C82.1094 113.64 93.4494 106.07 98.5394 118.54C98.5394 118.54 86.9994 128.39 82.1094 113.64Z" fill="url(#paint15_linear_524_506)"/>
<path d="M133.32 111.08C133.32 111.08 123.42 104.47 118.98 115.36C119 115.37 129.05 123.96 133.32 111.08Z" fill="url(#paint16_linear_524_506)"/>
<path d="M104.06 80.1C118.734 80.1 130.63 68.2042 130.63 53.53C130.63 38.8558 118.734 26.96 104.06 26.96C89.386 26.96 77.4902 38.8558 77.4902 53.53C77.4902 68.2042 89.386 80.1 104.06 80.1Z" fill="white"/>
<path d="M110.58 174.39L104.4 138.34L112.27 136.34C112.27 136.34 121.01 138.14 120.86 144.45C120.71 150.76 123.31 152.45 123.96 152.45C124.61 152.45 133.3 151.28 132.78 160.88C132.78 160.88 131.95 163.88 136.65 165.24C141.35 166.6 145.42 171.1 145.08 174.56L110.58 174.39Z" fill="white"/>
<path d="M133.409 175.08C132.824 173.568 131.882 172.22 130.663 171.15C129.444 170.081 127.985 169.323 126.409 168.94C126.409 168.94 122.079 168.5 123.039 161.67C123.999 154.84 116.369 156.82 114.729 154.57C113.089 152.32 113.729 148.41 113.519 145.4C113.259 141.85 109.229 138.12 105.019 138.27C105.019 138.27 100.109 138.69 97.5091 136.89C94.9091 135.09 86.2091 137.27 86.2291 144.41C86.2291 144.41 88.5091 149.49 83.2991 151.73C78.0891 153.97 74.6991 154.05 73.7691 162.79C73.7691 162.79 73.6691 165.3 66.8491 167.08C66.8491 167.08 61.5791 170.15 61.6691 174.61L133.409 175.08Z" fill="#B3AFFF"/>
<path d="M103.58 137.63C103.58 137.63 109.58 130.63 109.58 122.85C109.58 115.49 106.09 106.66 106.58 101.99C107.07 97.32 115.58 85.54 128.38 89.52C131.396 91.8965 134.969 93.4658 138.76 94.08C144.47 94.77 151.76 93.41 151.76 93.41C151.76 93.41 147.76 84.53 140.26 83.72C140.26 83.72 134.2 81.36 128.58 87.72C128.58 87.72 119.17 83.72 108.78 94.13C108.78 94.13 106.43 94.99 106.25 94.38C106.07 93.77 108.87 84.73 106.47 74.25H102.88C102.88 74.25 107.88 91.41 100.63 97.31C100.63 97.31 101.55 101.14 99.6297 99.81C96.4197 97.62 90.7897 91.91 80.2797 92.71C80.2797 92.71 72.5297 87.02 50.6797 92.53C50.6797 92.53 58.0797 102.71 67.5997 101.88C70.352 101.659 73.0216 100.832 75.4175 99.4597C77.8134 98.0872 79.8766 96.2024 81.4597 93.94C85.9525 94.1476 90.3043 95.573 94.0492 98.0638C97.7941 100.555 100.791 104.017 102.72 108.08C102.72 108.08 110.45 122.64 96.6097 136.33C96.6097 136.33 101.55 139.08 103.58 137.63Z" fill="white"/>
<path d="M106.829 74.59C106.829 74.59 109.549 83.59 105.289 96.45C104.789 97.98 106.289 99.17 108.739 94.12L109.219 87.92L108.739 74.24L106.829 74.59Z" fill="url(#paint17_linear_524_506)"/>
<path d="M83.1309 114.08C83.1309 114.08 89.1309 120.25 97.5409 118.3C97.5409 118.3 94.2309 106.23 83.1309 114.08Z" fill="white"/>
<path d="M120.189 115.13C120.189 115.13 124.479 111.25 132.189 111.43C132.189 111.43 131.759 117.29 126.979 118.09C125.681 118.357 124.331 118.216 123.115 117.686C121.9 117.156 120.878 116.263 120.189 115.13Z" fill="white"/>
<path d="M130.679 58.85C130.679 58.85 115.269 79.49 97.9991 73.82C93.5898 72.3352 89.7738 69.4739 87.113 65.6573C84.4522 61.8408 83.0872 57.2706 83.2191 52.62C83.4091 46.5 85.7891 38.62 93.4991 29.83C93.4991 29.83 66.4991 45.14 82.2291 68.68C97.8791 92.08 130.629 75.21 130.679 58.85Z" fill="#9C96FF"/>
<path d="M107.92 67.9V64.97C109.375 64.4236 110.622 63.4353 111.487 62.144C112.351 60.8527 112.79 59.3232 112.74 57.77C112.823 56.0253 112.256 54.3119 111.15 52.96C109.795 51.57 108.088 50.5746 106.21 50.08C105.44 49.8758 104.713 49.5372 104.06 49.08C103.953 48.976 103.87 48.8492 103.818 48.7091C103.767 48.5689 103.747 48.4189 103.76 48.27C103.749 48.122 103.772 47.9734 103.825 47.8351C103.879 47.6967 103.963 47.572 104.07 47.47C104.188 47.3612 104.327 47.2776 104.478 47.2243C104.63 47.171 104.79 47.1492 104.95 47.16C105.085 47.1472 105.221 47.1618 105.35 47.2031C105.479 47.2443 105.598 47.3113 105.7 47.4C105.847 47.5474 105.954 47.7298 106.01 47.93C106.105 48.2559 106.302 48.5427 106.572 48.748C106.842 48.9534 107.171 49.0662 107.51 49.07H110.42C110.646 49.0694 110.868 49.021 111.073 48.9279C111.279 48.8348 111.462 48.6992 111.61 48.53C111.757 48.3656 111.866 48.1713 111.929 47.9607C111.993 47.75 112.011 47.528 111.98 47.31C111.799 45.7308 111.058 44.2689 109.89 43.19C109.309 42.6448 108.631 42.2139 107.89 41.92V39.08C107.89 38.6636 107.725 38.2643 107.431 37.9699C107.136 37.6754 106.737 37.51 106.32 37.51H103.46C103.234 37.5168 103.012 37.5705 102.808 37.6677C102.604 37.7648 102.423 37.9034 102.275 38.0746C102.127 38.2457 102.017 38.4457 101.951 38.6619C101.884 38.878 101.864 39.1055 101.89 39.33V41.92C101.039 42.2752 100.262 42.7874 99.6004 43.43C98.9313 44.1114 98.4088 44.9224 98.0648 45.8132C97.7209 46.704 97.5628 47.6558 97.6004 48.61C97.5356 50.2386 98.0812 51.8327 99.1304 53.08C100.467 54.3815 102.117 55.315 103.92 55.79C104.736 55.9968 105.513 56.3345 106.22 56.79C106.337 56.8944 106.428 57.0248 106.486 57.1707C106.543 57.3166 106.565 57.4739 106.55 57.63C106.568 57.897 106.528 58.1646 106.433 58.4147C106.338 58.6649 106.19 58.8917 106 59.08C105.827 59.254 105.619 59.3894 105.39 59.4773C105.161 59.5652 104.916 59.6036 104.67 59.59C104.426 59.607 104.181 59.5751 103.949 59.4961C103.717 59.4171 103.503 59.2927 103.32 59.13C103.05 58.8631 102.883 58.5086 102.85 58.13C102.8 57.7641 102.62 57.4284 102.343 57.1843C102.065 56.9401 101.71 56.8038 101.34 56.8H98.3104C98.0879 56.798 97.8676 56.8438 97.6644 56.9345C97.4612 57.0252 97.2799 57.1585 97.1329 57.3255C96.9858 57.4925 96.8764 57.6892 96.8122 57.9022C96.7479 58.1152 96.7302 58.3396 96.7604 58.56C96.9853 60.318 97.7305 61.9687 98.9004 63.3C99.7526 64.1153 100.778 64.7272 101.9 65.09V67.87C101.903 68.2847 102.07 68.6814 102.364 68.9737C102.658 69.266 103.056 69.43 103.47 69.43H106.33C106.535 69.434 106.739 69.3976 106.93 69.3228C107.12 69.2481 107.295 69.1365 107.442 68.9944C107.59 68.8523 107.708 68.6825 107.79 68.4948C107.872 68.307 107.916 68.1049 107.92 67.9ZM105.92 67.46H103.92V64.79C103.919 64.4473 103.804 64.1147 103.594 63.8435C103.385 63.5724 103.092 63.3779 102.76 63.29C101.823 63.0301 100.964 62.5423 100.26 61.87C99.5419 61.0044 99.0504 59.9733 98.8304 58.87H101C101.158 59.5289 101.506 60.1269 102 60.59C102.369 60.9285 102.801 61.191 103.271 61.3626C103.741 61.5342 104.24 61.6115 104.74 61.59C105.252 61.606 105.762 61.5157 106.237 61.3246C106.712 61.1335 107.142 60.8459 107.5 60.48C107.859 60.1094 108.139 59.6706 108.324 59.1896C108.51 58.7086 108.597 58.1953 108.58 57.68C108.598 57.2372 108.518 56.7959 108.345 56.3878C108.172 55.9798 107.911 55.6151 107.58 55.32C106.675 54.6736 105.658 54.1991 104.58 53.92C103.118 53.5401 101.774 52.8011 100.67 51.77C99.9483 50.8777 99.591 49.7451 99.6704 48.6C99.6208 47.9139 99.7134 47.225 99.9422 46.5763C100.171 45.9276 100.531 45.3331 101 44.83C101.53 44.3125 102.164 43.9136 102.86 43.66C103.155 43.5466 103.409 43.3462 103.587 43.0855C103.766 42.8248 103.861 42.516 103.86 42.2V39.48H105.86V42.27C105.86 42.586 105.955 42.8948 106.133 43.1555C106.312 43.4162 106.565 43.6166 106.86 43.73C107.442 43.9495 107.971 44.2904 108.41 44.73C109.143 45.3375 109.668 46.1593 109.91 47.08H107.82C107.656 46.6343 107.385 46.2359 107.03 45.92C106.458 45.4143 105.714 45.1461 104.95 45.17C104.109 45.1501 103.293 45.4627 102.68 46.04C102.38 46.329 102.143 46.6774 101.984 47.0631C101.826 47.4487 101.75 47.8632 101.76 48.28C101.743 48.7168 101.824 49.1519 101.998 49.5533C102.171 49.9548 102.431 50.3124 102.76 50.6C103.616 51.2286 104.583 51.69 105.61 51.96C107.119 52.3603 108.497 53.146 109.61 54.24C110.397 55.2307 110.789 56.4775 110.71 57.74C110.767 58.9266 110.435 60.0993 109.766 61.0808C109.096 62.0622 108.126 62.7991 107 63.18C106.688 63.2794 106.415 63.4752 106.221 63.7393C106.027 64.0034 105.922 64.3223 105.92 64.65V67.46Z" fill="#06007A"/>
<path d="M156.81 173.57H145.89C144.53 167.34 140.54 165.98 137.58 164.98C134.95 164.09 133.69 163.56 133.67 161.21C133.67 158.68 133.67 153.41 127.34 152.21C123.69 151.49 121.68 151.09 121.86 144.95C121.933 142.79 121.214 140.678 119.838 139.011C118.463 137.344 116.525 136.238 114.39 135.9C113.027 135.519 111.59 135.484 110.21 135.8C112.397 132.256 113.601 128.193 113.7 124.03C114.23 121.69 115.57 118.03 118.85 116.53C120.636 118.201 122.949 119.195 125.39 119.34C125.766 119.34 126.14 119.309 126.51 119.25C129.51 118.77 132.11 116.32 134.13 111.99C134.289 111.655 134.319 111.272 134.214 110.916C134.109 110.56 133.876 110.255 133.56 110.06C132.09 109.15 128.24 107.16 124.34 108.41C121.75 109.24 119.71 111.33 118.25 114.6C116.244 115.467 114.586 116.981 113.54 118.9C113.208 115.919 112.581 112.978 111.67 110.12C109.16 102.12 112.67 97.34 114.96 95.21C118.33 92.1 123.39 90.74 126.84 92.01C127.633 93.7378 128.772 95.2838 130.188 96.5518C131.604 97.8198 133.266 98.7826 135.07 99.3801C140 100.88 145.94 99.38 152.71 95.03C152.882 94.9163 153.029 94.7692 153.142 94.5973C153.256 94.4255 153.333 94.2326 153.37 94.03C153.413 93.8328 153.415 93.629 153.375 93.4311C153.335 93.2333 153.256 93.0457 153.14 92.8801C151.58 90.6101 145.92 83.13 138.56 82.47C134.84 82.08 131.3 83.58 128 86.8C124.735 86.0272 121.327 86.0952 118.095 86.9976C114.863 87.9 111.913 89.6074 109.52 91.96C110.31 88.3086 110.646 84.5737 110.52 80.84C117.364 79.2362 123.343 75.0925 127.247 69.2475C131.151 63.4024 132.688 56.2926 131.549 49.3567C130.409 42.4207 126.677 36.1768 121.108 31.8884C115.539 27.5999 108.548 25.5873 101.551 26.2577C94.5546 26.9281 88.0737 30.2315 83.4202 35.4994C78.7668 40.7674 76.2883 47.6064 76.4864 54.6325C76.6845 61.6586 79.5444 68.3472 84.4872 73.3445C89.4301 78.3419 96.0869 81.2749 103.11 81.55C103.66 87.55 102.47 92.3501 99.4404 96.0601C97.7004 94.3801 92.5904 90.5501 81.7604 90.2001C79.5704 88.2001 65.3504 76.7 49.6304 90.97C49.3317 91.2306 49.1482 91.5987 49.1201 91.9941C49.092 92.3895 49.2215 92.7799 49.4804 93.08C51.3304 95.37 58.0904 102.84 66.9104 102.92C72.2304 102.92 77.2704 100.28 81.8504 94.92C86.044 95.1721 90.0939 96.5409 93.5806 98.8847C97.0672 101.228 99.8638 104.462 101.68 108.25C103.203 111.825 103.887 115.7 103.68 119.58C102.366 118.53 100.82 117.81 99.1704 117.48C97.5104 113.92 95.2304 111.64 92.3504 110.73C87.7404 109.28 83.0804 111.86 81.7604 112.73C81.4506 112.928 81.2231 113.232 81.1201 113.585C81.0172 113.938 81.0457 114.316 81.2004 114.65C83.5204 119.65 86.4604 122.48 89.9404 123.04C90.3603 123.108 90.785 123.141 91.2104 123.14C95.0904 123.14 98.2104 120.38 99.0804 119.55C100.723 119.976 102.217 120.844 103.4 122.06C102.459 127.364 99.6141 132.143 95.4004 135.5C94.4934 135.521 93.5941 135.673 92.7304 135.95C90.6021 136.295 88.6728 137.404 87.3047 139.071C85.9367 140.737 85.224 142.845 85.3004 145C85.4704 151.14 83.4604 151.54 79.8104 152.26C73.5304 153.5 73.5004 158.77 73.4804 161.26C73.4804 163.61 72.2004 164.14 69.5704 165.03C66.6204 166.03 62.6204 167.39 61.2604 173.62H48.1504C47.8852 173.62 47.6308 173.725 47.4433 173.913C47.2557 174.1 47.1504 174.355 47.1504 174.62C47.1504 174.885 47.2557 175.14 47.4433 175.327C47.6308 175.515 47.8852 175.62 48.1504 175.62H156.81C157.076 175.62 157.33 175.515 157.517 175.327C157.705 175.14 157.81 174.885 157.81 174.62C157.81 174.355 157.705 174.1 157.517 173.913C157.33 173.725 157.076 173.62 156.81 173.62V173.57ZM125 110.28C127.86 109.36 130.88 110.77 132.18 111.5C130.5 114.94 128.5 116.87 126.25 117.24C123.66 117.66 121.25 115.89 120.25 115.03C121.42 112.49 123 110.9 125 110.28ZM90.2104 120.97C87.5204 120.54 85.1504 118.23 83.2104 114.11C84.6904 113.25 88.3104 111.51 91.7604 112.6C94.0904 113.34 95.9804 115.25 97.3904 118.31C96.2504 119.28 93.3804 121.48 90.2104 120.97ZM113.87 137.79H113.99C114.24 137.79 119.99 138.9 119.86 144.79C119.65 152.08 122.53 153.19 126.95 154.07C131.37 154.95 131.65 157.91 131.67 161.17C131.67 165.05 134.48 165.99 136.94 166.82C139.76 167.77 142.66 168.75 143.85 173.51H88.6704C88.4329 172.504 88.5421 171.447 88.9804 170.51C89.3283 169.97 89.7891 169.511 90.3312 169.166C90.8732 168.821 91.4836 168.597 92.1204 168.51C97.4804 167.26 98.6504 163.3 98.5404 161.24C98.5404 161.24 98.5404 161.24 98.5404 161.17C98.5404 160.905 98.435 160.65 98.2475 160.463C98.06 160.275 97.8056 160.17 97.5404 160.17C97.2752 160.17 97.0208 160.275 96.8333 160.463C96.6457 160.65 96.5404 160.905 96.5404 161.17C96.5404 161.17 96.5404 161.25 96.5404 161.29C96.5404 161.57 96.7704 165.37 91.6604 166.56C90.7396 166.712 89.8635 167.065 89.0945 167.594C88.3254 168.123 87.6822 168.815 87.2104 169.62C86.5969 170.858 86.3971 172.26 86.6404 173.62H75.5104C76.6904 168.86 79.6004 167.88 82.4104 166.93C84.8704 166.1 87.6604 165.16 87.6904 161.28C87.6904 160.79 87.6904 160.28 87.6904 159.71C87.8604 157.4 88.5504 154.93 92.3504 154.18C96.7704 153.3 99.6604 152.18 99.4504 144.9C99.3805 143.907 99.5461 142.911 99.9335 141.993C100.321 141.076 100.92 140.263 101.68 139.62C103.57 140.12 105.55 139.41 107.47 138.71C109.6 137.91 111.74 137.14 113.87 137.79ZM78.4904 53.87C78.4904 48.7851 79.9983 43.8143 82.8233 39.5863C85.6484 35.3584 89.6637 32.063 94.3616 30.1171C99.0595 28.1712 104.229 27.662 109.216 28.6541C114.203 29.6461 118.784 32.0947 122.38 35.6903C125.976 39.2859 128.424 43.867 129.416 48.8543C130.408 53.8415 129.899 59.011 127.953 63.7088C126.007 68.4067 122.712 72.4221 118.484 75.2471C114.256 78.0722 109.285 79.58 104.2 79.58C97.3849 79.5695 90.8516 76.8573 86.0324 72.0381C81.2131 67.2188 78.501 60.6855 78.4904 53.87ZM103.49 107.35C97.3004 94.66 84.5804 92.7101 81.4904 92.8801C81.2867 92.8906 81.0874 92.9431 80.905 93.0343C80.7226 93.1255 80.561 93.2534 80.4304 93.41C76.2504 98.41 71.7304 100.88 67.0104 100.88H66.8904C59.2604 100.81 53.0504 94.22 51.2904 92.14C65.9604 79.14 79.0704 90.46 80.5304 91.8C80.8032 92.0506 81.16 92.1898 81.5304 92.19C92.6604 92.52 97.2204 96.5701 98.3504 97.8101C98.4936 97.9694 98.6697 98.0957 98.8666 98.1803C99.0634 98.2649 99.2762 98.3058 99.4904 98.3C99.7031 98.2966 99.9126 98.2485 100.106 98.1589C100.299 98.0693 100.47 97.9403 100.61 97.78C104.18 93.68 105.68 88.2101 105.12 81.5601C106.263 81.5243 107.401 81.4174 108.53 81.2401C108.637 85.2832 108.183 89.3217 107.18 93.2401C107.093 93.5687 107.12 93.9172 107.256 94.2286C107.393 94.5399 107.632 94.7956 107.933 94.9537C108.234 95.1118 108.58 95.1629 108.913 95.0986C109.247 95.0344 109.549 94.8586 109.77 94.6C111.925 92.0427 114.755 90.1422 117.938 89.1149C121.12 88.0877 124.527 87.9751 127.77 88.79C128.027 88.8578 128.298 88.8565 128.554 88.7862C128.81 88.716 129.044 88.5793 129.23 88.39C132.11 85.48 135.18 84.15 138.36 84.39C144.53 84.94 149.65 91.39 151.18 93.5201C145.11 97.36 139.88 98.65 135.63 97.37C134.069 96.8434 132.635 95.9981 131.418 94.8878C130.201 93.7774 129.228 92.4263 128.56 90.92C128.486 90.7402 128.376 90.5774 128.237 90.4415C128.098 90.3057 127.932 90.1997 127.75 90.1301C123.57 88.4401 117.61 89.92 113.58 93.64C109.07 97.81 107.67 104 109.74 110.64C111.138 114.828 111.798 119.226 111.69 123.64C111.35 131.87 107.69 135.91 106.87 136.64C104.34 137.55 102.72 138.06 101.27 137.03C100.31 136.349 99.2317 135.851 98.0904 135.56C110.77 123.49 103.57 107.53 103.49 107.35ZM70.2104 166.88C72.6704 166.05 75.4504 165.11 75.4804 161.23C75.4804 157.97 75.8804 154.98 80.2004 154.13C84.5204 153.28 87.5004 152.13 87.2904 144.85C87.1304 138.93 92.9104 137.85 93.1504 137.85L93.3504 137.8C94.4258 137.459 95.5631 137.36 96.6813 137.509C97.7995 137.657 98.8713 138.05 99.8204 138.66C99.0223 139.491 98.4044 140.477 98.0052 141.558C97.606 142.639 97.4341 143.79 97.5004 144.94C97.6704 151.08 95.6604 151.48 92.0204 152.2C86.2004 153.35 85.8604 158.01 85.7404 159.55C85.7404 160.14 85.7404 160.72 85.7404 161.24C85.7404 163.59 84.4504 164.12 81.8204 165.01C78.8204 166.01 74.8804 167.37 73.5104 173.6H63.3104C64.4904 168.81 67.3904 167.83 70.2104 166.88Z" fill="#231C9C"/>
<path d="M130.54 91.5401C131.12 92.1301 134.38 95.1401 140.99 95.1401C142.988 95.1254 144.978 94.8805 146.92 94.4101C147.149 94.3633 147.355 94.2376 147.501 94.0549C147.647 93.8722 147.725 93.644 147.72 93.4101C147.72 93.1448 147.614 92.8905 147.427 92.703C147.239 92.5154 146.985 92.4101 146.72 92.4101C146.579 92.4105 146.44 92.4377 146.31 92.4901C143.13 93.3214 139.793 93.3489 136.6 92.5701C138.049 91.3817 139.888 90.7725 141.76 90.8601H141.82C142.085 90.8601 142.339 90.7547 142.527 90.5672C142.714 90.3796 142.82 90.1253 142.82 89.8601C142.82 89.5948 142.714 89.3405 142.527 89.1529C142.339 88.9654 142.085 88.8601 141.82 88.8601C141.767 88.8544 141.713 88.8544 141.66 88.8601C140.325 88.8317 138.998 89.0771 137.762 89.581C136.525 90.0849 135.405 90.8367 134.47 91.7901C133.558 91.3862 132.722 90.8281 132 90.1401C131.907 90.0222 131.788 89.9268 131.653 89.8611C131.518 89.7953 131.37 89.7608 131.22 89.7601C130.955 89.7601 130.7 89.8654 130.513 90.053C130.325 90.2405 130.22 90.4948 130.22 90.7601C130.213 90.9055 130.238 91.0507 130.294 91.1854C130.349 91.3202 130.433 91.4412 130.54 91.5401Z" fill="url(#paint18_linear_524_506)"/>
<path d="M76.7106 91.0001C68.4806 86.3401 59.1106 89.6101 58.2406 89.9301C58.0224 89.9887 57.8305 90.1194 57.6962 90.301C57.5618 90.4826 57.4929 90.7043 57.5006 90.9301C57.5006 91.1953 57.6059 91.4496 57.7935 91.6372C57.981 91.8247 58.2354 91.9301 58.5006 91.9301C58.6535 91.9256 58.8036 91.888 58.9406 91.8201C62.0042 90.8138 65.2335 90.4097 68.4506 90.6301C68.2106 91.5701 67.3106 93.6301 63.7806 94.5701C63.5154 94.6019 63.2737 94.7378 63.1086 94.9478C62.9436 95.1578 62.8688 95.4248 62.9006 95.6901C62.9324 95.9553 63.0683 96.197 63.2783 96.362C63.4884 96.5271 63.7554 96.6019 64.0206 96.5701C64.1037 96.5795 64.1875 96.5795 64.2706 96.5701L64.4406 96.5201C69.0106 95.2901 70.1406 92.3101 70.4406 90.9601C72.3456 91.2895 74.1792 91.9458 75.8606 92.9001C76.011 92.9934 76.1836 93.0452 76.3606 93.0501C76.6258 93.0501 76.8802 92.9447 77.0677 92.7572C77.2552 92.5696 77.3606 92.3153 77.3606 92.0501C77.3854 91.8275 77.3349 91.6031 77.217 91.4127C77.0992 91.2224 76.9208 91.077 76.7106 91.0001Z" fill="url(#paint19_linear_524_506)"/>
<path d="M127.091 53.8001C127.093 49.3041 125.761 44.9085 123.265 41.1692C120.769 37.43 117.219 34.5151 113.066 32.7932C108.913 31.0712 104.342 30.6197 99.9326 31.4956C95.5228 32.3715 91.4717 34.5355 88.2919 37.714C85.112 40.8924 82.9462 44.9425 82.0684 49.352C81.1905 53.7615 81.64 58.3322 83.3601 62.4862C85.0802 66.6401 87.9936 70.1906 91.7317 72.6887C95.4699 75.1867 99.8649 76.5201 104.361 76.5201C110.386 76.5148 116.163 74.1197 120.424 69.8603C124.685 65.6009 127.083 59.8251 127.091 53.8001ZM83.6309 53.8001C83.6289 49.6996 84.843 45.6907 87.1196 42.2804C89.3963 38.87 92.6332 36.2115 96.4209 34.6409C100.209 33.0704 104.377 32.6584 108.399 33.4572C112.421 34.2559 116.116 36.2295 119.016 39.1282C121.916 42.027 123.891 45.7207 124.692 49.7422C125.492 53.7637 125.083 57.9323 123.514 61.7208C121.945 65.5093 119.288 68.7475 115.879 71.0257C112.47 73.304 108.461 74.5201 104.361 74.5201C98.8663 74.5148 93.5981 72.3304 89.7119 68.4461C85.8257 64.5618 83.6388 59.2947 83.6309 53.8001Z" fill="url(#paint20_linear_524_506)"/>
<defs>
<linearGradient id="paint0_linear_524_506" x1="0.880001" y1="91.87" x2="5.11" y2="87.64" gradientUnits="userSpaceOnUse">
<stop stop-color="#21002A"/>
<stop offset="1" stop-color="#5B007F"/>
</linearGradient>
<linearGradient id="paint1_linear_524_506" x1="134.9" y1="202.2" x2="139.13" y2="197.97" gradientUnits="userSpaceOnUse">
<stop stop-color="#21002A"/>
<stop offset="1" stop-color="#5B007F"/>
</linearGradient>
<linearGradient id="paint2_linear_524_506" x1="174.169" y1="39.01" x2="178.399" y2="34.78" gradientUnits="userSpaceOnUse">
<stop stop-color="#21002A"/>
<stop offset="1" stop-color="#5B007F"/>
</linearGradient>
<linearGradient id="paint3_linear_524_506" x1="71.7106" y1="4.66995" x2="73.6606" y2="2.71995" gradientUnits="userSpaceOnUse">
<stop stop-color="#21002A"/>
<stop offset="1" stop-color="#5B007F"/>
</linearGradient>
<linearGradient id="paint4_linear_524_506" x1="73.8798" y1="2.54" x2="75.7998" y2="0.62" gradientUnits="userSpaceOnUse">
<stop stop-color="#21002A"/>
<stop offset="1" stop-color="#5B007F"/>
</linearGradient>
<linearGradient id="paint5_linear_524_506" x1="76.0809" y1="4.65995" x2="77.9909" y2="2.73995" gradientUnits="userSpaceOnUse">
<stop stop-color="#21002A"/>
<stop offset="1" stop-color="#5B007F"/>
</linearGradient>
<linearGradient id="paint6_linear_524_506" x1="73.8798" y1="6.76995" x2="75.7998" y2="4.85995" gradientUnits="userSpaceOnUse">
<stop stop-color="#21002A"/>
<stop offset="1" stop-color="#5B007F"/>
</linearGradient>
<linearGradient id="paint7_linear_524_506" x1="196.169" y1="129.4" x2="198.119" y2="127.45" gradientUnits="userSpaceOnUse">
<stop stop-color="#21002A"/>
<stop offset="1" stop-color="#5B007F"/>
</linearGradient>
<linearGradient id="paint8_linear_524_506" x1="198.349" y1="127.26" x2="200.259" y2="125.35" gradientUnits="userSpaceOnUse">
<stop stop-color="#21002A"/>
<stop offset="1" stop-color="#5B007F"/>
</linearGradient>
<linearGradient id="paint9_linear_524_506" x1="200.54" y1="129.38" x2="202.46" y2="127.47" gradientUnits="userSpaceOnUse">
<stop stop-color="#21002A"/>
<stop offset="1" stop-color="#5B007F"/>
</linearGradient>
<linearGradient id="paint10_linear_524_506" x1="198.349" y1="131.5" x2="200.259" y2="129.58" gradientUnits="userSpaceOnUse">
<stop stop-color="#21002A"/>
<stop offset="1" stop-color="#5B007F"/>
</linearGradient>
<linearGradient id="paint11_linear_524_506" x1="21.3002" y1="181.24" x2="23.2602" y2="179.29" gradientUnits="userSpaceOnUse">
<stop stop-color="#21002A"/>
<stop offset="1" stop-color="#5B007F"/>
</linearGradient>
<linearGradient id="paint12_linear_524_506" x1="23.4795" y1="179.11" x2="25.3995" y2="177.19" gradientUnits="userSpaceOnUse">
<stop stop-color="#21002A"/>
<stop offset="1" stop-color="#5B007F"/>
</linearGradient>
<linearGradient id="paint13_linear_524_506" x1="25.6805" y1="181.22" x2="27.5905" y2="179.31" gradientUnits="userSpaceOnUse">
<stop stop-color="#21002A"/>
<stop offset="1" stop-color="#5B007F"/>
</linearGradient>
<linearGradient id="paint14_linear_524_506" x1="23.4795" y1="183.34" x2="25.3995" y2="181.43" gradientUnits="userSpaceOnUse">
<stop stop-color="#21002A"/>
<stop offset="1" stop-color="#5B007F"/>
</linearGradient>
<linearGradient id="paint15_linear_524_506" x1="86.1394" y1="120.27" x2="94.0594" y2="112.35" gradientUnits="userSpaceOnUse">
<stop stop-color="#4D006A"/>
<stop offset="1" stop-color="#8B00FF"/>
</linearGradient>
<linearGradient id="paint16_linear_524_506" x1="121.69" y1="118.08" x2="131" y2="108.76" gradientUnits="userSpaceOnUse">
<stop stop-color="#4D006A"/>
<stop offset="1" stop-color="#8B00FF"/>
</linearGradient>
<linearGradient id="paint17_linear_524_506" x1="100.239" y1="92.46" x2="113.599" y2="79.1" gradientUnits="userSpaceOnUse">
<stop stop-color="#4D006A"/>
<stop offset="1" stop-color="#8B00FF"/>
</linearGradient>
<linearGradient id="paint18_linear_524_506" x1="135.02" y1="96.0201" x2="142.87" y2="88.1701" gradientUnits="userSpaceOnUse">
<stop stop-color="#21002A"/>
<stop offset="1" stop-color="#5B007F"/>
</linearGradient>
<linearGradient id="paint19_linear_524_506" x1="62.5306" y1="96.3401" x2="72.3706" y2="86.5101" gradientUnits="userSpaceOnUse">
<stop stop-color="#21002A"/>
<stop offset="1" stop-color="#5B007F"/>
</linearGradient>
<linearGradient id="paint20_linear_524_506" x1="88.3009" y1="69.8601" x2="120.421" y2="37.7301" gradientUnits="userSpaceOnUse">
<stop stop-color="#21002A"/>
<stop offset="1" stop-color="#5B007F"/>
</linearGradient>
</defs>
</svg>
