<svg width="203" height="203" viewBox="0 0 203 203" fill="none" xmlns="http://www.w3.org/2000/svg">
<path d="M53.9998 132.14C53.7157 131.613 53.2737 131.187 52.7357 130.924C52.1977 130.66 51.5907 130.571 50.9998 130.67C45.0998 131.67 28.1098 132.19 26.7898 105.74C25.1898 73.67 64.0698 18.9 121.15 29.79C167.01 38.54 132.77 82.16 160.86 93.17C177.3 99.61 192.16 132.64 155.65 161.33C135.91 176.84 85.2398 190.55 53.9998 132.14Z" fill="#FFB1B6"/>
<path d="M3 139.74C2.40666 139.74 1.82664 139.564 1.33329 139.234C0.839943 138.905 0.455426 138.436 0.228363 137.888C0.00129986 137.34 -0.0581102 136.737 0.0576455 136.155C0.173401 135.573 0.459123 135.038 0.878681 134.619C1.29824 134.199 1.83279 133.913 2.41473 133.798C2.99667 133.682 3.59987 133.741 4.14805 133.968C4.69623 134.195 5.16477 134.58 5.49441 135.073C5.82405 135.567 6 136.147 6 136.74C6 137.536 5.68393 138.299 5.12132 138.861C4.55871 139.424 3.79565 139.74 3 139.74ZM3 135.74C2.73478 135.74 2.48043 135.845 2.29289 136.033C2.10536 136.22 2 136.475 2 136.74C2 137.005 2.10536 137.26 2.29289 137.447C2.48043 137.635 2.73478 137.74 3 137.74C3.26522 137.74 3.51957 137.635 3.70711 137.447C3.89464 137.26 4 137.005 4 136.74C4 136.475 3.89464 136.22 3.70711 136.033C3.51957 135.845 3.26522 135.74 3 135.74Z" fill="url(#paint0_linear_522_417)"/>
<path d="M200 69.6C199.407 69.6 198.827 69.424 198.333 69.0944C197.84 68.7647 197.455 68.2962 197.228 67.748C197.001 67.1998 196.942 66.5967 197.058 66.0147C197.173 65.4328 197.459 64.8982 197.879 64.4787C198.298 64.0591 198.833 63.7734 199.415 63.6576C199.997 63.5419 200.6 63.6013 201.148 63.8283C201.696 64.0554 202.165 64.4399 202.494 64.9333C202.824 65.4266 203 66.0066 203 66.6C203 67.3956 202.684 68.1587 202.121 68.7213C201.559 69.2839 200.796 69.6 200 69.6ZM200 65.6C199.802 65.6 199.609 65.6586 199.444 65.7685C199.28 65.8784 199.152 66.0346 199.076 66.2173C199 66.4 198.981 66.6011 199.019 66.7951C199.058 66.989 199.153 67.1672 199.293 67.3071C199.433 67.4469 199.611 67.5422 199.805 67.5808C199.999 67.6194 200.2 67.5995 200.383 67.5239C200.565 67.4482 200.722 67.32 200.831 67.1555C200.941 66.9911 201 66.7978 201 66.6C200.997 66.3365 200.891 66.0847 200.704 65.8993C200.516 65.7139 200.263 65.61 200 65.61V65.6Z" fill="url(#paint1_linear_522_417)"/>
<path d="M80.1308 3.62C80.1308 3.35478 80.0254 3.10042 79.8379 2.91289C79.6503 2.72535 79.396 2.62 79.1308 2.62H78.0508C77.7856 2.62 77.5312 2.72535 77.3437 2.91289C77.1561 3.10042 77.0508 3.35478 77.0508 3.62C77.0508 3.88521 77.1561 4.13957 77.3437 4.3271C77.5312 4.51464 77.7856 4.62 78.0508 4.62H79.1308C79.396 4.62 79.6503 4.51464 79.8379 4.3271C80.0254 4.13957 80.1308 3.88521 80.1308 3.62Z" fill="url(#paint2_linear_522_417)"/>
<path d="M80.7402 3.00001C81.0055 3.00001 81.2598 2.89465 81.4473 2.70711C81.6349 2.51958 81.7402 2.26522 81.7402 2.00001V0.920005C81.7201 0.668891 81.6059 0.434634 81.4205 0.264069C81.2351 0.0935036 80.9922 -0.000802199 80.7402 5.1411e-06C80.4883 -0.000802199 80.2454 0.0935036 80.06 0.264069C79.8746 0.434634 79.7604 0.668891 79.7402 0.920005V2.00001C79.7402 2.26522 79.8456 2.51958 80.0331 2.70711C80.2207 2.89465 80.475 3.00001 80.7402 3.00001Z" fill="url(#paint3_linear_522_417)"/>
<path d="M83.4413 2.62H82.3613C82.0961 2.62 81.8418 2.72535 81.6542 2.91289C81.4667 3.10042 81.3613 3.35478 81.3613 3.62C81.3613 3.88521 81.4667 4.13957 81.6542 4.3271C81.8418 4.51464 82.0961 4.62 82.3613 4.62H83.4413C83.7065 4.62 83.9609 4.51464 84.1484 4.3271C84.336 4.13957 84.4413 3.88521 84.4413 3.62C84.4413 3.35478 84.336 3.10042 84.1484 2.91289C83.9609 2.72535 83.7065 2.62 83.4413 2.62Z" fill="url(#paint4_linear_522_417)"/>
<path d="M80.7402 4.23999C80.475 4.23999 80.2207 4.34535 80.0331 4.53288C79.8456 4.72042 79.7402 4.97477 79.7402 5.23999V6.31999C79.7604 6.57111 79.8746 6.80536 80.06 6.97593C80.2454 7.14649 80.4883 7.2408 80.7402 7.23999C80.9922 7.2408 81.2351 7.14649 81.4205 6.97593C81.6059 6.80536 81.7201 6.57111 81.7402 6.31999V5.23999C81.7402 4.97477 81.6349 4.72042 81.4473 4.53288C81.2598 4.34535 81.0055 4.23999 80.7402 4.23999Z" fill="url(#paint5_linear_522_417)"/>
<path d="M135.51 199.38C135.51 199.115 135.404 198.86 135.217 198.673C135.029 198.485 134.775 198.38 134.51 198.38H133.43C133.164 198.38 132.91 198.485 132.723 198.673C132.535 198.86 132.43 199.115 132.43 199.38C132.43 199.645 132.535 199.9 132.723 200.087C132.91 200.275 133.164 200.38 133.43 200.38H134.51C134.775 200.38 135.029 200.275 135.217 200.087C135.404 199.9 135.51 199.645 135.51 199.38Z" fill="url(#paint6_linear_522_417)"/>
<path d="M136.129 198.76C136.394 198.76 136.648 198.655 136.836 198.467C137.024 198.28 137.129 198.025 137.129 197.76V196.69C137.111 196.437 136.998 196.2 136.812 196.028C136.627 195.855 136.382 195.759 136.129 195.76C135.875 195.759 135.631 195.855 135.445 196.028C135.26 196.2 135.147 196.437 135.129 196.69V197.76C135.129 198.025 135.234 198.28 135.422 198.467C135.609 198.655 135.864 198.76 136.129 198.76Z" fill="url(#paint7_linear_522_417)"/>
<path d="M138.82 198.38H137.74C137.475 198.38 137.221 198.485 137.033 198.673C136.846 198.86 136.74 199.115 136.74 199.38C136.74 199.645 136.846 199.9 137.033 200.087C137.221 200.275 137.475 200.38 137.74 200.38H138.82C139.085 200.38 139.34 200.275 139.527 200.087C139.715 199.9 139.82 199.645 139.82 199.38C139.82 199.115 139.715 198.86 139.527 198.673C139.34 198.485 139.085 198.38 138.82 198.38Z" fill="url(#paint8_linear_522_417)"/>
<path d="M136.129 200C135.864 200 135.609 200.105 135.422 200.293C135.234 200.48 135.129 200.735 135.129 201V202.08C135.149 202.331 135.263 202.565 135.449 202.736C135.634 202.906 135.877 203.001 136.129 203C136.381 203.001 136.624 202.906 136.809 202.736C136.995 202.565 137.109 202.331 137.129 202.08V201C137.129 200.735 137.024 200.48 136.836 200.293C136.648 200.105 136.394 200 136.129 200Z" fill="url(#paint9_linear_522_417)"/>
<path d="M158.331 51.8C158.417 51.7022 158.538 51.6414 158.669 51.6302C158.799 51.6191 158.929 51.6584 159.031 51.74L164.661 56C164.741 56.0612 164.837 56.0981 164.938 56.1063C165.039 56.1145 165.14 56.0938 165.229 56.0465C165.319 55.9992 165.393 55.9273 165.443 55.8393C165.492 55.7513 165.516 55.651 165.511 55.55L164.811 37.71C164.803 37.5685 164.74 37.4357 164.635 37.3403C164.53 37.2449 164.392 37.1945 164.251 37.2L146.431 37.95C146.328 37.9537 146.229 37.9871 146.145 38.0462C146.061 38.1053 145.996 38.1875 145.958 38.2828C145.92 38.3781 145.91 38.4825 145.93 38.5832C145.95 38.6838 145.999 38.7765 146.071 38.85L151.411 44.59C151.462 44.6402 151.502 44.7002 151.53 44.7663C151.558 44.8324 151.572 44.9033 151.572 44.975C151.572 45.0467 151.558 45.1176 151.53 45.1837C151.502 45.2498 151.462 45.3097 151.411 45.36L151.641 45.16C151.641 45.16 110.361 91.22 42.6407 87.85C42.5707 87.8 115.851 103.63 158.331 51.8Z" fill="white"/>
<path d="M108.83 83.59C108.83 83.59 152.62 65 157.68 37.43L164.25 37.15L165.51 55.5L159 51.74C159 51.74 139 77 108.83 83.59Z" fill="#FFC4C4"/>
<path d="M57.0709 108.52H46.4109C44.9198 108.52 43.7109 109.729 43.7109 111.22V141.34C43.7109 142.831 44.9198 144.04 46.4109 144.04H57.0709C58.5621 144.04 59.7709 142.831 59.7709 141.34V111.22C59.7709 109.729 58.5621 108.52 57.0709 108.52Z" fill="white"/>
<path d="M56.6297 118.26H46.8397C45.6468 118.26 44.6797 119.227 44.6797 120.42V141.89C44.6797 143.083 45.6468 144.05 46.8397 144.05H56.6297C57.8226 144.05 58.7897 143.083 58.7897 141.89V120.42C58.7897 119.227 57.8226 118.26 56.6297 118.26Z" fill="#FFCCCC"/>
<path d="M82.8709 103.07H72.6109C71.0093 103.07 69.7109 104.368 69.7109 105.97V141.14C69.7109 142.742 71.0093 144.04 72.6109 144.04H82.8709C84.4726 144.04 85.7709 142.742 85.7709 141.14V105.97C85.7709 104.368 84.4726 103.07 82.8709 103.07Z" fill="white"/>
<path d="M82.2007 103.07H72.8507C71.5363 103.07 70.4707 104.136 70.4707 105.45V132.15C70.4707 133.464 71.5363 134.53 72.8507 134.53H82.2007C83.5151 134.53 84.5807 133.464 84.5807 132.15V105.45C84.5807 104.136 83.5151 103.07 82.2007 103.07Z" fill="#FFC4C4"/>
<path d="M109.581 97.05H98.9207C97.4295 97.05 96.2207 98.2589 96.2207 99.75V141.35C96.2207 142.841 97.4295 144.05 98.9207 144.05H109.581C111.072 144.05 112.281 142.841 112.281 141.35V99.75C112.281 98.2589 111.072 97.05 109.581 97.05Z" fill="white"/>
<path d="M109.01 106.77H99.4004C98.1577 106.77 97.1504 107.777 97.1504 109.02V141.8C97.1504 143.043 98.1577 144.05 99.4004 144.05H109.01C110.253 144.05 111.26 143.043 111.26 141.8V109.02C111.26 107.777 110.253 106.77 109.01 106.77Z" fill="#FFC4C4"/>
<path d="M136.331 89.03H125.671C124.18 89.03 122.971 90.2389 122.971 91.73V141.34C122.971 142.831 124.18 144.04 125.671 144.04H136.331C137.822 144.04 139.031 142.831 139.031 141.34V91.73C139.031 90.2389 137.822 89.03 136.331 89.03Z" fill="white"/>
<path d="M135.76 89.03H126.32C125.049 89.03 124.02 90.0598 124.02 91.33V132.23C124.02 133.5 125.049 134.53 126.32 134.53H135.76C137.03 134.53 138.06 133.5 138.06 132.23V91.33C138.06 90.0598 137.03 89.03 135.76 89.03Z" fill="#FFC4C4"/>
<path d="M163.09 74.64H152.43C150.939 74.64 149.73 75.8488 149.73 77.34V141.34C149.73 142.831 150.939 144.04 152.43 144.04H163.09C164.582 144.04 165.79 142.831 165.79 141.34V77.34C165.79 75.8488 164.582 74.64 163.09 74.64Z" fill="white"/>
<path d="M162.429 85.55H152.939C151.658 85.55 150.619 86.5887 150.619 87.87V141.72C150.619 143.001 151.658 144.04 152.939 144.04H162.429C163.71 144.04 164.749 143.001 164.749 141.72V87.87C164.749 86.5887 163.71 85.55 162.429 85.55Z" fill="#FFC4C4"/>
<path d="M103.491 158.98H95.4509C94.7218 158.98 94.1309 159.571 94.1309 160.3V168.34C94.1309 169.069 94.7218 169.66 95.4509 169.66H103.491C104.22 169.66 104.811 169.069 104.811 168.34V160.3C104.811 159.571 104.22 158.98 103.491 158.98Z" fill="#FFCCCC"/>
<path d="M55.7604 158.98H47.7204C46.9914 158.98 46.4004 159.571 46.4004 160.3V168.34C46.4004 169.069 46.9914 169.66 47.7204 169.66H55.7604C56.4894 169.66 57.0804 169.069 57.0804 168.34V160.3C57.0804 159.571 56.4894 158.98 55.7604 158.98Z" fill="white"/>
<path d="M46.4109 107.52C45.925 107.52 45.4439 107.616 44.995 107.802C44.5461 107.988 44.1382 108.26 43.7946 108.604C43.4511 108.947 43.1785 109.355 42.9926 109.804C42.8066 110.253 42.7109 110.734 42.7109 111.22V141.34C42.7109 142.321 43.1008 143.262 43.7946 143.956C44.4885 144.65 45.4296 145.04 46.4109 145.04H57.0709C58.0522 145.04 58.9933 144.65 59.6872 143.956C60.3811 143.262 60.7709 142.321 60.7709 141.34V111.22C60.7709 110.734 60.6752 110.253 60.4893 109.804C60.3033 109.355 60.0308 108.947 59.6872 108.604C59.3437 108.26 58.9358 107.988 58.4869 107.802C58.038 107.616 57.5568 107.52 57.0709 107.52H46.4109ZM58.7709 111.22V141.34C58.7709 141.791 58.5918 142.223 58.273 142.542C57.9542 142.861 57.5218 143.04 57.0709 143.04H46.4109C45.9601 143.04 45.5277 142.861 45.2089 142.542C44.89 142.223 44.7109 141.791 44.7109 141.34V111.22C44.7109 110.769 44.89 110.337 45.2089 110.018C45.5277 109.699 45.9601 109.52 46.4109 109.52H57.0709C57.5218 109.52 57.9542 109.699 58.273 110.018C58.5918 110.337 58.7709 110.769 58.7709 111.22Z" fill="#6A0505"/>
<path d="M72.1609 102.07C71.1796 102.07 70.2385 102.46 69.5446 103.154C68.8508 103.848 68.4609 104.789 68.4609 105.77V141.34C68.4609 142.321 68.8508 143.262 69.5446 143.956C70.2385 144.65 71.1796 145.04 72.1609 145.04H82.8209C83.8022 145.04 84.7433 144.65 85.4372 143.956C86.1311 143.262 86.5209 142.321 86.5209 141.34V105.77C86.5209 104.789 86.1311 103.848 85.4372 103.154C84.7433 102.46 83.8022 102.07 82.8209 102.07H72.1609ZM84.5209 105.77V141.34C84.5209 141.791 84.3418 142.223 84.023 142.542C83.7042 142.861 83.2718 143.04 82.8209 143.04H72.1609C71.7101 143.04 71.2777 142.861 70.9589 142.542C70.64 142.223 70.4609 141.791 70.4609 141.34V105.77C70.4609 105.319 70.64 104.887 70.9589 104.568C71.2777 104.249 71.7101 104.07 72.1609 104.07H82.8209C83.2718 104.07 83.7042 104.249 84.023 104.568C84.3418 104.887 84.5209 105.319 84.5209 105.77Z" fill="url(#paint10_linear_522_417)"/>
<path d="M98.9207 96.05C97.9394 96.05 96.9983 96.4399 96.3044 97.1338C95.6105 97.8276 95.2207 98.7687 95.2207 99.75V141.34C95.2207 142.321 95.6105 143.262 96.3044 143.956C96.9983 144.65 97.9394 145.04 98.9207 145.04H109.581C110.562 145.04 111.503 144.65 112.197 143.956C112.891 143.262 113.281 142.321 113.281 141.34V99.75C113.281 98.7687 112.891 97.8276 112.197 97.1338C111.503 96.4399 110.562 96.05 109.581 96.05H98.9207ZM111.281 99.75V141.34C111.281 141.563 111.237 141.784 111.151 141.991C111.066 142.197 110.941 142.384 110.783 142.542C110.625 142.7 110.438 142.825 110.231 142.911C110.025 142.996 109.804 143.04 109.581 143.04H98.9207C98.6975 143.04 98.4764 142.996 98.2701 142.911C98.0639 142.825 97.8765 142.7 97.7186 142.542C97.5608 142.384 97.4355 142.197 97.3501 141.991C97.2647 141.784 97.2207 141.563 97.2207 141.34V99.75C97.2207 99.5268 97.2647 99.3057 97.3501 99.0995C97.4355 98.8932 97.5608 98.7058 97.7186 98.548C97.8765 98.3901 98.0639 98.2649 98.2701 98.1795C98.4764 98.094 98.6975 98.05 98.9207 98.05H109.581C109.804 98.05 110.025 98.094 110.231 98.1795C110.438 98.2649 110.625 98.3901 110.783 98.548C110.941 98.7058 111.066 98.8932 111.151 99.0995C111.237 99.3057 111.281 99.5268 111.281 99.75Z" fill="url(#paint11_linear_522_417)"/>
<path d="M125.671 88C124.689 88 123.748 88.3898 123.054 89.0837C122.361 89.7776 121.971 90.7187 121.971 91.7V141.31C121.971 142.291 122.361 143.232 123.054 143.926C123.748 144.62 124.689 145.01 125.671 145.01H136.331C137.312 145.01 138.253 144.62 138.947 143.926C139.641 143.232 140.031 142.291 140.031 141.31V91.73C140.031 90.7487 139.641 89.8076 138.947 89.1137C138.253 88.4198 137.312 88.03 136.331 88.03L125.671 88ZM138.001 91.73V141.34C138.001 141.791 137.822 142.223 137.503 142.542C137.184 142.861 136.752 143.04 136.301 143.04H125.671C125.22 143.04 124.787 142.861 124.469 142.542C124.15 142.223 123.971 141.791 123.971 141.34V91.73C123.971 91.2791 124.15 90.8467 124.469 90.5279C124.787 90.2091 125.22 90.03 125.671 90.03H136.331C136.776 90.0379 137.201 90.2204 137.513 90.5384C137.826 90.8564 138.001 91.2843 138.001 91.73Z" fill="url(#paint12_linear_522_417)"/>
<path d="M163.09 73.64H152.43C151.449 73.64 150.508 74.0298 149.814 74.7237C149.12 75.4176 148.73 76.3587 148.73 77.34V141.34C148.73 142.321 149.12 143.262 149.814 143.956C150.508 144.65 151.449 145.04 152.43 145.04H163.09C164.072 145.04 165.013 144.65 165.707 143.956C166.401 143.262 166.79 142.321 166.79 141.34V77.34C166.79 76.3587 166.401 75.4176 165.707 74.7237C165.013 74.0298 164.072 73.64 163.09 73.64ZM164.79 141.34C164.79 141.791 164.611 142.223 164.293 142.542C163.974 142.861 163.541 143.04 163.09 143.04H152.43C151.98 143.04 151.547 142.861 151.228 142.542C150.91 142.223 150.73 141.791 150.73 141.34V77.34C150.73 76.8891 150.91 76.4567 151.228 76.1379C151.547 75.8191 151.98 75.64 152.43 75.64H163.09C163.541 75.64 163.974 75.8191 164.293 76.1379C164.611 76.4567 164.79 76.8891 164.79 77.34V141.34Z" fill="url(#paint13_linear_522_417)"/>
<path d="M42.3614 88.76C51.0191 90.3528 59.8086 91.1196 68.6114 91.05C73.9559 91.0545 79.2968 90.7741 84.6114 90.21C106.261 87.9 136.611 79.53 158.781 52.8L164.051 56.73C164.283 56.9049 164.56 57.0102 164.849 57.0337C165.139 57.0571 165.429 56.9977 165.686 56.8625C165.943 56.7272 166.156 56.5216 166.3 56.2697C166.445 56.0178 166.514 55.7301 166.501 55.44L165.801 37.6C165.785 37.1928 165.609 36.8084 165.311 36.53C165.007 36.2574 164.609 36.1139 164.201 36.13L146.381 36.88C146.089 36.8941 145.807 36.9912 145.568 37.16C145.328 37.3288 145.142 37.5622 145.031 37.833C144.92 38.1037 144.888 38.4006 144.939 38.6887C144.991 38.9769 145.123 39.2444 145.321 39.46L150.391 44.91C145.731 49.79 105.391 89.91 42.6114 86.78C42.3462 86.78 42.0918 86.8854 41.9043 87.0729C41.7168 87.2604 41.6114 87.5148 41.6114 87.78C41.6088 88.0037 41.6812 88.2218 41.8172 88.3995C41.9532 88.5772 42.1448 88.7041 42.3614 88.76ZM152.361 45.76C152.506 45.5356 152.589 45.2768 152.601 45.01C152.612 44.8038 152.581 44.5977 152.51 44.4036C152.44 44.2096 152.332 44.0316 152.191 43.88L147.541 38.88L163.881 38.19L164.531 54.58L159.681 50.96C159.374 50.7228 158.986 50.6143 158.6 50.6572C158.214 50.7001 157.859 50.8911 157.611 51.19C135.841 77.66 105.831 86 84.4814 88.24C75.7082 89.1603 66.8718 89.3176 58.0714 88.71C116.351 85.16 152.001 46.21 152.341 45.78L152.361 45.76ZM150.611 44.71C150.642 44.6473 150.683 44.59 150.731 44.54L150.611 44.71Z" fill="url(#paint14_linear_522_417)"/>
<path d="M174.271 150.51H35.0008V36.36C35.0008 36.0948 34.8954 35.8404 34.7079 35.6529C34.5204 35.4653 34.266 35.36 34.0008 35.36C33.7356 35.36 33.4812 35.4653 33.2937 35.6529C33.1061 35.8404 33.0008 36.0948 33.0008 36.36V150.51H29.8008C29.5356 150.51 29.2812 150.615 29.0937 150.803C28.9061 150.99 28.8008 151.245 28.8008 151.51C28.8008 151.775 28.9061 152.03 29.0937 152.217C29.2812 152.405 29.5356 152.51 29.8008 152.51H33.0008V155.66C33.0008 155.925 33.1061 156.18 33.2937 156.367C33.4812 156.555 33.7356 156.66 34.0008 156.66C34.266 156.66 34.5204 156.555 34.7079 156.367C34.8954 156.18 35.0008 155.925 35.0008 155.66V152.51H174.271C174.536 152.51 174.79 152.405 174.978 152.217C175.165 152.03 175.271 151.775 175.271 151.51C175.271 151.245 175.165 150.99 174.978 150.803C174.79 150.615 174.536 150.51 174.271 150.51Z" fill="url(#paint15_linear_522_417)"/>
<path d="M128.331 160.83H112.551C112.286 160.83 112.031 160.935 111.844 161.123C111.656 161.31 111.551 161.565 111.551 161.83C111.551 162.095 111.656 162.35 111.844 162.537C112.031 162.725 112.286 162.83 112.551 162.83H128.331C128.596 162.83 128.85 162.725 129.038 162.537C129.225 162.35 129.331 162.095 129.331 161.83C129.331 161.565 129.225 161.31 129.038 161.123C128.85 160.935 128.596 160.83 128.331 160.83Z" fill="url(#paint16_linear_522_417)"/>
<path d="M128.331 165.83H112.551C112.286 165.83 112.031 165.935 111.844 166.123C111.656 166.31 111.551 166.565 111.551 166.83C111.551 167.095 111.656 167.35 111.844 167.537C112.031 167.725 112.286 167.83 112.551 167.83H128.331C128.596 167.83 128.85 167.725 129.038 167.537C129.225 167.35 129.331 167.095 129.331 166.83C129.331 166.565 129.225 166.31 129.038 166.123C128.85 165.935 128.596 165.83 128.331 165.83Z" fill="url(#paint17_linear_522_417)"/>
<path d="M80.3308 160.82H64.5508C64.2856 160.82 64.0312 160.925 63.8437 161.113C63.6561 161.3 63.5508 161.555 63.5508 161.82C63.5508 162.085 63.6561 162.34 63.8437 162.527C64.0312 162.715 64.2856 162.82 64.5508 162.82H80.3308C80.596 162.82 80.8504 162.715 81.0379 162.527C81.2254 162.34 81.3308 162.085 81.3308 161.82C81.3308 161.555 81.2254 161.3 81.0379 161.113C80.8504 160.925 80.596 160.82 80.3308 160.82Z" fill="url(#paint18_linear_522_417)"/>
<path d="M80.3308 165.82H64.5508C64.2856 165.82 64.0312 165.925 63.8437 166.113C63.6561 166.3 63.5508 166.555 63.5508 166.82C63.5508 167.085 63.6561 167.34 63.8437 167.527C64.0312 167.715 64.2856 167.82 64.5508 167.82H80.3308C80.596 167.82 80.8504 167.715 81.0379 167.527C81.2254 167.34 81.3308 167.085 81.3308 166.82C81.3308 166.555 81.2254 166.3 81.0379 166.113C80.8504 165.925 80.596 165.82 80.3308 165.82Z" fill="url(#paint19_linear_522_417)"/>
<path d="M55.7614 158H47.7614C47.1461 158 46.556 158.244 46.1209 158.68C45.6858 159.115 45.4414 159.705 45.4414 160.32V168.32C45.4414 168.935 45.6858 169.525 46.1209 169.96C46.556 170.396 47.1461 170.64 47.7614 170.64H55.7614C56.3767 170.64 56.9668 170.396 57.4019 169.96C57.837 169.525 58.0814 168.935 58.0814 168.32V160.32C58.0814 159.705 57.837 159.115 57.4019 158.68C56.9668 158.244 56.3767 158 55.7614 158ZM56.0814 168.37C56.0789 168.454 56.0444 168.534 55.9849 168.593C55.9254 168.653 55.8455 168.687 55.7614 168.69H47.7614C47.6765 168.69 47.5951 168.656 47.5351 168.596C47.4751 168.536 47.4414 168.455 47.4414 168.37V160.37C47.4414 160.285 47.4751 160.204 47.5351 160.144C47.5951 160.084 47.6765 160.05 47.7614 160.05H55.7614C55.8455 160.053 55.9254 160.087 55.9849 160.147C56.0444 160.206 56.0789 160.286 56.0814 160.37V168.37Z" fill="url(#paint20_linear_522_417)"/>
<path d="M103.49 158H95.4899C94.8746 158 94.2845 158.244 93.8494 158.68C93.4143 159.115 93.1699 159.705 93.1699 160.32V168.32C93.1699 168.935 93.4143 169.525 93.8494 169.96C94.2845 170.396 94.8746 170.64 95.4899 170.64H103.49C104.105 170.64 104.695 170.396 105.13 169.96C105.565 169.525 105.81 168.935 105.81 168.32V160.32C105.81 159.705 105.565 159.115 105.13 158.68C104.695 158.244 104.105 158 103.49 158ZM103.81 168.37C103.807 168.454 103.773 168.534 103.713 168.593C103.654 168.653 103.574 168.687 103.49 168.69H95.4899C95.4051 168.69 95.3237 168.656 95.2636 168.596C95.2036 168.536 95.1699 168.455 95.1699 168.37V160.37C95.1699 160.285 95.2036 160.204 95.2636 160.144C95.3237 160.084 95.4051 160.05 95.4899 160.05H103.49C103.574 160.053 103.654 160.087 103.713 160.147C103.773 160.206 103.807 160.286 103.81 160.37V168.37Z" fill="#6A0505"/>
<defs>
<linearGradient id="paint0_linear_522_417" x1="0.880001" y1="138.86" x2="5.11001" y2="134.63" gradientUnits="userSpaceOnUse">
<stop stop-color="#3F0101"/>
<stop offset="1" stop-color="#700505"/>
</linearGradient>
<linearGradient id="paint1_linear_522_417" x1="197.89" y1="68.72" x2="202.13" y2="64.49" gradientUnits="userSpaceOnUse">
<stop stop-color="#3F0101"/>
<stop offset="1" stop-color="#700505"/>
</linearGradient>
<linearGradient id="paint2_linear_522_417" x1="77.6108" y1="4.59" x2="79.5608" y2="2.64" gradientUnits="userSpaceOnUse">
<stop stop-color="#3F0101"/>
<stop offset="1" stop-color="#700505"/>
</linearGradient>
<linearGradient id="paint3_linear_522_417" x1="79.7902" y1="2.46001" x2="81.7002" y2="0.540005" gradientUnits="userSpaceOnUse">
<stop stop-color="#3F0101"/>
<stop offset="1" stop-color="#700505"/>
</linearGradient>
<linearGradient id="paint4_linear_522_417" x1="81.9813" y1="4.58" x2="83.9013" y2="2.65999" gradientUnits="userSpaceOnUse">
<stop stop-color="#3F0101"/>
<stop offset="1" stop-color="#700505"/>
</linearGradient>
<linearGradient id="paint5_linear_522_417" x1="79.7902" y1="6.68999" x2="81.7002" y2="4.77999" gradientUnits="userSpaceOnUse">
<stop stop-color="#3F0101"/>
<stop offset="1" stop-color="#700505"/>
</linearGradient>
<linearGradient id="paint6_linear_522_417" x1="132.99" y1="200.36" x2="134.95" y2="198.41" gradientUnits="userSpaceOnUse">
<stop stop-color="#3F0101"/>
<stop offset="1" stop-color="#700505"/>
</linearGradient>
<linearGradient id="paint7_linear_522_417" x1="135.169" y1="198.22" x2="137.079" y2="196.31" gradientUnits="userSpaceOnUse">
<stop stop-color="#3F0101"/>
<stop offset="1" stop-color="#700505"/>
</linearGradient>
<linearGradient id="paint8_linear_522_417" x1="137.37" y1="200.34" x2="139.28" y2="198.42" gradientUnits="userSpaceOnUse">
<stop stop-color="#3F0101"/>
<stop offset="1" stop-color="#700505"/>
</linearGradient>
<linearGradient id="paint9_linear_522_417" x1="135.169" y1="202.46" x2="137.079" y2="200.54" gradientUnits="userSpaceOnUse">
<stop stop-color="#3F0101"/>
<stop offset="1" stop-color="#700505"/>
</linearGradient>
<linearGradient id="paint10_linear_522_417" x1="63.3209" y1="137.73" x2="91.6709" y2="109.38" gradientUnits="userSpaceOnUse">
<stop stop-color="#3F0101"/>
<stop offset="1" stop-color="#700505"/>
</linearGradient>
<linearGradient id="paint11_linear_522_417" x1="88.5707" y1="136.22" x2="119.931" y2="104.86" gradientUnits="userSpaceOnUse">
<stop stop-color="#3F0101"/>
<stop offset="1" stop-color="#700505"/>
</linearGradient>
<linearGradient id="paint12_linear_522_417" x1="113.321" y1="134.22" x2="148.691" y2="98.85" gradientUnits="userSpaceOnUse">
<stop stop-color="#3F0101"/>
<stop offset="1" stop-color="#700505"/>
</linearGradient>
<linearGradient id="paint13_linear_522_417" x1="136.48" y1="130.62" x2="179.04" y2="88.06" gradientUnits="userSpaceOnUse">
<stop stop-color="#3F0101"/>
<stop offset="1" stop-color="#700505"/>
</linearGradient>
<linearGradient id="paint14_linear_522_417" x1="64.5914" y1="111.22" x2="152.291" y2="23.52" gradientUnits="userSpaceOnUse">
<stop stop-color="#3F0101"/>
<stop offset="1" stop-color="#700505"/>
</linearGradient>
<linearGradient id="paint15_linear_522_417" x1="37.4708" y1="160.6" x2="111.121" y2="86.95" gradientUnits="userSpaceOnUse">
<stop stop-color="#3F0101"/>
<stop offset="1" stop-color="#700505"/>
</linearGradient>
<linearGradient id="paint16_linear_522_417" x1="115.791" y1="166.48" x2="125.101" y2="157.18" gradientUnits="userSpaceOnUse">
<stop stop-color="#3F0101"/>
<stop offset="1" stop-color="#700505"/>
</linearGradient>
<linearGradient id="paint17_linear_522_417" x1="115.791" y1="171.48" x2="125.101" y2="162.18" gradientUnits="userSpaceOnUse">
<stop stop-color="#3F0101"/>
<stop offset="1" stop-color="#700505"/>
</linearGradient>
<linearGradient id="paint18_linear_522_417" x1="67.7908" y1="166.48" x2="77.1008" y2="157.17" gradientUnits="userSpaceOnUse">
<stop stop-color="#3F0101"/>
<stop offset="1" stop-color="#700505"/>
</linearGradient>
<linearGradient id="paint19_linear_522_417" x1="67.7908" y1="171.48" x2="77.1008" y2="162.17" gradientUnits="userSpaceOnUse">
<stop stop-color="#3F0101"/>
<stop offset="1" stop-color="#700505"/>
</linearGradient>
<linearGradient id="paint20_linear_522_417" x1="46.0814" y1="169.99" x2="57.4014" y2="158.66" gradientUnits="userSpaceOnUse">
<stop stop-color="#3F0101"/>
<stop offset="1" stop-color="#700505"/>
</linearGradient>
</defs>
</svg>
