<svg width="203" height="203" viewBox="0 0 203 203" fill="none" xmlns="http://www.w3.org/2000/svg">
<g clip-path="url(#clip0_525_544)">
<path d="M53.8498 132.09C53.568 131.56 53.1264 131.133 52.5877 130.869C52.0491 130.605 51.4409 130.518 50.8498 130.62C44.9498 131.62 27.9598 132.15 26.6398 105.7C24.9998 73.64 63.9198 18.89 121 29.78C166.86 38.52 132.62 82.13 160.71 93.13C177.15 99.57 192.01 132.59 155.5 161.27C135.76 176.78 85.0798 190.48 53.8498 132.09Z" fill="#676E94"/>
<path d="M30.4902 30.91C29.8969 30.91 29.3169 30.7341 28.8235 30.4044C28.3302 30.0748 27.9457 29.6063 27.7186 29.0581C27.4915 28.5099 27.4321 27.9067 27.5479 27.3248C27.6636 26.7428 27.9494 26.2083 28.3689 25.7887C28.7885 25.3692 29.323 25.0834 29.905 24.9677C30.4869 24.8519 31.0901 24.9113 31.6383 25.1384C32.1865 25.3655 32.655 25.75 32.9846 26.2433C33.3143 26.7367 33.4902 27.3167 33.4902 27.91C33.4902 28.7057 33.1742 29.4687 32.6116 30.0314C32.0489 30.594 31.2859 30.91 30.4902 30.91ZM30.4902 26.91C30.2925 26.91 30.0991 26.9687 29.9347 27.0786C29.7702 27.1884 29.642 27.3446 29.5664 27.5274C29.4907 27.7101 29.4709 27.9111 29.5095 28.1051C29.548 28.2991 29.6433 28.4773 29.7831 28.6171C29.923 28.757 30.1012 28.8522 30.2951 28.8908C30.4891 28.9294 30.6902 28.9096 30.8729 28.8339C31.0556 28.7582 31.2118 28.6301 31.3217 28.4656C31.4316 28.3012 31.4902 28.1078 31.4902 27.91C31.4876 27.6466 31.3811 27.3948 31.1938 27.2094C31.0066 27.024 30.7537 26.92 30.4902 26.92V26.91Z" fill="white"/>
<path d="M200 91.1C199.407 91.1 198.827 90.924 198.333 90.5944C197.84 90.2647 197.455 89.7962 197.228 89.248C197.001 88.6998 196.942 88.0967 197.058 87.5147C197.173 86.9328 197.459 86.3982 197.879 85.9787C198.298 85.5591 198.833 85.2734 199.415 85.1576C199.997 85.0419 200.6 85.1013 201.148 85.3283C201.696 85.5554 202.165 85.9399 202.494 86.4333C202.824 86.9266 203 87.5066 203 88.1C203 88.8956 202.684 89.6587 202.121 90.2213C201.559 90.7839 200.796 91.1 200 91.1ZM200 87.1C199.802 87.1 199.609 87.1586 199.444 87.2685C199.28 87.3784 199.152 87.5346 199.076 87.7173C199 87.9 198.981 88.1011 199.019 88.2951C199.058 88.489 199.153 88.6672 199.293 88.8071C199.433 88.9469 199.611 89.0422 199.805 89.0808C199.999 89.1193 200.2 89.0995 200.383 89.0239C200.565 88.9482 200.722 88.82 200.831 88.6555C200.941 88.4911 201 88.2978 201 88.1C200.997 87.8365 200.891 87.5847 200.704 87.3993C200.516 87.2139 200.263 87.11 200 87.11V87.1Z" fill="white"/>
<path d="M68.0703 203C67.477 203 66.8969 202.824 66.4036 202.494C65.9103 202.165 65.5257 201.696 65.2987 201.148C65.0716 200.6 65.0122 199.997 65.128 199.415C65.2437 198.833 65.5294 198.298 65.949 197.879C66.3685 197.459 66.9031 197.173 67.485 197.058C68.067 196.942 68.6702 197.001 69.2184 197.228C69.7665 197.455 70.2351 197.84 70.5647 198.333C70.8944 198.827 71.0703 199.407 71.0703 200C71.0703 200.796 70.7542 201.559 70.1916 202.121C69.629 202.684 68.866 203 68.0703 203ZM68.0703 199C67.8051 199 67.5507 199.105 67.3632 199.293C67.1757 199.48 67.0703 199.735 67.0703 200C67.0703 200.265 67.1757 200.52 67.3632 200.707C67.5507 200.895 67.8051 201 68.0703 201C68.3355 201 68.5899 200.895 68.7774 200.707C68.965 200.52 69.0703 200.265 69.0703 200C69.0703 199.735 68.965 199.48 68.7774 199.293C68.5899 199.105 68.3355 199 68.0703 199Z" fill="white"/>
<path d="M3.09 122.06C3.09 121.795 2.98464 121.54 2.79711 121.353C2.60957 121.165 2.35522 121.06 2.09 121.06H1C0.734784 121.06 0.48043 121.165 0.292893 121.353C0.105357 121.54 0 121.795 0 122.06C0 122.325 0.105357 122.58 0.292893 122.767C0.48043 122.955 0.734784 123.06 1 123.06H2.09C2.35522 123.06 2.60957 122.955 2.79711 122.767C2.98464 122.58 3.09 122.325 3.09 122.06Z" fill="white"/>
<path d="M3.71094 121.45C3.97615 121.45 4.23051 121.345 4.41804 121.157C4.60558 120.97 4.71094 120.715 4.71094 120.45V119.37C4.71094 119.105 4.60558 118.85 4.41804 118.663C4.23051 118.475 3.97615 118.37 3.71094 118.37C3.44572 118.37 3.19137 118.475 3.00383 118.663C2.81629 118.85 2.71094 119.105 2.71094 119.37V120.45C2.71094 120.715 2.81629 120.97 3.00383 121.157C3.19137 121.345 3.44572 121.45 3.71094 121.45Z" fill="white"/>
<path d="M6.41016 121.06H5.33016C5.07905 121.08 4.84479 121.194 4.67423 121.38C4.50366 121.565 4.40935 121.808 4.41016 122.06C4.40935 122.312 4.50366 122.555 4.67423 122.74C4.84479 122.926 5.07905 123.04 5.33016 123.06H6.41016C6.67538 123.06 6.92973 122.955 7.11727 122.767C7.3048 122.58 7.41016 122.325 7.41016 122.06C7.41016 121.795 7.3048 121.54 7.11727 121.353C6.92973 121.165 6.67538 121.06 6.41016 121.06Z" fill="white"/>
<path d="M3.71094 122.68C3.44572 122.68 3.19137 122.785 3.00383 122.973C2.81629 123.16 2.71094 123.415 2.71094 123.68V124.76C2.71094 125.025 2.81629 125.28 3.00383 125.467C3.19137 125.655 3.44572 125.76 3.71094 125.76C3.97615 125.76 4.23051 125.655 4.41804 125.467C4.60558 125.28 4.71094 125.025 4.71094 124.76V123.68C4.71094 123.415 4.60558 123.16 4.41804 122.973C4.23051 122.785 3.97615 122.68 3.71094 122.68Z" fill="white"/>
<path d="M136.92 3.62C136.92 3.35478 136.814 3.10042 136.627 2.91289C136.439 2.72535 136.185 2.62 135.92 2.62H134.84C134.575 2.62 134.32 2.72535 134.133 2.91289C133.945 3.10042 133.84 3.35478 133.84 3.62C133.84 3.88521 133.945 4.13957 134.133 4.3271C134.32 4.51464 134.575 4.62 134.84 4.62H135.92C136.185 4.62 136.439 4.51464 136.627 4.3271C136.814 4.13957 136.92 3.88521 136.92 3.62Z" fill="white"/>
<path d="M137.529 3.00001C137.795 3.00001 138.049 2.89465 138.236 2.70711C138.424 2.51958 138.529 2.26522 138.529 2.00001V0.920005C138.509 0.668891 138.395 0.434634 138.21 0.264069C138.024 0.0935036 137.781 -0.000802199 137.529 5.1411e-06C137.277 -0.000802199 137.034 0.0935036 136.849 0.264069C136.664 0.434634 136.549 0.668891 136.529 0.920005V2.00001C136.529 2.26522 136.635 2.51958 136.822 2.70711C137.01 2.89465 137.264 3.00001 137.529 3.00001Z" fill="white"/>
<path d="M140.23 2.62H139.15C138.899 2.64015 138.665 2.75434 138.495 2.93973C138.324 3.12513 138.23 3.36807 138.23 3.62C138.23 3.87192 138.324 4.11486 138.495 4.30026C138.665 4.48565 138.899 4.59984 139.15 4.62H140.23C140.496 4.62 140.75 4.51464 140.938 4.3271C141.125 4.13957 141.23 3.88521 141.23 3.62C141.23 3.35478 141.125 3.10042 140.938 2.91289C140.75 2.72535 140.496 2.62 140.23 2.62Z" fill="white"/>
<path d="M137.529 4.22998C137.264 4.22998 137.01 4.33534 136.822 4.52287C136.635 4.71041 136.529 4.96476 136.529 5.22998V6.30998C136.549 6.56109 136.664 6.79535 136.849 6.96592C137.034 7.13648 137.277 7.23079 137.529 7.22998C137.781 7.23079 138.024 7.13648 138.21 6.96592C138.395 6.79535 138.509 6.56109 138.529 6.30998V5.22998C138.529 4.96476 138.424 4.71041 138.236 4.52287C138.049 4.33534 137.795 4.22998 137.529 4.22998Z" fill="white"/>
<path d="M175.59 178.11C175.59 177.845 175.484 177.59 175.297 177.403C175.109 177.215 174.855 177.11 174.59 177.11H173.51C173.245 177.11 172.99 177.215 172.803 177.403C172.615 177.59 172.51 177.845 172.51 178.11C172.51 178.375 172.615 178.629 172.803 178.817C172.99 179.005 173.245 179.11 173.51 179.11H174.59C174.855 179.11 175.109 179.005 175.297 178.817C175.484 178.629 175.59 178.375 175.59 178.11Z" fill="white"/>
<path d="M176.209 177.49C176.474 177.49 176.729 177.385 176.916 177.197C177.104 177.01 177.209 176.755 177.209 176.49V175.42C177.191 175.167 177.078 174.93 176.892 174.758C176.707 174.585 176.463 174.489 176.209 174.49C175.955 174.489 175.711 174.585 175.526 174.758C175.34 174.93 175.227 175.167 175.209 175.42V176.49C175.209 176.755 175.314 177.01 175.502 177.197C175.689 177.385 175.944 177.49 176.209 177.49Z" fill="white"/>
<path d="M178.9 177.11H177.82C177.555 177.11 177.301 177.215 177.113 177.403C176.926 177.59 176.82 177.845 176.82 178.11C176.82 178.375 176.926 178.629 177.113 178.817C177.301 179.005 177.555 179.11 177.82 179.11H178.9C179.166 179.11 179.42 179.005 179.607 178.817C179.795 178.629 179.9 178.375 179.9 178.11C179.9 177.845 179.795 177.59 179.607 177.403C179.42 177.215 179.166 177.11 178.9 177.11Z" fill="white"/>
<path d="M176.209 178.73C175.944 178.73 175.689 178.835 175.502 179.023C175.314 179.21 175.209 179.465 175.209 179.73V180.81C175.229 181.061 175.343 181.295 175.529 181.466C175.714 181.636 175.957 181.731 176.209 181.73C176.461 181.731 176.704 181.636 176.889 181.466C177.075 181.295 177.189 181.061 177.209 180.81V179.73C177.209 179.465 177.104 179.21 176.916 179.023C176.729 178.835 176.474 178.73 176.209 178.73Z" fill="white"/>
<path d="M161.301 148.23L141.891 141.77L139.271 143.53L131.221 139.45C128.36 135.293 124.68 131.764 120.407 129.08C116.134 126.396 111.357 124.612 106.371 123.84C106.371 123.84 90.6906 120.84 85.9406 118.22C85.9406 118.22 81.3205 117.57 80.0705 119.99C78.8205 122.41 83.6005 125.93 83.6005 125.93L88.9106 128.65L96.7405 133.93L81.0705 138.38L65.2005 125.9L60.6105 123.17C60.6105 123.17 57.3305 122.97 57.3405 125.92L52.3405 123.68C52.3405 123.68 49.4105 125.26 50.3405 127.13C51.2705 129 65.1206 144.43 65.1206 144.43L72.3205 151.93L121.261 154.21L130.681 159.34L130.061 161.61L146.511 174.49C146.511 174.49 153.511 171.33 157.861 154.1L161.301 148.23Z" fill="white"/>
<path d="M50.94 59.93C53.2541 59.93 55.13 58.0541 55.13 55.7401C55.13 53.426 53.2541 51.55 50.94 51.55C48.6259 51.55 46.75 53.426 46.75 55.7401C46.75 58.0541 48.6259 59.93 50.94 59.93Z" fill="url(#paint0_linear_525_544)"/>
<path d="M61.2301 99.2H139.09C139.09 99.2 144.91 99.13 143.21 93.2C142.754 92.3018 142.048 91.5548 141.176 91.0491C140.305 90.5434 139.306 90.3006 138.3 90.35C138.3 90.35 134.87 73.17 147.3 59.35L145.14 57.63C145.14 57.63 109.75 68.32 101.14 39.36L100.14 39.45C100.14 39.45 92.0001 67 55.1301 57.7L54.3301 60C54.3301 60 65.1901 74.35 62.0001 90.37C62.0001 90.37 56.4901 89.12 56.9201 95.79C56.9401 95.79 58.3701 99.2 61.2301 99.2Z" fill="white"/>
<path d="M149.29 59.93C151.604 59.93 153.48 58.0541 153.48 55.7401C153.48 53.426 151.604 51.55 149.29 51.55C146.976 51.55 145.1 53.426 145.1 55.7401C145.1 58.0541 146.976 59.93 149.29 59.93Z" fill="url(#paint1_linear_525_544)"/>
<path d="M140.011 91.34H74.5506C72.6231 91.34 71.0605 92.9025 71.0605 94.83C71.0605 96.7574 72.6231 98.32 74.5506 98.32H140.011C141.938 98.32 143.501 96.7574 143.501 94.83C143.501 92.9025 141.938 91.34 140.011 91.34Z" fill="#3D72C2"/>
<path d="M56.8105 62.9301C64.8115 72.3917 75.0426 79.7119 86.5805 84.2301C93.6811 86.9329 101.324 87.9045 108.875 87.0646C116.425 86.2246 123.668 83.5972 130.001 79.4001C133.576 77.0842 136.791 74.2538 139.541 71.0001C139.541 71.0001 136.541 82.4201 138.271 90.3701H62.0005C62.4349 80.9438 60.6575 71.5466 56.8105 62.9301Z" fill="url(#paint2_linear_525_544)"/>
<path d="M140.311 144.11C140.311 144.11 138.431 152.66 144.001 155.6C149.571 158.54 158.511 151.93 158.511 151.93C157.122 154.974 154.652 157.394 151.581 158.72C146.581 160.72 135.191 164.44 129.811 160.97L140.311 144.11Z" fill="#3D72C2"/>
<path d="M78.1602 90.37C78.1602 90.37 80.5702 68.58 100.16 68.85C100.16 68.85 120.54 69.91 121.68 90.37H78.1602Z" fill="white"/>
<path d="M94.6896 69.66C100.97 69.35 110.89 76.12 111.69 90.37H78.5996C78.5996 90.37 81.6196 70.3 94.6896 69.66Z" fill="#3D72C2"/>
<path d="M128.779 90.37C128.779 90.37 128.369 78.91 138.909 76.28C137.891 80.9059 137.685 85.6735 138.299 90.37H128.779Z" fill="white"/>
<path d="M71.5892 90.37C71.5892 90.37 71.9992 78.91 61.4492 76.28C62.4675 80.9059 62.6739 85.6735 62.0592 90.37H71.5892Z" fill="white"/>
<path d="M100.12 62.9299C102.533 62.9299 104.49 60.9734 104.49 58.5599C104.49 56.1465 102.533 54.1899 100.12 54.1899C97.7065 54.1899 95.75 56.1465 95.75 58.5599C95.75 60.9734 97.7065 62.9299 100.12 62.9299Z" fill="url(#paint3_linear_525_544)"/>
<path d="M100.8 59.92C102.584 59.92 104.03 58.4738 104.03 56.69C104.03 54.9061 102.584 53.46 100.8 53.46C99.0164 53.46 97.5703 54.9061 97.5703 56.69C97.5703 58.4738 99.0164 59.92 100.8 59.92Z" fill="white"/>
<path d="M126.74 74.22C128.905 74.22 130.66 72.465 130.66 70.3C130.66 68.1351 128.905 66.38 126.74 66.38C124.575 66.38 122.82 68.1351 122.82 70.3C122.82 72.465 124.575 74.22 126.74 74.22Z" fill="url(#paint4_linear_525_544)"/>
<path d="M127.861 71.22C129.645 71.22 131.091 69.7739 131.091 67.99C131.091 66.2061 129.645 64.76 127.861 64.76C126.077 64.76 124.631 66.2061 124.631 67.99C124.631 69.7739 126.077 71.22 127.861 71.22Z" fill="white"/>
<path d="M74.2403 73.58C76.4053 73.58 78.1603 71.825 78.1603 69.66C78.1603 67.495 76.4053 65.74 74.2403 65.74C72.0754 65.74 70.3203 67.495 70.3203 69.66C70.3203 71.825 72.0754 73.58 74.2403 73.58Z" fill="url(#paint5_linear_525_544)"/>
<path d="M75.3706 70.58C77.1545 70.58 78.6006 69.1339 78.6006 67.35C78.6006 65.5661 77.1545 64.12 75.3706 64.12C73.5867 64.12 72.1406 65.5661 72.1406 67.35C72.1406 69.1339 73.5867 70.58 75.3706 70.58Z" fill="white"/>
<path d="M99.9995 27.61C99.3084 29.5162 98.216 31.2517 96.7961 32.6992C95.3762 34.1466 93.6621 35.2723 91.7695 36C91.7695 36 99.9995 38 100.36 44.8C100.36 44.8 102.53 35.6 109.8 35.28C109.8 35.28 101.61 34.22 99.9995 27.61Z" fill="url(#paint6_linear_525_544)"/>
<path d="M162.549 148.36C162.448 148.042 162.273 147.754 162.039 147.517C161.804 147.281 161.516 147.103 161.199 147L142.199 140.79C141.727 140.637 141.217 140.654 140.755 140.836C140.294 141.019 139.91 141.356 139.669 141.79L139.489 142.1L132.039 138.9C128.998 134.558 125.101 130.884 120.586 128.104C116.072 125.325 111.036 123.5 105.789 122.74C105.699 122.74 96.1794 121.16 91.2994 119.05C88.1794 117.69 81.6594 114.87 79.1694 119.52C76.6794 124.17 82.9994 127.41 87.9994 130.14L93.8194 133.67C90.8194 134.46 85.9594 135.8 81.9694 137.05C71.9694 129.75 65.7394 125.11 65.1694 124.61C61.2294 121.15 58.7894 121.94 57.4394 123.22C57.1479 123.506 56.9137 123.846 56.7494 124.22C53.5294 121.93 51.4694 122.68 50.2694 123.81C47.3594 126.56 51.2194 130.75 53.0994 132.81L70.2894 151.59C70.6095 151.945 70.9973 152.232 71.4301 152.435C71.8629 152.638 72.3319 152.751 72.8094 152.77L120.109 154.96C120.357 154.972 120.599 155.037 120.819 155.15L129.369 159.81L128.939 160.55C128.84 160.723 128.779 160.915 128.759 161.113C128.739 161.311 128.762 161.512 128.825 161.701C128.888 161.89 128.991 162.063 129.126 162.209C129.261 162.356 129.426 162.472 129.609 162.55L145.929 175.33C146.351 175.663 146.882 175.824 147.417 175.784C147.953 175.743 148.453 175.503 148.819 175.11C150.919 172.87 156.079 166.41 158.819 154.63C160.125 153.308 161.297 151.861 162.319 150.31C162.513 150.028 162.635 149.703 162.675 149.363C162.715 149.024 162.672 148.679 162.549 148.36ZM63.8494 126.12C64.6394 126.8 73.4594 133.29 79.6194 137.81C78.3994 138.22 77.3494 138.6 76.6194 138.93C70.8694 134.73 60.6194 127.21 58.3994 125.49C58.4273 125.175 58.5739 124.882 58.8094 124.67C59.9094 123.63 61.5594 124.1 63.8494 126.12ZM121.779 153.33C121.293 153.066 120.753 152.916 120.199 152.89L72.8994 150.7C72.4597 150.68 72.046 150.485 71.7494 150.16L54.5494 131.36C53.1294 129.82 50.1694 126.62 51.6394 125.23C52.7394 124.23 54.3894 124.66 56.6394 126.67C57.7094 127.61 73.8294 139.4 75.6394 140.75C75.848 140.902 76.0941 140.995 76.3514 141.018C76.6086 141.041 76.8673 140.993 77.0994 140.88C80.3494 139.31 92.8294 135.97 96.0994 135.11L101.189 138.2C101.249 138.246 101.313 138.286 101.379 138.32C101.63 138.406 101.905 138.389 102.143 138.273C102.381 138.157 102.563 137.951 102.649 137.7C102.72 137.484 102.715 137.25 102.635 137.038C102.555 136.825 102.405 136.646 102.209 136.53L89.1094 128.53L88.8494 128.38C83.6594 125.55 79.4694 123 80.8494 120.46C81.9994 118.31 84.7694 118.46 90.4194 120.88C95.5194 123.09 104.979 124.64 105.419 124.71C110.405 125.414 115.193 127.134 119.486 129.764C123.78 132.394 127.488 135.878 130.379 140C130.623 140.361 130.972 140.637 131.379 140.79L138.549 143.85L130.359 158L121.779 153.33ZM147.359 173.69C147.334 173.714 147.3 173.727 147.264 173.727C147.229 173.727 147.195 173.714 147.169 173.69L133.549 163C134.439 163.07 135.429 163.12 136.549 163.12C142.009 163.12 149.649 162 156.159 156.95C153.399 166.48 149.179 171.76 147.359 173.69ZM160.639 149.16C151.709 162.71 135.839 161.48 131.079 160.76L141.419 142.76C141.426 142.745 141.435 142.732 141.447 142.721C141.458 142.711 141.472 142.702 141.487 142.697C141.502 142.691 141.518 142.688 141.534 142.689C141.549 142.69 141.565 142.693 141.579 142.7L160.579 148.91C160.599 148.918 160.616 148.93 160.63 148.946C160.643 148.962 160.654 148.98 160.659 149C160.675 149.025 160.681 149.054 160.677 149.083C160.674 149.113 160.66 149.139 160.639 149.16Z" fill="url(#paint7_linear_525_544)"/>
<path d="M53.3895 60.29C53.4151 60.365 53.4452 60.4385 53.4795 60.51C57.2595 66.61 63.1595 78.35 61.1695 89.37C59.7736 89.4372 58.4576 90.041 57.4963 91.0554C56.535 92.0697 56.0026 93.4162 56.0104 94.8137C56.0181 96.2112 56.5654 97.5517 57.5379 98.5553C58.5104 99.559 59.8329 100.148 61.2295 100.2H139.089C140.485 100.14 141.804 99.5432 142.771 98.5343C143.737 97.5253 144.277 96.1821 144.277 94.785C144.277 93.3878 143.737 92.0446 142.771 91.0356C141.804 90.0267 140.485 89.43 139.089 89.37C137.089 78.37 143.009 66.61 146.779 60.51C146.81 60.4485 146.837 60.385 146.859 60.32C147.591 60.7153 148.408 60.9248 149.24 60.93C150.266 60.93 151.269 60.6256 152.123 60.0553C152.976 59.485 153.642 58.6744 154.034 57.7261C154.427 56.7777 154.53 55.7342 154.33 54.7274C154.13 53.7207 153.635 52.7959 152.909 52.0701C152.184 51.3442 151.259 50.8499 150.252 50.6497C149.245 50.4494 148.202 50.5522 147.253 50.945C146.305 51.3378 145.494 52.0031 144.924 52.8565C144.354 53.71 144.049 54.7135 144.049 55.74C144.054 56.0486 144.084 56.3563 144.139 56.66H143.969C133.829 59.23 109.589 62.79 102.669 40.95C103.547 39.4873 104.789 38.2766 106.273 37.4356C107.757 36.5945 109.434 36.1516 111.139 36.15H111.379C111.645 36.15 111.899 36.0446 112.087 35.8571C112.274 35.6695 112.379 35.4152 112.379 35.15C112.379 34.8847 112.274 34.6304 112.087 34.4428C111.899 34.2553 111.645 34.15 111.379 34.15C110.079 34.2159 108.778 34.0242 107.551 33.586C106.325 33.1478 105.197 32.4716 104.233 31.5964C103.268 30.7211 102.486 29.664 101.931 28.4856C101.376 27.3073 101.06 26.031 100.999 24.73C100.993 24.4647 100.881 24.213 100.689 24.0302C100.497 23.8473 100.24 23.7483 99.9745 23.755C99.7093 23.7616 99.4576 23.8733 99.2747 24.0655C99.0919 24.2577 98.9929 24.5147 98.9995 24.78C98.9942 27.4066 97.9484 29.9242 96.0911 31.7815C94.2337 33.6389 91.7162 34.6847 89.0895 34.69H88.8395C88.5743 34.69 88.3199 34.7953 88.1324 34.9828C87.9449 35.1704 87.8395 35.4247 87.8395 35.69C87.8395 35.9552 87.9449 36.2095 88.1324 36.3971C88.3199 36.5846 88.5743 36.69 88.8395 36.69H88.8895C90.5833 36.6127 92.2684 36.9723 93.7832 37.734C95.298 38.4958 96.5915 39.6342 97.5395 41.04C90.5395 62.8 66.3895 59.25 56.2595 56.68H55.9995C56.0547 56.3796 56.0848 56.0753 56.0895 55.77C56.103 54.6174 55.7367 53.4924 55.0473 52.5686C54.3579 51.6448 53.3836 50.9736 52.2748 50.6586C51.1661 50.3435 49.9844 50.4021 48.9123 50.8253C47.8401 51.2485 46.937 52.0128 46.3424 53.0003C45.7477 53.9877 45.4946 55.1434 45.622 56.289C45.7495 57.4346 46.2504 58.5065 47.0475 59.3391C47.8445 60.1717 48.8935 60.7189 50.0325 60.8962C51.1714 61.0735 52.3371 60.871 53.3495 60.32L53.3895 60.29ZM62.8095 77.71C65.3795 78.71 70.2595 81.56 70.5495 89.37H63.1995C63.792 85.4926 63.6597 81.539 62.8095 77.71ZM142.499 94.78C142.5 95.6853 142.141 96.5536 141.501 97.1947C140.862 97.8358 139.995 98.1973 139.089 98.2H61.2295C60.7655 98.2251 60.3012 98.1554 59.865 97.9951C59.4289 97.8348 59.0299 97.5873 58.6926 97.2678C58.3552 96.9482 58.0866 96.5632 57.9029 96.1363C57.7193 95.7095 57.6246 95.2496 57.6246 94.785C57.6246 94.3203 57.7193 93.8605 57.9029 93.4336C58.0866 93.0067 58.3552 92.6217 58.6926 92.3021C59.0299 91.9826 59.4289 91.7351 59.865 91.5748C60.3012 91.4145 60.7655 91.3448 61.2295 91.37H139.089C139.994 91.37 140.861 91.7292 141.501 92.3687C142.14 93.0082 142.499 93.8756 142.499 94.78ZM79.6895 89.37C79.9226 84.0975 82.1811 79.1184 85.9945 75.4699C89.8078 71.8214 94.8819 69.785 100.159 69.785C105.437 69.785 110.511 71.8214 114.325 75.4699C118.138 79.1184 120.396 84.0975 120.629 89.37H79.6895ZM129.809 89.37C130.099 81.65 134.919 78.73 137.499 77.74C136.657 81.5601 136.529 85.503 137.119 89.37H129.809ZM149.289 52.55C149.92 52.55 150.537 52.737 151.062 53.0876C151.586 53.4381 151.995 53.9363 152.237 54.5192C152.478 55.1021 152.541 55.7435 152.418 56.3623C152.295 56.9811 151.991 57.5495 151.545 57.9956C151.099 58.4418 150.531 58.7456 149.912 58.8687C149.293 58.9917 148.652 58.9286 148.069 58.6871C147.486 58.4457 146.988 58.0368 146.637 57.5122C146.287 56.9876 146.1 56.3709 146.1 55.74C146.1 54.8939 146.436 54.0825 147.034 53.4843C147.632 52.886 148.443 52.55 149.289 52.55ZM93.9995 35.64C96.7792 34.3878 98.978 32.1246 100.149 29.31C101.403 31.9866 103.605 34.1031 106.329 35.25C104.393 36.1316 102.726 37.5121 101.499 39.25C101.118 39.7976 100.784 40.3763 100.499 40.98C100.399 41.19 100.299 41.4 100.209 41.61C100.109 41.39 99.9895 41.18 99.8795 40.97C99.5609 40.383 99.1929 39.8243 98.7795 39.3C97.523 37.6936 95.8779 36.434 93.9995 35.64ZM98.8195 43.64C99.089 44.4652 99.2471 45.3228 99.2895 46.19C99.2895 46.4552 99.3948 46.7095 99.5824 46.8971C99.7699 47.0846 100.024 47.19 100.289 47.19C100.555 47.19 100.809 47.0846 100.997 46.8971C101.184 46.7095 101.289 46.4552 101.289 46.19C101.294 45.4012 101.391 44.6158 101.579 43.85C109.869 64.91 134.17 61.35 144.52 58.73C144.629 58.7 144.745 58.7041 144.852 58.7416C144.959 58.7791 145.053 58.8483 145.119 58.94C145.185 59.0302 145.22 59.1387 145.22 59.25C145.22 59.3612 145.185 59.4697 145.119 59.56C141.999 64.5257 139.608 69.9141 138.02 75.56C135.67 76.24 128.119 79.24 127.779 89.46H122.639C122.465 83.6087 120.018 78.0556 115.817 73.9784C111.617 69.9013 105.993 67.6208 100.139 67.6208C94.2856 67.6208 88.662 69.9013 84.4615 73.9784C80.261 78.0556 77.814 83.6087 77.6395 89.46H72.5395C72.1995 79.17 64.5395 76.2 62.2495 75.54C60.6615 69.8941 58.2704 64.5057 55.1495 59.54C55.0858 59.4491 55.0516 59.3409 55.0516 59.23C55.0516 59.119 55.0858 59.0108 55.1495 58.92C55.2155 58.8271 55.3086 58.7571 55.4161 58.7195C55.5236 58.6819 55.64 58.6785 55.7495 58.71C66.1895 61.26 90.5895 64.83 98.8095 43.59L98.8195 43.64ZM47.7495 55.74C47.7495 55.109 47.9366 54.4923 48.2871 53.9677C48.6376 53.4431 49.1358 53.0342 49.7187 52.7928C50.3016 52.5513 50.943 52.4882 51.5618 52.6112C52.1806 52.7343 52.749 53.0382 53.1952 53.4843C53.6413 53.9304 53.9451 54.4988 54.0682 55.1176C54.1913 55.7364 54.1281 56.3778 53.8867 56.9607C53.6452 57.5436 53.2364 58.0418 52.7118 58.3923C52.1872 58.7429 51.5704 58.93 50.9395 58.93C50.0935 58.93 49.2821 58.5939 48.6838 57.9956C48.0856 57.3974 47.7495 56.586 47.7495 55.74Z" fill="url(#paint8_linear_525_544)"/>
<path d="M100.12 63.9299C101.182 63.9299 102.22 63.615 103.103 63.0249C103.987 62.4349 104.675 61.5962 105.081 60.615C105.488 59.6337 105.594 58.554 105.387 57.5123C105.18 56.4706 104.668 55.5138 103.917 54.7628C103.166 54.0118 102.209 53.5003 101.168 53.2931C100.126 53.0859 99.0462 53.1923 98.065 53.5987C97.0837 54.0052 96.2451 54.6934 95.655 55.5765C95.0649 56.4596 94.75 57.4979 94.75 58.5599C94.75 59.9842 95.3158 61.35 96.3228 62.3571C97.3299 63.3642 98.6958 63.9299 100.12 63.9299ZM100.12 55.1899C100.787 55.1899 101.438 55.3876 101.992 55.7579C102.546 56.1282 102.978 56.6545 103.233 57.2703C103.489 57.8861 103.555 58.5637 103.425 59.2174C103.295 59.8711 102.974 60.4716 102.503 60.9429C102.032 61.4142 101.431 61.7352 100.777 61.8652C100.124 61.9952 99.4461 61.9285 98.8304 61.6734C98.2146 61.4184 97.6882 60.9864 97.3179 60.4322C96.9476 59.878 96.75 59.2265 96.75 58.5599C96.75 57.6662 97.1051 56.809 97.7371 56.177C98.3691 55.545 99.2262 55.1899 100.12 55.1899Z" fill="url(#paint9_linear_525_544)"/>
<path d="M125.18 74.3699C125.663 74.5354 126.17 74.6198 126.68 74.6199C127.387 74.61 128.083 74.4418 128.716 74.1276C129.349 73.8135 129.904 73.3614 130.34 72.8045C130.775 72.2477 131.08 71.6003 131.233 70.91C131.385 70.2197 131.381 69.504 131.22 68.8156C131.06 68.1272 130.747 67.4835 130.305 66.9319C129.862 66.3803 129.302 65.9349 128.665 65.6283C128.028 65.3218 127.331 65.1619 126.624 65.1604C125.917 65.159 125.219 65.316 124.58 65.6199C123.742 66.0344 123.045 66.6887 122.579 67.4999C122.113 68.3111 121.898 69.2426 121.962 70.1759C122.027 71.1093 122.367 72.0025 122.94 72.7421C123.513 73.4818 124.293 74.0344 125.18 74.3299V74.3699ZM124.1 68.9999C124.213 68.6603 124.392 68.3465 124.627 68.0769C124.862 67.8073 125.149 67.5874 125.47 67.4299C125.846 67.2414 126.26 67.1422 126.68 67.1399C126.977 67.1402 127.271 67.1909 127.55 67.2899C127.908 67.3882 128.242 67.5584 128.532 67.7902C128.822 68.0219 129.062 68.3103 129.236 68.6378C129.411 68.9653 129.517 69.3249 129.548 69.6947C129.579 70.0646 129.534 70.4368 129.416 70.7888C129.299 71.1407 129.11 71.465 128.863 71.7417C128.616 72.0184 128.314 72.2418 127.978 72.3982C127.641 72.5546 127.276 72.6407 126.905 72.6514C126.535 72.662 126.165 72.5968 125.82 72.4599C125.479 72.3471 125.164 72.1678 124.893 71.9324C124.621 71.697 124.399 71.4101 124.239 71.0884C124.079 70.7667 123.985 70.4165 123.961 70.0581C123.937 69.6996 123.984 69.34 124.1 68.9999Z" fill="url(#paint10_linear_525_544)"/>
<path d="M72.6003 74.3699C73.0833 74.5346 73.59 74.6191 74.1003 74.6199C74.9063 74.623 75.6996 74.4196 76.4047 74.0291C77.1098 73.6387 77.7032 73.0742 78.1283 72.3894C78.5534 71.7046 78.7961 70.9224 78.8332 70.1173C78.8703 69.3121 78.7006 68.5109 78.3403 67.7899C77.9259 66.9511 77.2715 66.2544 76.4603 65.7883C75.6491 65.3222 74.7177 65.1076 73.7843 65.1719C72.8509 65.2362 71.9577 65.5765 71.2181 66.1494C70.4785 66.7224 69.9258 67.5022 69.6303 68.3899C69.4275 68.9776 69.3451 69.6001 69.388 70.2204C69.431 70.8406 69.5984 71.4458 69.8803 71.9999C70.1543 72.5553 70.5358 73.0507 71.0027 73.4575C71.4697 73.8644 72.0127 74.1745 72.6003 74.3699ZM71.5203 68.9999C71.6328 68.6603 71.8119 68.3465 72.0471 68.0769C72.2823 67.8073 72.569 67.5873 72.8903 67.4299C73.2694 67.2413 73.6868 67.1421 74.1103 67.1399C74.4035 67.1401 74.6944 67.1909 74.9703 67.2899C75.3128 67.3992 75.6295 67.5769 75.9012 67.8125C76.1728 68.048 76.3936 68.3363 76.5503 68.6599C76.7109 68.9799 76.8059 69.3286 76.83 69.6858C76.854 70.043 76.8065 70.4013 76.6903 70.7399C76.46 71.4248 75.9675 71.9905 75.3208 72.3129C74.6741 72.6353 73.9259 72.6882 73.2403 72.4599C72.5546 72.2274 71.9889 71.733 71.6666 71.0847C71.3443 70.4364 71.2917 69.6869 71.5203 68.9999Z" fill="url(#paint11_linear_525_544)"/>
</g>
<defs>
<linearGradient id="paint0_linear_525_544" x1="48.3828" y1="63.2619" x2="57.2287" y2="60.3273" gradientUnits="userSpaceOnUse">
<stop stop-color="#3D72C2"/>
<stop offset="1" stop-color="#498BFF"/>
</linearGradient>
<linearGradient id="paint1_linear_525_544" x1="146.732" y1="63.2619" x2="155.578" y2="60.3273" gradientUnits="userSpaceOnUse">
<stop stop-color="#3D72C2"/>
<stop offset="1" stop-color="#498BFF"/>
</linearGradient>
<linearGradient id="paint2_linear_525_544" x1="72.9305" y1="101.28" x2="121.391" y2="52.8101" gradientUnits="userSpaceOnUse">
<stop stop-color="#3D72C2"/>
<stop offset="1" stop-color="#498BFF"/>
</linearGradient>
<linearGradient id="paint3_linear_525_544" x1="97.03" y1="61.6499" x2="103.2" y2="55.4699" gradientUnits="userSpaceOnUse">
<stop stop-color="#001FFF"/>
<stop offset="1" stop-color="#498BFF"/>
</linearGradient>
<linearGradient id="paint4_linear_525_544" x1="123.96" y1="73.07" x2="129.51" y2="67.52" gradientUnits="userSpaceOnUse">
<stop stop-color="#001FFF"/>
<stop offset="1" stop-color="#498BFF"/>
</linearGradient>
<linearGradient id="paint5_linear_525_544" x1="71.4603" y1="72.44" x2="77.0103" y2="66.89" gradientUnits="userSpaceOnUse">
<stop stop-color="#001FFF"/>
<stop offset="1" stop-color="#498BFF"/>
</linearGradient>
<linearGradient id="paint6_linear_525_544" x1="95.2827" y1="51.6346" x2="114.128" y2="45.0772" gradientUnits="userSpaceOnUse">
<stop stop-color="#3D72C2"/>
<stop offset="1" stop-color="#498BFF"/>
</linearGradient>
<linearGradient id="paint7_linear_525_544" x1="83.8594" y1="165.1" x2="131.729" y2="117.23" gradientUnits="userSpaceOnUse">
<stop stop-color="#001464"/>
<stop offset="1" stop-color="#1B1D9B"/>
</linearGradient>
<linearGradient id="paint8_linear_525_544" x1="64.6095" y1="105.82" x2="135.659" y2="34.77" gradientUnits="userSpaceOnUse">
<stop stop-color="#001464"/>
<stop offset="1" stop-color="#1B1D9B"/>
</linearGradient>
<linearGradient id="paint9_linear_525_544" x1="96.32" y1="62.3499" x2="103.91" y2="54.7599" gradientUnits="userSpaceOnUse">
<stop stop-color="#001464"/>
<stop offset="1" stop-color="#1B1D9B"/>
</linearGradient>
<linearGradient id="paint10_linear_525_544" x1="123.34" y1="73.2399" x2="130.03" y2="66.5499" gradientUnits="userSpaceOnUse">
<stop stop-color="#001464"/>
<stop offset="1" stop-color="#1B1D9B"/>
</linearGradient>
<linearGradient id="paint11_linear_525_544" x1="70.7603" y1="73.2399" x2="77.4503" y2="66.5499" gradientUnits="userSpaceOnUse">
<stop stop-color="#001464"/>
<stop offset="1" stop-color="#1B1D9B"/>
</linearGradient>
<clipPath id="clip0_525_544">
<rect width="203" height="203" fill="white"/>
</clipPath>
</defs>
</svg>
