<svg width="44" height="44" viewBox="0 0 44 44" fill="none" xmlns="http://www.w3.org/2000/svg">
<path opacity="0.5" d="M44 17.6H0V37.4C0 39.1504 0.695355 40.8292 1.9331 42.0669C3.17084 43.3046 4.84957 44 6.6 44H37.4C39.1504 44 40.8292 43.3046 42.0669 42.0669C43.3046 40.8292 44 39.1504 44 37.4V17.6ZM11 13.2C10.4165 13.2 9.85695 12.9682 9.44437 12.5556C9.03179 12.1431 8.8 11.5835 8.8 11V2.2C8.8 1.61652 9.03179 1.05695 9.44437 0.644365C9.85695 0.231785 10.4165 0 11 0C11.5835 0 12.1431 0.231785 12.5556 0.644365C12.9682 1.05695 13.2 1.61652 13.2 2.2V11C13.2 11.5835 12.9682 12.1431 12.5556 12.5556C12.1431 12.9682 11.5835 13.2 11 13.2ZM33 13.2C32.4165 13.2 31.8569 12.9682 31.4444 12.5556C31.0318 12.1431 30.8 11.5835 30.8 11V2.2C30.8 1.61652 31.0318 1.05695 31.4444 0.644365C31.8569 0.231785 32.4165 0 33 0C33.5835 0 34.1431 0.231785 34.5556 0.644365C34.9682 1.05695 35.2 1.61652 35.2 2.2V11C35.2 11.5835 34.9682 12.1431 34.5556 12.5556C34.1431 12.9682 33.5835 13.2 33 13.2Z" fill="#A7A2FF"/>
<path d="M37.4 4H35.2V11C35.2 11.6188 34.9682 12.2123 34.5556 12.6499C34.1431 13.0875 33.5835 13.3333 33 13.3333C32.4165 13.3333 31.8569 13.0875 31.4444 12.6499C31.0318 12.2123 30.8 11.6188 30.8 11V4H13.2V11C13.2 11.6188 12.9682 12.2123 12.5556 12.6499C12.1431 13.0875 11.5835 13.3333 11 13.3333C10.4165 13.3333 9.85695 13.0875 9.44437 12.6499C9.03179 12.2123 8.8 11.6188 8.8 11V4H6.6C4.84957 4 3.17084 4.7375 1.9331 6.05025C0.695355 7.36301 0 9.14348 0 11V18H44V11C44 9.14348 43.3046 7.36301 42.0669 6.05025C40.8292 4.7375 39.1504 4 37.4 4Z" fill="#09165D"/>
</svg>
