<svg width="82" height="82" viewBox="0 0 82 82" fill="none" xmlns="http://www.w3.org/2000/svg">
<circle cx="45" cy="37" r="30" fill="#676E94"/>
<path d="M45.4434 1V9.889" stroke="#001CB7" stroke-width="2" stroke-miterlimit="10" stroke-linecap="round" stroke-linejoin="round"/>
<path d="M72.1113 36.556H81.0003" stroke="#001CB7" stroke-width="2" stroke-miterlimit="10" stroke-linecap="round" stroke-linejoin="round"/>
<path d="M27.668 5.76294L32.111 13.4639" stroke="#001CB7" stroke-width="2" stroke-miterlimit="10" stroke-linecap="round" stroke-linejoin="round"/>
<path d="M58.7773 59.651L63.2213 67.348" stroke="#001CB7" stroke-width="2" stroke-miterlimit="10" stroke-linecap="round" stroke-linejoin="round"/>
<path d="M5.76367 63.2221L13.4607 58.7791" stroke="#001CB7" stroke-width="2" stroke-miterlimit="10" stroke-linecap="round" stroke-linejoin="round"/>
<path d="M68.5371 23.223L76.2361 18.777" stroke="#001CB7" stroke-width="2" stroke-miterlimit="10" stroke-linecap="round" stroke-linejoin="round"/>
<path d="M14.6523 18.777L22.3483 23.223" stroke="#001CB7" stroke-width="2" stroke-miterlimit="10" stroke-linecap="round" stroke-linejoin="round"/>
<path d="M68.5371 49.889L76.2381 54.333" stroke="#001CB7" stroke-width="2" stroke-miterlimit="10" stroke-linecap="round" stroke-linejoin="round"/>
<path d="M18.7754 76.238L23.2214 68.538" stroke="#001CB7" stroke-width="2" stroke-miterlimit="10" stroke-linecap="round" stroke-linejoin="round"/>
<path d="M58.7773 13.463L63.2193 5.76196" stroke="#001CB7" stroke-width="2" stroke-miterlimit="10" stroke-linecap="round" stroke-linejoin="round"/>
<path d="M32.11 45.443H1C1 65.081 16.918 81 36.556 81V49.889C34.101 49.889 32.11 47.898 32.11 45.443Z" stroke="#001CB7" stroke-width="2" stroke-miterlimit="10" stroke-linecap="round" stroke-linejoin="round"/>
<path d="M45.4434 32.1111V18.7791" stroke="#001CB7" stroke-width="2" stroke-miterlimit="10" stroke-linecap="round" stroke-linejoin="round"/>
<path d="M60.8413 45.445L49.2773 38.769" stroke="#001CB7" stroke-width="2" stroke-miterlimit="10" stroke-linecap="round" stroke-linejoin="round"/>
<path d="M45.444 41.0001C47.8984 41.0001 49.888 39.0104 49.888 36.5561C49.888 34.1017 47.8984 32.1121 45.444 32.1121C42.9896 32.1121 41 34.1017 41 36.5561C41 39.0104 42.9896 41.0001 45.444 41.0001Z" stroke="#001CB7" stroke-width="2" stroke-miterlimit="10" stroke-linecap="round" stroke-linejoin="round"/>
<path d="M45.4447 1C25.8087 1 9.88867 16.918 9.88867 36.556H41.0007C41.0007 34.1 42.9897 32.111 45.4447 32.111C47.8987 32.111 49.8877 34.1 49.8877 36.556C49.8877 39.01 47.8987 40.999 45.4447 40.999V72.11C65.0817 72.11 81.0007 56.192 81.0007 36.556C81.0007 16.918 65.0817 1 45.4447 1Z" stroke="#001CB7" stroke-width="2" stroke-miterlimit="10" stroke-linecap="round" stroke-linejoin="round"/>
</svg>
