<svg width="1920" height="758" viewBox="0 0 1920 758" fill="none" xmlns="http://www.w3.org/2000/svg">
<rect x="-1" width="1922" height="758" rx="10" fill="#002469"/>
<path d="M1520.96 756C1483.53 738.592 948.838 751.648 1114.22 467.467C1279.6 183.285 1731.6 32.2728 1832.72 208.526C1933.85 384.78 1652.26 640.238 1374.02 658.952C1095.78 677.665 911.963 548.848 1013.09 406.539C1114.22 264.231 1588.57 68.8291 1676.84 231.592C1765.12 394.354 1652.26 561.468 1374.02 571.478C1095.78 581.487 973.98 519.255 1105.84 363.891C1237.69 208.526 1572.92 195.035 1561.75 279.463C1550.57 363.89 1531.58 489.661 1236.58 473.124C941.575 456.587 1623.21 179.804 1921 266.407" stroke="white" stroke-opacity="0.53"/>
</svg>
