<svg width="404" height="412" viewBox="0 0 404 412" fill="none" xmlns="http://www.w3.org/2000/svg">
<rect x="48.3652" y="17.913" width="355.574" height="394.087" rx="30" fill="#F4F4F4"/>
<rect width="164.8" height="165.696" rx="13" fill="#181C32"/>
<path d="M86.7357 96.1133L131.949 96.7315C131.606 120.772 111.343 140.485 86.7357 140.485H86.4609L86.7357 96.1133Z" fill="white"/>
<path d="M79.577 89.6567L78.9416 134.029C54.3688 133.685 34.2949 113.766 34.2949 89.6567C34.2949 65.5475 54.7122 45.2848 79.5254 45.2848C104.339 45.2848 124.756 65.3243 124.756 89.6567H79.577Z" fill="#F1416C"/>
<path d="M20.3352 22.12C22.9053 22.12 24.9888 20.0365 24.9888 17.4664C24.9888 14.8963 22.9053 12.8129 20.3352 12.8129C17.7651 12.8129 15.6816 14.8963 15.6816 17.4664C15.6816 20.0365 17.7651 22.12 20.3352 22.12Z" fill="#3EBA59"/>
<path d="M36.0129 22.12C38.583 22.12 40.6665 20.0365 40.6665 17.4664C40.6665 14.8963 38.583 12.8129 36.0129 12.8129C33.4429 12.8129 31.3594 14.8963 31.3594 17.4664C31.3594 20.0365 33.4429 22.12 36.0129 22.12Z" fill="#FFB355"/>
<path d="M56.3423 17.5352C56.3423 18.4555 56.0693 19.3553 55.558 20.1205C55.0467 20.8858 54.3199 21.4823 53.4696 21.8345C52.6192 22.1867 51.6836 22.2789 50.7809 22.0993C49.8782 21.9197 49.049 21.4765 48.3982 20.8257C47.7473 20.1749 47.3041 19.3457 47.1246 18.443C46.945 17.5403 47.0372 16.6046 47.3894 15.7543C47.7416 14.904 48.3381 14.1772 49.1033 13.6659C49.8686 13.1545 50.7683 12.8816 51.6887 12.8816C52.9229 12.8816 54.1066 13.3719 54.9793 14.2446C55.852 15.1173 56.3423 16.301 56.3423 17.5352V17.5352Z" fill="#FF6868"/>
<path d="M349.493 187.191H264.341C250.182 187.191 238.703 198.67 238.703 212.829V221.343C238.703 235.502 250.182 246.981 264.341 246.981H349.493C363.652 246.981 375.131 235.502 375.131 221.343V212.829C375.131 198.67 363.652 187.191 349.493 187.191Z" fill="white"/>
<path d="M80.6385 253.949C80.5117 242.965 83.642 232.189 89.6341 222.982C95.6263 213.775 104.212 206.55 114.307 202.218C124.402 197.886 135.554 196.642 146.355 198.643C157.157 200.644 167.123 205.799 174.997 213.46C182.871 221.12 188.299 230.941 190.596 241.683C192.892 252.426 191.955 263.608 187.903 273.818C183.85 284.028 176.863 292.809 167.825 299.052C158.786 305.295 148.1 308.72 137.116 308.895C122.346 309.08 108.106 303.399 97.518 293.098C86.9305 282.798 80.8602 268.719 80.6385 253.949V253.949ZM162.796 252.569C162.686 247.323 161.026 242.226 158.024 237.922C155.022 233.617 150.814 230.298 145.928 228.382C141.043 226.466 135.699 226.039 130.572 227.156C125.444 228.272 120.762 230.881 117.115 234.655C113.468 238.428 111.02 243.197 110.08 248.36C109.139 253.522 109.748 258.848 111.829 263.665C113.911 268.483 117.372 272.576 121.776 275.429C126.181 278.282 131.331 279.767 136.578 279.698C143.643 279.578 150.371 276.66 155.287 271.584C160.202 266.508 162.903 259.689 162.796 252.625V252.569Z" fill="#F5F5F5"/>
<path d="M80.6392 253.949C80.3842 239.179 85.9982 224.91 96.2497 214.273C106.501 203.636 120.553 197.499 135.323 197.209L135.792 226.352C128.711 226.465 121.965 229.387 117.038 234.475C112.111 239.562 109.406 246.399 109.52 253.48C109.633 260.562 112.555 267.308 117.643 272.235C122.73 277.162 129.567 279.866 136.648 279.753L137.117 308.896C122.346 309.084 108.103 303.404 97.5148 293.103C86.9264 282.801 80.8573 268.72 80.6392 253.949V253.949Z" fill="#002469"/>
<path d="M162.796 252.625C162.812 252.767 162.812 252.91 162.796 253.052V254.322C162.805 255.01 162.759 255.697 162.658 256.378C162.571 257.308 162.415 258.231 162.189 259.138C161.648 261.671 160.717 264.106 159.43 266.354C157.755 269.363 155.505 272.012 152.806 274.151C149.302 276.98 145.133 278.868 140.696 279.639C136.258 280.409 131.697 280.035 127.444 278.552C126.232 278.131 125.047 277.634 123.898 277.062C122.739 276.443 121.624 275.747 120.559 274.979C119.475 274.194 118.443 273.341 117.468 272.426C116.506 271.454 115.607 270.422 114.777 269.335C113.065 267.103 111.723 264.611 110.803 261.953C109.894 259.203 109.402 256.334 109.34 253.439C109.322 250.544 109.745 247.664 110.596 244.897C111.424 242.21 112.682 239.675 114.322 237.391C115.863 235.157 117.755 233.186 119.924 231.554C120.946 230.773 122.02 230.063 123.139 229.429C124.264 228.814 125.43 228.279 126.63 227.828C132.479 225.592 138.927 225.484 144.848 227.522C150.768 229.56 155.783 233.615 159.016 238.978C160.374 241.183 161.384 243.585 162.01 246.098C162.26 247.003 162.444 247.926 162.562 248.858C162.687 249.532 162.756 250.215 162.769 250.9C162.769 251.438 162.769 251.852 162.769 252.169C162.787 252.316 162.787 252.464 162.769 252.611C162.727 252.472 162.703 252.328 162.7 252.183C162.7 251.852 162.631 251.438 162.576 250.914C162.541 250.232 162.453 249.554 162.314 248.885C162.171 247.952 161.964 247.03 161.693 246.126C161.034 243.655 160.001 241.301 158.629 239.143C156.82 236.266 154.478 233.761 151.73 231.761C148.191 229.139 144.047 227.455 139.682 226.866C135.318 226.278 130.875 226.803 126.768 228.394C124.396 229.291 122.176 230.547 120.186 232.12C118.112 233.728 116.314 235.662 114.86 237.846C113.268 240.075 112.043 242.544 111.231 245.16C110.412 247.843 110.003 250.634 110.017 253.439C110.119 259.025 111.988 264.435 115.357 268.893C116.92 271.028 118.822 272.892 120.987 274.413C122.017 275.166 123.101 275.844 124.229 276.441C125.345 277.006 126.497 277.494 127.679 277.904C131.832 279.365 136.287 279.752 140.63 279.028C144.973 278.305 149.062 276.494 152.516 273.764C155.179 271.673 157.417 269.092 159.112 266.161C160.41 263.958 161.368 261.571 161.955 259.082C162.203 258.178 162.378 257.255 162.479 256.323C162.604 255.649 162.674 254.966 162.686 254.281C162.686 253.756 162.755 253.342 162.769 253.011C162.765 252.882 162.775 252.752 162.796 252.625V252.625Z" fill="#263238"/>
<path d="M80.6389 253.949C80.6389 253.949 80.6389 254.253 80.7355 254.846C80.8321 255.439 80.8459 256.35 80.9425 257.482C80.9425 258.075 81.0391 258.723 81.0943 259.427C81.1495 260.131 81.3427 260.917 81.4807 261.759C81.6186 262.601 81.7842 263.498 81.9498 264.519C82.1556 265.539 82.4136 266.547 82.7225 267.541C84.0982 272.729 86.2522 277.679 89.1113 282.223C92.8388 288.277 97.6969 293.556 103.421 297.774L105.835 299.526C106.677 300.078 107.574 300.561 108.457 301.099C109.34 301.637 110.223 302.189 111.217 302.631L114.115 304.011L115.577 304.687L117.123 305.225L120.255 306.315C121.317 306.66 122.435 306.867 123.539 307.143C124.641 307.452 125.76 307.692 126.892 307.86C129.214 308.257 131.561 308.492 133.916 308.564C135.102 308.564 136.317 308.688 137.531 308.647L141.187 308.399C141.808 308.399 142.429 308.399 143.036 308.247L144.872 307.929C146.1 307.695 147.355 307.543 148.597 307.253C153.65 306.017 158.52 304.129 163.086 301.637C164.245 300.975 165.349 300.257 166.494 299.512C167.648 298.8 168.75 298.006 169.792 297.139C171.972 295.442 174.033 293.598 175.96 291.619L178.72 288.473L179.41 287.687L180.031 286.831L181.259 285.106L182.501 283.382L183.591 281.533L184.667 279.684L185.205 278.759L185.661 277.779L187.468 273.847L188.848 269.707C192.459 258.309 192.265 246.047 188.296 234.769L186.723 230.629C186.088 229.332 185.44 228.035 184.791 226.752L184.308 225.786L183.743 224.875L182.597 223.054L181.466 221.246L180.169 219.563L178.872 217.879L178.237 217.051L177.506 216.279C176.553 215.244 175.601 214.237 174.649 213.215C172.661 211.32 170.545 209.563 168.316 207.958C167.247 207.121 166.117 206.364 164.935 205.695C163.776 205.019 162.644 204.315 161.472 203.667C159.117 202.483 156.688 201.456 154.2 200.59C151.778 199.74 149.303 199.053 146.79 198.534C145.548 198.285 144.292 198.161 143.064 197.968L141.201 197.72C140.594 197.637 139.973 197.72 139.352 197.623L135.682 197.499C134.468 197.499 133.267 197.637 132.08 197.692C129.729 197.841 127.392 198.155 125.084 198.63C123.955 198.831 122.84 199.103 121.745 199.444C120.655 199.762 119.551 200.01 118.502 200.383L115.412 201.583L113.88 202.163L112.431 202.894L109.575 204.274C108.636 204.729 107.795 205.364 106.912 205.888C106.028 206.413 105.159 206.965 104.331 207.544L101.972 209.366C96.3877 213.766 91.7029 219.201 88.173 225.372C85.4621 230.007 83.4708 235.028 82.2672 240.261C81.9864 241.264 81.7607 242.282 81.591 243.31C81.4531 244.276 81.3151 245.173 81.2047 246.07C81.0943 246.967 80.9425 247.684 80.8873 248.388C80.8321 249.092 80.8873 249.768 80.8045 250.348C80.8045 251.493 80.7079 252.362 80.6803 252.983C80.6527 253.604 80.6113 253.894 80.6113 253.894C80.6113 253.894 80.6113 253.59 80.6113 252.983C80.6113 252.376 80.6113 251.479 80.6113 250.334C80.6113 249.754 80.6113 249.092 80.6113 248.374C80.6113 247.657 80.7907 246.884 80.8873 246.042C80.9839 245.201 81.1219 244.276 81.2461 243.283C81.4057 242.246 81.6222 241.219 81.8946 240.206C83.0666 234.936 85.0299 229.874 87.7177 225.193C91.2337 218.952 95.9186 213.448 101.516 208.979L103.89 207.13C104.731 206.537 105.615 206.013 106.484 205.447C107.353 204.881 108.222 204.274 109.175 203.805L112.058 202.425L113.438 201.68L114.984 201.086L118.116 199.872C119.165 199.486 120.282 199.237 121.386 198.906C122.496 198.561 123.625 198.28 124.767 198.064C127.097 197.583 129.458 197.265 131.832 197.112C133.032 197.112 134.247 196.905 135.475 196.892L139.187 197.016C139.808 197.016 140.429 197.016 141.063 197.112L142.926 197.361C144.182 197.554 145.451 197.678 146.707 197.913C149.252 198.443 151.759 199.139 154.213 199.996C156.806 200.852 159.333 201.894 161.775 203.115C162.962 203.75 164.121 204.495 165.294 205.157C166.486 205.835 167.63 206.596 168.716 207.434C170.975 209.065 173.123 210.844 175.146 212.76L178.03 215.851L178.761 216.637L179.424 217.479L180.721 219.176L182.101 220.887L183.246 222.709L184.405 224.558L184.984 225.482L185.467 226.448L187.441 230.381C187.965 231.761 188.489 233.141 189.027 234.521C193.052 245.94 193.245 258.36 189.579 269.9L188.2 274.04C187.592 275.42 186.971 276.703 186.364 278.028L185.909 279.021L185.357 279.96L184.267 281.836L183.163 283.699L181.907 285.438L180.652 287.176L180.031 288.046L179.327 288.846C178.389 289.922 177.464 290.985 176.567 292.033C174.61 294.011 172.521 295.855 170.316 297.553C169.259 298.424 168.144 299.222 166.977 299.94C165.818 300.658 164.7 301.416 163.528 302.093C161.192 303.371 158.772 304.486 156.283 305.432C153.858 306.367 151.373 307.141 148.846 307.75C147.604 308.04 146.334 308.192 145.092 308.426L143.23 308.744C142.609 308.84 141.974 308.84 141.353 308.895L137.655 309.13C136.427 309.13 135.213 309.13 133.998 309.047C131.621 308.959 129.251 308.715 126.906 308.316C125.761 308.137 124.628 307.893 123.511 307.584C122.394 307.295 121.276 307.088 120.2 306.729L117.04 305.625L115.481 305.073L113.99 304.383L111.079 303.003C110.113 302.562 109.244 301.955 108.319 301.444C107.395 300.934 106.525 300.409 105.67 299.857L103.241 298.077C97.4496 293.841 92.534 288.522 88.7663 282.416C85.9186 277.827 83.7918 272.829 82.4604 267.596C82.1583 266.572 81.9187 265.531 81.7428 264.477L81.2875 261.718C81.1633 260.876 81.0115 260.103 80.9425 259.386C80.8735 258.668 80.8597 258.006 80.8321 257.426C80.8321 256.281 80.7217 255.398 80.6803 254.777C80.6389 254.156 80.6389 253.949 80.6389 253.949Z" fill="#263238"/>
<path d="M130.33 192.724C166.207 192.145 194.797 219.977 195.377 256.005L161.432 256.543C161.156 239.323 148.061 228.477 130.91 228.753L130.33 192.724Z" fill="#7781FF"/>
<path d="M130.327 192.724C130.327 192.724 130.327 192.959 130.327 193.401C130.327 193.842 130.327 194.491 130.327 195.291C130.327 196.988 130.423 199.431 130.506 202.522C130.644 208.772 130.824 217.7 131.072 228.739L130.796 228.477C134.237 228.424 137.668 228.847 140.993 229.732C144.653 230.694 148.089 232.363 151.108 234.645C154.352 237.13 156.978 240.332 158.78 244C160.65 247.915 161.639 252.191 161.677 256.529L161.319 256.185L187.536 255.757L195.194 255.633L194.849 255.991C194.664 249.168 193.497 242.406 191.386 235.914L189.84 231.361C189.192 229.884 188.461 228.463 187.757 227.042C187.08 225.61 186.306 224.227 185.439 222.902C184.677 221.58 183.839 220.304 182.927 219.08C182.017 217.879 181.106 216.707 180.168 215.534C179.229 214.361 178.194 213.395 177.242 212.332L175.793 210.787L174.234 209.407L171.171 206.647C167.283 203.59 163.061 200.984 158.587 198.879L155.578 197.499C154.571 197.099 153.578 196.781 152.612 196.436L149.852 195.47C148.941 195.181 148.031 195.001 147.092 194.78L144.567 194.173L143.38 193.884L142.208 193.718L138.068 193.125C136.97 192.973 135.864 192.885 134.756 192.862L132.314 192.738L130.865 192.724H130.327H132.314H134.784C135.914 192.707 137.044 192.771 138.164 192.918L142.304 193.442L143.477 193.608L144.677 193.87L147.23 194.463C148.1 194.684 149.024 194.836 149.99 195.125L152.75 196.078C153.716 196.423 154.723 196.726 155.73 197.112L158.78 198.492C163.31 200.585 167.588 203.187 171.53 206.247C172.537 207.144 173.572 208.041 174.621 209.007L176.207 210.387L177.67 211.946C178.636 213.009 179.671 214.043 180.637 215.175L183.397 218.749C184.325 219.979 185.177 221.265 185.949 222.599C186.829 223.921 187.613 225.304 188.295 226.738C188.985 228.118 189.758 229.594 190.406 231.099L192.159 235.721C194.303 242.278 195.488 249.11 195.677 256.005V256.364H195.319L187.66 256.488L161.443 256.902H161.084V256.557C161.073 252.324 160.131 248.146 158.324 244.318C156.582 240.733 154.031 237.601 150.873 235.169C147.926 232.925 144.57 231.275 140.993 230.312C137.723 229.43 134.348 228.999 130.962 229.029H130.686V228.767C130.561 217.728 130.465 208.662 130.41 202.356C130.41 199.279 130.41 196.836 130.41 195.194V193.345C130.313 192.931 130.327 192.724 130.327 192.724Z" fill="#263238"/>
<path d="M359.096 207.255H258.09C257.526 207.255 256.985 207.034 256.582 206.639C256.18 206.244 255.948 205.707 255.938 205.143C255.938 204.573 256.164 204.025 256.568 203.621C256.972 203.218 257.519 202.991 258.09 202.991H359.096C359.665 202.994 360.209 203.223 360.61 203.626C361.01 204.029 361.235 204.575 361.235 205.143V205.143C361.224 205.705 360.995 206.24 360.595 206.634C360.196 207.028 359.658 207.251 359.096 207.255V207.255Z" fill="#263238"/>
<path d="M359.096 218.707H258.09C257.519 218.707 256.972 218.481 256.568 218.077C256.164 217.673 255.938 217.126 255.938 216.555V216.555C255.936 216.271 255.99 215.99 256.097 215.727C256.205 215.464 256.363 215.225 256.563 215.024C256.763 214.822 257.001 214.663 257.263 214.554C257.525 214.445 257.806 214.388 258.09 214.388H359.096C359.38 214.388 359.661 214.445 359.923 214.554C360.185 214.663 360.423 214.822 360.623 215.024C360.823 215.225 360.982 215.464 361.089 215.727C361.196 215.99 361.251 216.271 361.249 216.555V216.555C361.249 217.126 361.022 217.673 360.618 218.077C360.215 218.481 359.667 218.707 359.096 218.707V218.707Z" fill="#263238"/>
<path d="M303.984 230.16H258.09C257.519 230.16 256.972 229.934 256.568 229.53C256.164 229.126 255.938 228.579 255.938 228.008V228.008C255.936 227.724 255.99 227.443 256.097 227.18C256.205 226.917 256.363 226.678 256.563 226.477C256.763 226.275 257.001 226.116 257.263 226.007C257.525 225.897 257.806 225.841 258.09 225.841H303.984C304.268 225.84 304.55 225.894 304.813 226.001C305.075 226.109 305.314 226.267 305.516 226.467C305.717 226.667 305.877 226.905 305.986 227.167C306.095 227.429 306.151 227.71 306.151 227.994V227.994C306.153 228.279 306.098 228.561 305.99 228.825C305.881 229.089 305.722 229.328 305.52 229.53C305.319 229.731 305.079 229.891 304.816 229.999C304.552 230.107 304.27 230.162 303.984 230.16V230.16Z" fill="#263238"/>
<path d="M349.493 260.338H264.341C250.182 260.338 238.703 271.817 238.703 285.976V294.49C238.703 308.649 250.182 320.128 264.341 320.128H349.493C363.652 320.128 375.131 308.649 375.131 294.49V285.976C375.131 271.817 363.652 260.338 349.493 260.338Z" fill="white"/>
<path d="M361.858 357.412H249.081C245.947 357.408 242.943 356.16 240.728 353.943C238.514 351.726 237.27 348.72 237.27 345.586V345.586C237.27 344.035 237.575 342.499 238.169 341.066C238.762 339.633 239.632 338.331 240.729 337.234C241.826 336.137 243.128 335.267 244.561 334.674C245.994 334.08 247.53 333.775 249.081 333.775H361.858C364.992 333.775 367.997 335.019 370.215 337.233C372.432 339.448 373.679 342.452 373.683 345.586V345.586C373.683 348.722 372.437 351.73 370.22 353.948C368.002 356.166 364.994 357.412 361.858 357.412V357.412Z" fill="white"/>
<path d="M358.418 280.926H257.426C256.855 280.926 256.308 280.699 255.904 280.295C255.5 279.891 255.273 279.344 255.273 278.773V278.773C255.273 278.202 255.5 277.655 255.904 277.251C256.308 276.847 256.855 276.62 257.426 276.62H358.418C358.701 276.62 358.981 276.676 359.242 276.784C359.503 276.893 359.741 277.051 359.941 277.251C360.14 277.451 360.299 277.688 360.407 277.949C360.515 278.21 360.571 278.49 360.571 278.773V278.773C360.571 279.056 360.515 279.336 360.407 279.597C360.299 279.858 360.14 280.095 359.941 280.295C359.741 280.495 359.503 280.654 359.242 280.762C358.981 280.87 358.701 280.926 358.418 280.926V280.926Z" fill="#263238"/>
<path d="M354.114 348.001H253.121C252.55 348.001 252.003 347.774 251.599 347.371C251.196 346.967 250.969 346.419 250.969 345.848C250.969 345.278 251.196 344.73 251.599 344.326C252.003 343.923 252.55 343.696 253.121 343.696H354.114C354.406 343.686 354.696 343.736 354.968 343.843C355.24 343.95 355.488 344.11 355.696 344.316C355.904 344.521 356.067 344.766 356.177 345.037C356.287 345.308 356.341 345.598 356.335 345.89V345.89C356.33 346.175 356.268 346.456 356.153 346.717C356.038 346.978 355.873 347.214 355.666 347.41C355.459 347.606 355.216 347.76 354.949 347.861C354.683 347.963 354.399 348.01 354.114 348.001V348.001Z" fill="#263238"/>
<path d="M358.418 292.379H257.426C256.855 292.379 256.308 292.152 255.904 291.748C255.5 291.344 255.273 290.797 255.273 290.226C255.273 289.655 255.5 289.108 255.904 288.704C256.308 288.3 256.855 288.073 257.426 288.073H358.418C358.701 288.073 358.981 288.129 359.242 288.237C359.503 288.345 359.741 288.504 359.941 288.704C360.14 288.904 360.299 289.141 360.407 289.402C360.515 289.663 360.571 289.943 360.571 290.226V290.226C360.571 290.509 360.515 290.789 360.407 291.05C360.299 291.311 360.14 291.548 359.941 291.748C359.741 291.948 359.503 292.107 359.242 292.215C358.981 292.323 358.701 292.379 358.418 292.379V292.379Z" fill="#263238"/>
<path d="M303.32 303.831H257.426C256.855 303.831 256.308 303.605 255.904 303.201C255.5 302.797 255.273 302.25 255.273 301.679C255.273 301.108 255.5 300.56 255.904 300.157C256.308 299.753 256.855 299.526 257.426 299.526H303.32C303.891 299.526 304.439 299.753 304.842 300.157C305.246 300.56 305.473 301.108 305.473 301.679C305.473 302.25 305.246 302.797 304.842 303.201C304.439 303.605 303.891 303.831 303.32 303.831Z" fill="#263238"/>
<path d="M231.653 199.969C231.028 200.072 230.395 200.118 229.762 200.107L224.616 200.217C220.269 200.217 214.253 200.328 207.629 200.328H199.888L200.137 200.231C196.756 203.57 193.844 206.413 191.761 208.414L189.374 210.663C189.101 210.96 188.79 211.219 188.449 211.435C188.665 211.095 188.925 210.784 189.222 210.511L191.54 208.055C193.527 205.971 196.383 203.06 199.723 199.679L199.819 199.582H207.698C214.322 199.582 220.338 199.582 224.684 199.679L229.831 199.789C230.443 199.791 231.053 199.851 231.653 199.969V199.969Z" fill="#263238"/>
<path d="M230.161 202.936C231.746 202.936 233.031 201.651 233.031 200.066C233.031 198.48 231.746 197.195 230.161 197.195C228.576 197.195 227.291 198.48 227.291 200.066C227.291 201.651 228.576 202.936 230.161 202.936Z" fill="#263238"/>
<path d="M230.161 289.205C231.746 289.205 233.031 287.92 233.031 286.335C233.031 284.749 231.746 283.464 230.161 283.464C228.576 283.464 227.291 284.749 227.291 286.335C227.291 287.92 228.576 289.205 230.161 289.205Z" fill="#263238"/>
<path d="M228.257 286.845C226.659 287.03 225.05 287.099 223.441 287.052C220.461 287.052 216.349 287.052 211.809 287.052L200.191 286.942L196.658 286.859C196.231 286.889 195.802 286.889 195.375 286.859C196.954 286.536 198.567 286.411 200.177 286.486C203.157 286.404 207.269 286.362 211.809 286.39C216.349 286.417 220.461 286.473 223.441 286.555C225.052 286.525 226.662 286.622 228.257 286.845Z" fill="#263238"/>
<path d="M108.03 349.905H98.6191V359.316H108.03V349.905Z" fill="#455A64"/>
<path d="M139.586 349.905H130.176V359.316H139.586V349.905Z" fill="#E0E0E0"/>
<path d="M173.823 349.905H164.412V359.316H173.823V349.905Z" fill="#7781FF"/>
<path d="M381.968 106.332C381.968 106.502 340.1 106.627 288.464 106.627C236.829 106.627 194.938 106.502 194.938 106.332C194.938 106.162 236.795 106.037 288.464 106.037C340.134 106.037 381.968 106.173 381.968 106.332Z" fill="#E0E0E0"/>
<path d="M381.968 90.1898C381.968 90.3486 340.1 90.4848 288.464 90.4848C236.829 90.4848 194.938 90.3486 194.938 90.1898C194.938 90.031 236.795 89.8949 288.464 89.8949C340.134 89.8949 381.968 90.0197 381.968 90.1898Z" fill="#E0E0E0"/>
<path d="M381.968 74.0369C381.968 74.207 340.1 74.3318 288.464 74.3318C236.829 74.3318 194.938 74.207 194.938 74.0369C194.938 73.8667 236.795 73.7419 288.464 73.7419C340.134 73.7419 381.968 73.8781 381.968 74.0369Z" fill="#E0E0E0"/>
<path d="M381.968 57.895C381.968 58.0538 340.1 58.19 288.464 58.19C236.829 58.19 194.938 58.0538 194.938 57.895C194.938 57.7362 236.795 57.6001 288.464 57.6001C340.134 57.6001 381.968 57.7249 381.968 57.895Z" fill="#E0E0E0"/>
<path d="M226.323 99.015H210.76V130.312H226.323V99.015Z" fill="#7782FF"/>
<path d="M282.176 99.015H266.613V130.312H282.176V99.015Z" fill="#455A64"/>
<path d="M366.889 109.678H351.326V130.3H366.889V109.678Z" fill="#455A64"/>
<path d="M338.022 84.1892H322.459V130.3H338.022V84.1892Z" fill="#E0E0E0"/>
<path d="M309.471 66.2439H293.908V130.312H309.471V66.2439Z" fill="#7782FF"/>
<path d="M253.139 84.1892H237.576V130.3H253.139V84.1892Z" fill="#E0E0E0"/>
<path d="M379.743 130.312H379.04H376.998H369.149L340.257 130.403L244.972 130.493H194.698H194.357V130.221C194.357 105.436 194.448 84.3028 194.471 69.3521C194.471 61.8995 194.528 55.9895 194.55 51.9172C194.55 49.9095 194.55 48.3554 194.55 47.2778C194.55 46.7673 194.55 46.3816 194.55 46.0867C194.541 45.9507 194.541 45.8143 194.55 45.6783C194.55 45.6783 194.55 45.8258 194.55 46.0867V47.2778C194.55 48.3554 194.55 49.9095 194.55 51.9172C194.55 55.9895 194.55 61.8995 194.63 69.3521C194.63 84.3028 194.698 105.436 194.743 130.221L194.471 129.938H244.949L340.234 130.017L369.126 130.108L376.976 130.164H379.017L379.743 130.312Z" fill="#263238"/>
<path d="M234.219 146.181H227.379V153.021H234.219V146.181Z" fill="#7782FF"/>
<path d="M276.006 145.966H269.166V152.806H276.006V145.966Z" fill="#E0E0E0"/>
<path d="M321.211 146.181H314.371V153.021H321.211V146.181Z" fill="#455A64"/>
<path d="M256.86 149.38C253.766 149.679 250.655 149.777 247.547 149.675C244.44 149.777 241.329 149.679 238.234 149.38C241.33 149.088 244.44 148.99 247.547 149.085C250.655 148.99 253.765 149.088 256.86 149.38V149.38Z" fill="#263238"/>
<path d="M298.331 149.38C295.236 149.679 292.126 149.777 289.018 149.675C285.911 149.777 282.8 149.679 279.705 149.38C282.8 149.088 285.911 148.99 289.018 149.085C292.126 148.99 295.236 149.088 298.331 149.38V149.38Z" fill="#263238"/>
<path d="M342.478 149.38C336.279 149.773 330.062 149.773 323.863 149.38C330.062 148.987 336.279 148.987 342.478 149.38V149.38Z" fill="#263238"/>
</svg>
