<svg width="548" height="491" viewBox="0 0 548 491" fill="none" xmlns="http://www.w3.org/2000/svg">
<path d="M7.08638 11.0106H47.1142C50.4065 11.0106 53.072 13.6761 53.072 16.9684V40.1197C53.072 43.5403 50.3008 46.3116 46.8802 46.3116H22.2941C20.7084 46.3116 19.2133 47.0365 18.2317 48.2824L15.8531 51.2952C15.4831 51.7709 14.7733 51.7936 14.3655 51.3481L11.2847 48.003C10.288 46.9232 8.88351 46.3191 7.41861 46.3493L6.04434 46.372C3.21271 46.4248 0.894547 44.1444 0.894547 41.3128V17.1949C0.886996 13.7818 3.66577 11.0106 7.08638 11.0106Z" fill="white"/>
<path d="M7.08536 11.8638C10.7778 11.8638 14.4702 11.8638 18.1702 11.8638C24.8151 11.8638 31.46 11.8638 38.1049 11.8638C40.4608 11.8638 42.8167 11.8638 45.1726 11.8638C46.932 11.8638 48.6385 11.743 50.1563 12.8681C52.3838 14.5142 52.2253 16.9834 52.2253 19.4073C52.2253 22.4579 52.2253 25.501 52.2253 28.5516C52.2253 31.6022 52.2253 34.6452 52.2253 37.6958C52.2253 40.1046 52.3763 42.4907 50.2997 44.235C48.5253 45.7301 46.2524 45.4734 44.1004 45.4734C41.0498 45.4734 38.0067 45.4734 34.9561 45.4734C31.83 45.4734 28.7039 45.4734 25.5778 45.4734C23.6069 45.4734 21.4172 45.2242 19.5974 46.1076C18.0796 46.8476 17.1584 48.2748 16.139 49.5585C15.9351 49.8152 15.3839 50.8572 14.9459 50.7591C14.659 50.6911 14.1531 49.8982 13.9568 49.6868C13.0053 48.6523 12.0841 47.4366 10.9364 46.606C9.90188 45.866 8.66351 45.5111 7.39494 45.5111C6.6776 45.5036 5.93005 45.6017 5.2127 45.4809C3.15883 45.1185 1.7619 43.3289 1.72414 41.2901C1.71659 40.7087 1.72414 40.1272 1.72414 39.5458C1.72414 36.6538 1.72414 33.7618 1.72414 30.8697C1.72414 27.6228 1.72414 24.3759 1.72414 21.1214C1.72414 19.4073 1.45231 17.3383 1.95067 15.6696C2.63782 13.3967 4.7521 11.9091 7.08536 11.8638C8.18025 11.8412 8.18025 10.1422 7.08536 10.1649C3.01537 10.2479 0.055374 13.5024 0.040272 17.5044C0.032721 19.8301 0.040272 22.1634 0.040272 24.4891C0.040272 30.0693 -0.05034 35.6646 0.040272 41.2448C0.070476 43.1099 0.848232 44.8466 2.34333 45.9944C3.30231 46.7344 4.4425 47.1497 5.65066 47.2252C6.42841 47.2705 7.22127 47.1497 7.99902 47.2327C9.93208 47.4517 11.0723 49.0374 12.288 50.3589C13.2092 51.3631 14.4023 53.2056 16.0031 52.2768C16.5241 51.9748 16.8866 51.3707 17.249 50.9025C17.7323 50.2909 18.208 49.6793 18.6988 49.0676C19.6804 47.8444 20.9112 47.1874 22.4894 47.1723C24.7018 47.1572 26.9143 47.1723 29.1267 47.1723C34.941 47.1723 40.7628 47.195 46.5771 47.1723C50.5036 47.1572 53.8185 44.2878 53.9318 40.2632C53.9846 38.4585 53.9318 36.6462 53.9318 34.8415C53.9318 28.9744 53.9544 23.1073 53.9318 17.2402C53.9167 13.3816 51.0322 10.2328 47.1132 10.1724C45.8598 10.1498 44.6063 10.1724 43.3528 10.1724C36.942 10.1724 30.5237 10.1724 24.1129 10.1724C18.729 10.1724 13.3527 10.1724 7.96882 10.1724C7.68189 10.1724 7.38739 10.1724 7.10045 10.1724C5.99046 10.1649 5.99046 11.8638 7.08536 11.8638Z" fill="black"/>
<path d="M25.9264 40.3463V37.424C24.3331 37.3938 22.6794 36.8728 21.7129 36.1479L22.3774 34.2073C23.3666 34.902 24.8013 35.4532 26.3417 35.4532C28.2974 35.4532 29.6188 34.2677 29.6188 32.614C29.6188 31.0208 28.5466 30.0391 26.5078 29.1708C23.6988 28.0155 21.9696 26.6789 21.9696 24.1645C21.9696 21.7632 23.5931 19.9359 26.1227 19.5055V16.5833H27.8292V19.3922C29.4829 19.4526 30.608 19.9133 31.4084 20.4041L30.7212 22.3145C30.1398 21.9671 29.0147 21.3328 27.2553 21.3328C25.1335 21.3328 24.3406 22.6618 24.3406 23.8247C24.3406 25.3273 25.36 26.0824 27.7537 27.1245C30.5853 28.3402 32.02 29.8428 32.02 32.4253C32.02 34.7132 30.5098 36.8577 27.6706 37.3485V40.3614H25.9264V40.3463Z" fill="black"/>
<path d="M472.727 306.195H97.7214C91.0161 306.195 85.5869 300.758 85.5869 294.06V13.8198C85.5869 7.11448 91.0236 1.6853 97.7214 1.6853H472.719C479.425 1.6853 484.854 7.12203 484.854 13.8198V294.06C484.861 300.765 479.425 306.195 472.727 306.195Z" fill="white"/>
<path d="M472.729 305.349C470.04 305.349 467.345 305.349 464.657 305.349C457.211 305.349 449.758 305.349 442.313 305.349C431.168 305.349 420.03 305.349 408.885 305.349C395.029 305.349 381.165 305.349 367.309 305.349C351.663 305.349 336.018 305.349 320.372 305.349C304.069 305.349 287.767 305.349 271.464 305.349C255.441 305.349 239.418 305.349 223.394 305.349C208.647 305.349 193.908 305.349 179.161 305.349C166.694 305.349 154.22 305.349 141.753 305.349C132.526 305.349 123.306 305.349 114.079 305.349C109.17 305.349 104.27 305.349 99.3617 305.349C97.4286 305.349 95.5861 305.326 93.7135 304.616C88.7298 302.736 86.4343 298.002 86.4343 292.965C86.4343 287.377 86.4343 281.79 86.4343 276.202C86.4343 265.328 86.4343 254.455 86.4343 243.589C86.4343 229.212 86.4343 214.827 86.4343 200.45C86.4343 184.352 86.4343 168.245 86.4343 152.146C86.4343 136.048 86.4343 119.949 86.4343 103.85C86.4343 89.677 86.4343 75.5038 86.4343 61.3306C86.4343 50.8045 86.4343 40.2784 86.4343 29.7523C86.4343 24.6478 86.4192 19.5509 86.4343 14.4464C86.457 7.9903 91.0706 2.6593 97.7231 2.53093C98.4706 2.51583 99.2257 2.53093 99.9733 2.53093C105.244 2.53093 110.514 2.53093 115.785 2.53093C125.254 2.53093 134.723 2.53093 144.192 2.53093C156.863 2.53093 169.533 2.53093 182.204 2.53093C197.14 2.53093 212.075 2.53093 227.011 2.53093C243.087 2.53093 259.171 2.53093 275.247 2.53093C291.527 2.53093 307.815 2.53093 324.095 2.53093C339.642 2.53093 355.19 2.53093 370.737 2.53093C384.42 2.53093 398.11 2.53093 411.792 2.53093C422.68 2.53093 433.569 2.53093 444.465 2.53093C451.563 2.53093 458.661 2.53093 465.759 2.53093C469.67 2.53093 474.412 1.9646 477.969 3.8146C484.908 7.43153 484.017 14.7938 484.017 21.265C484.017 29.7976 484.017 38.3302 484.017 46.8704C484.017 59.7751 484.017 72.6797 484.017 85.592C484.017 101.147 484.017 116.71 484.017 132.265C484.017 148.552 484.017 164.847 484.017 181.135C484.017 196.433 484.017 211.724 484.017 227.022C484.017 239.534 484.017 252.046 484.017 264.566C484.017 272.509 484.017 280.453 484.017 288.404C484.017 290.081 484.025 291.749 484.017 293.426C483.995 299.897 479.389 305.198 472.729 305.349C471.634 305.371 471.634 307.07 472.729 307.048C480.068 306.882 485.663 301.067 485.716 293.766C485.724 292.233 485.716 290.707 485.716 289.175C485.716 281.397 485.716 273.612 485.716 265.834C485.716 253.36 485.716 240.878 485.716 228.404C485.716 212.977 485.716 197.543 485.716 182.116C485.716 165.701 485.716 149.277 485.716 132.861C485.716 117.163 485.716 101.472 485.716 85.7732C485.716 72.7628 485.716 59.7524 485.716 46.742C485.716 38.1566 485.716 29.5786 485.716 20.9931C485.716 14.6805 486.434 8.06581 480.748 3.61072C476.572 0.341135 471.603 0.831956 466.68 0.831956C459.756 0.831956 452.832 0.831956 445.907 0.831956C435.041 0.831956 424.176 0.831956 413.31 0.831956C399.597 0.831956 385.892 0.831956 372.179 0.831956C356.541 0.831956 340.911 0.831956 325.273 0.831956C308.864 0.831956 292.456 0.831956 276.048 0.831956C259.768 0.831956 243.48 0.831956 227.2 0.831956C212.204 0.831956 197.2 0.831956 182.204 0.831956C169.397 0.831956 156.591 0.831956 143.784 0.831956C134.27 0.831956 124.756 0.831956 115.241 0.831956C110.061 0.831956 104.889 0.831956 99.709 0.831956C98.6821 0.831956 97.6476 0.794195 96.6206 0.884807C89.6813 1.48134 84.7807 7.40133 84.7429 14.1972C84.7127 19.0223 84.7429 23.855 84.7429 28.68C84.7429 39.1004 84.7429 49.5284 84.7429 59.9488C84.7429 74.205 84.7429 88.4613 84.7429 102.725C84.7429 118.869 84.7429 135.006 84.7429 151.15C84.7429 167.46 84.7429 183.763 84.7429 200.073C84.7429 214.578 84.7429 229.084 84.7429 243.589C84.7429 254.568 84.7429 265.54 84.7429 276.519C84.7429 282.046 84.7429 287.574 84.7429 293.109C84.7429 297.707 86.4192 301.981 90.3005 304.715C92.8753 306.527 95.8429 307.048 98.901 307.048C103.56 307.048 108.219 307.048 112.87 307.048C121.969 307.048 131.061 307.048 140.16 307.048C152.604 307.048 165.048 307.048 177.492 307.048C192.352 307.048 207.213 307.048 222.073 307.048C238.202 307.048 254.338 307.048 270.467 307.048C286.974 307.048 303.473 307.048 319.979 307.048C335.693 307.048 351.407 307.048 367.128 307.048C381.15 307.048 395.172 307.048 409.194 307.048C420.423 307.048 431.651 307.048 442.887 307.048C450.272 307.048 457.649 307.048 465.034 307.048C467.601 307.048 470.169 307.048 472.729 307.048C473.816 307.048 473.823 305.349 472.729 305.349Z" fill="black"/>
<path d="M226.784 252.514H121.576C119.318 252.514 117.483 250.687 117.483 248.422V214.14C117.483 211.883 119.311 210.048 121.576 210.048H226.784C229.042 210.048 230.877 211.875 230.877 214.14V248.422C230.869 250.687 229.042 252.514 226.784 252.514Z" fill="white"/>
<path d="M226.784 251.669C225.062 251.669 223.348 251.669 221.627 251.669C217.119 251.669 212.611 251.669 208.103 251.669C201.858 251.669 195.621 251.669 189.376 251.669C182.369 251.669 175.354 251.669 168.347 251.669C161.649 251.669 154.944 251.669 148.246 251.669C142.839 251.669 137.433 251.669 132.019 251.669C128.908 251.669 125.797 251.669 122.686 251.669C121.84 251.669 120.987 251.737 120.194 251.359C118.102 250.362 118.336 248.195 118.336 246.292C118.336 240.229 118.336 234.166 118.336 228.102C118.336 223.481 118.216 218.837 118.336 214.216C118.389 212.132 119.983 210.916 121.946 210.908C122.837 210.908 123.728 210.908 124.619 210.908C128.53 210.908 132.442 210.908 136.353 210.908C142.288 210.908 148.223 210.908 154.158 210.908C161.052 210.908 167.947 210.908 174.841 210.908C181.735 210.908 188.621 210.908 195.515 210.908C201.33 210.908 207.136 210.908 212.951 210.908C216.703 210.908 220.456 210.908 224.209 210.908C224.994 210.908 225.787 210.901 226.573 210.908C228.634 210.924 230.016 212.388 230.023 214.427C230.046 219.418 230.023 224.417 230.023 229.408C230.023 235.245 230.023 241.082 230.023 246.927C230.023 247.402 230.031 247.878 230.023 248.354C229.978 250.189 228.641 251.608 226.784 251.669C225.697 251.699 225.689 253.405 226.784 253.368C229.147 253.292 231.231 251.669 231.639 249.29C231.737 248.724 231.722 248.158 231.722 247.584C231.722 245.364 231.722 243.144 231.722 240.924C231.722 234.158 231.722 227.4 231.722 220.634C231.722 218.618 231.722 216.609 231.722 214.593C231.722 211.686 229.804 209.277 226.761 209.202C224.775 209.157 222.789 209.202 220.804 209.202C216.016 209.202 211.221 209.202 206.434 209.202C199.925 209.202 193.409 209.202 186.9 209.202C179.711 209.202 172.53 209.202 165.341 209.202C158.659 209.202 151.969 209.202 145.286 209.202C140.076 209.202 134.858 209.202 129.648 209.202C127.065 209.202 124.49 209.194 121.908 209.202C119.333 209.209 117.023 210.84 116.683 213.514C116.509 214.895 116.637 216.36 116.637 217.75C116.637 224.289 116.637 230.828 116.637 237.367C116.637 240.169 116.637 242.97 116.637 245.764C116.637 247.493 116.411 249.434 117.355 250.974C119.099 253.821 122.399 253.353 125.231 253.353C129.444 253.353 133.657 253.353 137.871 253.353C144.07 253.353 150.262 253.353 156.461 253.353C163.559 253.353 170.657 253.353 177.755 253.353C184.672 253.353 191.596 253.353 198.513 253.353C204.169 253.353 209.832 253.353 215.488 253.353C218.803 253.353 222.125 253.353 225.44 253.353C225.885 253.353 226.323 253.353 226.769 253.353C227.871 253.368 227.879 251.669 226.784 251.669Z" fill="black"/>
<path d="M395.955 59.3522C398.258 59.3522 400.561 59.3522 402.864 59.3522C408.399 59.3522 413.926 59.3522 419.461 59.3522C426.189 59.3522 432.917 59.3522 439.645 59.3522C445.437 59.3522 451.228 59.3522 457.02 59.3522C458.93 59.3522 460.841 59.3522 462.751 59.3522C463.65 59.3522 464.579 59.4202 465.477 59.3522C465.515 59.3522 465.56 59.3522 465.598 59.3522C466.693 59.3522 466.693 57.6533 465.598 57.6533C463.295 57.6533 460.992 57.6533 458.689 57.6533C453.154 57.6533 447.627 57.6533 442.092 57.6533C435.364 57.6533 428.636 57.6533 421.908 57.6533C416.116 57.6533 410.325 57.6533 404.533 57.6533C402.623 57.6533 400.712 57.6533 398.802 57.6533C397.903 57.6533 396.974 57.5853 396.076 57.6533C396.038 57.6533 395.993 57.6533 395.955 57.6533C394.868 57.6533 394.86 59.3522 395.955 59.3522Z" fill="black"/>
<path d="M395.955 70.9128C398.258 70.9128 400.561 70.9128 402.864 70.9128C408.399 70.9128 413.926 70.9128 419.461 70.9128C426.189 70.9128 432.917 70.9128 439.645 70.9128C445.437 70.9128 451.228 70.9128 457.02 70.9128C458.93 70.9128 460.841 70.9128 462.751 70.9128C463.65 70.9128 464.579 70.9808 465.477 70.9128C465.515 70.9128 465.56 70.9128 465.598 70.9128C466.693 70.9128 466.693 69.2139 465.598 69.2139C463.295 69.2139 460.992 69.2139 458.689 69.2139C453.154 69.2139 447.627 69.2139 442.092 69.2139C435.364 69.2139 428.636 69.2139 421.908 69.2139C416.116 69.2139 410.325 69.2139 404.533 69.2139C402.623 69.2139 400.712 69.2139 398.802 69.2139C397.903 69.2139 396.974 69.1459 396.076 69.2139C396.038 69.2139 395.993 69.2139 395.955 69.2139C394.868 69.2139 394.86 70.9128 395.955 70.9128Z" fill="black"/>
<path d="M395.955 81.7259C398.258 81.7259 400.561 81.7259 402.864 81.7259C408.399 81.7259 413.926 81.7259 419.461 81.7259C426.189 81.7259 432.917 81.7259 439.645 81.7259C445.437 81.7259 451.228 81.7259 457.02 81.7259C458.93 81.7259 460.841 81.7259 462.751 81.7259C463.65 81.7259 464.579 81.7938 465.477 81.7259C465.515 81.7259 465.56 81.7259 465.598 81.7259C466.693 81.7259 466.693 80.0269 465.598 80.0269C463.295 80.0269 460.992 80.0269 458.689 80.0269C453.154 80.0269 447.627 80.0269 442.092 80.0269C435.364 80.0269 428.636 80.0269 421.908 80.0269C416.116 80.0269 410.325 80.0269 404.533 80.0269C402.623 80.0269 400.712 80.0269 398.802 80.0269C397.903 80.0269 396.974 79.9589 396.076 80.0269C396.038 80.0269 395.993 80.0269 395.955 80.0269C394.868 80.0269 394.86 81.7259 395.955 81.7259Z" fill="black"/>
<path d="M118.283 29.2691C118.359 44.2276 118.442 59.1786 118.517 74.1371C118.593 89.0957 118.676 104.047 118.751 119.005C118.797 127.425 118.842 135.844 118.887 144.271C118.887 144.731 119.272 145.124 119.741 145.124C143.617 145.124 167.493 145.124 191.362 145.124C215.11 145.124 238.858 145.124 262.606 145.124C275.926 145.124 289.245 145.124 302.565 145.124C303.66 145.124 303.66 143.425 302.565 143.425C278.689 143.425 254.813 143.425 230.944 143.425C207.196 143.425 183.448 143.425 159.7 143.425C146.381 143.425 133.061 143.425 119.741 143.425C120.028 143.712 120.307 143.991 120.594 144.278C120.518 129.32 120.435 114.369 120.36 99.4103C120.284 84.4518 120.201 69.5008 120.126 54.5423C120.08 46.1229 120.035 37.7036 119.99 29.2766C119.975 28.1742 118.276 28.1742 118.283 29.2691Z" fill="black"/>
<path d="M152.134 95.2724H135.938V144.271H152.134V95.2724Z" fill="white"/>
<path d="M152.135 143.418C147.408 143.418 142.689 143.418 137.962 143.418C137.29 143.418 136.61 143.418 135.938 143.418C136.225 143.705 136.504 143.984 136.791 144.271C136.791 138.759 136.791 133.254 136.791 127.742C136.791 118.952 136.791 110.155 136.791 101.366C136.791 99.3348 136.791 97.3036 136.791 95.2724C136.504 95.5593 136.225 95.8387 135.938 96.1256C140.665 96.1256 145.384 96.1256 150.111 96.1256C150.783 96.1256 151.463 96.1256 152.135 96.1256C151.848 95.8387 151.569 95.5593 151.282 95.2724C151.282 100.785 151.282 106.289 151.282 111.802C151.282 120.591 151.282 129.388 151.282 138.177C151.282 140.208 151.282 142.24 151.282 144.271C151.282 145.366 152.981 145.366 152.981 144.271C152.981 138.759 152.981 133.254 152.981 127.742C152.981 118.952 152.981 110.155 152.981 101.366C152.981 99.3348 152.981 97.3036 152.981 95.2724C152.981 94.8118 152.588 94.4191 152.127 94.4191C147.4 94.4191 142.681 94.4191 137.954 94.4191C137.282 94.4191 136.602 94.4191 135.93 94.4191C135.47 94.4191 135.077 94.8118 135.077 95.2724C135.077 100.785 135.077 106.289 135.077 111.802C135.077 120.591 135.077 129.388 135.077 138.177C135.077 140.208 135.077 142.24 135.077 144.271C135.077 144.731 135.47 145.124 135.93 145.124C140.657 145.124 145.377 145.124 150.104 145.124C150.776 145.124 151.455 145.124 152.127 145.124C153.23 145.117 153.23 143.418 152.135 143.418Z" fill="black"/>
<path d="M182.277 71.1772H166.08V144.271H182.277V71.1772Z" fill="white"/>
<path d="M182.276 143.418C177.549 143.418 172.83 143.418 168.103 143.418C167.431 143.418 166.752 143.418 166.079 143.418C166.366 143.705 166.646 143.984 166.933 144.271C166.933 141.847 166.933 139.416 166.933 136.992C166.933 131.17 166.933 125.341 166.933 119.519C166.933 112.504 166.933 105.489 166.933 98.474C166.933 92.3804 166.933 86.2867 166.933 80.1931C166.933 78.1921 166.933 76.191 166.933 74.1825C166.933 73.2914 167.114 72.1815 166.933 71.298C166.925 71.2602 166.933 71.2149 166.933 71.1696C166.646 71.4566 166.366 71.7359 166.079 72.0229C170.806 72.0229 175.526 72.0229 180.253 72.0229C180.925 72.0229 181.604 72.0229 182.276 72.0229C181.989 71.7359 181.71 71.4566 181.423 71.1696C181.423 73.5935 181.423 76.0249 181.423 78.4488C181.423 84.2706 181.423 90.1 181.423 95.9218C181.423 102.937 181.423 109.952 181.423 116.966C181.423 123.06 181.423 129.154 181.423 135.247C181.423 137.248 181.423 139.249 181.423 141.258C181.423 142.209 181.355 143.191 181.423 144.142C181.423 144.18 181.423 144.226 181.423 144.271C181.423 145.366 183.122 145.366 183.122 144.271C183.122 141.847 183.122 139.416 183.122 136.992C183.122 131.17 183.122 125.341 183.122 119.519C183.122 112.504 183.122 105.489 183.122 98.474C183.122 92.3804 183.122 86.2867 183.122 80.1931C183.122 78.1921 183.122 76.191 183.122 74.1825C183.122 73.231 183.19 72.2494 183.122 71.298C183.122 71.2602 183.122 71.2149 183.122 71.1696C183.122 70.709 182.729 70.3163 182.269 70.3163C177.542 70.3163 172.823 70.3163 168.096 70.3163C167.424 70.3163 166.744 70.3163 166.072 70.3163C165.611 70.3163 165.219 70.709 165.219 71.1696C165.219 73.5935 165.219 76.0249 165.219 78.4488C165.219 84.2706 165.219 90.1 165.219 95.9218C165.219 102.937 165.219 109.952 165.219 116.966C165.219 123.06 165.219 129.154 165.219 135.247C165.219 137.248 165.219 139.249 165.219 141.258C165.219 142.209 165.151 143.191 165.219 144.142C165.219 144.18 165.219 144.226 165.219 144.271C165.219 144.731 165.611 145.124 166.072 145.124C170.799 145.124 175.518 145.124 180.245 145.124C180.917 145.124 181.597 145.124 182.269 145.124C183.371 145.117 183.371 143.418 182.276 143.418Z" fill="black"/>
<path d="M215.607 91.4592H199.41V144.271H215.607V91.4592Z" fill="white"/>
<path d="M215.608 143.418C210.881 143.418 206.161 143.418 201.434 143.418C200.762 143.418 200.083 143.418 199.411 143.418C199.698 143.705 199.977 143.984 200.264 144.271C200.264 138.313 200.264 132.355 200.264 126.405C200.264 116.921 200.264 107.437 200.264 97.953C200.264 95.7859 200.264 93.6263 200.264 91.4592C199.977 91.7461 199.698 92.0255 199.411 92.3124C204.138 92.3124 208.857 92.3124 213.584 92.3124C214.256 92.3124 214.936 92.3124 215.608 92.3124C215.321 92.0255 215.041 91.7461 214.754 91.4592C214.754 97.4169 214.754 103.375 214.754 109.325C214.754 118.809 214.754 128.293 214.754 137.777C214.754 139.944 214.754 142.104 214.754 144.271C214.754 145.366 216.453 145.366 216.453 144.271C216.453 138.313 216.453 132.355 216.453 126.405C216.453 116.921 216.453 107.437 216.453 97.953C216.453 95.7859 216.453 93.6263 216.453 91.4592C216.453 90.9986 216.061 90.6059 215.6 90.6059C210.873 90.6059 206.154 90.6059 201.427 90.6059C200.755 90.6059 200.075 90.6059 199.403 90.6059C198.942 90.6059 198.55 90.9986 198.55 91.4592C198.55 97.4169 198.55 103.375 198.55 109.325C198.55 118.809 198.55 128.293 198.55 137.777C198.55 139.944 198.55 142.104 198.55 144.271C198.55 144.731 198.942 145.124 199.403 145.124C204.13 145.124 208.849 145.124 213.576 145.124C214.248 145.124 214.928 145.124 215.6 145.124C216.702 145.117 216.702 143.418 215.608 143.418Z" fill="black"/>
<path d="M247.299 66.9259H231.103V144.271H247.299V66.9259Z" fill="white"/>
<path d="M247.299 143.418C242.572 143.418 237.853 143.418 233.126 143.418C232.454 143.418 231.774 143.418 231.102 143.418C231.389 143.704 231.668 143.984 231.955 144.271C231.955 141.711 231.955 139.151 231.955 136.584C231.955 130.43 231.955 124.276 231.955 118.129C231.955 110.684 231.955 103.239 231.955 95.7934C231.955 89.3524 231.955 82.9114 231.955 76.4704C231.955 74.3485 231.955 72.2191 231.955 70.0973C231.955 69.1534 232.136 67.9981 231.955 67.0618C231.948 67.0165 231.955 66.9712 231.955 66.9259C231.668 67.2128 231.389 67.4922 231.102 67.7792C235.829 67.7792 240.548 67.7792 245.275 67.7792C245.947 67.7792 246.627 67.7792 247.299 67.7792C247.012 67.4922 246.733 67.2128 246.446 66.9259C246.446 69.4857 246.446 72.0455 246.446 74.6128C246.446 80.7669 246.446 86.921 246.446 93.0675C246.446 100.513 246.446 107.958 246.446 115.403C246.446 121.844 246.446 128.285 246.446 134.726C246.446 136.848 246.446 138.978 246.446 141.099C246.446 142.104 246.378 143.131 246.446 144.135C246.446 144.18 246.446 144.226 246.446 144.271C246.446 145.366 248.145 145.366 248.145 144.271C248.145 141.711 248.145 139.151 248.145 136.584C248.145 130.43 248.145 124.276 248.145 118.129C248.145 110.684 248.145 103.239 248.145 95.7934C248.145 89.3524 248.145 82.9114 248.145 76.4704C248.145 74.3485 248.145 72.2191 248.145 70.0973C248.145 69.093 248.213 68.0661 248.145 67.0618C248.145 67.0165 248.145 66.9712 248.145 66.9259C248.145 66.4653 247.752 66.0726 247.291 66.0726C242.564 66.0726 237.845 66.0726 233.118 66.0726C232.446 66.0726 231.766 66.0726 231.094 66.0726C230.634 66.0726 230.241 66.4653 230.241 66.9259C230.241 69.4857 230.241 72.0455 230.241 74.6128C230.241 80.7669 230.241 86.921 230.241 93.0675C230.241 100.513 230.241 107.958 230.241 115.403C230.241 121.844 230.241 128.285 230.241 134.726C230.241 136.848 230.241 138.978 230.241 141.099C230.241 142.104 230.173 143.131 230.241 144.135C230.241 144.18 230.241 144.226 230.241 144.271C230.241 144.731 230.634 145.124 231.094 145.124C235.821 145.124 240.541 145.124 245.268 145.124C245.94 145.124 246.619 145.124 247.291 145.124C248.386 145.117 248.394 143.418 247.299 143.418Z" fill="black"/>
<path d="M282.117 44.4541H265.92V144.271H282.117V44.4541Z" fill="white"/>
<path d="M282.125 143.418C277.398 143.418 272.679 143.418 267.952 143.418C267.28 143.418 266.6 143.418 265.928 143.418C266.215 143.704 266.494 143.984 266.781 144.271C266.781 140.963 266.781 137.656 266.781 134.341C266.781 126.398 266.781 118.446 266.781 110.503C266.781 100.89 266.781 91.2779 266.781 81.6654C266.781 73.3518 266.781 65.0457 266.781 56.732C266.781 53.991 266.781 51.2575 266.781 48.5165C266.781 47.2706 266.97 45.8586 266.781 44.6202C266.774 44.5674 266.781 44.5069 266.781 44.4541C266.494 44.741 266.215 45.0204 265.928 45.3074C270.655 45.3074 275.374 45.3074 280.101 45.3074C280.773 45.3074 281.453 45.3074 282.125 45.3074C281.838 45.0204 281.559 44.741 281.272 44.4541C281.272 47.7614 281.272 51.0688 281.272 54.3837C281.272 62.3273 281.272 70.2785 281.272 78.2222C281.272 87.8346 281.272 97.447 281.272 107.059C281.272 115.373 281.272 123.679 281.272 131.993C281.272 136.018 281.121 140.08 281.272 144.105C281.272 144.158 281.272 144.218 281.272 144.271C281.272 145.366 282.971 145.366 282.971 144.271C282.971 140.963 282.971 137.656 282.971 134.341C282.971 126.398 282.971 118.446 282.971 110.503C282.971 100.89 282.971 91.2779 282.971 81.6654C282.971 73.3518 282.971 65.0457 282.971 56.732C282.971 52.7073 283.122 48.6449 282.971 44.6202C282.971 44.5674 282.971 44.5069 282.971 44.4541C282.971 43.9935 282.578 43.6008 282.117 43.6008C277.39 43.6008 272.671 43.6008 267.944 43.6008C267.272 43.6008 266.592 43.6008 265.92 43.6008C265.46 43.6008 265.067 43.9935 265.067 44.4541C265.067 47.7614 265.067 51.0688 265.067 54.3837C265.067 62.3273 265.067 70.2785 265.067 78.2222C265.067 87.8346 265.067 97.447 265.067 107.059C265.067 115.373 265.067 123.679 265.067 131.993C265.067 136.018 264.916 140.08 265.067 144.105C265.067 144.158 265.067 144.218 265.067 144.271C265.067 144.731 265.46 145.124 265.92 145.124C270.647 145.124 275.367 145.124 280.094 145.124C280.766 145.124 281.445 145.124 282.117 145.124C283.212 145.117 283.22 143.418 282.125 143.418Z" fill="black"/>
<path d="M128.439 78.3657C132.162 75.1489 135.884 71.9247 139.607 68.7079C145.534 63.5808 151.462 58.4537 157.389 53.3265C158.741 52.1561 160.093 50.9857 161.444 49.8153C161.105 49.8606 160.757 49.9059 160.417 49.9512C164.397 52.5639 168.384 55.169 172.363 57.7816C178.676 61.9196 184.988 66.05 191.301 70.1879C192.751 71.1394 194.193 72.0832 195.643 73.0347C195.968 73.2461 196.398 73.1479 196.67 72.8988C200.294 69.6141 203.919 66.3294 207.551 63.0447C213.327 57.8118 219.111 52.579 224.888 47.3461C226.217 46.1455 227.538 44.9449 228.867 43.7443C228.527 43.7896 228.18 43.8349 227.84 43.8802C232.635 46.9686 237.423 50.0494 242.217 53.1378C242.889 53.5682 243.561 54.0061 244.241 54.4365C244.558 54.6404 245.011 54.5649 245.268 54.3006C248.568 50.9933 251.868 47.6935 255.167 44.3862C260.438 39.1156 265.701 33.8374 270.972 28.5668C272.187 27.3511 273.411 26.1278 274.626 24.9121C275.396 24.1344 274.196 22.9338 273.426 23.7115C270.126 27.0188 266.826 30.3186 263.526 33.626C258.256 38.8966 252.993 44.1747 247.722 49.4453C246.506 50.661 245.283 51.8843 244.067 53.1C244.407 53.0547 244.755 53.0094 245.094 52.9641C240.299 49.8757 235.512 46.7949 230.717 43.7066C230.045 43.2762 229.373 42.8382 228.694 42.4078C228.369 42.1964 227.938 42.2945 227.667 42.5437C224.042 45.8284 220.418 49.1131 216.786 52.3978C211.009 57.6306 205.225 62.8635 199.449 68.0963C198.12 69.2969 196.798 70.4975 195.469 71.6981C195.809 71.6528 196.156 71.6075 196.496 71.5622C192.517 68.9496 188.53 66.3445 184.55 63.7318C178.238 59.5939 171.925 55.4635 165.612 51.3255C164.163 50.3741 162.72 49.4302 161.271 48.4788C160.938 48.2598 160.516 48.3731 160.244 48.6147C156.521 51.8315 152.798 55.0557 149.076 58.2725C143.148 63.3996 137.221 68.5267 131.293 73.6539C129.942 74.8243 128.59 75.9947 127.238 77.1651C126.408 77.8824 127.616 79.0755 128.439 78.3657Z" fill="black"/>
<path d="M91.892 233.916H53.9634C50.203 233.916 47.1523 230.866 47.1523 227.105V189.177C47.1523 185.416 50.203 182.366 53.9634 182.366H91.892C95.6524 182.366 98.703 185.416 98.703 189.177V227.105C98.703 230.873 95.66 233.916 91.892 233.916Z" fill="#F1416C"/>
<path d="M55.5802 221.502C58.8724 217.108 62.1722 212.713 65.4644 208.318C65.9326 207.699 66.3932 207.072 66.8614 206.453C66.4159 206.514 65.9704 206.567 65.5248 206.627C68.4848 210.161 71.4524 213.695 74.4124 217.229C74.7899 217.682 75.462 217.47 75.7489 217.055C79.3432 211.867 82.9299 206.68 86.5242 201.492C87.0376 200.752 87.5511 200.012 88.0646 199.272C88.6913 198.374 87.2189 197.52 86.5997 198.411C83.0054 203.599 79.4187 208.787 75.8244 213.974C75.3109 214.714 74.7975 215.454 74.284 216.194C74.7295 216.134 75.175 216.081 75.6205 216.02C72.6605 212.486 69.693 208.953 66.733 205.419C66.3479 204.958 65.6985 205.192 65.3965 205.592C62.1042 209.987 58.8044 214.382 55.5122 218.777C55.044 219.396 54.5834 220.022 54.1153 220.642C53.4583 221.518 54.9308 222.363 55.5802 221.502Z" fill="white"/>
<path d="M89.9666 195.051L89.4078 201.341L88.849 207.639L83.6766 204.007L78.5117 200.375L84.2429 197.709L89.9666 195.051Z" fill="white"/>
<path d="M122.308 387.911C127.269 395.576 126.371 406.902 122.656 408.412C117.868 410.36 108.248 396.089 106.3 393.189C102.562 387.647 98.4697 381.576 100.357 379.16C102.872 375.928 116.396 378.79 122.308 387.911Z" fill="white"/>
<path d="M121.576 388.334C123.486 391.332 124.559 394.82 124.823 398.354C125.019 400.99 124.951 404.146 123.532 406.464C122.535 408.088 121.078 407.891 119.582 407.03C117.393 405.769 115.596 403.814 113.942 401.934C110.589 398.113 107.712 393.884 104.941 389.633C103.846 387.957 102.766 386.25 101.883 384.445C101.302 383.267 100.448 381.599 100.773 380.232C101.15 378.646 103.642 378.684 104.918 378.737C111.352 379.039 118.057 382.996 121.576 388.334C122.172 389.24 123.645 388.395 123.041 387.473C119.386 381.916 112.922 378.035 106.338 377.166C104.345 376.902 101.717 376.781 100.093 378.201C97.7148 380.277 99.7989 384.189 100.962 386.333C102.646 389.444 104.692 392.374 106.7 395.281C108.294 397.584 109.962 399.834 111.76 401.986C113.632 404.229 115.656 406.487 118.102 408.11C119.786 409.228 122.029 410.089 123.819 408.692C126.25 406.789 126.605 402.802 126.597 399.97C126.575 395.606 125.404 391.166 123.048 387.473C122.452 386.56 120.987 387.413 121.576 388.334Z" fill="black"/>
<path d="M125.539 367.69C122.942 381.47 128.567 396.248 132.343 396.157C136.496 396.059 139.056 377.921 140.128 370.348C141.313 361.966 143.412 347.053 139.818 345.83C136.443 344.682 127.835 355.525 125.539 367.69Z" fill="white"/>
<path d="M124.723 367.463C123.719 372.908 123.839 378.518 124.912 383.94C125.674 387.783 126.852 392.064 129.359 395.175C130.054 396.044 131.028 396.957 132.213 396.995C133.248 397.033 134.086 396.376 134.698 395.606C136.653 393.129 137.416 389.603 138.141 386.605C139.946 379.084 140.95 371.322 141.879 363.65C142.385 359.452 142.891 355.155 142.619 350.919C142.49 348.873 142.143 344.916 139.326 344.886C138.081 344.871 136.933 345.626 135.996 346.358C134.562 347.483 133.369 348.88 132.274 350.33C129.314 354.257 127.109 358.825 125.697 363.522C125.297 364.828 124.98 366.142 124.723 367.463C124.519 368.528 126.15 368.989 126.361 367.916C127.275 363.189 129.05 358.644 131.519 354.513C133.15 351.787 135.264 348.503 138.164 346.955C138.881 346.577 139.493 346.411 139.931 346.917C140.595 347.68 140.738 349.009 140.837 349.968C141.244 353.69 140.844 357.519 140.452 361.226C139.696 368.301 138.7 375.422 137.31 382.407C136.661 385.684 135.951 389.044 134.675 392.147C134.282 393.106 133.807 394.209 133.029 394.934C132.817 395.13 132.5 395.304 132.425 395.311C132.108 395.342 131.874 395.228 131.556 395.002C130.401 394.179 129.661 392.699 129.057 391.46C128.075 389.429 127.403 387.239 126.882 385.05C125.569 379.477 125.319 373.572 126.361 367.931C126.558 366.852 124.919 366.391 124.723 367.463Z" fill="black"/>
<path d="M141.45 400.642C141.36 403.882 141.798 409.923 144.101 410.519C146.615 411.161 150.33 405.052 152.06 401.382C156.567 391.808 156.877 378.963 153.683 377.952C150.285 376.872 141.783 388.75 141.45 400.642Z" fill="white"/>
<path d="M140.596 400.642C140.528 403.376 140.747 413.645 145.942 411.017C148.291 409.824 149.929 407.008 151.206 404.818C152.799 402.077 154.052 399.147 154.936 396.097C155.834 393.001 156.416 389.792 156.597 386.575C156.725 384.272 156.748 381.72 155.948 379.515C155.427 378.072 154.377 376.774 152.686 377.083C150.858 377.423 149.325 379.069 148.193 380.428C143.594 385.956 140.838 393.476 140.596 400.642C140.559 401.737 142.258 401.737 142.295 400.642C142.492 394.737 144.538 388.833 147.755 383.894C148.827 382.241 150.096 380.496 151.742 379.364C152.686 378.714 153.441 378.382 154.037 379.371C154.913 380.836 154.943 382.882 154.958 384.529C154.981 387.217 154.649 389.905 154.09 392.533C152.957 397.848 150.828 403.315 147.317 407.544C146.675 408.314 145.814 409.402 144.78 409.666C143.949 409.877 143.519 409.001 143.247 408.344C142.288 405.981 142.235 403.157 142.295 400.642C142.326 399.547 140.627 399.547 140.596 400.642Z" fill="black"/>
<path d="M154.112 489.767H114.847C114.167 470.874 113.488 451.989 112.816 433.097C112.703 429.948 114.832 427.328 117.505 427.328H151.122C153.78 427.328 155.902 429.925 155.811 433.059C155.237 451.959 154.679 470.867 154.112 489.767Z" fill="white"/>
<path d="M154.113 488.921C149.696 488.921 145.278 488.921 140.868 488.921C133.823 488.921 126.778 488.921 119.733 488.921C118.102 488.921 116.479 488.921 114.848 488.921C115.135 489.208 115.414 489.487 115.701 489.774C115.15 474.514 114.606 459.253 114.055 443.985C113.919 440.278 113.617 436.525 113.662 432.817C113.685 430.59 115.12 428.241 117.536 428.181C119.205 428.136 120.873 428.181 122.542 428.181C129.64 428.181 136.738 428.181 143.836 428.181C146.086 428.181 148.329 428.181 150.579 428.181C151.621 428.181 152.572 428.362 153.388 429.094C154.422 430.023 154.928 431.413 154.951 432.779C154.989 434.622 154.845 436.479 154.792 438.322C154.339 453.598 153.886 468.866 153.433 484.141C153.38 486.022 153.32 487.894 153.267 489.774C153.237 490.869 154.936 490.869 154.966 489.774C155.434 473.94 155.91 458.098 156.378 442.263C156.439 440.262 156.499 438.254 156.559 436.253C156.612 434.592 156.846 432.825 156.461 431.194C155.872 428.641 153.803 426.557 151.115 426.482C149.552 426.437 147.981 426.482 146.418 426.482C139.102 426.482 131.785 426.482 124.468 426.482C122.255 426.482 120.043 426.474 117.83 426.482C116.433 426.489 115.165 426.89 114.108 427.826C111.555 430.076 111.986 433.429 112.092 436.479C112.658 452.306 113.224 468.133 113.798 483.953C113.866 485.893 113.934 487.834 114.01 489.767C114.025 490.227 114.387 490.62 114.863 490.62C119.28 490.62 123.697 490.62 128.107 490.62C135.152 490.62 142.197 490.62 149.243 490.62C150.874 490.62 152.497 490.62 154.128 490.62C155.208 490.62 155.208 488.921 154.113 488.921Z" fill="black"/>
<path d="M115.858 395.455C123.59 404.161 127.185 415.774 126.014 427.328C125.901 428.415 127.608 428.407 127.713 427.328C128.929 415.329 125.07 403.278 117.059 394.254C116.334 393.439 115.133 394.639 115.858 395.455Z" fill="black"/>
<path d="M131.755 377.468C130.909 390.728 131.151 404.04 132.502 417.255C132.85 420.698 133.28 424.126 133.771 427.554C133.929 428.634 135.56 428.173 135.409 427.101C133.544 414.151 132.744 401.043 133.008 387.957C133.084 384.453 133.227 380.957 133.454 377.461C133.522 376.373 131.823 376.381 131.755 377.468Z" fill="black"/>
<path d="M146.668 394.858C143.398 405.407 141.367 416.311 140.582 427.328C140.506 428.415 142.205 428.415 142.281 427.328C143.051 416.462 145.082 405.717 148.306 395.311C148.631 394.262 146.992 393.809 146.668 394.858Z" fill="black"/>
<path d="M306.552 489.933H417C418.413 489.933 419.56 488.785 419.56 487.373V348.299C419.56 346.887 418.413 345.739 417 345.739H306.552C305.14 345.739 303.992 346.887 303.992 348.299V487.373C304 488.793 305.14 489.933 306.552 489.933Z" fill="white"/>
<path d="M306.553 490.786C311.325 490.786 316.097 490.786 320.869 490.786C331.811 490.786 342.752 490.786 353.686 490.786C365.722 490.786 377.766 490.786 389.802 490.786C397.875 490.786 405.946 490.786 414.026 490.786C415.952 490.786 418.391 491.171 419.704 489.435C420.663 488.166 420.407 486.278 420.407 484.768C420.407 477.844 420.407 470.927 420.407 464.003C420.407 452.812 420.407 441.614 420.407 430.424C420.407 418.146 420.407 405.875 420.407 393.597C420.407 383.434 420.407 373.27 420.407 363.106C420.407 358.251 420.46 353.388 420.407 348.533C420.384 346.547 419.04 344.984 417.001 344.901C416.646 344.886 416.284 344.901 415.929 344.901C413.43 344.901 410.93 344.901 408.431 344.901C398.524 344.901 388.609 344.901 378.702 344.901C366.462 344.901 354.222 344.901 341.99 344.901C332.49 344.901 322.991 344.901 313.492 344.901C311.355 344.901 309.211 344.901 307.074 344.901C305.662 344.901 304.318 345.331 303.578 346.66C303.177 347.378 303.155 348.118 303.155 348.895C303.155 354.302 303.155 359.708 303.155 365.115C303.155 375.566 303.155 386.016 303.155 396.467C303.155 408.775 303.155 421.075 303.155 433.384C303.155 444.348 303.155 455.319 303.155 466.283C303.155 472.724 303.155 479.158 303.155 485.599C303.155 486.12 303.147 486.641 303.155 487.154C303.17 489.148 304.514 490.681 306.553 490.786C307.648 490.839 307.64 489.14 306.553 489.087C304.401 488.982 304.846 486.354 304.846 484.881C304.846 482.223 304.846 479.565 304.846 476.908C304.846 467.627 304.846 458.355 304.846 449.075C304.846 437.159 304.846 425.244 304.846 413.328C304.846 401.737 304.846 390.139 304.846 378.548C304.846 370.431 304.846 362.314 304.846 354.189C304.846 352.399 304.846 350.609 304.846 348.82C304.846 347.785 305.163 346.751 306.409 346.615C306.772 346.577 307.149 346.607 307.512 346.607C314.141 346.607 320.771 346.607 327.409 346.607C338.931 346.607 350.454 346.607 361.969 346.607C373.417 346.607 384.864 346.607 396.304 346.607C402.896 346.607 409.495 346.607 416.088 346.607C416.548 346.607 417.099 346.547 417.537 346.69C418.587 347.03 418.708 347.967 418.708 348.873C418.708 350.7 418.708 352.527 418.708 354.355C418.708 362.472 418.708 370.589 418.708 378.707C418.708 390.313 418.708 401.918 418.708 413.517C418.708 425.485 418.708 437.454 418.708 449.422C418.708 458.619 418.708 467.824 418.708 477.021C418.708 479.664 418.708 482.307 418.708 484.949C418.708 486.444 419.146 488.959 417.001 489.102C415.717 489.185 414.396 489.102 413.105 489.102C409.677 489.102 406.249 489.102 402.813 489.102C392.075 489.102 381.345 489.102 370.608 489.102C358.655 489.102 346.694 489.102 334.741 489.102C326.517 489.102 318.302 489.102 310.079 489.102C308.901 489.102 307.731 489.102 306.553 489.102C305.465 489.087 305.458 490.786 306.553 490.786Z" fill="black"/>
<path d="M547.158 489.08C475.921 489.08 404.685 489.08 333.449 489.08C262.575 489.08 191.702 489.08 120.836 489.08C80.853 489.08 40.878 489.08 0.89539 489.08C-0.199505 489.08 -0.199505 490.779 0.89539 490.779C72.1316 490.779 143.368 490.779 214.604 490.779C285.478 490.779 356.351 490.779 427.217 490.779C467.2 490.779 507.175 490.779 547.158 490.779C548.245 490.779 548.252 489.08 547.158 489.08Z" fill="black"/>
<path d="M382.115 248.996H534.925C541.479 248.996 546.795 243.68 546.795 237.125V164.409C546.795 157.855 541.479 152.539 534.925 152.539H382.115C375.561 152.539 370.245 157.855 370.245 164.409V237.125C370.238 243.68 375.554 248.996 382.115 248.996Z" fill="white"/>
<path d="M382.115 249.849C385.498 249.849 388.874 249.849 392.256 249.849C400.812 249.849 409.375 249.849 417.93 249.849C429.264 249.849 440.59 249.849 451.924 249.849C463.689 249.849 475.453 249.849 487.218 249.849C497.08 249.849 506.941 249.849 516.803 249.849C522.353 249.849 527.895 249.849 533.445 249.849C536.073 249.849 538.602 249.6 540.989 248.316C544.454 246.443 546.924 242.947 547.498 239.051C547.641 238.077 547.649 237.11 547.649 236.129C547.649 227.943 547.649 219.751 547.649 211.565C547.649 200.193 547.649 188.814 547.649 177.442C547.649 173.848 547.649 170.261 547.649 166.667C547.649 165.95 547.656 165.232 547.649 164.515C547.626 161.608 546.705 158.806 544.9 156.518C542.257 153.166 538.338 151.686 534.17 151.686C532.418 151.686 530.666 151.686 528.915 151.686C521.386 151.686 513.858 151.686 506.329 151.686C495.486 151.686 484.643 151.686 473.807 151.686C461.899 151.686 449.999 151.686 438.091 151.686C427.55 151.686 417.001 151.686 406.46 151.686C399.672 151.686 392.883 151.686 386.102 151.686C384.819 151.686 383.543 151.678 382.259 151.686C375.856 151.709 370.306 156.435 369.505 162.839C369.249 164.87 369.4 167.007 369.4 169.046C369.4 173.357 369.4 177.669 369.4 181.988C369.4 193.496 369.4 205.011 369.4 216.519C369.4 223.36 369.354 230.194 369.4 237.035C369.445 244.05 375.078 249.773 382.115 249.849C383.21 249.864 383.21 248.165 382.115 248.15C378.015 248.105 374.255 245.862 372.337 242.222C371.423 240.486 371.091 238.605 371.091 236.665C371.091 234.075 371.091 231.485 371.091 228.902C371.091 218.271 371.091 207.631 371.091 196.999C371.091 187.432 371.091 177.858 371.091 168.29C371.091 165.814 370.88 163.209 371.68 160.83C373.273 156.111 377.751 153.385 382.599 153.385C387.144 153.385 391.69 153.385 396.236 153.385C405.35 153.385 414.472 153.385 423.586 153.385C435.071 153.385 446.556 153.385 458.041 153.385C469.503 153.385 480.958 153.385 492.421 153.385C501.648 153.385 510.868 153.385 520.095 153.385C524.829 153.385 529.564 153.385 534.306 153.385C538.784 153.385 542.861 155.522 544.87 159.645C546.123 162.22 545.942 164.991 545.942 167.762C545.942 177.133 545.942 186.504 545.942 195.874C545.942 206.672 545.942 217.47 545.942 228.268C545.942 231.009 545.942 233.743 545.942 236.484C545.942 238.009 545.791 239.489 545.27 240.939C543.911 244.692 540.452 247.463 536.518 248.044C535.25 248.233 533.913 248.15 532.63 248.15C530.304 248.15 527.986 248.15 525.66 248.15C517.399 248.15 509.138 248.15 500.878 248.15C489.8 248.15 478.723 248.15 467.646 248.15C455.987 248.15 444.321 248.15 432.662 248.15C422.634 248.15 412.614 248.15 402.586 248.15C396.576 248.15 390.565 248.15 384.554 248.15C383.739 248.15 382.923 248.15 382.108 248.15C381.021 248.15 381.021 249.849 382.115 249.849Z" fill="black"/>
<path d="M445.726 202.308C445.674 214.903 437.677 226.516 425.784 230.813C413.771 235.155 400.081 231.394 391.956 221.563C383.854 211.769 382.864 197.46 389.441 186.609C395.996 175.789 408.976 170.05 421.39 172.572C433.698 175.071 443.378 185.182 445.364 197.581C445.613 199.144 445.719 200.73 445.726 202.308C445.734 203.403 447.433 203.403 447.425 202.308C447.373 189.003 438.961 176.884 426.471 172.247C413.861 167.566 399.197 171.553 390.672 181.943C382.155 192.325 380.999 207.352 387.969 218.86C394.931 230.36 408.666 236.348 421.843 233.682C434.755 231.07 445.07 220.264 447.04 207.231C447.289 205.6 447.418 203.954 447.425 202.308C447.425 201.213 445.726 201.213 445.726 202.308Z" fill="black"/>
<path d="M440.666 202.308C440.613 212.774 433.998 222.439 424.114 226.041C414.131 229.673 402.752 226.599 395.949 218.452C389.115 210.282 388.269 198.283 393.789 189.199C399.241 180.221 410.031 175.449 420.346 177.518C430.63 179.579 438.717 188.021 440.371 198.374C440.575 199.673 440.658 200.994 440.666 202.308C440.673 203.403 442.372 203.403 442.365 202.308C442.312 191.087 435.221 180.878 424.68 176.982C414.079 173.063 401.748 176.423 394.589 185.152C387.408 193.904 386.427 206.574 392.317 216.277C398.184 225.943 409.714 230.956 420.791 228.736C431.68 226.554 440.401 217.425 442.047 206.438C442.251 205.072 442.365 203.69 442.365 202.308C442.365 201.213 440.666 201.213 440.666 202.308Z" fill="black"/>
<path d="M458.515 191.97C460.818 191.97 463.121 191.97 465.424 191.97C470.959 191.97 476.486 191.97 482.021 191.97C488.749 191.97 495.477 191.97 502.205 191.97C507.996 191.97 513.788 191.97 519.579 191.97C521.49 191.97 523.4 191.97 525.311 191.97C526.209 191.97 527.138 192.038 528.037 191.97C528.074 191.97 528.12 191.97 528.157 191.97C529.252 191.97 529.252 190.271 528.157 190.271C525.854 190.271 523.551 190.271 521.248 190.271C515.713 190.271 510.186 190.271 504.651 190.271C497.923 190.271 491.195 190.271 484.467 190.271C478.676 190.271 472.884 190.271 467.092 190.271C465.182 190.271 463.272 190.271 461.361 190.271C460.463 190.271 459.534 190.203 458.635 190.271C458.598 190.271 458.552 190.271 458.515 190.271C457.42 190.271 457.42 191.97 458.515 191.97Z" fill="black"/>
<path d="M458.515 203.531C460.818 203.531 463.121 203.531 465.424 203.531C470.959 203.531 476.486 203.531 482.021 203.531C488.749 203.531 495.477 203.531 502.205 203.531C507.996 203.531 513.788 203.531 519.579 203.531C521.49 203.531 523.4 203.531 525.311 203.531C526.209 203.531 527.138 203.599 528.037 203.531C528.074 203.531 528.12 203.531 528.157 203.531C529.252 203.531 529.252 201.832 528.157 201.832C525.854 201.832 523.551 201.832 521.248 201.832C515.713 201.832 510.186 201.832 504.651 201.832C497.923 201.832 491.195 201.832 484.467 201.832C478.676 201.832 472.884 201.832 467.092 201.832C465.182 201.832 463.272 201.832 461.361 201.832C460.463 201.832 459.534 201.764 458.635 201.832C458.598 201.832 458.552 201.832 458.515 201.832C457.42 201.832 457.42 203.531 458.515 203.531Z" fill="black"/>
<path d="M458.515 214.344C460.818 214.344 463.121 214.344 465.424 214.344C470.959 214.344 476.486 214.344 482.021 214.344C488.749 214.344 495.477 214.344 502.205 214.344C507.996 214.344 513.788 214.344 519.579 214.344C521.49 214.344 523.4 214.344 525.311 214.344C526.209 214.344 527.138 214.412 528.037 214.344C528.074 214.344 528.12 214.344 528.157 214.344C529.252 214.344 529.252 212.645 528.157 212.645C525.854 212.645 523.551 212.645 521.248 212.645C515.713 212.645 510.186 212.645 504.651 212.645C497.923 212.645 491.195 212.645 484.467 212.645C478.676 212.645 472.884 212.645 467.092 212.645C465.182 212.645 463.272 212.645 461.361 212.645C460.463 212.645 459.534 212.577 458.635 212.645C458.598 212.645 458.552 212.645 458.515 212.645C457.42 212.645 457.42 214.344 458.515 214.344Z" fill="black"/>
<path d="M274.55 434.909L280.493 444.521C280.493 444.521 251.731 490.401 265.897 488.574C280.062 486.746 334.075 471.327 334.075 471.327C334.075 471.327 335.102 445.329 322.393 425.145L274.55 434.909Z" fill="white"/>
<path d="M273.818 435.332C275.796 438.533 277.782 441.742 279.761 444.944C279.761 444.657 279.761 444.37 279.761 444.083C276.453 449.361 273.373 454.783 270.458 460.28C268.14 464.652 265.942 469.092 264.077 473.683C262.68 477.111 261.178 480.902 261.132 484.662C261.102 487.32 262.431 489.578 265.338 489.472C266.984 489.412 268.668 489.012 270.277 488.702C272.534 488.272 274.785 487.781 277.027 487.275C288.58 484.655 300.028 481.589 311.46 478.493C318.965 476.454 326.501 474.469 333.962 472.249C334.075 472.211 334.196 472.181 334.309 472.15C334.679 472.045 334.921 471.712 334.936 471.335C335.072 467.929 334.83 464.486 334.505 461.096C333.773 453.447 332.263 445.843 329.718 438.586C328.019 433.746 325.86 429.072 323.141 424.723C322.93 424.383 322.56 424.254 322.182 424.33C316.783 425.432 311.392 426.535 305.993 427.63C297.4 429.382 288.814 431.133 280.221 432.885C278.258 433.285 276.302 433.686 274.339 434.086C273.267 434.305 273.72 435.943 274.792 435.724C280.191 434.622 285.583 433.519 290.981 432.425C299.575 430.673 308.16 428.921 316.753 427.169C318.716 426.769 320.672 426.369 322.635 425.968C322.318 425.84 321.993 425.712 321.676 425.576C329.507 438.088 332.859 453.333 333.237 467.975C333.267 469.092 333.29 470.217 333.244 471.335C333.456 471.063 333.66 470.791 333.871 470.519C327.793 472.256 321.699 473.94 315.598 475.616C304.279 478.712 292.937 481.755 281.52 484.496C277.103 485.553 272.663 486.603 268.185 487.381C266.886 487.607 265.376 487.97 264.304 487.683C263.926 487.585 263.707 487.456 263.405 487.101C263.428 487.132 263.239 486.845 263.148 486.656C263.126 486.611 263.141 486.671 263.081 486.46C263.035 486.316 262.997 486.173 262.96 486.022C262.333 483.213 263.76 479.414 264.779 476.613C266.403 472.165 268.464 467.884 270.624 463.678C273.848 457.388 277.45 451.332 281.052 445.261C281.112 445.156 281.18 445.05 281.248 444.944C281.407 444.695 281.407 444.34 281.248 444.083C279.27 440.882 277.284 437.673 275.306 434.471C274.709 433.55 273.237 434.403 273.818 435.332Z" fill="black"/>
<path d="M266.97 469.16C266.97 469.16 285.659 459.586 296.668 466.457L308.403 463.489C308.403 463.489 315.697 452.873 331.758 448.81L333.94 464.932L262.107 483.099C262.1 483.099 265.286 472.656 266.97 469.16Z" fill="black"/>
<path d="M280.494 445.367C283.582 445.76 286.799 445.601 289.887 445.337C297.423 444.687 304.83 442.769 311.74 439.689C316.829 437.416 321.579 434.486 325.958 431.035C326.819 430.363 325.611 429.163 324.757 429.835C313.174 438.949 298.329 444.189 283.537 443.849C282.525 443.827 281.498 443.789 280.486 443.668C279.414 443.532 279.421 445.231 280.494 445.367Z" fill="black"/>
<path d="M235.096 437.763L238.502 448.538C238.502 448.538 199.372 485.969 213.545 487.668C227.726 489.367 283.868 487.668 283.868 487.668C283.868 487.668 291.238 462.712 283.868 440.028L235.096 437.763Z" fill="white"/>
<path d="M234.279 437.99C235.412 441.584 236.545 445.171 237.685 448.765C237.76 448.493 237.828 448.214 237.904 447.942C233.404 452.246 229.084 456.746 224.909 461.368C221.594 465.037 218.369 468.805 215.44 472.792C213.25 475.767 210.856 479.075 209.89 482.699C209.21 485.259 209.92 487.796 212.767 488.4C214.375 488.748 216.104 488.77 217.743 488.868C220.038 489.004 222.334 489.08 224.637 489.14C236.477 489.435 248.332 489.269 260.172 489.072C267.949 488.936 275.742 488.853 283.52 488.536C283.64 488.529 283.761 488.529 283.882 488.529C284.26 488.513 284.592 488.272 284.698 487.902C285.664 484.625 286.276 481.219 286.797 477.844C287.96 470.255 288.367 462.523 287.673 454.874C287.212 449.762 286.268 444.703 284.698 439.809C284.577 439.439 284.267 439.205 283.882 439.183C278.385 438.926 272.88 438.669 267.383 438.413C258.624 438.005 249.865 437.597 241.106 437.189C239.105 437.099 237.111 437.001 235.11 436.91C234.015 436.857 234.023 438.556 235.11 438.609C240.607 438.866 246.112 439.122 251.609 439.379C260.368 439.787 269.127 440.195 277.886 440.602C279.888 440.693 281.881 440.791 283.882 440.882C283.61 440.67 283.338 440.466 283.066 440.255C287.59 454.307 287.114 469.893 283.882 484.187C283.633 485.274 283.384 486.369 283.066 487.441C283.338 487.23 283.61 487.026 283.882 486.814C277.562 487.003 271.242 487.147 264.914 487.275C253.18 487.502 241.438 487.675 229.704 487.524C225.158 487.464 220.597 487.396 216.066 487.056C214.753 486.958 213.182 486.958 212.223 486.407C211.823 486.18 211.71 486.067 211.491 485.621C211.468 485.569 211.491 485.667 211.43 485.455C211.4 485.35 211.37 485.236 211.347 485.123C211.324 485.032 211.302 484.776 211.317 484.474C211.347 483.364 211.868 481.959 212.419 480.811C213.25 479.06 214.292 477.398 215.379 475.798C218.045 471.886 221.095 468.239 224.214 464.69C228.88 459.389 233.849 454.39 238.84 449.392C238.931 449.301 239.021 449.218 239.105 449.135C239.316 448.931 239.414 448.591 239.324 448.312C238.191 444.718 237.058 441.131 235.918 437.537C235.586 436.495 233.947 436.94 234.279 437.99Z" fill="black"/>
<path d="M219.344 469.115C219.344 469.115 239.815 464.418 248.793 473.774H260.897C260.897 473.774 270.57 465.264 287.145 465.264L285.302 481.431H211.204C211.212 481.431 216.86 472.09 219.344 469.115Z" fill="black"/>
<path d="M238.275 449.354C241.198 450.494 244.377 451.136 247.457 451.642C254.865 452.843 262.446 452.812 269.839 451.536C275.373 450.585 280.742 448.901 285.869 446.62C286.866 446.175 286.005 444.71 285.009 445.156C271.538 451.151 255.869 452.601 241.613 448.644C240.639 448.372 239.657 448.093 238.713 447.723C237.709 447.315 237.264 448.961 238.275 449.354Z" fill="black"/>
<path d="M309.504 273.159C309.504 273.159 215.963 288.246 223.506 326.718C229.841 359.029 259.237 418.365 268.48 436.525C270.043 439.598 273.622 441.07 276.892 439.976C289.411 435.785 303.683 432.258 318.528 427.199C322.266 425.923 324.214 421.815 322.817 418.115C311.589 388.402 300.353 358.689 289.124 328.976L341.173 307.856L309.504 273.159Z" fill="white"/>
<path d="M309.278 272.343C305.412 272.97 301.576 273.778 297.756 274.624C288.891 276.587 280.101 278.95 271.493 281.827C261.669 285.105 251.921 289.024 243.033 294.385C235.558 298.9 227.924 304.82 224.284 313.005C222.646 316.69 221.928 320.715 222.366 324.732C222.661 327.428 223.34 330.093 223.997 332.714C224.775 335.825 225.666 338.905 226.61 341.964C231.042 356.243 236.706 370.144 242.648 383.849C248.289 396.859 254.292 409.711 260.529 422.45C262.666 426.822 264.841 431.186 267.038 435.528C267.657 436.744 268.231 437.959 269.22 438.934C270.58 440.27 272.399 441.063 274.302 441.169C276.439 441.289 278.485 440.33 280.479 439.696C282.774 438.964 285.085 438.262 287.396 437.567C297.393 434.577 307.451 431.805 317.35 428.491C319.299 427.841 321.066 427.146 322.387 425.5C323.497 424.118 324.131 422.374 324.139 420.6C324.146 418.304 322.983 416.107 322.191 414.008C321.217 411.425 320.235 408.843 319.261 406.253C311.4 385.465 303.547 364.677 295.687 343.889C293.776 338.837 291.866 333.786 289.963 328.742C289.767 329.089 289.57 329.436 289.366 329.784C295.264 327.39 301.161 324.996 307.051 322.603C316.369 318.82 325.687 315.037 335.005 311.261C337.142 310.393 339.279 309.524 341.415 308.664C342.012 308.422 342.254 307.75 341.793 307.244C338.221 303.333 334.65 299.421 331.078 295.51C325.392 289.28 319.699 283.051 314.013 276.821C312.714 275.394 311.415 273.974 310.109 272.547C309.369 271.739 308.168 272.94 308.908 273.748C312.48 277.659 316.052 281.571 319.623 285.482C325.309 291.712 331.003 297.941 336.689 304.171C337.987 305.598 339.286 307.018 340.592 308.445C340.721 307.969 340.842 307.501 340.97 307.025C335.073 309.419 329.175 311.812 323.286 314.206C313.968 317.989 304.65 321.772 295.332 325.548C293.195 326.416 291.058 327.284 288.921 328.145C288.528 328.304 288.151 328.719 288.324 329.187C296.026 349.567 303.728 369.94 311.43 390.32C313.364 395.432 315.289 400.537 317.222 405.649C318.174 408.171 319.132 410.7 320.084 413.222C320.552 414.453 321.013 415.692 321.481 416.922C321.873 417.957 322.334 418.984 322.417 420.101C322.553 421.936 321.851 423.756 320.522 425.025C318.921 426.557 316.452 427.003 314.413 427.667C309.354 429.314 304.257 430.846 299.153 432.342C294.441 433.723 289.721 435.075 285.025 436.502C282.737 437.197 280.456 437.907 278.191 438.647C276.265 439.281 274.514 439.825 272.52 439.077C269.855 438.08 268.865 435.385 267.68 433.044C266.638 430.975 265.603 428.906 264.569 426.829C258.762 415.125 253.152 403.315 247.813 391.385C241.682 377.68 235.837 363.816 230.914 349.628C228.777 343.459 226.806 337.214 225.281 330.864C224.262 326.605 223.431 322.414 224.375 318.057C226.149 309.849 232.606 303.552 239.22 298.878C247.451 293.063 256.814 288.903 266.245 285.444C275.11 282.19 284.202 279.57 293.376 277.365C298.541 276.126 303.744 275.001 308.984 274.095C309.233 274.05 309.475 274.012 309.724 273.967C310.804 273.808 310.351 272.17 309.278 272.343Z" fill="black"/>
<path d="M412.093 273.159C412.093 273.159 424.159 339.54 387.197 344.07C350.235 348.593 303.615 347.091 303.615 347.091C299.047 378.601 294.478 410.119 289.918 441.629C289.661 443.411 288.12 444.718 286.323 444.687C269.537 444.4 252.752 444.121 235.966 443.834C233.912 443.796 232.311 442.045 232.462 440.006C235.173 403.451 239.386 372.719 243.373 348.858C246.968 327.33 250.811 309.041 265.754 298.062C276.741 289.99 288.928 289.545 295.037 289.242C321.096 287.966 357.544 283.632 412.093 273.159Z" fill="#142689"/>
<path d="M199.041 193.216C202.129 195.535 207.037 199.378 212.693 204.513C249.98 238.424 251.875 269.768 270.775 269.134C285.862 268.628 307.488 251.027 307.488 251.027C305.993 246.587 303.358 240.448 298.593 234.12C292.009 225.376 284.45 220.355 279.738 217.735C266.388 206.786 256.957 196.426 250.546 188.52C250.546 188.52 227.584 160.309 216.219 158.24C207.921 156.73 217.73 169.552 217.73 169.552C217.73 169.552 199.373 153.71 196.103 155.975C192.834 158.24 197.364 164.878 197.364 164.878C196.655 164.387 186.091 157.198 182.783 160.12C181.953 160.853 181.787 162.038 181.779 162.129C181.485 164.477 183.758 167.113 187.563 168.857C184.324 168.291 181.719 169.151 181.152 170.677C180.692 171.9 181.621 173.357 182.036 174.007C183.629 176.514 186.816 177.843 186.816 177.843C186.816 177.843 184.875 179.255 184.43 180.485C184.196 181.127 184.06 182.592 186.944 185.643C188.764 187.606 192.426 190.808 199.041 193.216Z" fill="white"/>
<path d="M198.617 193.949C210.056 202.549 220.522 212.449 229.553 223.556C236.794 232.474 242.843 242.177 248.952 251.88C251.111 255.308 253.308 258.744 255.876 261.893C257.877 264.347 260.187 266.68 263.004 268.19C270.608 272.268 279.88 268.621 286.993 265.162C294.363 261.583 301.333 256.992 307.751 251.903C307.864 251.812 307.985 251.722 308.099 251.623C308.318 251.442 308.408 251.057 308.318 250.8C303.81 237.495 294.786 226.041 282.871 218.588C281.791 217.908 280.605 217.349 279.624 216.534C277.993 215.182 276.377 213.808 274.784 212.411C271.808 209.798 268.901 207.103 266.077 204.324C261.456 199.778 257.046 195.006 252.886 190.03C248.861 185.212 244.806 180.44 240.487 175.879C237.059 172.262 233.502 168.736 229.719 165.489C226.51 162.741 223.067 159.962 219.155 158.285C217.615 157.629 215.757 156.987 214.066 157.357C212.533 157.689 211.906 159.033 212.072 160.498C212.269 162.227 213.122 163.873 213.96 165.368C214.73 166.743 215.599 168.064 216.52 169.34C216.679 169.552 216.83 169.771 216.996 169.982C217.441 169.642 217.887 169.295 218.332 168.955C214.844 165.95 211.219 163.073 207.481 160.392C205.073 158.663 202.573 156.904 199.84 155.703C197.861 154.835 195.513 154.291 194.418 156.737C193.202 159.456 195.105 163.073 196.623 165.315C197.008 164.93 197.401 164.538 197.786 164.153C195.098 162.295 192.176 160.634 189.117 159.486C187.456 158.859 185.5 158.285 183.718 158.723C181.793 159.199 180.698 161.2 180.94 163.103C181.347 166.237 184.504 168.366 187.124 169.597C187.343 169.076 187.562 168.562 187.781 168.041C185.863 167.732 183.734 167.679 181.974 168.638C180.464 169.461 179.837 171.016 180.396 172.663C181.31 175.358 183.809 177.495 186.376 178.583C186.376 178.092 186.376 177.601 186.376 177.118C185.138 178.024 183.545 179.338 183.462 180.999C183.364 183.007 185.055 184.903 186.331 186.247C189.752 189.864 194.199 192.318 198.828 194.024C199.855 194.402 200.3 192.763 199.281 192.386C195.151 190.86 191.186 188.686 188.045 185.567C186.95 184.48 185.312 182.947 185.168 181.293C185.123 180.825 185.327 180.47 185.735 179.979C186.15 179.481 186.784 178.915 187.237 178.583C187.683 178.258 187.887 177.389 187.237 177.118C185.41 176.347 183.658 175.049 182.616 173.35C181.944 172.262 181.423 170.933 182.744 170.156C184.081 169.378 185.863 169.438 187.335 169.68C188.204 169.823 188.936 168.57 187.992 168.124C185.954 167.165 183.303 165.633 182.699 163.262C182.337 161.819 183.129 160.4 184.662 160.279C186.24 160.158 187.894 160.777 189.329 161.366C190.96 162.038 192.523 162.876 194.041 163.767C195.022 164.349 195.996 164.953 196.94 165.602C197.635 166.078 198.571 165.134 198.103 164.44C196.925 162.703 195.483 160.181 195.8 158.014C195.891 157.417 196.162 156.972 196.646 156.624C196.6 156.654 196.842 156.594 196.736 156.594C196.895 156.594 197.054 156.579 197.22 156.594C197.884 156.654 198.896 157.077 199.621 157.432C204.68 159.886 209.218 163.632 213.56 167.158C214.768 168.132 215.961 169.121 217.139 170.133C217.811 170.714 219.095 169.922 218.476 169.106C216.898 167.037 215.387 164.764 214.376 162.355C214.104 161.714 213.839 161.011 213.771 160.309C213.719 159.803 213.779 159.365 214.021 159.176C214.934 158.467 217.026 159.237 218.06 159.637C221.768 161.072 225.06 163.73 228.065 166.274C231.743 169.385 235.194 172.768 238.524 176.242C242.571 180.463 246.482 184.827 250.175 189.358C253.935 193.971 257.907 198.419 262.068 202.67C264.597 205.26 267.202 207.782 269.868 210.236C271.363 211.611 272.873 212.962 274.406 214.291C275.961 215.643 277.502 217.093 279.163 218.308C280.054 218.958 281.096 219.449 282.032 220.03C283.158 220.732 284.252 221.472 285.332 222.242C287.975 224.145 290.452 226.267 292.74 228.578C298.048 233.931 302.314 240.32 305.222 247.282C305.758 248.573 306.249 249.887 306.702 251.216C306.777 250.944 306.845 250.664 306.921 250.393C301.695 254.644 295.753 258.54 289.757 261.81C285.121 264.339 280.205 266.597 275.018 267.707C271.688 268.417 268.199 268.575 265.005 267.231C262.256 266.068 259.999 264.007 258.058 261.787C255.528 258.903 253.422 255.663 251.368 252.431C245.493 243.227 239.853 233.924 233.14 225.278C224.222 213.8 213.824 203.569 202.369 194.628C201.426 193.888 200.467 193.156 199.508 192.439C198.594 191.827 197.748 193.299 198.617 193.949Z" fill="black"/>
<path d="M202.392 187.1C197.333 183.778 192.281 180.448 187.222 177.125C186.308 176.521 185.455 177.994 186.361 178.59C191.42 181.913 196.472 185.243 201.531 188.565C202.452 189.169 203.305 187.704 202.392 187.1Z" fill="black"/>
<path d="M206.666 179.723C200.436 175.857 194.206 171.998 187.977 168.132C187.048 167.551 186.187 169.023 187.116 169.597C193.346 173.463 199.575 177.322 205.805 181.188C206.741 181.769 207.594 180.304 206.666 179.723Z" fill="black"/>
<path d="M211.279 173.946C206.779 170.684 202.286 167.422 197.786 164.16C196.902 163.518 196.049 164.991 196.925 165.625C201.425 168.887 205.918 172.149 210.419 175.411C211.31 176.053 212.155 174.581 211.279 173.946Z" fill="black"/>
<path d="M226.377 185.809C226.354 185.786 226.332 185.756 226.317 185.733C226.211 185.598 226.445 185.9 226.339 185.764C226.302 185.718 226.271 185.673 226.234 185.628C226.022 185.341 225.811 185.054 225.614 184.767C224.852 183.672 224.142 182.539 223.485 181.384C221.326 177.601 219.664 173.554 218.554 169.348C218.275 168.291 216.636 168.736 216.916 169.801C218.056 174.15 219.785 178.349 222.013 182.245C222.957 183.899 223.983 185.537 225.177 187.025C225.856 187.863 227.057 186.655 226.377 185.809Z" fill="black"/>
<path d="M347.976 169.061C337.495 171.772 320.574 177.616 303.622 190.936C291.819 200.209 283.815 210.1 278.65 217.667C288.746 229.537 298.842 241.414 308.937 253.285C309.474 264.823 310.002 276.36 310.538 287.898C321.427 287.211 339.534 286.086 362.195 284.84C378.233 283.957 390.549 285.24 405.485 278.724C413.051 275.424 419.061 272.804 423.766 266.816C437.977 248.739 426.62 217.395 415.867 200.745C411.707 194.304 400.418 177.276 378.739 170.631C365.547 166.576 354.077 167.898 347.976 169.061Z" fill="#F1416C"/>
<path d="M306.644 222.114C306.742 224.281 306.848 226.456 306.946 228.623C307.187 233.863 307.429 239.111 307.671 244.352C307.965 250.672 308.252 256.985 308.547 263.305C308.803 268.794 309.053 274.292 309.309 279.781C309.43 282.432 309.407 285.135 309.679 287.778C309.687 287.815 309.679 287.861 309.687 287.898C309.74 288.986 311.439 288.993 311.386 287.898C311.288 285.731 311.182 283.557 311.084 281.389C310.842 276.149 310.6 270.901 310.359 265.661C310.064 259.341 309.777 253.028 309.483 246.708C309.226 241.218 308.977 235.721 308.72 230.231C308.599 227.581 308.622 224.878 308.35 222.235C308.343 222.197 308.35 222.152 308.343 222.114C308.29 221.027 306.591 221.019 306.644 222.114Z" fill="black"/>
<path d="M387.824 241.603C369.966 247.085 315.976 263.894 307.239 270.644C305.858 271.717 302.354 274.427 302.951 276.64C303.509 278.716 307.239 279.192 307.239 279.192L320.567 273.159C320.567 273.159 307.542 283.526 310.532 287.898C311.189 288.857 312.125 289.303 312.336 289.371C314.247 289.998 316.769 288.729 318.551 286.064C316.769 288.268 316.376 290.647 317.358 291.878C317.962 292.64 319.034 292.799 319.555 292.852C323.504 293.237 326.698 288.518 327.099 287.906C326.925 288.306 325.868 290.828 326.925 291.885C327.272 292.233 327.884 292.459 329.107 292.27C333.238 291.651 342.601 286.615 344.7 285.475C354.894 285.626 366.001 285.324 377.872 284.319C386.2 283.617 394.084 282.635 401.476 281.48C402.073 277.448 402.737 269.285 399.475 259.809C396.243 250.415 390.769 244.42 387.824 241.603Z" fill="white"/>
<path d="M387.604 240.788C380.288 243.038 372.971 245.318 365.684 247.659C356.245 250.68 346.822 253.783 337.466 257.053C329.545 259.824 321.601 262.648 313.944 266.084C311.664 267.103 309.316 268.153 307.262 269.587C305.638 270.72 304 272.072 302.89 273.718C301.553 275.704 301.938 277.901 304.09 279.071C305.042 279.585 306.688 280.325 307.775 279.879C308.855 279.441 309.912 278.913 310.977 278.429C314.088 277.017 317.207 275.605 320.318 274.201C320.544 274.095 320.771 273.997 320.997 273.891C320.657 273.446 320.31 273 319.97 272.555C317.463 274.548 315.092 276.791 313.001 279.215C310.63 281.971 306.99 286.924 311.271 289.756C314.231 291.712 317.667 288.835 319.291 286.486C319.834 285.701 318.551 284.697 317.954 285.459C316.701 287.068 315.492 289.295 316.164 291.394C316.769 293.267 318.838 293.871 320.62 293.682C323.693 293.35 326.2 290.79 327.831 288.336C327.34 288.049 326.849 287.762 326.366 287.476C325.716 289.001 324.969 291.395 326.517 292.64C327.952 293.796 330.308 292.95 331.848 292.429C335.858 291.07 339.678 289.099 343.409 287.128C343.869 286.887 344.541 286.335 345.055 286.252C344.851 286.29 345.364 286.335 345.349 286.335C345.5 286.358 345.681 286.343 345.832 286.343C346.21 286.35 346.587 286.35 346.973 286.35C347.796 286.358 348.611 286.358 349.434 286.358C352.598 286.358 355.754 286.313 358.918 286.23C365.744 286.041 372.563 285.641 379.359 285.037C386.834 284.372 394.287 283.451 401.702 282.296C401.959 282.258 402.261 281.963 402.299 281.699C404.119 269.315 400.917 256.479 393.321 246.504C391.833 244.548 390.202 242.706 388.428 240.999C387.642 240.244 386.434 241.445 387.227 242.2C395.722 250.362 400.789 261.712 401.106 273.514C401.174 276.096 401.038 278.694 400.66 281.254C400.857 281.057 401.053 280.861 401.257 280.657C388.745 282.605 376.135 283.851 363.479 284.372C357.499 284.621 351.503 284.704 345.515 284.636C345.002 284.629 344.586 284.591 344.118 284.825C343.892 284.938 343.665 285.067 343.446 285.188C342.767 285.55 342.095 285.905 341.407 286.26C339.595 287.196 337.768 288.102 335.918 288.948C333.955 289.839 331.939 290.73 329.839 291.251C329.167 291.417 327.763 291.855 327.4 291.04C327.061 290.277 327.604 288.888 327.838 288.329C328.261 287.34 326.993 286.539 326.373 287.468C325.248 289.167 323.67 290.874 321.752 291.651C320.71 292.074 318.762 292.361 317.984 291.274C317.003 289.915 318.324 287.71 319.155 286.645C318.709 286.305 318.264 285.958 317.818 285.618C316.534 287.476 313.665 289.937 311.611 287.846C310.516 286.736 310.984 285.286 311.626 284.047C313.318 280.77 316.217 278.067 318.936 275.643C319.661 274.994 320.401 274.344 321.171 273.74C321.979 273.091 320.944 272.041 320.144 272.404C317.78 273.476 315.417 274.541 313.053 275.613C311.513 276.308 309.98 277.002 308.44 277.705C307.994 277.908 307.526 278.082 307.088 278.316C307.02 278.354 306.884 278.377 306.839 278.429C306.99 278.256 307.753 278.422 307.05 278.286C305.419 277.969 302.965 277.108 304.053 275.039C304.913 273.408 306.612 272.079 308.108 271.037C310.063 269.67 312.283 268.666 314.45 267.684C321.73 264.392 329.296 261.704 336.824 259.054C345.832 255.882 354.901 252.884 363.993 249.962C371.362 247.591 378.747 245.273 386.147 242.993C386.781 242.796 387.416 242.6 388.05 242.404C389.092 242.109 388.647 240.463 387.604 240.788Z" fill="black"/>
<path d="M331.621 271.671C326.207 275.454 321.541 280.181 317.826 285.641C317.207 286.547 318.679 287.4 319.291 286.502C322.84 281.291 327.317 276.753 332.482 273.144C333.366 272.517 332.52 271.045 331.621 271.671Z" fill="black"/>
<path d="M338.327 276.949C333.373 279.532 329.183 283.383 326.14 288.065C325.543 288.986 327.015 289.839 327.604 288.925C330.489 284.478 334.483 280.868 339.18 278.414C340.154 277.916 339.293 276.451 338.327 276.949Z" fill="black"/>
<path d="M378.906 212.056C381.172 221.865 383.429 231.666 385.695 241.475C388.692 244.216 393.193 249.056 396.425 256.313C401.318 267.307 400.381 277.327 399.709 281.654C403.628 281.382 409.79 280.332 415.506 276.232C426.772 268.145 428.441 253.994 429.045 246.587C431.71 213.566 400.532 182.939 400.532 182.939C400.532 182.939 372.118 182.637 378.906 212.056Z" fill="#E1355F"/>
<path d="M310.615 293.041C282.623 293.124 254.624 293.207 226.633 293.29C224.088 274.714 221.536 256.131 218.991 237.556C218.515 234.082 221.264 231.009 224.768 231.092C248.772 231.674 272.785 232.248 296.789 232.829C299.553 232.897 301.863 234.936 302.279 237.669C305.057 256.124 307.836 274.578 310.615 293.041Z" fill="white"/>
<path d="M310.616 292.187C288.771 292.255 266.926 292.316 245.088 292.384C238.934 292.399 232.787 292.422 226.633 292.437C226.905 292.648 227.177 292.852 227.449 293.063C225.629 279.811 223.817 266.559 221.997 253.307C221.536 249.962 221.083 246.617 220.623 243.272C220.396 241.603 220.162 239.927 219.936 238.258C219.77 237.027 219.694 235.865 220.245 234.709C220.721 233.712 221.529 232.897 222.518 232.414C223.772 231.81 225.108 231.946 226.452 231.983C229.843 232.066 233.241 232.149 236.631 232.225C250.079 232.55 263.528 232.874 276.976 233.199C280.306 233.282 283.636 233.358 286.966 233.441C290.303 233.524 293.709 233.41 297.039 233.69C298.232 233.788 299.342 234.339 300.157 235.2C301.079 236.174 301.358 237.352 301.554 238.636C302.045 241.92 302.544 245.198 303.034 248.482C305.028 261.734 307.029 274.994 309.022 288.246C309.272 289.915 309.528 291.591 309.777 293.26C309.936 294.339 311.575 293.879 311.416 292.807C309.324 278.935 307.233 265.057 305.149 251.185C304.628 247.72 304.107 244.246 303.578 240.78C303.163 238.039 303.034 235.253 300.701 233.403C298.443 231.606 295.521 231.946 292.803 231.878C289.284 231.795 285.765 231.711 282.247 231.621C268.171 231.281 254.089 230.941 240.014 230.601C236.495 230.518 232.976 230.435 229.457 230.345C226.732 230.277 223.553 229.68 221.121 231.236C219.211 232.451 218.01 234.619 218.071 236.899C218.108 238.485 218.471 240.101 218.69 241.671C218.916 243.34 219.15 245.016 219.377 246.685C221.28 260.556 223.183 274.427 225.085 288.299C225.32 290.035 225.561 291.765 225.795 293.501C225.848 293.864 226.278 294.128 226.611 294.128C248.456 294.06 270.301 294 292.138 293.932C298.292 293.917 304.439 293.894 310.593 293.879C311.711 293.886 311.711 292.187 310.616 292.187Z" fill="black"/>
<path d="M316.541 112.987C314.895 118.099 312.939 126.05 313.022 135.867C313.105 145.834 312.954 154.888 319.312 160.762C323.223 164.379 328.079 165.421 331.295 165.746C331.099 168.54 330.91 171.341 330.714 174.135C333.463 179.798 338.801 183.589 344.464 183.679C352.227 183.808 359.717 176.989 360.488 167.528C358.879 162.242 357.279 156.956 355.67 151.671C356.297 150.07 356.931 148.469 357.558 146.876C358.494 146.279 360.503 144.807 361.552 142.157C362.368 140.088 363.244 135.685 360.797 134.107C358.932 132.899 355.58 133.647 353.254 136.372C352.582 128.995 351.91 121.618 351.245 114.248C339.677 113.825 328.109 113.402 316.541 112.987Z" fill="white"/>
<path d="M315.725 112.76C314.562 116.408 313.664 120.13 313.075 123.913C312.304 128.829 312.146 133.737 312.199 138.706C312.282 146.68 312.516 155.862 318.949 161.585C322.385 164.636 326.78 166.123 331.288 166.599C331.001 166.312 330.721 166.033 330.434 165.746C330.336 167.203 330.23 168.66 330.132 170.125C330.079 170.858 330.034 171.583 329.981 172.315C329.928 173.025 329.725 173.886 329.974 174.565C330.744 176.672 332.541 178.734 334.172 180.221C337.389 183.158 341.723 184.933 346.118 184.457C350.082 184.027 353.729 182.011 356.395 179.081C357.845 177.488 359 175.66 359.838 173.682C360.261 172.67 360.608 171.636 360.857 170.563C361.122 169.438 361.484 168.071 361.19 166.939C360.283 163.548 359.143 160.203 358.124 156.851C357.867 156.013 357.61 155.167 357.361 154.329C357.248 153.966 357.142 153.611 357.037 153.249C356.908 152.841 356.599 152.237 356.599 151.807C356.599 151.082 357.172 150.176 357.437 149.496C357.754 148.696 358.063 147.895 358.381 147.095C358.252 147.261 358.124 147.435 357.988 147.601C361.59 145.275 363.885 140.782 363.13 136.455C362.76 134.349 361.265 132.876 359.106 132.71C356.621 132.514 354.243 133.964 352.657 135.768C353.14 135.972 353.624 136.169 354.107 136.372C353.435 128.995 352.763 121.618 352.098 114.248C352.053 113.78 351.743 113.417 351.245 113.395C339.677 112.979 328.109 112.557 316.548 112.134C315.453 112.096 315.453 113.795 316.548 113.833C328.116 114.248 339.684 114.671 351.245 115.094C350.958 114.807 350.679 114.527 350.392 114.24C351.064 121.618 351.736 128.995 352.4 136.365C352.461 137.037 353.321 137.565 353.85 136.969C355.262 135.368 358.675 133.095 360.684 135.104C362.254 136.667 361.492 139.869 360.82 141.681C360.314 143.025 359.468 144.195 358.411 145.154C358.071 145.456 357.716 145.728 357.346 145.985C356.727 146.415 356.599 146.974 356.327 147.669C355.964 148.582 355.609 149.496 355.247 150.41C355.111 150.765 354.869 151.18 354.824 151.55C354.779 152.018 355.036 152.532 355.171 152.969C355.753 154.895 356.342 156.813 356.923 158.738C357.49 160.604 358.056 162.461 358.622 164.326C358.894 165.225 359.196 166.123 359.445 167.029C359.687 167.928 359.506 168.796 359.317 169.695C358.736 172.466 357.52 175.117 355.7 177.291C352.302 181.354 346.963 183.77 341.678 182.456C338.491 181.663 335.705 179.708 333.636 177.178C333.077 176.491 332.579 175.758 332.126 174.996C331.929 174.656 331.627 174.248 331.575 173.871C331.499 173.395 331.65 172.791 331.68 172.315C331.831 170.125 331.982 167.936 332.133 165.746C332.171 165.255 331.711 164.938 331.28 164.893C327.565 164.5 323.85 163.322 320.875 160.996C317.817 158.603 315.952 155.212 315.023 151.49C314.034 147.525 313.943 143.395 313.898 139.332C313.837 134.575 313.905 129.848 314.592 125.129C315.181 121.089 316.118 117.11 317.356 113.221C317.696 112.171 316.057 111.726 315.725 112.76Z" fill="black"/>
<path d="M356.418 142.489C356.426 142.398 356.373 142.806 356.403 142.595C356.418 142.496 356.433 142.398 356.448 142.3C356.509 141.983 356.577 141.666 356.66 141.356C356.713 141.16 356.773 140.956 356.841 140.76C356.879 140.654 356.916 140.556 356.954 140.45C356.969 140.405 356.992 140.359 357.007 140.314C357.083 140.133 356.939 140.473 357.015 140.291C357.105 140.088 357.211 139.884 357.324 139.687C357.377 139.597 357.43 139.506 357.49 139.423C357.52 139.378 357.551 139.332 357.588 139.287C357.694 139.129 357.475 139.416 357.604 139.272C357.679 139.181 357.755 139.098 357.838 139.015C357.883 138.97 357.928 138.932 357.974 138.887C357.989 138.872 358.011 138.857 358.026 138.842C358.147 138.736 358.011 138.879 357.981 138.879C358.042 138.887 358.208 138.728 358.268 138.698C358.298 138.683 358.495 138.592 358.351 138.653C358.208 138.713 358.427 138.63 358.464 138.615C358.887 138.487 359.204 138.019 359.061 137.573C358.925 137.143 358.472 136.841 358.019 136.977C356.041 137.581 355.195 139.891 354.84 141.734C354.795 141.983 354.757 142.232 354.727 142.481C354.674 142.927 355.157 143.35 355.58 143.335C356.078 143.319 356.365 142.965 356.418 142.489Z" fill="black"/>
<path d="M330.633 166.516C338.086 167.037 345.478 164.643 350.839 159.35C351.617 158.58 350.417 157.379 349.639 158.15C344.58 163.148 337.655 165.315 330.633 164.817C329.546 164.742 329.546 166.441 330.633 166.516Z" fill="black"/>
<path d="M319.872 146.763C320.702 147.435 322.484 147.261 323.277 146.43C323.617 146.076 323.889 145.487 323.685 145.237C323.3 144.762 321.624 146 320.929 145.434C320.453 145.049 320.702 144.037 321.103 142.413C321.291 141.636 321.42 141.379 321.888 139.695C322.258 138.358 322.356 137.86 322.228 137.807C322.092 137.747 321.752 138.2 321.639 138.351C320.559 139.786 317.954 145.215 319.872 146.763Z" fill="black"/>
<path d="M313.024 102.174C309.641 104.228 303.766 107.807 302.966 113.991C302.906 114.437 302.279 119.941 305.986 123.045C309.573 126.05 315.939 125.726 320.99 121.535C321.209 122.139 321.625 123.015 322.417 123.8C323.12 124.495 324.902 125.877 329.372 125.559C336.145 125.084 337.995 121.482 344.459 120.697C347.177 120.364 349.435 120.689 350.764 120.953C350.771 127.198 351.194 132.182 351.587 135.617C351.708 136.667 352.372 142.511 352.931 142.489C353.173 142.481 353.075 141.198 353.603 139.385C353.935 138.23 355.143 134.092 357.952 133.609C359.432 133.36 361.131 134.152 361.924 135.391C363.132 137.271 362.015 139.823 362.211 139.869C362.642 139.974 364.582 132.348 364.582 132.348C365.496 128.769 365.949 126.987 366.092 126.065C367.399 117.593 361.66 109.838 360.814 108.713C356.858 103.503 351.98 101.253 349.088 99.954C337.293 94.6683 323.248 95.9595 313.024 102.174Z" fill="black"/>
</svg>
