<svg width="27" height="26" viewBox="0 0 27 26" fill="none" xmlns="http://www.w3.org/2000/svg">
<rect x="14.1431" y="16.7144" width="11.5714" height="7.71429" fill="white"/>
<rect x="5.14307" y="6.42871" width="14.1429" height="6.42857" fill="#009EF7"/>
<path d="M3.27552e-07 2.41072C3.27552e-07 1.77136 0.250998 1.15818 0.697775 0.706084C1.14455 0.253988 1.75051 2.67776e-06 2.38235 2.67776e-06H23.0294C23.592 -0.000845487 24.1368 0.19982 24.5672 0.566458C24.9976 0.933096 25.2859 1.44205 25.381 2.00316C25.4761 2.56428 25.3719 3.14136 25.0869 3.63218C24.8018 4.123 24.3543 4.4959 23.8235 4.68482V14.4643H22.2353V4.82143H3.17647V20.8929H4.76471V15.2679C4.76471 15.0547 4.84837 14.8503 4.9973 14.6996C5.14622 14.5489 5.34821 14.4643 5.55882 14.4643H11.9118C12.0646 14.4642 12.2143 14.5087 12.3427 14.5925C12.4712 14.6763 12.573 14.7959 12.636 14.9368C12.172 15.2239 11.7887 15.6269 11.5229 16.107C11.257 16.5871 11.1175 17.1282 11.1176 17.6786V16.0714H6.35294V20.8929H11.1176V22.5H2.38235C2.17174 22.5 1.96975 22.4153 1.82083 22.2646C1.6719 22.1139 1.58824 21.9095 1.58824 21.6964V4.68482C1.12355 4.51858 0.721263 4.21058 0.436809 3.80329C0.152356 3.396 -0.000258057 2.90945 3.27552e-07 2.41072ZM2.38235 1.60715C2.17174 1.60715 1.96975 1.69181 1.82083 1.84251C1.6719 1.9932 1.58824 2.1976 1.58824 2.41072C1.58824 2.62384 1.6719 2.82823 1.82083 2.97893C1.96975 3.12963 2.17174 3.21429 2.38235 3.21429H23.0294C23.24 3.21429 23.442 3.12963 23.5909 2.97893C23.7399 2.82823 23.8235 2.62384 23.8235 2.41072C23.8235 2.1976 23.7399 1.9932 23.5909 1.84251C23.442 1.69181 23.24 1.60715 23.0294 1.60715H2.38235ZM5.55882 6.42857C5.34821 6.42857 5.14622 6.51323 4.9973 6.66393C4.84837 6.81463 4.76471 7.01902 4.76471 7.23214V12.0536C4.76471 12.2667 4.84837 12.4711 4.9973 12.6218C5.14622 12.7725 5.34821 12.8571 5.55882 12.8571H19.8529C20.0636 12.8571 20.2655 12.7725 20.4145 12.6218C20.5634 12.4711 20.6471 12.2667 20.6471 12.0536V7.23214C20.6471 7.01902 20.5634 6.81463 20.4145 6.66393C20.2655 6.51323 20.0636 6.42857 19.8529 6.42857H5.55882ZM6.35294 11.25V8.03572H19.0588V11.25H6.35294ZM27 18.4821V23.3036C27 23.9429 26.749 24.5561 26.3022 25.0082C25.8554 25.4603 25.2495 25.7143 24.6176 25.7143H15.0882C14.4564 25.7143 13.8504 25.4603 13.4037 25.0082C12.9569 24.5561 12.7059 23.9429 12.7059 23.3036V18.4821C12.7059 17.8428 12.9569 17.2296 13.4037 16.7775C13.8504 16.3254 14.4564 16.0714 15.0882 16.0714H24.6176C25.2495 16.0714 25.8554 16.3254 26.3022 16.7775C26.749 17.2296 27 17.8428 27 18.4821ZM24.6176 24.1071C24.6176 23.894 24.7013 23.6896 24.8502 23.5389C24.9992 23.3882 25.2012 23.3036 25.4118 23.3036V21.6964C24.7799 21.6964 24.174 21.9504 23.7272 22.4025C23.2804 22.8546 23.0294 23.4678 23.0294 24.1071H24.6176ZM25.4118 18.4821C25.2012 18.4821 24.9992 18.3975 24.8502 18.2468C24.7013 18.0961 24.6176 17.8917 24.6176 17.6786H23.0294C23.0294 18.3179 23.2804 18.9311 23.7272 19.3832C24.174 19.8353 24.7799 20.0893 25.4118 20.0893V18.4821ZM15.0882 17.6786C15.0882 17.8917 15.0046 18.0961 14.8556 18.2468C14.7067 18.3975 14.5047 18.4821 14.2941 18.4821V20.0893C14.926 20.0893 15.5319 19.8353 15.9787 19.3832C16.4255 18.9311 16.6765 18.3179 16.6765 17.6786H15.0882ZM14.2941 23.3036C14.5047 23.3036 14.7067 23.3882 14.8556 23.5389C15.0046 23.6896 15.0882 23.894 15.0882 24.1071H16.6765C16.6765 23.4678 16.4255 22.8546 15.9787 22.4025C15.5319 21.9504 14.926 21.6964 14.2941 21.6964V23.3036ZM19.8529 18.4821C19.2211 18.4821 18.6151 18.7361 18.1684 19.1882C17.7216 19.6403 17.4706 20.2535 17.4706 20.8929C17.4706 21.5322 17.7216 22.1454 18.1684 22.5975C18.6151 23.0496 19.2211 23.3036 19.8529 23.3036C20.4848 23.3036 21.0907 23.0496 21.5375 22.5975C21.9843 22.1454 22.2353 21.5322 22.2353 20.8929C22.2353 20.2535 21.9843 19.6403 21.5375 19.1882C21.0907 18.7361 20.4848 18.4821 19.8529 18.4821Z" fill="#02135D"/>
</svg>
