<svg width="37" height="46" viewBox="0 0 37 46" fill="none" xmlns="http://www.w3.org/2000/svg">
<path d="M35.494 14.6663L23.5464 1.11256C23.3411 0.878551 23.0904 0.691333 22.8105 0.562947C22.5306 0.434562 22.2277 0.367851 21.9212 0.367106H6.54745C5.81774 0.358153 5.09347 0.497132 4.41599 0.776105C3.73851 1.05508 3.12109 1.46858 2.59899 1.993C2.07689 2.51742 1.66034 3.14249 1.37312 3.8325C1.08591 4.52251 0.93365 5.26396 0.925049 6.0145V39.8989C0.93365 40.6494 1.08591 41.3909 1.37312 42.0809C1.66034 42.7709 2.07689 43.396 2.59899 43.9204C3.12109 44.4448 3.73851 44.8583 4.41599 45.1373C5.09347 45.4163 5.81774 45.5552 6.54745 45.5463H30.4426C31.1724 45.5552 31.8966 45.4163 32.5741 45.1373C33.2516 44.8583 33.869 44.4448 34.3911 43.9204C34.9132 43.396 35.3298 42.7709 35.617 42.0809C35.9042 41.3909 36.0564 40.6494 36.065 39.8989V16.1798C36.0636 15.62 35.8601 15.0806 35.494 14.6663ZM22.8875 7.14398L28.9053 13.9209H24.5128C24.2828 13.9066 24.0579 13.8453 23.8511 13.7407C23.6444 13.636 23.46 13.4901 23.3087 13.3113C23.1574 13.1326 23.0423 12.9246 22.97 12.6996C22.8976 12.4746 22.8696 12.237 22.8875 12.0007V7.14398ZM30.4426 41.0284H6.54745C6.39453 41.0375 6.24136 41.0155 6.09672 40.9637C5.95208 40.9118 5.81881 40.8312 5.70455 40.7262C5.5903 40.6213 5.4973 40.4942 5.43089 40.3522C5.36448 40.2103 5.32596 40.0562 5.31755 39.8989V6.0145C5.32596 5.85719 5.36448 5.70314 5.43089 5.56117C5.4973 5.4192 5.5903 5.29211 5.70455 5.18718C5.81881 5.08225 5.95208 5.00155 6.09672 4.9497C6.24136 4.89785 6.39453 4.87587 6.54745 4.88502H18.495V12.0007C18.4596 13.6647 19.0655 15.2756 20.1806 16.4818C21.2957 17.6879 22.8293 18.3915 24.4469 18.4388H31.6725V39.8989C31.6641 40.0562 31.6256 40.2103 31.5592 40.3522C31.4928 40.4942 31.3998 40.6213 31.2855 40.7262C31.1713 40.8312 31.038 40.9118 30.8934 40.9637C30.7487 41.0155 30.5956 41.0375 30.4426 41.0284Z" fill="#232738"/>
<path d="M23.7937 24.909H21.5626V22.6779C21.5626 22.0862 21.3276 21.5187 20.9092 21.1003C20.4907 20.6818 19.9232 20.4468 19.3315 20.4468C18.7398 20.4468 18.1723 20.6818 17.7539 21.1003C17.3355 21.5187 17.1004 22.0862 17.1004 22.6779V24.909H14.8693C14.2776 24.909 13.7101 25.1441 13.2917 25.5625C12.8732 25.9809 12.6382 26.5484 12.6382 27.1401C12.6382 27.7318 12.8732 28.2993 13.2917 28.7177C13.7101 29.1362 14.2776 29.3712 14.8693 29.3712H17.1004V31.6023C17.1004 32.1941 17.3355 32.7615 17.7539 33.18C18.1723 33.5984 18.7398 33.8334 19.3315 33.8334C19.9232 33.8334 20.4907 33.5984 20.9092 33.18C21.3276 32.7615 21.5626 32.1941 21.5626 31.6023V29.3712H23.7937C24.3855 29.3712 24.953 29.1362 25.3714 28.7177C25.7898 28.2993 26.0248 27.7318 26.0248 27.1401C26.0248 26.5484 25.7898 25.9809 25.3714 25.5625C24.953 25.1441 24.3855 24.909 23.7937 24.909Z" fill="#232738"/>
</svg>
