<svg width="26" height="26" viewBox="0 0 26 26" fill="none" xmlns="http://www.w3.org/2000/svg">
<path d="M10.3333 3.66667L13 1M7.66667 18.3333L18.3333 7.66667M13 25L15.6667 22.3333M19 22.3333C19.8841 22.3333 20.7319 21.9821 21.357 21.357C21.9821 20.7319 22.3333 19.8841 22.3333 19C22.3333 18.1159 21.9821 17.2681 21.357 16.643C20.7319 16.0179 19.8841 15.6667 19 15.6667C18.1159 15.6667 17.2681 16.0179 16.643 16.643C16.0179 17.2681 15.6667 18.1159 15.6667 19C15.6667 19.8841 16.0179 20.7319 16.643 21.357C17.2681 21.9821 18.1159 22.3333 19 22.3333ZM7 10.3333C7.88406 10.3333 8.7319 9.98214 9.35702 9.35702C9.98214 8.7319 10.3333 7.88406 10.3333 7C10.3333 6.11595 9.98214 5.2681 9.35702 4.64298C8.7319 4.01786 7.88406 3.66667 7 3.66667C6.11595 3.66667 5.2681 4.01786 4.64298 4.64298C4.01786 5.2681 3.66667 6.11595 3.66667 7C3.66667 7.88406 4.01786 8.7319 4.64298 9.35702C5.2681 9.98214 6.11595 10.3333 7 10.3333ZM4.33333 25C5.21739 25 6.06523 24.6488 6.69036 24.0237C7.31548 23.3986 7.66667 22.5507 7.66667 21.6667C7.66667 20.7826 7.31548 19.9348 6.69036 19.3096C6.06523 18.6845 5.21739 18.3333 4.33333 18.3333C3.44928 18.3333 2.60143 18.6845 1.97631 19.3096C1.35119 19.9348 1 20.7826 1 21.6667C1 22.5507 1.35119 23.3986 1.97631 24.0237C2.60143 24.6488 3.44928 25 4.33333 25ZM21.6667 7.66667C22.5507 7.66667 23.3986 7.31548 24.0237 6.69036C24.6488 6.06523 25 5.21739 25 4.33333C25 3.44928 24.6488 2.60143 24.0237 1.97631C23.3986 1.35119 22.5507 1 21.6667 1C20.7826 1 19.9348 1.35119 19.3096 1.97631C18.6845 2.60143 18.3333 3.44928 18.3333 4.33333C18.3333 5.21739 18.6845 6.06523 19.3096 6.69036C19.9348 7.31548 20.7826 7.66667 21.6667 7.66667Z" stroke="#02135D" stroke-width="2" stroke-linecap="round" stroke-linejoin="round"/>
</svg>
