<svg width="26" height="26" viewBox="0 0 26 26" fill="none" xmlns="http://www.w3.org/2000/svg">
<path d="M26 16.7197V19.5H24.375V17.4053L22.9912 16.0088L23.0293 15.9707C22.6908 16.1569 22.3141 16.25 21.8994 16.25C21.527 16.25 21.1842 16.1738 20.8711 16.0215L19.5 17.4053V19.5H17.875V16.7197L19.7158 14.8916L19.6777 14.8027L16.4912 7.66797L11.3115 13.0127C11.3285 13.1481 11.3411 13.2793 11.3496 13.4062C11.3581 13.5332 11.3665 13.6686 11.375 13.8125V24.375H13V26H0V24.375H1.625V13.8125C1.625 13.1693 1.74349 12.5641 1.98047 11.9971C2.21745 11.43 2.53906 10.9264 2.94531 10.4863C3.35156 10.0462 3.83398 9.69075 4.39258 9.41992C4.95117 9.14909 5.55208 8.99251 6.19531 8.9502L13.9141 0.990234C14.2188 0.66862 14.5742 0.423177 14.9805 0.253906C15.3867 0.0846354 15.8099 0 16.25 0C16.5462 0 16.8424 0.0423177 17.1387 0.126953C17.4349 0.211589 17.7184 0.338542 17.9893 0.507812C18.2601 0.677083 18.5013 0.871745 18.7129 1.0918C18.9245 1.31185 19.0938 1.56576 19.2207 1.85352L24.0957 12.7461C24.1719 12.9154 24.2269 13.0889 24.2607 13.2666C24.2946 13.4443 24.3115 13.6221 24.3115 13.7998C24.3115 14.0029 24.2904 14.2018 24.248 14.3965C24.2057 14.5911 24.1338 14.7816 24.0322 14.9678L24.1338 14.8662L26 16.7197ZM9.75 24.375V13.8125C9.75 13.3639 9.66536 12.945 9.49609 12.5557C9.32682 12.1663 9.09408 11.8193 8.79785 11.5146C8.50163 11.21 8.15885 10.9772 7.76953 10.8164C7.38021 10.6556 6.95703 10.571 6.5 10.5625C6.05143 10.5625 5.63249 10.6471 5.24316 10.8164C4.85384 10.9857 4.50684 11.2184 4.20215 11.5146C3.89746 11.8109 3.66471 12.1536 3.50391 12.543C3.3431 12.9323 3.25846 13.3555 3.25 13.8125V24.375H9.75ZM8.17578 9.22949C8.70052 9.42415 9.17871 9.69922 9.61035 10.0547C10.042 10.4102 10.4017 10.8291 10.6895 11.3115L17.418 4.37988C17.7227 4.05827 17.875 3.68164 17.875 3.25C17.875 3.02148 17.8327 2.8099 17.748 2.61523C17.6634 2.42057 17.5492 2.2513 17.4053 2.10742C17.2614 1.96354 17.0879 1.84505 16.8848 1.75195C16.6816 1.65885 16.4701 1.61654 16.25 1.625C15.7845 1.625 15.3952 1.79004 15.082 2.12012L8.17578 9.22949ZM18.9033 5.11621C18.751 5.36165 18.5648 5.58594 18.3447 5.78906C18.1247 5.99219 17.9131 6.19954 17.71 6.41113L20.2109 12.0098L21.6963 11.375L18.9033 5.11621ZM21.8994 14.625C22.1449 14.625 22.3395 14.5446 22.4834 14.3838C22.6273 14.223 22.6992 14.0283 22.6992 13.7998C22.6992 13.6305 22.6611 13.4697 22.585 13.3174C22.5088 13.165 22.4326 13.0127 22.3564 12.8604L20.8711 13.4951C20.9219 13.6221 20.9727 13.7533 21.0234 13.8887C21.0742 14.0241 21.1377 14.1468 21.2139 14.2568C21.29 14.3669 21.3789 14.4557 21.4805 14.5234C21.582 14.5911 21.7217 14.625 21.8994 14.625ZM6.5 13C6.72852 13 6.9401 13.0423 7.13477 13.127C7.32943 13.2116 7.4987 13.3258 7.64258 13.4697C7.78646 13.6136 7.90495 13.7871 7.99805 13.9902C8.09115 14.1934 8.13346 14.4049 8.125 14.625C8.125 14.8535 8.08268 15.0651 7.99805 15.2598C7.91341 15.4544 7.79915 15.6237 7.65527 15.7676C7.51139 15.9115 7.33789 16.0299 7.13477 16.123C6.93164 16.2161 6.72005 16.2585 6.5 16.25C6.27148 16.25 6.0599 16.2077 5.86523 16.123C5.67057 16.0384 5.5013 15.9242 5.35742 15.7803C5.21354 15.6364 5.09505 15.4629 5.00195 15.2598C4.90885 15.0566 4.86654 14.8451 4.875 14.625C4.875 14.3965 4.91732 14.1849 5.00195 13.9902C5.08659 13.7956 5.20085 13.6263 5.34473 13.4824C5.48861 13.3385 5.66211 13.2201 5.86523 13.127C6.06836 13.0339 6.27995 12.9915 6.5 13Z" fill="#02135D"/>
<circle cx="6.5" cy="14.5" r="2.5" fill="white"/>
<circle cx="6.5" cy="14.5" r="1.5" fill="#091B87"/>
</svg>
