<svg width="23" height="23" viewBox="0 0 23 23" fill="none" xmlns="http://www.w3.org/2000/svg">
<path d="M11.3753 0C5.09305 0 0.000198364 5.09285 0.000198364 11.3751C0.000198364 17.0924 4.21815 21.8246 9.71205 22.6296L22.6376 9.76626C21.856 4.24585 17.1115 0 11.3753 0Z" fill="#FEE187"/>
<path d="M19.4188 19.4186C22.0782 16.7591 23.1448 13.1105 22.62 9.65709L17.8684 4.9054L4.9289 17.8449L9.71255 22.6285C13.1496 23.1336 16.7735 22.0638 19.4188 19.4186Z" fill="#FFC61B"/>
<path d="M20.5414 11.3587C20.5414 16.412 16.4452 20.5083 11.3918 20.5083L4.98711 11.3587L11.3918 2.20911C16.4451 2.20911 20.5414 6.30535 20.5414 11.3587Z" fill="#D48B07"/>
<path d="M2.24224 11.3587C2.24224 16.412 6.33853 20.5083 11.3918 20.5083V2.20911C6.33848 2.20911 2.24224 6.30535 2.24224 11.3587Z" fill="#E0A300"/>
<path d="M11.3918 19.0246L6.60065 11.3587L11.3918 3.69287C15.6188 3.69287 19.0577 7.13173 19.0577 11.3587C19.0577 15.5857 15.6188 19.0246 11.3918 19.0246Z" fill="#FEE187"/>
<path d="M3.72595 11.3587C3.72595 15.5857 7.16481 19.0246 11.3918 19.0246V3.69287C7.16481 3.69287 3.72595 7.13173 3.72595 11.3587Z" fill="#FFEDB5"/>
<path d="M11.3918 18.0354L7.21886 11.3587L11.3918 4.68201C15.0734 4.68201 18.0685 7.67713 18.0685 11.3587C18.0685 15.0403 15.0734 18.0354 11.3918 18.0354Z" fill="#FFEDB5"/>
<path d="M4.7151 11.3587C4.7151 15.0403 7.71022 18.0354 11.3918 18.0354V4.68201C7.71022 4.68201 4.7151 7.67713 4.7151 11.3587Z" fill="white"/>
<path d="M12.2395 11.1078L11.8863 10.9962V7.17403C12.6517 7.39016 13.2144 8.09433 13.2144 8.92788H14.2036C14.2036 7.54625 13.2016 6.39503 11.8863 6.16056V5.12695H10.8972V6.16056C9.58193 6.39503 8.57998 7.54625 8.57998 8.92788C8.57998 10.2763 9.25912 11.2036 10.5441 11.6095L10.8972 11.721V15.5431C10.1318 15.327 9.56912 14.6228 9.56912 13.7893H8.57998C8.57998 15.1709 9.58193 16.3221 10.8972 16.5566V17.5902H11.8863V16.5566C13.2016 16.3221 14.2036 15.1709 14.2036 13.7893C14.2036 12.4409 13.5244 11.5137 12.2395 11.1078ZM10.842 10.6663C9.97358 10.392 9.56917 9.83963 9.56917 8.92793C9.56917 8.09438 10.1319 7.39021 10.8972 7.17408V10.6838L10.842 10.6663ZM11.8864 15.5432V12.0335L11.9416 12.051C12.81 12.3252 13.2144 12.8776 13.2144 13.7893C13.2144 14.6229 12.6517 15.327 11.8864 15.5432Z" fill="#FFC61B"/>
</svg>
