<svg width="23" height="17" viewBox="0 0 23 17" fill="none" xmlns="http://www.w3.org/2000/svg">
<path d="M6.17824 16.6264C6.11422 16.6264 6.04948 16.6092 5.99109 16.573C5.8238 16.4694 5.77208 16.2499 5.87565 16.0826L7.45451 13.5318C7.55809 13.3645 7.77763 13.3127 7.94492 13.4163C8.11222 13.5199 8.16394 13.7395 8.06036 13.9068L6.4815 16.4576C6.41405 16.5665 6.2975 16.6264 6.17824 16.6264Z" fill="#578CAD"/>
<path d="M16.5718 16.6264C16.4525 16.6264 16.336 16.5665 16.2686 16.4576L14.6897 13.9068C14.5861 13.7395 14.6378 13.5198 14.8052 13.4164C14.9724 13.3127 15.1921 13.3644 15.2956 13.5318L16.8744 16.0826C16.978 16.2499 16.9264 16.4695 16.759 16.573C16.7006 16.6092 16.6358 16.6264 16.5718 16.6264Z" fill="#578CAD"/>
<path d="M11.375 16.6264C11.1783 16.6264 11.0188 16.4669 11.0188 16.2701V13.7193C11.0188 13.5225 11.1783 13.363 11.375 13.363C11.5718 13.363 11.7313 13.5225 11.7313 13.7193V16.2701C11.7313 16.4669 11.5718 16.6264 11.375 16.6264Z" fill="#578CAD"/>
<path d="M6.90948 12.8716V13.3807C6.90948 13.7676 7.2231 14.0812 7.60998 14.0812H15.1401C15.5269 14.0812 15.8406 13.7676 15.8406 13.3807V12.8716H6.90948Z" fill="#3A5D74"/>
<path opacity="0.1" d="M7.66943 13.3806V12.8715H6.90948V13.3806C6.90948 13.7675 7.2231 14.0811 7.60998 14.0811H8.36993C7.98304 14.0811 7.66943 13.7675 7.66943 13.3806Z" fill="#231F20"/>
<path d="M9.72792 6.50491H6.68769C6.49089 6.50491 6.33142 6.34544 6.33142 6.14864V3.81379C6.33142 3.61699 6.49089 3.45752 6.68769 3.45752H9.72792C9.92472 3.45752 10.0842 3.61699 10.0842 3.81379V6.14864C10.0842 6.34544 9.92472 6.50491 9.72792 6.50491ZM7.04396 5.79233H9.37166V4.17001H7.04396V5.79233Z" fill="#DDDBDC"/>
<path d="M16.0934 6.50491H13.2907C13.0939 6.50491 12.9344 6.34544 12.9344 6.14864V3.81379C12.9344 3.61699 13.0939 3.45752 13.2907 3.45752H16.0934C16.2902 3.45752 16.4497 3.61699 16.4497 3.81379V6.14864C16.4498 6.34544 16.2903 6.50491 16.0934 6.50491ZM13.647 5.79233H15.7372V4.17001H13.647V5.79233Z" fill="#DDDBDC"/>
<path d="M22.3937 6.42108C22.3937 6.80796 22.0802 7.12153 21.6933 7.12153H15.928C15.5412 7.12153 15.2276 6.80792 15.2276 6.42108V3.22999C15.2276 2.84315 15.5412 2.52954 15.928 2.52954H21.6933C22.0802 2.52954 22.3937 2.8432 22.3937 3.22999V6.42108Z" fill="#B1DBF2"/>
<path d="M7.52242 6.42108C7.52242 6.80796 7.2089 7.12153 6.82202 7.12153H1.05667C0.669741 7.12153 0.356262 6.80792 0.356262 6.42108V3.22999C0.356262 2.84315 0.669786 2.52954 1.05667 2.52954H6.82197C7.2089 2.52954 7.52238 2.8432 7.52238 3.22999V6.42108H7.52242Z" fill="#90C8EC"/>
<path d="M21.6933 2.52954H18.8106V7.12149H21.6933C22.0802 7.12149 22.3937 6.80787 22.3937 6.42104V3.22999C22.3937 2.84315 22.0802 2.52954 21.6933 2.52954Z" fill="#90C8EC"/>
<path d="M3.93939 2.52954H1.05667C0.669741 2.52954 0.356262 2.8432 0.356262 3.22999V6.42108C0.356262 6.80796 0.669786 7.12153 1.05667 7.12153H3.93939V2.52954Z" fill="#B1DBF2"/>
<path d="M13.9045 8.11713V2.52965C13.9045 1.13261 12.7721 0 11.375 0C9.97805 0 8.84544 1.13257 8.84544 2.52965V8.11708H13.9045V8.11713Z" fill="#B1DBF2"/>
<path d="M11.3748 6.67401C11.9981 6.67401 12.5034 6.16873 12.5034 5.54544C12.5034 4.92215 11.9981 4.41687 11.3748 4.41687C10.7516 4.41687 10.2463 4.92215 10.2463 5.54544C10.2463 6.16873 10.7516 6.67401 11.3748 6.67401Z" fill="#578CAD"/>
<path d="M21.6933 7.47787H15.928C15.3453 7.47787 14.8714 7.00381 14.8714 6.42115V3.23006C14.8714 2.64736 15.3454 2.17334 15.928 2.17334H21.6933C22.276 2.17334 22.75 2.6474 22.75 3.23006V6.42115C22.75 7.00376 22.276 7.47787 21.6933 7.47787ZM15.928 2.88588C15.7383 2.88588 15.5839 3.04028 15.5839 3.23006V6.42115C15.5839 6.61092 15.7383 6.76533 15.928 6.76533H21.6933C21.8831 6.76533 22.0375 6.61092 22.0375 6.42115V3.23006C22.0375 3.04028 21.8831 2.88588 21.6933 2.88588H15.928Z" fill="#578CAD"/>
<path d="M21.6933 7.47787H18.8106C18.6139 7.47787 18.4544 7.31839 18.4544 7.1216V2.52961C18.4544 2.33281 18.6139 2.17334 18.8106 2.17334H21.6933C22.276 2.17334 22.75 2.6474 22.75 3.23006V6.42115C22.75 7.00376 22.276 7.47787 21.6933 7.47787ZM19.1669 6.76529H21.6933C21.8831 6.76529 22.0375 6.61088 22.0375 6.4211V3.23006C22.0375 3.04028 21.8831 2.88588 21.6933 2.88588H19.1669V6.76529Z" fill="#578CAD"/>
<path opacity="0.1" d="M1.49625 6.42108V3.22999C1.49625 2.84315 1.80977 2.52954 2.19666 2.52954H1.05667C0.669741 2.52954 0.356262 2.8432 0.356262 3.22999V6.42108C0.356262 6.80796 0.669786 7.12153 1.05667 7.12153H2.19666C1.80982 7.12153 1.49625 6.80787 1.49625 6.42108Z" fill="#231F20"/>
<path opacity="0.1" d="M11.755 0.0284819C11.6311 0.00977534 11.5043 0 11.375 0C9.97805 0 8.84544 1.13257 8.84544 2.52965V8.11708H9.60538V2.52965C9.60543 1.26174 10.5383 0.211859 11.755 0.0284819Z" fill="#231F20"/>
<path opacity="0.1" d="M11.0064 5.54552C11.0064 5.05559 11.3186 4.63876 11.755 4.48275C11.6363 4.44028 11.5084 4.41699 11.375 4.41699C10.7517 4.41699 10.2464 4.9222 10.2464 5.54552C10.2464 6.16874 10.7517 6.67404 11.375 6.67404C11.5084 6.67404 11.6363 6.65076 11.755 6.60828C11.3186 6.45223 11.0064 6.0354 11.0064 5.54552Z" fill="#231F20"/>
<path d="M6.82198 7.47787H1.05668C0.474062 7.47787 0 7.00376 0 6.42115V3.23006C0 2.64736 0.474062 2.17334 1.05668 2.17334H6.82198C7.40468 2.17334 7.87865 2.6474 7.87865 3.23006V6.42115C7.8787 7.00376 7.40468 7.47787 6.82198 7.47787ZM1.05668 2.88588C0.866944 2.88588 0.712537 3.04028 0.712537 3.23006V6.42115C0.712537 6.61092 0.866944 6.76533 1.05668 6.76533H6.82198C7.01171 6.76533 7.16612 6.61092 7.16612 6.42115V3.23006C7.16612 3.04028 7.01171 2.88588 6.82198 2.88588H1.05668Z" fill="#578CAD"/>
<path d="M3.93939 7.47787H1.05668C0.474062 7.47787 0 7.00376 0 6.42115V3.23006C0 2.64736 0.474062 2.17334 1.05668 2.17334H3.93939C4.13615 2.17334 4.29566 2.33281 4.29566 2.52961V7.12155C4.29566 7.31835 4.1361 7.47787 3.93939 7.47787ZM1.05668 2.88588C0.866944 2.88588 0.712537 3.04028 0.712537 3.23006V6.42115C0.712537 6.61092 0.866944 6.76533 1.05668 6.76533H3.58313V2.88592L1.05668 2.88588Z" fill="#578CAD"/>
<path d="M14.0518 8.0697H8.6983C8.31137 8.0697 7.9978 8.38331 7.9978 8.77015V9.58742H14.7522V8.77015C14.7522 8.38327 14.4386 8.0697 14.0518 8.0697Z" fill="#3A5D74"/>
<path opacity="0.1" d="M9.45825 8.0697H8.6983C8.31137 8.0697 7.9978 8.38331 7.9978 8.77015V9.58742H8.75775V8.77015C8.75775 8.38327 9.07136 8.0697 9.45825 8.0697Z" fill="#231F20"/>
<path d="M14.4574 12.9191H17.5918C17.9786 12.9191 18.2922 12.6054 18.2922 12.2186V11.1471C18.2922 10.2594 17.5726 9.53979 16.6849 9.53979H6.06508C5.17743 9.53979 4.45782 10.2594 4.45782 11.1471V12.2186C4.45782 12.6054 4.77144 12.9191 5.15832 12.9191H14.4574Z" fill="#578CAD"/>
<path opacity="0.1" d="M5.21783 12.2186V11.1471C5.21783 10.2594 5.93744 9.53979 6.82509 9.53979H6.06514C5.17749 9.53979 4.45789 10.2594 4.45789 11.1471V12.2186C4.45789 12.6054 4.7715 12.9191 5.15838 12.9191H5.91833C5.5314 12.9191 5.21783 12.6054 5.21783 12.2186Z" fill="#231F20"/>
<path d="M16.5994 11.5857H6.1507C5.95395 11.5857 5.79443 11.4262 5.79443 11.2294C5.79443 11.0326 5.95395 10.8732 6.1507 10.8732H16.5994C16.7962 10.8732 16.9557 11.0326 16.9557 11.2294C16.9557 11.4262 16.7961 11.5857 16.5994 11.5857Z" fill="#FF9737"/>
</svg>
