<svg width="26" height="26" viewBox="0 0 26 26" fill="none" xmlns="http://www.w3.org/2000/svg">
<rect x="8" y="16" width="5" height="8" fill="white"/>
<rect x="2" y="1" width="23" height="8" fill="white"/>
<path d="M7.8 2.6H3.9C3.55522 2.6 3.22456 2.73696 2.98076 2.98076C2.73697 3.22456 2.6 3.55522 2.6 3.9V6.5C2.6 6.84478 2.73697 7.17544 2.98076 7.41924C3.22456 7.66304 3.55522 7.8 3.9 7.8H6.5C6.84478 7.8 7.17544 7.66304 7.41924 7.41924C7.66304 7.17544 7.8 6.84478 7.8 6.5V2.6ZM3.913 10.4V23.3545H6.5V16.9C6.5 16.2104 6.77393 15.5491 7.26152 15.0615C7.74912 14.5739 8.41044 14.3 9.1 14.3H11.7C12.3896 14.3 13.0509 14.5739 13.5385 15.0615C14.0261 15.5491 14.3 16.2104 14.3 16.9V23.3545H22.1169V10.4H19.5C18.5016 10.4 17.589 10.0243 16.9 9.4068C16.1857 10.0475 15.2596 10.4013 14.3 10.4H11.7C10.7016 10.4 9.789 10.0243 9.1 9.4068C8.3857 10.0475 7.45957 10.4013 6.5 10.4H3.913ZM1.313 9.4198C0.899566 9.05409 0.568669 8.60461 0.342291 8.1012C0.115912 7.59779 -0.000766485 7.05197 3.78908e-06 6.5V3.9C3.78908e-06 2.86566 0.410895 1.87368 1.14229 1.14228C1.87368 0.410892 2.86566 0 3.9 0L22.1 0C23.1343 0 24.1263 0.410892 24.8577 1.14228C25.5891 1.87368 26 2.86566 26 3.9V6.5C26 7.6466 25.506 8.6788 24.7169 9.3925V23.3545C24.7169 24.0441 24.443 24.7054 23.9554 25.193C23.4678 25.6806 22.8065 25.9545 22.1169 25.9545H12.1849C12.025 25.9847 11.8627 26 11.7 26H9.1C8.9373 26 8.77497 25.9847 8.6151 25.9545H3.9143C3.22474 25.9545 2.56342 25.6806 2.07583 25.193C1.58823 24.7054 1.3143 24.0441 1.3143 23.3545V9.4185L1.313 9.4198ZM11.7 23.3558V16.9H9.1V23.3545L11.7 23.3558ZM15.6 2.6H10.4V6.5C10.4 6.84478 10.537 7.17544 10.7808 7.41924C11.0246 7.66304 11.3552 7.8 11.7 7.8H14.3C14.6448 7.8 14.9754 7.66304 15.2192 7.41924C15.463 7.17544 15.6 6.84478 15.6 6.5V2.6ZM18.2 2.6V6.5C18.2 6.84478 18.337 7.17544 18.5808 7.41924C18.8246 7.66304 19.1552 7.8 19.5 7.8H22.1C22.4448 7.8 22.7754 7.66304 23.0192 7.41924C23.263 7.17544 23.4 6.84478 23.4 6.5V3.9C23.4 3.55522 23.263 3.22456 23.0192 2.98076C22.7754 2.73696 22.4448 2.6 22.1 2.6H18.2ZM18.2 14.3H19.5C19.8448 14.3 20.1754 14.437 20.4192 14.6808C20.663 14.9246 20.8 15.2552 20.8 15.6V19.5C20.8 19.8448 20.663 20.1754 20.4192 20.4192C20.1754 20.663 19.8448 20.8 19.5 20.8H18.2C17.8552 20.8 17.5246 20.663 17.2808 20.4192C17.037 20.1754 16.9 19.8448 16.9 19.5V15.6C16.9 15.2552 17.037 14.9246 17.2808 14.6808C17.5246 14.437 17.8552 14.3 18.2 14.3Z" fill="#02135D"/>
</svg>
