<svg width="24" height="33" viewBox="0 0 24 33" fill="none" xmlns="http://www.w3.org/2000/svg">
<path d="M6.3696 32.9988L7.3026 30.9988H16.2956L17.2286 32.9988H19.4366L12.7996 18.7768V13.9988H10.7996V18.7768L4.1626 32.9988H6.3696ZM11.7996 21.3638L13.4966 24.9988H10.1036L11.7996 21.3638ZM9.1696 26.9988H14.4296L15.3626 28.9988H8.2366L9.1696 26.9988ZM6.5826 12.3308C7.23918 11.5969 8.04322 11.0098 8.9422 10.6078C9.84117 10.2058 10.8148 9.99805 11.7996 9.99805C12.7844 9.99805 13.758 10.2058 14.657 10.6078C15.556 11.0098 16.36 11.5969 17.0166 12.3308L15.5266 13.6648C15.0576 13.1406 14.4833 12.7212 13.8411 12.434C13.199 12.1469 12.5035 11.9985 11.8001 11.9985C11.0967 11.9985 10.4012 12.1469 9.75905 12.434C9.11691 12.7212 8.54258 13.1406 8.0736 13.6648L6.5826 12.3308Z" fill="#000D57"/>
<path d="M3 9.39867C4.02486 8.03287 5.35357 6.92437 6.88095 6.16092C8.40833 5.39746 10.0924 5 11.8 5C13.5076 5 15.1917 5.39746 16.7191 6.16092C18.2464 6.92437 19.5751 8.03287 20.6 9.39867L19 10.5987C18.1617 9.48071 17.0746 8.57331 15.8248 7.94834C14.575 7.32337 13.1968 6.998 11.7995 6.998C10.4022 6.998 9.024 7.32337 7.77421 7.94834C6.52441 8.57331 5.4373 9.48071 4.599 10.5987L3 9.39867Z" fill="#025D91"/>
<path d="M0 4.71398C1.39754 3.25028 3.20942 2.06232 5.2922 1.24413C7.37499 0.42595 9.67152 0 12 0C14.3285 0 16.625 0.42595 18.7078 1.24413C20.7906 2.06232 22.6025 3.25028 24 4.71398L21.8182 6C20.675 4.80191 19.1926 3.82946 17.4884 3.15969C15.7841 2.48992 13.9048 2.14122 11.9993 2.14122C10.0938 2.14122 8.21455 2.48992 6.51028 3.15969C4.80601 3.82946 3.3236 4.80191 2.18045 6L0 4.71398Z" fill="#0088D5"/>
</svg>
