<svg width="27" height="25" viewBox="0 0 27 25" fill="none" xmlns="http://www.w3.org/2000/svg">
<path d="M19.9853 0.408562C19.661 0.336253 19.3247 0.345304 19.006 0.434919C18.6872 0.524533 18.3958 0.691967 18.1573 0.922503L10.2241 8.16187C10.0374 8.3362 9.8187 8.47208 9.58007 8.56197L3.60351 10.8141C3.1019 11.0031 2.69684 11.3861 2.47743 11.8788C2.25803 12.3714 2.24225 12.9334 2.43357 13.4411L2.49128 13.5943L0.59996 14.307L2.33126 18.9014L4.22258 18.1887L4.2976 18.3878C4.49776 18.883 4.88131 19.2812 5.36629 19.4971C5.85126 19.7131 6.3992 19.7297 6.89298 19.5435L10.9977 23.5583C11.275 23.8284 11.6215 24.0146 11.9974 24.0957C12.3734 24.1768 12.7635 24.1494 13.123 24.0167L14.0762 23.6575C14.5737 23.4654 14.9742 23.0822 15.1905 22.5912C15.4068 22.1002 15.4214 21.5412 15.231 21.0362L13.771 17.1615L24.3727 17.4165C24.6333 17.4223 24.8923 17.3782 25.1358 17.2863C25.5113 17.1378 25.8351 16.8821 26.068 16.5503C26.2527 16.2864 26.3722 15.9815 26.4166 15.6606C26.4609 15.3398 26.4289 15.0123 26.323 14.7052L21.4119 1.67239C21.2931 1.36128 21.101 1.08354 20.8524 0.863296C20.6038 0.643048 20.3062 0.486951 19.9853 0.408562ZM9.24231 10.8754L11.1063 15.8221L6.18892 17.6751L4.32489 12.7284L9.24231 10.8754ZM13.3397 21.7489L12.3865 22.1081L8.99613 18.751L11.8104 17.6905L13.3397 21.7489ZM13.6441 15.1281C13.4294 15.1029 13.2131 15.0966 12.9977 15.1094L11.0932 10.0555C11.2692 9.94365 11.4353 9.81671 11.5896 9.6761L19.5206 2.38509L24.4144 15.372L13.6441 15.1281ZM23.1828 6.23438L24.6256 10.0631C25.1272 9.87404 25.5322 9.49107 25.7517 8.99841C25.9711 8.50574 25.9868 7.94374 25.7955 7.43602C25.6042 6.92831 25.2215 6.51648 24.7315 6.29112C24.2415 6.06577 23.6844 6.04536 23.1828 6.23438Z" fill="#02135D"/>
</svg>
