<svg width="30" height="25" viewBox="0 0 30 25" fill="none" xmlns="http://www.w3.org/2000/svg">
<path d="M23.3999 23.3998L28.7534 18.0462C28.911 17.8889 28.9996 17.6754 28.9998 17.4527V10.1C28.9998 9.54302 28.7786 9.00889 28.3848 8.61507C27.9909 8.22125 27.4568 8 26.8998 8C26.3429 8 25.8088 8.22125 25.4149 8.61507C25.0211 9.00889 24.7999 9.54302 24.7999 10.1V16.3999" stroke="#02135E" stroke-width="1.74997" stroke-linecap="round" stroke-linejoin="round"/>
<path d="M23.3997 17.7999L24.6008 16.5987C24.664 16.5357 24.714 16.4608 24.7481 16.3784C24.7822 16.296 24.7997 16.2077 24.7996 16.1185C24.7994 15.9926 24.7643 15.8692 24.698 15.7622C24.6317 15.6551 24.537 15.5686 24.4244 15.5123L23.8043 15.2029C23.2788 14.9402 22.6841 14.8494 22.1042 14.9433C21.5243 15.0373 20.9887 15.3113 20.5731 15.7265L19.3201 16.9795C18.795 17.5044 18.4999 18.2165 18.4997 18.959V23.3998M6.59992 23.3998L1.2464 18.0462C1.08882 17.8889 1.0002 17.6754 1 17.4527V10.1C1 9.54302 1.22125 9.00889 1.61507 8.61507C2.00889 8.22125 2.54302 8 3.09997 8C3.65691 8 4.19105 8.22125 4.58487 8.61507C4.97869 9.00889 5.19994 9.54302 5.19994 10.1V16.3999" stroke="#02135E" stroke-width="1.74997" stroke-linecap="round" stroke-linejoin="round"/>
<path d="M6.60017 17.7995L5.39899 16.5984C5.33595 16.5353 5.28594 16.4604 5.25183 16.378C5.21772 16.2956 5.20018 16.2073 5.2002 16.1182C5.2002 15.862 5.34579 15.6282 5.57539 15.512L6.19558 15.2026C6.72101 14.9399 7.31576 14.8491 7.89564 14.943C8.47552 15.037 9.01116 15.311 9.42673 15.7262L10.6797 16.9792C11.2048 17.5041 11.4999 18.2162 11.5001 18.9587V23.3995" stroke="#02135E" stroke-width="1.74997" stroke-linecap="round" stroke-linejoin="round"/>
<path d="M17.1002 12.1998H12.4327V8.93368H9.1665V4.26615H12.4327V1H17.1002V4.26615H20.3663V8.93368H17.1002V12.1998Z" stroke="#3880A8" stroke-width="1.74997" stroke-linecap="round" stroke-linejoin="round"/>
</svg>
