<svg width="23" height="23" viewBox="0 0 23 23" fill="none" xmlns="http://www.w3.org/2000/svg">
<path d="M17.7294 20.993C17.7294 21.8656 17.023 22.572 16.1504 22.572C15.2778 22.572 14.5713 21.8656 14.5713 20.993C14.5713 20.1204 15.2778 19.4139 16.1504 19.4139C17.023 19.4139 17.7294 20.1204 17.7294 20.993Z" fill="#FC8A8A"/>
<path d="M9.3582 20.993C9.3582 21.8656 8.6518 22.572 7.77921 22.572C6.90662 22.572 6.20017 21.8656 6.20017 20.993C6.20017 20.1204 6.90662 19.4139 7.77921 19.4139C8.6518 19.4139 9.3582 20.1204 9.3582 20.993Z" fill="#FC8A8A"/>
<path d="M17.7292 20.9939C17.7292 21.8665 17.0236 22.5721 16.1509 22.5721C15.5076 22.5721 14.9531 22.1882 14.7078 21.6372C14.9051 21.7261 15.1237 21.7758 15.353 21.7758C16.2256 21.7758 16.933 21.0685 16.933 20.1958C16.933 19.9666 16.8832 19.7479 16.7943 19.5507C17.3454 19.7959 17.7292 20.3504 17.7292 20.9939Z" fill="#F96363"/>
<path d="M9.35803 20.9939C9.35803 21.8665 8.65242 22.5721 7.77979 22.5721C7.13639 22.5721 6.58186 22.1882 6.33659 21.6372C6.53387 21.7261 6.75248 21.7758 6.98176 21.7758C7.85439 21.7758 8.56178 21.0685 8.56178 20.1958C8.56178 19.9666 8.51201 19.7479 8.42314 19.5507C8.97416 19.7959 9.35803 20.3504 9.35803 20.9939Z" fill="#F96363"/>
<path d="M22.5463 6.29185L20.4846 15.0043C20.3816 15.4361 19.9976 15.7401 19.5551 15.7401H6.08838C5.58006 15.7401 5.12328 15.9445 4.79092 16.2768C4.67535 16.3924 4.57764 16.5203 4.49588 16.6643L6.42603 5.11707H21.6168C22.2317 5.11702 22.6867 5.69106 22.5463 6.29185Z" fill="#D3D8D9"/>
<path d="M8.67557 5.11707L6.90005 15.7401H6.0878C5.57948 15.7401 5.12275 15.9445 4.79034 16.2769C4.67481 16.3924 4.57706 16.5204 4.4953 16.6643L6.42545 5.11711L8.67557 5.11707Z" fill="#EDEDED"/>
<path d="M22.5463 6.29189L20.4846 15.0043C20.3816 15.4362 19.9976 15.7401 19.555 15.7401H17.305C17.7475 15.7401 18.1314 15.4362 18.2345 15.0043L20.2962 6.29189C20.4366 5.6911 19.9816 5.11707 19.3666 5.11707H21.6168C22.2317 5.11707 22.6867 5.6911 22.5463 6.29189Z" fill="#A8B1B3"/>
<path d="M20.0477 8.91843C20.5877 5.59112 18.3282 2.45605 15.0009 1.91606C11.6736 1.37606 8.53859 3.63562 7.99859 6.96293C7.45859 10.2902 9.71812 13.4253 13.0454 13.9653C16.3727 14.5053 19.5077 12.2457 20.0477 8.91843Z" fill="#7AD1F9"/>
<path d="M14.0214 14.2202C10.558 14.2202 7.74038 11.4025 7.74038 7.9392C7.74038 4.47587 10.558 1.6582 14.0214 1.6582C17.4847 1.6582 20.3024 4.47587 20.3024 7.9392C20.3024 11.4025 17.4847 14.2202 14.0214 14.2202ZM14.0214 2.01363C10.754 2.01363 8.09585 4.67178 8.09585 7.93916C8.09585 11.2065 10.754 13.8647 14.0214 13.8647C17.2888 13.8647 19.9469 11.2065 19.9469 7.93916C19.9469 4.67178 17.2888 2.01363 14.0214 2.01363Z" fill="#333333"/>
<path d="M20.0477 8.91843C20.5877 5.59112 18.3282 2.45605 15.0009 1.91606C11.6736 1.37606 8.53859 3.63562 7.99859 6.96293C7.45859 10.2902 9.71812 13.4253 13.0454 13.9653C16.3727 14.5053 19.5077 12.2457 20.0477 8.91843Z" fill="#7AD1F9"/>
<path d="M15.6445 4.3634C15.6445 7.23376 13.3161 9.56204 10.4458 9.56204C9.56247 9.56204 8.7325 9.34165 8.00378 8.95423C7.94691 8.62365 7.91847 8.28417 7.91847 7.93937C7.91847 4.56957 10.652 1.83606 14.0217 1.83606C14.3666 1.83606 14.7042 1.8645 15.0348 1.92137C15.4241 2.65004 15.6445 3.48006 15.6445 4.3634Z" fill="#A6E1FB"/>
<path d="M20.125 7.9394C20.125 11.3092 17.3915 14.0427 14.0217 14.0427C11.8801 14.0427 9.99436 12.939 8.90667 11.2684C9.86461 11.8939 11.0074 12.2566 12.2356 12.2566C15.6054 12.2566 18.3389 9.52306 18.3389 6.15326C18.3389 4.92512 17.9745 3.78228 17.3507 2.82434C19.0214 3.91376 20.125 5.79775 20.125 7.9394Z" fill="#4CC3F7"/>
<path d="M14.0214 14.0425C15.8449 14.0425 17.3231 11.3099 17.3231 7.9392C17.3231 4.56846 15.8449 1.83594 14.0214 1.83594C12.198 1.83594 10.7198 4.56846 10.7198 7.9392C10.7198 11.3099 12.198 14.0425 14.0214 14.0425Z" fill="#A6E1FB"/>
<path d="M15.6445 4.36344C15.6445 7.10228 13.5241 9.34707 10.8368 9.54609C10.7604 9.03421 10.7195 8.49568 10.7195 7.93937C10.7195 4.56957 12.1982 1.83606 14.0217 1.83606C14.4323 1.83606 14.8233 1.97469 15.1859 2.22708C15.4809 2.87936 15.6445 3.60096 15.6445 4.36344Z" fill="#D3F0FD"/>
<path d="M17.1765 9.7345C16.7624 12.2281 15.5076 14.0427 14.0217 14.0427C13.1029 14.0427 12.2729 13.3496 11.6739 12.2298C11.8587 12.2476 12.0471 12.2565 12.2355 12.2565C14.267 12.2565 16.0674 11.263 17.1765 9.7345Z" fill="#7AD1F9"/>
<path d="M22.5028 5.36872C22.2877 5.09501 21.9643 4.93856 21.6177 4.93856H19.5379C18.4714 2.98588 16.3986 1.65821 14.0213 1.65821C11.644 1.65821 9.57127 2.98588 8.50481 4.93856H6.63572L7.11804 2.05255C7.20362 1.54055 7.06023 1.01965 6.72489 0.62357C6.38938 0.227311 5.89923 0.00012207 5.38011 0.00012207H2.50352C2.40528 0.00012207 2.32579 0.0796138 2.32579 0.177856C2.32579 0.276099 2.40528 0.355591 2.50352 0.355591H5.3802C5.79468 0.355591 6.18591 0.536969 6.45372 0.853203C6.72134 1.16944 6.83589 1.58511 6.76751 1.99386L4.32508 16.6082C4.1653 16.8962 4.07376 17.2257 4.07376 17.5771C4.07376 18.6879 4.97843 19.5925 6.08927 19.5925H6.72303C6.29846 19.9135 6.0224 20.4209 6.0224 20.993C6.0224 21.9616 6.81056 22.7498 7.77921 22.7498C8.74787 22.7498 9.5359 21.9616 9.5359 20.993C9.5359 20.4209 9.25987 19.9134 8.8354 19.5925H15.0941C14.6696 19.9135 14.3935 20.4209 14.3935 20.993C14.3935 21.9616 15.1817 22.7498 16.1503 22.7498C17.119 22.7498 17.907 21.9616 17.907 20.993C17.907 20.0243 17.119 19.2363 16.1503 19.2363C16.1451 19.2363 6.08927 19.2371 6.08927 19.2371C5.17394 19.2371 4.42923 18.4924 4.42923 17.5771C4.42923 17.2667 4.51646 16.9772 4.66526 16.7287C4.69144 16.6848 4.71961 16.643 4.74898 16.6023C4.7636 16.5823 4.77799 16.5622 4.79345 16.5428C4.81732 16.5128 4.8434 16.4843 4.86948 16.4558C5.17305 16.1265 5.60677 15.9188 6.08927 15.9188C6.09234 15.9188 6.09496 15.9172 6.09802 15.917H19.556C20.0821 15.917 20.5353 15.5597 20.6579 15.0444L22.7196 6.33195C22.7996 5.99253 22.7197 5.64061 22.5028 5.36872ZM16.1349 19.5925H16.1506C16.1517 19.5925 16.1526 19.5919 16.1536 19.5919C16.9246 19.5937 17.5515 20.2215 17.5515 20.993C17.5515 21.7657 16.9228 22.3943 16.1503 22.3943C15.3776 22.3943 14.7489 21.7657 14.7489 20.993C14.749 20.2256 15.3694 19.6009 16.1349 19.5925ZM7.7638 19.5925H7.79463C8.56 19.6009 9.18043 20.2256 9.18043 20.993C9.18043 21.7657 8.55178 22.3943 7.77921 22.3943C7.00651 22.3943 6.37782 21.7657 6.37782 20.993C6.37787 20.2256 6.99829 19.6009 7.7638 19.5925ZM10.5442 8.11694C10.5596 9.10572 10.7019 10.0376 10.9431 10.8617C10.4582 11.1354 10.0078 11.477 9.60144 11.8803C8.70277 10.8736 8.14308 9.55925 8.10029 8.11694H10.5442ZM13.8436 13.8545C12.7946 13.7423 11.8825 12.644 11.3612 11.0413C12.1234 10.6577 12.9653 10.4445 13.8436 10.419V13.8545ZM14.1991 10.419C15.0775 10.4445 15.9195 10.6577 16.6817 11.0413C16.1604 12.644 15.2482 13.7424 14.1991 13.8546V10.419ZM14.1991 10.0636V8.11694H17.143C17.1285 9.04516 17.0013 9.92028 16.7859 10.6947C15.9896 10.304 15.1126 10.0886 14.1991 10.0636ZM14.1991 7.76147V5.81466C15.1127 5.78964 15.9896 5.57414 16.7857 5.18335C17.0012 5.95782 17.1285 6.83303 17.143 7.76143L14.1991 7.76147ZM14.1991 5.45923V2.02389C15.2482 2.13609 16.1604 3.23444 16.6817 4.83707C15.9196 5.22063 15.0775 5.43368 14.1991 5.45923ZM15.4007 2.17746C16.4759 2.43491 17.4385 2.9849 18.1977 3.74005C17.8308 4.10525 17.4253 4.41638 16.9898 4.66952C16.6165 3.57089 16.0617 2.69449 15.4007 2.17746ZM13.8436 2.02389V5.45919C12.9653 5.43368 12.1234 5.2204 11.3613 4.83676C11.8827 3.23431 12.7947 2.13613 13.8436 2.02389ZM11.0532 4.66929C10.6176 4.41615 10.2122 4.10503 9.84529 3.73979C10.6045 2.98473 11.567 2.43482 12.642 2.17741C11.9812 2.69449 11.4264 3.57081 11.0532 4.66929ZM13.8436 5.8147V7.76152H10.8999C10.9144 6.8333 11.0417 5.95818 11.2571 5.18375C12.0532 5.57436 12.9302 5.78969 13.8436 5.8147ZM13.8436 8.11694V10.0636C12.9302 10.0886 12.0533 10.3043 11.2572 10.6952C11.0417 9.92068 10.9144 9.04538 10.8999 8.11698L13.8436 8.11694ZM11.0527 11.2091C11.4257 12.3075 11.9805 13.1833 12.6408 13.7007C11.5662 13.4432 10.6041 12.8933 9.84511 12.1384C10.212 11.7733 10.6173 11.4623 11.0527 11.2091ZM16.9898 11.2089C17.4254 11.462 17.8308 11.7731 18.1977 12.1384C17.4382 12.8938 16.4754 13.4439 15.3998 13.7012C16.0611 13.1843 16.6164 12.308 16.9898 11.2089ZM18.4418 11.8798C18.0354 11.4765 17.5851 11.1348 17.1 10.8611C17.3413 10.0373 17.4833 9.1055 17.4987 8.11694H19.9424C19.8996 9.55903 19.3401 10.8731 18.4418 11.8798ZM17.4987 7.76147C17.4833 6.77274 17.3413 5.84061 17.1 5.01672C17.5849 4.74305 18.0351 4.40154 18.4415 3.99826C19.34 5.00499 19.8996 6.31925 19.9424 7.76147H17.4987ZM9.60104 3.99857C10.0074 4.40194 10.4578 4.74359 10.9428 5.0173C10.7016 5.84105 10.5596 6.77291 10.5442 7.76147H8.10034C8.14313 6.31942 8.70263 5.00526 9.60104 3.99857ZM22.373 6.25202L20.3114 14.9626C20.2278 15.3163 19.9168 15.5616 19.556 15.5616H6.08749C5.60241 15.5616 5.14399 15.7321 4.77968 16.0447L6.5764 5.29403H8.3265C7.95131 6.09854 7.74038 6.9945 7.74038 7.93921C7.74038 11.4025 10.558 14.2202 14.0214 14.2202C17.4847 14.2202 20.3024 11.4025 20.3024 7.93921C20.3024 6.9945 20.0915 6.09854 19.7163 5.29403H21.6177C21.8558 5.29403 22.0762 5.40245 22.2255 5.58907C22.373 5.77573 22.4281 6.01741 22.373 6.25202Z" fill="#333333"/>
<path d="M2.22164 15.5605H0.177734C0.0794917 15.5605 0 15.4811 0 15.3828C0 15.2846 0.0794917 15.2051 0.177734 15.2051H2.22164C2.31988 15.2051 2.39937 15.2846 2.39937 15.3828C2.39937 15.4811 2.31988 15.5605 2.22164 15.5605Z" fill="#333333"/>
<path d="M2.87219 13.8029H0.177734C0.0794917 13.8029 0 13.7234 0 13.6251C0 13.5269 0.0794917 13.4474 0.177734 13.4474H2.87219C2.97043 13.4474 3.04992 13.5269 3.04992 13.6251C3.04992 13.7234 2.97043 13.8029 2.87219 13.8029Z" fill="#333333"/>
<path d="M3.52078 12.0452H0.177734C0.0794917 12.0452 0 11.9657 0 11.8674C0 11.7692 0.0794917 11.6897 0.177734 11.6897H3.52078C3.61903 11.6897 3.69852 11.7692 3.69852 11.8674C3.69852 11.9657 3.61903 12.0452 3.52078 12.0452Z" fill="#333333"/>
<path d="M4.16956 10.2872H0.177734C0.0794917 10.2872 0 10.2077 0 10.1095C0 10.0113 0.0794917 9.93176 0.177734 9.93176H4.1696C4.26785 9.93176 4.34734 10.0113 4.34734 10.1095C4.34734 10.2077 4.2678 10.2872 4.16956 10.2872Z" fill="#333333"/>
</svg>
