<svg width="23" height="20" viewBox="0 0 23 20" fill="none" xmlns="http://www.w3.org/2000/svg">
<path d="M3.73242 5.78528H18.6621V16.3516C18.6621 16.6344 18.5498 16.9057 18.3498 17.1056C18.1498 17.3056 17.8785 17.418 17.5957 17.418H4.79883C4.516 17.418 4.24475 17.3056 4.04476 17.1056C3.84477 16.9057 3.73242 16.6344 3.73242 16.3516V5.78528Z" fill="#52E355"/>
<path d="M17.5957 16.4502H4.79883C4.516 16.4502 4.24475 16.3378 4.04476 16.1379C3.84477 15.9379 3.73242 15.6666 3.73242 15.3838V5.78613H18.6621V15.3838C18.6621 15.6666 18.5498 15.9379 18.3498 16.1379C18.1498 16.3378 17.8785 16.4502 17.5957 16.4502Z" fill="#90FC95"/>
<path d="M3.73242 5.78528V10.369H3.80352C4.48831 10.3695 5.14818 10.1122 5.65195 9.64834C6.15606 10.1116 6.81575 10.3687 7.50039 10.3687C8.18503 10.3687 8.84472 10.1116 9.34883 9.64834C9.85284 10.1118 10.5126 10.369 11.1973 10.369C11.882 10.369 12.5417 10.1118 13.0457 9.64834C13.5498 10.1116 14.2095 10.3687 14.8941 10.3687C15.5788 10.3687 16.2385 10.1116 16.7426 9.64834C17.2464 10.1122 17.9062 10.3695 18.591 10.369H18.6621V5.78528H3.73242Z" fill="#52E355"/>
<path d="M17.5957 17.5957H4.79883C4.46886 17.5957 4.15241 17.4646 3.91909 17.2313C3.68577 16.998 3.55469 16.6816 3.55469 16.3516V5.78528C3.55469 5.73814 3.57341 5.69293 3.60674 5.6596C3.64008 5.62627 3.68528 5.60754 3.73242 5.60754H18.6621C18.7092 5.60754 18.7545 5.62627 18.7878 5.6596C18.8211 5.69293 18.8398 5.73814 18.8398 5.78528V16.3516C18.8398 16.6816 18.7088 16.998 18.4754 17.2313C18.2421 17.4646 17.9257 17.5957 17.5957 17.5957ZM3.91016 5.96301V16.3516C3.91016 16.5873 4.00378 16.8133 4.17044 16.98C4.3371 17.1466 4.56314 17.2403 4.79883 17.2403H17.5957C17.8314 17.2403 18.0574 17.1466 18.2241 16.98C18.3907 16.8133 18.4844 16.5873 18.4844 16.3516V5.96301H3.91016Z" fill="#2FB1EA"/>
<path d="M20.4395 5.78525H1.95508L3.42583 3.03037C3.51872 2.86585 3.65366 2.72896 3.81683 2.63371C3.98001 2.53846 4.16555 2.48827 4.35449 2.48828H18.04C18.2283 2.48823 18.4133 2.53803 18.5761 2.63262C18.7389 2.72721 18.8737 2.86322 18.9669 3.02682L20.4395 5.78525Z" fill="#CBECF9"/>
<path d="M20.0129 4.98545L18.9687 3.03037C18.8758 2.86585 18.7409 2.72896 18.5777 2.63371C18.4145 2.53846 18.229 2.48827 18.04 2.48828H4.35449C4.1662 2.48823 3.98126 2.53803 3.81846 2.63262C3.65566 2.72721 3.52081 2.86322 3.4276 3.02682L2.38164 4.98545H20.0129Z" fill="white"/>
<path d="M20.4395 5.96299H1.95508C1.92444 5.96291 1.89434 5.9549 1.8677 5.93976C1.84106 5.92461 1.81879 5.90284 1.80305 5.87655C1.78731 5.85025 1.77864 5.82034 1.77787 5.78971C1.7771 5.75908 1.78427 5.72877 1.79867 5.70172L3.26942 2.94684C3.37744 2.75393 3.53491 2.5933 3.72562 2.48146C3.91634 2.36963 4.13341 2.31063 4.35449 2.31055H18.04C18.2596 2.31062 18.4752 2.36878 18.665 2.47913C18.8548 2.58948 19.012 2.74808 19.1207 2.93884L20.5941 5.70172C20.6084 5.72863 20.6156 5.75878 20.6149 5.78927C20.6142 5.81975 20.6057 5.84955 20.5902 5.87579C20.5746 5.90203 20.5526 5.92384 20.5262 5.93911C20.4998 5.95438 20.4699 5.9626 20.4395 5.96299ZM2.25101 5.60752H20.1435L18.8105 3.11035C18.7324 2.97513 18.6201 2.86286 18.4849 2.78486C18.3496 2.70685 18.1962 2.66586 18.04 2.66602H4.35449C4.19805 2.66555 4.04426 2.70639 3.90866 2.78441C3.77306 2.86243 3.66046 2.97487 3.58224 3.11035L2.25101 5.60752Z" fill="#2FB1EA"/>
<path d="M1.95508 5.78528H5.65195V7.63372C5.65195 8.12395 5.45721 8.59411 5.11056 8.94076C4.76391 9.28741 4.29375 9.48215 3.80352 9.48215C3.31328 9.48215 2.84312 9.28741 2.49647 8.94076C2.14982 8.59411 1.95508 8.12395 1.95508 7.63372V5.78528Z" fill="#F97171"/>
<path d="M2.25012 5.78528H5.36047C5.43872 5.78528 5.51376 5.81636 5.56909 5.87169C5.62442 5.92702 5.65551 6.00207 5.65551 6.08032V6.93167C5.65551 7.4219 5.46076 7.89206 5.11411 8.23871C4.76746 8.58536 4.29731 8.7801 3.80707 8.7801C3.56403 8.78057 3.32329 8.7331 3.09861 8.64042C2.87394 8.54774 2.66975 8.41166 2.49773 8.23997C2.32571 8.06828 2.18924 7.86435 2.09612 7.63985C2.00301 7.41536 1.95508 7.1747 1.95508 6.93167V6.08032C1.95508 6.00207 1.98616 5.92702 2.04149 5.87169C2.09682 5.81636 2.17187 5.78528 2.25012 5.78528Z" fill="#FF8888"/>
<path d="M3.80352 9.65989C3.26636 9.65918 2.7514 9.44549 2.37157 9.06566C1.99175 8.68583 1.77805 8.17087 1.77734 7.63372V5.78528C1.77734 5.73814 1.79607 5.69293 1.8294 5.6596C1.86273 5.62627 1.90794 5.60754 1.95508 5.60754H5.65195C5.69909 5.60754 5.7443 5.62627 5.77763 5.6596C5.81096 5.69293 5.82969 5.73814 5.82969 5.78528V7.63372C5.82898 8.17087 5.61528 8.68583 5.23546 9.06566C4.85563 9.44549 4.34067 9.65918 3.80352 9.65989ZM2.13281 5.96301V7.63372C2.13281 7.85312 2.17603 8.07037 2.25999 8.27307C2.34395 8.47577 2.46701 8.65994 2.62215 8.81508C2.77729 8.97022 2.96147 9.09328 3.16417 9.17724C3.36686 9.26121 3.58412 9.30442 3.80352 9.30442C4.02292 9.30442 4.24017 9.26121 4.44287 9.17724C4.64557 9.09328 4.82974 8.97022 4.98488 8.81508C5.14002 8.65994 5.26308 8.47577 5.34704 8.27307C5.431 8.07037 5.47422 7.85312 5.47422 7.63372V5.96301H2.13281Z" fill="#2FB1EA"/>
<path d="M5.65195 5.78528H9.34883V7.63372C9.34883 8.12395 9.15408 8.59411 8.80743 8.94076C8.46079 9.28741 7.99063 9.48215 7.50039 9.48215C7.01016 9.48215 6.54 9.28741 6.19335 8.94076C5.8467 8.59411 5.65195 8.12395 5.65195 7.63372V5.78528Z" fill="#CBECF9"/>
<path d="M5.94699 5.78528H9.05735C9.13559 5.78528 9.21064 5.81636 9.26597 5.87169C9.3213 5.92702 9.35238 6.00207 9.35238 6.08032V6.93167C9.35238 7.4219 9.15764 7.89206 8.81099 8.23871C8.46434 8.58536 7.99418 8.7801 7.50395 8.7801C7.26091 8.78057 7.02016 8.7331 6.79549 8.64042C6.57082 8.54774 6.36663 8.41166 6.19461 8.23997C6.02259 8.06828 5.88611 7.86435 5.793 7.63985C5.69988 7.41536 5.65195 7.1747 5.65195 6.93167V6.08032C5.65195 6.00207 5.68304 5.92702 5.73837 5.87169C5.7937 5.81636 5.86874 5.78528 5.94699 5.78528Z" fill="white"/>
<path d="M7.50039 9.65989C6.96323 9.65918 6.44828 9.44549 6.06845 9.06566C5.68862 8.68583 5.47493 8.17087 5.47422 7.63372V5.78528C5.47422 5.73814 5.49295 5.69293 5.52628 5.6596C5.55961 5.62627 5.60482 5.60754 5.65195 5.60754H9.34883C9.39597 5.60754 9.44118 5.62627 9.47451 5.6596C9.50784 5.69293 9.52656 5.73814 9.52656 5.78528V7.63372C9.52586 8.17087 9.31216 8.68583 8.93233 9.06566C8.55251 9.44549 8.03755 9.65918 7.50039 9.65989ZM5.82969 5.96301V7.63372C5.82969 8.07681 6.00571 8.50176 6.31903 8.81508C6.63234 9.1284 7.05729 9.30442 7.50039 9.30442C7.94349 9.30442 8.36844 9.1284 8.68176 8.81508C8.99508 8.50176 9.1711 8.07681 9.1711 7.63372V5.96301H5.82969Z" fill="#2FB1EA"/>
<path d="M9.34883 5.78528H13.0457V7.63372C13.0457 8.12395 12.851 8.59411 12.5043 8.94076C12.1577 9.28741 11.6875 9.48215 11.1973 9.48215C10.707 9.48215 10.2369 9.28741 9.89023 8.94076C9.54358 8.59411 9.34883 8.12395 9.34883 7.63372V5.78528Z" fill="#F97171"/>
<path d="M9.64387 5.78528H12.7542C12.8325 5.78528 12.9075 5.81636 12.9628 5.87169C13.0182 5.92702 13.0493 6.00207 13.0493 6.08032V6.93167C13.0493 7.4219 12.8545 7.89206 12.5079 8.23871C12.1612 8.58536 11.6911 8.7801 11.2008 8.7801C10.9578 8.78057 10.717 8.7331 10.4924 8.64042C10.2677 8.54774 10.0635 8.41166 9.89148 8.23997C9.71946 8.06828 9.58299 7.86435 9.48987 7.63985C9.39676 7.41536 9.34883 7.1747 9.34883 6.93167V6.08032C9.34883 6.00207 9.37992 5.92702 9.43525 5.87169C9.49058 5.81636 9.56562 5.78528 9.64387 5.78528Z" fill="#FF8888"/>
<path d="M11.1973 9.65989C10.6601 9.65918 10.1452 9.44549 9.76533 9.06566C9.3855 8.68583 9.1718 8.17087 9.1711 7.63372V5.78528C9.1711 5.73814 9.18982 5.69293 9.22315 5.6596C9.25649 5.62627 9.30169 5.60754 9.34883 5.60754H13.0457C13.0928 5.60754 13.1381 5.62627 13.1714 5.6596C13.2047 5.69293 13.2234 5.73814 13.2234 5.78528V7.63372C13.2227 8.17087 13.009 8.68583 12.6292 9.06566C12.2494 9.44549 11.7344 9.65918 11.1973 9.65989ZM9.52657 5.96301V7.63372C9.52657 8.07681 9.70259 8.50176 10.0159 8.81508C10.3292 9.1284 10.7542 9.30442 11.1973 9.30442C11.6404 9.30442 12.0653 9.1284 12.3786 8.81508C12.692 8.50176 12.868 8.07681 12.868 7.63372V5.96301H9.52657Z" fill="#2FB1EA"/>
<path d="M13.0457 5.78528H16.7426V7.63372C16.7426 8.12395 16.5478 8.59411 16.2012 8.94076C15.8545 9.28741 15.3844 9.48215 14.8941 9.48215C14.4039 9.48215 13.9337 9.28741 13.5871 8.94076C13.2404 8.59411 13.0457 8.12395 13.0457 7.63372V5.78528Z" fill="#CBECF9"/>
<path d="M13.3407 5.78528H16.4511C16.5293 5.78528 16.6044 5.81636 16.6597 5.87169C16.715 5.92702 16.7461 6.00207 16.7461 6.08032V6.93167C16.7461 7.17441 16.6983 7.41477 16.6054 7.63903C16.5125 7.86329 16.3764 8.06706 16.2047 8.23871C16.0331 8.41035 15.8293 8.54651 15.6051 8.6394C15.3808 8.73229 15.1404 8.7801 14.8977 8.7801C14.6547 8.78057 14.4139 8.7331 14.1892 8.64042C13.9646 8.54774 13.7604 8.41166 13.5884 8.23997C13.4163 8.06828 13.2799 7.86435 13.1867 7.63985C13.0936 7.41536 13.0457 7.1747 13.0457 6.93167V6.08032C13.0457 6.00207 13.0768 5.92702 13.1321 5.87169C13.1874 5.81636 13.2625 5.78528 13.3407 5.78528Z" fill="white"/>
<path d="M14.8941 9.65989C14.357 9.65918 13.842 9.44549 13.4622 9.06566C13.0824 8.68583 12.8687 8.17087 12.868 7.63372V5.78528C12.868 5.73814 12.8867 5.69293 12.92 5.6596C12.9534 5.62627 12.9986 5.60754 13.0457 5.60754H16.7426C16.7897 5.60754 16.8349 5.62627 16.8683 5.6596C16.9016 5.69293 16.9203 5.73814 16.9203 5.78528V7.63372C16.9196 8.17087 16.7059 8.68583 16.3261 9.06566C15.9463 9.44549 15.4313 9.65918 14.8941 9.65989ZM13.2234 5.96301V7.63372C13.2234 8.07681 13.3995 8.50176 13.7128 8.81508C14.0261 9.1284 14.451 9.30442 14.8941 9.30442C15.3372 9.30442 15.7622 9.1284 16.0755 8.81508C16.3888 8.50176 16.5648 8.07681 16.5648 7.63372V5.96301H13.2234Z" fill="#2FB1EA"/>
<path d="M16.7426 5.78528H20.4395V7.63372C20.4395 7.87646 20.3916 8.11682 20.2987 8.34108C20.2059 8.56535 20.0697 8.76912 19.8981 8.94076C19.7264 9.1124 19.5226 9.24856 19.2984 9.34145C19.0741 9.43434 18.8338 9.48215 18.591 9.48215C18.1008 9.48215 17.6306 9.28741 17.284 8.94076C16.9373 8.59411 16.7426 8.12395 16.7426 7.63372V5.78528Z" fill="#F97171"/>
<path d="M17.0376 5.78528H20.148C20.2256 5.78621 20.2997 5.81771 20.3543 5.87294C20.4089 5.92817 20.4395 6.00268 20.4395 6.08032V6.93167C20.4395 7.17441 20.3916 7.41477 20.2987 7.63903C20.2059 7.86329 20.0697 8.06706 19.8981 8.23871C19.7264 8.41035 19.5226 8.54651 19.2984 8.6394C19.0741 8.73229 18.8338 8.7801 18.591 8.7801C18.1008 8.7801 17.6306 8.58536 17.284 8.23871C16.9373 7.89206 16.7426 7.4219 16.7426 6.93167V6.08032C16.7426 6.00207 16.7737 5.92702 16.829 5.87169C16.8843 5.81636 16.9594 5.78528 17.0376 5.78528Z" fill="#FF8888"/>
<path d="M18.591 9.65989C18.0539 9.65918 17.5389 9.44549 17.1591 9.06566C16.7792 8.68583 16.5655 8.17087 16.5648 7.63372V5.78528C16.5648 5.73814 16.5836 5.69293 16.6169 5.6596C16.6502 5.62627 16.6954 5.60754 16.7426 5.60754H20.4395C20.4866 5.60754 20.5318 5.62627 20.5651 5.6596C20.5985 5.69293 20.6172 5.73814 20.6172 5.78528V7.63372C20.6165 8.17087 20.4028 8.68583 20.023 9.06566C19.6431 9.44549 19.1282 9.65918 18.591 9.65989ZM16.9203 5.96301V7.63372C16.9203 8.07681 17.0963 8.50176 17.4096 8.81508C17.723 9.1284 18.1479 9.30442 18.591 9.30442C19.0341 9.30442 19.4591 9.1284 19.7724 8.81508C20.0857 8.50176 20.2617 8.07681 20.2617 7.63372V5.96301H16.9203Z" fill="#2FB1EA"/>
<path d="M5.78259 11.6904H8.6761C8.81751 11.6904 8.95314 11.7466 9.05313 11.8466C9.15313 11.9466 9.2093 12.0822 9.2093 12.2236V17.4179H5.24938V12.2236C5.24938 12.0822 5.30556 11.9466 5.40555 11.8466C5.50555 11.7466 5.64117 11.6904 5.78259 11.6904Z" fill="#CBECF9"/>
<path d="M5.78259 12.3125H8.6761C8.81751 12.3125 8.95314 12.3687 9.05313 12.4687C9.15313 12.5687 9.2093 12.7043 9.2093 12.8457V16.451H5.24938V12.8457C5.24938 12.7043 5.30556 12.5687 5.40555 12.4687C5.50555 12.3687 5.64117 12.3125 5.78259 12.3125Z" fill="white"/>
<path d="M9.2093 17.5957H5.24938C5.20224 17.5957 5.15704 17.5769 5.1237 17.5436C5.09037 17.5103 5.07165 17.4651 5.07165 17.4179V12.2236C5.07165 12.0351 5.14655 11.8543 5.27988 11.7209C5.4132 11.5876 5.59403 11.5127 5.78259 11.5127H8.6761C8.86465 11.5127 9.04548 11.5876 9.17881 11.7209C9.31214 11.8543 9.38704 12.0351 9.38704 12.2236V17.4179C9.38704 17.4651 9.36831 17.5103 9.33498 17.5436C9.30165 17.5769 9.25644 17.5957 9.2093 17.5957ZM5.42712 17.2402H9.03157V12.2236C9.03157 12.1294 8.99412 12.0389 8.92746 11.9723C8.86079 11.9056 8.77038 11.8682 8.6761 11.8682H5.78259C5.68831 11.8682 5.59789 11.9056 5.53123 11.9723C5.46457 12.0389 5.42712 12.1294 5.42712 12.2236V17.2402Z" fill="#2FB1EA"/>
<path d="M16.6128 11.6904H10.9582C10.6637 11.6904 10.425 11.9292 10.425 12.2236V14.3849C10.425 14.6794 10.6637 14.9181 10.9582 14.9181H16.6128C16.9073 14.9181 17.146 14.6794 17.146 14.3849V12.2236C17.146 11.9292 16.9073 11.6904 16.6128 11.6904Z" fill="#CBECF9"/>
<path d="M16.6128 12.3322H10.9582C10.6637 12.3322 10.425 12.5709 10.425 12.8654V14.385C10.425 14.6795 10.6637 14.9182 10.9582 14.9182H16.6128C16.9073 14.9182 17.146 14.6795 17.146 14.385V12.8654C17.146 12.5709 16.9073 12.3322 16.6128 12.3322Z" fill="white"/>
<path d="M16.6119 15.0958H10.9582C10.7697 15.0958 10.5888 15.0209 10.4555 14.8876C10.3222 14.7543 10.2473 14.5734 10.2473 14.3849V12.2236C10.2473 12.0351 10.3222 11.8543 10.4555 11.7209C10.5888 11.5876 10.7697 11.5127 10.9582 11.5127H16.6128C16.8014 11.5127 16.9822 11.5876 17.1155 11.7209C17.2489 11.8543 17.3238 12.0351 17.3238 12.2236V14.3849C17.3238 14.4783 17.3054 14.5708 17.2696 14.6572C17.2338 14.7435 17.1813 14.8219 17.1152 14.8879C17.0491 14.9539 16.9706 15.0063 16.8843 15.042C16.7979 15.0776 16.7054 15.0959 16.6119 15.0958ZM10.9573 11.8682C10.863 11.8682 10.7726 11.9056 10.706 11.9723C10.6393 12.0389 10.6019 12.1294 10.6019 12.2236V14.3849C10.6019 14.4792 10.6393 14.5696 10.706 14.6362C10.7726 14.7029 10.863 14.7404 10.9573 14.7404H16.6119C16.7062 14.7404 16.7966 14.7029 16.8633 14.6362C16.93 14.5696 16.9674 14.4792 16.9674 14.3849V12.2236C16.9674 12.1294 16.93 12.0389 16.8633 11.9723C16.7966 11.9056 16.7062 11.8682 16.6119 11.8682H10.9573Z" fill="#2FB1EA"/>
<path d="M20.4395 10.9307C20.6849 10.9307 20.8838 10.7317 20.8838 10.4863C20.8838 10.2409 20.6849 10.042 20.4395 10.042C20.1941 10.042 19.9951 10.2409 19.9951 10.4863C19.9951 10.7317 20.1941 10.9307 20.4395 10.9307Z" fill="#D4FFD4"/>
<path d="M12.6191 1.51074C12.8155 1.51074 12.9746 1.35159 12.9746 1.15527C12.9746 0.958953 12.8155 0.799805 12.6191 0.799805C12.4228 0.799805 12.2637 0.958953 12.2637 1.15527C12.2637 1.35159 12.4228 1.51074 12.6191 1.51074Z" fill="#D4FFD4"/>
<path d="M10.9307 18.751C11.0779 18.751 11.1973 18.6316 11.1973 18.4844C11.1973 18.3371 11.0779 18.2178 10.9307 18.2178C10.7834 18.2178 10.6641 18.3371 10.6641 18.4844C10.6641 18.6316 10.7834 18.751 10.9307 18.751Z" fill="#D4FFD4"/>
<path d="M2.57715 10.3975C2.67531 10.3975 2.75488 10.3179 2.75488 10.2197C2.75488 10.1216 2.67531 10.042 2.57715 10.042C2.47899 10.042 2.39941 10.1216 2.39941 10.2197C2.39941 10.3179 2.47899 10.3975 2.57715 10.3975Z" fill="#D4FFD4"/>
<path d="M3.19922 17.418C3.2483 17.418 3.28809 17.3782 3.28809 17.3291C3.28809 17.28 3.2483 17.2402 3.19922 17.2402C3.15014 17.2402 3.11035 17.28 3.11035 17.3291C3.11035 17.3782 3.15014 17.418 3.19922 17.418Z" fill="#D4FFD4"/>
<path d="M5.6875 19.1953C5.9329 19.1953 6.13184 18.9964 6.13184 18.751C6.13184 18.5056 5.9329 18.3066 5.6875 18.3066C5.4421 18.3066 5.24316 18.5056 5.24316 18.751C5.24316 18.9964 5.4421 19.1953 5.6875 19.1953Z" fill="#FFBDBD"/>
<path d="M9.77539 1.42188C9.97171 1.42188 10.1309 1.26273 10.1309 1.06641C10.1309 0.870086 9.97171 0.710938 9.77539 0.710938C9.57907 0.710938 9.41992 0.870086 9.41992 1.06641C9.41992 1.26273 9.57907 1.42188 9.77539 1.42188Z" fill="#FFBDBD"/>
<path d="M1.24414 5.24316C1.39138 5.24316 1.51074 5.1238 1.51074 4.97656C1.51074 4.82932 1.39138 4.70996 1.24414 4.70996C1.0969 4.70996 0.977539 4.82932 0.977539 4.97656C0.977539 5.1238 1.0969 5.24316 1.24414 5.24316Z" fill="#FFBDBD"/>
<path d="M20.4395 17.3291C20.5376 17.3291 20.6172 17.2495 20.6172 17.1514C20.6172 17.0532 20.5376 16.9736 20.4395 16.9736C20.3413 16.9736 20.2617 17.0532 20.2617 17.1514C20.2617 17.2495 20.3413 17.3291 20.4395 17.3291Z" fill="#FFBDBD"/>
<path d="M21.1504 8.97559C21.1995 8.97559 21.2393 8.9358 21.2393 8.88672C21.2393 8.83764 21.1995 8.79785 21.1504 8.79785C21.1013 8.79785 21.0615 8.83764 21.0615 8.88672C21.0615 8.9358 21.1013 8.97559 21.1504 8.97559Z" fill="#FFBDBD"/>
<path d="M19.4619 0.888672C19.7073 0.888672 19.9062 0.689736 19.9062 0.444336C19.9062 0.198936 19.7073 0 19.4619 0C19.2165 0 19.0176 0.198936 19.0176 0.444336C19.0176 0.689736 19.2165 0.888672 19.4619 0.888672Z" fill="#BBF1FF"/>
<path d="M0.888672 10.4863C1.08499 10.4863 1.24414 10.3272 1.24414 10.1309C1.24414 9.93454 1.08499 9.77539 0.888672 9.77539C0.692352 9.77539 0.533203 9.93454 0.533203 10.1309C0.533203 10.3272 0.692352 10.4863 0.888672 10.4863Z" fill="#BBF1FF"/>
<path d="M0.266602 14.1299C0.413842 14.1299 0.533203 14.0105 0.533203 13.8633C0.533203 13.716 0.413842 13.5967 0.266602 13.5967C0.119362 13.5967 0 13.716 0 13.8633C0 14.0105 0.119362 14.1299 0.266602 14.1299Z" fill="#BBF1FF"/>
<path d="M6.66504 1.42188C6.7632 1.42188 6.84277 1.3423 6.84277 1.24414C6.84277 1.14598 6.7632 1.06641 6.66504 1.06641C6.56688 1.06641 6.4873 1.14598 6.4873 1.24414C6.4873 1.3423 6.56688 1.42188 6.66504 1.42188Z" fill="#BBF1FF"/>
<path d="M2.93262 1.59961C2.9817 1.59961 3.02148 1.55982 3.02148 1.51074C3.02148 1.46166 2.9817 1.42188 2.93262 1.42188C2.88354 1.42188 2.84375 1.46166 2.84375 1.51074C2.84375 1.55982 2.88354 1.59961 2.93262 1.59961Z" fill="#BBF1FF"/>
<path d="M21.9502 2.48828C22.1956 2.48828 22.3945 2.28935 22.3945 2.04395C22.3945 1.79855 22.1956 1.59961 21.9502 1.59961C21.7048 1.59961 21.5059 1.79855 21.5059 2.04395C21.5059 2.28935 21.7048 2.48828 21.9502 2.48828Z" fill="#FFF4C5"/>
<path d="M17.5068 19.9062C17.7032 19.9062 17.8623 19.7471 17.8623 19.5508C17.8623 19.3545 17.7032 19.1953 17.5068 19.1953C17.3105 19.1953 17.1514 19.3545 17.1514 19.5508C17.1514 19.7471 17.3105 19.9062 17.5068 19.9062Z" fill="#FFF4C5"/>
<path d="M1.68848 17.6846C1.83572 17.6846 1.95508 17.5652 1.95508 17.418C1.95508 17.2707 1.83572 17.1514 1.68848 17.1514C1.54124 17.1514 1.42188 17.2707 1.42188 17.418C1.42188 17.5652 1.54124 17.6846 1.68848 17.6846Z" fill="#FFF4C5"/>
<path d="M15.6406 2.04395C15.7388 2.04395 15.8184 1.96437 15.8184 1.86621C15.8184 1.76805 15.7388 1.68848 15.6406 1.68848C15.5425 1.68848 15.4629 1.76805 15.4629 1.86621C15.4629 1.96437 15.5425 2.04395 15.6406 2.04395Z" fill="#FFF4C5"/>
<path d="M20.084 15.9961C20.1331 15.9961 20.1729 15.9563 20.1729 15.9072C20.1729 15.8581 20.1331 15.8184 20.084 15.8184C20.0349 15.8184 19.9951 15.8581 19.9951 15.9072C19.9951 15.9563 20.0349 15.9961 20.084 15.9961Z" fill="#FFF4C5"/>
</svg>
